<?xml version="1.0" encoding="UTF-8"?>
<svg id="Layer_2" data-name="Layer 2" width="130" height="130" xmlns="http://www.w3.org/2000/svg" viewBox="0 0 106.73 100">
  <defs>
    <style>
      .cls-1 {
        stroke-width: 0px;
      }
    </style>
  </defs>
  <g id="Layer_2-2" data-name="Layer 2">
    <g id="Layer_1-2" data-name="Layer 1-2">
      <g>
        <path class="cls-1" d="M106.73,15.83v68.37c-.84,1.95-2.34,2.54-4.4,2.53-13.68-.05-27.37-.03-41.05-.03h-1.24c0,3.36.02,6.55,0,9.74-.02,2.45-1.82,3.92-4.2,3.48-17.56-3.29-35.11-6.58-52.67-9.88-2.1-.39-3.16-1.62-3.16-3.73V13.69c0-2.06,1.06-3.32,3.06-3.7,3.88-.73,7.77-1.46,11.66-2.19C28.46,5.22,42.2,2.64,55.94.07c2.26-.42,4.06,1.08,4.09,3.41.03,2.88,0,5.76,0,8.65v1.2h1.34c13.68,0,27.37.02,41.05-.03,2.04,0,3.48.63,4.3,2.53ZM53.32,92.67V7.35c-15.56,2.92-31.06,5.82-46.58,8.73v67.86c15.54,2.91,31.01,5.81,46.58,8.73h0ZM60.08,79.95h39.92V20.06h-39.9v6.61c3.23,0,6.39,0,9.55,0,2.21,0,3.72,1.38,3.71,3.35-.01,1.97-1.52,3.31-3.75,3.31-2.81,0-5.63,0-8.44,0h-1.09v6.67h1.07c2.88,0,5.77-.01,8.65,0,2.06.01,3.54,1.4,3.56,3.29.02,1.94-1.46,3.35-3.58,3.37-1.91.02-3.82,0-5.73,0h-3.95v6.67c3.26,0,6.45-.01,9.64,0,2.13,0,3.62,1.4,3.62,3.33,0,1.93-1.49,3.32-3.63,3.33-2.85.02-5.7,0-8.54,0h-1.07v6.67c3.35,0,6.62-.02,9.88,0,1.91.02,3.34,1.45,3.37,3.26.03,1.86-1.4,3.32-3.36,3.39-.62.02-1.25,0-1.88,0h-8.05v6.6h0Z"/>
        <path class="cls-1" d="M35.34,49.11c3.1,3.54,6.14,7.01,9.17,10.49.44.5.88.98,1.3,1.5,1.27,1.56,1.16,3.52-.26,4.76s-3.4,1.12-4.74-.38c-2.73-3.05-5.41-6.16-8.1-9.24-.48-.55-.96-1.09-1.53-1.74-.29.35-.55.64-.79.96-2.54,3.26-5.06,6.53-7.61,9.78-.88,1.12-2.01,1.69-3.47,1.33-1.33-.32-2.2-1.14-2.53-2.48-.29-1.18.13-2.17.85-3.09,2.8-3.58,5.58-7.18,8.37-10.77.21-.27.41-.55.66-.88-1.59-1.82-3.16-3.62-4.73-5.42-1.39-1.6-2.8-3.18-4.18-4.78-1.46-1.7-1.41-3.69.1-4.99,1.47-1.26,3.44-1.06,4.88.58,2.46,2.78,4.9,5.59,7.34,8.38.22.26.46.5.76.82.27-.33.52-.6.75-.9,2.98-3.84,5.97-7.67,8.95-11.51.88-1.13,2-1.74,3.45-1.44,1.38.28,2.27,1.16,2.61,2.53.29,1.18-.14,2.17-.86,3.09-3.26,4.19-6.52,8.38-9.78,12.58-.19.24-.37.5-.62.84h0Z"/>
        <path class="cls-1" d="M86.69,26.67c1.11,0,2.22-.02,3.33,0,1.9.05,3.33,1.46,3.36,3.28.03,1.86-1.4,3.34-3.36,3.37-2.22.04-4.44.05-6.66,0-1.9-.04-3.3-1.51-3.3-3.32s1.42-3.26,3.31-3.32c1.11-.04,2.22,0,3.33,0h0Z"/>
        <path class="cls-1" d="M86.74,40.01c1.11,0,2.22-.03,3.33,0,1.89.06,3.3,1.5,3.3,3.32s-1.41,3.28-3.31,3.32c-2.26.05-4.51.05-6.76,0-1.89-.05-3.28-1.55-3.25-3.37.03-1.78,1.42-3.2,3.26-3.26,1.14-.04,2.29,0,3.44,0h0Z"/>
        <path class="cls-1" d="M86.65,60.01c-1.08,0-2.15.03-3.23,0-1.96-.06-3.4-1.51-3.37-3.36.02-1.82,1.44-3.25,3.34-3.28,2.22-.04,4.44-.04,6.66,0,1.9.04,3.31,1.49,3.32,3.3s-1.4,3.27-3.29,3.34c-1.14.04-2.29,0-3.44,0h0Z"/>
        <path class="cls-1" d="M86.64,73.36c-1.08,0-2.15.03-3.23,0-1.96-.06-3.39-1.51-3.36-3.37.02-1.82,1.45-3.24,3.35-3.28,2.22-.04,4.44-.04,6.66,0,1.89.04,3.31,1.5,3.31,3.31s-1.4,3.26-3.3,3.33c-1.14.04-2.29,0-3.44,0h0Z"/>
      </g>
    </g>
  </g>
</svg>