<?xml version="1.0" encoding="UTF-8"?>
<svg id="Layer_2" data-name="Layer 2" width="130" height="130" xmlns="http://www.w3.org/2000/svg" viewBox="0 0 106.78 100">
  <defs>
    <style>
      .cls-1 {
        stroke-width: 0px;
      }
    </style>
  </defs>
  <g id="Layer_2-2" data-name="Layer 2">
    <g id="Layer_1-2" data-name="Layer 1-2">
      <g>
        <path class="cls-1" d="M106.78,77.55c-.84,1.95-2.34,2.54-4.41,2.53-13.66-.05-27.31-.03-40.97-.03h-1.34v16.11c0,2.87-1.66,4.26-4.51,3.73-15.86-2.96-31.72-5.94-47.58-8.91-1.64-.31-3.28-.61-4.91-.91C1.1,89.69,0,88.42,0,86.45,0,62.16,0,37.87,0,13.58,0,11.65,1.08,10.34,2.95,9.99c15.62-2.93,31.24-5.85,46.86-8.78,2.01-.38,4.02-.76,6.04-1.13,2.39-.44,4.19,1.03,4.2,3.48.02,5.42,0,10.84,0,16.43h1.23c13.69,0,27.38.04,41.07-.04,2.02-.01,3.48.54,4.42,2.33v55.27h0ZM6.75,16.07v67.9c15.56,2.92,31.06,5.82,46.58,8.72V7.34c-15.55,2.92-31.03,5.82-46.58,8.73ZM100.05,73.33V30.23c-.4.28-.7.49-.99.72-7.68,5.97-15.36,11.95-23.04,17.92-1.89,1.47-3.01,1.52-5.02.24-3.28-2.08-6.56-4.18-9.85-6.26-.31-.2-.63-.37-1.04-.6v31.09h39.94,0ZM60.06,26.71c0,2.25.03,4.44-.02,6.62-.02.68.2,1.06.77,1.41,3.85,2.42,7.69,4.85,11.5,7.32.66.43,1.08.42,1.71-.07,5.93-4.65,11.88-9.26,17.83-13.89.54-.42,1.06-.84,1.75-1.39,0,0-33.55,0-33.55,0Z"/>
        <path class="cls-1" d="M46.73,53.47c-.18,6.03-2,11.53-6.66,15.82-6.27,5.77-15.18,5.43-20.96-.85-5.24-5.69-6.69-12.48-5.24-19.94.96-4.9,3.29-9.06,7.34-12.09,6.28-4.69,14.31-3.91,19.7,1.83,3.98,4.24,5.66,9.36,5.82,15.24ZM40.06,53.52c-.08-3.53-.95-6.65-2.87-9.46-3.67-5.37-10.78-5.34-14.37.08-3.73,5.64-3.73,12.79,0,18.43,3.32,5.02,9.45,5.56,13.5,1.12,2.65-2.9,3.62-6.48,3.74-10.18h0Z"/>
      </g>
    </g>
  </g>
</svg>