<?xml version="1.0" encoding="UTF-8"?>
<svg id="Layer_2" data-name="Layer 2" width="130" height="130" xmlns="http://www.w3.org/2000/svg" viewBox="0 0 106.76 100">
  <defs>
    <style>
      .cls-1 {
        stroke-width: 0px;
      }
    </style>
  </defs>
  <g id="Layer_2-2" data-name="Layer 2">
    <g id="Layer_1-2" data-name="Layer 1-2">
      <g>
        <path class="cls-1" d="M0,87.53V12.47c.7-1.4,1.71-2.28,3.36-2.58,11.09-2.02,22.17-4.13,33.25-6.21,6.38-1.2,12.75-2.39,19.13-3.59,2.49-.47,4.27.96,4.3,3.46.01.9,0,1.81,0,2.71v7.04h42.61c2.9,0,4.1,1.2,4.1,4.12v65.14c0,2.96-1.19,4.14-4.19,4.14h-42.52c0,3.38.02,6.61,0,9.84-.02,2.37-1.86,3.82-4.19,3.39-17.33-3.24-34.65-6.5-51.98-9.71-1.76-.32-3.15-.97-3.88-2.69h0ZM53.33,92.67V7.32c-15.57,2.92-31.08,5.83-46.58,8.73v67.89c15.55,2.91,31.03,5.81,46.58,8.73ZM60.1,41.35c1.82-10.48,10.49-15.36,18.06-14.64,8.49.81,14.99,7.67,15.26,16.01.26,8.3-5.68,15.68-13.75,17.02-4.64.77-8.92-.19-12.73-2.96-3.82-2.78-6.01-6.59-6.82-11.22v21.12h28.79c.45,0,.9-.02,1.36.02,1.78.12,3.13,1.53,3.16,3.27.02,1.74-1.29,3.19-3.06,3.36-.38.04-.76.02-1.14.02h-29.09v6.6h39.92V20.04h-39.94v21.31h0ZM73.4,34.01c-3.94,1.08-7.02,5.74-6.63,9.86.51,5.34,4.19,8.98,9.53,9.42,4.09.34,8.76-2.81,9.74-6.64h-1.03c-2.6,0-5.21,0-7.82,0-2.48,0-3.78-1.32-3.79-3.8,0-2.92,0-5.84,0-8.84h0ZM86.14,39.95c-1.2-2.92-3.11-4.9-6-6v6h6Z"/>
        <path class="cls-1" d="M26.69,59.99c0,3.45.01,6.72,0,9.98,0,1.37-.64,2.4-1.87,3.02-1.16.58-2.3.47-3.35-.26-1.06-.73-1.45-1.8-1.45-3.06.02-4.31,0-8.62,0-12.93v-19.81c0-2.3,1.31-3.62,3.6-3.62,3.3,0,6.6-.04,9.9.01,7.6.12,13.49,6.4,13.17,13.99-.29,6.78-5.92,12.42-12.72,12.65-2.38.08-4.78.01-7.28.01h0ZM26.73,53.31c2.43,0,4.76.11,7.08-.03,3.44-.2,6-2.9,6.21-6.3.19-3.18-2.08-6.36-5.28-6.75-2.62-.32-5.31-.06-8.01-.06v13.14h0Z"/>
      </g>
    </g>
  </g>
</svg>