<?xml version="1.0" encoding="UTF-8"?>
<svg id="Layer_2" data-name="Layer 2" width="130" height="130" xmlns="http://www.w3.org/2000/svg" viewBox="0 0 131.33 100">
  <defs>
    <style>
      .cls-1 {
        stroke-width: 0px;
      }
    </style>
  </defs>
  <g id="Layer_2-2" data-name="Layer 2">
    <g id="Layer_1-2" data-name="Layer 1-2">
      <g>
        <path class="cls-1" d="M62.51,50.04v46.32c-.04,2.95-1.84,4.28-4.64,3.35-9.67-3.21-19.33-6.44-29-9.66-8.65-2.88-17.3-5.77-25.94-8.65-2.35-.78-2.94-1.59-2.94-4.06V22.65c0-2.4.61-3.25,2.84-3.99C20.96,12.62,39.09,6.57,57.22.53c.56-.18,1.11-.39,1.68-.48,1.76-.3,3.34.88,3.56,2.65.07.58.05,1.17.05,1.76v45.59h0ZM56.24,7.53c-.31.08-.5.12-.68.18C39.47,13.07,23.37,18.44,7.26,23.76c-1.02.34-1.04.93-1.04,1.76.01,16.32.02,32.63-.02,48.94,0,1.14.39,1.59,1.42,1.94,15.74,5.2,31.46,10.45,47.19,15.68.45.15.91.28,1.43.43V7.53Z"/>
        <path class="cls-1" d="M71.96,93.78v-6.23c2.12,0,4.2.03,6.28,0,6.08-.1,11.06-4.26,12.22-10.23.14-.72.18-1.46.18-2.19.02-5.91.02-11.82,0-17.74,0-.33-.07-.66-.12-1.14h-18.54v-6.16c.49-.03.92-.07,1.34-.07,6.6,0,13.19,0,19.78,0,2.67,0,3.84,1.15,3.84,3.84.02,6.99.05,13.97,0,20.96-.09,10.77-8.21,18.86-18.97,18.95-1.95.02-3.9,0-6.02,0h0Z"/>
        <path class="cls-1" d="M106.41,93.74v-6.19c1.91,0,3.75,0,5.59,0,7.65-.02,13-5.3,13.1-12.94.04-2.92,0-5.84,0-8.98h-18.64v-6.23h20.97c2.8,0,3.93,1.1,3.89,3.91-.06,4.92.2,9.89-.34,14.77-.94,8.47-8.69,15.3-17.18,15.64-2.42.1-4.86.02-7.39.02h0Z"/>
        <path class="cls-1" d="M68.83,28.06c.03-6.93,5.57-12.43,12.5-12.42,6.97.02,12.54,5.64,12.48,12.61-.06,6.85-5.72,12.41-12.6,12.37-6.87-.04-12.4-5.66-12.38-12.56h0ZM75.05,28.09c-.02,3.42,2.77,6.25,6.18,6.3,3.43.05,6.36-2.88,6.33-6.31-.03-3.41-2.86-6.21-6.27-6.2-3.43,0-6.23,2.79-6.24,6.22h0Z"/>
        <path class="cls-1" d="M115.64,25.03c6.93-.03,12.48,5.46,12.52,12.39.04,6.92-5.47,12.54-12.34,12.59-6.94.05-12.62-5.56-12.63-12.49,0-6.89,5.54-12.46,12.45-12.5h0ZM121.95,37.56c.02-3.43-2.74-6.26-6.16-6.3-3.48-.04-6.37,2.8-6.36,6.26.02,3.4,2.86,6.24,6.25,6.26,3.39.02,6.24-2.81,6.27-6.22Z"/>
        <path class="cls-1" d="M43.67,40.61h-9.26v24.92h-6.23v-24.87h-9.35v-6.17h24.83v6.12h0Z"/>
      </g>
    </g>
  </g>
</svg>