<?xml version="1.0" encoding="UTF-8"?>
<svg id="Layer_2" data-name="Layer 2" width="130" height="130" xmlns="http://www.w3.org/2000/svg" viewBox="0 0 106.76 100">
  <defs>
    <style>
      .cls-1 {
        stroke-width: 0px;
      }
    </style>
  </defs>
  <g id="Layer_2-2" data-name="Layer 2">
    <g id="Layer_1-2" data-name="Layer 1-2">
      <g>
        <path class="cls-1" d="M0,87.53V12.47c.7-1.4,1.71-2.28,3.36-2.58,11.09-2.02,22.17-4.13,33.25-6.21,6.38-1.2,12.75-2.39,19.13-3.59,2.49-.47,4.27.96,4.3,3.46.01.9,0,1.81,0,2.71v7.04h42.61c2.9,0,4.1,1.2,4.1,4.12v65.14c0,2.96-1.19,4.14-4.19,4.14h-42.52c0,3.38.02,6.61,0,9.84-.02,2.37-1.86,3.82-4.19,3.39-17.33-3.24-34.65-6.5-51.98-9.71-1.76-.32-3.15-.97-3.88-2.69h0ZM6.72,83.94c15.59,2.92,31.08,5.82,46.61,8.73V7.32c-15.57,2.92-31.08,5.83-46.61,8.74v67.88ZM60.08,53.34h29.17c.38,0,.77-.02,1.14.02,1.6.16,2.85,1.4,3.01,2.98.16,1.58-.8,3.04-2.36,3.48-.52.15-1.1.18-1.64.18-9.35.01-18.7,0-28.05,0h-1.21v6.67h29.05c.38,0,.77-.01,1.15.02,1.64.14,2.93,1.41,3.07,3.02.14,1.59-.83,3.02-2.41,3.46-.52.14-1.1.17-1.64.17-9.35,0-18.7,0-28.05,0h-1.19v6.6h39.9V20.03h-39.89v6.62h29.14c.38,0,.77-.02,1.14.02,1.59.16,2.84,1.42,2.99,3,.15,1.58-.81,3.03-2.38,3.47-.52.15-1.1.17-1.64.17-9.35,0-18.7,0-28.05,0h-1.18v6.67h29.07c.42,0,.84-.02,1.25.03,1.59.18,2.82,1.46,2.95,3.03.13,1.55-.81,2.97-2.33,3.41-.56.16-1.16.19-1.74.19-9.35.01-18.7,0-28.05,0h-1.2v6.67h0Z"/>
        <path class="cls-1" d="M21.53,53.14c1.17-3.12,2.23-5.93,3.29-8.75.63-1.69,1.26-3.38,1.9-5.07.63-1.66,1.75-2.47,3.36-2.44,1.58.02,2.66.81,3.27,2.43,1.48,3.93,2.94,7.86,4.42,11.79.12.31.26.61.52,1.2.4-3.58.77-6.84,1.13-10.1.21-1.86.42-3.72.62-5.59.23-2.08,1.81-3.48,3.7-3.27,1.92.22,3.17,1.87,2.94,3.97-.4,3.76-.83,7.52-1.25,11.28-.67,5.97-1.34,11.94-2.02,17.91-.23,2.06-1.32,3.3-3.08,3.5-1.55.18-2.9-.83-3.61-2.71-2.08-5.52-4.15-11.04-6.22-16.56-.12-.31-.25-.6-.48-1.14-.54,1.41-.99,2.59-1.43,3.78-1.75,4.68-3.49,9.36-5.26,14.03-.96,2.54-3.5,3.44-5.35,1.81-.62-.55-1.12-1.48-1.24-2.3-1.16-7.65-2.25-15.32-3.33-22.98-.28-1.98.98-3.65,2.88-3.91,1.82-.25,3.44,1.02,3.73,2.98.44,2.99.85,5.98,1.28,8.97.04.29.12.58.24,1.17h0Z"/>
      </g>
    </g>
  </g>
</svg>