<svg width="14" height="16" viewBox="0 0 14 16" fill="none" xmlns="http://www.w3.org/2000/svg">
<path d="M10.8321 7.40414L10.6288 7.27341C10.6596 6.80864 10.5925 6.34258 10.4318 5.90541C10.271 5.46823 10.0203 5.06968 9.69576 4.73556C9.37123 4.40144 8.98014 4.13921 8.54783 3.96583C8.11551 3.79245 7.6516 3.7118 7.18614 3.72909C6.61853 3.70548 6.05421 3.82638 5.54608 4.08044C5.03795 4.33451 4.60265 4.71342 4.28096 5.18168L5.42851 5.96608C5.62354 5.68019 5.88926 5.44965 6.19981 5.29692C6.51036 5.14419 6.85517 5.07446 7.20067 5.09452C7.48537 5.07388 7.77112 5.11658 8.03736 5.21955C8.30359 5.32253 8.5437 5.48323 8.74041 5.69009C9.01015 6.02238 9.17678 6.42633 9.21976 6.85216C8.57139 6.75041 7.91419 6.71633 7.25877 6.75047C5.28325 6.86668 4.00497 8.02875 4.09213 9.65565C4.10815 10.0501 4.21797 10.4351 4.41248 10.7787C4.607 11.1222 4.88061 11.4145 5.21062 11.6312C5.84525 12.0235 6.58713 12.2064 7.3314 12.1541C7.79432 12.1512 8.25082 12.0455 8.66785 11.8445C9.08489 11.6435 9.45202 11.3523 9.74269 10.992C10.209 10.3585 10.4951 9.61063 10.5707 8.82768C11.0316 9.10128 11.4007 9.50578 11.6311 9.98975C11.8474 10.5322 11.8952 11.1273 11.7682 11.6974C11.6412 12.2675 11.3454 12.786 10.9193 13.1854C10.4177 13.66 9.82303 14.0252 9.17287 14.2577C8.52272 14.4903 7.83133 14.5852 7.14256 14.5363C6.34097 14.5897 5.53795 14.4561 4.79682 14.146C4.0557 13.8359 3.39676 13.3579 2.87195 12.7497C1.93893 11.3434 1.49482 9.66902 1.6082 7.98517C1.51831 6.29334 1.98795 4.61898 2.94458 3.22069C3.46461 2.62779 4.11301 2.16132 4.84046 1.85674C5.56791 1.55217 6.35524 1.41753 7.14256 1.46305C7.95959 1.41077 8.77767 1.54737 9.53339 1.86225C10.2891 2.17713 10.9621 2.66184 11.5003 3.27879C12.0012 3.9182 12.3624 4.65551 12.5607 5.44315L13.9116 5.09452C13.6525 4.08712 13.1821 3.14633 12.5317 2.33461C11.8723 1.5592 11.0432 0.946171 10.1086 0.543103C9.17395 0.140035 8.15902 -0.0422267 7.14256 0.0104667C6.13045 -0.0472628 5.11898 0.134409 4.19021 0.540743C3.26145 0.947078 2.44155 1.56663 1.79704 2.34913C0.633751 3.99078 0.0556888 5.97563 0.155614 7.98517C0.0580422 9.99895 0.635735 11.9877 1.79704 13.6357C2.44011 14.4171 3.25727 15.0369 4.18303 15.4456C5.10879 15.8542 6.1174 16.0403 7.12804 15.9889C8.00081 16.041 8.87478 15.9088 9.69313 15.601C10.5115 15.2932 11.2559 14.8166 11.878 14.2023C12.5027 13.5997 12.9332 12.8242 13.1144 11.9754C13.2956 11.1265 13.2191 10.2429 12.8948 9.43776C12.4746 8.53362 11.7421 7.81151 10.8321 7.40414ZM7.25877 10.7741C6.38722 10.7741 5.48661 10.4255 5.44303 9.59755C5.39946 8.76957 5.87881 8.29022 7.30235 8.14496H7.7817C8.26945 8.14646 8.75591 8.1951 9.23429 8.29022C9.05998 10.3965 8.10127 10.716 7.25877 10.7741Z" fill="white" fill-opacity="0.65"/>
</svg>
