<svg width="121" height="54" viewBox="0 0 121 54" fill="none" xmlns="http://www.w3.org/2000/svg">
<g filter="url(#filter0_d_54_13965)">
<rect x="4.5" y="0.5" width="81" height="35" rx="17.5" fill="#E6FFB1"/>
<rect x="4.5" y="0.5" width="81" height="35" rx="17.5" stroke="#6F6F6F"/>
<path d="M29.102 18.114C29.102 17.162 29.3167 16.308 29.746 15.552C30.1753 14.7867 30.7587 14.1893 31.496 13.76C32.2427 13.3307 33.0687 13.116 33.974 13.116C35.038 13.116 35.9667 13.3727 36.76 13.886C37.5533 14.3993 38.132 15.1273 38.496 16.07H36.97C36.6993 15.482 36.3073 15.0293 35.794 14.712C35.29 14.3947 34.6833 14.236 33.974 14.236C33.2927 14.236 32.6813 14.3947 32.14 14.712C31.5987 15.0293 31.174 15.482 30.866 16.07C30.558 16.6487 30.404 17.33 30.404 18.114C30.404 18.8887 30.558 19.57 30.866 20.158C31.174 20.7367 31.5987 21.1847 32.14 21.502C32.6813 21.8193 33.2927 21.978 33.974 21.978C34.6833 21.978 35.29 21.824 35.794 21.516C36.3073 21.1987 36.6993 20.746 36.97 20.158H38.496C38.132 21.0913 37.5533 21.8147 36.76 22.328C35.9667 22.832 35.038 23.084 33.974 23.084C33.0687 23.084 32.2427 22.874 31.496 22.454C30.7587 22.0247 30.1753 21.432 29.746 20.676C29.3167 19.92 29.102 19.066 29.102 18.114ZM50.7905 13.312V23H49.5165V15.776L46.2965 23H45.4005L42.1665 15.762V23H40.8925V13.312H42.2645L45.8485 21.32L49.4325 13.312H50.7905ZM56.545 23.098C55.901 23.098 55.3224 22.986 54.809 22.762C54.305 22.5287 53.9084 22.2113 53.619 21.81C53.3297 21.3993 53.1804 20.928 53.171 20.396H54.529C54.5757 20.8533 54.7624 21.2407 55.089 21.558C55.425 21.866 55.9104 22.02 56.545 22.02C57.1517 22.02 57.6277 21.8707 57.973 21.572C58.3277 21.264 58.505 20.872 58.505 20.396C58.505 20.0227 58.4024 19.7193 58.197 19.486C57.9917 19.2527 57.735 19.0753 57.427 18.954C57.119 18.8327 56.7037 18.702 56.181 18.562C55.537 18.394 55.019 18.226 54.627 18.058C54.2444 17.89 53.913 17.6287 53.633 17.274C53.3624 16.91 53.227 16.4247 53.227 15.818C53.227 15.286 53.3624 14.8147 53.633 14.404C53.9037 13.9933 54.2817 13.676 54.767 13.452C55.2617 13.228 55.8264 13.116 56.461 13.116C57.3757 13.116 58.1224 13.3447 58.701 13.802C59.289 14.2593 59.6204 14.866 59.695 15.622H58.295C58.2484 15.2487 58.0524 14.922 57.707 14.642C57.3617 14.3527 56.9044 14.208 56.335 14.208C55.803 14.208 55.369 14.348 55.033 14.628C54.697 14.8987 54.529 15.2813 54.529 15.776C54.529 16.1307 54.627 16.42 54.823 16.644C55.0284 16.868 55.2757 17.0407 55.565 17.162C55.8637 17.274 56.279 17.4047 56.811 17.554C57.455 17.7313 57.973 17.9087 58.365 18.086C58.757 18.254 59.093 18.52 59.373 18.884C59.653 19.2387 59.793 19.724 59.793 20.34C59.793 20.816 59.667 21.264 59.415 21.684C59.163 22.104 58.7897 22.4447 58.295 22.706C57.8004 22.9673 57.217 23.098 56.545 23.098Z" fill="black"/>
<path d="M114.679 38.1759L108.528 38.9317L105.607 44.3974L104.536 33.1107L114.679 38.1759Z" fill="#A3FF2E" stroke="black" stroke-width="0.8" stroke-miterlimit="10"/>
</g>
<defs>
<filter id="filter0_d_54_13965" x="0" y="0" width="120.045" height="53.7565" filterUnits="userSpaceOnUse" color-interpolation-filters="sRGB">
<feFlood flood-opacity="0" result="BackgroundImageFix"/>
<feColorMatrix in="SourceAlpha" type="matrix" values="0 0 0 0 0 0 0 0 0 0 0 0 0 0 0 0 0 0 127 0" result="hardAlpha"/>
<feOffset dy="4"/>
<feGaussianBlur stdDeviation="2"/>
<feComposite in2="hardAlpha" operator="out"/>
<feColorMatrix type="matrix" values="0 0 0 0 0 0 0 0 0 0 0 0 0 0 0 0 0 0 0.25 0"/>
<feBlend mode="normal" in2="BackgroundImageFix" result="effect1_dropShadow_54_13965"/>
<feBlend mode="normal" in="SourceGraphic" in2="effect1_dropShadow_54_13965" result="shape"/>
</filter>
</defs>
</svg>
