<svg width="182" height="55" viewBox="0 0 182 55" fill="none" xmlns="http://www.w3.org/2000/svg">
<g filter="url(#filter0_d_351_92)">
<rect x="28.5" y="2.5" width="126" height="35" rx="17.5" fill="#DEF5FF"/>
<rect x="28.5" y="2.5" width="126" height="35" rx="17.5" stroke="#6F6F6F"/>
<path d="M50.602 18.098C50.602 18.91 50.322 19.5867 49.762 20.128C49.2113 20.66 48.3667 20.926 47.228 20.926H45.352V25H44.078V15.242H47.228C48.3293 15.242 49.1647 15.508 49.734 16.04C50.3127 16.572 50.602 17.258 50.602 18.098ZM47.228 19.876C47.9373 19.876 48.46 19.722 48.796 19.414C49.132 19.106 49.3 18.6673 49.3 18.098C49.3 16.894 48.6093 16.292 47.228 16.292H45.352V19.876H47.228ZM52.2094 21.136C52.2094 20.352 52.3681 19.666 52.6854 19.078C53.0028 18.4807 53.4368 18.0187 53.9874 17.692C54.5474 17.3653 55.1681 17.202 55.8494 17.202C56.5214 17.202 57.1048 17.3467 57.5994 17.636C58.0941 17.9253 58.4628 18.2893 58.7054 18.728V17.328H59.9934V25H58.7054V23.572C58.4534 24.02 58.0754 24.3933 57.5714 24.692C57.0768 24.9813 56.4981 25.126 55.8354 25.126C55.1541 25.126 54.5381 24.958 53.9874 24.622C53.4368 24.286 53.0028 23.8147 52.6854 23.208C52.3681 22.6013 52.2094 21.9107 52.2094 21.136ZM58.7054 21.15C58.7054 20.5713 58.5888 20.0673 58.3554 19.638C58.1221 19.2087 57.8048 18.882 57.4034 18.658C57.0114 18.4247 56.5774 18.308 56.1014 18.308C55.6254 18.308 55.1914 18.42 54.7994 18.644C54.4074 18.868 54.0948 19.1947 53.8614 19.624C53.6281 20.0533 53.5114 20.5573 53.5114 21.136C53.5114 21.724 53.6281 22.2373 53.8614 22.676C54.0948 23.1053 54.4074 23.4367 54.7994 23.67C55.1914 23.894 55.6254 24.006 56.1014 24.006C56.5774 24.006 57.0114 23.894 57.4034 23.67C57.8048 23.4367 58.1221 23.1053 58.3554 22.676C58.5888 22.2373 58.7054 21.7287 58.7054 21.15ZM65.8104 17.202C66.473 17.202 67.0517 17.3467 67.5464 17.636C68.0504 17.9253 68.4237 18.2893 68.6664 18.728V17.328H69.9544V25.168C69.9544 25.868 69.805 26.4887 69.5064 27.03C69.2077 27.5807 68.7784 28.01 68.2184 28.318C67.6677 28.626 67.0237 28.78 66.2864 28.78C65.2784 28.78 64.4384 28.542 63.7664 28.066C63.0944 27.59 62.6977 26.9413 62.5764 26.12H63.8364C63.9764 26.5867 64.2657 26.96 64.7044 27.24C65.143 27.5293 65.6704 27.674 66.2864 27.674C66.9864 27.674 67.5557 27.4547 67.9944 27.016C68.4424 26.5773 68.6664 25.9613 68.6664 25.168V23.558C68.4144 24.006 68.041 24.3793 67.5464 24.678C67.0517 24.9767 66.473 25.126 65.8104 25.126C65.129 25.126 64.5084 24.958 63.9484 24.622C63.3977 24.286 62.9637 23.8147 62.6464 23.208C62.329 22.6013 62.1704 21.9107 62.1704 21.136C62.1704 20.352 62.329 19.666 62.6464 19.078C62.9637 18.4807 63.3977 18.0187 63.9484 17.692C64.5084 17.3653 65.129 17.202 65.8104 17.202ZM68.6664 21.15C68.6664 20.5713 68.5497 20.0673 68.3164 19.638C68.083 19.2087 67.7657 18.882 67.3644 18.658C66.9724 18.4247 66.5384 18.308 66.0624 18.308C65.5864 18.308 65.1524 18.42 64.7604 18.644C64.3684 18.868 64.0557 19.1947 63.8224 19.624C63.589 20.0533 63.4724 20.5573 63.4724 21.136C63.4724 21.724 63.589 22.2373 63.8224 22.676C64.0557 23.1053 64.3684 23.4367 64.7604 23.67C65.1524 23.894 65.5864 24.006 66.0624 24.006C66.5384 24.006 66.9724 23.894 67.3644 23.67C67.7657 23.4367 68.083 23.1053 68.3164 22.676C68.5497 22.2373 68.6664 21.7287 68.6664 21.15ZM79.6073 20.87C79.6073 21.1127 79.5933 21.3693 79.5653 21.64H73.4333C73.48 22.396 73.7366 22.9887 74.2033 23.418C74.6793 23.838 75.2533 24.048 75.9253 24.048C76.476 24.048 76.9333 23.922 77.2973 23.67C77.6706 23.4087 77.932 23.0633 78.0813 22.634H79.4533C79.248 23.3713 78.8373 23.9733 78.2213 24.44C77.6053 24.8973 76.84 25.126 75.9253 25.126C75.1973 25.126 74.544 24.9627 73.9653 24.636C73.396 24.3093 72.948 23.8473 72.6213 23.25C72.2946 22.6433 72.1313 21.9433 72.1313 21.15C72.1313 20.3567 72.29 19.6613 72.6073 19.064C72.9246 18.4667 73.368 18.0093 73.9373 17.692C74.516 17.3653 75.1786 17.202 75.9253 17.202C76.6533 17.202 77.2973 17.3607 77.8573 17.678C78.4173 17.9953 78.8466 18.434 79.1453 18.994C79.4533 19.5447 79.6073 20.17 79.6073 20.87ZM78.2913 20.604C78.2913 20.1187 78.184 19.7033 77.9693 19.358C77.7546 19.0033 77.4606 18.7373 77.0873 18.56C76.7233 18.3733 76.3173 18.28 75.8693 18.28C75.2253 18.28 74.6746 18.4853 74.2173 18.896C73.7693 19.3067 73.5126 19.876 73.4473 20.604H78.2913ZM87.1089 19.33V20.408H81.5229V19.33H87.1089ZM94.8859 19.974C95.2405 20.03 95.5625 20.1747 95.8519 20.408C96.1505 20.6413 96.3839 20.9307 96.5519 21.276C96.7292 21.6213 96.8179 21.99 96.8179 22.382C96.8179 22.8767 96.6919 23.3247 96.4399 23.726C96.1879 24.118 95.8192 24.4307 95.3339 24.664C94.8579 24.888 94.2932 25 93.6399 25H89.9999V15.242H93.4999C94.1625 15.242 94.7272 15.354 95.1939 15.578C95.6605 15.7927 96.0105 16.0867 96.2439 16.46C96.4772 16.8333 96.5939 17.2533 96.5939 17.72C96.5939 18.2987 96.4352 18.7793 96.1179 19.162C95.8099 19.5353 95.3992 19.806 94.8859 19.974ZM91.2739 19.456H93.4159C94.0132 19.456 94.4752 19.316 94.8019 19.036C95.1285 18.756 95.2919 18.3687 95.2919 17.874C95.2919 17.3793 95.1285 16.992 94.8019 16.712C94.4752 16.432 94.0039 16.292 93.3879 16.292H91.2739V19.456ZM93.5279 23.95C94.1625 23.95 94.6572 23.8007 95.0119 23.502C95.3665 23.2033 95.5439 22.788 95.5439 22.256C95.5439 21.7147 95.3572 21.29 94.9839 20.982C94.6105 20.6647 94.1112 20.506 93.4859 20.506H91.2739V23.95H93.5279ZM105.89 17.328V25H104.616V23.866C104.373 24.258 104.032 24.566 103.594 24.79C103.164 25.0047 102.688 25.112 102.166 25.112C101.568 25.112 101.032 24.9907 100.556 24.748C100.08 24.496 99.7018 24.1227 99.4218 23.628C99.1511 23.1333 99.0158 22.5313 99.0158 21.822V17.328H100.276V21.654C100.276 22.41 100.467 22.9933 100.85 23.404C101.232 23.8053 101.755 24.006 102.418 24.006C103.099 24.006 103.636 23.796 104.028 23.376C104.42 22.956 104.616 22.3447 104.616 21.542V17.328H105.89ZM109.199 16.082C108.956 16.082 108.751 15.998 108.583 15.83C108.415 15.662 108.331 15.4567 108.331 15.214C108.331 14.9713 108.415 14.766 108.583 14.598C108.751 14.43 108.956 14.346 109.199 14.346C109.432 14.346 109.628 14.43 109.787 14.598C109.955 14.766 110.039 14.9713 110.039 15.214C110.039 15.4567 109.955 15.662 109.787 15.83C109.628 15.998 109.432 16.082 109.199 16.082ZM109.815 17.328V25H108.541V17.328H109.815ZM113.76 14.64V25H112.486V14.64H113.76ZM115.956 21.136C115.956 20.352 116.114 19.666 116.432 19.078C116.749 18.4807 117.183 18.0187 117.734 17.692C118.294 17.3653 118.919 17.202 119.61 17.202C120.207 17.202 120.762 17.342 121.276 17.622C121.789 17.8927 122.181 18.252 122.452 18.7V14.64H123.74V25H122.452V23.558C122.2 24.0153 121.826 24.3933 121.332 24.692C120.837 24.9813 120.258 25.126 119.596 25.126C118.914 25.126 118.294 24.958 117.734 24.622C117.183 24.286 116.749 23.8147 116.432 23.208C116.114 22.6013 115.956 21.9107 115.956 21.136ZM122.452 21.15C122.452 20.5713 122.335 20.0673 122.102 19.638C121.868 19.2087 121.551 18.882 121.15 18.658C120.758 18.4247 120.324 18.308 119.848 18.308C119.372 18.308 118.938 18.42 118.546 18.644C118.154 18.868 117.841 19.1947 117.608 19.624C117.374 20.0533 117.258 20.5573 117.258 21.136C117.258 21.724 117.374 22.2373 117.608 22.676C117.841 23.1053 118.154 23.4367 118.546 23.67C118.938 23.894 119.372 24.006 119.848 24.006C120.324 24.006 120.758 23.894 121.15 23.67C121.551 23.4367 121.868 23.1053 122.102 22.676C122.335 22.2373 122.452 21.7287 122.452 21.15ZM133.392 20.87C133.392 21.1127 133.378 21.3693 133.35 21.64H127.218C127.265 22.396 127.522 22.9887 127.988 23.418C128.464 23.838 129.038 24.048 129.71 24.048C130.261 24.048 130.718 23.922 131.082 23.67C131.456 23.4087 131.717 23.0633 131.866 22.634H133.238C133.033 23.3713 132.622 23.9733 132.006 24.44C131.39 24.8973 130.625 25.126 129.71 25.126C128.982 25.126 128.329 24.9627 127.75 24.636C127.181 24.3093 126.733 23.8473 126.406 23.25C126.08 22.6433 125.916 21.9433 125.916 21.15C125.916 20.3567 126.075 19.6613 126.392 19.064C126.71 18.4667 127.153 18.0093 127.722 17.692C128.301 17.3653 128.964 17.202 129.71 17.202C130.438 17.202 131.082 17.3607 131.642 17.678C132.202 17.9953 132.632 18.434 132.93 18.994C133.238 19.5447 133.392 20.17 133.392 20.87ZM132.076 20.604C132.076 20.1187 131.969 19.7033 131.754 19.358C131.54 19.0033 131.246 18.7373 130.872 18.56C130.508 18.3733 130.102 18.28 129.654 18.28C129.01 18.28 128.46 18.4853 128.002 18.896C127.554 19.3067 127.298 19.876 127.232 20.604H132.076ZM136.848 18.574C137.072 18.1353 137.389 17.7947 137.8 17.552C138.22 17.3093 138.729 17.188 139.326 17.188V18.504H138.99C137.562 18.504 136.848 19.2787 136.848 20.828V25H135.574V17.328H136.848V18.574Z" fill="black"/>
<path d="M18.728 15.888L17.744 20.496H21.32V21.456H17.528L16.352 27H15.296L16.472 21.456H10.808L9.632 27H8.576L9.752 21.456H5.912V20.496H9.968L10.952 15.888H7.16V14.928H11.144L12.368 9.24H13.424L12.2 14.928H17.864L19.088 9.24H20.144L18.92 14.928H22.568V15.888H18.728ZM17.672 15.888H12.008L11.024 20.496H16.688L17.672 15.888Z" fill="black" fill-opacity="0.6"/>
<path d="M176.788 39.0102L170.88 40.8801L169.01 46.7884L165.889 35.8891L176.788 39.0102Z" fill="#A3FF2E" stroke="black" stroke-width="0.8" stroke-miterlimit="10"/>
</g>
<defs>
<filter id="filter0_d_351_92" x="0.912109" y="0" width="180.262" height="54.1745" filterUnits="userSpaceOnUse" color-interpolation-filters="sRGB">
<feFlood flood-opacity="0" result="BackgroundImageFix"/>
<feColorMatrix in="SourceAlpha" type="matrix" values="0 0 0 0 0 0 0 0 0 0 0 0 0 0 0 0 0 0 127 0" result="hardAlpha"/>
<feOffset dx="-1" dy="2"/>
<feGaussianBlur stdDeviation="2"/>
<feComposite in2="hardAlpha" operator="out"/>
<feColorMatrix type="matrix" values="0 0 0 0 0 0 0 0 0 0 0 0 0 0 0 0 0 0 0.3 0"/>
<feBlend mode="normal" in2="BackgroundImageFix" result="effect1_dropShadow_351_92"/>
<feBlend mode="normal" in="SourceGraphic" in2="effect1_dropShadow_351_92" result="shape"/>
</filter>
</defs>
</svg>
