<svg width="165" height="46" viewBox="0 0 165 46" fill="none" xmlns="http://www.w3.org/2000/svg">
<g filter="url(#filter0_d_351_97)">
<rect x="30.5" y="2.5" width="101" height="35" rx="17.5" fill="#FEDBFF"/>
<rect x="30.5" y="2.5" width="101" height="35" rx="17.5" stroke="#6F6F6F"/>
<path d="M62.102 18.098C62.102 18.91 61.822 19.5867 61.262 20.128C60.7113 20.66 59.8667 20.926 58.728 20.926H56.852V25H55.578V15.242H58.728C59.8293 15.242 60.6647 15.508 61.234 16.04C61.8127 16.572 62.102 17.258 62.102 18.098ZM58.728 19.876C59.4373 19.876 59.96 19.722 60.296 19.414C60.632 19.106 60.8 18.6673 60.8 18.098C60.8 16.894 60.1093 16.292 58.728 16.292H56.852V19.876H58.728ZM65.4594 14.64V25H64.1854V14.64H65.4594ZM74.9347 17.328V25H73.6607V23.866C73.4181 24.258 73.0774 24.566 72.6387 24.79C72.2094 25.0047 71.7334 25.112 71.2107 25.112C70.6134 25.112 70.0767 24.9907 69.6007 24.748C69.1247 24.496 68.7467 24.1227 68.4667 23.628C68.1961 23.1333 68.0607 22.5313 68.0607 21.822V17.328H69.3207V21.654C69.3207 22.41 69.5121 22.9933 69.8947 23.404C70.2774 23.8053 70.8001 24.006 71.4627 24.006C72.1441 24.006 72.6807 23.796 73.0727 23.376C73.4647 22.956 73.6607 22.3447 73.6607 21.542V17.328H74.9347ZM80.7498 17.202C81.4125 17.202 81.9911 17.3467 82.4858 17.636C82.9898 17.9253 83.3631 18.2893 83.6058 18.728V17.328H84.8938V25.168C84.8938 25.868 84.7445 26.4887 84.4458 27.03C84.1471 27.5807 83.7178 28.01 83.1578 28.318C82.6071 28.626 81.9631 28.78 81.2258 28.78C80.2178 28.78 79.3778 28.542 78.7058 28.066C78.0338 27.59 77.6371 26.9413 77.5158 26.12H78.7758C78.9158 26.5867 79.2051 26.96 79.6438 27.24C80.0825 27.5293 80.6098 27.674 81.2258 27.674C81.9258 27.674 82.4951 27.4547 82.9338 27.016C83.3818 26.5773 83.6058 25.9613 83.6058 25.168V23.558C83.3538 24.006 82.9805 24.3793 82.4858 24.678C81.9911 24.9767 81.4125 25.126 80.7498 25.126C80.0685 25.126 79.4478 24.958 78.8878 24.622C78.3371 24.286 77.9031 23.8147 77.5858 23.208C77.2685 22.6013 77.1098 21.9107 77.1098 21.136C77.1098 20.352 77.2685 19.666 77.5858 19.078C77.9031 18.4807 78.3371 18.0187 78.8878 17.692C79.4478 17.3653 80.0685 17.202 80.7498 17.202ZM83.6058 21.15C83.6058 20.5713 83.4891 20.0673 83.2558 19.638C83.0225 19.2087 82.7051 18.882 82.3038 18.658C81.9118 18.4247 81.4778 18.308 81.0018 18.308C80.5258 18.308 80.0918 18.42 79.6998 18.644C79.3078 18.868 78.9951 19.1947 78.7618 19.624C78.5285 20.0533 78.4118 20.5573 78.4118 21.136C78.4118 21.724 78.5285 22.2373 78.7618 22.676C78.9951 23.1053 79.3078 23.4367 79.6998 23.67C80.0918 23.894 80.5258 24.006 81.0018 24.006C81.4778 24.006 81.9118 23.894 82.3038 23.67C82.7051 23.4367 83.0225 23.1053 83.2558 22.676C83.4891 22.2373 83.6058 21.7287 83.6058 21.15ZM88.2048 16.082C87.9621 16.082 87.7568 15.998 87.5888 15.83C87.4208 15.662 87.3368 15.4567 87.3368 15.214C87.3368 14.9713 87.4208 14.766 87.5888 14.598C87.7568 14.43 87.9621 14.346 88.2048 14.346C88.4381 14.346 88.6341 14.43 88.7928 14.598C88.9608 14.766 89.0448 14.9713 89.0448 15.214C89.0448 15.4567 88.9608 15.662 88.7928 15.83C88.6341 15.998 88.4381 16.082 88.2048 16.082ZM88.8208 17.328V25H87.5468V17.328H88.8208ZM95.2301 17.188C96.1634 17.188 96.9194 17.4727 97.4981 18.042C98.0767 18.602 98.3661 19.414 98.3661 20.478V25H97.1061V20.66C97.1061 19.8947 96.9147 19.3113 96.5321 18.91C96.1494 18.4993 95.6267 18.294 94.9641 18.294C94.2921 18.294 93.7554 18.504 93.3541 18.924C92.9621 19.344 92.7661 19.9553 92.7661 20.758V25H91.4921V17.328H92.7661V18.42C93.0181 18.028 93.3587 17.7247 93.7881 17.51C94.2267 17.2953 94.7074 17.188 95.2301 17.188ZM103.663 25.126C103.075 25.126 102.548 25.028 102.081 24.832C101.614 24.6267 101.246 24.3467 100.975 23.992C100.704 23.628 100.555 23.2127 100.527 22.746H101.843C101.88 23.1287 102.058 23.4413 102.375 23.684C102.702 23.9267 103.126 24.048 103.649 24.048C104.134 24.048 104.517 23.9407 104.797 23.726C105.077 23.5113 105.217 23.2407 105.217 22.914C105.217 22.578 105.068 22.3307 104.769 22.172C104.47 22.004 104.008 21.8407 103.383 21.682C102.814 21.5327 102.347 21.3833 101.983 21.234C101.628 21.0753 101.32 20.8467 101.059 20.548C100.807 20.24 100.681 19.8387 100.681 19.344C100.681 18.952 100.798 18.5927 101.031 18.266C101.264 17.9393 101.596 17.6827 102.025 17.496C102.454 17.3 102.944 17.202 103.495 17.202C104.344 17.202 105.03 17.4167 105.553 17.846C106.076 18.2753 106.356 18.8633 106.393 19.61H105.119C105.091 19.2087 104.928 18.8867 104.629 18.644C104.34 18.4013 103.948 18.28 103.453 18.28C102.996 18.28 102.632 18.378 102.361 18.574C102.09 18.77 101.955 19.0267 101.955 19.344C101.955 19.596 102.034 19.806 102.193 19.974C102.361 20.1327 102.566 20.2633 102.809 20.366C103.061 20.4593 103.406 20.5667 103.845 20.688C104.396 20.8373 104.844 20.9867 105.189 21.136C105.534 21.276 105.828 21.4907 106.071 21.78C106.323 22.0693 106.454 22.4473 106.463 22.914C106.463 23.334 106.346 23.712 106.113 24.048C105.88 24.384 105.548 24.65 105.119 24.846C104.699 25.0327 104.214 25.126 103.663 25.126Z" fill="black"/>
<path d="M16.21 12.14C17.7647 12.14 19.1287 12.448 20.302 13.064C21.49 13.68 22.4067 14.538 23.052 15.638C23.712 16.738 24.042 17.9993 24.042 19.422C24.042 20.566 23.866 21.6513 23.514 22.678C23.1767 23.7047 22.6853 24.5407 22.04 25.186C21.3947 25.8167 20.632 26.132 19.752 26.132C19.048 26.132 18.52 25.9193 18.168 25.494C17.8307 25.054 17.6767 24.4747 17.706 23.756C17.266 24.504 16.6793 25.0907 15.946 25.516C15.2273 25.9267 14.4573 26.132 13.636 26.132C12.536 26.132 11.6707 25.7947 11.04 25.12C10.424 24.4453 10.116 23.536 10.116 22.392C10.116 21.3213 10.336 20.324 10.776 19.4C11.2307 18.4613 11.8613 17.7133 12.668 17.156C13.4747 16.584 14.384 16.298 15.396 16.298C16.188 16.298 16.848 16.4887 17.376 16.87C17.9187 17.2513 18.2853 17.8013 18.476 18.52L18.806 16.584H19.686L18.564 23.03C18.52 23.2647 18.498 23.4993 18.498 23.734C18.498 24.2473 18.6153 24.6507 18.85 24.944C19.0993 25.2373 19.4513 25.384 19.906 25.384C20.566 25.384 21.1453 25.0907 21.644 24.504C22.1427 23.9173 22.524 23.1767 22.788 22.282C23.052 21.3727 23.184 20.456 23.184 19.532C23.184 18.1827 22.8907 17.0093 22.304 16.012C21.732 15.0147 20.9107 14.2447 19.84 13.702C18.7693 13.1593 17.5153 12.888 16.078 12.888C14.3033 12.888 12.69 13.3353 11.238 14.23C9.786 15.11 8.642 16.3127 7.806 17.838C6.98467 19.3487 6.574 21.006 6.574 22.81C6.574 24.1887 6.86 25.3693 7.432 26.352C8.004 27.3493 8.818 28.112 9.874 28.64C10.9447 29.168 12.184 29.432 13.592 29.432C14.8973 29.432 16.1073 29.19 17.222 28.706L17.376 29.454C16.1293 29.9527 14.7947 30.202 13.372 30.202C11.8613 30.202 10.5267 29.9013 9.368 29.3C8.20933 28.7133 7.30733 27.87 6.662 26.77C6.01667 25.6847 5.694 24.4087 5.694 22.942C5.694 20.9327 6.14867 19.1067 7.058 17.464C7.96733 15.8213 9.22133 14.5233 10.82 13.57C12.4187 12.6167 14.2153 12.14 16.21 12.14ZM13.9 25.318C14.5747 25.318 15.2053 25.1493 15.792 24.812C16.3787 24.46 16.87 23.9613 17.266 23.316C17.6767 22.656 17.9407 21.886 18.058 21.006C18.1167 20.7127 18.146 20.4047 18.146 20.082C18.146 19.1873 17.904 18.4687 17.42 17.926C16.9507 17.3687 16.2613 17.09 15.352 17.09C14.5013 17.09 13.746 17.3393 13.086 17.838C12.4407 18.322 11.942 18.96 11.59 19.752C11.238 20.544 11.062 21.38 11.062 22.26C11.062 23.1987 11.3113 23.9467 11.81 24.504C12.3087 25.0467 13.0053 25.318 13.9 25.318Z" fill="black" fill-opacity="0.6"/>
<path d="M159.902 28.6273L154.809 32.1586L154.768 38.3556L148.567 28.8641L159.902 28.6273Z" fill="#A3FF2E" stroke="black" stroke-width="0.8" stroke-miterlimit="10"/>
</g>
<defs>
<filter id="filter0_d_351_97" x="0.693359" y="0" width="163.527" height="45.6856" filterUnits="userSpaceOnUse" color-interpolation-filters="sRGB">
<feFlood flood-opacity="0" result="BackgroundImageFix"/>
<feColorMatrix in="SourceAlpha" type="matrix" values="0 0 0 0 0 0 0 0 0 0 0 0 0 0 0 0 0 0 127 0" result="hardAlpha"/>
<feOffset dx="-1" dy="2"/>
<feGaussianBlur stdDeviation="2"/>
<feComposite in2="hardAlpha" operator="out"/>
<feColorMatrix type="matrix" values="0 0 0 0 0 0 0 0 0 0 0 0 0 0 0 0 0 0 0.3 0"/>
<feBlend mode="normal" in2="BackgroundImageFix" result="effect1_dropShadow_351_97"/>
<feBlend mode="normal" in="SourceGraphic" in2="effect1_dropShadow_351_97" result="shape"/>
</filter>
</defs>
</svg>
