<svg width="121" height="54" viewBox="0 0 121 54" fill="none" xmlns="http://www.w3.org/2000/svg">
<g filter="url(#filter0_d_351_88)">
<rect x="4.5" y="0.5" width="81" height="35" rx="17.5" fill="#FFF7B1"/>
<rect x="4.5" y="0.5" width="81" height="35" rx="17.5" stroke="#6F6F6F"/>
<path d="M37.102 16.098C37.102 16.91 36.822 17.5867 36.262 18.128C35.7113 18.66 34.8667 18.926 33.728 18.926H31.852V23H30.578V13.242H33.728C34.8293 13.242 35.6647 13.508 36.234 14.04C36.8127 14.572 37.102 15.258 37.102 16.098ZM33.728 17.876C34.4373 17.876 34.96 17.722 35.296 17.414C35.632 17.106 35.8 16.6673 35.8 16.098C35.8 14.894 35.1093 14.292 33.728 14.292H31.852V17.876H33.728ZM42.5314 23.126C41.8128 23.126 41.1594 22.9627 40.5714 22.636C39.9928 22.3093 39.5354 21.8473 39.1994 21.25C38.8728 20.6433 38.7094 19.9433 38.7094 19.15C38.7094 18.366 38.8774 17.6753 39.2134 17.078C39.5588 16.4713 40.0254 16.0093 40.6134 15.692C41.2014 15.3653 41.8594 15.202 42.5874 15.202C43.3154 15.202 43.9734 15.3653 44.5614 15.692C45.1494 16.0093 45.6114 16.4667 45.9474 17.064C46.2928 17.6613 46.4654 18.3567 46.4654 19.15C46.4654 19.9433 46.2881 20.6433 45.9334 21.25C45.5881 21.8473 45.1168 22.3093 44.5194 22.636C43.9221 22.9627 43.2594 23.126 42.5314 23.126ZM42.5314 22.006C42.9888 22.006 43.4181 21.8987 43.8194 21.684C44.2208 21.4693 44.5428 21.1473 44.7854 20.718C45.0374 20.2887 45.1634 19.766 45.1634 19.15C45.1634 18.534 45.0421 18.0113 44.7994 17.582C44.5568 17.1527 44.2394 16.8353 43.8474 16.63C43.4554 16.4153 43.0308 16.308 42.5734 16.308C42.1068 16.308 41.6774 16.4153 41.2854 16.63C40.9028 16.8353 40.5948 17.1527 40.3614 17.582C40.1281 18.0113 40.0114 18.534 40.0114 19.15C40.0114 19.7753 40.1234 20.3027 40.3474 20.732C40.5808 21.1613 40.8888 21.4833 41.2714 21.698C41.6541 21.9033 42.0741 22.006 42.5314 22.006ZM51.3565 23.126C50.7685 23.126 50.2412 23.028 49.7745 22.832C49.3078 22.6267 48.9392 22.3467 48.6685 21.992C48.3978 21.628 48.2485 21.2127 48.2205 20.746H49.5365C49.5738 21.1287 49.7512 21.4413 50.0685 21.684C50.3952 21.9267 50.8198 22.048 51.3425 22.048C51.8278 22.048 52.2105 21.9407 52.4905 21.726C52.7705 21.5113 52.9105 21.2407 52.9105 20.914C52.9105 20.578 52.7612 20.3307 52.4625 20.172C52.1638 20.004 51.7018 19.8407 51.0765 19.682C50.5072 19.5327 50.0405 19.3833 49.6765 19.234C49.3218 19.0753 49.0138 18.8467 48.7525 18.548C48.5005 18.24 48.3745 17.8387 48.3745 17.344C48.3745 16.952 48.4912 16.5927 48.7245 16.266C48.9578 15.9393 49.2892 15.6827 49.7185 15.496C50.1478 15.3 50.6378 15.202 51.1885 15.202C52.0378 15.202 52.7238 15.4167 53.2465 15.846C53.7692 16.2753 54.0492 16.8633 54.0865 17.61H52.8125C52.7845 17.2087 52.6212 16.8867 52.3225 16.644C52.0332 16.4013 51.6412 16.28 51.1465 16.28C50.6892 16.28 50.3252 16.378 50.0545 16.574C49.7838 16.77 49.6485 17.0267 49.6485 17.344C49.6485 17.596 49.7278 17.806 49.8865 17.974C50.0545 18.1327 50.2598 18.2633 50.5025 18.366C50.7545 18.4593 51.0998 18.5667 51.5385 18.688C52.0892 18.8373 52.5372 18.9867 52.8825 19.136C53.2278 19.276 53.5218 19.4907 53.7645 19.78C54.0165 20.0693 54.1472 20.4473 54.1565 20.914C54.1565 21.334 54.0398 21.712 53.8065 22.048C53.5732 22.384 53.2418 22.65 52.8125 22.846C52.3925 23.0327 51.9072 23.126 51.3565 23.126ZM58.009 16.378V20.9C58.009 21.2733 58.0883 21.5393 58.247 21.698C58.4056 21.8473 58.681 21.922 59.073 21.922H60.011V23H58.863C58.1536 23 57.6216 22.8367 57.267 22.51C56.9123 22.1833 56.735 21.6467 56.735 20.9V16.378H55.741V15.328H56.735V13.396H58.009V15.328H60.011V16.378H58.009Z" fill="black"/>
<path d="M114.679 38.1759L108.528 38.9317L105.607 44.3974L104.536 33.1107L114.679 38.1759Z" fill="#A3FF2E" stroke="black" stroke-width="0.8" stroke-miterlimit="10"/>
</g>
<defs>
<filter id="filter0_d_351_88" x="0" y="0" width="120.045" height="53.7565" filterUnits="userSpaceOnUse" color-interpolation-filters="sRGB">
<feFlood flood-opacity="0" result="BackgroundImageFix"/>
<feColorMatrix in="SourceAlpha" type="matrix" values="0 0 0 0 0 0 0 0 0 0 0 0 0 0 0 0 0 0 127 0" result="hardAlpha"/>
<feOffset dy="4"/>
<feGaussianBlur stdDeviation="2"/>
<feComposite in2="hardAlpha" operator="out"/>
<feColorMatrix type="matrix" values="0 0 0 0 0 0 0 0 0 0 0 0 0 0 0 0 0 0 0.25 0"/>
<feBlend mode="normal" in2="BackgroundImageFix" result="effect1_dropShadow_351_88"/>
<feBlend mode="normal" in="SourceGraphic" in2="effect1_dropShadow_351_88" result="shape"/>
</filter>
</defs>
</svg>
