<svg width="118" height="54" viewBox="0 0 118 54" fill="none" xmlns="http://www.w3.org/2000/svg">
<g filter="url(#filter0_d_351_84)">
<rect x="22.5" y="2.5" width="92" height="35" rx="17.5" fill="#DCFFC7"/>
<rect x="22.5" y="2.5" width="92" height="35" rx="17.5" stroke="#6F6F6F"/>
<path d="M46.084 15.242V16.278H43.424V25H42.15V16.278H39.476V15.242H46.084ZM51.9602 17.188C52.5389 17.188 53.0616 17.314 53.5282 17.566C53.9949 17.8087 54.3589 18.1773 54.6202 18.672C54.8909 19.1667 55.0262 19.7687 55.0262 20.478V25H53.7662V20.66C53.7662 19.8947 53.5749 19.3113 53.1922 18.91C52.8096 18.4993 52.2869 18.294 51.6242 18.294C50.9522 18.294 50.4156 18.504 50.0142 18.924C49.6222 19.344 49.4262 19.9553 49.4262 20.758V25H48.1522V14.64H49.4262V18.42C49.6782 18.028 50.0236 17.7247 50.4622 17.51C50.9102 17.2953 51.4096 17.188 51.9602 17.188ZM64.6073 20.87C64.6073 21.1127 64.5933 21.3693 64.5653 21.64H58.4333C58.48 22.396 58.7366 22.9887 59.2033 23.418C59.6793 23.838 60.2533 24.048 60.9253 24.048C61.476 24.048 61.9333 23.922 62.2973 23.67C62.6706 23.4087 62.932 23.0633 63.0813 22.634H64.4533C64.248 23.3713 63.8373 23.9733 63.2213 24.44C62.6053 24.8973 61.84 25.126 60.9253 25.126C60.1973 25.126 59.544 24.9627 58.9653 24.636C58.396 24.3093 57.948 23.8473 57.6213 23.25C57.2946 22.6433 57.1313 21.9433 57.1313 21.15C57.1313 20.3567 57.29 19.6613 57.6073 19.064C57.9246 18.4667 58.368 18.0093 58.9373 17.692C59.516 17.3653 60.1786 17.202 60.9253 17.202C61.6533 17.202 62.2973 17.3607 62.8573 17.678C63.4173 17.9953 63.8466 18.434 64.1453 18.994C64.4533 19.5447 64.6073 20.17 64.6073 20.87ZM63.2913 20.604C63.2913 20.1187 63.184 19.7033 62.9693 19.358C62.7546 19.0033 62.4606 18.7373 62.0873 18.56C61.7233 18.3733 61.3173 18.28 60.8693 18.28C60.2253 18.28 59.6746 18.4853 59.2173 18.896C58.7693 19.3067 58.5126 19.876 58.4473 20.604H63.2913ZM76.0149 17.188C76.6123 17.188 77.1443 17.314 77.6109 17.566C78.0776 17.8087 78.4463 18.1773 78.7169 18.672C78.9876 19.1667 79.1229 19.7687 79.1229 20.478V25H77.8629V20.66C77.8629 19.8947 77.6716 19.3113 77.2889 18.91C76.9156 18.4993 76.4069 18.294 75.7629 18.294C75.1003 18.294 74.5729 18.5087 74.1809 18.938C73.7889 19.358 73.5929 19.9693 73.5929 20.772V25H72.3329V20.66C72.3329 19.8947 72.1416 19.3113 71.7589 18.91C71.3856 18.4993 70.8769 18.294 70.2329 18.294C69.5703 18.294 69.0429 18.5087 68.6509 18.938C68.2589 19.358 68.0629 19.9693 68.0629 20.772V25H66.7889V17.328H68.0629V18.434C68.3149 18.0327 68.6509 17.7247 69.0709 17.51C69.5003 17.2953 69.9716 17.188 70.4849 17.188C71.1289 17.188 71.6983 17.3327 72.1929 17.622C72.6876 17.9113 73.0563 18.336 73.2989 18.896C73.5136 18.3547 73.8683 17.9347 74.3629 17.636C74.8576 17.3373 75.4083 17.188 76.0149 17.188ZM88.7128 20.87C88.7128 21.1127 88.6988 21.3693 88.6708 21.64H82.5388C82.5854 22.396 82.8421 22.9887 83.3088 23.418C83.7848 23.838 84.3588 24.048 85.0308 24.048C85.5814 24.048 86.0388 23.922 86.4028 23.67C86.7761 23.4087 87.0374 23.0633 87.1868 22.634H88.5588C88.3534 23.3713 87.9428 23.9733 87.3268 24.44C86.7108 24.8973 85.9454 25.126 85.0308 25.126C84.3028 25.126 83.6494 24.9627 83.0708 24.636C82.5014 24.3093 82.0534 23.8473 81.7268 23.25C81.4001 22.6433 81.2368 21.9433 81.2368 21.15C81.2368 20.3567 81.3954 19.6613 81.7128 19.064C82.0301 18.4667 82.4734 18.0093 83.0428 17.692C83.6214 17.3653 84.2841 17.202 85.0308 17.202C85.7588 17.202 86.4028 17.3607 86.9628 17.678C87.5228 17.9953 87.9521 18.434 88.2508 18.994C88.5588 19.5447 88.7128 20.17 88.7128 20.87ZM87.3968 20.604C87.3968 20.1187 87.2894 19.7033 87.0748 19.358C86.8601 19.0033 86.5661 18.7373 86.1928 18.56C85.8288 18.3733 85.4228 18.28 84.9748 18.28C84.3308 18.28 83.7801 18.4853 83.3228 18.896C82.8748 19.3067 82.6181 19.876 82.5528 20.604H87.3968ZM93.6104 25.126C93.0224 25.126 92.4951 25.028 92.0284 24.832C91.5617 24.6267 91.1931 24.3467 90.9224 23.992C90.6517 23.628 90.5024 23.2127 90.4744 22.746H91.7904C91.8277 23.1287 92.0051 23.4413 92.3224 23.684C92.6491 23.9267 93.0737 24.048 93.5964 24.048C94.0817 24.048 94.4644 23.9407 94.7444 23.726C95.0244 23.5113 95.1644 23.2407 95.1644 22.914C95.1644 22.578 95.0151 22.3307 94.7164 22.172C94.4177 22.004 93.9557 21.8407 93.3304 21.682C92.7611 21.5327 92.2944 21.3833 91.9304 21.234C91.5757 21.0753 91.2677 20.8467 91.0064 20.548C90.7544 20.24 90.6284 19.8387 90.6284 19.344C90.6284 18.952 90.7451 18.5927 90.9784 18.266C91.2117 17.9393 91.5431 17.6827 91.9724 17.496C92.4017 17.3 92.8917 17.202 93.4424 17.202C94.2917 17.202 94.9777 17.4167 95.5004 17.846C96.0231 18.2753 96.3031 18.8633 96.3404 19.61H95.0664C95.0384 19.2087 94.8751 18.8867 94.5764 18.644C94.2871 18.4013 93.8951 18.28 93.4004 18.28C92.9431 18.28 92.5791 18.378 92.3084 18.574C92.0377 18.77 91.9024 19.0267 91.9024 19.344C91.9024 19.596 91.9817 19.806 92.1404 19.974C92.3084 20.1327 92.5137 20.2633 92.7564 20.366C93.0084 20.4593 93.3537 20.5667 93.7924 20.688C94.3431 20.8373 94.7911 20.9867 95.1364 21.136C95.4817 21.276 95.7757 21.4907 96.0184 21.78C96.2704 22.0693 96.4011 22.4473 96.4104 22.914C96.4104 23.334 96.2937 23.712 96.0604 24.048C95.8271 24.384 95.4957 24.65 95.0664 24.846C94.6464 25.0327 94.1611 25.126 93.6104 25.126Z" fill="black"/>
<path d="M14.7777 45.7884L12.9078 39.8801L6.99956 38.0102L17.8989 34.8891L14.7777 45.7884Z" fill="#A3FF2E" stroke="black" stroke-width="0.8" stroke-miterlimit="10"/>
</g>
<defs>
<filter id="filter0_d_351_84" x="0.613281" y="0" width="117.387" height="53.1745" filterUnits="userSpaceOnUse" color-interpolation-filters="sRGB">
<feFlood flood-opacity="0" result="BackgroundImageFix"/>
<feColorMatrix in="SourceAlpha" type="matrix" values="0 0 0 0 0 0 0 0 0 0 0 0 0 0 0 0 0 0 127 0" result="hardAlpha"/>
<feOffset dx="-1" dy="2"/>
<feGaussianBlur stdDeviation="2"/>
<feComposite in2="hardAlpha" operator="out"/>
<feColorMatrix type="matrix" values="0 0 0 0 0 0 0 0 0 0 0 0 0 0 0 0 0 0 0.3 0"/>
<feBlend mode="normal" in2="BackgroundImageFix" result="effect1_dropShadow_351_84"/>
<feBlend mode="normal" in="SourceGraphic" in2="effect1_dropShadow_351_84" result="shape"/>
</filter>
</defs>
</svg>
