<?xml version="1.0" encoding="UTF-8"?>
<svg id="Layer_2" data-name="Layer 2" xmlns="http://www.w3.org/2000/svg" viewBox="0 0 200 200">
  <defs>
    <style>
      .cls-1 {
        fill: #009dde;
        stroke-width: 0px;
      }
    </style>
  </defs>
  <g id="Layer_1-2" data-name="Layer 1">
    <path class="cls-1" d="M100.04,0c55.21.02,99.96,44.79,99.96,100v.04c-.02,55.22-44.8,99.98-100.04,99.96C44.74,199.98-.02,155.19,0,99.96.02,44.74,44.8-.02,100.04,0ZM99.53,25.72c-2.75,10.39-12.01,19.62-21.7,29.32-14.5,14.54-30.99,30.99-30.99,55.7.04,29.06,23.57,52.62,52.63,52.69,29.11,0,52.73-23.59,52.76-52.69,0-24.71-16.44-41.15-30.99-55.7l-1.3-1.3c-9.21-9.22-17.79-18.08-20.4-28.02h0ZM100.24,104.62c6.05,6.45,9.89,10.89,13.87,15.75.3.36.57.75.81,1.17,4.87,7.02,4.21,16.49-1.59,22.76-6.83,7.39-18.35,7.85-25.75,1.02-7.39-6.83-7.85-18.35-1.02-25.75,3.88-4.58,8.56-9.09,13.68-14.95h0ZM76.16,80.44l2.54,2.4,11.8,12.07c.45.51.45,1.26,0,1.77l-12.34,13.64-4.31,5.25c-1.64,2-3.03,4.19-4.15,6.52-.16.39-.49.68-.9.77h-.44c-1.2-.1-2.57-2.31-2.57-2.31l-.22-.33c-.29-.44-.55-.9-.78-1.38l-.23-.5c-1.68-5.49-1.82-11.35-.4-16.91l.16-.58c1.31-4.63,3.38-9.01,6.12-12.96,1.76-2.59,3.67-5.08,5.71-7.46h0ZM99.6,56.04c3.14,3.57,6.69,7.15,10.03,10.49l.07.23c6.98,6.51,13.3,13.7,18.85,21.46,4.72,6.63,7.29,14.53,7.39,22.67,0,3.51-.53,7.01-1.57,10.36l-.05.14c-.28.68-.89,1.18-1.62,1.3h-.33c-.72-.23-1.33-.72-1.71-1.37l-.56-.84c-3.01-4.46-6.4-8.66-10.14-12.53l-4.81-5.08-16.05-16.72c-2.71-2.61-7.55-7.28-9.59-9.83-.06-.14-.14-.27-.23-.4-.56-.76-.99-1.61-1.27-2.51v-.5c-.28-1.63-.06-3.31.63-4.82.45-.96,1.06-1.83,1.81-2.57,3.11-3.11,6.22-6.15,9.16-9.49h0Z"/>
  </g>
</svg>