<?xml version="1.0" encoding="UTF-8"?>
<svg id="Layer_2" data-name="Layer 2" xmlns="http://www.w3.org/2000/svg" viewBox="0 0 665.52 200">
  <defs>
    <style>
      .cls-1 {
        fill-rule: evenodd;
      }

      .cls-1, .cls-2 {
        fill: #2e3134;
        stroke-width: 0px;
      }

      .cls-3 {
        opacity: .6;
      }
    </style>
  </defs>
  <g id="Layer_1-2" data-name="Layer 1">
    <path class="cls-1" d="M491.11,53.93c-28.78,0-43.65,20.59-43.65,45.98s14.5,45.98,43.65,45.98,43.64-20.59,43.64-45.98-14.87-45.98-43.65-45.98h0ZM512.87,100c-.02,16.33-5.46,29.56-21.78,29.56s-21.76-13.22-21.78-29.56v-.08c.02-16.33,5.46-29.56,21.78-29.56s21.76,13.22,21.78,29.56v.08ZM362.24,19.66c0-1.17.94-2.25,2.12-2.43l15.75-2.25c1.46-.2,3.31.85,3.31,2.92v47.06c3.45-3.31,7.29-5.97,11.35-8.01s8.98-3.05,14.54-3.05c4.82,0,9.08.83,12.82,2.48,3.61,1.56,6.81,3.95,9.34,6.96,2.49,2.98,4.39,6.63,5.68,10.71s1.94,8.72,1.94,13.71v54.71c0,1.17-.95,2.12-2.12,2.12,0,0,0,0-.01,0h-16.98c-1.17,0-2.12-.95-2.13-2.12v-54.71c0-5.46-1.25-9.68-3.75-12.59s-6.23-4.48-11.23-4.48c-3.59-.02-7.14.85-10.32,2.52-3.38,1.81-6.45,4.12-9.12,6.87v62.44c0,1.17-.95,2.12-2.12,2.12,0,0,0,0-.01,0h-16.98c-1.17,0-2.13-.94-2.13-2.11,0,0,0-.01,0-.02V19.66h.06ZM622.18,121.21v-46.53h-14.36c-1.17,0-1.86-.93-1.54-2.04l3.2-11.18c.28-1.17,1.26-2.05,2.45-2.21l10.22-1.44,3.74-25.02c.24-1.22,1.2-2.17,2.42-2.41l11.68-1.68c1.59-.27,3.09.8,3.36,2.39.03.2.05.4.04.6v26.12h18.71c1.18,0,2.13.95,2.13,2.13v12.59c0,1.17-.94,2.13-2.11,2.13,0,0-.02,0-.03,0h-18.71v45.88c0,6.41,3.86,8.86,7.56,8.86,2.25,0,5.36-1.21,7.67-2.3,1.43-.66,3.65-.17,4.21,1.84l2.61,9.28c.33,1.13-.27,2.52-1.31,3.05,0,0-7.76,4.64-18.16,4.64-14.62,0-23.86-8.62-23.86-24.67l.08-.04ZM574.68,70.35c-7.56,0-13.48,2.64-13.48,8.98,0,7.93,12.79,10.23,21.56,13.46,5.85,2.16,21.56,6.36,21.56,23.45,0,20.75-17.04,29.63-35.22,29.63s-27.06-5.82-27.06-5.82c-1.03-.56-1.59-1.94-1.28-3.08l2.81-9.94c.52-1.79,2.57-2.42,3.88-1.91,4.68,1.82,13.12,4.36,22.67,4.36s14.34-2.98,14.34-9.28c0-8.47-13.06-11.06-21.69-13.81-5.95-1.9-21.69-6.32-21.69-25.11s16.07-27.19,33.24-27.19c14.54,0,25.04,5,25.04,5,1.1.49,1.68,1.71,1.37,2.87l-2.82,9.84c-.53,1.86-2.02,2.7-3.98,2.09-4.14-1.36-11.93-3.54-19.34-3.54h.07ZM350.63,54.07c-5.85.68-11.3,3.27-15.51,7.38-6.46-5.12-15.44-7.57-25.51-7.57-20.19,0-35.97,9.86-35.97,31.35,0,12.33,5.19,20.84,13.44,25.85-6.12,2.93-10.21,9.15-10.21,15.27,0,10.23,7.99,13.44,7.99,13.44,0,0-13.97,6.86-13.97,20.58,0,17.57,15.91,24.67,35.52,24.67,28.15,0,47.53-11.77,47.53-33.36,0-13.29-10.06-20.63-31.97-21.5l-23.52-1.69c-2.76-.93-4.11-3.16-4.11-5.63,0-2.65,2.21-5.3,5.7-7.09,3.16.55,6.37.83,9.58.82,20.22,0,35.97-9.83,35.97-31.35,0-5.22-.93-9.74-2.62-13.62,2.97-1.6,8.88-2.39,8.88-2.39,1.19-.23,2.06-1.25,2.1-2.46v-9.72c0-2-1.69-3.15-3.31-2.96h0ZM298.3,144.78l21.2.9c11.91.56,15.61,3.15,15.61,9.39,0,7.62-10.34,15.03-24.8,15.03-13.72,0-20.58-4.84-20.58-12.86,0-4.61,2.41-9.77,8.56-12.44h0ZM309.66,101.59c-9.57,0-17.04-5.14-17.04-16.35s7.47-16.35,17.04-16.35,17.04,5.12,17.04,16.35-7.46,16.35-17.04,16.35Z"/>
    <g class="cls-3">
      <rect class="cls-2" x=".06" y="160" width="79.1" height="40" rx="9.4" ry="9.4"/>
      <rect class="cls-2" x="118.7" y="160" width="79.05" height="40" rx="9.4" ry="9.4"/>
      <rect class="cls-2" y="80" width="197.78" height="40" rx="9.4" ry="9.4"/>
      <rect class="cls-2" x=".06" width="118.66" height="40" rx="9.4" ry="9.4"/>
      <rect class="cls-2" x="158.25" width="39.55" height="40" rx="9.4" ry="9.4"/>
    </g>
  </g>
</svg>