<?xml version="1.0" encoding="UTF-8"?>
<svg id="Layer_2" data-name="Layer 2" xmlns="http://www.w3.org/2000/svg" viewBox="0 0 194.28 200">
  <defs>
    <style>
      .cls-1 {
        fill: #ff2d20;
        stroke-width: 0px;
      }
    </style>
  </defs>
  <g id="Layer_1-2" data-name="Layer 1">
    <path class="cls-1" d="M194.17,45.25c.07.27.11.54.11.82v42.93c0,1.12-.6,2.16-1.57,2.72l-36.03,20.74v41.12c0,1.12-.59,2.15-1.57,2.72l-75.21,43.3c-.17.1-.36.16-.55.23-.07.02-.14.07-.21.09-.53.14-1.08.14-1.6,0-.09-.02-.16-.07-.25-.1-.17-.06-.35-.12-.52-.21L1.57,156.29c-.97-.56-1.57-1.59-1.57-2.72V24.78c0-.28.04-.56.11-.82.02-.09.08-.17.11-.26.06-.16.11-.33.2-.49.06-.1.14-.18.22-.28.09-.13.17-.25.28-.36.09-.09.21-.16.31-.23.11-.09.22-.2.34-.27h0L39.17.42c.97-.56,2.16-.56,3.13,0l37.6,21.65h0c.13.08.23.18.34.27.1.08.22.15.31.23.11.11.19.24.28.37.07.09.16.18.21.28.09.16.14.32.2.49.03.09.09.17.11.27.07.27.11.54.11.82v80.44l31.33-18.04v-41.12c0-.27.04-.55.11-.81.03-.09.08-.18.11-.27.06-.16.12-.33.2-.49.06-.1.14-.18.21-.28.09-.13.17-.25.28-.36.09-.09.2-.16.31-.23.12-.09.22-.2.34-.27h0l37.6-21.65c.97-.56,2.16-.56,3.13,0l37.6,21.65c.13.08.23.18.35.27.1.08.21.15.3.23.11.11.19.24.28.37.07.09.16.18.21.28.09.15.14.32.2.49.04.09.09.17.11.27h0ZM188.01,87.18v-35.7l-13.16,7.57-18.18,10.47v35.7l31.34-18.04h0ZM150.41,151.76v-35.72l-17.88,10.21-51.06,29.14v36.06l68.94-39.69ZM6.27,30.2v121.56l68.93,39.69v-36.05l-36.01-20.38h-.01s-.02-.02-.02-.02c-.12-.07-.22-.17-.34-.26-.1-.08-.21-.14-.3-.23h0c-.1-.11-.17-.23-.26-.34-.08-.11-.17-.2-.23-.31h0c-.07-.13-.11-.27-.16-.4-.05-.12-.12-.23-.15-.35h0c-.04-.15-.05-.31-.06-.46-.02-.12-.05-.23-.05-.35V48.24l-18.17-10.47-13.16-7.57h0ZM40.74,6.75L9.41,24.78l31.32,18.03,31.32-18.04L40.73,6.75h0ZM57.03,119.29l18.17-10.46V30.2l-13.16,7.57-18.18,10.47v78.63l13.16-7.58ZM153.54,28.03l-31.32,18.03,31.32,18.03,31.32-18.04-31.32-18.03ZM150.41,69.52l-18.18-10.47-13.16-7.57v35.7l18.17,10.46,13.16,7.58v-35.7ZM78.33,149.97l45.95-26.23,22.97-13.11-31.3-18.02-36.04,20.75-32.85,18.91,31.27,17.7Z"/>
  </g>
</svg>