<?xml version="1.0" encoding="UTF-8"?>
<svg id="Layer_2" data-name="Layer 2" xmlns="http://www.w3.org/2000/svg" viewBox="0 0 200 200">
  <defs>
    <style>
      .cls-1 {
        fill: #ffd02f;
      }

      .cls-1, .cls-2 {
        stroke-width: 0px;
      }

      .cls-2 {
        fill: #050038;
      }
    </style>
  </defs>
  <g id="Layer_1-2" data-name="Layer 1">
    <path class="cls-1" d="M43.33,0h113.35C180.59,0,200,19.41,200,43.33v113.35c0,23.91-19.41,43.33-43.33,43.33H43.33c-23.91,0-43.33-19.41-43.33-43.33V43.33C0,19.41,19.41,0,43.33,0h0Z"/>
    <path class="cls-2" d="M138.98,24.98h-21.96l18.29,32.14-40.25-32.14h-21.96l20.12,39.3L51.14,24.98h-21.96l21.96,50.01-21.96,100.03h21.96l42.08-107.19-20.12,107.19h21.96l40.25-114.29-18.29,114.29h21.96l40.25-125.07-40.25-24.98Z"/>
  </g>
</svg>