<?xml version="1.0" encoding="UTF-8"?>
<svg id="Layer_2" data-name="Layer 2" xmlns="http://www.w3.org/2000/svg" viewBox="0 0 708.26 200">
  <defs>
    <style>
      .cls-1 {
        fill: #83cd29;
      }

      .cls-1, .cls-2 {
        stroke-width: 0px;
      }

      .cls-2 {
        fill: #404137;
      }
    </style>
  </defs>
  <g id="Layer_1-2" data-name="Layer 1">
    <g>
      <path class="cls-1" d="M651.52,70.97c-1.73,0-3.4.36-4.89,1.2l-46.96,27.12c-3.04,1.75-4.89,5.06-4.89,8.57v54.14c0,3.52,1.85,6.82,4.89,8.57l12.26,7.07c5.96,2.94,8.16,2.89,10.87,2.89,8.82,0,13.86-5.35,13.86-14.66v-53.41c0-.76-.65-1.3-1.4-1.3h-5.88c-.75,0-1.4.55-1.4,1.3v53.44c0,4.12-4.3,8.27-11.27,4.79l-12.75-7.48c-.45-.25-.8-.69-.8-1.2v-54.14c0-.51.34-1.04.8-1.3l46.86-27.02c.44-.25.96-.25,1.4,0l46.86,27.02c.45.27.8.77.8,1.3v54.14c0,.52-.26,1.05-.7,1.3l-46.96,27.02c-.42.24-.97.24-1.4,0l-12.06-7.18c-.36-.21-.85-.19-1.2,0-3.33,1.89-3.96,2.11-7.08,3.19-.77.27-1.94.68.4,2l15.75,9.28c1.5.87,3.17,1.3,4.89,1.3s3.39-.42,4.89-1.3l46.96-27.02c3.04-1.77,4.89-5.06,4.89-8.57v-54.14c0-3.52-1.85-6.82-4.89-8.57l-46.96-27.12c-1.47-.84-3.16-1.2-4.89-1.2l-.02-.03ZM664.08,109.65c-13.37,0-21.33,5.69-21.33,15.15,0,10.25,7.9,13.09,20.74,14.36,15.35,1.5,16.55,3.76,16.55,6.78,0,5.24-4.18,7.48-14.06,7.48-12.41,0-15.14-3.1-16.05-9.28-.11-.66-.62-1.2-1.3-1.2h-6.1c-.76.02-1.38.63-1.4,1.4,0,7.9,4.3,17.25,24.83,17.25,14.86,0,23.43-5.82,23.43-16.05s-6.92-12.85-21.33-14.76c-14.55-1.94-15.95-2.87-15.95-6.28,0-2.82,1.18-6.58,11.96-6.58,9.63,0,13.2,2.08,14.66,8.57.13.61.67,1.11,1.3,1.11h6.1c.37,0,.74-.23,1-.5.25-.29.44-.61.4-1-.94-11.19-8.4-16.45-23.43-16.45h0Z"/>
      <path class="cls-2" d="M375.46,0c-.52,0-1.04.14-1.5.4-.92.54-1.49,1.52-1.5,2.59v76.27c0,.75-.35,1.42-1,1.79-.65.38-1.45.38-2.09,0l-12.46-7.18c-1.85-1.07-4.13-1.07-5.98,0l-49.75,28.71c-1.86,1.07-2.99,3.14-2.99,5.28v57.42c0,2.14,1.14,4.12,2.99,5.18l49.75,28.71c1.85,1.07,4.13,1.07,5.98,0l49.75-28.71c1.85-1.07,2.99-3.04,2.99-5.18V22.13c0-2.18-1.19-4.22-3.09-5.28L376.95.3c-.47-.26-.98-.3-1.5-.3h0ZM55.43,71.68c-.95.04-1.84.2-2.69.7L2.99,101.09C1.14,102.16,0,104.14,0,106.28l.1,77.07c0,1.07.55,2.07,1.5,2.59.92.55,2.07.55,2.99,0l29.51-16.95c1.87-1.11,3.09-3.04,3.09-5.18v-35.99c0-2.15,1.13-4.12,2.99-5.18l12.56-7.28c.91-.53,1.94-.8,2.99-.8,1.05,0,2.08.27,2.99.8l12.56,7.27c1.86,1.07,2.99,3.04,2.99,5.18v35.99c0,2.14,1.25,4.09,3.09,5.18l29.51,16.95c.93.55,2.07.55,2.99,0,.91-.53,1.5-1.52,1.5-2.59l.1-77.06c.01-2.14-1.13-4.12-2.99-5.18l-49.75-28.71c-.84-.49-1.74-.66-2.69-.7h-.6ZM502.47,72.38c-1.05,0-2.08.27-2.99.8l-49.75,28.71c-1.86,1.07-2.99,3.04-2.99,5.18v57.42c0,2.16,1.22,4.12,3.09,5.18l49.35,28.13c1.82,1.04,4.05,1.12,5.88.1l29.91-16.65c.95-.53,1.59-1.51,1.59-2.59s-.56-2.05-1.5-2.59l-50.05-28.71c-.94-.53-1.59-1.62-1.59-2.69v-17.96c0-1.07.67-2.06,1.59-2.59l15.55-8.97c.93-.53,2.06-.53,2.99,0l15.56,8.97c.93.53,1.5,1.52,1.5,2.59v14.16c0,1.07.57,2.06,1.5,2.59.93.54,2.06.54,2.99,0l29.81-17.34c1.85-1.08,2.99-3.04,2.99-5.18v-13.86c0-2.14-1.14-4.11-2.99-5.18l-49.45-28.71c-.91-.53-1.94-.8-2.99-.8h0ZM353.72,115.25c.28,0,.55.07.8.2l17.05,9.87c.46.27.8.76.8,1.3v19.74c0,.54-.33,1.03-.8,1.3l-17.05,9.87c-.46.26-1.03.26-1.5,0l-17.05-9.87c-.46-.27-.8-.76-.8-1.3v-19.74c0-.53.34-1.03.8-1.3l17.05-9.87c.23-.13.44-.2.7-.2h0s0,0,0,0Z"/>
      <path class="cls-1" d="M204.88,72.08c-1.05,0-2.08.27-2.99.8l-49.75,28.61c-1.86,1.07-2.99,3.14-2.99,5.28v57.42c0,2.14,1.14,4.12,2.99,5.18l49.75,28.71c1.85,1.07,4.13,1.07,5.98,0l49.75-28.71c1.85-1.07,2.99-3.04,2.99-5.18v-57.42c0-2.15-1.13-4.21-2.99-5.28l-49.75-28.61c-.91-.53-1.94-.8-2.99-.8h0ZM502.37,123.33c-.2,0-.42,0-.6.1l-9.57,5.58c-.36.2-.59.58-.6,1v10.97c0,.41.24.79.6,1l9.57,5.48c.34.21.76.21,1.09,0l9.57-5.48c.35-.2.6-.58.6-1v-10.97c0-.41-.24-.79-.6-1l-9.57-5.58c-.18-.11-.3-.1-.5-.1h0Z"/>
    </g>
  </g>
</svg>