<?xml version="1.0" encoding="UTF-8"?>
<svg id="Layer_2" data-name="Layer 2" xmlns="http://www.w3.org/2000/svg" xmlns:xlink="http://www.w3.org/1999/xlink" viewBox="0 0 360.48 200">
  <defs>
    <style>
      .cls-1 {
        clip-path: url(#clippath-2);
      }

      .cls-2, .cls-3, .cls-4, .cls-5, .cls-6 {
        stroke-width: 0px;
      }

      .cls-3 {
        fill: none;
      }

      .cls-7 {
        clip-path: url(#clippath-1);
      }

      .cls-4 {
        fill: #fff;
      }

      .cls-8 {
        clip-path: url(#clippath);
      }

      .cls-5 {
        fill: url(#radial-gradient);
      }

      .cls-6 {
        fill: #777bb3;
      }
    </style>
    <clipPath id="clippath">
      <path class="cls-3" d="M7.21,100c0,49.58,77.47,89.78,173.03,89.78s173.03-40.2,173.03-89.78S275.8,10.22,180.24,10.22,7.21,50.42,7.21,100"/>
    </clipPath>
    <radialGradient id="radial-gradient" cx="-592.55" cy="342.65" fx="-592.55" fy="342.65" r="3.8" gradientTransform="translate(35582.23 20273.45) scale(59.86 -59.04)" gradientUnits="userSpaceOnUse">
      <stop offset="0" stop-color="#aeb2d5"/>
      <stop offset=".3" stop-color="#aeb2d5"/>
      <stop offset=".75" stop-color="#484c89"/>
      <stop offset="1" stop-color="#484c89"/>
    </radialGradient>
    <clipPath id="clippath-1">
      <rect class="cls-3" width="360.48" height="200"/>
    </clipPath>
    <clipPath id="clippath-2">
      <rect class="cls-3" width="360.48" height="200"/>
    </clipPath>
  </defs>
  <g id="Layer_1-2" data-name="Layer 1">
    <g>
      <g class="cls-8">
        <path class="cls-5" d="M7.21,100c0,49.58,77.47,89.78,173.03,89.78s173.03-40.2,173.03-89.78S275.8,10.22,180.24,10.22,7.21,50.42,7.21,100"/>
      </g>
      <g class="cls-7">
        <path class="cls-6" d="M180.24,183.11c91.83,0,166.27-37.21,166.27-83.11S272.07,16.89,180.24,16.89,13.97,54.1,13.97,100s74.44,83.11,166.27,83.11"/>
      </g>
      <g class="cls-1">
        <g>
          <path class="cls-2" d="M101.22,110.3c7.55,0,13.19-1.37,16.75-4.08,3.53-2.68,5.97-7.32,7.24-13.8,1.19-6.05.74-10.28-1.35-12.56-2.13-2.33-6.74-3.51-13.7-3.51h-12.07l-6.69,33.95h9.81ZM61.75,152.13c-.56,0-1.09-.25-1.45-.67-.36-.43-.5-.99-.39-1.53l17.73-89.97c.17-.87.94-1.5,1.84-1.5h38.21c12.01,0,20.95,3.21,26.56,9.56,5.65,6.38,7.39,15.29,5.18,26.49-.9,4.56-2.44,8.8-4.59,12.6-2.15,3.8-5,7.31-8.45,10.45-4.14,3.82-8.83,6.59-13.92,8.22-5.01,1.61-11.44,2.43-19.12,2.43h-15.47l-4.42,22.42c-.17.87-.94,1.5-1.84,1.5h-19.87Z"/>
          <path class="cls-4" d="M99.65,78.21h10.52c8.4,0,11.32,1.82,12.31,2.9,1.64,1.8,1.96,5.59.9,10.97-1.19,6.02-3.39,10.29-6.54,12.68-3.23,2.45-8.48,3.7-15.61,3.7h-7.53l5.96-30.25h0ZM117.69,56.6h-38.21c-1.8,0-3.34,1.26-3.69,3l-17.73,89.97c-.4,2.01.93,3.95,2.97,4.34.24.05.48.07.72.07h19.87c1.8,0,3.34-1.26,3.69-3l4.12-20.92h13.92c7.87,0,14.5-.85,19.7-2.52,5.34-1.71,10.26-4.62,14.62-8.63,3.6-3.27,6.57-6.93,8.81-10.9,2.24-3.97,3.86-8.39,4.8-13.15,2.32-11.79.44-21.24-5.61-28.07-5.99-6.76-15.4-10.19-27.98-10.19M89.13,112.16h12.09c8.01,0,13.98-1.49,17.9-4.47s6.57-7.95,7.94-14.91c1.31-6.69.72-11.4-1.8-14.15-2.51-2.75-7.55-4.12-15.09-4.12h-13.61l-7.42,37.65M117.69,60.3c11.49,0,19.88,2.98,25.15,8.93s6.86,14.26,4.75,24.92c-.87,4.39-2.33,8.41-4.39,12.05-2.06,3.64-4.76,6.97-8.09,9.99-3.97,3.66-8.38,6.27-13.23,7.83-4.85,1.56-11.03,2.33-18.54,2.33h-17.02l-4.71,23.92h-19.87l17.73-89.97h38.21"/>
          <path class="cls-2" d="M195,128.21c-.56,0-1.09-.25-1.45-.67s-.5-.99-.39-1.53l7.84-39.81c.75-3.79.56-6.5-.52-7.65-.66-.7-2.65-1.88-8.52-1.88h-14.21l-9.86,50.04c-.17.87-.94,1.5-1.84,1.5h-19.71c-1.04,0-1.88-.83-1.88-1.85,0-.12.01-.24.03-.35l17.73-89.97c.17-.87.94-1.5,1.84-1.5h19.71c1.04,0,1.88.83,1.88,1.85,0,.12-.01.24-.03.35l-4.28,21.71h15.28c11.64,0,19.54,2.02,24.14,6.19,4.69,4.25,6.15,11.04,4.35,20.2l-8.25,41.87c-.17.87-.94,1.5-1.84,1.5h-20.03Z"/>
          <path class="cls-4" d="M183.78,32.68h-19.71c-1.8,0-3.34,1.26-3.69,3l-17.73,89.97c-.4,2.01.93,3.95,2.97,4.34.24.05.48.07.72.07h19.71c1.8,0,3.34-1.26,3.69-3l9.56-48.55h12.66c5.86,0,7.09,1.23,7.14,1.29.36.38.82,2.12.05,6.04l-7.84,39.81c-.4,2.01.93,3.95,2.97,4.34.24.05.48.07.72.07h20.03c1.8,0,3.34-1.26,3.69-3l8.25-41.87c1.94-9.83.28-17.2-4.92-21.91-4.96-4.49-13.27-6.68-25.41-6.68h-13.01l3.84-19.51c.4-2.01-.93-3.95-2.97-4.34-.24-.05-.48-.07-.72-.07M183.78,36.38l-4.71,23.92h17.56c11.05,0,18.67,1.9,22.87,5.7,4.2,3.8,5.45,9.96,3.78,18.48l-8.25,41.87h-20.03l7.84-39.81c.89-4.53.56-7.62-.99-9.26s-4.85-2.47-9.89-2.47h-15.76l-10.15,51.54h-19.71l17.73-89.97h19.71"/>
          <path class="cls-2" d="M256.31,110.3c7.55,0,13.19-1.37,16.75-4.08,3.53-2.68,5.97-7.32,7.24-13.8,1.19-6.05.74-10.28-1.35-12.56-2.13-2.33-6.74-3.51-13.7-3.51h-12.07l-6.69,33.95h9.81ZM216.84,152.13c-.56,0-1.09-.25-1.45-.67-.36-.43-.5-.99-.39-1.53l17.73-89.97c.17-.87.94-1.5,1.84-1.5h38.21c12.01,0,20.95,3.21,26.57,9.56,5.65,6.38,7.39,15.29,5.18,26.49-.9,4.56-2.45,8.8-4.59,12.6-2.15,3.8-5,7.31-8.45,10.45-4.14,3.82-8.83,6.59-13.92,8.22-5.01,1.61-11.44,2.43-19.12,2.43h-15.47l-4.42,22.42c-.17.87-.94,1.5-1.84,1.5h-19.87,0Z"/>
          <path class="cls-4" d="M254.74,78.21h10.52c8.4,0,11.32,1.82,12.31,2.9,1.65,1.8,1.96,5.59.9,10.97-1.19,6.02-3.39,10.29-6.54,12.68-3.23,2.45-8.48,3.7-15.61,3.7h-7.53l5.96-30.25h0ZM272.78,56.6h-38.21c-1.8,0-3.34,1.26-3.69,3l-17.73,89.97c-.4,2.01.93,3.95,2.97,4.34.24.05.48.07.72.07h19.87c1.8,0,3.34-1.26,3.69-3l4.12-20.92h13.92c7.87,0,14.5-.85,19.7-2.52,5.34-1.71,10.26-4.62,14.62-8.63,3.6-3.27,6.56-6.93,8.81-10.9s3.86-8.39,4.8-13.15c2.32-11.79.44-21.24-5.61-28.07-5.99-6.76-15.4-10.19-27.98-10.19M244.22,112.16h12.09c8.01,0,13.98-1.49,17.9-4.47,3.92-2.98,6.57-7.95,7.94-14.91,1.32-6.69.72-11.4-1.8-14.15s-7.55-4.12-15.09-4.12h-13.61l-7.42,37.65M272.78,60.3c11.49,0,19.88,2.98,25.15,8.93s6.86,14.26,4.75,24.92c-.87,4.39-2.33,8.41-4.39,12.05-2.06,3.64-4.76,6.97-8.09,9.99-3.97,3.66-8.38,6.27-13.23,7.83-4.85,1.56-11.03,2.33-18.54,2.33h-17.02l-4.71,23.92h-19.87l17.73-89.97h38.21"/>
        </g>
      </g>
    </g>
  </g>
</svg>