<?xml version="1.0" encoding="UTF-8"?>
<svg id="Layer_2" data-name="Layer 2" xmlns="http://www.w3.org/2000/svg" viewBox="0 0 205.13 200">
  <defs>
    <style>
      .cls-1 {
        fill: #001e36;
      }

      .cls-1, .cls-2 {
        stroke-width: 0px;
      }

      .cls-2 {
        fill: #31a8ff;
      }
    </style>
  </defs>
  <g id="Layer_1-2" data-name="Layer 1">
    <g>
      <path class="cls-1" d="M36.32,0h132.48c20.09,0,36.32,16.24,36.32,36.32v127.35c0,20.09-16.24,36.32-36.32,36.32H36.32c-20.09,0-36.32-16.24-36.32-36.32V36.32C0,16.24,16.24,0,36.32,0Z"/>
      <path class="cls-2" d="M46.15,140.26V52.31c0-.6.26-.94.85-.94,1.45,0,2.82,0,4.79-.09,2.05-.09,4.19-.09,6.5-.17s4.79-.09,7.44-.17,5.21-.09,7.78-.09c7.01,0,12.82.85,17.61,2.65,4.27,1.45,8.21,3.85,11.45,7.01,2.74,2.74,4.87,6.07,6.24,9.74,1.28,3.59,1.97,7.26,1.97,11.11,0,7.35-1.71,13.42-5.13,18.21s-8.21,8.38-13.76,10.43c-5.81,2.14-12.22,2.91-19.23,2.91-2.05,0-3.42,0-4.27-.09s-2.05-.09-3.68-.09v27.44c.09.6-.34,1.11-.94,1.2h-16.58c-.68,0-1.03-.34-1.03-1.11h0ZM64.79,67.86v28.72c1.2.09,2.31.17,3.33.17h4.53c3.33,0,6.67-.51,9.83-1.54,2.74-.77,5.13-2.39,7.01-4.53,1.79-2.14,2.65-5.04,2.65-8.8.09-2.65-.6-5.3-1.97-7.61-1.45-2.22-3.5-3.93-5.98-4.87-3.16-1.28-6.58-1.79-10.09-1.71-2.22,0-4.19,0-5.81.09-1.71-.09-2.91,0-3.5.09h0ZM164.1,91.37c-2.56-1.37-5.3-2.31-8.21-2.91-3.16-.68-6.32-1.11-9.57-1.11-1.71-.09-3.5.17-5.13.6-1.11.26-2.05.85-2.65,1.71-.43.68-.68,1.54-.68,2.31s.34,1.54.85,2.22c.77.94,1.79,1.71,2.91,2.31,1.97,1.03,4.02,1.97,6.07,2.82,4.62,1.54,9.06,3.68,13.16,6.24,2.82,1.79,5.13,4.19,6.75,7.09,1.37,2.74,2.05,5.73,1.97,8.8.09,4.02-1.11,8.03-3.33,11.37-2.39,3.42-5.73,6.07-9.57,7.61-4.19,1.79-9.32,2.74-15.47,2.74-3.93,0-7.78-.34-11.62-1.11-2.99-.51-5.98-1.45-8.72-2.74-.6-.34-1.03-.94-.94-1.62v-14.87c0-.26.09-.6.34-.77s.51-.09.77.09c3.33,1.97,6.84,3.33,10.6,4.19,3.25.85,6.67,1.28,10.09,1.28s5.56-.43,7.09-1.2c1.37-.6,2.31-2.05,2.31-3.59,0-1.2-.68-2.31-2.05-3.42s-4.19-2.39-8.38-4.02c-4.36-1.54-8.38-3.59-12.14-6.15-2.65-1.88-4.87-4.36-6.5-7.26-1.37-2.74-2.05-5.73-1.97-8.72,0-3.68,1.03-7.18,2.91-10.34,2.14-3.42,5.3-6.15,8.97-7.86,4.02-2.05,9.06-2.99,15.13-2.99,3.5,0,7.09.26,10.6.77,2.56.34,5.04,1.03,7.35,1.97.34.09.68.43.85.77.09.34.17.68.17,1.03v13.93c0,.34-.17.68-.43.85-.77.17-1.2.17-1.54,0h0Z"/>
    </g>
  </g>
</svg>