<?xml version="1.0" encoding="UTF-8"?>
<svg id="Layer_2" data-name="Layer 2" xmlns="http://www.w3.org/2000/svg" viewBox="0 0 224.58 200">
  <defs>
    <style>
      .cls-1 {
        fill: #61dafb;
        stroke-width: 0px;
      }
    </style>
  </defs>
  <g id="Layer_1-2" data-name="Layer 1">
    <g>
      <path class="cls-1" d="M224.58,100.02c0-14.88-18.63-28.98-47.2-37.72,6.59-29.11,3.66-52.28-9.25-59.69-2.98-1.74-6.45-2.56-10.25-2.56v10.21c2.11,0,3.8.41,5.22,1.19,6.23,3.57,8.93,17.17,6.82,34.65-.5,4.3-1.33,8.83-2.33,13.46-8.97-2.2-18.77-3.89-29.07-4.99-6.18-8.47-12.59-16.16-19.04-22.89,14.92-13.87,28.93-21.47,38.45-21.47V0c-12.59,0-29.07,8.97-45.73,24.54C95.54,9.06,79.06.18,66.47.18v10.21c9.48,0,23.53,7.55,38.45,21.33-6.41,6.73-12.82,14.37-18.91,22.84-10.35,1.1-20.14,2.79-29.11,5.04-1.05-4.58-1.83-9.02-2.38-13.28-2.15-17.49.5-31.08,6.68-34.7,1.37-.82,3.16-1.19,5.26-1.19V.23c-3.85,0-7.32.82-10.35,2.56-12.86,7.42-15.75,30.53-9.11,59.56C18.54,71.14,0,85.19,0,100.02s18.63,28.98,47.2,37.72c-6.59,29.11-3.66,52.28,9.25,59.69,2.98,1.74,6.45,2.56,10.3,2.56,12.59,0,29.07-8.97,45.73-24.54,16.66,15.47,33.14,24.35,45.73,24.35,3.85,0,7.32-.82,10.35-2.56,12.86-7.42,15.75-30.53,9.11-59.56,28.38-8.74,46.92-22.84,46.92-37.67h0ZM164.98,69.49c-1.69,5.91-3.8,11.99-6.18,18.08-1.88-3.66-3.85-7.32-6-10.99-2.11-3.66-4.35-7.23-6.59-10.71,6.5.96,12.77,2.15,18.77,3.62h0ZM144.01,118.24c-3.57,6.18-7.23,12.04-11.03,17.49-6.82.6-13.73.92-20.69.92s-13.82-.32-20.6-.87c-3.8-5.45-7.51-11.26-11.08-17.4-3.48-6-6.64-12.09-9.52-18.22,2.84-6.13,6.04-12.27,9.48-18.27,3.57-6.18,7.23-12.04,11.03-17.49,6.82-.6,13.73-.92,20.69-.92s13.82.32,20.6.87c3.8,5.45,7.51,11.26,11.08,17.4,3.48,6,6.64,12.09,9.52,18.22-2.88,6.13-6.04,12.27-9.48,18.27h0ZM158.8,112.29c2.47,6.13,4.58,12.27,6.32,18.22-6,1.46-12.31,2.7-18.86,3.66,2.24-3.52,4.49-7.14,6.59-10.85,2.11-3.66,4.07-7.37,5.95-11.03h0ZM112.38,161.14c-4.26-4.39-8.51-9.29-12.73-14.65,4.12.18,8.33.32,12.59.32s8.56-.09,12.73-.32c-4.12,5.36-8.38,10.25-12.59,14.65ZM78.32,134.17c-6.5-.96-12.77-2.15-18.77-3.62,1.69-5.91,3.8-11.99,6.18-18.08,1.88,3.66,3.85,7.32,6,10.99s4.35,7.23,6.59,10.71ZM112.15,38.91c4.26,4.39,8.51,9.29,12.73,14.65-4.12-.18-8.33-.32-12.59-.32s-8.56.09-12.73.32c4.12-5.36,8.38-10.25,12.59-14.65ZM78.28,65.87c-2.24,3.52-4.49,7.14-6.59,10.85-2.11,3.66-4.07,7.32-5.95,10.99-2.47-6.13-4.58-12.27-6.32-18.22,6-1.42,12.31-2.66,18.86-3.62h0ZM36.85,123.19c-16.21-6.91-26.69-15.98-26.69-23.16s10.48-16.3,26.69-23.16c3.94-1.69,8.24-3.2,12.68-4.62,2.61,8.97,6.04,18.31,10.3,27.88-4.21,9.52-7.6,18.81-10.16,27.74-4.53-1.42-8.83-2.98-12.82-4.67h0ZM61.48,188.6c-6.23-3.57-8.93-17.17-6.82-34.65.5-4.3,1.33-8.83,2.33-13.46,8.97,2.2,18.77,3.89,29.07,4.99,6.18,8.47,12.59,16.16,19.04,22.89-14.92,13.87-28.93,21.47-38.45,21.47-2.06-.05-3.8-.46-5.17-1.24h0ZM170.06,153.72c2.15,17.49-.5,31.08-6.68,34.7-1.37.82-3.16,1.19-5.26,1.19-9.48,0-23.53-7.55-38.45-21.33,6.41-6.73,12.82-14.37,18.91-22.84,10.35-1.1,20.14-2.79,29.11-5.04,1.05,4.62,1.88,9.06,2.38,13.32ZM187.69,123.19c-3.94,1.69-8.24,3.2-12.68,4.62-2.61-8.97-6.04-18.31-10.3-27.88,4.21-9.52,7.6-18.81,10.16-27.74,4.53,1.42,8.83,2.98,12.86,4.67,16.21,6.91,26.69,15.98,26.69,23.16-.05,7.19-10.53,16.3-26.73,23.16h0Z"/>
      <circle class="cls-1" cx="112.25" cy="100.02" r="20.92"/>
    </g>
  </g>
</svg>