<?xml version="1.0" encoding="UTF-8"?>
<svg id="Layer_2" data-name="Layer 2" xmlns="http://www.w3.org/2000/svg" viewBox="0 0 200 200">
  <defs>
    <style>
      .cls-1 {
        fill: #37c6d0;
      }

      .cls-1, .cls-2, .cls-3, .cls-4, .cls-5, .cls-6, .cls-7, .cls-8 {
        stroke-width: 0px;
      }

      .cls-2 {
        fill: #036c70;
      }

      .cls-3 {
        opacity: .2;
      }

      .cls-3, .cls-8 {
        isolation: isolate;
      }

      .cls-4 {
        fill: #1a9ba1;
      }

      .cls-5 {
        fill: none;
      }

      .cls-6 {
        fill: #03787c;
      }

      .cls-7 {
        fill: #fff;
      }

      .cls-8 {
        opacity: .1;
      }
    </style>
  </defs>
  <g id="Layer_1-2" data-name="Layer 1">
    <g>
      <circle class="cls-2" cx="93.75" cy="59.38" r="59.37"/>
      <circle class="cls-4" cx="149.22" cy="111.72" r="50.78"/>
      <circle class="cls-1" cx="100" cy="159.38" r="40.62"/>
      <path class="cls-8" d="M104.17,43.75H36.46c-8.61,31.66,10.08,64.31,41.74,72.92,5.07,1.38,10.3,2.08,15.55,2.08,1.73,0,3.44-.08,5.14-.22l.03.24c-22.01.58-39.55,18.59-39.55,40.61,0,1.05.04,2.09.12,3.12h44.67c4.6-.01,8.32-3.74,8.33-8.33V52.08c-.01-4.6-3.74-8.32-8.33-8.33Z"/>
      <path class="cls-3" d="M97.92,50h-62.81c-5.16,32.4,16.92,62.85,49.32,68.01,3.08.49,6.2.74,9.32.74,1.73,0,3.44-.08,5.14-.22l.03.24c-22.45.61-40.15,19.3-39.54,41.75.08,2.78.44,5.54,1.07,8.24h37.46c4.6-.01,8.32-3.74,8.33-8.33V58.33c-.01-4.6-3.74-8.32-8.33-8.33Z"/>
      <path class="cls-3" d="M97.92,50h-62.81c-5.16,32.4,16.92,62.85,49.32,68.01,3.08.49,6.2.74,9.32.74,1.73,0,3.44-.08,5.14-.22l.03.24c-20.81.55-37.84,16.73-39.44,37.49h38.43c4.6-.01,8.32-3.74,8.33-8.33V58.33c-.01-4.6-3.74-8.32-8.33-8.33Z"/>
      <path class="cls-3" d="M91.67,50h-56.56c-5.16,32.4,16.92,62.85,49.32,68.01,3.08.49,6.2.74,9.32.74,1.73,0,3.44-.08,5.14-.22l.03.24c-20.81.55-37.84,16.73-39.44,37.49h32.18c4.6-.01,8.32-3.74,8.33-8.33V58.33c-.01-4.6-3.74-8.32-8.33-8.33Z"/>
      <path class="cls-6" d="M8.33,50h83.34c4.6,0,8.33,3.73,8.33,8.33h0v83.34c0,4.6-3.73,8.33-8.33,8.33H8.33c-4.6,0-8.33-3.73-8.33-8.33h0V58.33c0-4.6,3.73-8.33,8.33-8.33h0Z"/>
      <path class="cls-7" d="M35.44,98.91c-2.11-1.4-3.86-3.26-5.14-5.44-1.24-2.28-1.86-4.84-1.79-7.44-.11-3.51,1.08-6.94,3.33-9.63,2.37-2.7,5.43-4.69,8.85-5.77,3.9-1.29,7.99-1.92,12.09-1.88,5.4-.2,10.79.56,15.93,2.23v11.25c-2.23-1.35-4.66-2.35-7.21-2.94-2.76-.68-5.59-1.02-8.43-1.01-2.99-.11-5.97.52-8.66,1.83-2.08.9-3.43,2.94-3.43,5.21-.01,1.37.51,2.69,1.46,3.69,1.12,1.16,2.45,2.11,3.92,2.8,1.64.82,4.09,1.9,7.35,3.25.36.11.71.25,1.06.42,3.21,1.26,6.32,2.79,9.27,4.57,2.24,1.38,4.12,3.27,5.48,5.52,1.4,2.54,2.09,5.42,1.98,8.33.16,3.6-.94,7.15-3.12,10.03-2.17,2.65-5.07,4.59-8.34,5.6-3.84,1.21-7.86,1.79-11.89,1.73-3.61.01-7.21-.28-10.76-.89-3.01-.48-5.95-1.33-8.75-2.52v-11.89c2.68,1.91,5.68,3.34,8.85,4.22,3.15.99,6.43,1.51,9.74,1.56,3.06.2,6.11-.45,8.83-1.87,1.89-1.08,3.03-3.12,2.97-5.29.01-1.52-.59-2.98-1.66-4.05-1.34-1.31-2.9-2.4-4.59-3.2-1.95-.98-4.84-2.28-8.66-3.88-3.03-1.22-5.93-2.74-8.66-4.53h0Z"/>
      <path class="cls-5" d="M0,0h200v200H0V0Z"/>
    </g>
  </g>
</svg>