<?xml version="1.0" encoding="UTF-8"?>
<svg id="Layer_2" data-name="Layer 2" xmlns="http://www.w3.org/2000/svg" viewBox="0 0 922.68 200">
  <defs>
    <style>
      .cls-1 {
        fill: #ee3524;
      }

      .cls-1, .cls-2, .cls-3 {
        fill-rule: evenodd;
        stroke-width: 0px;
      }

      .cls-3 {
        fill: #231f20;
      }
    </style>
  </defs>
  <g id="Layer_1-2" data-name="Layer 1">
    <g>
      <path class="cls-2" d="M318.11,61.98c-3.64-3.35-7.86-5.88-12.69-7.59s-9.56-2.57-14.19-2.57c-3.86,0-7.69.49-11.47,1.46-3.79.97-7.18,2.51-10.2,4.61-3.01,2.1-5.5,4.85-7.3,8.06-1.85,3.27-2.78,7.2-2.78,11.79,0,3.73.6,6.91,1.8,9.51,1.13,2.51,2.74,4.77,4.75,6.65,1.99,1.84,4.26,3.36,6.72,4.5,2.51,1.17,5.08,2.18,7.7,3.04,2.7.86,5.12,1.66,7.24,2.39,2.12.74,3.9,1.56,5.33,2.46,1.43.9,2.53,1.89,3.3,2.97.77,1.1,1.15,2.42,1.15,3.97s-.31,3.04-.92,4.2c-.62,1.17-1.45,2.1-2.49,2.8-1.05.7-2.26,1.21-3.65,1.52-1.41.31-2.84.47-4.29.47-3.25,0-6.51-.84-9.79-2.51-3.29-1.67-5.93-3.76-7.94-6.24l-12.97,13.31c3.63,3.81,8.18,6.75,13.67,8.82,5.49,2.06,11.16,3.09,17.03,3.09,4.02,0,7.92-.54,11.7-1.64,3.65-1.02,7.07-2.72,10.08-5.02,2.96-2.29,5.36-5.22,7.01-8.58,1.74-3.46,2.61-7.57,2.61-12.32,0-4.12-.81-7.57-2.43-10.33s-3.67-5.08-6.14-6.95c-2.51-1.89-5.28-3.4-8.23-4.49-3.01-1.13-5.91-2.16-8.69-3.09-1.75-.56-3.49-1.16-5.21-1.81-1.39-.51-2.73-1.15-4-1.92-1.03-.61-1.9-1.45-2.55-2.46-.58-.93-.87-2.1-.87-3.5,0-1.64.36-2.98,1.1-4.03.73-1.05,1.64-1.91,2.72-2.57,1.08-.66,2.3-1.11,3.65-1.34,1.35-.23,2.68-.35,3.99-.35,2.55,0,5.19.64,7.94,1.92,2.6,1.18,4.89,2.96,6.66,5.2l12.63-13.43ZM342.2,136.6h19.93V53.92h-19.93v82.67ZM450.06,70.97v-17.05h-66.15v17.04h23.17v65.62h19.82v-65.62h23.16ZM529.08,136.6v-17.05h-38.11v-17.16h34.06v-16h-34.06v-15.65h36.03v-16.81h-55.15v82.66h57.23ZM623.62,125.15l-13.79-13.08c-1.85,2.55-4.27,4.63-7.07,6.07-2.94,1.56-6.37,2.34-10.31,2.34-3.22.04-6.42-.6-9.39-1.87-2.79-1.2-5.3-2.97-7.36-5.19-2.11-2.33-3.74-5.04-4.8-8-1.16-3.11-1.74-6.54-1.74-10.27s.58-7.03,1.74-10.1c1.09-2.96,2.74-5.68,4.86-8,2.1-2.27,4.64-4.07,7.47-5.31,3.01-1.31,6.27-1.96,9.56-1.92,3.17,0,6.26.62,9.27,1.87,3.01,1.25,5.45,3.15,7.3,5.72l13.44-13.54c-3.47-3.97-8.01-6.98-13.61-9.05-5.6-2.06-11.29-3.09-17.09-3.09-6.25,0-12.09,1.01-17.49,3.04-5.25,1.93-10.05,4.88-14.14,8.7-4.02,3.78-7.16,8.35-9.44,13.72-2.28,5.37-3.42,11.37-3.42,17.98s1.12,12.38,3.36,17.75c2.24,5.37,5.33,9.98,9.27,13.84,4,3.89,8.75,6.93,13.96,8.93,5.37,2.1,11.22,3.15,17.55,3.15,6.95,0,13.09-1.23,18.42-3.68,5.33-2.45,9.81-5.78,13.44-9.98h0ZM721.52,76.99c-2.24-5.33-5.35-9.87-9.33-13.61-3.98-3.73-8.71-6.62-14.19-8.64s-11.43-3.04-17.84-3.04-12.34,1.01-17.78,3.04c-5.45,2.02-10.16,4.91-14.14,8.64-3.97,3.73-7.09,8.27-9.33,13.61-2.24,5.33-3.36,11.3-3.36,17.92s1.12,12.52,3.36,17.93c2.24,5.41,5.35,10.04,9.33,13.89,4.06,3.91,8.87,6.94,14.14,8.93,5.45,2.1,11.38,3.15,17.78,3.15s12.36-1.05,17.84-3.15c5.48-2.1,10.21-5.08,14.19-8.93,3.97-3.85,7.08-8.48,9.33-13.89,2.24-5.41,3.36-11.38,3.36-17.93s-1.12-12.59-3.36-17.92ZM701.94,105.24c-1.07,3-2.72,5.76-4.86,8.11-2.08,2.26-4.61,4.06-7.42,5.31-2.86,1.28-6.02,1.92-9.5,1.92s-6.64-.64-9.5-1.92c-2.8-1.24-5.3-3.05-7.36-5.31-2.11-2.37-3.75-5.12-4.81-8.11-1.19-3.32-1.78-6.82-1.74-10.34,0-3.58.56-6.93,1.68-10.04,1.03-2.97,2.67-5.69,4.81-8,2.08-2.22,4.56-3.97,7.42-5.26s6.02-1.92,9.49-1.92,6.67.64,9.57,1.92c2.81,1.22,5.33,3.01,7.41,5.26,2.05,2.22,3.65,4.88,4.81,8s1.74,6.46,1.74,10.04-.58,7.18-1.74,10.34h0ZM813.74,136.59l-21.43-35.38c5.33-1.63,9.5-4.36,12.51-8.17,3.01-3.81,4.52-8.52,4.52-14.13,0-4.75-.89-8.72-2.66-11.91-1.71-3.11-4.15-5.76-7.12-7.7-3.08-1.99-6.49-3.39-10.08-4.14-3.79-.82-7.65-1.23-11.53-1.23h-31.28v82.66h19.35v-32.81h6.75l17.81,32.81h23.17ZM788.42,84.4c-.9,1.33-2.04,2.33-3.44,3.04s-2.95,1.19-4.65,1.46c-1.66.27-3.33.41-5.01.41h-9.43v-19.27h10.59c1.47,0,3,.12,4.6.35,1.59.23,3.03.68,4.31,1.34,1.28.67,2.33,1.6,3.15,2.81.81,1.21,1.22,2.79,1.22,4.73,0,2.1-.45,3.82-1.34,5.14h0ZM891.71,136.6v-17.05h-38.12v-17.16h34.06v-16h-34.06v-15.65h36.04v-16.81h-55.15v82.66h57.23Z"/>
      <g>
        <path class="cls-1" d="M94.58,145.9c7.77-1.01,15.27-3.39,22.06-7.19,16.79-9.41,26.48-25.6,27.31-45.57l.07-1.73h23.23c-1.43-11.55-5.75-22.54-12.57-31.97l-23.77,15.37c7.24,11.42,8.16,24.08,2.68,36.73-6.51,14.98-21.84,28.11-39.01,34.36"/>
        <path class="cls-1" d="M167.6,95.01h-20.18c-1.36,20.2-11.88,37.21-29.05,46.84-9.8,5.49-20.95,8.23-32.34,8.23-9.02-.02-17.96-1.69-26.38-4.91,10.32,6.49,21.92,10.04,33.94,10.08h.18c21.7,0,41.18-11.57,52.14-30.98l.93-1.64,13.5,8.62c4.9-9.69,7.45-20.39,7.44-31.25,0-1.68-.08-3.34-.2-4.99"/>
        <path class="cls-1" d="M93.79,158.85h-.19c-21.62-.06-41.94-10.85-56.4-29.42,10.99,23.43,34.65,39.69,62.03,39.69,25.38,0,47.56-13.98,59.42-34.68l-10.56-6.74c-11.76,19.56-31.91,31.17-54.3,31.17"/>
        <path class="cls-1" d="M99.23,0C44.42,0,0,44.77,0,100s44.42,100,99.23,100,99.23-44.77,99.23-100S154.04,0,99.23,0M99.23,172.71c-39.85,0-72.15-32.56-72.15-72.71S59.38,27.29,99.23,27.29s72.15,32.56,72.15,72.71-32.3,72.71-72.15,72.71"/>
      </g>
      <path class="cls-3" d="M907.06,65.48c1.8,4.14,6.61,6.03,10.75,4.23,1.9-.82,3.41-2.34,4.23-4.23.42-.98.64-2.04.64-3.16.01-2.17-.85-4.24-2.39-5.77-.75-.74-1.63-1.33-2.59-1.74-.99-.43-2.07-.65-3.15-.64-1.12,0-2.17.21-3.16.64-1.95.83-3.5,2.38-4.33,4.33-.43,1-.64,2.06-.64,3.18s.21,2.18.64,3.16ZM908.24,59.62c.69-1.65,1.99-2.96,3.63-3.66.83-.36,1.72-.54,2.68-.54,2.76-.01,5.26,1.65,6.31,4.2.36.84.53,1.74.53,2.7s-.18,1.82-.53,2.66c-.35.82-.84,1.57-1.46,2.21-1.27,1.31-3.02,2.05-4.85,2.03-1.83.01-3.58-.72-4.85-2.03-.62-.64-1.12-1.39-1.46-2.21-.36-.84-.54-1.75-.54-2.66,0-.96.18-1.86.54-2.7h0ZM911.37,66.88h1.64v-3.85h1.18l2.14,3.85h2l-2.46-4.02c.59-.11,1.13-.41,1.53-.84.38-.42.57-.96.57-1.64.01-.44-.09-.87-.29-1.25-.19-.33-.45-.62-.77-.83-.33-.22-.7-.38-1.09-.47-.41-.1-.83-.14-1.25-.14h-3.21v9.2ZM913.01,61.71v-2.62h1.5c.43,0,.84.08,1.23.25.39.17.59.5.59,1,0,.55-.21.92-.64,1.1-.43.18-.89.27-1.36.27h-1.32Z"/>
    </g>
  </g>
</svg>