<?xml version="1.0" encoding="UTF-8"?>
<svg id="Layer_2" data-name="Layer 2" xmlns="http://www.w3.org/2000/svg" viewBox="0 0 514.56 200">
  <defs>
    <style>
      .cls-1, .cls-2 {
        stroke-width: 0px;
      }

      .cls-2 {
        fill: #fbbd71;
      }
    </style>
  </defs>
  <g id="Layer_1-2" data-name="Layer 1">
    <path class="cls-2" d="M294.51,3.79c-9.93,4.96-14.23,14.23-14.23,39.38,0,0,4.96-4.96,12.91-7.94,5.79-2.15,9.93-4.96,12.91-7.11,8.6-6.45,9.93-14.23,9.93-27.8-.17,0-13.73-.83-21.51,3.47Z"/>
    <path class="cls-1" d="M233.79,9.58c-8.6,7.11-10.75,19.36-10.75,19.36l-27.8,106.55-22.83-87.19c-2.15-9.27-6.45-20.68-12.91-28.62-7.94-10.09-24.49-10.75-26.47-10.75-1.49,0-17.87.66-26.47,10.75-6.45,7.94-10.75,19.36-12.91,28.62l-21.51,87.19L44.34,28.94s-2.15-11.42-10.75-19.36C20.02-2.66,0,.32,0,.32l52.95,199.37s17.21,1.49,25.81-2.81c11.42-5.79,17.21-9.93,23.66-37.23,6.45-24.32,23.66-95.14,24.98-100.1.66-2.15,2.15-8.6,6.45-8.6s5.79,5.79,6.45,8.6c1.49,4.96,18.53,75.78,24.98,100.1,7.11,27.13,12.08,31.44,23.66,37.23,8.6,4.3,25.81,2.81,25.81,2.81L267.37.32s-20.02-2.81-33.59,9.27ZM315.85,32.42s-3.64,4.96-10.75,9.27c-4.96,2.81-9.27,4.3-14.23,7.11-8.6,4.3-10.75,8.6-10.75,15.06v135.18s13.57,1.49,22.17-2.81c11.42-5.79,13.57-11.42,13.57-35.74V32.42ZM447.39,100.42L514.56.98s-27.8-4.96-42.19,7.94c-9.27,7.94-18.53,22.83-18.53,22.83l-24.32,35.74c-1.49,2.15-2.81,3.64-4.96,3.64s-4.3-2.15-4.96-3.64l-24.32-35.74s-9.93-14.23-18.53-22.83c-14.23-12.91-42.19-7.94-42.19-7.94l65.02,99.27-66.51,99.27s29.29,3.64,43.68-9.27c9.27-7.94,17.87-21.51,17.87-21.51l24.32-35.74c1.49-2.15,2.81-3.64,4.96-3.64s4.3,2.15,4.96,3.64l24.32,35.74s9.27,13.57,17.87,21.51c14.23,12.91,42.85,9.27,42.85,9.27l-66.51-99.11Z"/>
  </g>
</svg>