<?xml version="1.0" encoding="UTF-8"?>
<svg id="Layer_2" data-name="Layer 2" xmlns="http://www.w3.org/2000/svg" viewBox="0 0 200 200">
  <defs>
    <style>
      .cls-1 {
        fill: #00749a;
        stroke-width: 0px;
      }
    </style>
  </defs>
  <g id="Layer_1-2" data-name="Layer 1">
    <path class="cls-1" d="M14.12,100c0,34.06,19.56,63.41,48.13,77.17L21.74,65.22c-4.71,10.87-7.61,22.47-7.61,34.78ZM157.97,95.65c0-10.5-3.99-18.13-7.25-23.55-4.35-7.25-8.33-13.04-8.33-20.29,0-7.97,6.16-15.22,14.5-15.22h1.09c-15.22-14.13-35.51-22.47-57.97-22.47-28.85.26-55.71,14.77-71.74,38.77h5.44c9.06,0,22.82-1.09,22.82-1.09,4.71-.36,5.08,6.52.73,7.25,0,0-4.71.73-9.78.73l31.16,92.75,18.84-56.16-13.41-36.59-9.06-.71c-4.71-.36-3.99-7.25.36-7.25,0,0,14.13,1.09,22.46,1.09,9.06,0,22.82-1.09,22.82-1.09,4.71-.36,5.08,6.52.72,7.25,0,0-4.71.73-9.78.73l31.16,92.4,8.75-28.62c3.62-11.96,6.52-20.29,6.52-27.9h-.05ZM101.45,107.61l-25.72,74.64c7.61,2.17,15.94,3.62,24.27,3.62,10.14,0,19.56-1.87,28.62-4.71-.36-.36-.36-.72-.72-1.09l-26.45-72.47ZM175.36,59.06l.72,8.75c0,8.75-1.45,18.48-6.52,30.8l-26.09,75.73c25.36-14.86,42.75-42.39,42.75-74.27-.36-14.86-4.35-28.62-10.87-40.94v-.06ZM100,0C44.93,0,0,44.93,0,100s44.93,100,100,100,100-44.92,100-100S155.08,0,100,0ZM100,195.65c-52.54,0-95.29-42.75-95.29-95.65C4.8,47.41,47.41,4.8,100,4.71c52.59.08,95.2,42.7,95.29,95.29,0,52.9-42.75,95.65-95.29,95.65Z"/>
  </g>
</svg>