<?xml version="1.0" encoding="UTF-8"?>
<svg id="Layer_2" data-name="Layer 2" xmlns="http://www.w3.org/2000/svg" viewBox="0 0 205.13 200">
  <defs>
    <style>
      .cls-1 {
        fill: #470137;
      }

      .cls-1, .cls-2 {
        stroke-width: 0px;
      }

      .cls-2 {
        fill: #ff61f6;
      }
    </style>
  </defs>
  <g id="Layer_1-2" data-name="Layer 1">
    <rect class="cls-1" width="205.13" height="200" rx="36.33" ry="36.33"/>
    <path class="cls-2" d="M107.83,52.6l-25.59,42.24,27.38,44.86c.18.31.22.68.14,1.03-.09.32-.4.12-.96.21h-19.53c-1.38,0-2.34-.05-2.89-.96-1.83-3.58-3.67-7.13-5.5-10.66-1.84-3.53-3.79-7.13-5.85-10.81-2.06-3.67-4.1-7.38-6.12-11.15h-.14c-1.84,3.67-3.74,7.34-5.71,11.01-1.97,3.67-3.92,7.32-5.85,10.94-1.93,3.62-3.9,7.22-5.92,10.81-.37.82-1.01.91-1.93.91h-18.86c-.36,0-.57.14-.62-.22-.05-.34.02-.68.2-.96l26.56-43.63-25.87-43.75c-.28-.36-.32-.66-.14-.89.21-.23.51-.36.82-.33h19.4c.42-.02.85.05,1.24.2.33.19.61.45.82.76,1.65,3.67,3.48,7.34,5.5,11.01,2.02,3.67,4.06,7.29,6.12,10.84,2.06,3.58,3.96,7.2,5.71,10.87h.14c1.83-3.76,3.69-7.43,5.57-11.01,1.88-3.58,3.81-7.18,5.78-10.81,1.97-3.62,3.87-7.23,5.71-10.81.11-.34.3-.65.55-.9.34-.17.72-.24,1.1-.2h18.01c.43-.08.85.2.93.64.05.27-.04.55-.25.74v.02Z"/>
    <path class="cls-2" d="M147.33,142.73c-6.33.1-12.61-1.22-18.37-3.85-5.37-2.49-9.85-6.54-12.87-11.63-3.12-5.18-4.68-11.67-4.68-19.47-.04-6.31,1.57-12.52,4.68-18.01,3.21-5.59,7.92-10.17,13.61-13.21,5.96-3.3,13.16-4.95,21.62-4.95.46,0,1.05,0,1.79.07s1.6.12,2.61.2v-27.12c0-.64.28-.96.82-.96h17.34c.4-.06.77.22.83.62,0,.07,0,.14,0,.21v81.32c0,1.56.07,3.26.2,5.09.14,1.83.25,3.49.34,4.96.03.58-.29,1.13-.82,1.38-4.47,1.86-9.13,3.25-13.9,4.13-4.36.8-8.77,1.22-13.2,1.24ZM155.73,125.67v-37.57c-.74-.2-1.5-.33-2.27-.4-.94-.09-1.88-.14-2.82-.14-3.34-.03-6.64.72-9.63,2.2-2.91,1.45-5.39,3.63-7.21,6.33-1.88,2.75-2.82,6.37-2.82,10.87-.07,3,.42,5.99,1.45,8.81.83,2.27,2.15,4.34,3.85,6.06,1.64,1.58,3.61,2.76,5.78,3.44,2.29.74,4.68,1.11,7.09,1.1,1.28,0,2.47-.05,3.57-.14,1.01-.08,2.02-.27,2.99-.56h.02Z"/>
  </g>
</svg>