<svg width="168" height="54" viewBox="0 0 168 54" fill="none" xmlns="http://www.w3.org/2000/svg">
<g filter="url(#filter0_d_351_92)">
<rect x="28.5" y="2.5" width="119" height="35" rx="17.5" fill="#DEF5FF"/>
<rect x="28.5" y="2.5" width="119" height="35" rx="17.5" stroke="#6F6F6F"/>
<path d="M48.116 15.242C49.18 15.242 50.0993 15.4427 50.874 15.844C51.658 16.236 52.2553 16.8007 52.666 17.538C53.086 18.2753 53.296 19.1433 53.296 20.142C53.296 21.1407 53.086 22.0087 52.666 22.746C52.2553 23.474 51.658 24.034 50.874 24.426C50.0993 24.8087 49.18 25 48.116 25H45.078V15.242H48.116ZM48.116 23.95C49.376 23.95 50.3373 23.6187 51 22.956C51.6627 22.284 51.994 21.346 51.994 20.142C51.994 18.9287 51.658 17.9813 50.986 17.3C50.3233 16.6187 49.3667 16.278 48.116 16.278H46.352V23.95H48.116ZM56.1344 16.082C55.8918 16.082 55.6864 15.998 55.5184 15.83C55.3504 15.662 55.2664 15.4567 55.2664 15.214C55.2664 14.9713 55.3504 14.766 55.5184 14.598C55.6864 14.43 55.8918 14.346 56.1344 14.346C56.3678 14.346 56.5638 14.43 56.7224 14.598C56.8904 14.766 56.9744 14.9713 56.9744 15.214C56.9744 15.4567 56.8904 15.662 56.7224 15.83C56.5638 15.998 56.3678 16.082 56.1344 16.082ZM56.7504 17.328V25H55.4764V17.328H56.7504ZM58.9458 21.15C58.9458 20.3567 59.1044 19.666 59.4218 19.078C59.7391 18.4807 60.1778 18.0187 60.7378 17.692C61.3071 17.3653 61.9558 17.202 62.6838 17.202C63.6264 17.202 64.4011 17.4307 65.0078 17.888C65.6238 18.3453 66.0298 18.98 66.2258 19.792H64.8538C64.7231 19.3253 64.4664 18.9567 64.0838 18.686C63.7104 18.4153 63.2438 18.28 62.6838 18.28C61.9558 18.28 61.3678 18.532 60.9198 19.036C60.4718 19.5307 60.2478 20.2353 60.2478 21.15C60.2478 22.074 60.4718 22.788 60.9198 23.292C61.3678 23.796 61.9558 24.048 62.6838 24.048C63.2438 24.048 63.7104 23.9173 64.0838 23.656C64.4571 23.3947 64.7138 23.0213 64.8538 22.536H66.2258C66.0204 23.32 65.6098 23.95 64.9938 24.426C64.3778 24.8927 63.6078 25.126 62.6838 25.126C61.9558 25.126 61.3071 24.9627 60.7378 24.636C60.1778 24.3093 59.7391 23.8473 59.4218 23.25C59.1044 22.6527 58.9458 21.9527 58.9458 21.15ZM69.9797 18.378V22.9C69.9797 23.2733 70.059 23.5393 70.2177 23.698C70.3763 23.8473 70.6517 23.922 71.0437 23.922H71.9817V25H70.8337C70.1243 25 69.5923 24.8367 69.2377 24.51C68.883 24.1833 68.7057 23.6467 68.7057 22.9V18.378H67.7117V17.328H68.7057V15.396H69.9797V17.328H71.9817V18.378H69.9797ZM74.6833 16.082C74.4406 16.082 74.2353 15.998 74.0673 15.83C73.8993 15.662 73.8153 15.4567 73.8153 15.214C73.8153 14.9713 73.8993 14.766 74.0673 14.598C74.2353 14.43 74.4406 14.346 74.6833 14.346C74.9166 14.346 75.1126 14.43 75.2713 14.598C75.4393 14.766 75.5233 14.9713 75.5233 15.214C75.5233 15.4567 75.4393 15.662 75.2713 15.83C75.1126 15.998 74.9166 16.082 74.6833 16.082ZM75.2993 17.328V25H74.0253V17.328H75.2993ZM81.3166 25.126C80.5979 25.126 79.9446 24.9627 79.3566 24.636C78.7779 24.3093 78.3206 23.8473 77.9846 23.25C77.6579 22.6433 77.4946 21.9433 77.4946 21.15C77.4946 20.366 77.6626 19.6753 77.9986 19.078C78.3439 18.4713 78.8106 18.0093 79.3986 17.692C79.9866 17.3653 80.6446 17.202 81.3726 17.202C82.1006 17.202 82.7586 17.3653 83.3466 17.692C83.9346 18.0093 84.3966 18.4667 84.7326 19.064C85.0779 19.6613 85.2506 20.3567 85.2506 21.15C85.2506 21.9433 85.0732 22.6433 84.7186 23.25C84.3732 23.8473 83.9019 24.3093 83.3046 24.636C82.7072 24.9627 82.0446 25.126 81.3166 25.126ZM81.3166 24.006C81.7739 24.006 82.2032 23.8987 82.6046 23.684C83.0059 23.4693 83.3279 23.1473 83.5706 22.718C83.8226 22.2887 83.9486 21.766 83.9486 21.15C83.9486 20.534 83.8272 20.0113 83.5846 19.582C83.3419 19.1527 83.0246 18.8353 82.6326 18.63C82.2406 18.4153 81.8159 18.308 81.3586 18.308C80.8919 18.308 80.4626 18.4153 80.0706 18.63C79.6879 18.8353 79.3799 19.1527 79.1466 19.582C78.9132 20.0113 78.7966 20.534 78.7966 21.15C78.7966 21.7753 78.9086 22.3027 79.1326 22.732C79.3659 23.1613 79.6739 23.4833 80.0566 23.698C80.4392 23.9033 80.8592 24.006 81.3166 24.006ZM91.1637 17.188C92.097 17.188 92.853 17.4727 93.4317 18.042C94.0103 18.602 94.2997 19.414 94.2997 20.478V25H93.0397V20.66C93.0397 19.8947 92.8483 19.3113 92.4657 18.91C92.083 18.4993 91.5603 18.294 90.8977 18.294C90.2257 18.294 89.689 18.504 89.2877 18.924C88.8957 19.344 88.6997 19.9553 88.6997 20.758V25H87.4257V17.328H88.6997V18.42C88.9517 18.028 89.2923 17.7247 89.7217 17.51C90.1603 17.2953 90.641 17.188 91.1637 17.188ZM96.4047 21.136C96.4047 20.352 96.5634 19.666 96.8807 19.078C97.1981 18.4807 97.6321 18.0187 98.1827 17.692C98.7427 17.3653 99.3634 17.202 100.045 17.202C100.717 17.202 101.3 17.3467 101.795 17.636C102.289 17.9253 102.658 18.2893 102.901 18.728V17.328H104.189V25H102.901V23.572C102.649 24.02 102.271 24.3933 101.767 24.692C101.272 24.9813 100.693 25.126 100.031 25.126C99.3494 25.126 98.7334 24.958 98.1827 24.622C97.6321 24.286 97.1981 23.8147 96.8807 23.208C96.5634 22.6013 96.4047 21.9107 96.4047 21.136ZM102.901 21.15C102.901 20.5713 102.784 20.0673 102.551 19.638C102.317 19.2087 102 18.882 101.599 18.658C101.207 18.4247 100.773 18.308 100.297 18.308C99.8207 18.308 99.3867 18.42 98.9947 18.644C98.6027 18.868 98.2901 19.1947 98.0567 19.624C97.8234 20.0533 97.7067 20.5573 97.7067 21.136C97.7067 21.724 97.8234 22.2373 98.0567 22.676C98.2901 23.1053 98.6027 23.4367 98.9947 23.67C99.3867 23.894 99.8207 24.006 100.297 24.006C100.773 24.006 101.207 23.894 101.599 23.67C102 23.4367 102.317 23.1053 102.551 22.676C102.784 22.2373 102.901 21.7287 102.901 21.15ZM108.116 18.574C108.34 18.1353 108.657 17.7947 109.068 17.552C109.488 17.3093 109.996 17.188 110.594 17.188V18.504H110.258C108.83 18.504 108.116 19.2787 108.116 20.828V25H106.842V17.328H108.116V18.574ZM113.222 16.082C112.98 16.082 112.774 15.998 112.606 15.83C112.438 15.662 112.354 15.4567 112.354 15.214C112.354 14.9713 112.438 14.766 112.606 14.598C112.774 14.43 112.98 14.346 113.222 14.346C113.456 14.346 113.652 14.43 113.81 14.598C113.978 14.766 114.062 14.9713 114.062 15.214C114.062 15.4567 113.978 15.662 113.81 15.83C113.652 15.998 113.456 16.082 113.222 16.082ZM113.838 17.328V25H112.564V17.328H113.838ZM123.51 20.87C123.51 21.1127 123.496 21.3693 123.468 21.64H117.336C117.382 22.396 117.639 22.9887 118.106 23.418C118.582 23.838 119.156 24.048 119.828 24.048C120.378 24.048 120.836 23.922 121.2 23.67C121.573 23.4087 121.834 23.0633 121.984 22.634H123.356C123.15 23.3713 122.74 23.9733 122.124 24.44C121.508 24.8973 120.742 25.126 119.828 25.126C119.1 25.126 118.446 24.9627 117.868 24.636C117.298 24.3093 116.85 23.8473 116.524 23.25C116.197 22.6433 116.034 21.9433 116.034 21.15C116.034 20.3567 116.192 19.6613 116.51 19.064C116.827 18.4667 117.27 18.0093 117.84 17.692C118.418 17.3653 119.081 17.202 119.828 17.202C120.556 17.202 121.2 17.3607 121.76 17.678C122.32 17.9953 122.749 18.434 123.048 18.994C123.356 19.5447 123.51 20.17 123.51 20.87ZM122.194 20.604C122.194 20.1187 122.086 19.7033 121.872 19.358C121.657 19.0033 121.363 18.7373 120.99 18.56C120.626 18.3733 120.22 18.28 119.772 18.28C119.128 18.28 118.577 18.4853 118.12 18.896C117.672 19.3067 117.415 19.876 117.35 20.604H122.194ZM128.407 25.126C127.819 25.126 127.292 25.028 126.825 24.832C126.359 24.6267 125.99 24.3467 125.719 23.992C125.449 23.628 125.299 23.2127 125.271 22.746H126.587C126.625 23.1287 126.802 23.4413 127.119 23.684C127.446 23.9267 127.871 24.048 128.393 24.048C128.879 24.048 129.261 23.9407 129.541 23.726C129.821 23.5113 129.961 23.2407 129.961 22.914C129.961 22.578 129.812 22.3307 129.513 22.172C129.215 22.004 128.753 21.8407 128.127 21.682C127.558 21.5327 127.091 21.3833 126.727 21.234C126.373 21.0753 126.065 20.8467 125.803 20.548C125.551 20.24 125.425 19.8387 125.425 19.344C125.425 18.952 125.542 18.5927 125.775 18.266C126.009 17.9393 126.34 17.6827 126.769 17.496C127.199 17.3 127.689 17.202 128.239 17.202C129.089 17.202 129.775 17.4167 130.297 17.846C130.82 18.2753 131.1 18.8633 131.137 19.61H129.863C129.835 19.2087 129.672 18.8867 129.373 18.644C129.084 18.4013 128.692 18.28 128.197 18.28C127.74 18.28 127.376 18.378 127.105 18.574C126.835 18.77 126.699 19.0267 126.699 19.344C126.699 19.596 126.779 19.806 126.937 19.974C127.105 20.1327 127.311 20.2633 127.553 20.366C127.805 20.4593 128.151 20.5667 128.589 20.688C129.14 20.8373 129.588 20.9867 129.933 21.136C130.279 21.276 130.573 21.4907 130.815 21.78C131.067 22.0693 131.198 22.4473 131.207 22.914C131.207 23.334 131.091 23.712 130.857 24.048C130.624 24.384 130.293 24.65 129.863 24.846C129.443 25.0327 128.958 25.126 128.407 25.126Z" fill="black"/>
<path d="M162.788 38.0102L156.88 39.8801L155.01 45.7884L151.889 34.8891L162.788 38.0102Z" fill="#A3FF2E" stroke="black" stroke-width="0.8" stroke-miterlimit="10"/>
<path d="M18.728 15.888L17.744 20.496H21.32V21.456H17.528L16.352 27H15.296L16.472 21.456H10.808L9.632 27H8.576L9.752 21.456H5.912V20.496H9.968L10.952 15.888H7.16V14.928H11.144L12.368 9.24H13.424L12.2 14.928H17.864L19.088 9.24H20.144L18.92 14.928H22.568V15.888H18.728ZM17.672 15.888H12.008L11.024 20.496H16.688L17.672 15.888Z" fill="black" fill-opacity="0.6"/>
</g>
<defs>
<filter id="filter0_d_351_92" x="0.912109" y="0" width="166.262" height="53.1745" filterUnits="userSpaceOnUse" color-interpolation-filters="sRGB">
<feFlood flood-opacity="0" result="BackgroundImageFix"/>
<feColorMatrix in="SourceAlpha" type="matrix" values="0 0 0 0 0 0 0 0 0 0 0 0 0 0 0 0 0 0 127 0" result="hardAlpha"/>
<feOffset dx="-1" dy="2"/>
<feGaussianBlur stdDeviation="2"/>
<feComposite in2="hardAlpha" operator="out"/>
<feColorMatrix type="matrix" values="0 0 0 0 0 0 0 0 0 0 0 0 0 0 0 0 0 0 0.3 0"/>
<feBlend mode="normal" in2="BackgroundImageFix" result="effect1_dropShadow_351_92"/>
<feBlend mode="normal" in="SourceGraphic" in2="effect1_dropShadow_351_92" result="shape"/>
</filter>
</defs>
</svg>
