<svg width="139" height="56" viewBox="0 0 139 56" fill="none" xmlns="http://www.w3.org/2000/svg">
<g filter="url(#filter0_d_351_88)">
<rect x="4.5" y="0.5" width="113" height="35" rx="17.5" fill="#FFF7B1"/>
<rect x="4.5" y="0.5" width="113" height="35" rx="17.5" stroke="#6F6F6F"/>
<path d="M27.97 16.07C27.6993 15.5007 27.3073 15.062 26.794 14.754C26.2807 14.4367 25.6833 14.278 25.002 14.278C24.3207 14.278 23.7047 14.4367 23.154 14.754C22.6127 15.062 22.1833 15.51 21.866 16.098C21.558 16.6767 21.404 17.3487 21.404 18.114C21.404 18.8793 21.558 19.5513 21.866 20.13C22.1833 20.7087 22.6127 21.1567 23.154 21.474C23.7047 21.782 24.3207 21.936 25.002 21.936C25.954 21.936 26.738 21.6513 27.354 21.082C27.97 20.5127 28.3293 19.7427 28.432 18.772H24.54V17.736H29.79V18.716C29.7153 19.5187 29.4633 20.256 29.034 20.928C28.6047 21.5907 28.04 22.118 27.34 22.51C26.64 22.8927 25.8607 23.084 25.002 23.084C24.0967 23.084 23.2707 22.874 22.524 22.454C21.7773 22.0247 21.1847 21.432 20.746 20.676C20.3167 19.92 20.102 19.066 20.102 18.114C20.102 17.162 20.3167 16.308 20.746 15.552C21.1847 14.7867 21.7773 14.194 22.524 13.774C23.2707 13.3447 24.0967 13.13 25.002 13.13C26.038 13.13 26.9527 13.3867 27.746 13.9C28.5487 14.4133 29.132 15.1367 29.496 16.07H27.97ZM38.9745 18.87C38.9745 19.1127 38.9605 19.3693 38.9325 19.64H32.8005C32.8472 20.396 33.1038 20.9887 33.5705 21.418C34.0465 21.838 34.6205 22.048 35.2925 22.048C35.8432 22.048 36.3005 21.922 36.6645 21.67C37.0378 21.4087 37.2992 21.0633 37.4485 20.634H38.8205C38.6152 21.3713 38.2045 21.9733 37.5885 22.44C36.9725 22.8973 36.2072 23.126 35.2925 23.126C34.5645 23.126 33.9112 22.9627 33.3325 22.636C32.7632 22.3093 32.3152 21.8473 31.9885 21.25C31.6618 20.6433 31.4985 19.9433 31.4985 19.15C31.4985 18.3567 31.6572 17.6613 31.9745 17.064C32.2918 16.4667 32.7352 16.0093 33.3045 15.692C33.8832 15.3653 34.5458 15.202 35.2925 15.202C36.0205 15.202 36.6645 15.3607 37.2245 15.678C37.7845 15.9953 38.2138 16.434 38.5125 16.994C38.8205 17.5447 38.9745 18.17 38.9745 18.87ZM37.6585 18.604C37.6585 18.1187 37.5512 17.7033 37.3365 17.358C37.1218 17.0033 36.8278 16.7373 36.4545 16.56C36.0905 16.3733 35.6845 16.28 35.2365 16.28C34.5925 16.28 34.0418 16.4853 33.5845 16.896C33.1365 17.3067 32.8798 17.876 32.8145 18.604H37.6585ZM44.8941 15.188C45.8275 15.188 46.5835 15.4727 47.1621 16.042C47.7408 16.602 48.0301 17.414 48.0301 18.478V23H46.7701V18.66C46.7701 17.8947 46.5788 17.3113 46.1961 16.91C45.8135 16.4993 45.2908 16.294 44.6281 16.294C43.9561 16.294 43.4195 16.504 43.0181 16.924C42.6261 17.344 42.4301 17.9553 42.4301 18.758V23H41.1561V15.328H42.4301V16.42C42.6821 16.028 43.0228 15.7247 43.4521 15.51C43.8908 15.2953 44.3715 15.188 44.8941 15.188ZM57.6112 18.87C57.6112 19.1127 57.5972 19.3693 57.5692 19.64H51.4372C51.4839 20.396 51.7405 20.9887 52.2072 21.418C52.6832 21.838 53.2572 22.048 53.9292 22.048C54.4799 22.048 54.9372 21.922 55.3012 21.67C55.6745 21.4087 55.9359 21.0633 56.0852 20.634H57.4572C57.2519 21.3713 56.8412 21.9733 56.2252 22.44C55.6092 22.8973 54.8439 23.126 53.9292 23.126C53.2012 23.126 52.5479 22.9627 51.9692 22.636C51.3999 22.3093 50.9519 21.8473 50.6252 21.25C50.2985 20.6433 50.1352 19.9433 50.1352 19.15C50.1352 18.3567 50.2939 17.6613 50.6112 17.064C50.9285 16.4667 51.3719 16.0093 51.9412 15.692C52.5199 15.3653 53.1825 15.202 53.9292 15.202C54.6572 15.202 55.3012 15.3607 55.8612 15.678C56.4212 15.9953 56.8505 16.434 57.1492 16.994C57.4572 17.5447 57.6112 18.17 57.6112 18.87ZM56.2952 18.604C56.2952 18.1187 56.1879 17.7033 55.9732 17.358C55.7585 17.0033 55.4645 16.7373 55.0912 16.56C54.7272 16.3733 54.3212 16.28 53.8732 16.28C53.2292 16.28 52.6785 16.4853 52.2212 16.896C51.7732 17.3067 51.5165 17.876 51.4512 18.604H56.2952ZM61.0668 16.574C61.2908 16.1353 61.6082 15.7947 62.0188 15.552C62.4388 15.3093 62.9475 15.188 63.5448 15.188V16.504H63.2088C61.7808 16.504 61.0668 17.2787 61.0668 18.828V23H59.7928V15.328H61.0668V16.574ZM65.0395 19.136C65.0395 18.352 65.1982 17.666 65.5155 17.078C65.8328 16.4807 66.2668 16.0187 66.8175 15.692C67.3775 15.3653 67.9982 15.202 68.6795 15.202C69.3515 15.202 69.9348 15.3467 70.4295 15.636C70.9242 15.9253 71.2928 16.2893 71.5355 16.728V15.328H72.8235V23H71.5355V21.572C71.2835 22.02 70.9055 22.3933 70.4015 22.692C69.9068 22.9813 69.3282 23.126 68.6655 23.126C67.9842 23.126 67.3682 22.958 66.8175 22.622C66.2668 22.286 65.8328 21.8147 65.5155 21.208C65.1982 20.6013 65.0395 19.9107 65.0395 19.136ZM71.5355 19.15C71.5355 18.5713 71.4188 18.0673 71.1855 17.638C70.9522 17.2087 70.6348 16.882 70.2335 16.658C69.8415 16.4247 69.4075 16.308 68.9315 16.308C68.4555 16.308 68.0215 16.42 67.6295 16.644C67.2375 16.868 66.9248 17.1947 66.6915 17.624C66.4582 18.0533 66.3415 18.5573 66.3415 19.136C66.3415 19.724 66.4582 20.2373 66.6915 20.676C66.9248 21.1053 67.2375 21.4367 67.6295 21.67C68.0215 21.894 68.4555 22.006 68.9315 22.006C69.4075 22.006 69.8415 21.894 70.2335 21.67C70.6348 21.4367 70.9522 21.1053 71.1855 20.676C71.4188 20.2373 71.5355 19.7287 71.5355 19.15ZM77.0304 16.378V20.9C77.0304 21.2733 77.1098 21.5393 77.2684 21.698C77.4271 21.8473 77.7024 21.922 78.0944 21.922H79.0324V23H77.8844C77.1751 23 76.6431 22.8367 76.2884 22.51C75.9338 22.1833 75.7564 21.6467 75.7564 20.9V16.378H74.7624V15.328H75.7564V13.396H77.0304V15.328H79.0324V16.378H77.0304ZM84.422 23.126C83.7034 23.126 83.05 22.9627 82.462 22.636C81.8834 22.3093 81.426 21.8473 81.09 21.25C80.7634 20.6433 80.6 19.9433 80.6 19.15C80.6 18.366 80.768 17.6753 81.104 17.078C81.4494 16.4713 81.916 16.0093 82.504 15.692C83.092 15.3653 83.75 15.202 84.478 15.202C85.206 15.202 85.864 15.3653 86.452 15.692C87.04 16.0093 87.502 16.4667 87.838 17.064C88.1834 17.6613 88.356 18.3567 88.356 19.15C88.356 19.9433 88.1787 20.6433 87.824 21.25C87.4787 21.8473 87.0074 22.3093 86.41 22.636C85.8127 22.9627 85.15 23.126 84.422 23.126ZM84.422 22.006C84.8794 22.006 85.3087 21.8987 85.71 21.684C86.1114 21.4693 86.4334 21.1473 86.676 20.718C86.928 20.2887 87.054 19.766 87.054 19.15C87.054 18.534 86.9327 18.0113 86.69 17.582C86.4474 17.1527 86.13 16.8353 85.738 16.63C85.346 16.4153 84.9214 16.308 84.464 16.308C83.9974 16.308 83.568 16.4153 83.176 16.63C82.7934 16.8353 82.4854 17.1527 82.252 17.582C82.0187 18.0113 81.902 18.534 81.902 19.15C81.902 19.7753 82.014 20.3027 82.238 20.732C82.4714 21.1613 82.7794 21.4833 83.162 21.698C83.5447 21.9033 83.9647 22.006 84.422 22.006ZM91.8051 16.574C92.0291 16.1353 92.3465 15.7947 92.7571 15.552C93.1771 15.3093 93.6858 15.188 94.2831 15.188V16.504H93.9471C92.5191 16.504 91.8051 17.2787 91.8051 18.828V23H90.5311V15.328H91.8051V16.574ZM98.9698 23.126C98.3818 23.126 97.8544 23.028 97.3878 22.832C96.9211 22.6267 96.5524 22.3467 96.2818 21.992C96.0111 21.628 95.8618 21.2127 95.8338 20.746H97.1498C97.1871 21.1287 97.3644 21.4413 97.6818 21.684C98.0084 21.9267 98.4331 22.048 98.9558 22.048C99.4411 22.048 99.8238 21.9407 100.104 21.726C100.384 21.5113 100.524 21.2407 100.524 20.914C100.524 20.578 100.374 20.3307 100.076 20.172C99.7771 20.004 99.3151 19.8407 98.6898 19.682C98.1204 19.5327 97.6538 19.3833 97.2898 19.234C96.9351 19.0753 96.6271 18.8467 96.3658 18.548C96.1138 18.24 95.9878 17.8387 95.9878 17.344C95.9878 16.952 96.1044 16.5927 96.3378 16.266C96.5711 15.9393 96.9024 15.6827 97.3318 15.496C97.7611 15.3 98.2511 15.202 98.8018 15.202C99.6511 15.202 100.337 15.4167 100.86 15.846C101.382 16.2753 101.662 16.8633 101.7 17.61H100.426C100.398 17.2087 100.234 16.8867 99.9358 16.644C99.6464 16.4013 99.2544 16.28 98.7598 16.28C98.3024 16.28 97.9384 16.378 97.6678 16.574C97.3971 16.77 97.2618 17.0267 97.2618 17.344C97.2618 17.596 97.3411 17.806 97.4998 17.974C97.6678 18.1327 97.8731 18.2633 98.1158 18.366C98.3678 18.4593 98.7131 18.5667 99.1518 18.688C99.7024 18.8373 100.15 18.9867 100.496 19.136C100.841 19.276 101.135 19.4907 101.378 19.78C101.63 20.0693 101.76 20.4473 101.77 20.914C101.77 21.334 101.653 21.712 101.42 22.048C101.186 22.384 100.855 22.65 100.426 22.846C100.006 23.0327 99.5204 23.126 98.9698 23.126Z" fill="black"/>
<path d="M132.679 40.1759L126.528 40.9317L123.607 46.3974L122.536 35.1107L132.679 40.1759Z" fill="#A3FF2E" stroke="black" stroke-width="0.8" stroke-miterlimit="10"/>
</g>
<defs>
<filter id="filter0_d_351_88" x="0" y="0" width="138.045" height="55.7565" filterUnits="userSpaceOnUse" color-interpolation-filters="sRGB">
<feFlood flood-opacity="0" result="BackgroundImageFix"/>
<feColorMatrix in="SourceAlpha" type="matrix" values="0 0 0 0 0 0 0 0 0 0 0 0 0 0 0 0 0 0 127 0" result="hardAlpha"/>
<feOffset dy="4"/>
<feGaussianBlur stdDeviation="2"/>
<feComposite in2="hardAlpha" operator="out"/>
<feColorMatrix type="matrix" values="0 0 0 0 0 0 0 0 0 0 0 0 0 0 0 0 0 0 0.25 0"/>
<feBlend mode="normal" in2="BackgroundImageFix" result="effect1_dropShadow_351_88"/>
<feBlend mode="normal" in="SourceGraphic" in2="effect1_dropShadow_351_88" result="shape"/>
</filter>
</defs>
</svg>
