<svg width="144" height="54" viewBox="0 0 144 54" fill="none" xmlns="http://www.w3.org/2000/svg">
<g filter="url(#filter0_d_351_84)">
<rect x="22.5" y="2.5" width="118" height="35" rx="17.5" fill="#DCFFC7"/>
<rect x="22.5" y="2.5" width="118" height="35" rx="17.5" stroke="#6F6F6F"/>
<path d="M49.502 25.098C48.5967 25.098 47.7707 24.888 47.024 24.468C46.2773 24.0387 45.6847 23.446 45.246 22.69C44.8167 21.9247 44.602 21.066 44.602 20.114C44.602 19.162 44.8167 18.308 45.246 17.552C45.6847 16.7867 46.2773 16.194 47.024 15.774C47.7707 15.3447 48.5967 15.13 49.502 15.13C50.4167 15.13 51.2473 15.3447 51.994 15.774C52.7407 16.194 53.3287 16.782 53.758 17.538C54.1873 18.294 54.402 19.1527 54.402 20.114C54.402 21.0753 54.1873 21.934 53.758 22.69C53.3287 23.446 52.7407 24.0387 51.994 24.468C51.2473 24.888 50.4167 25.098 49.502 25.098ZM49.502 23.992C50.1833 23.992 50.7947 23.8333 51.336 23.516C51.8867 23.1987 52.316 22.746 52.624 22.158C52.9413 21.57 53.1 20.8887 53.1 20.114C53.1 19.33 52.9413 18.6487 52.624 18.07C52.316 17.482 51.8913 17.0293 51.35 16.712C50.8087 16.3947 50.1927 16.236 49.502 16.236C48.8113 16.236 48.1953 16.3947 47.654 16.712C47.1127 17.0293 46.6833 17.482 46.366 18.07C46.058 18.6487 45.904 19.33 45.904 20.114C45.904 20.8887 46.058 21.57 46.366 22.158C46.6833 22.746 47.1127 23.1987 47.654 23.516C48.2047 23.8333 48.8207 23.992 49.502 23.992ZM57.8579 18.742C58.1099 18.3033 58.4832 17.9393 58.9779 17.65C59.4819 17.3513 60.0652 17.202 60.7279 17.202C61.4092 17.202 62.0252 17.3653 62.5759 17.692C63.1359 18.0187 63.5745 18.4807 63.8919 19.078C64.2092 19.666 64.3679 20.352 64.3679 21.136C64.3679 21.9107 64.2092 22.6013 63.8919 23.208C63.5745 23.8147 63.1359 24.286 62.5759 24.622C62.0252 24.958 61.4092 25.126 60.7279 25.126C60.0745 25.126 59.4959 24.9813 58.9919 24.692C58.4972 24.3933 58.1192 24.0247 57.8579 23.586V28.64H56.5839V17.328H57.8579V18.742ZM63.0659 21.136C63.0659 20.5573 62.9492 20.0533 62.7159 19.624C62.4825 19.1947 62.1652 18.868 61.7639 18.644C61.3719 18.42 60.9379 18.308 60.4619 18.308C59.9952 18.308 59.5612 18.4247 59.1599 18.658C58.7679 18.882 58.4505 19.2133 58.2079 19.652C57.9745 20.0813 57.8579 20.5807 57.8579 21.15C57.8579 21.7287 57.9745 22.2373 58.2079 22.676C58.4505 23.1053 58.7679 23.4367 59.1599 23.67C59.5612 23.894 59.9952 24.006 60.4619 24.006C60.9379 24.006 61.3719 23.894 61.7639 23.67C62.1652 23.4367 62.4825 23.1053 62.7159 22.676C62.9492 22.2373 63.0659 21.724 63.0659 21.136ZM73.5448 20.87C73.5448 21.1127 73.5308 21.3693 73.5028 21.64H67.3708C67.4175 22.396 67.6741 22.9887 68.1408 23.418C68.6168 23.838 69.1908 24.048 69.8628 24.048C70.4135 24.048 70.8708 23.922 71.2348 23.67C71.6081 23.4087 71.8695 23.0633 72.0188 22.634H73.3908C73.1855 23.3713 72.7748 23.9733 72.1588 24.44C71.5428 24.8973 70.7775 25.126 69.8628 25.126C69.1348 25.126 68.4815 24.9627 67.9028 24.636C67.3335 24.3093 66.8855 23.8473 66.5588 23.25C66.2321 22.6433 66.0688 21.9433 66.0688 21.15C66.0688 20.3567 66.2275 19.6613 66.5448 19.064C66.8621 18.4667 67.3055 18.0093 67.8748 17.692C68.4535 17.3653 69.1161 17.202 69.8628 17.202C70.5908 17.202 71.2348 17.3607 71.7948 17.678C72.3548 17.9953 72.7841 18.434 73.0828 18.994C73.3908 19.5447 73.5448 20.17 73.5448 20.87ZM72.2288 20.604C72.2288 20.1187 72.1215 19.7033 71.9068 19.358C71.6921 19.0033 71.3981 18.7373 71.0248 18.56C70.6608 18.3733 70.2548 18.28 69.8068 18.28C69.1628 18.28 68.6121 18.4853 68.1548 18.896C67.7068 19.3067 67.4501 19.876 67.3848 20.604H72.2288ZM77.0004 18.574C77.2244 18.1353 77.5418 17.7947 77.9524 17.552C78.3724 17.3093 78.8811 17.188 79.4784 17.188V18.504H79.1424C77.7144 18.504 77.0004 19.2787 77.0004 20.828V25H75.7264V17.328H77.0004V18.574ZM80.9731 21.136C80.9731 20.352 81.1318 19.666 81.4491 19.078C81.7664 18.4807 82.2004 18.0187 82.7511 17.692C83.3111 17.3653 83.9318 17.202 84.6131 17.202C85.2851 17.202 85.8684 17.3467 86.3631 17.636C86.8578 17.9253 87.2264 18.2893 87.4691 18.728V17.328H88.7571V25H87.4691V23.572C87.2171 24.02 86.8391 24.3933 86.3351 24.692C85.8404 24.9813 85.2618 25.126 84.5991 25.126C83.9178 25.126 83.3018 24.958 82.7511 24.622C82.2004 24.286 81.7664 23.8147 81.4491 23.208C81.1318 22.6013 80.9731 21.9107 80.9731 21.136ZM87.4691 21.15C87.4691 20.5713 87.3524 20.0673 87.1191 19.638C86.8858 19.2087 86.5684 18.882 86.1671 18.658C85.7751 18.4247 85.3411 18.308 84.8651 18.308C84.3891 18.308 83.9551 18.42 83.5631 18.644C83.1711 18.868 82.8584 19.1947 82.6251 19.624C82.3918 20.0533 82.2751 20.5573 82.2751 21.136C82.2751 21.724 82.3918 22.2373 82.6251 22.676C82.8584 23.1053 83.1711 23.4367 83.5631 23.67C83.9551 23.894 84.3891 24.006 84.8651 24.006C85.3411 24.006 85.7751 23.894 86.1671 23.67C86.5684 23.4367 86.8858 23.1053 87.1191 22.676C87.3524 22.2373 87.4691 21.7287 87.4691 21.15ZM92.964 18.378V22.9C92.964 23.2733 93.0434 23.5393 93.202 23.698C93.3607 23.8473 93.636 23.922 94.028 23.922H94.966V25H93.818C93.1087 25 92.5767 24.8367 92.222 24.51C91.8674 24.1833 91.69 23.6467 91.69 22.9V18.378H90.696V17.328H91.69V15.396H92.964V17.328H94.966V18.378H92.964ZM100.356 25.126C99.637 25.126 98.9836 24.9627 98.3956 24.636C97.817 24.3093 97.3596 23.8473 97.0236 23.25C96.697 22.6433 96.5336 21.9433 96.5336 21.15C96.5336 20.366 96.7016 19.6753 97.0376 19.078C97.383 18.4713 97.8496 18.0093 98.4376 17.692C99.0256 17.3653 99.6836 17.202 100.412 17.202C101.14 17.202 101.798 17.3653 102.386 17.692C102.974 18.0093 103.436 18.4667 103.772 19.064C104.117 19.6613 104.29 20.3567 104.29 21.15C104.29 21.9433 104.112 22.6433 103.758 23.25C103.412 23.8473 102.941 24.3093 102.344 24.636C101.746 24.9627 101.084 25.126 100.356 25.126ZM100.356 24.006C100.813 24.006 101.242 23.8987 101.644 23.684C102.045 23.4693 102.367 23.1473 102.61 22.718C102.862 22.2887 102.988 21.766 102.988 21.15C102.988 20.534 102.866 20.0113 102.624 19.582C102.381 19.1527 102.064 18.8353 101.672 18.63C101.28 18.4153 100.855 18.308 100.398 18.308C99.931 18.308 99.5016 18.4153 99.1096 18.63C98.727 18.8353 98.419 19.1527 98.1856 19.582C97.9523 20.0113 97.8356 20.534 97.8356 21.15C97.8356 21.7753 97.9476 22.3027 98.1716 22.732C98.405 23.1613 98.713 23.4833 99.0956 23.698C99.4783 23.9033 99.8983 24.006 100.356 24.006ZM107.739 18.574C107.963 18.1353 108.28 17.7947 108.691 17.552C109.111 17.3093 109.619 17.188 110.217 17.188V18.504H109.881C108.453 18.504 107.739 19.2787 107.739 20.828V25H106.465V17.328H107.739V18.574ZM114.903 25.126C114.315 25.126 113.788 25.028 113.321 24.832C112.855 24.6267 112.486 24.3467 112.215 23.992C111.945 23.628 111.795 23.2127 111.767 22.746H113.083C113.121 23.1287 113.298 23.4413 113.615 23.684C113.942 23.9267 114.367 24.048 114.889 24.048C115.375 24.048 115.757 23.9407 116.037 23.726C116.317 23.5113 116.457 23.2407 116.457 22.914C116.457 22.578 116.308 22.3307 116.009 22.172C115.711 22.004 115.249 21.8407 114.623 21.682C114.054 21.5327 113.587 21.3833 113.223 21.234C112.869 21.0753 112.561 20.8467 112.299 20.548C112.047 20.24 111.921 19.8387 111.921 19.344C111.921 18.952 112.038 18.5927 112.271 18.266C112.505 17.9393 112.836 17.6827 113.265 17.496C113.695 17.3 114.185 17.202 114.735 17.202C115.585 17.202 116.271 17.4167 116.793 17.846C117.316 18.2753 117.596 18.8633 117.633 19.61H116.359C116.331 19.2087 116.168 18.8867 115.869 18.644C115.58 18.4013 115.188 18.28 114.693 18.28C114.236 18.28 113.872 18.378 113.601 18.574C113.331 18.77 113.195 19.0267 113.195 19.344C113.195 19.596 113.275 19.806 113.433 19.974C113.601 20.1327 113.807 20.2633 114.049 20.366C114.301 20.4593 114.647 20.5667 115.085 20.688C115.636 20.8373 116.084 20.9867 116.429 21.136C116.775 21.276 117.069 21.4907 117.311 21.78C117.563 22.0693 117.694 22.4473 117.703 22.914C117.703 23.334 117.587 23.712 117.353 24.048C117.12 24.384 116.789 24.65 116.359 24.846C115.939 25.0327 115.454 25.126 114.903 25.126Z" fill="black"/>
<path d="M14.7777 45.7884L12.9078 39.8801L6.99956 38.0102L17.8989 34.8891L14.7777 45.7884Z" fill="#A3FF2E" stroke="black" stroke-width="0.8" stroke-miterlimit="10"/>
</g>
<defs>
<filter id="filter0_d_351_84" x="0.613281" y="0" width="143.387" height="53.1745" filterUnits="userSpaceOnUse" color-interpolation-filters="sRGB">
<feFlood flood-opacity="0" result="BackgroundImageFix"/>
<feColorMatrix in="SourceAlpha" type="matrix" values="0 0 0 0 0 0 0 0 0 0 0 0 0 0 0 0 0 0 127 0" result="hardAlpha"/>
<feOffset dx="-1" dy="2"/>
<feGaussianBlur stdDeviation="2"/>
<feComposite in2="hardAlpha" operator="out"/>
<feColorMatrix type="matrix" values="0 0 0 0 0 0 0 0 0 0 0 0 0 0 0 0 0 0 0.3 0"/>
<feBlend mode="normal" in2="BackgroundImageFix" result="effect1_dropShadow_351_84"/>
<feBlend mode="normal" in="SourceGraphic" in2="effect1_dropShadow_351_84" result="shape"/>
</filter>
</defs>
</svg>
