<svg width="148" height="47" viewBox="0 0 148 47" fill="none" xmlns="http://www.w3.org/2000/svg">
<g filter="url(#filter0_d_351_97)">
<rect x="30.5" y="2.5" width="94" height="35" rx="17.5" fill="#FEDBFF"/>
<rect x="30.5" y="2.5" width="94" height="35" rx="17.5" stroke="#6F6F6F"/>
<path d="M60.584 15.242V16.278H57.924V25H56.65V16.278H53.976V15.242H60.584ZM69.4562 17.328V25H68.1822V23.866C67.9396 24.258 67.5989 24.566 67.1602 24.79C66.7309 25.0047 66.2549 25.112 65.7322 25.112C65.1349 25.112 64.5982 24.9907 64.1222 24.748C63.6462 24.496 63.2682 24.1227 62.9882 23.628C62.7176 23.1333 62.5822 22.5313 62.5822 21.822V17.328H63.8422V21.654C63.8422 22.41 64.0336 22.9933 64.4162 23.404C64.7989 23.8053 65.3216 24.006 65.9842 24.006C66.6656 24.006 67.2022 23.796 67.5942 23.376C67.9862 22.956 68.1822 22.3447 68.1822 21.542V17.328H69.4562ZM73.3813 18.742C73.6333 18.3033 74.0066 17.9393 74.5013 17.65C75.0053 17.3513 75.5886 17.202 76.2513 17.202C76.9326 17.202 77.5486 17.3653 78.0993 17.692C78.6593 18.0187 79.098 18.4807 79.4153 19.078C79.7326 19.666 79.8913 20.352 79.8913 21.136C79.8913 21.9107 79.7326 22.6013 79.4153 23.208C79.098 23.8147 78.6593 24.286 78.0993 24.622C77.5486 24.958 76.9326 25.126 76.2513 25.126C75.598 25.126 75.0193 24.9813 74.5153 24.692C74.0206 24.3933 73.6426 24.0247 73.3813 23.586V28.64H72.1073V17.328H73.3813V18.742ZM78.5893 21.136C78.5893 20.5573 78.4726 20.0533 78.2393 19.624C78.006 19.1947 77.6886 18.868 77.2873 18.644C76.8953 18.42 76.4613 18.308 75.9853 18.308C75.5186 18.308 75.0846 18.4247 74.6833 18.658C74.2913 18.882 73.974 19.2133 73.7313 19.652C73.498 20.0813 73.3813 20.5807 73.3813 21.15C73.3813 21.7287 73.498 22.2373 73.7313 22.676C73.974 23.1053 74.2913 23.4367 74.6833 23.67C75.0846 23.894 75.5186 24.006 75.9853 24.006C76.4613 24.006 76.8953 23.894 77.2873 23.67C77.6886 23.4367 78.006 23.1053 78.2393 22.676C78.4726 22.2373 78.5893 21.724 78.5893 21.136ZM83.3422 14.64V25H82.0682V14.64H83.3422ZM93.0135 20.87C93.0135 21.1127 92.9995 21.3693 92.9715 21.64H86.8395C86.8862 22.396 87.1429 22.9887 87.6095 23.418C88.0855 23.838 88.6595 24.048 89.3315 24.048C89.8822 24.048 90.3395 23.922 90.7035 23.67C91.0769 23.4087 91.3382 23.0633 91.4875 22.634H92.8595C92.6542 23.3713 92.2435 23.9733 91.6275 24.44C91.0115 24.8973 90.2462 25.126 89.3315 25.126C88.6035 25.126 87.9502 24.9627 87.3715 24.636C86.8022 24.3093 86.3542 23.8473 86.0275 23.25C85.7009 22.6433 85.5375 21.9433 85.5375 21.15C85.5375 20.3567 85.6962 19.6613 86.0135 19.064C86.3309 18.4667 86.7742 18.0093 87.3435 17.692C87.9222 17.3653 88.5849 17.202 89.3315 17.202C90.0595 17.202 90.7035 17.3607 91.2635 17.678C91.8235 17.9953 92.2529 18.434 92.5515 18.994C92.8595 19.5447 93.0135 20.17 93.0135 20.87ZM91.6975 20.604C91.6975 20.1187 91.5902 19.7033 91.3755 19.358C91.1609 19.0033 90.8669 18.7373 90.4935 18.56C90.1295 18.3733 89.7235 18.28 89.2755 18.28C88.6315 18.28 88.0809 18.4853 87.6235 18.896C87.1755 19.3067 86.9189 19.876 86.8535 20.604H91.6975ZM97.9112 25.126C97.3232 25.126 96.7959 25.028 96.3292 24.832C95.8625 24.6267 95.4939 24.3467 95.2232 23.992C94.9525 23.628 94.8032 23.2127 94.7752 22.746H96.0912C96.1285 23.1287 96.3059 23.4413 96.6232 23.684C96.9499 23.9267 97.3745 24.048 97.8972 24.048C98.3825 24.048 98.7652 23.9407 99.0452 23.726C99.3252 23.5113 99.4652 23.2407 99.4652 22.914C99.4652 22.578 99.3159 22.3307 99.0172 22.172C98.7185 22.004 98.2565 21.8407 97.6312 21.682C97.0619 21.5327 96.5952 21.3833 96.2312 21.234C95.8765 21.0753 95.5685 20.8467 95.3072 20.548C95.0552 20.24 94.9292 19.8387 94.9292 19.344C94.9292 18.952 95.0459 18.5927 95.2792 18.266C95.5125 17.9393 95.8439 17.6827 96.2732 17.496C96.7025 17.3 97.1925 17.202 97.7432 17.202C98.5925 17.202 99.2785 17.4167 99.8012 17.846C100.324 18.2753 100.604 18.8633 100.641 19.61H99.3672C99.3392 19.2087 99.1759 18.8867 98.8772 18.644C98.5879 18.4013 98.1959 18.28 97.7012 18.28C97.2439 18.28 96.8799 18.378 96.6092 18.574C96.3385 18.77 96.2032 19.0267 96.2032 19.344C96.2032 19.596 96.2825 19.806 96.4412 19.974C96.6092 20.1327 96.8145 20.2633 97.0572 20.366C97.3092 20.4593 97.6545 20.5667 98.0932 20.688C98.6439 20.8373 99.0919 20.9867 99.4372 21.136C99.7825 21.276 100.077 21.4907 100.319 21.78C100.571 22.0693 100.702 22.4473 100.711 22.914C100.711 23.334 100.595 23.712 100.361 24.048C100.128 24.384 99.7965 24.65 99.3672 24.846C98.9472 25.0327 98.4619 25.126 97.9112 25.126Z" fill="black"/>
<path d="M142.902 29.6273L137.809 33.1586L137.768 39.3556L131.567 29.8641L142.902 29.6273Z" fill="#A3FF2E" stroke="black" stroke-width="0.8" stroke-miterlimit="10"/>
<path d="M16.21 12.14C17.7647 12.14 19.1287 12.448 20.302 13.064C21.49 13.68 22.4067 14.538 23.052 15.638C23.712 16.738 24.042 17.9993 24.042 19.422C24.042 20.566 23.866 21.6513 23.514 22.678C23.1767 23.7047 22.6853 24.5407 22.04 25.186C21.3947 25.8167 20.632 26.132 19.752 26.132C19.048 26.132 18.52 25.9193 18.168 25.494C17.8307 25.054 17.6767 24.4747 17.706 23.756C17.266 24.504 16.6793 25.0907 15.946 25.516C15.2273 25.9267 14.4573 26.132 13.636 26.132C12.536 26.132 11.6707 25.7947 11.04 25.12C10.424 24.4453 10.116 23.536 10.116 22.392C10.116 21.3213 10.336 20.324 10.776 19.4C11.2307 18.4613 11.8613 17.7133 12.668 17.156C13.4747 16.584 14.384 16.298 15.396 16.298C16.188 16.298 16.848 16.4887 17.376 16.87C17.9187 17.2513 18.2853 17.8013 18.476 18.52L18.806 16.584H19.686L18.564 23.03C18.52 23.2647 18.498 23.4993 18.498 23.734C18.498 24.2473 18.6153 24.6507 18.85 24.944C19.0993 25.2373 19.4513 25.384 19.906 25.384C20.566 25.384 21.1453 25.0907 21.644 24.504C22.1427 23.9173 22.524 23.1767 22.788 22.282C23.052 21.3727 23.184 20.456 23.184 19.532C23.184 18.1827 22.8907 17.0093 22.304 16.012C21.732 15.0147 20.9107 14.2447 19.84 13.702C18.7693 13.1593 17.5153 12.888 16.078 12.888C14.3033 12.888 12.69 13.3353 11.238 14.23C9.786 15.11 8.642 16.3127 7.806 17.838C6.98467 19.3487 6.574 21.006 6.574 22.81C6.574 24.1887 6.86 25.3693 7.432 26.352C8.004 27.3493 8.818 28.112 9.874 28.64C10.9447 29.168 12.184 29.432 13.592 29.432C14.8973 29.432 16.1073 29.19 17.222 28.706L17.376 29.454C16.1293 29.9527 14.7947 30.202 13.372 30.202C11.8613 30.202 10.5267 29.9013 9.368 29.3C8.20933 28.7133 7.30733 27.87 6.662 26.77C6.01667 25.6847 5.694 24.4087 5.694 22.942C5.694 20.9327 6.14867 19.1067 7.058 17.464C7.96733 15.8213 9.22133 14.5233 10.82 13.57C12.4187 12.6167 14.2153 12.14 16.21 12.14ZM13.9 25.318C14.5747 25.318 15.2053 25.1493 15.792 24.812C16.3787 24.46 16.87 23.9613 17.266 23.316C17.6767 22.656 17.9407 21.886 18.058 21.006C18.1167 20.7127 18.146 20.4047 18.146 20.082C18.146 19.1873 17.904 18.4687 17.42 17.926C16.9507 17.3687 16.2613 17.09 15.352 17.09C14.5013 17.09 13.746 17.3393 13.086 17.838C12.4407 18.322 11.942 18.96 11.59 19.752C11.238 20.544 11.062 21.38 11.062 22.26C11.062 23.1987 11.3113 23.9467 11.81 24.504C12.3087 25.0467 13.0053 25.318 13.9 25.318Z" fill="black" fill-opacity="0.6"/>
</g>
<defs>
<filter id="filter0_d_351_97" x="0.693359" y="0" width="146.527" height="46.6856" filterUnits="userSpaceOnUse" color-interpolation-filters="sRGB">
<feFlood flood-opacity="0" result="BackgroundImageFix"/>
<feColorMatrix in="SourceAlpha" type="matrix" values="0 0 0 0 0 0 0 0 0 0 0 0 0 0 0 0 0 0 127 0" result="hardAlpha"/>
<feOffset dx="-1" dy="2"/>
<feGaussianBlur stdDeviation="2"/>
<feComposite in2="hardAlpha" operator="out"/>
<feColorMatrix type="matrix" values="0 0 0 0 0 0 0 0 0 0 0 0 0 0 0 0 0 0 0.3 0"/>
<feBlend mode="normal" in2="BackgroundImageFix" result="effect1_dropShadow_351_97"/>
<feBlend mode="normal" in="SourceGraphic" in2="effect1_dropShadow_351_97" result="shape"/>
</filter>
</defs>
</svg>
