<svg width="169" height="47" viewBox="0 0 169 47" fill="none" xmlns="http://www.w3.org/2000/svg">
<g filter="url(#filter0_d_351_97)">
<rect x="30.5" y="2.5" width="111" height="35" rx="17.5" fill="#FEDBFF"/>
<rect x="30.5" y="2.5" width="111" height="35" rx="17.5" stroke="#6F6F6F"/>
<path d="M49.616 15.242C50.68 15.242 51.5993 15.4427 52.374 15.844C53.158 16.236 53.7553 16.8007 54.166 17.538C54.586 18.2753 54.796 19.1433 54.796 20.142C54.796 21.1407 54.586 22.0087 54.166 22.746C53.7553 23.474 53.158 24.034 52.374 24.426C51.5993 24.8087 50.68 25 49.616 25H46.578V15.242H49.616ZM49.616 23.95C50.876 23.95 51.8373 23.6187 52.5 22.956C53.1627 22.284 53.494 21.346 53.494 20.142C53.494 18.9287 53.158 17.9813 52.486 17.3C51.8233 16.6187 50.8667 16.278 49.616 16.278H47.852V23.95H49.616ZM56.5004 21.136C56.5004 20.352 56.6591 19.666 56.9764 19.078C57.2938 18.4807 57.7278 18.0187 58.2784 17.692C58.8384 17.3653 59.4591 17.202 60.1404 17.202C60.8124 17.202 61.3958 17.3467 61.8904 17.636C62.3851 17.9253 62.7538 18.2893 62.9964 18.728V17.328H64.2844V25H62.9964V23.572C62.7444 24.02 62.3664 24.3933 61.8624 24.692C61.3678 24.9813 60.7891 25.126 60.1264 25.126C59.4451 25.126 58.8291 24.958 58.2784 24.622C57.7278 24.286 57.2938 23.8147 56.9764 23.208C56.6591 22.6013 56.5004 21.9107 56.5004 21.136ZM62.9964 21.15C62.9964 20.5713 62.8798 20.0673 62.6464 19.638C62.4131 19.2087 62.0958 18.882 61.6944 18.658C61.3024 18.4247 60.8684 18.308 60.3924 18.308C59.9164 18.308 59.4824 18.42 59.0904 18.644C58.6984 18.868 58.3858 19.1947 58.1524 19.624C57.9191 20.0533 57.8024 20.5573 57.8024 21.136C57.8024 21.724 57.9191 22.2373 58.1524 22.676C58.3858 23.1053 58.6984 23.4367 59.0904 23.67C59.4824 23.894 59.9164 24.006 60.3924 24.006C60.8684 24.006 61.3024 23.894 61.6944 23.67C62.0958 23.4367 62.4131 23.1053 62.6464 22.676C62.8798 22.2373 62.9964 21.7287 62.9964 21.15ZM68.4914 18.378V22.9C68.4914 23.2733 68.5707 23.5393 68.7294 23.698C68.888 23.8473 69.1634 23.922 69.5554 23.922H70.4934V25H69.3454C68.636 25 68.104 24.8367 67.7494 24.51C67.3947 24.1833 67.2174 23.6467 67.2174 22.9V18.378H66.2234V17.328H67.2174V15.396H68.4914V17.328H70.4934V18.378H68.4914ZM72.061 21.136C72.061 20.352 72.2197 19.666 72.537 19.078C72.8543 18.4807 73.2883 18.0187 73.839 17.692C74.399 17.3653 75.0197 17.202 75.701 17.202C76.373 17.202 76.9563 17.3467 77.451 17.636C77.9457 17.9253 78.3143 18.2893 78.557 18.728V17.328H79.845V25H78.557V23.572C78.305 24.02 77.927 24.3933 77.423 24.692C76.9283 24.9813 76.3497 25.126 75.687 25.126C75.0057 25.126 74.3897 24.958 73.839 24.622C73.2883 24.286 72.8543 23.8147 72.537 23.208C72.2197 22.6013 72.061 21.9107 72.061 21.136ZM78.557 21.15C78.557 20.5713 78.4403 20.0673 78.207 19.638C77.9737 19.2087 77.6563 18.882 77.255 18.658C76.863 18.4247 76.429 18.308 75.953 18.308C75.477 18.308 75.043 18.42 74.651 18.644C74.259 18.868 73.9463 19.1947 73.713 19.624C73.4797 20.0533 73.363 20.5573 73.363 21.136C73.363 21.724 73.4797 22.2373 73.713 22.676C73.9463 23.1053 74.259 23.4367 74.651 23.67C75.043 23.894 75.477 24.006 75.953 24.006C76.429 24.006 76.863 23.894 77.255 23.67C77.6563 23.4367 77.9737 23.1053 78.207 22.676C78.4403 22.2373 78.557 21.7287 78.557 21.15ZM88.2843 18.378V22.9C88.2843 23.2733 88.3637 23.5393 88.5223 23.698C88.681 23.8473 88.9563 23.922 89.3483 23.922H90.2863V25H89.1383C88.429 25 87.897 24.8367 87.5423 24.51C87.1877 24.1833 87.0103 23.6467 87.0103 22.9V18.378H86.0163V17.328H87.0103V15.396H88.2843V17.328H90.2863V18.378H88.2843ZM98.938 17.328L94.318 28.612H93.002L94.514 24.916L91.42 17.328H92.834L95.242 23.544L97.622 17.328H98.938ZM101.993 18.742C102.245 18.3033 102.618 17.9393 103.113 17.65C103.617 17.3513 104.2 17.202 104.863 17.202C105.544 17.202 106.16 17.3653 106.711 17.692C107.271 18.0187 107.709 18.4807 108.027 19.078C108.344 19.666 108.503 20.352 108.503 21.136C108.503 21.9107 108.344 22.6013 108.027 23.208C107.709 23.8147 107.271 24.286 106.711 24.622C106.16 24.958 105.544 25.126 104.863 25.126C104.209 25.126 103.631 24.9813 103.127 24.692C102.632 24.3933 102.254 24.0247 101.993 23.586V28.64H100.719V17.328H101.993V18.742ZM107.201 21.136C107.201 20.5573 107.084 20.0533 106.851 19.624C106.617 19.1947 106.3 18.868 105.899 18.644C105.507 18.42 105.073 18.308 104.597 18.308C104.13 18.308 103.696 18.4247 103.295 18.658C102.903 18.882 102.585 19.2133 102.343 19.652C102.109 20.0813 101.993 20.5807 101.993 21.15C101.993 21.7287 102.109 22.2373 102.343 22.676C102.585 23.1053 102.903 23.4367 103.295 23.67C103.696 23.894 104.13 24.006 104.597 24.006C105.073 24.006 105.507 23.894 105.899 23.67C106.3 23.4367 106.617 23.1053 106.851 22.676C107.084 22.2373 107.201 21.724 107.201 21.136ZM117.68 20.87C117.68 21.1127 117.666 21.3693 117.638 21.64H111.506C111.552 22.396 111.809 22.9887 112.276 23.418C112.752 23.838 113.326 24.048 113.998 24.048C114.548 24.048 115.006 23.922 115.37 23.67C115.743 23.4087 116.004 23.0633 116.154 22.634H117.526C117.32 23.3713 116.91 23.9733 116.294 24.44C115.678 24.8973 114.912 25.126 113.998 25.126C113.27 25.126 112.616 24.9627 112.038 24.636C111.468 24.3093 111.02 23.8473 110.694 23.25C110.367 22.6433 110.204 21.9433 110.204 21.15C110.204 20.3567 110.362 19.6613 110.68 19.064C110.997 18.4667 111.44 18.0093 112.01 17.692C112.588 17.3653 113.251 17.202 113.998 17.202C114.726 17.202 115.37 17.3607 115.93 17.678C116.49 17.9953 116.919 18.434 117.218 18.994C117.526 19.5447 117.68 20.17 117.68 20.87ZM116.364 20.604C116.364 20.1187 116.256 19.7033 116.042 19.358C115.827 19.0033 115.533 18.7373 115.16 18.56C114.796 18.3733 114.39 18.28 113.942 18.28C113.298 18.28 112.747 18.4853 112.29 18.896C111.842 19.3067 111.585 19.876 111.52 20.604H116.364ZM122.577 25.126C121.989 25.126 121.462 25.028 120.995 24.832C120.529 24.6267 120.16 24.3467 119.889 23.992C119.619 23.628 119.469 23.2127 119.441 22.746H120.757C120.795 23.1287 120.972 23.4413 121.289 23.684C121.616 23.9267 122.041 24.048 122.563 24.048C123.049 24.048 123.431 23.9407 123.711 23.726C123.991 23.5113 124.131 23.2407 124.131 22.914C124.131 22.578 123.982 22.3307 123.683 22.172C123.385 22.004 122.923 21.8407 122.297 21.682C121.728 21.5327 121.261 21.3833 120.897 21.234C120.543 21.0753 120.235 20.8467 119.973 20.548C119.721 20.24 119.595 19.8387 119.595 19.344C119.595 18.952 119.712 18.5927 119.945 18.266C120.179 17.9393 120.51 17.6827 120.939 17.496C121.369 17.3 121.859 17.202 122.409 17.202C123.259 17.202 123.945 17.4167 124.467 17.846C124.99 18.2753 125.27 18.8633 125.307 19.61H124.033C124.005 19.2087 123.842 18.8867 123.543 18.644C123.254 18.4013 122.862 18.28 122.367 18.28C121.91 18.28 121.546 18.378 121.275 18.574C121.005 18.77 120.869 19.0267 120.869 19.344C120.869 19.596 120.949 19.806 121.107 19.974C121.275 20.1327 121.481 20.2633 121.723 20.366C121.975 20.4593 122.321 20.5667 122.759 20.688C123.31 20.8373 123.758 20.9867 124.103 21.136C124.449 21.276 124.743 21.4907 124.985 21.78C125.237 22.0693 125.368 22.4473 125.377 22.914C125.377 23.334 125.261 23.712 125.027 24.048C124.794 24.384 124.463 24.65 124.033 24.846C123.613 25.0327 123.128 25.126 122.577 25.126Z" fill="black"/>
<path d="M163.902 29.8437L158.809 33.375L158.768 39.572L152.567 30.0805L163.902 29.8437Z" fill="#A3FF2E" stroke="black" stroke-width="0.8" stroke-miterlimit="10"/>
<path d="M16.21 12.14C17.7647 12.14 19.1287 12.448 20.302 13.064C21.49 13.68 22.4067 14.538 23.052 15.638C23.712 16.738 24.042 17.9993 24.042 19.422C24.042 20.566 23.866 21.6513 23.514 22.678C23.1767 23.7047 22.6853 24.5407 22.04 25.186C21.3947 25.8167 20.632 26.132 19.752 26.132C19.048 26.132 18.52 25.9193 18.168 25.494C17.8307 25.054 17.6767 24.4747 17.706 23.756C17.266 24.504 16.6793 25.0907 15.946 25.516C15.2273 25.9267 14.4573 26.132 13.636 26.132C12.536 26.132 11.6707 25.7947 11.04 25.12C10.424 24.4453 10.116 23.536 10.116 22.392C10.116 21.3213 10.336 20.324 10.776 19.4C11.2307 18.4613 11.8613 17.7133 12.668 17.156C13.4747 16.584 14.384 16.298 15.396 16.298C16.188 16.298 16.848 16.4887 17.376 16.87C17.9187 17.2513 18.2853 17.8013 18.476 18.52L18.806 16.584H19.686L18.564 23.03C18.52 23.2647 18.498 23.4993 18.498 23.734C18.498 24.2473 18.6153 24.6507 18.85 24.944C19.0993 25.2373 19.4513 25.384 19.906 25.384C20.566 25.384 21.1453 25.0907 21.644 24.504C22.1427 23.9173 22.524 23.1767 22.788 22.282C23.052 21.3727 23.184 20.456 23.184 19.532C23.184 18.1827 22.8907 17.0093 22.304 16.012C21.732 15.0147 20.9107 14.2447 19.84 13.702C18.7693 13.1593 17.5153 12.888 16.078 12.888C14.3033 12.888 12.69 13.3353 11.238 14.23C9.786 15.11 8.642 16.3127 7.806 17.838C6.98467 19.3487 6.574 21.006 6.574 22.81C6.574 24.1887 6.86 25.3693 7.432 26.352C8.004 27.3493 8.818 28.112 9.874 28.64C10.9447 29.168 12.184 29.432 13.592 29.432C14.8973 29.432 16.1073 29.19 17.222 28.706L17.376 29.454C16.1293 29.9527 14.7947 30.202 13.372 30.202C11.8613 30.202 10.5267 29.9013 9.368 29.3C8.20933 28.7133 7.30733 27.87 6.662 26.77C6.01667 25.6847 5.694 24.4087 5.694 22.942C5.694 20.9327 6.14867 19.1067 7.058 17.464C7.96733 15.8213 9.22133 14.5233 10.82 13.57C12.4187 12.6167 14.2153 12.14 16.21 12.14ZM13.9 25.318C14.5747 25.318 15.2053 25.1493 15.792 24.812C16.3787 24.46 16.87 23.9613 17.266 23.316C17.6767 22.656 17.9407 21.886 18.058 21.006C18.1167 20.7127 18.146 20.4047 18.146 20.082C18.146 19.1873 17.904 18.4687 17.42 17.926C16.9507 17.3687 16.2613 17.09 15.352 17.09C14.5013 17.09 13.746 17.3393 13.086 17.838C12.4407 18.322 11.942 18.96 11.59 19.752C11.238 20.544 11.062 21.38 11.062 22.26C11.062 23.1987 11.3113 23.9467 11.81 24.504C12.3087 25.0467 13.0053 25.318 13.9 25.318Z" fill="black" fill-opacity="0.6"/>
</g>
<defs>
<filter id="filter0_d_351_97" x="0.693359" y="0" width="167.527" height="46.9019" filterUnits="userSpaceOnUse" color-interpolation-filters="sRGB">
<feFlood flood-opacity="0" result="BackgroundImageFix"/>
<feColorMatrix in="SourceAlpha" type="matrix" values="0 0 0 0 0 0 0 0 0 0 0 0 0 0 0 0 0 0 127 0" result="hardAlpha"/>
<feOffset dx="-1" dy="2"/>
<feGaussianBlur stdDeviation="2"/>
<feComposite in2="hardAlpha" operator="out"/>
<feColorMatrix type="matrix" values="0 0 0 0 0 0 0 0 0 0 0 0 0 0 0 0 0 0 0.3 0"/>
<feBlend mode="normal" in2="BackgroundImageFix" result="effect1_dropShadow_351_97"/>
<feBlend mode="normal" in="SourceGraphic" in2="effect1_dropShadow_351_97" result="shape"/>
</filter>
</defs>
</svg>
