<svg width="111" height="56" viewBox="0 0 111 56" fill="none" xmlns="http://www.w3.org/2000/svg">
<g filter="url(#filter0_d_351_88)">
<rect x="4.5" y="0.5" width="87" height="35" rx="17.5" fill="#FFF7B1"/>
<rect x="4.5" y="0.5" width="87" height="35" rx="17.5" stroke="#6F6F6F"/>
<path d="M33.502 23.098C32.5967 23.098 31.7707 22.888 31.024 22.468C30.2773 22.0387 29.6847 21.446 29.246 20.69C28.8167 19.9247 28.602 19.066 28.602 18.114C28.602 17.162 28.8167 16.308 29.246 15.552C29.6847 14.7867 30.2773 14.194 31.024 13.774C31.7707 13.3447 32.5967 13.13 33.502 13.13C34.4167 13.13 35.2473 13.3447 35.994 13.774C36.7407 14.194 37.3287 14.782 37.758 15.538C38.1873 16.294 38.402 17.1527 38.402 18.114C38.402 19.0753 38.1873 19.934 37.758 20.69C37.3287 21.446 36.7407 22.0387 35.994 22.468C35.2473 22.888 34.4167 23.098 33.502 23.098ZM33.502 21.992C34.1833 21.992 34.7947 21.8333 35.336 21.516C35.8867 21.1987 36.316 20.746 36.624 20.158C36.9413 19.57 37.1 18.8887 37.1 18.114C37.1 17.33 36.9413 16.6487 36.624 16.07C36.316 15.482 35.8913 15.0293 35.35 14.712C34.8087 14.3947 34.1927 14.236 33.502 14.236C32.8113 14.236 32.1953 14.3947 31.654 14.712C31.1127 15.0293 30.6833 15.482 30.366 16.07C30.058 16.6487 29.904 17.33 29.904 18.114C29.904 18.8887 30.058 19.57 30.366 20.158C30.6833 20.746 31.1127 21.1987 31.654 21.516C32.2047 21.8333 32.8207 21.992 33.502 21.992ZM45.0079 23.098C44.1025 23.098 43.2765 22.888 42.5299 22.468C41.7832 22.0387 41.1905 21.446 40.7519 20.69C40.3225 19.9247 40.1079 19.066 40.1079 18.114C40.1079 17.162 40.3225 16.308 40.7519 15.552C41.1905 14.7867 41.7832 14.194 42.5299 13.774C43.2765 13.3447 44.1025 13.13 45.0079 13.13C45.9225 13.13 46.7532 13.3447 47.4999 13.774C48.2465 14.194 48.8345 14.782 49.2639 15.538C49.6932 16.294 49.9079 17.1527 49.9079 18.114C49.9079 19.0753 49.6932 19.934 49.2639 20.69C48.8345 21.446 48.2465 22.0387 47.4999 22.468C46.7532 22.888 45.9225 23.098 45.0079 23.098ZM45.0079 21.992C45.6892 21.992 46.3005 21.8333 46.8419 21.516C47.3925 21.1987 47.8219 20.746 48.1299 20.158C48.4472 19.57 48.6059 18.8887 48.6059 18.114C48.6059 17.33 48.4472 16.6487 48.1299 16.07C47.8219 15.482 47.3972 15.0293 46.8559 14.712C46.3145 14.3947 45.6985 14.236 45.0079 14.236C44.3172 14.236 43.7012 14.3947 43.1599 14.712C42.6185 15.0293 42.1892 15.482 41.8719 16.07C41.5639 16.6487 41.4099 17.33 41.4099 18.114C41.4099 18.8887 41.5639 19.57 41.8719 20.158C42.1892 20.746 42.6185 21.1987 43.1599 21.516C43.7105 21.8333 44.3265 21.992 45.0079 21.992ZM58.6137 16.098C58.6137 16.91 58.3337 17.5867 57.7737 18.128C57.2231 18.66 56.3784 18.926 55.2397 18.926H53.3637V23H52.0897V13.242H55.2397C56.3411 13.242 57.1764 13.508 57.7457 14.04C58.3244 14.572 58.6137 15.258 58.6137 16.098ZM55.2397 17.876C55.9491 17.876 56.4717 17.722 56.8077 17.414C57.1437 17.106 57.3117 16.6673 57.3117 16.098C57.3117 14.894 56.6211 14.292 55.2397 14.292H53.3637V17.876H55.2397ZM63.7911 23.098C63.1471 23.098 62.5685 22.986 62.0551 22.762C61.5511 22.5287 61.1545 22.2113 60.8651 21.81C60.5758 21.3993 60.4265 20.928 60.4171 20.396H61.7751C61.8218 20.8533 62.0085 21.2407 62.3351 21.558C62.6711 21.866 63.1565 22.02 63.7911 22.02C64.3978 22.02 64.8738 21.8707 65.2191 21.572C65.5738 21.264 65.7511 20.872 65.7511 20.396C65.7511 20.0227 65.6485 19.7193 65.4431 19.486C65.2378 19.2527 64.9811 19.0753 64.6731 18.954C64.3651 18.8327 63.9498 18.702 63.4271 18.562C62.7831 18.394 62.2651 18.226 61.8731 18.058C61.4905 17.89 61.1591 17.6287 60.8791 17.274C60.6085 16.91 60.4731 16.4247 60.4731 15.818C60.4731 15.286 60.6085 14.8147 60.8791 14.404C61.1498 13.9933 61.5278 13.676 62.0131 13.452C62.5078 13.228 63.0725 13.116 63.7071 13.116C64.6218 13.116 65.3685 13.3447 65.9471 13.802C66.5351 14.2593 66.8665 14.866 66.9411 15.622H65.5411C65.4945 15.2487 65.2985 14.922 64.9531 14.642C64.6078 14.3527 64.1505 14.208 63.5811 14.208C63.0491 14.208 62.6151 14.348 62.2791 14.628C61.9431 14.8987 61.7751 15.2813 61.7751 15.776C61.7751 16.1307 61.8731 16.42 62.0691 16.644C62.2745 16.868 62.5218 17.0407 62.8111 17.162C63.1098 17.274 63.5251 17.4047 64.0571 17.554C64.7011 17.7313 65.2191 17.9087 65.6111 18.086C66.0031 18.254 66.3391 18.52 66.6191 18.884C66.8991 19.2387 67.0391 19.724 67.0391 20.34C67.0391 20.816 66.9131 21.264 66.6611 21.684C66.4091 22.104 66.0358 22.4447 65.5411 22.706C65.0465 22.9673 64.4631 23.098 63.7911 23.098Z" fill="black"/>
<path d="M104.679 40.1759L98.5279 40.9317L95.6072 46.3974L94.5358 35.1107L104.679 40.1759Z" fill="#A3FF2E" stroke="black" stroke-width="0.8" stroke-miterlimit="10"/>
</g>
<defs>
<filter id="filter0_d_351_88" x="0" y="0" width="110.045" height="55.7565" filterUnits="userSpaceOnUse" color-interpolation-filters="sRGB">
<feFlood flood-opacity="0" result="BackgroundImageFix"/>
<feColorMatrix in="SourceAlpha" type="matrix" values="0 0 0 0 0 0 0 0 0 0 0 0 0 0 0 0 0 0 127 0" result="hardAlpha"/>
<feOffset dy="4"/>
<feGaussianBlur stdDeviation="2"/>
<feComposite in2="hardAlpha" operator="out"/>
<feColorMatrix type="matrix" values="0 0 0 0 0 0 0 0 0 0 0 0 0 0 0 0 0 0 0.25 0"/>
<feBlend mode="normal" in2="BackgroundImageFix" result="effect1_dropShadow_351_88"/>
<feBlend mode="normal" in="SourceGraphic" in2="effect1_dropShadow_351_88" result="shape"/>
</filter>
</defs>
</svg>
