<svg width="166" height="54" viewBox="0 0 166 54" fill="none" xmlns="http://www.w3.org/2000/svg">
<g filter="url(#filter0_d_351_84)">
<rect x="22.5" y="2.5" width="140" height="35" rx="17.5" fill="#DCFFC7"/>
<rect x="22.5" y="2.5" width="140" height="35" rx="17.5" stroke="#6F6F6F"/>
<path d="M48.602 18.098C48.602 18.91 48.322 19.5867 47.762 20.128C47.2113 20.66 46.3667 20.926 45.228 20.926H43.352V25H42.078V15.242H45.228C46.3293 15.242 47.1647 15.508 47.734 16.04C48.3127 16.572 48.602 17.258 48.602 18.098ZM45.228 19.876C45.9373 19.876 46.46 19.722 46.796 19.414C47.132 19.106 47.3 18.6673 47.3 18.098C47.3 16.894 46.6093 16.292 45.228 16.292H43.352V19.876H45.228ZM51.9594 18.574C52.1834 18.1353 52.5008 17.7947 52.9114 17.552C53.3314 17.3093 53.8401 17.188 54.4374 17.188V18.504H54.1014C52.6734 18.504 51.9594 19.2787 51.9594 20.828V25H50.6854V17.328H51.9594V18.574ZM59.7541 25.126C59.0354 25.126 58.3821 24.9627 57.7941 24.636C57.2154 24.3093 56.7581 23.8473 56.4221 23.25C56.0954 22.6433 55.9321 21.9433 55.9321 21.15C55.9321 20.366 56.1001 19.6753 56.4361 19.078C56.7814 18.4713 57.2481 18.0093 57.8361 17.692C58.4241 17.3653 59.0821 17.202 59.8101 17.202C60.5381 17.202 61.1961 17.3653 61.7841 17.692C62.3721 18.0093 62.8341 18.4667 63.1701 19.064C63.5154 19.6613 63.6881 20.3567 63.6881 21.15C63.6881 21.9433 63.5107 22.6433 63.1561 23.25C62.8107 23.8473 62.3394 24.3093 61.7421 24.636C61.1447 24.9627 60.4821 25.126 59.7541 25.126ZM59.7541 24.006C60.2114 24.006 60.6407 23.8987 61.0421 23.684C61.4434 23.4693 61.7654 23.1473 62.0081 22.718C62.2601 22.2887 62.3861 21.766 62.3861 21.15C62.3861 20.534 62.2647 20.0113 62.0221 19.582C61.7794 19.1527 61.4621 18.8353 61.0701 18.63C60.6781 18.4153 60.2534 18.308 59.7961 18.308C59.3294 18.308 58.9001 18.4153 58.5081 18.63C58.1254 18.8353 57.8174 19.1527 57.5841 19.582C57.3507 20.0113 57.2341 20.534 57.2341 21.15C57.2341 21.7753 57.3461 22.3027 57.5701 22.732C57.8034 23.1613 58.1114 23.4833 58.4941 23.698C58.8767 23.9033 59.2967 24.006 59.7541 24.006ZM69.0272 17.202C69.6898 17.202 70.2685 17.3467 70.7632 17.636C71.2672 17.9253 71.6405 18.2893 71.8832 18.728V17.328H73.1712V25.168C73.1712 25.868 73.0218 26.4887 72.7232 27.03C72.4245 27.5807 71.9952 28.01 71.4352 28.318C70.8845 28.626 70.2405 28.78 69.5032 28.78C68.4952 28.78 67.6552 28.542 66.9832 28.066C66.3112 27.59 65.9145 26.9413 65.7932 26.12H67.0532C67.1932 26.5867 67.4825 26.96 67.9212 27.24C68.3598 27.5293 68.8872 27.674 69.5032 27.674C70.2032 27.674 70.7725 27.4547 71.2112 27.016C71.6592 26.5773 71.8832 25.9613 71.8832 25.168V23.558C71.6312 24.006 71.2578 24.3793 70.7632 24.678C70.2685 24.9767 69.6898 25.126 69.0272 25.126C68.3458 25.126 67.7252 24.958 67.1652 24.622C66.6145 24.286 66.1805 23.8147 65.8632 23.208C65.5458 22.6013 65.3872 21.9107 65.3872 21.136C65.3872 20.352 65.5458 19.666 65.8632 19.078C66.1805 18.4807 66.6145 18.0187 67.1652 17.692C67.7252 17.3653 68.3458 17.202 69.0272 17.202ZM71.8832 21.15C71.8832 20.5713 71.7665 20.0673 71.5332 19.638C71.2998 19.2087 70.9825 18.882 70.5812 18.658C70.1892 18.4247 69.7552 18.308 69.2792 18.308C68.8032 18.308 68.3692 18.42 67.9772 18.644C67.5852 18.868 67.2725 19.1947 67.0392 19.624C66.8058 20.0533 66.6892 20.5573 66.6892 21.136C66.6892 21.724 66.8058 22.2373 67.0392 22.676C67.2725 23.1053 67.5852 23.4367 67.9772 23.67C68.3692 23.894 68.8032 24.006 69.2792 24.006C69.7552 24.006 70.1892 23.894 70.5812 23.67C70.9825 23.4367 71.2998 23.1053 71.5332 22.676C71.7665 22.2373 71.8832 21.7287 71.8832 21.15ZM77.0981 18.574C77.3221 18.1353 77.6394 17.7947 78.0501 17.552C78.4701 17.3093 78.9788 17.188 79.5761 17.188V18.504H79.2401C77.8121 18.504 77.0981 19.2787 77.0981 20.828V25H75.8241V17.328H77.0981V18.574ZM81.0708 21.136C81.0708 20.352 81.2294 19.666 81.5468 19.078C81.8641 18.4807 82.2981 18.0187 82.8488 17.692C83.4088 17.3653 84.0294 17.202 84.7108 17.202C85.3828 17.202 85.9661 17.3467 86.4608 17.636C86.9554 17.9253 87.3241 18.2893 87.5668 18.728V17.328H88.8548V25H87.5668V23.572C87.3148 24.02 86.9368 24.3933 86.4328 24.692C85.9381 24.9813 85.3594 25.126 84.6968 25.126C84.0154 25.126 83.3994 24.958 82.8488 24.622C82.2981 24.286 81.8641 23.8147 81.5468 23.208C81.2294 22.6013 81.0708 21.9107 81.0708 21.136ZM87.5668 21.15C87.5668 20.5713 87.4501 20.0673 87.2168 19.638C86.9834 19.2087 86.6661 18.882 86.2648 18.658C85.8728 18.4247 85.4388 18.308 84.9628 18.308C84.4868 18.308 84.0528 18.42 83.6608 18.644C83.2688 18.868 82.9561 19.1947 82.7228 19.624C82.4894 20.0533 82.3728 20.5573 82.3728 21.136C82.3728 21.724 82.4894 22.2373 82.7228 22.676C82.9561 23.1053 83.2688 23.4367 83.6608 23.67C84.0528 23.894 84.4868 24.006 84.9628 24.006C85.4388 24.006 85.8728 23.894 86.2648 23.67C86.6661 23.4367 86.9834 23.1053 87.2168 22.676C87.4501 22.2373 87.5668 21.7287 87.5668 21.15ZM100.734 17.188C101.331 17.188 101.863 17.314 102.33 17.566C102.796 17.8087 103.165 18.1773 103.436 18.672C103.706 19.1667 103.842 19.7687 103.842 20.478V25H102.582V20.66C102.582 19.8947 102.39 19.3113 102.008 18.91C101.634 18.4993 101.126 18.294 100.482 18.294C99.819 18.294 99.2917 18.5087 98.8997 18.938C98.5077 19.358 98.3117 19.9693 98.3117 20.772V25H97.0517V20.66C97.0517 19.8947 96.8604 19.3113 96.4777 18.91C96.1044 18.4993 95.5957 18.294 94.9517 18.294C94.289 18.294 93.7617 18.5087 93.3697 18.938C92.9777 19.358 92.7817 19.9693 92.7817 20.772V25H91.5077V17.328H92.7817V18.434C93.0337 18.0327 93.3697 17.7247 93.7897 17.51C94.219 17.2953 94.6904 17.188 95.2037 17.188C95.8477 17.188 96.417 17.3327 96.9117 17.622C97.4064 17.9113 97.775 18.336 98.0177 18.896C98.2324 18.3547 98.587 17.9347 99.0817 17.636C99.5764 17.3373 100.127 17.188 100.734 17.188ZM115.658 17.188C116.255 17.188 116.787 17.314 117.254 17.566C117.72 17.8087 118.089 18.1773 118.36 18.672C118.63 19.1667 118.766 19.7687 118.766 20.478V25H117.506V20.66C117.506 19.8947 117.314 19.3113 116.932 18.91C116.558 18.4993 116.05 18.294 115.406 18.294C114.743 18.294 114.216 18.5087 113.824 18.938C113.432 19.358 113.236 19.9693 113.236 20.772V25H111.976V20.66C111.976 19.8947 111.784 19.3113 111.402 18.91C111.028 18.4993 110.52 18.294 109.876 18.294C109.213 18.294 108.686 18.5087 108.294 18.938C107.902 19.358 107.706 19.9693 107.706 20.772V25H106.432V17.328H107.706V18.434C107.958 18.0327 108.294 17.7247 108.714 17.51C109.143 17.2953 109.614 17.188 110.128 17.188C110.772 17.188 111.341 17.3327 111.836 17.622C112.33 17.9113 112.699 18.336 112.942 18.896C113.156 18.3547 113.511 17.9347 114.006 17.636C114.5 17.3373 115.051 17.188 115.658 17.188ZM122.013 16.082C121.771 16.082 121.565 15.998 121.397 15.83C121.229 15.662 121.145 15.4567 121.145 15.214C121.145 14.9713 121.229 14.766 121.397 14.598C121.565 14.43 121.771 14.346 122.013 14.346C122.247 14.346 122.443 14.43 122.601 14.598C122.769 14.766 122.853 14.9713 122.853 15.214C122.853 15.4567 122.769 15.662 122.601 15.83C122.443 15.998 122.247 16.082 122.013 16.082ZM122.629 17.328V25H121.355V17.328H122.629ZM129.039 17.188C129.972 17.188 130.728 17.4727 131.307 18.042C131.885 18.602 132.175 19.414 132.175 20.478V25H130.915V20.66C130.915 19.8947 130.723 19.3113 130.341 18.91C129.958 18.4993 129.435 18.294 128.773 18.294C128.101 18.294 127.564 18.504 127.163 18.924C126.771 19.344 126.575 19.9553 126.575 20.758V25H125.301V17.328H126.575V18.42C126.827 18.028 127.167 17.7247 127.597 17.51C128.035 17.2953 128.516 17.188 129.039 17.188ZM137.92 17.202C138.582 17.202 139.161 17.3467 139.656 17.636C140.16 17.9253 140.533 18.2893 140.776 18.728V17.328H142.064V25.168C142.064 25.868 141.914 26.4887 141.616 27.03C141.317 27.5807 140.888 28.01 140.328 28.318C139.777 28.626 139.133 28.78 138.396 28.78C137.388 28.78 136.548 28.542 135.876 28.066C135.204 27.59 134.807 26.9413 134.686 26.12H135.946C136.086 26.5867 136.375 26.96 136.814 27.24C137.252 27.5293 137.78 27.674 138.396 27.674C139.096 27.674 139.665 27.4547 140.104 27.016C140.552 26.5773 140.776 25.9613 140.776 25.168V23.558C140.524 24.006 140.15 24.3793 139.656 24.678C139.161 24.9767 138.582 25.126 137.92 25.126C137.238 25.126 136.618 24.958 136.058 24.622C135.507 24.286 135.073 23.8147 134.756 23.208C134.438 22.6013 134.28 21.9107 134.28 21.136C134.28 20.352 134.438 19.666 134.756 19.078C135.073 18.4807 135.507 18.0187 136.058 17.692C136.618 17.3653 137.238 17.202 137.92 17.202ZM140.776 21.15C140.776 20.5713 140.659 20.0673 140.426 19.638C140.192 19.2087 139.875 18.882 139.474 18.658C139.082 18.4247 138.648 18.308 138.172 18.308C137.696 18.308 137.262 18.42 136.87 18.644C136.478 18.868 136.165 19.1947 135.932 19.624C135.698 20.0533 135.582 20.5573 135.582 21.136C135.582 21.724 135.698 22.2373 135.932 22.676C136.165 23.1053 136.478 23.4367 136.87 23.67C137.262 23.894 137.696 24.006 138.172 24.006C138.648 24.006 139.082 23.894 139.474 23.67C139.875 23.4367 140.192 23.1053 140.426 22.676C140.659 22.2373 140.776 21.7287 140.776 21.15Z" fill="black"/>
<path d="M14.7777 45.7884L12.9078 39.8801L6.99956 38.0102L17.8989 34.8891L14.7777 45.7884Z" fill="#A3FF2E" stroke="black" stroke-width="0.8" stroke-miterlimit="10"/>
</g>
<defs>
<filter id="filter0_d_351_84" x="0.613281" y="0" width="165.387" height="53.1745" filterUnits="userSpaceOnUse" color-interpolation-filters="sRGB">
<feFlood flood-opacity="0" result="BackgroundImageFix"/>
<feColorMatrix in="SourceAlpha" type="matrix" values="0 0 0 0 0 0 0 0 0 0 0 0 0 0 0 0 0 0 127 0" result="hardAlpha"/>
<feOffset dx="-1" dy="2"/>
<feGaussianBlur stdDeviation="2"/>
<feComposite in2="hardAlpha" operator="out"/>
<feColorMatrix type="matrix" values="0 0 0 0 0 0 0 0 0 0 0 0 0 0 0 0 0 0 0.3 0"/>
<feBlend mode="normal" in2="BackgroundImageFix" result="effect1_dropShadow_351_84"/>
<feBlend mode="normal" in="SourceGraphic" in2="effect1_dropShadow_351_84" result="shape"/>
</filter>
</defs>
</svg>
