<svg width="176" height="46" viewBox="0 0 176 46" fill="none" xmlns="http://www.w3.org/2000/svg">
<g filter="url(#filter0_d_351_97)">
<rect x="30.5" y="2.5" width="122" height="35" rx="17.5" fill="#FEDBFF"/>
<rect x="30.5" y="2.5" width="122" height="35" rx="17.5" stroke="#6F6F6F"/>
<path d="M51.102 20.114C51.102 19.162 51.3167 18.308 51.746 17.552C52.1753 16.7867 52.7587 16.1893 53.496 15.76C54.2427 15.3307 55.0687 15.116 55.974 15.116C57.038 15.116 57.9667 15.3727 58.76 15.886C59.5533 16.3993 60.132 17.1273 60.496 18.07H58.97C58.6993 17.482 58.3073 17.0293 57.794 16.712C57.29 16.3947 56.6833 16.236 55.974 16.236C55.2927 16.236 54.6813 16.3947 54.14 16.712C53.5987 17.0293 53.174 17.482 52.866 18.07C52.558 18.6487 52.404 19.33 52.404 20.114C52.404 20.8887 52.558 21.57 52.866 22.158C53.174 22.7367 53.5987 23.1847 54.14 23.502C54.6813 23.8193 55.2927 23.978 55.974 23.978C56.6833 23.978 57.29 23.824 57.794 23.516C58.3073 23.1987 58.6993 22.746 58.97 22.158H60.496C60.132 23.0913 59.5533 23.8147 58.76 24.328C57.9667 24.832 57.038 25.084 55.974 25.084C55.0687 25.084 54.2427 24.874 53.496 24.454C52.7587 24.0247 52.1753 23.432 51.746 22.676C51.3167 21.92 51.102 21.066 51.102 20.114ZM66.2385 25.126C65.5198 25.126 64.8665 24.9627 64.2785 24.636C63.6998 24.3093 63.2425 23.8473 62.9065 23.25C62.5798 22.6433 62.4165 21.9433 62.4165 21.15C62.4165 20.366 62.5845 19.6753 62.9205 19.078C63.2658 18.4713 63.7325 18.0093 64.3205 17.692C64.9085 17.3653 65.5665 17.202 66.2945 17.202C67.0225 17.202 67.6805 17.3653 68.2685 17.692C68.8565 18.0093 69.3185 18.4667 69.6545 19.064C69.9998 19.6613 70.1725 20.3567 70.1725 21.15C70.1725 21.9433 69.9951 22.6433 69.6405 23.25C69.2951 23.8473 68.8238 24.3093 68.2265 24.636C67.6291 24.9627 66.9665 25.126 66.2385 25.126ZM66.2385 24.006C66.6958 24.006 67.1251 23.8987 67.5265 23.684C67.9278 23.4693 68.2498 23.1473 68.4925 22.718C68.7445 22.2887 68.8705 21.766 68.8705 21.15C68.8705 20.534 68.7491 20.0113 68.5065 19.582C68.2638 19.1527 67.9465 18.8353 67.5545 18.63C67.1625 18.4153 66.7378 18.308 66.2805 18.308C65.8138 18.308 65.3845 18.4153 64.9925 18.63C64.6098 18.8353 64.3018 19.1527 64.0685 19.582C63.8351 20.0113 63.7185 20.534 63.7185 21.15C63.7185 21.7753 63.8305 22.3027 64.0545 22.732C64.2878 23.1613 64.5958 23.4833 64.9785 23.698C65.3611 23.9033 65.7811 24.006 66.2385 24.006ZM76.0855 17.188C77.0189 17.188 77.7749 17.4727 78.3535 18.042C78.9322 18.602 79.2215 19.414 79.2215 20.478V25H77.9615V20.66C77.9615 19.8947 77.7702 19.3113 77.3875 18.91C77.0049 18.4993 76.4822 18.294 75.8195 18.294C75.1475 18.294 74.6109 18.504 74.2095 18.924C73.8175 19.344 73.6215 19.9553 73.6215 20.758V25H72.3475V17.328H73.6215V18.42C73.8735 18.028 74.2142 17.7247 74.6435 17.51C75.0822 17.2953 75.5629 17.188 76.0855 17.188ZM83.3566 18.378V22.9C83.3566 23.2733 83.4359 23.5393 83.5946 23.698C83.7533 23.8473 84.0286 23.922 84.4206 23.922H85.3586V25H84.2106C83.5013 25 82.9693 24.8367 82.6146 24.51C82.2599 24.1833 82.0826 23.6467 82.0826 22.9V18.378H81.0886V17.328H82.0826V15.396H83.3566V17.328H85.3586V18.378H83.3566ZM88.6762 18.574C88.9002 18.1353 89.2176 17.7947 89.6282 17.552C90.0482 17.3093 90.5569 17.188 91.1542 17.188V18.504H90.8182C89.3902 18.504 88.6762 19.2787 88.6762 20.828V25H87.4022V17.328H88.6762V18.574ZM96.4709 25.126C95.7522 25.126 95.0989 24.9627 94.5109 24.636C93.9322 24.3093 93.4749 23.8473 93.1389 23.25C92.8122 22.6433 92.6489 21.9433 92.6489 21.15C92.6489 20.366 92.8169 19.6753 93.1529 19.078C93.4982 18.4713 93.9649 18.0093 94.5529 17.692C95.1409 17.3653 95.7989 17.202 96.5269 17.202C97.2549 17.202 97.9129 17.3653 98.5009 17.692C99.0889 18.0093 99.5509 18.4667 99.8869 19.064C100.232 19.6613 100.405 20.3567 100.405 21.15C100.405 21.9433 100.228 22.6433 99.8729 23.25C99.5275 23.8473 99.0562 24.3093 98.4589 24.636C97.8615 24.9627 97.1989 25.126 96.4709 25.126ZM96.4709 24.006C96.9282 24.006 97.3575 23.8987 97.7589 23.684C98.1602 23.4693 98.4822 23.1473 98.7249 22.718C98.9769 22.2887 99.1029 21.766 99.1029 21.15C99.1029 20.534 98.9815 20.0113 98.7389 19.582C98.4962 19.1527 98.1789 18.8353 97.7869 18.63C97.3949 18.4153 96.9702 18.308 96.5129 18.308C96.0462 18.308 95.6169 18.4153 95.2249 18.63C94.8422 18.8353 94.5342 19.1527 94.3009 19.582C94.0675 20.0113 93.9509 20.534 93.9509 21.15C93.9509 21.7753 94.0629 22.3027 94.2869 22.732C94.5202 23.1613 94.8282 23.4833 95.2109 23.698C95.5935 23.9033 96.0135 24.006 96.4709 24.006ZM103.854 14.64V25H102.58V14.64H103.854ZM107.799 14.64V25H106.525V14.64H107.799ZM117.471 20.87C117.471 21.1127 117.457 21.3693 117.429 21.64H111.297C111.343 22.396 111.6 22.9887 112.067 23.418C112.543 23.838 113.117 24.048 113.789 24.048C114.339 24.048 114.797 23.922 115.161 23.67C115.534 23.4087 115.795 23.0633 115.945 22.634H117.317C117.111 23.3713 116.701 23.9733 116.085 24.44C115.469 24.8973 114.703 25.126 113.789 25.126C113.061 25.126 112.407 24.9627 111.829 24.636C111.259 24.3093 110.811 23.8473 110.485 23.25C110.158 22.6433 109.995 21.9433 109.995 21.15C109.995 20.3567 110.153 19.6613 110.471 19.064C110.788 18.4667 111.231 18.0093 111.801 17.692C112.379 17.3653 113.042 17.202 113.789 17.202C114.517 17.202 115.161 17.3607 115.721 17.678C116.281 17.9953 116.71 18.434 117.009 18.994C117.317 19.5447 117.471 20.17 117.471 20.87ZM116.155 20.604C116.155 20.1187 116.047 19.7033 115.833 19.358C115.618 19.0033 115.324 18.7373 114.951 18.56C114.587 18.3733 114.181 18.28 113.733 18.28C113.089 18.28 112.538 18.4853 112.081 18.896C111.633 19.3067 111.376 19.876 111.311 20.604H116.155ZM120.926 18.574C121.15 18.1353 121.468 17.7947 121.878 17.552C122.298 17.3093 122.807 17.188 123.404 17.188V18.504H123.068C121.64 18.504 120.926 19.2787 120.926 20.828V25H119.652V17.328H120.926V18.574ZM128.091 25.126C127.503 25.126 126.976 25.028 126.509 24.832C126.042 24.6267 125.674 24.3467 125.403 23.992C125.132 23.628 124.983 23.2127 124.955 22.746H126.271C126.308 23.1287 126.486 23.4413 126.803 23.684C127.13 23.9267 127.554 24.048 128.077 24.048C128.562 24.048 128.945 23.9407 129.225 23.726C129.505 23.5113 129.645 23.2407 129.645 22.914C129.645 22.578 129.496 22.3307 129.197 22.172C128.898 22.004 128.436 21.8407 127.811 21.682C127.242 21.5327 126.775 21.3833 126.411 21.234C126.056 21.0753 125.748 20.8467 125.487 20.548C125.235 20.24 125.109 19.8387 125.109 19.344C125.109 18.952 125.226 18.5927 125.459 18.266C125.692 17.9393 126.024 17.6827 126.453 17.496C126.882 17.3 127.372 17.202 127.923 17.202C128.772 17.202 129.458 17.4167 129.981 17.846C130.504 18.2753 130.784 18.8633 130.821 19.61H129.547C129.519 19.2087 129.356 18.8867 129.057 18.644C128.768 18.4013 128.376 18.28 127.881 18.28C127.424 18.28 127.06 18.378 126.789 18.574C126.518 18.77 126.383 19.0267 126.383 19.344C126.383 19.596 126.462 19.806 126.621 19.974C126.789 20.1327 126.994 20.2633 127.237 20.366C127.489 20.4593 127.834 20.5667 128.273 20.688C128.824 20.8373 129.272 20.9867 129.617 21.136C129.962 21.276 130.256 21.4907 130.499 21.78C130.751 22.0693 130.882 22.4473 130.891 22.914C130.891 23.334 130.774 23.712 130.541 24.048C130.308 24.384 129.976 24.65 129.547 24.846C129.127 25.0327 128.642 25.126 128.091 25.126Z" fill="black"/>
<path d="M16.21 12.14C17.7647 12.14 19.1287 12.448 20.302 13.064C21.49 13.68 22.4067 14.538 23.052 15.638C23.712 16.738 24.042 17.9993 24.042 19.422C24.042 20.566 23.866 21.6513 23.514 22.678C23.1767 23.7047 22.6853 24.5407 22.04 25.186C21.3947 25.8167 20.632 26.132 19.752 26.132C19.048 26.132 18.52 25.9193 18.168 25.494C17.8307 25.054 17.6767 24.4747 17.706 23.756C17.266 24.504 16.6793 25.0907 15.946 25.516C15.2273 25.9267 14.4573 26.132 13.636 26.132C12.536 26.132 11.6707 25.7947 11.04 25.12C10.424 24.4453 10.116 23.536 10.116 22.392C10.116 21.3213 10.336 20.324 10.776 19.4C11.2307 18.4613 11.8613 17.7133 12.668 17.156C13.4747 16.584 14.384 16.298 15.396 16.298C16.188 16.298 16.848 16.4887 17.376 16.87C17.9187 17.2513 18.2853 17.8013 18.476 18.52L18.806 16.584H19.686L18.564 23.03C18.52 23.2647 18.498 23.4993 18.498 23.734C18.498 24.2473 18.6153 24.6507 18.85 24.944C19.0993 25.2373 19.4513 25.384 19.906 25.384C20.566 25.384 21.1453 25.0907 21.644 24.504C22.1427 23.9173 22.524 23.1767 22.788 22.282C23.052 21.3727 23.184 20.456 23.184 19.532C23.184 18.1827 22.8907 17.0093 22.304 16.012C21.732 15.0147 20.9107 14.2447 19.84 13.702C18.7693 13.1593 17.5153 12.888 16.078 12.888C14.3033 12.888 12.69 13.3353 11.238 14.23C9.786 15.11 8.642 16.3127 7.806 17.838C6.98467 19.3487 6.574 21.006 6.574 22.81C6.574 24.1887 6.86 25.3693 7.432 26.352C8.004 27.3493 8.818 28.112 9.874 28.64C10.9447 29.168 12.184 29.432 13.592 29.432C14.8973 29.432 16.1073 29.19 17.222 28.706L17.376 29.454C16.1293 29.9527 14.7947 30.202 13.372 30.202C11.8613 30.202 10.5267 29.9013 9.368 29.3C8.20933 28.7133 7.30733 27.87 6.662 26.77C6.01667 25.6847 5.694 24.4087 5.694 22.942C5.694 20.9327 6.14867 19.1067 7.058 17.464C7.96733 15.8213 9.22133 14.5233 10.82 13.57C12.4187 12.6167 14.2153 12.14 16.21 12.14ZM13.9 25.318C14.5747 25.318 15.2053 25.1493 15.792 24.812C16.3787 24.46 16.87 23.9613 17.266 23.316C17.6767 22.656 17.9407 21.886 18.058 21.006C18.1167 20.7127 18.146 20.4047 18.146 20.082C18.146 19.1873 17.904 18.4687 17.42 17.926C16.9507 17.3687 16.2613 17.09 15.352 17.09C14.5013 17.09 13.746 17.3393 13.086 17.838C12.4407 18.322 11.942 18.96 11.59 19.752C11.238 20.544 11.062 21.38 11.062 22.26C11.062 23.1987 11.3113 23.9467 11.81 24.504C12.3087 25.0467 13.0053 25.318 13.9 25.318Z" fill="black" fill-opacity="0.6"/>
<path d="M170.902 28.6273L165.809 32.1586L165.768 38.3556L159.567 28.8641L170.902 28.6273Z" fill="#A3FF2E" stroke="black" stroke-width="0.8" stroke-miterlimit="10"/>
</g>
<defs>
<filter id="filter0_d_351_97" x="0.693359" y="0" width="174.527" height="45.6856" filterUnits="userSpaceOnUse" color-interpolation-filters="sRGB">
<feFlood flood-opacity="0" result="BackgroundImageFix"/>
<feColorMatrix in="SourceAlpha" type="matrix" values="0 0 0 0 0 0 0 0 0 0 0 0 0 0 0 0 0 0 127 0" result="hardAlpha"/>
<feOffset dx="-1" dy="2"/>
<feGaussianBlur stdDeviation="2"/>
<feComposite in2="hardAlpha" operator="out"/>
<feColorMatrix type="matrix" values="0 0 0 0 0 0 0 0 0 0 0 0 0 0 0 0 0 0 0.3 0"/>
<feBlend mode="normal" in2="BackgroundImageFix" result="effect1_dropShadow_351_97"/>
<feBlend mode="normal" in="SourceGraphic" in2="effect1_dropShadow_351_97" result="shape"/>
</filter>
</defs>
</svg>
