<svg width="121" height="54" viewBox="0 0 121 54" fill="none" xmlns="http://www.w3.org/2000/svg">
<g filter="url(#filter0_d_351_88)">
<rect x="4.5" y="0.5" width="95" height="35" rx="17.5" fill="#FFF7B1"/>
<rect x="4.5" y="0.5" width="95" height="35" rx="17.5" stroke="#6F6F6F"/>
<path d="M36.476 13.312V23H35.202V15.776L31.982 23H31.086L27.852 15.762V23H26.578V13.312H27.95L31.534 21.32L35.118 13.312H36.476ZM42.4826 23.126C41.7639 23.126 41.1106 22.9627 40.5226 22.636C39.9439 22.3093 39.4866 21.8473 39.1506 21.25C38.8239 20.6433 38.6606 19.9433 38.6606 19.15C38.6606 18.366 38.8286 17.6753 39.1646 17.078C39.5099 16.4713 39.9766 16.0093 40.5646 15.692C41.1526 15.3653 41.8106 15.202 42.5386 15.202C43.2666 15.202 43.9246 15.3653 44.5126 15.692C45.1006 16.0093 45.5626 16.4667 45.8986 17.064C46.2439 17.6613 46.4166 18.3567 46.4166 19.15C46.4166 19.9433 46.2393 20.6433 45.8846 21.25C45.5393 21.8473 45.0679 22.3093 44.4706 22.636C43.8733 22.9627 43.2106 23.126 42.4826 23.126ZM42.4826 22.006C42.9399 22.006 43.3693 21.8987 43.7706 21.684C44.1719 21.4693 44.4939 21.1473 44.7366 20.718C44.9886 20.2887 45.1146 19.766 45.1146 19.15C45.1146 18.534 44.9933 18.0113 44.7506 17.582C44.5079 17.1527 44.1906 16.8353 43.7986 16.63C43.4066 16.4153 42.9819 16.308 42.5246 16.308C42.0579 16.308 41.6286 16.4153 41.2366 16.63C40.8539 16.8353 40.5459 17.1527 40.3126 17.582C40.0793 18.0113 39.9626 18.534 39.9626 19.15C39.9626 19.7753 40.0746 20.3027 40.2986 20.732C40.5319 21.1613 40.8399 21.4833 41.2226 21.698C41.6053 21.9033 42.0253 22.006 42.4826 22.006ZM48.1157 19.136C48.1157 18.352 48.2743 17.666 48.5917 17.078C48.909 16.4807 49.343 16.0187 49.8937 15.692C50.4537 15.3653 51.079 15.202 51.7697 15.202C52.367 15.202 52.9223 15.342 53.4357 15.622C53.949 15.8927 54.341 16.252 54.6117 16.7V12.64H55.8997V23H54.6117V21.558C54.3597 22.0153 53.9863 22.3933 53.4917 22.692C52.997 22.9813 52.4183 23.126 51.7557 23.126C51.0743 23.126 50.4537 22.958 49.8937 22.622C49.343 22.286 48.909 21.8147 48.5917 21.208C48.2743 20.6013 48.1157 19.9107 48.1157 19.136ZM54.6117 19.15C54.6117 18.5713 54.495 18.0673 54.2617 17.638C54.0283 17.2087 53.711 16.882 53.3097 16.658C52.9177 16.4247 52.4837 16.308 52.0077 16.308C51.5317 16.308 51.0977 16.42 50.7057 16.644C50.3137 16.868 50.001 17.1947 49.7677 17.624C49.5343 18.0533 49.4177 18.5573 49.4177 19.136C49.4177 19.724 49.5343 20.2373 49.7677 20.676C50.001 21.1053 50.3137 21.4367 50.7057 21.67C51.0977 21.894 51.5317 22.006 52.0077 22.006C52.4837 22.006 52.9177 21.894 53.3097 21.67C53.711 21.4367 54.0283 21.1053 54.2617 20.676C54.495 20.2373 54.6117 19.7287 54.6117 19.15ZM65.5526 18.87C65.5526 19.1127 65.5386 19.3693 65.5106 19.64H59.3786C59.4253 20.396 59.6819 20.9887 60.1486 21.418C60.6246 21.838 61.1986 22.048 61.8706 22.048C62.4213 22.048 62.8786 21.922 63.2426 21.67C63.6159 21.4087 63.8773 21.0633 64.0266 20.634H65.3986C65.1933 21.3713 64.7826 21.9733 64.1666 22.44C63.5506 22.8973 62.7853 23.126 61.8706 23.126C61.1426 23.126 60.4893 22.9627 59.9106 22.636C59.3413 22.3093 58.8933 21.8473 58.5666 21.25C58.2399 20.6433 58.0766 19.9433 58.0766 19.15C58.0766 18.3567 58.2353 17.6613 58.5526 17.064C58.8699 16.4667 59.3133 16.0093 59.8826 15.692C60.4613 15.3653 61.1239 15.202 61.8706 15.202C62.5986 15.202 63.2426 15.3607 63.8026 15.678C64.3626 15.9953 64.7919 16.434 65.0906 16.994C65.3986 17.5447 65.5526 18.17 65.5526 18.87ZM64.2366 18.604C64.2366 18.1187 64.1293 17.7033 63.9146 17.358C63.6999 17.0033 63.4059 16.7373 63.0326 16.56C62.6686 16.3733 62.2626 16.28 61.8146 16.28C61.1706 16.28 60.6199 16.4853 60.1626 16.896C59.7146 17.3067 59.4579 17.876 59.3926 18.604H64.2366ZM69.0083 12.64V23H67.7343V12.64H69.0083ZM74.3956 23.126C73.8076 23.126 73.2802 23.028 72.8136 22.832C72.3469 22.6267 71.9782 22.3467 71.7076 21.992C71.4369 21.628 71.2876 21.2127 71.2596 20.746H72.5756C72.6129 21.1287 72.7902 21.4413 73.1076 21.684C73.4342 21.9267 73.8589 22.048 74.3816 22.048C74.8669 22.048 75.2496 21.9407 75.5296 21.726C75.8096 21.5113 75.9496 21.2407 75.9496 20.914C75.9496 20.578 75.8002 20.3307 75.5016 20.172C75.2029 20.004 74.7409 19.8407 74.1156 19.682C73.5462 19.5327 73.0796 19.3833 72.7156 19.234C72.3609 19.0753 72.0529 18.8467 71.7916 18.548C71.5396 18.24 71.4136 17.8387 71.4136 17.344C71.4136 16.952 71.5302 16.5927 71.7636 16.266C71.9969 15.9393 72.3282 15.6827 72.7576 15.496C73.1869 15.3 73.6769 15.202 74.2276 15.202C75.0769 15.202 75.7629 15.4167 76.2856 15.846C76.8082 16.2753 77.0882 16.8633 77.1256 17.61H75.8516C75.8236 17.2087 75.6602 16.8867 75.3616 16.644C75.0722 16.4013 74.6802 16.28 74.1856 16.28C73.7282 16.28 73.3642 16.378 73.0936 16.574C72.8229 16.77 72.6876 17.0267 72.6876 17.344C72.6876 17.596 72.7669 17.806 72.9256 17.974C73.0936 18.1327 73.2989 18.2633 73.5416 18.366C73.7936 18.4593 74.1389 18.5667 74.5776 18.688C75.1282 18.8373 75.5762 18.9867 75.9216 19.136C76.2669 19.276 76.5609 19.4907 76.8036 19.78C77.0556 20.0693 77.1862 20.4473 77.1956 20.914C77.1956 21.334 77.0789 21.712 76.8456 22.048C76.6122 22.384 76.2809 22.65 75.8516 22.846C75.4316 23.0327 74.9462 23.126 74.3956 23.126Z" fill="black"/>
<path d="M114.679 38.1759L108.528 38.9317L105.607 44.3974L104.536 33.1107L114.679 38.1759Z" fill="#A3FF2E" stroke="black" stroke-width="0.8" stroke-miterlimit="10"/>
</g>
<defs>
<filter id="filter0_d_351_88" x="0" y="0" width="120.045" height="53.7565" filterUnits="userSpaceOnUse" color-interpolation-filters="sRGB">
<feFlood flood-opacity="0" result="BackgroundImageFix"/>
<feColorMatrix in="SourceAlpha" type="matrix" values="0 0 0 0 0 0 0 0 0 0 0 0 0 0 0 0 0 0 127 0" result="hardAlpha"/>
<feOffset dy="4"/>
<feGaussianBlur stdDeviation="2"/>
<feComposite in2="hardAlpha" operator="out"/>
<feColorMatrix type="matrix" values="0 0 0 0 0 0 0 0 0 0 0 0 0 0 0 0 0 0 0.25 0"/>
<feBlend mode="normal" in2="BackgroundImageFix" result="effect1_dropShadow_351_88"/>
<feBlend mode="normal" in="SourceGraphic" in2="effect1_dropShadow_351_88" result="shape"/>
</filter>
</defs>
</svg>
