<svg width="168" height="54" viewBox="0 0 168 54" fill="none" xmlns="http://www.w3.org/2000/svg">
<g filter="url(#filter0_d_351_92)">
<rect x="28.5" y="2.5" width="119" height="35" rx="17.5" fill="#DEF5FF"/>
<rect x="28.5" y="2.5" width="119" height="35" rx="17.5" stroke="#6F6F6F"/>
<path d="M48.716 25L46.392 21.01H44.852V25H43.578V15.242H46.728C47.4653 15.242 48.086 15.368 48.59 15.62C49.1033 15.872 49.486 16.2127 49.738 16.642C49.99 17.0713 50.116 17.5613 50.116 18.112C50.116 18.784 49.92 19.3767 49.528 19.89C49.1453 20.4033 48.5667 20.744 47.792 20.912L50.242 25H48.716ZM44.852 19.988H46.728C47.4187 19.988 47.9367 19.82 48.282 19.484C48.6273 19.1387 48.8 18.6813 48.8 18.112C48.8 17.5333 48.6273 17.0853 48.282 16.768C47.946 16.4507 47.428 16.292 46.728 16.292H44.852V19.988ZM53.8696 16.278V19.54H57.4256V20.59H53.8696V23.95H57.8456V25H52.5956V15.228H57.8456V16.278H53.8696ZM63.3673 25.098C62.7233 25.098 62.1446 24.986 61.6313 24.762C61.1273 24.5287 60.7306 24.2113 60.4413 23.81C60.152 23.3993 60.0026 22.928 59.9933 22.396H61.3513C61.398 22.8533 61.5846 23.2407 61.9113 23.558C62.2473 23.866 62.7326 24.02 63.3673 24.02C63.974 24.02 64.45 23.8707 64.7953 23.572C65.15 23.264 65.3273 22.872 65.3273 22.396C65.3273 22.0227 65.2246 21.7193 65.0193 21.486C64.814 21.2527 64.5573 21.0753 64.2493 20.954C63.9413 20.8327 63.526 20.702 63.0033 20.562C62.3593 20.394 61.8413 20.226 61.4493 20.058C61.0666 19.89 60.7353 19.6287 60.4553 19.274C60.1846 18.91 60.0493 18.4247 60.0493 17.818C60.0493 17.286 60.1846 16.8147 60.4553 16.404C60.726 15.9933 61.104 15.676 61.5893 15.452C62.084 15.228 62.6486 15.116 63.2833 15.116C64.198 15.116 64.9446 15.3447 65.5233 15.802C66.1113 16.2593 66.4426 16.866 66.5173 17.622H65.1173C65.0706 17.2487 64.8746 16.922 64.5293 16.642C64.184 16.3527 63.7266 16.208 63.1573 16.208C62.6253 16.208 62.1913 16.348 61.8553 16.628C61.5193 16.8987 61.3513 17.2813 61.3513 17.776C61.3513 18.1307 61.4493 18.42 61.6453 18.644C61.8506 18.868 62.098 19.0407 62.3873 19.162C62.686 19.274 63.1013 19.4047 63.6333 19.554C64.2773 19.7313 64.7953 19.9087 65.1873 20.086C65.5793 20.254 65.9153 20.52 66.1953 20.884C66.4753 21.2387 66.6153 21.724 66.6153 22.34C66.6153 22.816 66.4893 23.264 66.2373 23.684C65.9853 24.104 65.612 24.4447 65.1173 24.706C64.6226 24.9673 64.0393 25.098 63.3673 25.098ZM74.9961 15.242V16.278H72.3361V25H71.0621V16.278H68.3881V15.242H74.9961ZM80.1863 18.378H78.5763V25H77.3023V18.378H76.3083V17.328H77.3023V16.782C77.3023 15.9233 77.5217 15.298 77.9603 14.906C78.4083 14.5047 79.1223 14.304 80.1023 14.304V15.368C79.5423 15.368 79.1457 15.48 78.9123 15.704C78.6883 15.9187 78.5763 16.278 78.5763 16.782V17.328H80.1863V18.378ZM88.9758 17.328V25H87.7018V23.866C87.4591 24.258 87.1184 24.566 86.6798 24.79C86.2504 25.0047 85.7744 25.112 85.2518 25.112C84.6544 25.112 84.1178 24.9907 83.6418 24.748C83.1658 24.496 82.7878 24.1227 82.5078 23.628C82.2371 23.1333 82.1018 22.5313 82.1018 21.822V17.328H83.3618V21.654C83.3618 22.41 83.5531 22.9933 83.9358 23.404C84.3184 23.8053 84.8411 24.006 85.5038 24.006C86.1851 24.006 86.7218 23.796 87.1138 23.376C87.5058 22.956 87.7018 22.3447 87.7018 21.542V17.328H88.9758ZM92.9008 14.64V25H91.6268V14.64H92.9008ZM105.573 22.83H101.317L100.533 25H99.1886L102.717 15.298H104.187L107.701 25H106.357L105.573 22.83ZM105.209 21.794L103.445 16.866L101.681 21.794H105.209ZM116.262 18.098C116.262 18.91 115.982 19.5867 115.422 20.128C114.871 20.66 114.027 20.926 112.888 20.926H111.012V25H109.738V15.242H112.888C113.989 15.242 114.825 15.508 115.394 16.04C115.973 16.572 116.262 17.258 116.262 18.098ZM112.888 19.876C113.597 19.876 114.12 19.722 114.456 19.414C114.792 19.106 114.96 18.6673 114.96 18.098C114.96 16.894 114.269 16.292 112.888 16.292H111.012V19.876H112.888ZM119.62 15.242V25H118.346V15.242H119.62ZM125.007 25.126C124.419 25.126 123.892 25.028 123.425 24.832C122.958 24.6267 122.59 24.3467 122.319 23.992C122.048 23.628 121.899 23.2127 121.871 22.746H123.187C123.224 23.1287 123.402 23.4413 123.719 23.684C124.046 23.9267 124.47 24.048 124.993 24.048C125.478 24.048 125.861 23.9407 126.141 23.726C126.421 23.5113 126.561 23.2407 126.561 22.914C126.561 22.578 126.412 22.3307 126.113 22.172C125.814 22.004 125.352 21.8407 124.727 21.682C124.158 21.5327 123.691 21.3833 123.327 21.234C122.972 21.0753 122.664 20.8467 122.403 20.548C122.151 20.24 122.025 19.8387 122.025 19.344C122.025 18.952 122.142 18.5927 122.375 18.266C122.608 17.9393 122.94 17.6827 123.369 17.496C123.798 17.3 124.288 17.202 124.839 17.202C125.688 17.202 126.374 17.4167 126.897 17.846C127.42 18.2753 127.7 18.8633 127.737 19.61H126.463C126.435 19.2087 126.272 18.8867 125.973 18.644C125.684 18.4013 125.292 18.28 124.797 18.28C124.34 18.28 123.976 18.378 123.705 18.574C123.434 18.77 123.299 19.0267 123.299 19.344C123.299 19.596 123.378 19.806 123.537 19.974C123.705 20.1327 123.91 20.2633 124.153 20.366C124.405 20.4593 124.75 20.5667 125.189 20.688C125.74 20.8373 126.188 20.9867 126.533 21.136C126.878 21.276 127.172 21.4907 127.415 21.78C127.667 22.0693 127.798 22.4473 127.807 22.914C127.807 23.334 127.69 23.712 127.457 24.048C127.224 24.384 126.892 24.65 126.463 24.846C126.043 25.0327 125.558 25.126 125.007 25.126Z" fill="black"/>
<path d="M162.788 38.0102L156.88 39.8801L155.01 45.7884L151.889 34.8891L162.788 38.0102Z" fill="#A3FF2E" stroke="black" stroke-width="0.8" stroke-miterlimit="10"/>
<path d="M18.728 15.888L17.744 20.496H21.32V21.456H17.528L16.352 27H15.296L16.472 21.456H10.808L9.632 27H8.576L9.752 21.456H5.912V20.496H9.968L10.952 15.888H7.16V14.928H11.144L12.368 9.24H13.424L12.2 14.928H17.864L19.088 9.24H20.144L18.92 14.928H22.568V15.888H18.728ZM17.672 15.888H12.008L11.024 20.496H16.688L17.672 15.888Z" fill="black" fill-opacity="0.6"/>
</g>
<defs>
<filter id="filter0_d_351_92" x="0.912109" y="0" width="166.262" height="53.1745" filterUnits="userSpaceOnUse" color-interpolation-filters="sRGB">
<feFlood flood-opacity="0" result="BackgroundImageFix"/>
<feColorMatrix in="SourceAlpha" type="matrix" values="0 0 0 0 0 0 0 0 0 0 0 0 0 0 0 0 0 0 127 0" result="hardAlpha"/>
<feOffset dx="-1" dy="2"/>
<feGaussianBlur stdDeviation="2"/>
<feComposite in2="hardAlpha" operator="out"/>
<feColorMatrix type="matrix" values="0 0 0 0 0 0 0 0 0 0 0 0 0 0 0 0 0 0 0.3 0"/>
<feBlend mode="normal" in2="BackgroundImageFix" result="effect1_dropShadow_351_92"/>
<feBlend mode="normal" in="SourceGraphic" in2="effect1_dropShadow_351_92" result="shape"/>
</filter>
</defs>
</svg>
