<svg width="121" height="54" viewBox="0 0 121 54" fill="none" xmlns="http://www.w3.org/2000/svg">
<g filter="url(#filter0_d_351_84)">
<rect x="22.5" y="2.5" width="95" height="35" rx="17.5" fill="#DCFFC7"/>
<rect x="22.5" y="2.5" width="95" height="35" rx="17.5" stroke="#6F6F6F"/>
<path d="M47.716 25L45.392 21.01H43.852V25H42.578V15.242H45.728C46.4653 15.242 47.086 15.368 47.59 15.62C48.1033 15.872 48.486 16.2127 48.738 16.642C48.99 17.0713 49.116 17.5613 49.116 18.112C49.116 18.784 48.92 19.3767 48.528 19.89C48.1453 20.4033 47.5667 20.744 46.792 20.912L49.242 25H47.716ZM43.852 19.988H45.728C46.4187 19.988 46.9367 19.82 47.282 19.484C47.6273 19.1387 47.8 18.6813 47.8 18.112C47.8 17.5333 47.6273 17.0853 47.282 16.768C46.946 16.4507 46.428 16.292 45.728 16.292H43.852V19.988ZM54.9416 25.126C54.2229 25.126 53.5696 24.9627 52.9816 24.636C52.4029 24.3093 51.9456 23.8473 51.6096 23.25C51.2829 22.6433 51.1196 21.9433 51.1196 21.15C51.1196 20.366 51.2876 19.6753 51.6236 19.078C51.9689 18.4713 52.4356 18.0093 53.0236 17.692C53.6116 17.3653 54.2696 17.202 54.9976 17.202C55.7256 17.202 56.3836 17.3653 56.9716 17.692C57.5596 18.0093 58.0216 18.4667 58.3576 19.064C58.7029 19.6613 58.8756 20.3567 58.8756 21.15C58.8756 21.9433 58.6982 22.6433 58.3436 23.25C57.9982 23.8473 57.5269 24.3093 56.9296 24.636C56.3322 24.9627 55.6696 25.126 54.9416 25.126ZM54.9416 24.006C55.3989 24.006 55.8282 23.8987 56.2296 23.684C56.6309 23.4693 56.9529 23.1473 57.1956 22.718C57.4476 22.2887 57.5736 21.766 57.5736 21.15C57.5736 20.534 57.4522 20.0113 57.2096 19.582C56.9669 19.1527 56.6496 18.8353 56.2576 18.63C55.8656 18.4153 55.4409 18.308 54.9836 18.308C54.5169 18.308 54.0876 18.4153 53.6956 18.63C53.3129 18.8353 53.0049 19.1527 52.7716 19.582C52.5382 20.0113 52.4216 20.534 52.4216 21.15C52.4216 21.7753 52.5336 22.3027 52.7576 22.732C52.9909 23.1613 53.2989 23.4833 53.6816 23.698C54.0642 23.9033 54.4842 24.006 54.9416 24.006ZM67.8547 17.328V25H66.5807V23.866C66.338 24.258 65.9973 24.566 65.5587 24.79C65.1293 25.0047 64.6533 25.112 64.1307 25.112C63.5333 25.112 62.9967 24.9907 62.5207 24.748C62.0447 24.496 61.6667 24.1227 61.3867 23.628C61.116 23.1333 60.9807 22.5313 60.9807 21.822V17.328H62.2407V21.654C62.2407 22.41 62.432 22.9933 62.8147 23.404C63.1973 23.8053 63.72 24.006 64.3827 24.006C65.064 24.006 65.6007 23.796 65.9927 23.376C66.3847 22.956 66.5807 22.3447 66.5807 21.542V17.328H67.8547ZM72.0597 18.378V22.9C72.0597 23.2733 72.1391 23.5393 72.2977 23.698C72.4564 23.8473 72.7317 23.922 73.1237 23.922H74.0617V25H72.9137C72.2044 25 71.6724 24.8367 71.3177 24.51C70.9631 24.1833 70.7857 23.6467 70.7857 22.9V18.378H69.7917V17.328H70.7857V15.396H72.0597V17.328H74.0617V18.378H72.0597ZM76.7633 16.082C76.5207 16.082 76.3153 15.998 76.1473 15.83C75.9793 15.662 75.8953 15.4567 75.8953 15.214C75.8953 14.9713 75.9793 14.766 76.1473 14.598C76.3153 14.43 76.5207 14.346 76.7633 14.346C76.9967 14.346 77.1927 14.43 77.3513 14.598C77.5193 14.766 77.6033 14.9713 77.6033 15.214C77.6033 15.4567 77.5193 15.662 77.3513 15.83C77.1927 15.998 76.9967 16.082 76.7633 16.082ZM77.3793 17.328V25H76.1053V17.328H77.3793ZM83.7887 17.188C84.722 17.188 85.478 17.4727 86.0567 18.042C86.6353 18.602 86.9247 19.414 86.9247 20.478V25H85.6647V20.66C85.6647 19.8947 85.4733 19.3113 85.0907 18.91C84.708 18.4993 84.1853 18.294 83.5227 18.294C82.8507 18.294 82.314 18.504 81.9127 18.924C81.5207 19.344 81.3247 19.9553 81.3247 20.758V25H80.0507V17.328H81.3247V18.42C81.5767 18.028 81.9173 17.7247 82.3467 17.51C82.7853 17.2953 83.266 17.188 83.7887 17.188ZM92.6697 17.202C93.3324 17.202 93.9111 17.3467 94.4057 17.636C94.9097 17.9253 95.2831 18.2893 95.5257 18.728V17.328H96.8137V25.168C96.8137 25.868 96.6644 26.4887 96.3657 27.03C96.0671 27.5807 95.6377 28.01 95.0777 28.318C94.5271 28.626 93.8831 28.78 93.1457 28.78C92.1377 28.78 91.2977 28.542 90.6257 28.066C89.9537 27.59 89.5571 26.9413 89.4357 26.12H90.6957C90.8357 26.5867 91.1251 26.96 91.5637 27.24C92.0024 27.5293 92.5297 27.674 93.1457 27.674C93.8457 27.674 94.4151 27.4547 94.8537 27.016C95.3017 26.5773 95.5257 25.9613 95.5257 25.168V23.558C95.2737 24.006 94.9004 24.3793 94.4057 24.678C93.9111 24.9767 93.3324 25.126 92.6697 25.126C91.9884 25.126 91.3677 24.958 90.8077 24.622C90.2571 24.286 89.8231 23.8147 89.5057 23.208C89.1884 22.6013 89.0297 21.9107 89.0297 21.136C89.0297 20.352 89.1884 19.666 89.5057 19.078C89.8231 18.4807 90.2571 18.0187 90.8077 17.692C91.3677 17.3653 91.9884 17.202 92.6697 17.202ZM95.5257 21.15C95.5257 20.5713 95.4091 20.0673 95.1757 19.638C94.9424 19.2087 94.6251 18.882 94.2237 18.658C93.8317 18.4247 93.3977 18.308 92.9217 18.308C92.4457 18.308 92.0117 18.42 91.6197 18.644C91.2277 18.868 90.9151 19.1947 90.6817 19.624C90.4484 20.0533 90.3317 20.5573 90.3317 21.136C90.3317 21.724 90.4484 22.2373 90.6817 22.676C90.9151 23.1053 91.2277 23.4367 91.6197 23.67C92.0117 23.894 92.4457 24.006 92.9217 24.006C93.3977 24.006 93.8317 23.894 94.2237 23.67C94.6251 23.4367 94.9424 23.1053 95.1757 22.676C95.4091 22.2373 95.5257 21.7287 95.5257 21.15Z" fill="black"/>
<path d="M14.7777 45.7884L12.9078 39.8801L6.99956 38.0102L17.8989 34.8891L14.7777 45.7884Z" fill="#A3FF2E" stroke="black" stroke-width="0.8" stroke-miterlimit="10"/>
</g>
<defs>
<filter id="filter0_d_351_84" x="0.613281" y="0" width="120.387" height="53.1745" filterUnits="userSpaceOnUse" color-interpolation-filters="sRGB">
<feFlood flood-opacity="0" result="BackgroundImageFix"/>
<feColorMatrix in="SourceAlpha" type="matrix" values="0 0 0 0 0 0 0 0 0 0 0 0 0 0 0 0 0 0 127 0" result="hardAlpha"/>
<feOffset dx="-1" dy="2"/>
<feGaussianBlur stdDeviation="2"/>
<feComposite in2="hardAlpha" operator="out"/>
<feColorMatrix type="matrix" values="0 0 0 0 0 0 0 0 0 0 0 0 0 0 0 0 0 0 0.3 0"/>
<feBlend mode="normal" in2="BackgroundImageFix" result="effect1_dropShadow_351_84"/>
<feBlend mode="normal" in="SourceGraphic" in2="effect1_dropShadow_351_84" result="shape"/>
</filter>
</defs>
</svg>
