<?xml version="1.0" encoding="UTF-8"?>
<svg id="Layer_2" data-name="Layer 2" xmlns="http://www.w3.org/2000/svg" viewBox="0 0 120 120">
  <defs>
    <style>
      .cls-1 {
        stroke-width: 0px;
      }
    </style>
  </defs>
  <g id="Layer_1-2" data-name="Layer 1">
    <g>
      <path class="cls-1" d="M0,7.22C.61,4.99,1.47,2.96,3.18,1.59,4.66.41,6.29,0,8.06,0c15.04.02,30.08.01,45.11.01,19.65,0,39.29,0,58.94,0,4.1,0,7.08,2.82,7.77,7.35.1.68.11,1.38.11,2.07,0,27.78,0,55.56,0,83.33,0,5.7-3.1,9.41-7.9,9.42-11.17.01-22.34,0-33.51,0-.46,0-.92,0-1.55,0,.49,4.62.96,9.09,1.44,13.64,1.94,0,3.77-.01,5.6,0,1.29,0,2.08.77,2.11,2.01.04,1.27-.8,2.15-2.13,2.15-16.05,0-32.11,0-48.16,0-1.26,0-2.07-.85-2.08-2.07-.01-1.24.79-2.07,2.05-2.08,1.83-.02,3.67,0,5.66,0,.48-4.51.95-8.98,1.45-13.64h-1.49c-10.74,0-21.48,0-32.22,0-5.48,0-7.15-1.29-9.26-7.19V7.22ZM60.07,4.18c-17.34,0-34.69,0-52.03,0-3.05,0-4.53,1.76-4.53,5.37,0,27.69,0,55.37,0,83.06,0,3.68,1.48,5.42,4.61,5.42,34.57,0,69.14,0,103.71,0,3.19,0,4.65-1.74,4.65-5.52,0-27.59,0-55.19,0-82.78,0-3.87-1.43-5.55-4.73-5.55-17.23,0-34.45,0-51.68,0ZM74.9,115.76c-.48-4.54-.95-9-1.42-13.56-1.2,0-2.29-.02-3.37,0-1.01.02-2.23-.32-2.96.24-.59.45-.59,2-.85,3.06-.02.09-.05.18-.07.26-.93,3.23-3.5,5.4-6.33,5.34-2.85-.06-5.36-2.31-6.19-5.57-.21-.84-.32-1.72-.56-2.54-.09-.31-.42-.74-.65-.74-1.97-.06-3.95-.03-5.98-.03-.48,4.61-.95,9.04-1.42,13.56h29.81ZM56.73,102.25c.38,3.24,1.58,4.81,3.44,4.66,1.82-.15,2.97-1.89,3.03-4.66h-6.47Z"/>
      <path class="cls-1" d="M69.76,71.09h-15.75c.07.67.17,1.29.2,1.92.13,2.72-1.09,5.13-3.15,6.28-2,1.11-4.39.72-6-1.07-1.73-1.92-2.26-4.28-1.5-6.95.22-.77.23-1.28-.25-1.95-.97-1.36-1.06-2.94-.41-4.54.64-1.58,1.33-3.14,1.97-4.72.14-.34.28-.8.19-1.13-1.01-3.88-2.11-7.72-3.08-11.6-1.32-5.27-2.52-10.58-3.86-15.85-.2-.79-.76-1.57-1.32-2.09-1.23-1.13-2.59-2.07-3.87-3.12-1-.82-1.24-1.94-.69-2.97.54-1.02,1.57-1.27,2.56-.52,1.67,1.27,3.32,2.6,4.97,3.93.29.23.65.5.75.85.46,1.6,1.58,1.51,2.66,1.57,12.87.68,25.74,1.36,38.61,2.04,2.18.11,2.77.95,2.34,3.52-.92,5.48-1.84,10.97-2.79,16.45-.65,3.79-2.92,6.49-6.16,7-5.68.9-11.39,1.65-17.08,2.45-2.6.37-5.2,1.06-7.79.98-1.97-.06-2.73.94-3.31,2.78-.24.77-.6,1.49-1.03,2.52.64,0,1.09,0,1.53,0,10.07,0,20.15,0,30.22,0,.47,0,.94-.01,1.4.08,1.05.22,1.74,1.46,1.29,2.58-.34.86-.19,1.54-.03,2.35.51,2.69-.15,4.98-1.98,6.66-1.83,1.68-3.89,1.89-5.94.6-2.09-1.33-3.04-3.5-2.88-6.32.03-.54.12-1.08.19-1.71ZM42.28,33.45c.67,2.79,1.33,5.54,2.02,8.28.06.23.35.54.54.55,1.82.04,3.65.02,5.61.02-.42-3.02-.82-5.85-1.24-8.85h-6.93ZM60.06,34.06h-7.18c.35,2.53.68,5.08,1.07,7.62.04.25.39.6.61.61,1.82.05,3.63.03,5.5.03v-8.25ZM45.44,46.57c.56,2.32,1.1,4.53,1.63,6.74,1.07,4.46,1.26,4.61,5.12,3.84.07-.01.14-.08.3-.19-.48-3.44-.97-6.92-1.46-10.39h-5.6ZM63.71,42.31c1.95,0,3.78.02,5.61-.02.24,0,.66-.3.68-.5.22-2.32.37-4.65.56-7.18h-6.84v7.71ZM54.6,46.56c.49,3.46.96,6.75,1.43,10.07,1.44-.21,2.71-.39,4.01-.58v-9.48h-5.44ZM63.7,55.54c1.64-.22,3.14-.39,4.64-.65.27-.05.68-.42.71-.68.23-2.51.4-5.04.59-7.63h-5.93v8.96ZM73.52,42.32c1.81,0,3.4.04,4.99-.04.3-.01.77-.45.84-.79.4-2.01.7-4.05,1.06-6.23-2.14-.11-4.22-.22-6.33-.33-.19,2.54-.37,4.86-.56,7.38ZM72.61,54.14c4.54.19,5.42-2.45,5.75-7.57h-5.16c-.2,2.54-.39,5-.58,7.57ZM75.04,71.04c-1.14,0-1.98,1-1.97,2.35.01,1.27.84,2.29,1.9,2.33,1.08.04,2.03-1.02,2.06-2.31.02-1.3-.87-2.37-1.99-2.37ZM48.71,75.72c1.1.02,1.99-1.05,1.99-2.37,0-1.29-.81-2.27-1.89-2.31-1.12-.04-2.04.96-2.07,2.27-.03,1.29.88,2.4,1.97,2.41Z"/>
      <path class="cls-1" d="M11.07,13.08v76.05c.66,0,1.27-.03,1.88,0,1.06.05,1.75.8,1.81,1.91.06,1.12-.55,2.11-1.57,2.19-1.36.11-2.74.11-4.09,0-.97-.08-1.51-.88-1.58-2.05-.02-.37,0-.74,0-1.11,0-25.97,0-51.94,0-77.9,0-2.69.46-3.24,2.74-3.24,29.41,0,58.81,0,88.22,0,1.87,0,2.76.69,2.74,2.12-.02,1.42-.86,2.04-2.79,2.04-28.59,0-57.17,0-85.76,0-.5,0-1,0-1.59,0Z"/>
      <path class="cls-1" d="M108.93,89.12V13.07c-.66,0-1.31.03-1.95,0-1.03-.06-1.72-.88-1.74-1.99-.03-1.12.62-2.06,1.64-2.12,1.32-.08,2.66-.09,3.98,0,.98.07,1.53.84,1.63,2.01.03.41.01.83.01,1.25,0,25.92,0,51.84,0,77.76,0,2.78-.45,3.31-2.81,3.31-29.37,0-58.74,0-88.1,0-.5,0-1.02,0-1.51-.15-.86-.26-1.32-1.03-1.26-2.06.06-1.08.59-1.8,1.55-1.92.46-.06.94-.03,1.4-.03,28.51,0,57.02,0,85.53,0,.5,0,1,0,1.64,0Z"/>
    </g>
  </g>
</svg>