<?xml version="1.0" encoding="UTF-8"?>
<svg id="Layer_2" data-name="Layer 2" xmlns="http://www.w3.org/2000/svg" viewBox="0 0 127.98 120">
  <defs>
    <style>
      .cls-1 {
        stroke-width: 0px;
      }
    </style>
  </defs>
  <g id="Layer_1-2" data-name="Layer 1">
    <path class="cls-1" d="M0,38.98c.8-.98,1.46-2.14,2.42-2.91C16.89,24.49,31.41,12.99,45.87,1.41c1.65-1.32,3.25-1.69,5.31-1.21,17.78,4.14,35.57,8.2,53.36,12.3,2.87.66,4.35,2.63,3.64,5.07-.26.9-.91,1.78-1.61,2.44-5.71,5.35-11.47,10.66-17.25,15.94-.69.63-.83,1.13-.5,2,1.11,2.91,2.13,5.86,3.25,8.96.4-.37.72-.65,1.02-.96,2.84-2.87,5.64-5.79,8.52-8.61,4.28-4.19,9.39-5.63,15.15-3.98,5.7,1.63,9.33,5.48,10.73,11.25,1.23,5.09.1,9.78-3.45,13.58-5.37,5.75-10.99,11.27-16.53,16.86-1.67,1.68-3.42,3.29-5.11,4.91,7.84,7.82,15.48,15.45,23.13,23.09-.07.13-.14.27-.2.4-3.44-.17-6.88-.34-10.48-.51.17,3.58.34,7.02.51,10.55-4.33-4.33-8.59-8.59-12.85-12.85-.11.07-.22.14-.33.21v18.78c-.1.06-.19.11-.29.17-2.32-2.56-4.63-5.11-7.04-7.77-2.36,2.61-4.66,5.15-7.22,7.98v-24.36c-.17-.12-.35-.24-.52-.36-.23.38-.39.82-.69,1.12-4.05,4.13-8.08,8.29-12.2,12.36-4.37,4.31-9.61,5.75-15.49,3.93-5.82-1.8-9.41-5.86-10.57-11.84-1-5.17.46-9.73,4.1-13.55,2.27-2.38,4.62-4.69,6.93-7.03.28-.29.55-.59.96-1.03-1.92.17-3.63.38-5.35.47-1.7.09-3.41.04-5.12.13-.35.02-.88.3-1,.6-1.88,4.69-5.26,8.18-9.17,11.16-3.21,2.44-6.63,4.59-9.99,6.83-.59.4-.78.68-.63,1.47.65,3.51-.46,6.48-3.35,8.55-2.22,1.59-4.67,2.86-7.09,4.32-.49-.77-.93-1.46-1.33-2.09-2.45,1.17-4.83,2.33-7.24,3.43-.47.22-1.18.46-1.53.27-.65-.36-1.38-.96-1.62-1.62-.37-1.03.3-1.8,1.27-2.26,1.95-.93,3.89-1.87,5.83-2.82.36-.18.67-.45.88-.92-.37.19-.73.39-1.1.55-2.84,1.26-5.69,2.53-8.54,3.77-.37.16-.81.27-1.21.25-1.02-.04-1.72-.56-1.95-1.6-.23-1.04.29-1.9,1.38-2.34,1.85-.73,3.71-1.46,5.56-2.21.37-.15.72-.38,1.02-.68-1.56.38-3.11.81-4.68,1.11-1,.19-1.79-.25-2.24-1.2-.4-.87-.19-1.66.49-2.26.32-.28.8-.4,1.23-.54,1.85-.61,3.72-1.15,5.56-1.81.35-.13.73-.64.8-1.03.27-1.5,1.02-2.6,2.35-3.35,1.34-.76,2.69-1.51,3.97-2.35,1.57-1.03,3.2-1.22,4.86-.43,1.56.74,3.03,1.66,4.77,2.63,6.52-4.16,13.57-8.17,17.63-15.51-3.71-.86-7.26-1.69-10.81-2.53-.52-.12-1.02-.35-1.55-.49-1.78-.48-2.79-1.64-3.28-3.4-1.97-7.18-4-14.33-5.97-21.51-.25-.91-.67-1.35-1.57-1.65-5.83-1.95-11.63-4.02-17.47-5.96-1.79-.59-3.21-1.47-3.98-3.24,0-.67,0-1.33,0-2ZM104.31,16.93l-.29-.34c-.35-.1-.69-.22-1.05-.3-17.55-4.03-35.1-8.05-52.63-12.12-.85-.2-1.38,0-2.02.49-14.39,11.47-28.79,22.93-43.19,34.39-.3.24-.59.51-.96.84.38.15.6.25.83.33,7.52,2.65,15.03,5.35,22.58,7.93,2.61.89,5.31,1.5,8.1,2.28.27-3.33,1.01-6.25,2.61-8.81,1.58-2.55,3.44-4.93,5.19-7.42-.87-.71-1.87-1.52-3.01-2.45,1.68-1.98,3.17-4.06,4.99-5.8,2.36-2.28,6.18-2.29,8.88-.34,2.63,1.9,3.92,5.55,2.44,8.43-1.26,2.46-3.15,4.6-4.81,6.94-1.82-1.45-3.37-2.69-4.91-3.91-4.08,3.04-7.71,9.98-7.14,13.71.84.06,1.71.15,2.58.17,16.56.41,30.45-6.14,42.69-16.67,6.18-5.32,11.99-11.07,17.98-16.62.33-.3.76-.49,1.14-.73ZM40.46,55.09c.57,1.09.97,1.95,1.45,2.76,1.19,2,2.56,3.91,3.61,5.98,1.32,2.58,2.49,5.24,3.53,7.95.46,1.2.45,2.59.66,3.95,5.27.25,10.4-.41,15.44-1.8.3-.08.59-.31.82-.54,7.47-7.55,14.93-15.1,22.38-22.67.22-.23.47-.68.38-.92-1.16-3.36-2.37-6.71-3.62-10.18-13.09,10.28-27.51,16.36-44.66,15.48ZM69.59,76.25c-4.64,4.46-9.29,8.93-13.93,13.4-.39.37-.77.76-1.1,1.19-2.84,3.63-3.45,7.62-1.6,11.84,3.18,7.21,12.56,8.93,18.27,3.33,4.28-4.2,8.44-8.52,12.65-12.79.13-.13.22-.29.39-.52-7.44-3.48-12.25-9.16-14.67-16.45ZM81.06,63.77c.39.76.73,1.29.92,1.87.19.58.24,1.22.34,1.83,1.3,7.84,5.08,12.01,12.17,13.5.91.19,1.5.04,2.17-.64,6.08-6.22,12.2-12.39,18.32-18.57.22-.22.58-.31.88-.46-.09-.13-.18-.27-.27-.4-4.35.12-8.2-1.15-11.39-4.12-3.18-2.96-4.68-6.73-4.9-10.52-6.01,5.77-12.15,11.67-18.23,17.51ZM27.45,52.67c1.82,6.53,3.62,13,5.47,19.46.1.34.56.72.92.82,2.6.71,5.21,1.39,7.84,1.99,1.22.28,2.49.37,4.15.6-.56-1.96-.8-3.69-1.53-5.17-1.49-3.01-3.29-5.86-4.87-8.82-1.11-2.08-2.07-4.23-3.13-6.34-.14-.29-.42-.64-.7-.7-2.66-.63-5.33-1.21-8.14-1.83ZM118.49,40.69c2.94,4,4.3,8.29,3.47,13.49.35-.51.5-.69.61-.9,3.55-6.52-.48-14.97-7.78-16.28-3.72-.67-7.28,0-9.72,2.87-2.64,3.09-2.23,9.18.55,12.22,4.26-3.77,8.52-7.54,12.88-11.4ZM78.17,67.06c-1.8,1.75-3.52,3.41-5.22,5.1-.15.15-.17.54-.11.79,2.03,7.67,6.53,13.25,13.88,16.42.26.11.73.17.89.02,1.57-1.52,3.09-3.08,4.77-4.78-9.05-2.52-13.16-8.8-14.21-17.56ZM98,85.41c-.14-.01-.28-.03-.42-.04-1.72,1.67-3.48,3.29-5.13,5.02-.43.45-.74,1.2-.74,1.82-.06,5.28-.03,10.56-.03,15.85,0,.35.03.7.06,1.23,2.13-1.83,4.17-1.68,6.3-.03,0-2.59.03-4.96-.01-7.33-.03-1.6.06-3.15.89-4.03-.36-1.26-.84-2.2-.87-3.15-.1-3.11-.04-6.23-.04-9.35ZM114.66,98.85c-4.27-4.26-8.64-8.62-12.71-12.68v10.05c4.11.98,5.67,4.83,8.75,6.87.26-2.58,1.65-4.07,3.97-4.24ZM20.62,106.75c.69-.41,1.53-.87,2.32-1.4,1.28-.87,2.01-2.08,2.08-3.65.03-.61-.07-1.01-.73-1.38-.51-.28-.92-1.06-1.02-1.68-.2-1.21-2.4-2.79-3.48-2.24-1.25.63-2.43,1.4-3.36,1.95.08,1.15.15,2.02.21,2.94,1.58.63,1.66.8,1.64,2.83,0,.34.29.75.55,1.02.52.54,1.11,1.02,1.79,1.62ZM108.5,54.97c2.31,1.52,4.68,1.99,7.22,1.73.27-.03.57-.31.77-.55,1.94-2.27,2.32-6.12.84-9-2.92,2.59-5.82,5.15-8.82,7.81ZM46.26,31.2c1.63,1.3,3.26,2.61,4.88,3.91,2.43-2.45,2.73-4.62.95-6.09-1.81-1.49-3.67-.82-5.84,2.18Z"/>
  </g>
</svg>