<?xml version="1.0" encoding="UTF-8"?>
<svg id="Layer_2" data-name="Layer 2" xmlns="http://www.w3.org/2000/svg" viewBox="0 0 120 120">
  <defs>
    <style>
      .cls-1 {
        stroke-width: 0px;
      }
    </style>
  </defs>
  <g id="Layer_1-2" data-name="Layer 1">
    <g>
      <path class="cls-1" d="M0,63.49c.49-1.18,1.42-1.54,2.63-1.52,1.75.03,3.5,0,5.33,0,.28-13.94,4.98-26.01,14.58-36,9.6-9.99,21.45-15.21,35.35-16.02V3.96h-3.82V0h11.88v3.91h-3.87v6.04c13.87.8,25.76,6.01,35.38,16.03,9.6,9.99,14.3,22.06,14.58,36,1.83,0,3.58.03,5.33,0,1.21-.02,2.14.34,2.63,1.52v2.11c-.07.22-.17.43-.21.66-1.23,6.08-4.89,9.86-10.87,11.4-.66.17-1.35.24-2.08.37.1.25.16.4.22.54,1.82,3.99,1.1,7.35-2.27,10.15-7.93,6.59-15.89,13.14-23.82,19.72-2.98,2.47-6.4,3.6-10.26,3.59-15.11-.02-30.22,0-45.34,0-.45,0-.9,0-1.45,0,0,1.87-.05,3.59.02,5.29.05,1.23-.37,2.11-1.45,2.69H0v-3.99h19.85v-30.02H0v-3.99c6.6,0,13.2-.02,19.79,0,1.04,0,2.08.17,3.12.24.21.01.47-.05.62-.17,1.56-1.27,3.1-2.56,4.92-4.07-.73,0-1.1,0-1.47,0-4.22,0-8.43.03-12.65,0-4.93-.04-8.9-2.02-11.82-6.04-1.38-1.9-2.02-4.1-2.51-6.36v-2.11ZM108.12,61.84c-.9-18.34-8.68-32.65-24.66-41.59-16.99-9.51-34.22-8.68-50.37,2.11-13.83,9.24-20.56,22.78-21.17,39.48h96.19ZM24.03,108.01h1.55c14.96,0,29.91-.02,44.87.02,3.24,0,5.99-.97,8.47-3.07,4.74-4.02,9.56-7.93,14.34-11.89,3.1-2.56,6.21-5.12,9.29-7.7,1.27-1.07,1.81-2.43,1.33-4.08-.47-1.59-1.59-2.46-3.19-2.7-1.25-.19-2.26.4-3.23,1.1-7.14,5.11-14.3,10.2-21.43,15.34-.97.7-1.96,1-3.15.99-7.26-.03-14.53-.01-21.79-.02-.62,0-1.25-.03-1.87-.11-2.29-.3-3.89-1.57-4.75-3.68-.86-2.12-.54-4.14.87-5.95,1.34-1.71,3.18-2.29,5.27-2.29,4.1,0,8.2,0,12.3,0,1.41,0,2.39-.73,2.89-1.99.44-1.11.22-2.29-.72-2.98-.72-.54-1.75-.91-2.65-.92-8.32-.07-16.63,0-24.95-.06-1.96-.01-3.55.61-5.01,1.86-2.49,2.13-5.02,4.23-7.57,6.29-.64.52-.9,1.05-.89,1.88.03,6.21.02,12.42.02,18.64v1.36ZM4.22,66.05c.25.73.41,1.38.69,1.97,1.98,4.16,5.39,5.97,9.89,5.97,16.75,0,33.5,0,50.25,0,13.2,0,26.39,0,39.59,0,.97,0,1.95-.06,2.92-.17,3.9-.45,7.45-3.84,8.11-7.76H4.22ZM92.82,78.09h-23.36c.02.16,0,.24.04.31,1.78,4.55-1.47,9.73-7.05,9.6-3.82-.09-7.65-.02-11.48-.01-.5,0-1.03,0-1.51.13-.89.23-1.38.87-1.41,1.79-.03.97.45,1.65,1.38,1.94.4.13.85.14,1.27.14,7.26,0,14.52.01,21.79,0,.44,0,.97-.09,1.31-.33,6.27-4.44,12.52-8.92,19.02-13.56Z"/>
      <path class="cls-1" d="M9.98,100.02c3.31,0,5.97,2.62,5.99,5.92.02,3.33-2.71,6.08-6,6.06-3.25-.03-5.97-2.77-5.96-6.01,0-3.27,2.7-5.96,5.98-5.96ZM9.94,104.03c-1.04.02-1.93.92-1.93,1.96,0,1.06.99,2.03,2.04,1.99,1.04-.04,1.91-.94,1.91-1.98,0-1.11-.9-1.99-2.02-1.97Z"/>
      <path class="cls-1" d="M32.64,32.82c-.94-1-1.81-1.92-2.74-2.9,8.53-7.81,18.46-11.75,30-11.95v3.98c-10.36.18-19.45,3.75-27.26,10.88Z"/>
      <path class="cls-1" d="M23.21,37.75c1.32-1.71,2.54-3.31,3.85-5.01,1.03.91,1.97,1.75,2.99,2.65-1.15,1.5-2.28,2.96-3.5,4.56-1.04-.69-2.09-1.38-3.33-2.2Z"/>
    </g>
  </g>
</svg>