<?xml version="1.0" encoding="UTF-8"?>
<svg id="Layer_2" data-name="Layer 2" xmlns="http://www.w3.org/2000/svg" viewBox="0 0 120 120">
  <defs>
    <style>
      .cls-1 {
        stroke-width: 0px;
      }
    </style>
  </defs>
  <g id="Layer_1-2" data-name="Layer 1">
    <g>
      <path class="cls-1" d="M55.95,99.79c1.78.74,2.02,1.09,2.02,2.92,0,4.89,0,9.77,0,14.66,0,1.96-.67,2.63-2.65,2.63-8.99,0-17.98,0-26.96,0-1.98,0-2.65-.66-2.66-2.62,0-4.89,0-9.77,0-14.66,0-1.84.24-2.2,2-2.91,0-1.57.07-3.15-.02-4.73-.1-1.81-1.03-3.21-2.38-4.39-4.16-3.65-8.25-7.36-12.45-10.97-2.11-1.82-3.44-3.98-4.15-6.68C6,62.73,3.21,52.47.41,42.21c-1.05-3.85-.12-6.98,3.09-9.43.29-.22.48-.75.48-1.14.09-4.15,2.81-7.5,6.64-8.13,4.01-.65,7.84,1.77,9.21,5.74,2.85,8.28,5.74,16.56,8.65,24.82.16.45.57.92.99,1.17,5.63,3.32,11.28,6.6,16.93,9.9,6.38,3.73,9.55,9.28,9.54,16.64,0,6.01,0,12.03,0,18.01ZM51.91,99.89c0-6.28.03-12.42-.01-18.56-.04-5.5-2.45-9.72-7.21-12.53-5.7-3.37-11.44-6.68-17.16-10.01-2.34-1.36-4.71-.85-5.91,1.23-1.21,2.09-.47,4.35,1.88,5.71,3.56,2.05,7.13,4.09,10.68,6.15,1.36.79,1.75,1.93,1.08,3-.64,1.03-1.78,1.22-3.09.47-3.68-2.1-7.36-4.19-11.01-6.33-3.84-2.26-5.12-6.43-3.32-10.52.17-.39.28-.91.16-1.29-2.02-6.32-4.07-12.63-6.16-18.93-.53-1.61-1.78-2.53-3.44-2.76-2.89-.39-5,2.23-4.19,5.25,2.86,10.68,5.71,21.37,8.69,32.02.36,1.28,1.26,2.57,2.26,3.49,4.19,3.87,8.49,7.61,12.78,11.36,2.56,2.23,3.86,4.99,3.81,8.38-.02,1.28,0,2.56,0,3.87h20.17ZM29.82,104v11.93h24.03v-11.93h-24.03ZM8.09,31.39c4.37.47,6.94,2.87,8.06,6.98.53,1.93,1.22,3.81,1.84,5.71,1.16,3.56,2.32,7.12,3.49,10.69.93-.27,1.76-.52,2.68-.79-1-2.88-1.99-5.7-2.97-8.52-1.74-5-3.46-10-5.21-15-.72-2.05-2.68-3.28-4.69-2.98-1.77.26-3.07,1.81-3.21,3.91Z"/>
      <path class="cls-1" d="M92.25,99.86c1.5.33,2.04,1.23,2.03,2.65-.04,4.97-.01,9.94-.02,14.91,0,1.88-.69,2.57-2.58,2.57-9.03,0-18.06,0-27.09,0-1.9,0-2.59-.68-2.59-2.56,0-4.97.02-9.94-.02-14.91-.01-1.41.49-2.34,2.03-2.65,0-1.71,0-3.42,0-5.12,0-4.43-.02-8.86,0-13.28.05-7.1,3.13-12.52,9.26-16.16,5.66-3.36,11.37-6.62,17.03-9.97.49-.29.98-.81,1.16-1.33,2.91-8.22,5.79-16.45,8.64-24.69,1.41-4.07,5.06-6.44,9.13-5.83,3.87.57,6.6,3.93,6.73,8.18.01.41.29.95.61,1.21,2.92,2.28,4.02,5.22,3.08,8.76-2.88,10.89-5.84,21.76-8.78,32.63-.53,1.95-1.66,3.53-3.17,4.87-4.18,3.68-8.31,7.43-12.54,11.05-2.03,1.74-3.13,3.74-2.94,6.43.08,1.04.01,2.09.01,3.24ZM88.22,99.89c0-1.34.02-2.55,0-3.76-.07-3.48,1.26-6.3,3.9-8.59,4.27-3.71,8.54-7.43,12.69-11.27,1.02-.94,1.91-2.29,2.28-3.62,2.95-10.57,5.77-21.18,8.61-31.78.68-2.52-.43-4.67-2.67-5.29-2.09-.58-4.3.74-5.06,3.06-1.98,6.07-3.97,12.14-5.9,18.23-.17.53-.12,1.24.1,1.75,1.7,3.93.4,8.12-3.29,10.34-1.58.95-3.19,1.85-4.79,2.77-2.18,1.25-4.35,2.53-6.55,3.74-1.4.77-2.91.12-3.12-1.3-.17-1.12.43-1.79,1.35-2.31,3.57-2.03,7.13-4.09,10.69-6.12,1.22-.7,2.16-1.61,2.34-3.07.21-1.62-.28-2.99-1.67-3.93-1.47-.99-2.99-.95-4.51-.07-5.76,3.35-11.52,6.7-17.27,10.07-4.86,2.85-7.29,7.12-7.31,12.73-.02,5.73,0,11.45,0,17.18,0,.4.04.81.06,1.25h20.11ZM90.18,104.04h-24.04v11.88h24.04v-11.88ZM111.85,31.38c0-.28.04-.53,0-.76-.36-1.72-1.82-3.04-3.46-3.16-1.91-.14-3.65.94-4.31,2.79-1.37,3.85-2.69,7.71-4.04,11.57-1.41,4.04-2.82,8.08-4.25,12.17.94.27,1.77.51,2.65.77.13-.37.27-.72.38-1.07,1.66-5.07,3.43-10.11,4.94-15.22,1.22-4.13,3.67-6.63,8.08-7.08Z"/>
      <path class="cls-1" d="M59.99,5.87C64.51,1.66,69.73-.25,75.81.1c10.58.62,19.21,10.31,18.58,20.84-.32,5.37-2.41,9.9-6.23,13.7-8.71,8.64-17.4,17.3-26.11,25.96-1.66,1.65-2.47,1.66-4.1.04-8.91-8.86-17.89-17.64-26.7-26.61C20.84,23.43,25.28,5.59,39.42,1.08c7.23-2.31,13.83-.88,19.65,4.01.28.24.56.48.92.79ZM59.93,56.93c.24-.2.38-.29.5-.4,8.49-8.45,17.04-16.84,25.45-25.37,6.14-6.23,5.96-16.23-.2-22.38-6.21-6.2-16.19-6.31-22.6-.25-.52.49-1.01,1.01-1.53,1.49-1.04.96-2.08.98-3.11.03-.59-.54-1.13-1.13-1.71-1.67-5.26-4.91-13.22-5.73-19.35-2.01-9.11,5.54-10.47,17.65-2.82,25.31,6.4,6.4,12.83,12.76,19.24,19.15,2.02,2.01,4.03,4.02,6.13,6.11Z"/>
      <path class="cls-1" d="M66.03,21.7c2.03,0,3.87-.01,5.71,0,1.58.02,2.33.74,2.35,2.29.02,2.46.02,4.93,0,7.39-.01,1.62-.76,2.33-2.43,2.34-1.84.02-3.67,0-5.64,0,0,1.9,0,3.68,0,5.47,0,1.87-.7,2.55-2.6,2.56-2.35,0-4.7.01-7.05,0-1.72-.01-2.43-.72-2.45-2.45-.01-1.79,0-3.59,0-5.57-1.79,0-3.53,0-5.28,0-2.16,0-2.79-.62-2.79-2.74,0-2.21,0-4.43,0-6.64,0-1.98.66-2.65,2.62-2.65,1.76,0,3.52,0,5.45,0,0-1.85,0-3.62,0-5.4,0-1.96.67-2.61,2.65-2.62,2.35,0,4.7-.01,7.05,0,1.64.01,2.37.74,2.39,2.38.02,1.83,0,3.66,0,5.64ZM62,37.72c0-1.88,0-3.66,0-5.45,0-1.87.7-2.54,2.6-2.55,1.79,0,3.58,0,5.38,0v-4.01c-1.84,0-3.6,0-5.35,0-1.96,0-2.62-.67-2.63-2.65,0-1.78,0-3.55,0-5.31h-4.03c0,1.84,0,3.63,0,5.41,0,1.86-.7,2.54-2.6,2.55-1.79,0-3.58,0-5.38,0v4.01c1.84,0,3.6,0,5.36,0,1.96,0,2.62.67,2.62,2.65,0,1.77,0,3.55,0,5.35h4.03Z"/>
    </g>
  </g>
</svg>