<?xml version="1.0" encoding="UTF-8"?>
<svg id="Layer_2" data-name="Layer 2" xmlns="http://www.w3.org/2000/svg" viewBox="0 0 120 120">
  <defs>
    <style>
      .cls-1 {
        stroke-width: 0px;
      }
    </style>
  </defs>
  <g id="Layer_1-2" data-name="Layer 1">
    <g>
      <path class="cls-1" d="M50.39,0c1.06.49,1.43,1.26,1.42,2.31-.05,3.91-.02,7.81-.02,11.72,0,.42,0,.85,0,1.46.69,0,1.29,0,1.89,0,2.54,0,5.08-.01,7.61,0,2.53.01,3.88,1.16,3.92,3.39.04,2.3,0,4.59,0,7.06,1.28,0,2.43,0,3.57,0,3.3,0,4.62,1.15,4.62,4.03,0,13.48,0,26.95,0,40.43v1.45c4.51,1.29,8.97,2.57,13.44,3.84,9.21,2.62,18.43,5.24,27.64,7.86,1.88.53,2.16.89,2.16,2.61,0,3.36,0,6.72,0,10.08,0,1.41-.69,2.18-1.93,2.21-1.3.03-2.06-.77-2.07-2.22-.01-2.85-.01-5.7,0-8.55,0-.59-.06-.98-.86-1.2-12.52-3.54-25.02-7.12-37.53-10.68-.2-.06-.42-.07-.75-.11v40.73h39.13c0-.36,0-.77,0-1.18,0-3.32-.01-6.64,0-9.96,0-1.41,1.06-2.33,2.36-2.06,1.24.25,1.66,1.03,1.65,2.1-.03,3.4-.01,6.8,0,10.19,0,.3.05.61.07.95.5.02.94.02,1.38.06,1.13.11,1.97.87,1.89,1.78-.09.98-.72,1.58-1.85,1.7-.39.04-.8.02-1.2.02-37.97,0-75.95,0-113.92,0-.36,0-.71.02-1.07-.01C.81,119.89,0,119.16,0,118.24c0-.92.8-1.68,1.94-1.75.79-.05,1.59,0,2.61,0,0-.6,0-1.12,0-1.65,0-21.52,0-43.04,0-64.57,0-.43-.02-.86.02-1.29.16-2.07,1.6-3.28,3.99-3.29,5.34-.02,10.68,0,16.03,0,.48,0,.95,0,1.58,0,0-.54,0-.96,0-1.38,0-4.77,0-9.53,0-14.3,0-2.84,1.41-4.07,4.63-4.08,1.15,0,2.29,0,3.58,0,0-2.26,0-4.4,0-6.54,0-2.74,1.34-3.91,4.47-3.91,2.93,0,5.85,0,8.92,0,0-1.16,0-2.2,0-3.25,0-3.24.03-6.48-.02-9.73-.02-1.06.3-1.9,1.29-2.51h1.34ZM69.32,116.44V29.52H30.28v86.92h39.04ZM26.06,116.44V49.28H8.66v67.16h17.4ZM38.51,19.04v6.82h22.61v-6.82h-22.61Z"/>
      <path class="cls-1" d="M92.75,94.14c-3.73,0-7.47,0-11.2,0-.48,0-1.13.07-1.42-.16-.57-.45-1.22-1.05-1.34-1.66-.16-.83.53-1.45,1.54-1.63.43-.07.89-.06,1.33-.06,7.43,0,14.85,0,22.28,0,.4,0,.81,0,1.2.05,1.01.14,1.59.68,1.65,1.57.07.94-.45,1.58-1.5,1.8-.42.09-.88.09-1.32.09-3.73,0-7.47,0-11.2,0Z"/>
      <path class="cls-1" d="M92.73,102.59c-3.69,0-7.38,0-11.07,0-.57,0-1.32.06-1.67-.21-.56-.44-1.22-1.18-1.16-1.73.06-.55.96-1.03,1.51-1.52.07-.06.26-.04.39-.04,8,0,16.01-.01,24.01,0,1.39,0,2.21.85,2.02,1.96-.2,1.14-1.12,1.52-2.3,1.53-1.64.02-3.29,0-4.94,0-2.27,0-4.54,0-6.8,0Z"/>
      <path class="cls-1" d="M92.87,107.51c3.91,0,7.83-.05,11.74.05.7.02,1.63.52,1.98,1.04.28.41.06,1.37-.35,1.77-.42.42-1.32.6-2.02.62-2.49.07-4.98.03-7.47.03-4.98,0-9.96,0-14.94,0-.36,0-.71.02-1.07-.02-1.24-.12-2.05-.85-2.01-1.81.04-.96.87-1.66,2.14-1.67,2.89-.03,5.78-.01,8.67-.01,1.11,0,2.22,0,3.33,0Z"/>
      <path class="cls-1" d="M49.88,46.87c4.18,0,8.37,0,12.55,0,2.11,0,2.73.53,2.75,2.33.01,1.87.03,3.75,0,5.62-.03,1.4-.71,2.03-2.29,2.03-8.73.02-17.45.02-26.18,0-1.55,0-2.27-.68-2.3-2.05-.03-1.95-.03-3.91,0-5.86.02-1.43.76-2.07,2.39-2.07,4.36-.01,8.73,0,13.09,0ZM61.09,53.29v-2.8h-22.61v2.8h22.61Z"/>
      <path class="cls-1" d="M49.79,110.85c-4.27,0-8.53,0-12.8,0-1.88,0-2.57-.61-2.59-2.26-.01-1.83-.02-3.67,0-5.5.01-1.59.7-2.25,2.48-2.25,8.62-.02,17.25-.02,25.87,0,1.73,0,2.41.63,2.43,2.16.03,1.91.03,3.82,0,5.73-.02,1.51-.73,2.11-2.45,2.12-4.31.01-8.62,0-12.93,0ZM38.47,107.25h22.59v-2.8h-22.59v2.8Z"/>
      <path class="cls-1" d="M49.73,83.87c-4.22,0-8.45,0-12.67,0-1.96,0-2.65-.61-2.67-2.32-.01-1.83-.02-3.67,0-5.5.02-1.56.74-2.2,2.53-2.2,8.58-.01,17.16-.01,25.74,0,1.79,0,2.49.62,2.51,2.2.02,1.87.02,3.74,0,5.62-.02,1.58-.71,2.2-2.51,2.2-4.31.01-8.62,0-12.93,0ZM38.48,80.29h22.62v-2.87h-22.62v2.87Z"/>
      <path class="cls-1" d="M49.74,97.34c-4.23,0-8.46,0-12.69,0-1.99,0-2.65-.58-2.66-2.31-.01-1.84-.02-3.67,0-5.51.02-1.52.72-2.14,2.44-2.14,8.63-.01,17.27-.01,25.9,0,1.75,0,2.41.58,2.43,2.13.03,1.84.02,3.67,0,5.51-.01,1.79-.61,2.32-2.62,2.32-4.27.01-8.55,0-12.82,0ZM61.08,93.75v-2.78h-22.6v2.78h22.6Z"/>
      <path class="cls-1" d="M49.72,70.34c-4.23,0-8.46,0-12.68,0-1.98,0-2.63-.57-2.64-2.32-.01-1.8-.01-3.59,0-5.39.01-1.61.68-2.23,2.46-2.23,8.63-.01,17.27-.01,25.9,0,1.72,0,2.38.56,2.41,2.03.03,1.95.03,3.91,0,5.86-.02,1.47-.71,2.05-2.37,2.06-4.36.01-8.72,0-13.09,0ZM38.47,66.73h22.61v-2.74h-22.61v2.74Z"/>
      <path class="cls-1" d="M61.11,39.75v-2.87c-1.57,0-3.1,0-4.63,0-.67,0-1.34.02-2-.02-1.22-.08-1.94-.72-1.96-1.69-.02-.97.68-1.68,1.89-1.76,1.15-.08,2.31-.04,3.47-.04,1.69,0,3.38-.03,5.07.01,1.52.04,2.21.64,2.23,1.96.04,2.03.04,4.06,0,6.09-.03,1.3-.76,1.93-2.25,1.93-8.72.01-17.44.01-26.16,0-1.61,0-2.33-.66-2.35-2.11-.03-1.91-.02-3.83,0-5.74.02-1.49.74-2.13,2.47-2.14,2.62-.02,5.25-.02,7.88,0,1.45.01,2.37.71,2.39,1.73.02,1.06-.91,1.76-2.45,1.77-2.04.02-4.07,0-6.19,0v2.88h22.62Z"/>
      <path class="cls-1" d="M17.61,90.63c1.07,0,2.13-.03,3.2.01,1.18.05,1.98.74,2.03,1.65.05.95-.78,1.78-2,1.81-2.17.06-4.35.06-6.53,0-1.26-.04-2.02-.83-1.93-1.84.1-1.07.83-1.6,2.02-1.63,1.07-.03,2.13,0,3.2,0Z"/>
      <path class="cls-1" d="M17.59,68.79c-1.02,0-2.05.03-3.06,0-1.38-.05-2.16-.74-2.14-1.78.02-1.01.76-1.67,2.09-1.7,2.09-.04,4.18-.04,6.26,0,1.27.03,2.09.75,2.11,1.71.02.99-.86,1.7-2.19,1.78-.09,0-.18,0-.27,0-.93,0-1.87,0-2.8,0,0,0,0,0,0,0Z"/>
      <path class="cls-1" d="M17.58,73.75c1.07,0,2.13-.03,3.2,0,1.18.04,2,.71,2.06,1.63.07.94-.75,1.79-1.97,1.83-2.17.07-4.35.07-6.53,0-1.28-.04-2.01-.8-1.96-1.81.04-1,.81-1.61,2.14-1.65,1.02-.03,2.04,0,3.07,0Z"/>
      <path class="cls-1" d="M17.56,82.2c1.11,0,2.22-.03,3.33,0,1.15.03,1.79.64,1.93,1.6.13.89-.67,1.79-1.8,1.83-2.31.08-4.62.08-6.92-.01-1.12-.04-1.75-.75-1.71-1.76.04-1,.69-1.6,1.84-1.65,1.11-.05,2.22-.01,3.33-.01,0,0,0,0,0,0Z"/>
      <path class="cls-1" d="M17.57,102.58c-1.02,0-2.05.04-3.07-.01-1.36-.07-2.15-.78-2.12-1.82.03-1.05.82-1.66,2.24-1.68,2-.02,4-.02,6,0,1.34.02,2.22.72,2.22,1.72,0,.99-.86,1.72-2.21,1.77-1.02.04-2.04,0-3.07,0Z"/>
      <path class="cls-1" d="M17.62,111.02c-1.02,0-2.05.03-3.07,0-1.37-.05-2.18-.74-2.17-1.77,0-1.05.79-1.7,2.19-1.72,2.04-.03,4.09-.03,6.13,0,1.26.02,2.1.72,2.14,1.68.03.94-.79,1.73-2.02,1.8-1.06.06-2.13.01-3.2.01,0,0,0,0,0,0Z"/>
      <path class="cls-1" d="M17.71,56.85c.98,0,1.96-.02,2.93,0,1.34.04,2.21.76,2.2,1.75,0,.95-.83,1.7-2.1,1.73-2.13.05-4.27.05-6.4,0-1.28-.04-2.01-.79-1.97-1.8.04-.96.77-1.57,2-1.67.09,0,.18,0,.27,0,1.02,0,2.04,0,3.07,0Z"/>
    </g>
  </g>
</svg>