<?xml version="1.0" encoding="UTF-8"?>
<svg id="Layer_2" data-name="Layer 2" xmlns="http://www.w3.org/2000/svg" viewBox="0 0 120 120">
  <defs>
    <style>
      .cls-1 {
        stroke-width: 0px;
      }
    </style>
  </defs>
  <g id="Layer_1-2" data-name="Layer 1">
    <g>
      <path class="cls-1" d="M120,95.63c-.67,1.43-1.14,2.99-2.04,4.27-1.65,2.36-4.07,3.57-6.97,3.74-.43.02-.86.03-1.29.03-32.57,0-65.14,0-97.7,0-4.91,0-8.48-2.51-9.69-6.87-.27-.96-.39-2-.39-3-.02-16.56-.02-33.12-.02-49.67,0-1.59.66-2.45,1.86-2.44,1.18.01,1.88.92,1.88,2.46,0,11.21,0,22.42,0,33.62,0,.46,0,.92,0,1.43h110.59v-1.25c0-17.57,0-35.15,0-52.72,0-4.1-2.36-6.45-6.48-6.45-19.84,0-39.68,0-59.51,0-.39,0-.78.02-1.17-.01-1.06-.09-1.77-.82-1.78-1.81-.01-.95.72-1.78,1.72-1.91.38-.05.78-.02,1.17-.02,19.72,0,39.44,0,59.16,0,5.75,0,8.96,2.44,10.53,8,.02.07.08.13.12.2v72.4ZM116.46,83.37H5.67c0,3.8,0,7.51,0,11.21,0,.23.05.46.11.69.66,2.98,2.94,4.65,6.4,4.65,26.71,0,53.41,0,80.12,0,5.97,0,11.95.02,17.92,0,3.81-.01,6.21-2.43,6.23-6.23.01-2.54,0-5.08,0-7.61,0-.89,0-1.77,0-2.71Z"/>
      <path class="cls-1" d="M36.12,120c-.81-.62-1.51-1.32-1.08-2.44.43-1.12,1.37-1.35,2.48-1.32,1.95.04,3.9.01,6.02.01,0-1.77,0-3.47,0-5.17,0-.47-.01-.94,0-1.4.05-1.22.78-2.03,1.8-2.05.98-.01,1.88.85,1.91,1.99.06,1.75.02,3.51.02,5.27,0,.42,0,.83,0,1.31h27.18c0-1.91,0-3.81,0-5.72,0-1.93.59-2.85,1.83-2.85,1.24,0,1.92,1.04,1.92,2.94,0,1.83,0,3.67,0,5.69,1.6,0,3.14,0,4.68,0,.66,0,1.33.01,1.99,0,.96-.02,1.69.37,2,1.29.3.89-.07,1.59-.8,2.14-.12.09-.2.21-.3.32h-49.67Z"/>
      <path class="cls-1" d="M75.5,69.76c-1.03-.41-1.89-.66-2.65-1.09-.84-.48-1.6-1.12-2.39-1.69-1.86-1.34-3.36-.71-3.68,1.54-.13.89-.25,1.78-.44,2.66-.42,1.99-1.9,3.29-3.93,3.41-1.05.06-2.11.06-3.16-.02-2-.14-3.59-1.61-3.93-3.58-.17-.96-.35-1.92-.44-2.89-.06-.71-.39-1-1-1.37-1.25-.76-2.13-.44-3.08.46-.56.53-1.22.97-1.87,1.4-1.77,1.17-3.97.94-5.46-.58-.68-.7-1.34-1.42-1.95-2.18-1.21-1.5-1.28-3.3-.19-4.88.64-.93,1.36-1.81,2.03-2.72.68-.92-.11-2.91-1.25-3.13-.92-.18-1.85-.31-2.77-.44-2.13-.3-3.53-1.75-3.67-3.89-.07-1.05-.06-2.11,0-3.16.11-2.01,1.49-3.61,3.47-4.03.99-.21,2-.34,3.01-.46.72-.09,1.1-.41,1.45-1.09.56-1.09.39-1.85-.44-2.66-.53-.51-.96-1.13-1.41-1.72-1.31-1.69-1.31-3.61.04-5.26.59-.72,1.22-1.42,1.88-2.09,1.49-1.53,3.78-1.74,5.56-.52.9.62,1.75,1.31,2.63,1.95.99.72,2.99-.1,3.2-1.31.18-1.08.29-2.17.5-3.24.41-2.1,1.97-3.41,4.1-3.49.94-.03,1.88-.04,2.81,0,2.1.09,3.76,1.57,4.12,3.65.16.96.36,1.92.43,2.89.06.74.43,1,1.04,1.34,1.2.69,2.04.38,3.01-.43,1.25-1.05,2.51-2.13,4.32-2.09,1.24.03,2.3.4,3.14,1.32.61.66,1.22,1.32,1.79,2.01,1.26,1.53,1.35,3.35.23,4.98-.64.93-1.35,1.81-2.02,2.73-.67.91.11,2.89,1.24,3.09.96.18,1.93.31,2.89.45,2.41.37,3.86,1.91,3.97,4.33.05,1.13.06,2.28-.11,3.39-.28,1.88-1.44,3.08-3.28,3.54-.79.2-1.62.42-2.42.39-1.54-.07-2.14.85-2.45,2.08-.09.34.07.83.27,1.15.58.88,1.27,1.68,1.87,2.55,1.17,1.67,1.09,3.49-.22,5.07-.6.72-1.16,1.52-1.89,2.07-.87.65-1.91,1.06-2.89,1.58ZM74.69,65.62q2.4-1.98.86-4.44c-.23-.36-.45-.73-.68-1.09-1.51-2.44-.38-6.68,2.18-8.04.44-.23.94-.37,1.43-.47.96-.19,1.92-.37,2.89-.46.76-.07.98-.42.95-1.14-.11-2.69.51-2.18-2.31-2.63-.42-.07-.84-.16-1.27-.2-1.95-.17-3.09-1.29-3.99-2.99-1.35-2.55-1.16-4.76.86-6.82.27-.28.44-.66.71-.92.8-.78.64-1.38-.15-2.1-1.24-1.12-1.2-1.17-2.51-.19-.5.37-1.08.68-1.49,1.14-2.55,2.86-8.87-.04-9.06-3.68-.05-.85-.25-1.7-.34-2.55-.08-.79-.38-1.24-1.26-1.11-.34.05-.71.04-1.05,0-.77-.09-1.03.31-1.12,1-.13,1.08-.31,2.16-.48,3.24-.19,1.24-.83,2.23-1.91,2.81-3,1.62-4.84,2.19-7.7-.2-2.23-1.86-2.31-1.76-4.09.62-.04.05-.03.14-.06.3.62.83,1.28,1.7,1.93,2.58,1.85,2.48,1.19,6.7-1.49,8.3-1.05.63-2.42.8-3.67,1.01-1.93.33-1.88.27-1.95,2.18-.04,1.06.24,1.58,1.38,1.62.93.03,1.85.27,2.77.41,1.52.23,2.54,1.11,3.22,2.44.25.48.41,1.01.65,1.5.84,1.72.68,3.3-.53,4.8-.77.96-1.49,1.97-2.13,2.84.76.83,1.4,1.54,2.1,2.3,1.15-.89,2.22-1.72,3.3-2.55.27-.21.56-.43.88-.52,3.03-.81,6.78,1.7,7.25,4.81.13.89.24,1.78.4,2.66.05.27.25.71.41.72.85.06,1.74.15,2.54-.08.28-.08.34-1.01.47-1.56.08-.34.15-.69.18-1.04.31-3.56,1.63-4.46,5.32-5.54,1.27-.37,2.46-.04,3.52.78.99.76,1.99,1.5,3.03,2.27Z"/>
      <path class="cls-1" d="M34.71,40.11c-1.66.09-2.74-1.18-4.05-1.98-.39-.23-.89-.42-1.33-.4-.89.03-1.39.57-1.39,1.5,0,.12-.02.23-.04.35-.65,4.42-2.93,6.04-7.37,5.16-1.62-.32-2.7-1.38-3.15-2.97-.23-.82-.34-1.68-.49-2.52-.26-1.51-1.44-2.02-2.67-1.15-.16.11-.32.22-.47.34-3.34,2.68-5.68,2.15-8.16-1.23-1.05-1.43-1.16-3.09-.21-4.59.42-.66.89-1.28,1.34-1.92.98-1.38.5-2.51-1.17-2.77-.12-.02-.23-.03-.35-.04C-.21,27.26-.16,24.56.08,21c.12-1.78,1.59-3.18,3.53-3.58.65-.13,1.31-.21,1.96-.32,1.57-.27,2.08-1.42,1.21-2.75-.49-.75-1.02-1.48-1.46-2.26-.95-1.67-.75-3.33.54-4.74.47-.52.97-1.02,1.49-1.49,1.44-1.31,3.28-1.51,4.97-.53.71.41,1.36.91,2.02,1.39,1.39.99,2.52.52,2.77-1.16.02-.15.03-.31.05-.47C17.78.09,20.25-.2,23.82.07c1.78.13,3.23,1.59,3.61,3.49.13.65.21,1.31.34,1.96.32,1.7,1.38,2.16,2.8,1.22.65-.43,1.29-.88,1.95-1.3,1.7-1.08,3.71-.92,5.19.41.55.5,1.08,1.02,1.56,1.58,1.27,1.44,1.41,3.24.38,4.86-.42.66-.9,1.28-1.35,1.91-.93,1.32-.44,2.47,1.15,2.7.15.02.31.04.46.06,4.39.78,5.67,2.53,5.08,6.96-.23,1.76-1.55,3.1-3.47,3.49-.73.15-1.46.26-2.19.4-1.41.28-1.88,1.43-1.09,2.63.49.75,1,1.49,1.47,2.25.63,1.02.76,2.1.4,3.26-.66,2.05-3.35,4.16-5.41,4.14ZM34.39,8.44c-.84.59-1.6,1.21-2.44,1.7-.66.39-1.38.81-2.11.88-2.93.31-5.65-1.86-6.13-4.75-.14-.83-.3-1.65-.45-2.44h-2.19c-.61,2.6-.41,5.42-3.65,6.79-3.28,1.39-5.11-.76-7.38-2.22-.56.56-1.07,1.08-1.63,1.64.36.52.72.98,1.02,1.47.54.85,1.16,1.68,1.54,2.6.54,1.26-.16,2.41-.58,3.59-.59,1.67-1.66,2.68-3.41,2.96-.81.13-1.62.27-2.41.45-.27.06-.64.2-.74.41-.53,1.11.1,2.26,1.31,2.49.27.05.54.13.81.14,2.75.09,4.19,1.75,5.02,4.16.51,1.46.42,2.82-.55,4.1-.63.83-1.2,1.7-1.73,2.45.53.58.97,1.06,1.42,1.55.8-.57,1.62-1.04,2.3-1.67,2.64-2.46,7.9.29,8.26,3.27.12,1,.36,1.98.56,3.04.81.07,1.57.15,2.38.22.57-2.74.42-5.54,3.69-6.87,3.27-1.33,5.23.61,7.51,2.26.56-.57,1.07-1.09,1.64-1.67-.57-.81-1.1-1.57-1.64-2.33-2.17-3.05-.35-7.6,3.33-8.31.73-.14,1.46-.26,2.18-.44.26-.07.62-.24.71-.46.5-1.25-.06-2.23-1.37-2.46-.81-.14-1.62-.24-2.43-.38-1.32-.23-2.3-.95-2.87-2.16-1.13-2.37-1.4-4.61.55-6.83,1.41-1.6,1.27-1.71-.52-3.21Z"/>
      <path class="cls-1" d="M60.91,97.29c-3.07-.02-5.57-2.52-5.57-5.59,0-3.09,2.58-5.67,5.67-5.64,3.05.03,5.57,2.57,5.58,5.62,0,3.12-2.53,5.63-5.67,5.62ZM62.82,91.56c.02-.95-.87-1.88-1.84-1.91-.99-.03-1.87.81-1.9,1.82-.03,1.02.78,1.85,1.82,1.88,1.03.03,1.9-.78,1.91-1.78Z"/>
      <path class="cls-1" d="M60.94,59.8c-5.88,0-10.64-4.74-10.68-10.62-.04-5.81,4.91-10.74,10.76-10.72,5.85.03,10.64,4.86,10.62,10.7-.02,5.81-4.89,10.65-10.7,10.65ZM60.88,56.05c3.78.03,6.97-3.1,7.01-6.87.04-3.73-3.18-6.97-6.92-6.98-3.74,0-6.96,3.2-6.96,6.94,0,3.71,3.16,6.87,6.86,6.9Z"/>
      <path class="cls-1" d="M31.9,22.53c0,5.26-4.17,9.35-9.52,9.36-5.4.01-9.63-4.14-9.6-9.41.04-5.31,4.26-9.52,9.55-9.53,5.41-.01,9.58,4.16,9.57,9.58ZM22.29,28.35c3.1.03,5.83-2.61,5.85-5.66.02-3.07-2.71-5.92-5.74-5.98-3.13-.06-5.83,2.59-5.87,5.77-.04,3.14,2.61,5.84,5.76,5.88Z"/>
    </g>
  </g>
</svg>