<?xml version="1.0" encoding="UTF-8"?>
<svg id="Layer_2" data-name="Layer 2" xmlns="http://www.w3.org/2000/svg" viewBox="0 0 478.02 477.46">
  <defs>
    <style>
      .cls-1 {
        stroke-width: 0px;
      }
    </style>
  </defs>
  <g id="Layer_1-2" data-name="Layer 1">
    <g>
      <path class="cls-1" d="M478.02,245.68c-2,4.5-3.39,9.4-6.11,13.41-6.29,9.27-15.63,13.58-26.71,13.61-39.65.1-79.29.14-118.94-.02-14.27-.06-24.31-10.21-24.6-24.46-.2-9.95-.32-19.92.12-29.85.13-2.95,1.54-6.52,3.59-8.61,15.07-15.49,30.47-30.66,45.72-45.97,2.77-2.79,5.92-4.14,9.68-2.61,3.77,1.54,5.08,4.79,5.08,8.67,0,11.04,0,22.08,0,33.12,0,1.67,0,3.33,0,5.51,2.14,0,3.81,0,5.47,0,24.1,0,48.2-.03,72.3.01,14.11.03,24.93,5.78,31.31,18.69,1.41,2.86,2.08,6.09,3.09,9.15v9.34ZM349.78,189.31c-.36-.14-.73-.28-1.09-.42-9.44,9.44-18.98,18.78-28.23,28.41-1.59,1.66-2.6,4.48-2.73,6.83-.36,6.83-.13,13.68-.13,20.53,0,9.67,2.45,12.11,12.18,12.11,37.63,0,75.27.01,112.9-.02,2.32,0,4.69-.11,6.93-.63,11.1-2.56,15.92-15.38,9.36-24.7-3.91-5.55-9.61-6.9-15.97-6.89-27.37.04-54.74.03-82.11,0-8.72,0-11.07-2.37-11.1-11.08-.03-8.04,0-16.09,0-24.13Z"/>
      <path class="cls-1" d="M478.02,72.03c-3.06,8.37-5,17.4-9.39,25-14.8,25.63-45.03,37.02-73.23,28.56-27.91-8.37-46.7-34.75-45.47-63.81,1.26-29.76,21.97-54.28,51.03-60.43,35.18-7.44,70.28,16.63,76.12,52.19.2,1.2.62,2.37.93,3.55v14.94ZM413.96,112.24c26.3-.03,48.11-21.87,48.06-48.11-.05-26.17-22.02-48.08-48.2-48.05-26.26.03-47.98,21.86-47.94,48.21.03,26.46,21.61,47.99,48.08,47.95Z"/>
      <path class="cls-1" d="M257.8,342.54c-4.29-4.07-8.08-7.53-11.71-11.14-16.96-16.91-34.05-33.7-50.78-50.83-19.46-19.94-12.19-51.29,13.68-59.42,12.34-3.88,23.62-1.39,33.58,6.88,1.31,1.09,2.55,2.29,3.75,3.5,30.02,30.02,60.08,60,90.04,90.08,16.93,16.99,17.52,42,1.36,57.93-2.95,2.91-6.43,5.47-10.06,7.46-36.81,20.08-73.62,40.17-110.63,59.89-18.02,9.6-39.06,2.78-48.33-14.91-9.94-18.99-4.02-39.46,14.61-49.53,22.95-12.41,46.03-24.58,69.05-36.86,1.48-.79,2.93-1.64,5.42-3.04ZM333.36,353.09c.11-9.3-3.36-15.28-8.64-20.54-29.84-29.77-59.62-59.59-89.44-89.39-1.1-1.1-2.22-2.18-3.44-3.14-10.65-8.38-26.21-3.62-30.26,9.32-2.61,8.34.21,15.13,6.19,21.09,22.04,21.95,44.01,43.97,66,65.98,7.36,7.36,6.6,12.45-2.58,17.34-26.6,14.17-53.21,28.29-79.79,42.49-11.05,5.91-14.5,16.84-8.88,27.61,5.59,10.71,16.7,14.14,27.71,8.55,1.66-.84,3.28-1.77,4.92-2.66,34.55-18.72,69.08-37.48,103.67-56.15,8.91-4.81,14.19-11.8,14.54-20.51Z"/>
      <path class="cls-1" d="M237.24,103.83c-1.74,2.45-2.57,4.02-3.76,5.22-22.29,22.37-44.57,44.75-66.97,67-15.56,15.46-37.53,15.67-51.93.73-12.11-12.57-13.11-32.33-2.27-46.08,1.34-1.71,2.83-3.31,4.37-4.85,30.23-30.27,60.46-60.53,90.74-90.76,12.28-12.26,26.82-16.92,43.41-10.8,5.92,2.18,11.67,6.07,16.21,10.5,22.72,22.15,45.1,44.65,67.42,67.21,18.55,18.74,14.32,46.77-8.56,58.25-13.63,6.84-29.5,3.67-41.78-8.52-14.24-14.14-28.4-28.36-42.56-42.58-1.2-1.21-2.16-2.66-4.3-5.33ZM310.85,148.11c2.66-.74,5.48-1.15,7.97-2.27,12.8-5.8,15.04-21.61,4.5-32.21-22.04-22.18-44.18-44.26-66.28-66.37-12.88-12.88-26.19-12.93-39.01-.11-29.71,29.69-59.4,59.4-89.08,89.11-1.43,1.43-2.84,2.89-4.06,4.49-8.9,11.7-2.4,28.08,12.09,30.5,7.6,1.27,13.56-1.76,18.8-7.03,24.38-24.46,48.82-48.85,73.24-73.27,6.98-6.98,10-6.96,17.08.12,16.5,16.5,33.02,32.98,49.48,49.52,4.22,4.24,8.98,7.13,15.27,7.53Z"/>
      <path class="cls-1" d="M36.68,477.27c-16.64.47-27.09-6.93-33.22-20.15-6.01-12.97-4.05-25.46,4.8-36.74,1.53-1.95,3.27-3.75,5.02-5.51,45.63-45.66,91.27-91.31,136.91-136.95,7.14-7.14,10.2-7.12,17.44.11,11.22,11.22,22.45,22.42,33.65,33.66,5.7,5.72,5.74,9.42.1,15.07-46.51,46.54-93.02,93.08-139.57,139.57-7.31,7.3-15.75,12.16-25.13,10.93ZM158.4,292.51c-.6.55-1.41,1.24-2.16,2-44.32,44.34-88.63,88.69-132.94,133.05-1.21,1.21-2.38,2.47-3.39,3.84-6.12,8.34-4.52,19.89,3.58,26.31,8.48,6.71,18.78,5.55,27.56-3.23,44.01-43.99,88-88,131.99-132.01.97-.97,1.87-2.01,2.56-2.75-9.07-9.07-17.94-17.95-27.21-27.22Z"/>
    </g>
  </g>
</svg>