<?xml version="1.0" encoding="UTF-8"?>
<svg id="Layer_2" data-name="Layer 2" xmlns="http://www.w3.org/2000/svg" viewBox="0 0 120 120">
  <defs>
    <style>
      .cls-1 {
        stroke-width: 0px;
      }
    </style>
  </defs>
  <g id="Layer_1-2" data-name="Layer 1">
    <g id="Travels">
      <path class="cls-1" d="M0,47.11c.54-2.2,1.19-4.35,2.63-6.18,2.36-3.02,5.42-4.75,9.23-5.13.58-.06,1.16-.09,1.81-.14v-11.64c-.31-.03-.58-.06-.84-.08-1.27-.1-1.97-.74-1.99-1.99-.04-2.42-.04-4.84,0-7.26.02-1.3.77-2.02,2.08-2.02,10.04-.01,20.07-.01,30.11,0,1.33,0,2.01.68,2.04,2.03.04,2.11.01,4.22.01,6.33,0,2.43-.34,2.8-2.79,2.97v11.51c1.63.31,3.29.45,4.82.96,5.41,1.8,8.81,6.67,8.83,12.64.03,17.85.03,35.69,0,53.54,0,4.3-2.29,7.47-6.36,8.84-.97.33-.75.94-.76,1.55-.04,3.59-1.55,5.66-4.96,6.77-.1.03-.18.13-.28.19h-2.34c-.09-.06-.18-.16-.28-.19-3.38-1.07-4.97-3.2-5.04-6.71,0-.37-.05-.74-.07-1.1h-15.9c0,.57,0,1.03,0,1.5-.03,2.51-1.15,4.4-3.3,5.66-.59.35-1.26.57-1.89.84h-2.34c-3.71-1.16-5.54-3.64-5.39-7.58.01-.3-.41-.78-.74-.89-2.13-.77-3.89-2.02-4.99-4.01-.56-1.01-.88-2.14-1.31-3.22,0-19.06,0-38.12,0-57.19ZM12.39,108.07c0-.53,0-.91,0-1.29,0-16.87,0-33.74-.03-50.61,0-3.04-.08-6.1-1.3-8.97-.84-1.98-2.21-3.36-4.29-4.01-.69-.22-1.16-.08-1.56.58-1.04,1.72-1.47,3.57-1.47,5.58.02,17.61.01,35.23.01,52.84,0,.39-.01.78.02,1.17.18,2.38,2.2,4.56,4.47,4.71,1.32.09,2.65.02,4.16.02ZM43.59,108.08c1.11,0,2.08,0,3.04,0,3.4.01,5.57-2.09,5.57-5.52.02-17.84,0-35.68,0-53.52,0-1.87-.47-3.61-1.44-5.23-.43-.71-.9-.83-1.64-.59-2.42.77-3.91,2.51-4.5,4.84-.55,2.13-.95,4.37-.96,6.56-.08,17.53-.06,35.05-.07,52.58,0,.23,0,.46,0,.88ZM16.22,87.68v20.36h23.58v-20.36h-23.58ZM16.17,55.25h23.64c.38-5.82.77-11.58,6.46-15.19-1.31-.29-2.58-.55-3.84-.58-2.42-.05-4.84.07-7.25.06-6.94-.01-13.89-.08-20.83-.06-1.54,0-3.07.27-4.61.42,0,.12.01.23.02.35,5.67,3.47,6.04,9.22,6.43,15.01ZM39.78,83.8v-15.77h-23.59v15.77h23.59ZM17.58,35.57h20.79v-11.52h-20.79v11.52ZM39.78,64.15v-4.99h-23.59v4.99h23.59ZM41.28,16.51H14.64v3.58h26.64v-3.58ZM16.16,112.09h-5.29c-.13,1.51-.11,2.86,1.27,3.72.95.59,1.93.58,2.86-.02,1.38-.89,1.28-2.27,1.16-3.7ZM39.74,112.04c-.15,1.57-.14,2.95,1.31,3.81.96.57,1.94.53,2.86-.1,1.34-.92,1.22-2.28,1.09-3.71h-5.26Z"/>
      <path class="cls-1" d="M120,58.13c-.6,2-1.22,4-1.81,6.01-.66,2.26-2.08,2.64-3.72.98-6.43-6.49-12.86-12.98-19.28-19.49-.33-.33-.56-.75-.91-1.24-2.26,2.8-4.34,5.33-6.35,7.91-.2.26-.16.81-.05,1.18.67,2.44,1.36,4.88,2.1,7.3.32,1.03.18,1.87-.5,2.71-1.25,1.55-2.43,3.16-3.65,4.72-1.07,1.37-2.27,1.39-3.39.04-1.27-1.53-2.51-3.09-3.84-4.72-1.99,1.03-3.98.9-5.84-.31-1.82-1.19-2.79-2.9-2.68-5.2-1.91-.51-3.78-1.02-5.66-1.52-1.97-.53-2.43-1.58-1.46-3.39.88-1.65,1.84-3.27,2.65-4.95.55-1.13,1.39-1.58,2.57-1.72,2.44-.29,4.88-.62,7.31-1,.43-.07.98-.37,1.17-.73,1.36-2.54,2.65-5.13,3.96-7.7.12-.24.23-.49.41-.87-.43-.18-.84-.37-1.26-.53-8.54-3.22-17.07-6.43-25.61-9.65-2.38-.9-2.6-2.37-.62-4.01,1.51-1.24,2.97-2.53,4.54-3.69.54-.4,1.35-.7,2.01-.65,6.42.52,12.83,1.12,19.25,1.7,2.95.27,5.91.52,8.86.83.74.08,1.11-.15,1.43-.82,1.03-2.14,2.03-4.31,3.24-6.36,3.66-6.18,8.67-10.77,15.7-12.86.07-.02.13-.08.2-.12.78,0,1.56,0,2.34,0,3.2.94,4.72,3.27,4.84,6.42.23,6.34-1.51,12.19-5.1,17.42-1.43,2.09-3.14,3.99-4.77,5.93-.55.66-.65,1.14-.21,1.94,4.56,8.08,9.08,16.2,13.61,24.3.14.26.35.48.53.72v1.41ZM112.28,7.92c0-.35.02-.7,0-1.05-.14-2.75-1.58-3.85-4.11-2.79-1.88.78-3.65,1.93-5.32,3.12-4.18,2.95-6.63,7.2-8.88,11.7-6.53,13.08-13.21,26.08-19.86,39.09-.51,1-.06,1.58.64,2.06.75.51,1.48.69,2.23-.24,9.95-12.34,19.91-24.67,29.91-36.97,3.55-4.37,4.89-9.48,5.4-14.92ZM57.86,23.38c8.28,3.11,16.47,6.2,24.73,9.3,1.54-2.98,3.04-5.87,4.55-8.79-.27-.09-.37-.15-.48-.16-8.12-.73-16.26-1.37-24.36-2.24-1.96-.21-3.18.46-4.44,1.9ZM96.51,41.93c6.37,6.17,12.64,12.24,18.86,18.26.08-.96,1.1-2,.3-3.39-4.15-7.32-8.24-14.67-12.36-22.01-.14-.25-.33-.47-.53-.76-2.07,2.61-4.08,5.14-6.27,7.9ZM84.08,64.35c.7-.91,1.3-1.68,1.86-2.47.14-.2.26-.52.2-.73-.42-1.59-.9-3.16-1.4-4.91-1.17,1.43-2.22,2.68-3.21,3.98-.16.21-.13.75.04.98.76,1.04,1.6,2.01,2.51,3.14ZM71.64,54.54c.85-1.69,1.67-3.32,2.59-5.13-1.83.26-3.37.48-4.9.72-.24.04-.55.16-.67.35-.54.89-1.02,1.82-1.58,2.84,1.6.43,3.04.81,4.56,1.22Z"/>
      <path class="cls-1" d="M65.39,120c-.96-.65-1.26-1.55-1.2-2.7.08-1.63.02-3.26.02-5.02-1.62,0-3.13,0-4.64,0-1.74-.01-2.37-.65-2.38-2.42,0-1.48.07-2.97-.02-4.45-.2-3.33.92-5.82,4.25-7,0-3.68,0-7.31,0-10.94,0-4.65,2.78-7.46,7.42-7.46,13.16-.01,26.32-.01,39.48,0,4.65,0,7.42,2.79,7.43,7.45,0,3.36-.01,6.72.02,10.07,0,.36.19.93.45,1.03,2.03.8,3.15,2.34,3.79,4.33v8.2c-.65.95-1.55,1.26-2.69,1.2-1.41-.08-2.84-.02-4.33-.02,0,1.79-.06,3.42.02,5.04.06,1.15-.25,2.03-1.2,2.68h-6.8c-.48-.44-1.01-.85-1.44-1.34-1.6-1.81-3.21-3.62-4.74-5.48-.58-.71-1.21-.93-2.1-.92-4.37.04-8.75.26-13.09-.06-3.31-.25-5.58.73-7.44,3.44-1.1,1.61-2.66,2.92-4.01,4.37h-6.8ZM111.98,98.16c0-3.92.06-7.74-.03-11.56-.04-1.76-1.34-2.83-3.24-2.84-13.39-.02-26.78-.02-40.18,0-2.15,0-3.31,1.22-3.34,3.37-.02,2.07,0,4.14,0,6.21,0,1.59,0,3.18,0,4.87,1.15,0,2.15,0,3.16,0,.26,0,.53-.05.89-.09,0-.98-.02-1.91,0-2.83.06-2.55,1.59-4.07,4.12-4.09,3.05-.02,6.09-.02,9.14,0,2.49.02,3.99,1.54,4.04,4.03.02.96,0,1.93,0,2.92h4.08c0-.99-.01-1.92,0-2.85.04-2.56,1.54-4.08,4.1-4.09,3.01-.02,6.01-.02,9.02,0,2.58.01,4.14,1.56,4.19,4.15.02.92,0,1.84,0,2.81h4.03ZM116.25,108.47c0-1.45.02-2.85,0-4.24-.02-1.47-.8-2.22-2.26-2.22-13.77.02-27.55.05-41.32.06-3.16,0-6.32-.04-9.48-.06-1.25,0-2.16.65-2.21,1.77-.08,1.54-.02,3.1-.02,4.69h55.3ZM82.74,98.16v-3.16h-9.66v3.16h9.66ZM94.44,98.12h9.68v-3.11h-9.68v3.11ZM68.02,116.31c1.02-.09,2.22.16,2.85-.32,1.22-.94,2.13-2.3,3.28-3.63h-6.13v3.95ZM109.15,116.12v-3.73h-6.06c.73.85,1.44,1.5,1.92,2.28,1.01,1.62,2.42,1.85,4.14,1.45Z"/>
    </g>
  </g>
</svg>