<svg width="157" height="54" viewBox="0 0 157 54" fill="none" xmlns="http://www.w3.org/2000/svg">
<g filter="url(#filter0_d_351_92)">
<rect x="28.5" y="2.5" width="113" height="35" rx="17.5" fill="#DEF5FF"/>
<rect x="28.5" y="2.5" width="113" height="35" rx="17.5" stroke="#6F6F6F"/>
<path d="M53.594 15.242V16.278H49.352V19.568H52.796V20.604H49.352V25H48.078V15.242H53.594ZM62.4367 17.328V25H61.1627V23.866C60.92 24.258 60.5794 24.566 60.1407 24.79C59.7114 25.0047 59.2354 25.112 58.7127 25.112C58.1154 25.112 57.5787 24.9907 57.1027 24.748C56.6267 24.496 56.2487 24.1227 55.9687 23.628C55.698 23.1333 55.5627 22.5313 55.5627 21.822V17.328H56.8227V21.654C56.8227 22.41 57.014 22.9933 57.3967 23.404C57.7794 23.8053 58.302 24.006 58.9647 24.006C59.646 24.006 60.1827 23.796 60.5747 23.376C60.9667 22.956 61.1627 22.3447 61.1627 21.542V17.328H62.4367ZM68.8258 17.188C69.7591 17.188 70.5151 17.4727 71.0938 18.042C71.6724 18.602 71.9618 19.414 71.9618 20.478V25H70.7018V20.66C70.7018 19.8947 70.5104 19.3113 70.1278 18.91C69.7451 18.4993 69.2224 18.294 68.5598 18.294C67.8878 18.294 67.3511 18.504 66.9498 18.924C66.5578 19.344 66.3618 19.9553 66.3618 20.758V25H65.0878V17.328H66.3618V18.42C66.6138 18.028 66.9544 17.7247 67.3838 17.51C67.8224 17.2953 68.3031 17.188 68.8258 17.188ZM74.0668 21.15C74.0668 20.3567 74.2255 19.666 74.5428 19.078C74.8602 18.4807 75.2988 18.0187 75.8588 17.692C76.4282 17.3653 77.0768 17.202 77.8048 17.202C78.7475 17.202 79.5222 17.4307 80.1288 17.888C80.7448 18.3453 81.1508 18.98 81.3468 19.792H79.9748C79.8442 19.3253 79.5875 18.9567 79.2048 18.686C78.8315 18.4153 78.3648 18.28 77.8048 18.28C77.0768 18.28 76.4888 18.532 76.0408 19.036C75.5928 19.5307 75.3688 20.2353 75.3688 21.15C75.3688 22.074 75.5928 22.788 76.0408 23.292C76.4888 23.796 77.0768 24.048 77.8048 24.048C78.3648 24.048 78.8315 23.9173 79.2048 23.656C79.5782 23.3947 79.8348 23.0213 79.9748 22.536H81.3468C81.1415 23.32 80.7308 23.95 80.1148 24.426C79.4988 24.8927 78.7288 25.126 77.8048 25.126C77.0768 25.126 76.4282 24.9627 75.8588 24.636C75.2988 24.3093 74.8602 23.8473 74.5428 23.25C74.2255 22.6527 74.0668 21.9527 74.0668 21.15ZM85.1008 18.378V22.9C85.1008 23.2733 85.1801 23.5393 85.3388 23.698C85.4974 23.8473 85.7728 23.922 86.1647 23.922H87.1028V25H85.9548C85.2454 25 84.7134 24.8367 84.3588 24.51C84.0041 24.1833 83.8268 23.6467 83.8268 22.9V18.378H82.8328V17.328H83.8268V15.396H85.1008V17.328H87.1028V18.378H85.1008ZM89.8044 16.082C89.5617 16.082 89.3564 15.998 89.1884 15.83C89.0204 15.662 88.9364 15.4567 88.9364 15.214C88.9364 14.9713 89.0204 14.766 89.1884 14.598C89.3564 14.43 89.5617 14.346 89.8044 14.346C90.0377 14.346 90.2337 14.43 90.3924 14.598C90.5604 14.766 90.6444 14.9713 90.6444 15.214C90.6444 15.4567 90.5604 15.662 90.3924 15.83C90.2337 15.998 90.0377 16.082 89.8044 16.082ZM90.4204 17.328V25H89.1464V17.328H90.4204ZM96.4377 25.126C95.719 25.126 95.0657 24.9627 94.4777 24.636C93.899 24.3093 93.4417 23.8473 93.1057 23.25C92.779 22.6433 92.6157 21.9433 92.6157 21.15C92.6157 20.366 92.7837 19.6753 93.1197 19.078C93.465 18.4713 93.9317 18.0093 94.5197 17.692C95.1077 17.3653 95.7657 17.202 96.4937 17.202C97.2217 17.202 97.8797 17.3653 98.4677 17.692C99.0557 18.0093 99.5177 18.4667 99.8537 19.064C100.199 19.6613 100.372 20.3567 100.372 21.15C100.372 21.9433 100.194 22.6433 99.8397 23.25C99.4943 23.8473 99.023 24.3093 98.4257 24.636C97.8283 24.9627 97.1657 25.126 96.4377 25.126ZM96.4377 24.006C96.895 24.006 97.3243 23.8987 97.7257 23.684C98.127 23.4693 98.449 23.1473 98.6917 22.718C98.9437 22.2887 99.0697 21.766 99.0697 21.15C99.0697 20.534 98.9483 20.0113 98.7057 19.582C98.463 19.1527 98.1457 18.8353 97.7537 18.63C97.3617 18.4153 96.937 18.308 96.4797 18.308C96.013 18.308 95.5837 18.4153 95.1917 18.63C94.809 18.8353 94.501 19.1527 94.2677 19.582C94.0343 20.0113 93.9177 20.534 93.9177 21.15C93.9177 21.7753 94.0297 22.3027 94.2537 22.732C94.487 23.1613 94.795 23.4833 95.1777 23.698C95.5603 23.9033 95.9803 24.006 96.4377 24.006ZM106.285 17.188C107.218 17.188 107.974 17.4727 108.553 18.042C109.131 18.602 109.421 19.414 109.421 20.478V25H108.161V20.66C108.161 19.8947 107.969 19.3113 107.587 18.91C107.204 18.4993 106.681 18.294 106.019 18.294C105.347 18.294 104.81 18.504 104.409 18.924C104.017 19.344 103.821 19.9553 103.821 20.758V25H102.547V17.328H103.821V18.42C104.073 18.028 104.413 17.7247 104.843 17.51C105.281 17.2953 105.762 17.188 106.285 17.188ZM114.718 25.126C114.13 25.126 113.602 25.028 113.136 24.832C112.669 24.6267 112.3 24.3467 112.03 23.992C111.759 23.628 111.61 23.2127 111.582 22.746H112.898C112.935 23.1287 113.112 23.4413 113.43 23.684C113.756 23.9267 114.181 24.048 114.704 24.048C115.189 24.048 115.572 23.9407 115.852 23.726C116.132 23.5113 116.272 23.2407 116.272 22.914C116.272 22.578 116.122 22.3307 115.824 22.172C115.525 22.004 115.063 21.8407 114.438 21.682C113.868 21.5327 113.402 21.3833 113.038 21.234C112.683 21.0753 112.375 20.8467 112.114 20.548C111.862 20.24 111.736 19.8387 111.736 19.344C111.736 18.952 111.852 18.5927 112.086 18.266C112.319 17.9393 112.65 17.6827 113.08 17.496C113.509 17.3 113.999 17.202 114.55 17.202C115.399 17.202 116.085 17.4167 116.608 17.846C117.13 18.2753 117.41 18.8633 117.448 19.61H116.174C116.146 19.2087 115.982 18.8867 115.684 18.644C115.394 18.4013 115.002 18.28 114.508 18.28C114.05 18.28 113.686 18.378 113.416 18.574C113.145 18.77 113.01 19.0267 113.01 19.344C113.01 19.596 113.089 19.806 113.248 19.974C113.416 20.1327 113.621 20.2633 113.864 20.366C114.116 20.4593 114.461 20.5667 114.9 20.688C115.45 20.8373 115.898 20.9867 116.244 21.136C116.589 21.276 116.883 21.4907 117.126 21.78C117.378 22.0693 117.508 22.4473 117.518 22.914C117.518 23.334 117.401 23.712 117.168 24.048C116.934 24.384 116.603 24.65 116.174 24.846C115.754 25.0327 115.268 25.126 114.718 25.126Z" fill="black"/>
<path d="M151.788 38.0102L145.88 39.8801L144.01 45.7884L140.889 34.8891L151.788 38.0102Z" fill="#A3FF2E" stroke="black" stroke-width="0.8" stroke-miterlimit="10"/>
<path d="M18.728 15.888L17.744 20.496H21.32V21.456H17.528L16.352 27H15.296L16.472 21.456H10.808L9.632 27H8.576L9.752 21.456H5.912V20.496H9.968L10.952 15.888H7.16V14.928H11.144L12.368 9.24H13.424L12.2 14.928H17.864L19.088 9.24H20.144L18.92 14.928H22.568V15.888H18.728ZM17.672 15.888H12.008L11.024 20.496H16.688L17.672 15.888Z" fill="black" fill-opacity="0.6"/>
</g>
<defs>
<filter id="filter0_d_351_92" x="0.912109" y="0" width="155.262" height="53.1745" filterUnits="userSpaceOnUse" color-interpolation-filters="sRGB">
<feFlood flood-opacity="0" result="BackgroundImageFix"/>
<feColorMatrix in="SourceAlpha" type="matrix" values="0 0 0 0 0 0 0 0 0 0 0 0 0 0 0 0 0 0 127 0" result="hardAlpha"/>
<feOffset dx="-1" dy="2"/>
<feGaussianBlur stdDeviation="2"/>
<feComposite in2="hardAlpha" operator="out"/>
<feColorMatrix type="matrix" values="0 0 0 0 0 0 0 0 0 0 0 0 0 0 0 0 0 0 0.3 0"/>
<feBlend mode="normal" in2="BackgroundImageFix" result="effect1_dropShadow_351_92"/>
<feBlend mode="normal" in="SourceGraphic" in2="effect1_dropShadow_351_92" result="shape"/>
</filter>
</defs>
</svg>
