<svg width="169" height="47" viewBox="0 0 169 47" fill="none" xmlns="http://www.w3.org/2000/svg">
<g filter="url(#filter0_d_351_97)">
<rect x="30.5" y="2.5" width="111" height="35" rx="17.5" fill="#FEDBFF"/>
<rect x="30.5" y="2.5" width="111" height="35" rx="17.5" stroke="#6F6F6F"/>
<path d="M54.002 25.098C53.0967 25.098 52.2707 24.888 51.524 24.468C50.7773 24.0387 50.1847 23.446 49.746 22.69C49.3167 21.9247 49.102 21.066 49.102 20.114C49.102 19.162 49.3167 18.308 49.746 17.552C50.1847 16.7867 50.7773 16.194 51.524 15.774C52.2707 15.3447 53.0967 15.13 54.002 15.13C54.9167 15.13 55.7473 15.3447 56.494 15.774C57.2407 16.194 57.8287 16.782 58.258 17.538C58.6873 18.294 58.902 19.1527 58.902 20.114C58.902 21.0753 58.6873 21.934 58.258 22.69C57.8287 23.446 57.2407 24.0387 56.494 24.468C55.7473 24.888 54.9167 25.098 54.002 25.098ZM54.002 23.992C54.6833 23.992 55.2947 23.8333 55.836 23.516C56.3867 23.1987 56.816 22.746 57.124 22.158C57.4413 21.57 57.6 20.8887 57.6 20.114C57.6 19.33 57.4413 18.6487 57.124 18.07C56.816 17.482 56.3913 17.0293 55.85 16.712C55.3087 16.3947 54.6927 16.236 54.002 16.236C53.3113 16.236 52.6953 16.3947 52.154 16.712C51.6127 17.0293 51.1833 17.482 50.866 18.07C50.558 18.6487 50.404 19.33 50.404 20.114C50.404 20.8887 50.558 21.57 50.866 22.158C51.1833 22.746 51.6127 23.1987 52.154 23.516C52.7047 23.8333 53.3207 23.992 54.002 23.992ZM62.3579 18.742C62.6099 18.3033 62.9832 17.9393 63.4779 17.65C63.9819 17.3513 64.5652 17.202 65.2279 17.202C65.9092 17.202 66.5252 17.3653 67.0759 17.692C67.6359 18.0187 68.0745 18.4807 68.3919 19.078C68.7092 19.666 68.8679 20.352 68.8679 21.136C68.8679 21.9107 68.7092 22.6013 68.3919 23.208C68.0745 23.8147 67.6359 24.286 67.0759 24.622C66.5252 24.958 65.9092 25.126 65.2279 25.126C64.5745 25.126 63.9959 24.9813 63.4919 24.692C62.9972 24.3933 62.6192 24.0247 62.3579 23.586V28.64H61.0839V17.328H62.3579V18.742ZM67.5659 21.136C67.5659 20.5573 67.4492 20.0533 67.2159 19.624C66.9825 19.1947 66.6652 18.868 66.2639 18.644C65.8719 18.42 65.4379 18.308 64.9619 18.308C64.4952 18.308 64.0612 18.4247 63.6599 18.658C63.2679 18.882 62.9505 19.2133 62.7079 19.652C62.4745 20.0813 62.3579 20.5807 62.3579 21.15C62.3579 21.7287 62.4745 22.2373 62.7079 22.676C62.9505 23.1053 63.2679 23.4367 63.6599 23.67C64.0612 23.894 64.4952 24.006 64.9619 24.006C65.4379 24.006 65.8719 23.894 66.2639 23.67C66.6652 23.4367 66.9825 23.1053 67.2159 22.676C67.4492 22.2373 67.5659 21.724 67.5659 21.136ZM78.0448 20.87C78.0448 21.1127 78.0308 21.3693 78.0028 21.64H71.8708C71.9175 22.396 72.1741 22.9887 72.6408 23.418C73.1168 23.838 73.6908 24.048 74.3628 24.048C74.9135 24.048 75.3708 23.922 75.7348 23.67C76.1081 23.4087 76.3695 23.0633 76.5188 22.634H77.8908C77.6855 23.3713 77.2748 23.9733 76.6588 24.44C76.0428 24.8973 75.2775 25.126 74.3628 25.126C73.6348 25.126 72.9815 24.9627 72.4028 24.636C71.8335 24.3093 71.3855 23.8473 71.0588 23.25C70.7321 22.6433 70.5688 21.9433 70.5688 21.15C70.5688 20.3567 70.7275 19.6613 71.0448 19.064C71.3621 18.4667 71.8055 18.0093 72.3748 17.692C72.9535 17.3653 73.6161 17.202 74.3628 17.202C75.0908 17.202 75.7348 17.3607 76.2948 17.678C76.8548 17.9953 77.2841 18.434 77.5828 18.994C77.8908 19.5447 78.0448 20.17 78.0448 20.87ZM76.7288 20.604C76.7288 20.1187 76.6215 19.7033 76.4068 19.358C76.1921 19.0033 75.8981 18.7373 75.5248 18.56C75.1608 18.3733 74.7548 18.28 74.3068 18.28C73.6628 18.28 73.1121 18.4853 72.6548 18.896C72.2068 19.3067 71.9501 19.876 71.8848 20.604H76.7288ZM81.5004 18.574C81.7244 18.1353 82.0418 17.7947 82.4524 17.552C82.8724 17.3093 83.3811 17.188 83.9784 17.188V18.504H83.6424C82.2144 18.504 81.5004 19.2787 81.5004 20.828V25H80.2264V17.328H81.5004V18.574ZM85.4731 21.136C85.4731 20.352 85.6318 19.666 85.9491 19.078C86.2664 18.4807 86.7004 18.0187 87.2511 17.692C87.8111 17.3653 88.4318 17.202 89.1131 17.202C89.7851 17.202 90.3684 17.3467 90.8631 17.636C91.3578 17.9253 91.7264 18.2893 91.9691 18.728V17.328H93.2571V25H91.9691V23.572C91.7171 24.02 91.3391 24.3933 90.8351 24.692C90.3404 24.9813 89.7618 25.126 89.0991 25.126C88.4178 25.126 87.8018 24.958 87.2511 24.622C86.7004 24.286 86.2664 23.8147 85.9491 23.208C85.6318 22.6013 85.4731 21.9107 85.4731 21.136ZM91.9691 21.15C91.9691 20.5713 91.8524 20.0673 91.6191 19.638C91.3858 19.2087 91.0684 18.882 90.6671 18.658C90.2751 18.4247 89.8411 18.308 89.3651 18.308C88.8891 18.308 88.4551 18.42 88.0631 18.644C87.6711 18.868 87.3584 19.1947 87.1251 19.624C86.8918 20.0533 86.7751 20.5573 86.7751 21.136C86.7751 21.724 86.8918 22.2373 87.1251 22.676C87.3584 23.1053 87.6711 23.4367 88.0631 23.67C88.4551 23.894 88.8891 24.006 89.3651 24.006C89.8411 24.006 90.2751 23.894 90.6671 23.67C91.0684 23.4367 91.3858 23.1053 91.6191 22.676C91.8524 22.2373 91.9691 21.7287 91.9691 21.15ZM97.464 18.378V22.9C97.464 23.2733 97.5434 23.5393 97.702 23.698C97.8607 23.8473 98.136 23.922 98.528 23.922H99.466V25H98.318C97.6087 25 97.0767 24.8367 96.722 24.51C96.3674 24.1833 96.19 23.6467 96.19 22.9V18.378H95.196V17.328H96.19V15.396H97.464V17.328H99.466V18.378H97.464ZM104.856 25.126C104.137 25.126 103.484 24.9627 102.896 24.636C102.317 24.3093 101.86 23.8473 101.524 23.25C101.197 22.6433 101.034 21.9433 101.034 21.15C101.034 20.366 101.202 19.6753 101.538 19.078C101.883 18.4713 102.35 18.0093 102.938 17.692C103.526 17.3653 104.184 17.202 104.912 17.202C105.64 17.202 106.298 17.3653 106.886 17.692C107.474 18.0093 107.936 18.4667 108.272 19.064C108.617 19.6613 108.79 20.3567 108.79 21.15C108.79 21.9433 108.612 22.6433 108.258 23.25C107.912 23.8473 107.441 24.3093 106.844 24.636C106.246 24.9627 105.584 25.126 104.856 25.126ZM104.856 24.006C105.313 24.006 105.742 23.8987 106.144 23.684C106.545 23.4693 106.867 23.1473 107.11 22.718C107.362 22.2887 107.488 21.766 107.488 21.15C107.488 20.534 107.366 20.0113 107.124 19.582C106.881 19.1527 106.564 18.8353 106.172 18.63C105.78 18.4153 105.355 18.308 104.898 18.308C104.431 18.308 104.002 18.4153 103.61 18.63C103.227 18.8353 102.919 19.1527 102.686 19.582C102.452 20.0113 102.336 20.534 102.336 21.15C102.336 21.7753 102.448 22.3027 102.672 22.732C102.905 23.1613 103.213 23.4833 103.596 23.698C103.978 23.9033 104.398 24.006 104.856 24.006ZM112.239 18.574C112.463 18.1353 112.78 17.7947 113.191 17.552C113.611 17.3093 114.119 17.188 114.717 17.188V18.504H114.381C112.953 18.504 112.239 19.2787 112.239 20.828V25H110.965V17.328H112.239V18.574ZM119.403 25.126C118.815 25.126 118.288 25.028 117.821 24.832C117.355 24.6267 116.986 24.3467 116.715 23.992C116.445 23.628 116.295 23.2127 116.267 22.746H117.583C117.621 23.1287 117.798 23.4413 118.115 23.684C118.442 23.9267 118.867 24.048 119.389 24.048C119.875 24.048 120.257 23.9407 120.537 23.726C120.817 23.5113 120.957 23.2407 120.957 22.914C120.957 22.578 120.808 22.3307 120.509 22.172C120.211 22.004 119.749 21.8407 119.123 21.682C118.554 21.5327 118.087 21.3833 117.723 21.234C117.369 21.0753 117.061 20.8467 116.799 20.548C116.547 20.24 116.421 19.8387 116.421 19.344C116.421 18.952 116.538 18.5927 116.771 18.266C117.005 17.9393 117.336 17.6827 117.765 17.496C118.195 17.3 118.685 17.202 119.235 17.202C120.085 17.202 120.771 17.4167 121.293 17.846C121.816 18.2753 122.096 18.8633 122.133 19.61H120.859C120.831 19.2087 120.668 18.8867 120.369 18.644C120.08 18.4013 119.688 18.28 119.193 18.28C118.736 18.28 118.372 18.378 118.101 18.574C117.831 18.77 117.695 19.0267 117.695 19.344C117.695 19.596 117.775 19.806 117.933 19.974C118.101 20.1327 118.307 20.2633 118.549 20.366C118.801 20.4593 119.147 20.5667 119.585 20.688C120.136 20.8373 120.584 20.9867 120.929 21.136C121.275 21.276 121.569 21.4907 121.811 21.78C122.063 22.0693 122.194 22.4473 122.203 22.914C122.203 23.334 122.087 23.712 121.853 24.048C121.62 24.384 121.289 24.65 120.859 24.846C120.439 25.0327 119.954 25.126 119.403 25.126Z" fill="black"/>
<path d="M163.902 29.8437L158.809 33.375L158.768 39.572L152.567 30.0805L163.902 29.8437Z" fill="#A3FF2E" stroke="black" stroke-width="0.8" stroke-miterlimit="10"/>
<path d="M16.21 12.14C17.7647 12.14 19.1287 12.448 20.302 13.064C21.49 13.68 22.4067 14.538 23.052 15.638C23.712 16.738 24.042 17.9993 24.042 19.422C24.042 20.566 23.866 21.6513 23.514 22.678C23.1767 23.7047 22.6853 24.5407 22.04 25.186C21.3947 25.8167 20.632 26.132 19.752 26.132C19.048 26.132 18.52 25.9193 18.168 25.494C17.8307 25.054 17.6767 24.4747 17.706 23.756C17.266 24.504 16.6793 25.0907 15.946 25.516C15.2273 25.9267 14.4573 26.132 13.636 26.132C12.536 26.132 11.6707 25.7947 11.04 25.12C10.424 24.4453 10.116 23.536 10.116 22.392C10.116 21.3213 10.336 20.324 10.776 19.4C11.2307 18.4613 11.8613 17.7133 12.668 17.156C13.4747 16.584 14.384 16.298 15.396 16.298C16.188 16.298 16.848 16.4887 17.376 16.87C17.9187 17.2513 18.2853 17.8013 18.476 18.52L18.806 16.584H19.686L18.564 23.03C18.52 23.2647 18.498 23.4993 18.498 23.734C18.498 24.2473 18.6153 24.6507 18.85 24.944C19.0993 25.2373 19.4513 25.384 19.906 25.384C20.566 25.384 21.1453 25.0907 21.644 24.504C22.1427 23.9173 22.524 23.1767 22.788 22.282C23.052 21.3727 23.184 20.456 23.184 19.532C23.184 18.1827 22.8907 17.0093 22.304 16.012C21.732 15.0147 20.9107 14.2447 19.84 13.702C18.7693 13.1593 17.5153 12.888 16.078 12.888C14.3033 12.888 12.69 13.3353 11.238 14.23C9.786 15.11 8.642 16.3127 7.806 17.838C6.98467 19.3487 6.574 21.006 6.574 22.81C6.574 24.1887 6.86 25.3693 7.432 26.352C8.004 27.3493 8.818 28.112 9.874 28.64C10.9447 29.168 12.184 29.432 13.592 29.432C14.8973 29.432 16.1073 29.19 17.222 28.706L17.376 29.454C16.1293 29.9527 14.7947 30.202 13.372 30.202C11.8613 30.202 10.5267 29.9013 9.368 29.3C8.20933 28.7133 7.30733 27.87 6.662 26.77C6.01667 25.6847 5.694 24.4087 5.694 22.942C5.694 20.9327 6.14867 19.1067 7.058 17.464C7.96733 15.8213 9.22133 14.5233 10.82 13.57C12.4187 12.6167 14.2153 12.14 16.21 12.14ZM13.9 25.318C14.5747 25.318 15.2053 25.1493 15.792 24.812C16.3787 24.46 16.87 23.9613 17.266 23.316C17.6767 22.656 17.9407 21.886 18.058 21.006C18.1167 20.7127 18.146 20.4047 18.146 20.082C18.146 19.1873 17.904 18.4687 17.42 17.926C16.9507 17.3687 16.2613 17.09 15.352 17.09C14.5013 17.09 13.746 17.3393 13.086 17.838C12.4407 18.322 11.942 18.96 11.59 19.752C11.238 20.544 11.062 21.38 11.062 22.26C11.062 23.1987 11.3113 23.9467 11.81 24.504C12.3087 25.0467 13.0053 25.318 13.9 25.318Z" fill="black" fill-opacity="0.6"/>
</g>
<defs>
<filter id="filter0_d_351_97" x="0.693359" y="0" width="167.527" height="46.9019" filterUnits="userSpaceOnUse" color-interpolation-filters="sRGB">
<feFlood flood-opacity="0" result="BackgroundImageFix"/>
<feColorMatrix in="SourceAlpha" type="matrix" values="0 0 0 0 0 0 0 0 0 0 0 0 0 0 0 0 0 0 127 0" result="hardAlpha"/>
<feOffset dx="-1" dy="2"/>
<feGaussianBlur stdDeviation="2"/>
<feComposite in2="hardAlpha" operator="out"/>
<feColorMatrix type="matrix" values="0 0 0 0 0 0 0 0 0 0 0 0 0 0 0 0 0 0 0.3 0"/>
<feBlend mode="normal" in2="BackgroundImageFix" result="effect1_dropShadow_351_97"/>
<feBlend mode="normal" in="SourceGraphic" in2="effect1_dropShadow_351_97" result="shape"/>
</filter>
</defs>
</svg>
