<svg width="118" height="63" viewBox="0 0 118 63" fill="none" xmlns="http://www.w3.org/2000/svg">
<g filter="url(#filter0_d_351_88)">
<rect x="4.5" y="0.5" width="109" height="35" rx="17.5" fill="#FFF7B1"/>
<rect x="4.5" y="0.5" width="109" height="35" rx="17.5" stroke="#6F6F6F"/>
<path d="M36.602 16.098C36.602 16.91 36.322 17.5867 35.762 18.128C35.2113 18.66 34.3667 18.926 33.228 18.926H31.352V23H30.078V13.242H33.228C34.3293 13.242 35.1647 13.508 35.734 14.04C36.3127 14.572 36.602 15.258 36.602 16.098ZM33.228 17.876C33.9373 17.876 34.46 17.722 34.796 17.414C35.132 17.106 35.3 16.6673 35.3 16.098C35.3 14.894 34.6093 14.292 33.228 14.292H31.352V17.876H33.228ZM42.0314 23.126C41.3128 23.126 40.6594 22.9627 40.0714 22.636C39.4928 22.3093 39.0354 21.8473 38.6994 21.25C38.3728 20.6433 38.2094 19.9433 38.2094 19.15C38.2094 18.366 38.3774 17.6753 38.7134 17.078C39.0588 16.4713 39.5254 16.0093 40.1134 15.692C40.7014 15.3653 41.3594 15.202 42.0874 15.202C42.8154 15.202 43.4734 15.3653 44.0614 15.692C44.6494 16.0093 45.1114 16.4667 45.4474 17.064C45.7928 17.6613 45.9654 18.3567 45.9654 19.15C45.9654 19.9433 45.7881 20.6433 45.4334 21.25C45.0881 21.8473 44.6168 22.3093 44.0194 22.636C43.4221 22.9627 42.7594 23.126 42.0314 23.126ZM42.0314 22.006C42.4888 22.006 42.9181 21.8987 43.3194 21.684C43.7208 21.4693 44.0428 21.1473 44.2854 20.718C44.5374 20.2887 44.6634 19.766 44.6634 19.15C44.6634 18.534 44.5421 18.0113 44.2994 17.582C44.0568 17.1527 43.7394 16.8353 43.3474 16.63C42.9554 16.4153 42.5308 16.308 42.0734 16.308C41.6068 16.308 41.1774 16.4153 40.7854 16.63C40.4028 16.8353 40.0948 17.1527 39.8614 17.582C39.6281 18.0113 39.5114 18.534 39.5114 19.15C39.5114 19.7753 39.6234 20.3027 39.8474 20.732C40.0808 21.1613 40.3888 21.4833 40.7714 21.698C41.1541 21.9033 41.5741 22.006 42.0314 22.006ZM48.7985 14.082C48.5558 14.082 48.3505 13.998 48.1825 13.83C48.0145 13.662 47.9305 13.4567 47.9305 13.214C47.9305 12.9713 48.0145 12.766 48.1825 12.598C48.3505 12.43 48.5558 12.346 48.7985 12.346C49.0318 12.346 49.2278 12.43 49.3865 12.598C49.5545 12.766 49.6385 12.9713 49.6385 13.214C49.6385 13.4567 49.5545 13.662 49.3865 13.83C49.2278 13.998 49.0318 14.082 48.7985 14.082ZM49.4145 15.328V23H48.1405V15.328H49.4145ZM55.8238 15.188C56.7571 15.188 57.5131 15.4727 58.0918 16.042C58.6705 16.602 58.9598 17.414 58.9598 18.478V23H57.6998V18.66C57.6998 17.8947 57.5085 17.3113 57.1258 16.91C56.7431 16.4993 56.2205 16.294 55.5578 16.294C54.8858 16.294 54.3491 16.504 53.9478 16.924C53.5558 17.344 53.3598 17.9553 53.3598 18.758V23H52.0858V15.328H53.3598V16.42C53.6118 16.028 53.9525 15.7247 54.3818 15.51C54.8205 15.2953 55.3011 15.188 55.8238 15.188ZM63.0949 16.378V20.9C63.0949 21.2733 63.1742 21.5393 63.3329 21.698C63.4916 21.8473 63.7669 21.922 64.1589 21.922H65.0969V23H63.9489C63.2396 23 62.7076 22.8367 62.3529 22.51C61.9982 22.1833 61.8209 21.6467 61.8209 20.9V16.378H60.8269V15.328H61.8209V13.396H63.0949V15.328H65.0969V16.378H63.0949ZM74.1405 18.87C74.1405 19.1127 74.1265 19.3693 74.0985 19.64H67.9665C68.0132 20.396 68.2698 20.9887 68.7365 21.418C69.2125 21.838 69.7865 22.048 70.4585 22.048C71.0092 22.048 71.4665 21.922 71.8305 21.67C72.2038 21.4087 72.4652 21.0633 72.6145 20.634H73.9865C73.7812 21.3713 73.3705 21.9733 72.7545 22.44C72.1385 22.8973 71.3732 23.126 70.4585 23.126C69.7305 23.126 69.0772 22.9627 68.4985 22.636C67.9292 22.3093 67.4812 21.8473 67.1545 21.25C66.8278 20.6433 66.6645 19.9433 66.6645 19.15C66.6645 18.3567 66.8232 17.6613 67.1405 17.064C67.4578 16.4667 67.9012 16.0093 68.4705 15.692C69.0492 15.3653 69.7118 15.202 70.4585 15.202C71.1865 15.202 71.8305 15.3607 72.3905 15.678C72.9505 15.9953 73.3798 16.434 73.6785 16.994C73.9865 17.5447 74.1405 18.17 74.1405 18.87ZM72.8245 18.604C72.8245 18.1187 72.7172 17.7033 72.5025 17.358C72.2878 17.0033 71.9938 16.7373 71.6205 16.56C71.2565 16.3733 70.8505 16.28 70.4025 16.28C69.7585 16.28 69.2078 16.4853 68.7505 16.896C68.3025 17.3067 68.0458 17.876 67.9805 18.604H72.8245ZM77.5961 16.574C77.8201 16.1353 78.1375 15.7947 78.5481 15.552C78.9681 15.3093 79.4768 15.188 80.0741 15.188V16.504H79.7381C78.3101 16.504 77.5961 17.2787 77.5961 18.828V23H76.3221V15.328H77.5961V16.574ZM84.7608 23.126C84.1728 23.126 83.6455 23.028 83.1788 22.832C82.7121 22.6267 82.3435 22.3467 82.0728 21.992C81.8021 21.628 81.6528 21.2127 81.6248 20.746H82.9408C82.9781 21.1287 83.1555 21.4413 83.4728 21.684C83.7995 21.9267 84.2241 22.048 84.7468 22.048C85.2321 22.048 85.6148 21.9407 85.8948 21.726C86.1748 21.5113 86.3148 21.2407 86.3148 20.914C86.3148 20.578 86.1655 20.3307 85.8668 20.172C85.5681 20.004 85.1061 19.8407 84.4808 19.682C83.9115 19.5327 83.4448 19.3833 83.0808 19.234C82.7261 19.0753 82.4181 18.8467 82.1568 18.548C81.9048 18.24 81.7788 17.8387 81.7788 17.344C81.7788 16.952 81.8955 16.5927 82.1288 16.266C82.3621 15.9393 82.6935 15.6827 83.1228 15.496C83.5521 15.3 84.0421 15.202 84.5928 15.202C85.4421 15.202 86.1281 15.4167 86.6508 15.846C87.1735 16.2753 87.4535 16.8633 87.4908 17.61H86.2168C86.1888 17.2087 86.0255 16.8867 85.7268 16.644C85.4375 16.4013 85.0455 16.28 84.5508 16.28C84.0935 16.28 83.7295 16.378 83.4588 16.574C83.1881 16.77 83.0528 17.0267 83.0528 17.344C83.0528 17.596 83.1321 17.806 83.2908 17.974C83.4588 18.1327 83.6641 18.2633 83.9068 18.366C84.1588 18.4593 84.5041 18.5667 84.9428 18.688C85.4935 18.8373 85.9415 18.9867 86.2868 19.136C86.6321 19.276 86.9261 19.4907 87.1688 19.78C87.4208 20.0693 87.5515 20.4473 87.5608 20.914C87.5608 21.334 87.4441 21.712 87.2108 22.048C86.9775 22.384 86.6461 22.65 86.2168 22.846C85.7968 23.0327 85.3115 23.126 84.7608 23.126Z" fill="black"/>
<path d="M101.317 47.1872L95.1666 47.943L92.2459 53.4087L91.1744 42.1221L101.317 47.1872Z" fill="#A3FF2E" stroke="black" stroke-width="0.8" stroke-miterlimit="10"/>
</g>
<defs>
<filter id="filter0_d_351_88" x="0" y="0" width="118" height="62.7679" filterUnits="userSpaceOnUse" color-interpolation-filters="sRGB">
<feFlood flood-opacity="0" result="BackgroundImageFix"/>
<feColorMatrix in="SourceAlpha" type="matrix" values="0 0 0 0 0 0 0 0 0 0 0 0 0 0 0 0 0 0 127 0" result="hardAlpha"/>
<feOffset dy="4"/>
<feGaussianBlur stdDeviation="2"/>
<feComposite in2="hardAlpha" operator="out"/>
<feColorMatrix type="matrix" values="0 0 0 0 0 0 0 0 0 0 0 0 0 0 0 0 0 0 0.25 0"/>
<feBlend mode="normal" in2="BackgroundImageFix" result="effect1_dropShadow_351_88"/>
<feBlend mode="normal" in="SourceGraphic" in2="effect1_dropShadow_351_88" result="shape"/>
</filter>
</defs>
</svg>
