<svg width="143" height="54" viewBox="0 0 143 54" fill="none" xmlns="http://www.w3.org/2000/svg">
<g filter="url(#filter0_d_351_84)">
<rect x="22.5" y="2.5" width="117" height="35" rx="17.5" fill="#DCFFC7"/>
<rect x="22.5" y="2.5" width="117" height="35" rx="17.5" stroke="#6F6F6F"/>
<path d="M55.142 15.242L51.46 25H49.99L46.308 15.242H47.666L50.732 23.656L53.798 15.242H55.142ZM56.5629 21.136C56.5629 20.352 56.7216 19.666 57.0389 19.078C57.3563 18.4807 57.7903 18.0187 58.3409 17.692C58.9009 17.3653 59.5216 17.202 60.2029 17.202C60.8749 17.202 61.4583 17.3467 61.9529 17.636C62.4476 17.9253 62.8163 18.2893 63.0589 18.728V17.328H64.3469V25H63.0589V23.572C62.8069 24.02 62.4289 24.3933 61.9249 24.692C61.4303 24.9813 60.8516 25.126 60.1889 25.126C59.5076 25.126 58.8916 24.958 58.3409 24.622C57.7903 24.286 57.3563 23.8147 57.0389 23.208C56.7216 22.6013 56.5629 21.9107 56.5629 21.136ZM63.0589 21.15C63.0589 20.5713 62.9423 20.0673 62.7089 19.638C62.4756 19.2087 62.1583 18.882 61.7569 18.658C61.3649 18.4247 60.9309 18.308 60.4549 18.308C59.9789 18.308 59.5449 18.42 59.1529 18.644C58.7609 18.868 58.4483 19.1947 58.2149 19.624C57.9816 20.0533 57.8649 20.5573 57.8649 21.136C57.8649 21.724 57.9816 22.2373 58.2149 22.676C58.4483 23.1053 58.7609 23.4367 59.1529 23.67C59.5449 23.894 59.9789 24.006 60.4549 24.006C60.9309 24.006 61.3649 23.894 61.7569 23.67C62.1583 23.4367 62.4756 23.1053 62.7089 22.676C62.9423 22.2373 63.0589 21.7287 63.0589 21.15ZM68.2739 18.574C68.4979 18.1353 68.8152 17.7947 69.2259 17.552C69.6459 17.3093 70.1545 17.188 70.7519 17.188V18.504H70.4159C68.9879 18.504 68.2739 19.2787 68.2739 20.828V25H66.9999V17.328H68.2739V18.574ZM73.3805 16.082C73.1379 16.082 72.9325 15.998 72.7645 15.83C72.5965 15.662 72.5125 15.4567 72.5125 15.214C72.5125 14.9713 72.5965 14.766 72.7645 14.598C72.9325 14.43 73.1379 14.346 73.3805 14.346C73.6139 14.346 73.8099 14.43 73.9685 14.598C74.1365 14.766 74.2205 14.9713 74.2205 15.214C74.2205 15.4567 74.1365 15.662 73.9685 15.83C73.8099 15.998 73.6139 16.082 73.3805 16.082ZM73.9965 17.328V25H72.7225V17.328H73.9965ZM76.1918 21.136C76.1918 20.352 76.3505 19.666 76.6678 19.078C76.9852 18.4807 77.4192 18.0187 77.9698 17.692C78.5298 17.3653 79.1505 17.202 79.8318 17.202C80.5038 17.202 81.0872 17.3467 81.5818 17.636C82.0765 17.9253 82.4452 18.2893 82.6878 18.728V17.328H83.9758V25H82.6878V23.572C82.4358 24.02 82.0578 24.3933 81.5538 24.692C81.0592 24.9813 80.4805 25.126 79.8178 25.126C79.1365 25.126 78.5205 24.958 77.9698 24.622C77.4192 24.286 76.9852 23.8147 76.6678 23.208C76.3505 22.6013 76.1918 21.9107 76.1918 21.136ZM82.6878 21.15C82.6878 20.5713 82.5712 20.0673 82.3378 19.638C82.1045 19.2087 81.7872 18.882 81.3858 18.658C80.9938 18.4247 80.5598 18.308 80.0838 18.308C79.6078 18.308 79.1738 18.42 78.7818 18.644C78.3898 18.868 78.0772 19.1947 77.8438 19.624C77.6105 20.0533 77.4938 20.5573 77.4938 21.136C77.4938 21.724 77.6105 22.2373 77.8438 22.676C78.0772 23.1053 78.3898 23.4367 78.7818 23.67C79.1738 23.894 79.6078 24.006 80.0838 24.006C80.5598 24.006 80.9938 23.894 81.3858 23.67C81.7872 23.4367 82.1045 23.1053 82.3378 22.676C82.5712 22.2373 82.6878 21.7287 82.6878 21.15ZM87.9028 18.756C88.1641 18.2987 88.5468 17.9253 89.0508 17.636C89.5548 17.3467 90.1288 17.202 90.7728 17.202C91.4634 17.202 92.0841 17.3653 92.6348 17.692C93.1854 18.0187 93.6194 18.4807 93.9368 19.078C94.2541 19.666 94.4128 20.352 94.4128 21.136C94.4128 21.9107 94.2541 22.6013 93.9368 23.208C93.6194 23.8147 93.1808 24.286 92.6208 24.622C92.0701 24.958 91.4541 25.126 90.7728 25.126C90.1101 25.126 89.5268 24.9813 89.0228 24.692C88.5281 24.4027 88.1548 24.034 87.9028 23.586V25H86.6288V14.64H87.9028V18.756ZM93.1108 21.136C93.1108 20.5573 92.9941 20.0533 92.7608 19.624C92.5274 19.1947 92.2101 18.868 91.8088 18.644C91.4168 18.42 90.9828 18.308 90.5068 18.308C90.0401 18.308 89.6061 18.4247 89.2048 18.658C88.8128 18.882 88.4954 19.2133 88.2528 19.652C88.0194 20.0813 87.9028 20.5807 87.9028 21.15C87.9028 21.7287 88.0194 22.2373 88.2528 22.676C88.4954 23.1053 88.8128 23.4367 89.2048 23.67C89.6061 23.894 90.0401 24.006 90.5068 24.006C90.9828 24.006 91.4168 23.894 91.8088 23.67C92.2101 23.4367 92.5274 23.1053 92.7608 22.676C92.9941 22.2373 93.1108 21.724 93.1108 21.136ZM97.8637 14.64V25H96.5897V14.64H97.8637ZM107.535 20.87C107.535 21.1127 107.521 21.3693 107.493 21.64H101.361C101.408 22.396 101.664 22.9887 102.131 23.418C102.607 23.838 103.181 24.048 103.853 24.048C104.404 24.048 104.861 23.922 105.225 23.67C105.598 23.4087 105.86 23.0633 106.009 22.634H107.381C107.176 23.3713 106.765 23.9733 106.149 24.44C105.533 24.8973 104.768 25.126 103.853 25.126C103.125 25.126 102.472 24.9627 101.893 24.636C101.324 24.3093 100.876 23.8473 100.549 23.25C100.222 22.6433 100.059 21.9433 100.059 21.15C100.059 20.3567 100.218 19.6613 100.535 19.064C100.852 18.4667 101.296 18.0093 101.865 17.692C102.444 17.3653 103.106 17.202 103.853 17.202C104.581 17.202 105.225 17.3607 105.785 17.678C106.345 17.9953 106.774 18.434 107.073 18.994C107.381 19.5447 107.535 20.17 107.535 20.87ZM106.219 20.604C106.219 20.1187 106.112 19.7033 105.897 19.358C105.682 19.0033 105.388 18.7373 105.015 18.56C104.651 18.3733 104.245 18.28 103.797 18.28C103.153 18.28 102.602 18.4853 102.145 18.896C101.697 19.3067 101.44 19.876 101.375 20.604H106.219ZM112.433 25.126C111.845 25.126 111.317 25.028 110.851 24.832C110.384 24.6267 110.015 24.3467 109.745 23.992C109.474 23.628 109.325 23.2127 109.297 22.746H110.613C110.65 23.1287 110.827 23.4413 111.145 23.684C111.471 23.9267 111.896 24.048 112.419 24.048C112.904 24.048 113.287 23.9407 113.567 23.726C113.847 23.5113 113.987 23.2407 113.987 22.914C113.987 22.578 113.837 22.3307 113.539 22.172C113.24 22.004 112.778 21.8407 112.153 21.682C111.583 21.5327 111.117 21.3833 110.753 21.234C110.398 21.0753 110.09 20.8467 109.829 20.548C109.577 20.24 109.451 19.8387 109.451 19.344C109.451 18.952 109.567 18.5927 109.801 18.266C110.034 17.9393 110.365 17.6827 110.795 17.496C111.224 17.3 111.714 17.202 112.265 17.202C113.114 17.202 113.8 17.4167 114.323 17.846C114.845 18.2753 115.125 18.8633 115.163 19.61H113.889C113.861 19.2087 113.697 18.8867 113.399 18.644C113.109 18.4013 112.717 18.28 112.223 18.28C111.765 18.28 111.401 18.378 111.131 18.574C110.86 18.77 110.725 19.0267 110.725 19.344C110.725 19.596 110.804 19.806 110.963 19.974C111.131 20.1327 111.336 20.2633 111.579 20.366C111.831 20.4593 112.176 20.5667 112.615 20.688C113.165 20.8373 113.613 20.9867 113.959 21.136C114.304 21.276 114.598 21.4907 114.841 21.78C115.093 22.0693 115.223 22.4473 115.233 22.914C115.233 23.334 115.116 23.712 114.883 24.048C114.649 24.384 114.318 24.65 113.889 24.846C113.469 25.0327 112.983 25.126 112.433 25.126Z" fill="black"/>
<path d="M14.7777 45.7884L12.9078 39.8801L6.99956 38.0102L17.8989 34.8891L14.7777 45.7884Z" fill="#A3FF2E" stroke="black" stroke-width="0.8" stroke-miterlimit="10"/>
</g>
<defs>
<filter id="filter0_d_351_84" x="0.613281" y="0" width="142.387" height="53.1745" filterUnits="userSpaceOnUse" color-interpolation-filters="sRGB">
<feFlood flood-opacity="0" result="BackgroundImageFix"/>
<feColorMatrix in="SourceAlpha" type="matrix" values="0 0 0 0 0 0 0 0 0 0 0 0 0 0 0 0 0 0 127 0" result="hardAlpha"/>
<feOffset dx="-1" dy="2"/>
<feGaussianBlur stdDeviation="2"/>
<feComposite in2="hardAlpha" operator="out"/>
<feColorMatrix type="matrix" values="0 0 0 0 0 0 0 0 0 0 0 0 0 0 0 0 0 0 0.3 0"/>
<feBlend mode="normal" in2="BackgroundImageFix" result="effect1_dropShadow_351_84"/>
<feBlend mode="normal" in="SourceGraphic" in2="effect1_dropShadow_351_84" result="shape"/>
</filter>
</defs>
</svg>
