<svg width="165" height="46" viewBox="0 0 165 46" fill="none" xmlns="http://www.w3.org/2000/svg">
<g filter="url(#filter0_d_351_97)">
<rect x="30.5" y="2.5" width="115" height="35" rx="17.5" fill="#FEDBFF"/>
<rect x="30.5" y="2.5" width="115" height="35" rx="17.5" stroke="#6F6F6F"/>
<path d="M58.464 19.974C58.8187 20.03 59.1407 20.1747 59.43 20.408C59.7287 20.6413 59.962 20.9307 60.13 21.276C60.3073 21.6213 60.396 21.99 60.396 22.382C60.396 22.8767 60.27 23.3247 60.018 23.726C59.766 24.118 59.3973 24.4307 58.912 24.664C58.436 24.888 57.8713 25 57.218 25H53.578V15.242H57.078C57.7407 15.242 58.3053 15.354 58.772 15.578C59.2387 15.7927 59.5887 16.0867 59.822 16.46C60.0553 16.8333 60.172 17.2533 60.172 17.72C60.172 18.2987 60.0133 18.7793 59.696 19.162C59.388 19.5353 58.9773 19.806 58.464 19.974ZM54.852 19.456H56.994C57.5913 19.456 58.0533 19.316 58.38 19.036C58.7067 18.756 58.87 18.3687 58.87 17.874C58.87 17.3793 58.7067 16.992 58.38 16.712C58.0533 16.432 57.582 16.292 56.966 16.292H54.852V19.456ZM57.106 23.95C57.7407 23.95 58.2353 23.8007 58.59 23.502C58.9447 23.2033 59.122 22.788 59.122 22.256C59.122 21.7147 58.9353 21.29 58.562 20.982C58.1887 20.6647 57.6893 20.506 57.064 20.506H54.852V23.95H57.106ZM62.1879 21.136C62.1879 20.352 62.3466 19.666 62.6639 19.078C62.9813 18.4807 63.4153 18.0187 63.9659 17.692C64.5259 17.3653 65.1466 17.202 65.8279 17.202C66.4999 17.202 67.0833 17.3467 67.5779 17.636C68.0726 17.9253 68.4413 18.2893 68.6839 18.728V17.328H69.9719V25H68.6839V23.572C68.4319 24.02 68.0539 24.3933 67.5499 24.692C67.0553 24.9813 66.4766 25.126 65.8139 25.126C65.1326 25.126 64.5166 24.958 63.9659 24.622C63.4153 24.286 62.9813 23.8147 62.6639 23.208C62.3466 22.6013 62.1879 21.9107 62.1879 21.136ZM68.6839 21.15C68.6839 20.5713 68.5673 20.0673 68.3339 19.638C68.1006 19.2087 67.7833 18.882 67.3819 18.658C66.9899 18.4247 66.5559 18.308 66.0799 18.308C65.6039 18.308 65.1699 18.42 64.7779 18.644C64.3859 18.868 64.0733 19.1947 63.8399 19.624C63.6066 20.0533 63.4899 20.5573 63.4899 21.136C63.4899 21.724 63.6066 22.2373 63.8399 22.676C64.0733 23.1053 64.3859 23.4367 64.7779 23.67C65.1699 23.894 65.6039 24.006 66.0799 24.006C66.5559 24.006 66.9899 23.894 67.3819 23.67C67.7833 23.4367 68.1006 23.1053 68.3339 22.676C68.5673 22.2373 68.6839 21.7287 68.6839 21.15ZM72.1489 21.15C72.1489 20.3567 72.3075 19.666 72.6249 19.078C72.9422 18.4807 73.3809 18.0187 73.9409 17.692C74.5102 17.3653 75.1589 17.202 75.8869 17.202C76.8295 17.202 77.6042 17.4307 78.2109 17.888C78.8269 18.3453 79.2329 18.98 79.4289 19.792H78.0569C77.9262 19.3253 77.6695 18.9567 77.2869 18.686C76.9135 18.4153 76.4469 18.28 75.8869 18.28C75.1589 18.28 74.5709 18.532 74.1229 19.036C73.6749 19.5307 73.4509 20.2353 73.4509 21.15C73.4509 22.074 73.6749 22.788 74.1229 23.292C74.5709 23.796 75.1589 24.048 75.8869 24.048C76.4469 24.048 76.9135 23.9173 77.2869 23.656C77.6602 23.3947 77.9169 23.0213 78.0569 22.536H79.4289C79.2235 23.32 78.8129 23.95 78.1969 24.426C77.5809 24.8927 76.8109 25.126 75.8869 25.126C75.1589 25.126 74.5102 24.9627 73.9409 24.636C73.3809 24.3093 72.9422 23.8473 72.6249 23.25C72.3075 22.6527 72.1489 21.9527 72.1489 21.15ZM85.9128 25L82.9028 21.612V25H81.6288V14.64H82.9028V20.73L85.8568 17.328H87.6348L84.0228 21.15L87.6488 25H85.9128ZM94.6539 19.33V20.408H89.0679V19.33H94.6539ZM98.8188 16.278V19.54H102.375V20.59H98.8188V23.95H102.795V25H97.5448V15.228H102.795V16.278H98.8188ZM108.961 17.188C109.894 17.188 110.65 17.4727 111.229 18.042C111.807 18.602 112.097 19.414 112.097 20.478V25H110.837V20.66C110.837 19.8947 110.645 19.3113 110.263 18.91C109.88 18.4993 109.357 18.294 108.695 18.294C108.023 18.294 107.486 18.504 107.085 18.924C106.693 19.344 106.497 19.9553 106.497 20.758V25H105.223V17.328H106.497V18.42C106.749 18.028 107.089 17.7247 107.519 17.51C107.957 17.2953 108.438 17.188 108.961 17.188ZM114.202 21.136C114.202 20.352 114.36 19.666 114.678 19.078C114.995 18.4807 115.429 18.0187 115.98 17.692C116.54 17.3653 117.165 17.202 117.856 17.202C118.453 17.202 119.008 17.342 119.522 17.622C120.035 17.8927 120.427 18.252 120.698 18.7V14.64H121.986V25H120.698V23.558C120.446 24.0153 120.072 24.3933 119.578 24.692C119.083 24.9813 118.504 25.126 117.842 25.126C117.16 25.126 116.54 24.958 115.98 24.622C115.429 24.286 114.995 23.8147 114.678 23.208C114.36 22.6013 114.202 21.9107 114.202 21.136ZM120.698 21.15C120.698 20.5713 120.581 20.0673 120.348 19.638C120.114 19.2087 119.797 18.882 119.396 18.658C119.004 18.4247 118.57 18.308 118.094 18.308C117.618 18.308 117.184 18.42 116.792 18.644C116.4 18.868 116.087 19.1947 115.854 19.624C115.62 20.0533 115.504 20.5573 115.504 21.136C115.504 21.724 115.62 22.2373 115.854 22.676C116.087 23.1053 116.4 23.4367 116.792 23.67C117.184 23.894 117.618 24.006 118.094 24.006C118.57 24.006 119.004 23.894 119.396 23.67C119.797 23.4367 120.114 23.1053 120.348 22.676C120.581 22.2373 120.698 21.7287 120.698 21.15Z" fill="black"/>
<path d="M16.21 12.14C17.7647 12.14 19.1287 12.448 20.302 13.064C21.49 13.68 22.4067 14.538 23.052 15.638C23.712 16.738 24.042 17.9993 24.042 19.422C24.042 20.566 23.866 21.6513 23.514 22.678C23.1767 23.7047 22.6853 24.5407 22.04 25.186C21.3947 25.8167 20.632 26.132 19.752 26.132C19.048 26.132 18.52 25.9193 18.168 25.494C17.8307 25.054 17.6767 24.4747 17.706 23.756C17.266 24.504 16.6793 25.0907 15.946 25.516C15.2273 25.9267 14.4573 26.132 13.636 26.132C12.536 26.132 11.6707 25.7947 11.04 25.12C10.424 24.4453 10.116 23.536 10.116 22.392C10.116 21.3213 10.336 20.324 10.776 19.4C11.2307 18.4613 11.8613 17.7133 12.668 17.156C13.4747 16.584 14.384 16.298 15.396 16.298C16.188 16.298 16.848 16.4887 17.376 16.87C17.9187 17.2513 18.2853 17.8013 18.476 18.52L18.806 16.584H19.686L18.564 23.03C18.52 23.2647 18.498 23.4993 18.498 23.734C18.498 24.2473 18.6153 24.6507 18.85 24.944C19.0993 25.2373 19.4513 25.384 19.906 25.384C20.566 25.384 21.1453 25.0907 21.644 24.504C22.1427 23.9173 22.524 23.1767 22.788 22.282C23.052 21.3727 23.184 20.456 23.184 19.532C23.184 18.1827 22.8907 17.0093 22.304 16.012C21.732 15.0147 20.9107 14.2447 19.84 13.702C18.7693 13.1593 17.5153 12.888 16.078 12.888C14.3033 12.888 12.69 13.3353 11.238 14.23C9.786 15.11 8.642 16.3127 7.806 17.838C6.98467 19.3487 6.574 21.006 6.574 22.81C6.574 24.1887 6.86 25.3693 7.432 26.352C8.004 27.3493 8.818 28.112 9.874 28.64C10.9447 29.168 12.184 29.432 13.592 29.432C14.8973 29.432 16.1073 29.19 17.222 28.706L17.376 29.454C16.1293 29.9527 14.7947 30.202 13.372 30.202C11.8613 30.202 10.5267 29.9013 9.368 29.3C8.20933 28.7133 7.30733 27.87 6.662 26.77C6.01667 25.6847 5.694 24.4087 5.694 22.942C5.694 20.9327 6.14867 19.1067 7.058 17.464C7.96733 15.8213 9.22133 14.5233 10.82 13.57C12.4187 12.6167 14.2153 12.14 16.21 12.14ZM13.9 25.318C14.5747 25.318 15.2053 25.1493 15.792 24.812C16.3787 24.46 16.87 23.9613 17.266 23.316C17.6767 22.656 17.9407 21.886 18.058 21.006C18.1167 20.7127 18.146 20.4047 18.146 20.082C18.146 19.1873 17.904 18.4687 17.42 17.926C16.9507 17.3687 16.2613 17.09 15.352 17.09C14.5013 17.09 13.746 17.3393 13.086 17.838C12.4407 18.322 11.942 18.96 11.59 19.752C11.238 20.544 11.062 21.38 11.062 22.26C11.062 23.1987 11.3113 23.9467 11.81 24.504C12.3087 25.0467 13.0053 25.318 13.9 25.318Z" fill="black" fill-opacity="0.6"/>
<path d="M159.902 28.6273L154.809 32.1586L154.768 38.3556L148.567 28.8641L159.902 28.6273Z" fill="#A3FF2E" stroke="black" stroke-width="0.8" stroke-miterlimit="10"/>
</g>
<defs>
<filter id="filter0_d_351_97" x="0.693359" y="0" width="163.527" height="45.6856" filterUnits="userSpaceOnUse" color-interpolation-filters="sRGB">
<feFlood flood-opacity="0" result="BackgroundImageFix"/>
<feColorMatrix in="SourceAlpha" type="matrix" values="0 0 0 0 0 0 0 0 0 0 0 0 0 0 0 0 0 0 127 0" result="hardAlpha"/>
<feOffset dx="-1" dy="2"/>
<feGaussianBlur stdDeviation="2"/>
<feComposite in2="hardAlpha" operator="out"/>
<feColorMatrix type="matrix" values="0 0 0 0 0 0 0 0 0 0 0 0 0 0 0 0 0 0 0.3 0"/>
<feBlend mode="normal" in2="BackgroundImageFix" result="effect1_dropShadow_351_97"/>
<feBlend mode="normal" in="SourceGraphic" in2="effect1_dropShadow_351_97" result="shape"/>
</filter>
</defs>
</svg>
