<svg width="182" height="55" viewBox="0 0 182 55" fill="none" xmlns="http://www.w3.org/2000/svg">
<g filter="url(#filter0_d_351_92)">
<rect x="28.5" y="2.5" width="113" height="35" rx="17.5" fill="#DEF5FF"/>
<rect x="28.5" y="2.5" width="113" height="35" rx="17.5" stroke="#6F6F6F"/>
<path d="M52.616 15.242C53.68 15.242 54.5993 15.4427 55.374 15.844C56.158 16.236 56.7553 16.8007 57.166 17.538C57.586 18.2753 57.796 19.1433 57.796 20.142C57.796 21.1407 57.586 22.0087 57.166 22.746C56.7553 23.474 56.158 24.034 55.374 24.426C54.5993 24.8087 53.68 25 52.616 25H49.578V15.242H52.616ZM52.616 23.95C53.876 23.95 54.8373 23.6187 55.5 22.956C56.1627 22.284 56.494 21.346 56.494 20.142C56.494 18.9287 56.158 17.9813 55.486 17.3C54.8233 16.6187 53.8667 16.278 52.616 16.278H50.852V23.95H52.616ZM59.5004 21.136C59.5004 20.352 59.6591 19.666 59.9764 19.078C60.2938 18.4807 60.7278 18.0187 61.2784 17.692C61.8384 17.3653 62.4591 17.202 63.1404 17.202C63.8124 17.202 64.3958 17.3467 64.8904 17.636C65.3851 17.9253 65.7538 18.2893 65.9964 18.728V17.328H67.2844V25H65.9964V23.572C65.7444 24.02 65.3664 24.3933 64.8624 24.692C64.3678 24.9813 63.7891 25.126 63.1264 25.126C62.4451 25.126 61.8291 24.958 61.2784 24.622C60.7278 24.286 60.2938 23.8147 59.9764 23.208C59.6591 22.6013 59.5004 21.9107 59.5004 21.136ZM65.9964 21.15C65.9964 20.5713 65.8798 20.0673 65.6464 19.638C65.4131 19.2087 65.0958 18.882 64.6944 18.658C64.3024 18.4247 63.8684 18.308 63.3924 18.308C62.9164 18.308 62.4824 18.42 62.0904 18.644C61.6984 18.868 61.3858 19.1947 61.1524 19.624C60.9191 20.0533 60.8024 20.5573 60.8024 21.136C60.8024 21.724 60.9191 22.2373 61.1524 22.676C61.3858 23.1053 61.6984 23.4367 62.0904 23.67C62.4824 23.894 62.9164 24.006 63.3924 24.006C63.8684 24.006 64.3024 23.894 64.6944 23.67C65.0958 23.4367 65.4131 23.1053 65.6464 22.676C65.8798 22.2373 65.9964 21.7287 65.9964 21.15ZM71.4914 18.378V22.9C71.4914 23.2733 71.5707 23.5393 71.7294 23.698C71.888 23.8473 72.1634 23.922 72.5554 23.922H73.4934V25H72.3454C71.636 25 71.104 24.8367 70.7494 24.51C70.3947 24.1833 70.2174 23.6467 70.2174 22.9V18.378H69.2234V17.328H70.2174V15.396H71.4914V17.328H73.4934V18.378H71.4914ZM75.061 21.136C75.061 20.352 75.2197 19.666 75.537 19.078C75.8543 18.4807 76.2883 18.0187 76.839 17.692C77.399 17.3653 78.0197 17.202 78.701 17.202C79.373 17.202 79.9563 17.3467 80.451 17.636C80.9457 17.9253 81.3143 18.2893 81.557 18.728V17.328H82.845V25H81.557V23.572C81.305 24.02 80.927 24.3933 80.423 24.692C79.9283 24.9813 79.3497 25.126 78.687 25.126C78.0057 25.126 77.3897 24.958 76.839 24.622C76.2883 24.286 75.8543 23.8147 75.537 23.208C75.2197 22.6013 75.061 21.9107 75.061 21.136ZM81.557 21.15C81.557 20.5713 81.4403 20.0673 81.207 19.638C80.9737 19.2087 80.6563 18.882 80.255 18.658C79.863 18.4247 79.429 18.308 78.953 18.308C78.477 18.308 78.043 18.42 77.651 18.644C77.259 18.868 76.9463 19.1947 76.713 19.624C76.4797 20.0533 76.363 20.5573 76.363 21.136C76.363 21.724 76.4797 22.2373 76.713 22.676C76.9463 23.1053 77.259 23.4367 77.651 23.67C78.043 23.894 78.477 24.006 78.953 24.006C79.429 24.006 79.863 23.894 80.255 23.67C80.6563 23.4367 80.9737 23.1053 81.207 22.676C81.4403 22.2373 81.557 21.7287 81.557 21.15ZM86.7719 18.756C87.0333 18.2987 87.4159 17.9253 87.9199 17.636C88.4239 17.3467 88.9979 17.202 89.6419 17.202C90.3326 17.202 90.9533 17.3653 91.5039 17.692C92.0546 18.0187 92.4886 18.4807 92.8059 19.078C93.1233 19.666 93.2819 20.352 93.2819 21.136C93.2819 21.9107 93.1233 22.6013 92.8059 23.208C92.4886 23.8147 92.0499 24.286 91.4899 24.622C90.9393 24.958 90.3233 25.126 89.6419 25.126C88.9793 25.126 88.3959 24.9813 87.8919 24.692C87.3973 24.4027 87.0239 24.034 86.7719 23.586V25H85.4979V14.64H86.7719V18.756ZM91.9799 21.136C91.9799 20.5573 91.8633 20.0533 91.6299 19.624C91.3966 19.1947 91.0793 18.868 90.6779 18.644C90.2859 18.42 89.8519 18.308 89.3759 18.308C88.9093 18.308 88.4753 18.4247 88.0739 18.658C87.6819 18.882 87.3646 19.2133 87.1219 19.652C86.8886 20.0813 86.7719 20.5807 86.7719 21.15C86.7719 21.7287 86.8886 22.2373 87.1219 22.676C87.3646 23.1053 87.6819 23.4367 88.0739 23.67C88.4753 23.894 88.9093 24.006 89.3759 24.006C89.8519 24.006 90.2859 23.894 90.6779 23.67C91.0793 23.4367 91.3966 23.1053 91.6299 22.676C91.8633 22.2373 91.9799 21.724 91.9799 21.136ZM94.9829 21.136C94.9829 20.352 95.1415 19.666 95.4589 19.078C95.7762 18.4807 96.2102 18.0187 96.7609 17.692C97.3209 17.3653 97.9415 17.202 98.6229 17.202C99.2949 17.202 99.8782 17.3467 100.373 17.636C100.868 17.9253 101.236 18.2893 101.479 18.728V17.328H102.767V25H101.479V23.572C101.227 24.02 100.849 24.3933 100.345 24.692C99.8502 24.9813 99.2715 25.126 98.6089 25.126C97.9275 25.126 97.3115 24.958 96.7609 24.622C96.2102 24.286 95.7762 23.8147 95.4589 23.208C95.1415 22.6013 94.9829 21.9107 94.9829 21.136ZM101.479 21.15C101.479 20.5713 101.362 20.0673 101.129 19.638C100.896 19.2087 100.578 18.882 100.177 18.658C99.7849 18.4247 99.3509 18.308 98.8749 18.308C98.3989 18.308 97.9649 18.42 97.5729 18.644C97.1809 18.868 96.8682 19.1947 96.6349 19.624C96.4015 20.0533 96.2849 20.5573 96.2849 21.136C96.2849 21.724 96.4015 22.2373 96.6349 22.676C96.8682 23.1053 97.1809 23.4367 97.5729 23.67C97.9649 23.894 98.3989 24.006 98.8749 24.006C99.3509 24.006 99.7849 23.894 100.177 23.67C100.578 23.4367 100.896 23.1053 101.129 22.676C101.362 22.2373 101.479 21.7287 101.479 21.15ZM108.136 25.126C107.548 25.126 107.02 25.028 106.554 24.832C106.087 24.6267 105.718 24.3467 105.448 23.992C105.177 23.628 105.028 23.2127 105 22.746H106.316C106.353 23.1287 106.53 23.4413 106.848 23.684C107.174 23.9267 107.599 24.048 108.122 24.048C108.607 24.048 108.99 23.9407 109.27 23.726C109.55 23.5113 109.69 23.2407 109.69 22.914C109.69 22.578 109.54 22.3307 109.242 22.172C108.943 22.004 108.481 21.8407 107.856 21.682C107.286 21.5327 106.82 21.3833 106.456 21.234C106.101 21.0753 105.793 20.8467 105.532 20.548C105.28 20.24 105.154 19.8387 105.154 19.344C105.154 18.952 105.27 18.5927 105.504 18.266C105.737 17.9393 106.068 17.6827 106.498 17.496C106.927 17.3 107.417 17.202 107.968 17.202C108.817 17.202 109.503 17.4167 110.026 17.846C110.548 18.2753 110.828 18.8633 110.866 19.61H109.592C109.564 19.2087 109.4 18.8867 109.102 18.644C108.812 18.4013 108.42 18.28 107.926 18.28C107.468 18.28 107.104 18.378 106.834 18.574C106.563 18.77 106.428 19.0267 106.428 19.344C106.428 19.596 106.507 19.806 106.666 19.974C106.834 20.1327 107.039 20.2633 107.282 20.366C107.534 20.4593 107.879 20.5667 108.318 20.688C108.868 20.8373 109.316 20.9867 109.662 21.136C110.007 21.276 110.301 21.4907 110.544 21.78C110.796 22.0693 110.926 22.4473 110.936 22.914C110.936 23.334 110.819 23.712 110.586 24.048C110.352 24.384 110.021 24.65 109.592 24.846C109.172 25.0327 108.686 25.126 108.136 25.126ZM120.234 20.87C120.234 21.1127 120.22 21.3693 120.192 21.64H114.06C114.107 22.396 114.364 22.9887 114.83 23.418C115.306 23.838 115.88 24.048 116.552 24.048C117.103 24.048 117.56 23.922 117.924 23.67C118.298 23.4087 118.559 23.0633 118.708 22.634H120.08C119.875 23.3713 119.464 23.9733 118.848 24.44C118.232 24.8973 117.467 25.126 116.552 25.126C115.824 25.126 115.171 24.9627 114.592 24.636C114.023 24.3093 113.575 23.8473 113.248 23.25C112.922 22.6433 112.758 21.9433 112.758 21.15C112.758 20.3567 112.917 19.6613 113.234 19.064C113.552 18.4667 113.995 18.0093 114.564 17.692C115.143 17.3653 115.806 17.202 116.552 17.202C117.28 17.202 117.924 17.3607 118.484 17.678C119.044 17.9953 119.474 18.434 119.772 18.994C120.08 19.5447 120.234 20.17 120.234 20.87ZM118.918 20.604C118.918 20.1187 118.811 19.7033 118.596 19.358C118.382 19.0033 118.088 18.7373 117.714 18.56C117.35 18.3733 116.944 18.28 116.496 18.28C115.852 18.28 115.302 18.4853 114.844 18.896C114.396 19.3067 114.14 19.876 114.074 20.604H118.918Z" fill="black"/>
<path d="M18.728 15.888L17.744 20.496H21.32V21.456H17.528L16.352 27H15.296L16.472 21.456H10.808L9.632 27H8.576L9.752 21.456H5.912V20.496H9.968L10.952 15.888H7.16V14.928H11.144L12.368 9.24H13.424L12.2 14.928H17.864L19.088 9.24H20.144L18.92 14.928H22.568V15.888H18.728ZM17.672 15.888H12.008L11.024 20.496H16.688L17.672 15.888Z" fill="black" fill-opacity="0.6"/>
<path d="M176.788 39.0102L170.88 40.8801L169.01 46.7884L165.889 35.8891L176.788 39.0102Z" fill="#A3FF2E" stroke="black" stroke-width="0.8" stroke-miterlimit="10"/>
</g>
<defs>
<filter id="filter0_d_351_92" x="0.912109" y="0" width="180.262" height="54.1745" filterUnits="userSpaceOnUse" color-interpolation-filters="sRGB">
<feFlood flood-opacity="0" result="BackgroundImageFix"/>
<feColorMatrix in="SourceAlpha" type="matrix" values="0 0 0 0 0 0 0 0 0 0 0 0 0 0 0 0 0 0 127 0" result="hardAlpha"/>
<feOffset dx="-1" dy="2"/>
<feGaussianBlur stdDeviation="2"/>
<feComposite in2="hardAlpha" operator="out"/>
<feColorMatrix type="matrix" values="0 0 0 0 0 0 0 0 0 0 0 0 0 0 0 0 0 0 0.3 0"/>
<feBlend mode="normal" in2="BackgroundImageFix" result="effect1_dropShadow_351_92"/>
<feBlend mode="normal" in="SourceGraphic" in2="effect1_dropShadow_351_92" result="shape"/>
</filter>
</defs>
</svg>
