<svg width="160" height="54" viewBox="0 0 160 54" fill="none" xmlns="http://www.w3.org/2000/svg">
<g filter="url(#filter0_d_351_88)">
<rect x="4.5" y="0.5" width="120" height="35" rx="17.5" fill="#FFF7B1"/>
<rect x="4.5" y="0.5" width="120" height="35" rx="17.5" stroke="#6F6F6F"/>
<path d="M26.094 13.242V14.278H21.852V17.568H25.296V18.604H21.852V23H20.578V13.242H26.094ZM29.4067 16.574C29.6307 16.1353 29.948 15.7947 30.3587 15.552C30.7787 15.3093 31.2874 15.188 31.8847 15.188V16.504H31.5487C30.1207 16.504 29.4067 17.2787 29.4067 18.828V23H28.1327V15.328H29.4067V16.574ZM33.3793 19.136C33.3793 18.352 33.538 17.666 33.8553 17.078C34.1727 16.4807 34.6067 16.0187 35.1573 15.692C35.7173 15.3653 36.338 15.202 37.0193 15.202C37.6913 15.202 38.2747 15.3467 38.7693 15.636C39.264 15.9253 39.6327 16.2893 39.8753 16.728V15.328H41.1633V23H39.8753V21.572C39.6233 22.02 39.2453 22.3933 38.7413 22.692C38.2467 22.9813 37.668 23.126 37.0053 23.126C36.324 23.126 35.708 22.958 35.1573 22.622C34.6067 22.286 34.1727 21.8147 33.8553 21.208C33.538 20.6013 33.3793 19.9107 33.3793 19.136ZM39.8753 19.15C39.8753 18.5713 39.7587 18.0673 39.5253 17.638C39.292 17.2087 38.9747 16.882 38.5733 16.658C38.1813 16.4247 37.7473 16.308 37.2713 16.308C36.7953 16.308 36.3613 16.42 35.9693 16.644C35.5773 16.868 35.2647 17.1947 35.0313 17.624C34.798 18.0533 34.6813 18.5573 34.6813 19.136C34.6813 19.724 34.798 20.2373 35.0313 20.676C35.2647 21.1053 35.5773 21.4367 35.9693 21.67C36.3613 21.894 36.7953 22.006 37.2713 22.006C37.7473 22.006 38.1813 21.894 38.5733 21.67C38.9747 21.4367 39.292 21.1053 39.5253 20.676C39.7587 20.2373 39.8753 19.7287 39.8753 19.15ZM53.0423 15.188C53.6396 15.188 54.1716 15.314 54.6383 15.566C55.1049 15.8087 55.4736 16.1773 55.7443 16.672C56.0149 17.1667 56.1503 17.7687 56.1503 18.478V23H54.8903V18.66C54.8903 17.8947 54.6989 17.3113 54.3163 16.91C53.9429 16.4993 53.4343 16.294 52.7903 16.294C52.1276 16.294 51.6003 16.5087 51.2083 16.938C50.8163 17.358 50.6203 17.9693 50.6203 18.772V23H49.3603V18.66C49.3603 17.8947 49.1689 17.3113 48.7863 16.91C48.4129 16.4993 47.9043 16.294 47.2603 16.294C46.5976 16.294 46.0703 16.5087 45.6783 16.938C45.2863 17.358 45.0903 17.9693 45.0903 18.772V23H43.8163V15.328H45.0903V16.434C45.3423 16.0327 45.6783 15.7247 46.0983 15.51C46.5276 15.2953 46.9989 15.188 47.5123 15.188C48.1563 15.188 48.7256 15.3327 49.2203 15.622C49.7149 15.9113 50.0836 16.336 50.3263 16.896C50.5409 16.3547 50.8956 15.9347 51.3903 15.636C51.8849 15.3373 52.4356 15.188 53.0423 15.188ZM65.7401 18.87C65.7401 19.1127 65.7261 19.3693 65.6981 19.64H59.5661C59.6128 20.396 59.8694 20.9887 60.3361 21.418C60.8121 21.838 61.3861 22.048 62.0581 22.048C62.6088 22.048 63.0661 21.922 63.4301 21.67C63.8034 21.4087 64.0648 21.0633 64.2141 20.634H65.5861C65.3808 21.3713 64.9701 21.9733 64.3541 22.44C63.7381 22.8973 62.9728 23.126 62.0581 23.126C61.3301 23.126 60.6768 22.9627 60.0981 22.636C59.5288 22.3093 59.0808 21.8473 58.7541 21.25C58.4274 20.6433 58.2641 19.9433 58.2641 19.15C58.2641 18.3567 58.4228 17.6613 58.7401 17.064C59.0574 16.4667 59.5008 16.0093 60.0701 15.692C60.6488 15.3653 61.3114 15.202 62.0581 15.202C62.7861 15.202 63.4301 15.3607 63.9901 15.678C64.5501 15.9953 64.9794 16.434 65.2781 16.994C65.5861 17.5447 65.7401 18.17 65.7401 18.87ZM64.4241 18.604C64.4241 18.1187 64.3168 17.7033 64.1021 17.358C63.8874 17.0033 63.5934 16.7373 63.2201 16.56C62.8561 16.3733 62.4501 16.28 62.0021 16.28C61.3581 16.28 60.8074 16.4853 60.3501 16.896C59.9021 17.3067 59.6454 17.876 59.5801 18.604H64.4241ZM78.1418 15.328L75.7478 23H74.4318L72.5838 16.91L70.7358 23H69.4198L67.0118 15.328H68.3138L70.0778 21.768L71.9818 15.328H73.2838L75.1458 21.782L76.8818 15.328H78.1418ZM83.2521 23.126C82.5335 23.126 81.8801 22.9627 81.2921 22.636C80.7135 22.3093 80.2561 21.8473 79.9201 21.25C79.5935 20.6433 79.4301 19.9433 79.4301 19.15C79.4301 18.366 79.5981 17.6753 79.9341 17.078C80.2795 16.4713 80.7461 16.0093 81.3341 15.692C81.9221 15.3653 82.5801 15.202 83.3081 15.202C84.0361 15.202 84.6941 15.3653 85.2821 15.692C85.8701 16.0093 86.3321 16.4667 86.6681 17.064C87.0135 17.6613 87.1861 18.3567 87.1861 19.15C87.1861 19.9433 87.0088 20.6433 86.6541 21.25C86.3088 21.8473 85.8375 22.3093 85.2401 22.636C84.6428 22.9627 83.9801 23.126 83.2521 23.126ZM83.2521 22.006C83.7095 22.006 84.1388 21.8987 84.5401 21.684C84.9415 21.4693 85.2635 21.1473 85.5061 20.718C85.7581 20.2887 85.8841 19.766 85.8841 19.15C85.8841 18.534 85.7628 18.0113 85.5201 17.582C85.2775 17.1527 84.9601 16.8353 84.5681 16.63C84.1761 16.4153 83.7515 16.308 83.2941 16.308C82.8275 16.308 82.3981 16.4153 82.0061 16.63C81.6235 16.8353 81.3155 17.1527 81.0821 17.582C80.8488 18.0113 80.7321 18.534 80.7321 19.15C80.7321 19.7753 80.8441 20.3027 81.0681 20.732C81.3015 21.1613 81.6095 21.4833 81.9921 21.698C82.3748 21.9033 82.7948 22.006 83.2521 22.006ZM90.6352 16.574C90.8592 16.1353 91.1765 15.7947 91.5872 15.552C92.0072 15.3093 92.5159 15.188 93.1132 15.188V16.504H92.7772C91.3492 16.504 90.6352 17.2787 90.6352 18.828V23H89.3612V15.328H90.6352V16.574ZM99.3679 23L96.3579 19.612V23H95.0839V12.64H96.3579V18.73L99.3119 15.328H101.09L97.4779 19.15L101.104 23H99.3679ZM105.505 23.126C104.917 23.126 104.39 23.028 103.923 22.832C103.456 22.6267 103.088 22.3467 102.817 21.992C102.546 21.628 102.397 21.2127 102.369 20.746H103.685C103.722 21.1287 103.9 21.4413 104.217 21.684C104.544 21.9267 104.968 22.048 105.491 22.048C105.976 22.048 106.359 21.9407 106.639 21.726C106.919 21.5113 107.059 21.2407 107.059 20.914C107.059 20.578 106.91 20.3307 106.611 20.172C106.312 20.004 105.85 19.8407 105.225 19.682C104.656 19.5327 104.189 19.3833 103.825 19.234C103.47 19.0753 103.162 18.8467 102.901 18.548C102.649 18.24 102.523 17.8387 102.523 17.344C102.523 16.952 102.64 16.5927 102.873 16.266C103.106 15.9393 103.438 15.6827 103.867 15.496C104.296 15.3 104.786 15.202 105.337 15.202C106.186 15.202 106.872 15.4167 107.395 15.846C107.918 16.2753 108.198 16.8633 108.235 17.61H106.961C106.933 17.2087 106.77 16.8867 106.471 16.644C106.182 16.4013 105.79 16.28 105.295 16.28C104.838 16.28 104.474 16.378 104.203 16.574C103.932 16.77 103.797 17.0267 103.797 17.344C103.797 17.596 103.876 17.806 104.035 17.974C104.203 18.1327 104.408 18.2633 104.651 18.366C104.903 18.4593 105.248 18.5667 105.687 18.688C106.238 18.8373 106.686 18.9867 107.031 19.136C107.376 19.276 107.67 19.4907 107.913 19.78C108.165 20.0693 108.296 20.4473 108.305 20.914C108.305 21.334 108.188 21.712 107.955 22.048C107.722 22.384 107.39 22.65 106.961 22.846C106.541 23.0327 106.056 23.126 105.505 23.126Z" fill="black"/>
<path d="M153.679 38.1759L147.528 38.9317L144.607 44.3974L143.536 33.1107L153.679 38.1759Z" fill="#A3FF2E" stroke="black" stroke-width="0.8" stroke-miterlimit="10"/>
</g>
<defs>
<filter id="filter0_d_351_88" x="0" y="0" width="159.045" height="53.7565" filterUnits="userSpaceOnUse" color-interpolation-filters="sRGB">
<feFlood flood-opacity="0" result="BackgroundImageFix"/>
<feColorMatrix in="SourceAlpha" type="matrix" values="0 0 0 0 0 0 0 0 0 0 0 0 0 0 0 0 0 0 127 0" result="hardAlpha"/>
<feOffset dy="4"/>
<feGaussianBlur stdDeviation="2"/>
<feComposite in2="hardAlpha" operator="out"/>
<feColorMatrix type="matrix" values="0 0 0 0 0 0 0 0 0 0 0 0 0 0 0 0 0 0 0.25 0"/>
<feBlend mode="normal" in2="BackgroundImageFix" result="effect1_dropShadow_351_88"/>
<feBlend mode="normal" in="SourceGraphic" in2="effect1_dropShadow_351_88" result="shape"/>
</filter>
</defs>
</svg>
