<svg width="150" height="54" viewBox="0 0 150 54" fill="none" xmlns="http://www.w3.org/2000/svg">
<g filter="url(#filter0_d_351_84)">
<rect x="22.5" y="2.5" width="124" height="35" rx="17.5" fill="#DCFFC7"/>
<rect x="22.5" y="2.5" width="124" height="35" rx="17.5" stroke="#6F6F6F"/>
<path d="M54.594 15.242V16.278H50.352V19.568H53.796V20.604H50.352V25H49.078V15.242H54.594ZM57.9067 18.574C58.1307 18.1353 58.448 17.7947 58.8587 17.552C59.2787 17.3093 59.7874 17.188 60.3847 17.188V18.504H60.0487C58.6207 18.504 57.9067 19.2787 57.9067 20.828V25H56.6327V17.328H57.9067V18.574ZM65.7013 25.126C64.9827 25.126 64.3293 24.9627 63.7413 24.636C63.1627 24.3093 62.7053 23.8473 62.3693 23.25C62.0427 22.6433 61.8793 21.9433 61.8793 21.15C61.8793 20.366 62.0473 19.6753 62.3833 19.078C62.7287 18.4713 63.1953 18.0093 63.7833 17.692C64.3713 17.3653 65.0293 17.202 65.7573 17.202C66.4853 17.202 67.1433 17.3653 67.7313 17.692C68.3193 18.0093 68.7813 18.4667 69.1173 19.064C69.4627 19.6613 69.6353 20.3567 69.6353 21.15C69.6353 21.9433 69.458 22.6433 69.1033 23.25C68.758 23.8473 68.2867 24.3093 67.6893 24.636C67.092 24.9627 66.4293 25.126 65.7013 25.126ZM65.7013 24.006C66.1587 24.006 66.588 23.8987 66.9893 23.684C67.3907 23.4693 67.7127 23.1473 67.9553 22.718C68.2073 22.2887 68.3333 21.766 68.3333 21.15C68.3333 20.534 68.212 20.0113 67.9693 19.582C67.7267 19.1527 67.4093 18.8353 67.0173 18.63C66.6253 18.4153 66.2007 18.308 65.7433 18.308C65.2767 18.308 64.8473 18.4153 64.4553 18.63C64.0727 18.8353 63.7647 19.1527 63.5313 19.582C63.298 20.0113 63.1813 20.534 63.1813 21.15C63.1813 21.7753 63.2933 22.3027 63.5173 22.732C63.7507 23.1613 64.0587 23.4833 64.4413 23.698C64.824 23.9033 65.244 24.006 65.7013 24.006ZM75.5484 17.188C76.4818 17.188 77.2378 17.4727 77.8164 18.042C78.3951 18.602 78.6844 19.414 78.6844 20.478V25H77.4244V20.66C77.4244 19.8947 77.2331 19.3113 76.8504 18.91C76.4678 18.4993 75.9451 18.294 75.2824 18.294C74.6104 18.294 74.0738 18.504 73.6724 18.924C73.2804 19.344 73.0844 19.9553 73.0844 20.758V25H71.8104V17.328H73.0844V18.42C73.3364 18.028 73.6771 17.7247 74.1064 17.51C74.5451 17.2953 75.0258 17.188 75.5484 17.188ZM82.8195 18.378V22.9C82.8195 23.2733 82.8988 23.5393 83.0575 23.698C83.2162 23.8473 83.4915 23.922 83.8835 23.922H84.8215V25H83.6735C82.9642 25 82.4322 24.8367 82.0775 24.51C81.7228 24.1833 81.5455 23.6467 81.5455 22.9V18.378H80.5515V17.328H81.5455V15.396H82.8195V17.328H84.8215V18.378H82.8195ZM92.1851 19.33V20.408H86.5991V19.33H92.1851ZM96.35 16.278V19.54H99.906V20.59H96.35V23.95H100.326V25H95.076V15.228H100.326V16.278H96.35ZM106.492 17.188C107.425 17.188 108.181 17.4727 108.76 18.042C109.338 18.602 109.628 19.414 109.628 20.478V25H108.368V20.66C108.368 19.8947 108.176 19.3113 107.794 18.91C107.411 18.4993 106.888 18.294 106.226 18.294C105.554 18.294 105.017 18.504 104.616 18.924C104.224 19.344 104.028 19.9553 104.028 20.758V25H102.754V17.328H104.028V18.42C104.28 18.028 104.62 17.7247 105.05 17.51C105.488 17.2953 105.969 17.188 106.492 17.188ZM111.733 21.136C111.733 20.352 111.892 19.666 112.209 19.078C112.526 18.4807 112.96 18.0187 113.511 17.692C114.071 17.3653 114.696 17.202 115.387 17.202C115.984 17.202 116.54 17.342 117.053 17.622C117.566 17.8927 117.958 18.252 118.229 18.7V14.64H119.517V25H118.229V23.558C117.977 24.0153 117.604 24.3933 117.109 24.692C116.614 24.9813 116.036 25.126 115.373 25.126C114.692 25.126 114.071 24.958 113.511 24.622C112.96 24.286 112.526 23.8147 112.209 23.208C111.892 22.6013 111.733 21.9107 111.733 21.136ZM118.229 21.15C118.229 20.5713 118.112 20.0673 117.879 19.638C117.646 19.2087 117.328 18.882 116.927 18.658C116.535 18.4247 116.101 18.308 115.625 18.308C115.149 18.308 114.715 18.42 114.323 18.644C113.931 18.868 113.618 19.1947 113.385 19.624C113.152 20.0533 113.035 20.5573 113.035 21.136C113.035 21.724 113.152 22.2373 113.385 22.676C113.618 23.1053 113.931 23.4367 114.323 23.67C114.715 23.894 115.149 24.006 115.625 24.006C116.101 24.006 116.535 23.894 116.927 23.67C117.328 23.4367 117.646 23.1053 117.879 22.676C118.112 22.2373 118.229 21.7287 118.229 21.15Z" fill="black"/>
<path d="M14.7777 45.7884L12.9078 39.8801L6.99956 38.0102L17.8989 34.8891L14.7777 45.7884Z" fill="#A3FF2E" stroke="black" stroke-width="0.8" stroke-miterlimit="10"/>
</g>
<defs>
<filter id="filter0_d_351_84" x="0.613281" y="0" width="149.387" height="53.1745" filterUnits="userSpaceOnUse" color-interpolation-filters="sRGB">
<feFlood flood-opacity="0" result="BackgroundImageFix"/>
<feColorMatrix in="SourceAlpha" type="matrix" values="0 0 0 0 0 0 0 0 0 0 0 0 0 0 0 0 0 0 127 0" result="hardAlpha"/>
<feOffset dx="-1" dy="2"/>
<feGaussianBlur stdDeviation="2"/>
<feComposite in2="hardAlpha" operator="out"/>
<feColorMatrix type="matrix" values="0 0 0 0 0 0 0 0 0 0 0 0 0 0 0 0 0 0 0.3 0"/>
<feBlend mode="normal" in2="BackgroundImageFix" result="effect1_dropShadow_351_84"/>
<feBlend mode="normal" in="SourceGraphic" in2="effect1_dropShadow_351_84" result="shape"/>
</filter>
</defs>
</svg>
