<svg width="128" height="128" viewBox="0 0 128 128" fill="none" xmlns="http://www.w3.org/2000/svg">
<rect width="128" height="128" rx="15" fill="#FFE600"/>
<path d="M105.401 30.1294C104.951 30.7151 104.343 30.8502 103.622 30.8277C101.032 30.8052 98.4412 30.8277 95.8509 30.8277C95.558 30.8277 95.2427 30.8277 94.8147 30.8277C94.8147 32.0441 94.8147 33.1929 94.8147 34.3416C94.8147 34.702 94.8372 35.085 94.8147 35.4454C94.7471 36.5716 94.7246 37.5402 96.0761 38.1709C97.1798 38.689 97.6078 39.9279 97.6303 41.1893C97.6529 44.8158 97.6529 48.4423 97.6303 52.0914C97.6078 54.2088 96.0986 55.8531 93.9813 56.0333C92.2468 56.191 90.4899 56.2135 88.7555 56.2811C86.593 56.3937 85.3091 57.7227 85.2866 59.9301C85.2866 62.2052 85.3091 64.4802 85.2641 66.7778C85.2641 67.2958 85.4217 67.5887 85.8722 67.8364C88.7554 69.4808 91.6161 71.1701 94.4994 72.792C95.2652 73.2199 95.558 73.7605 95.558 74.6165C95.5355 77.5222 95.558 80.4054 95.5355 83.3112C95.5355 83.5364 95.5355 83.7617 95.4905 83.9869C95.3778 84.6401 94.9724 85.0231 94.3417 85.0005C93.6659 84.978 93.2379 84.5726 93.2154 83.8743C93.1929 83.176 93.1929 82.4777 93.1929 81.7569C93.1929 79.7072 93.1704 77.6348 93.2154 75.5851C93.2379 74.9093 92.9902 74.594 92.427 74.2786C89.5889 72.6793 86.7732 71.0125 83.9351 69.4132C83.1918 68.9852 82.8764 68.4446 82.8764 67.5887C82.9215 64.9983 82.8764 62.4079 82.8989 59.8175C82.9215 56.4613 85.2866 54.0286 88.6654 53.9385C90.1745 53.8934 91.7062 53.8258 93.2154 53.7583C94.657 53.6907 95.2201 53.105 95.2201 51.6409C95.2201 48.2847 95.2201 44.9509 95.2201 41.5947C95.2201 40.3108 94.6345 39.59 93.5758 39.59C92.4496 39.59 91.8414 40.2883 91.8414 41.6172C91.8414 43.7571 91.8414 45.897 91.8414 48.0369C91.8414 49.7037 90.9629 50.5822 89.2735 50.5822C83.8675 50.5822 78.4615 50.6273 73.0555 50.5597C71.321 50.5372 69.9245 51.1003 68.7757 52.3617C67.5368 53.7132 66.343 55.0872 65.1717 56.5063C64.2031 57.7001 63.0318 58.5561 61.5677 59.0066C60.3964 59.367 59.2476 59.8175 58.234 60.1779C58.5944 61.2591 58.9322 62.2727 59.2926 63.399C61.3199 62.7458 63.5048 62.0925 65.6672 61.3267C66.1177 61.169 66.4781 60.741 66.816 60.3806C67.7846 59.3445 68.6631 58.2633 69.6767 57.2722C69.9921 56.9568 70.6228 56.7316 71.0507 56.7766C71.6814 56.8442 71.8616 57.4524 71.8616 58.0831C71.8616 68.1067 71.8616 78.1304 71.8616 88.1541C71.8616 89.0551 71.3661 89.5957 70.6453 89.5731C69.947 89.5506 69.519 89.01 69.519 88.0865C69.519 79.4143 69.519 70.7422 69.519 62.07C69.519 61.7772 69.519 61.4844 69.519 61.169C69.3839 61.1915 69.3163 61.169 69.2938 61.2141C67.8522 63.2864 65.6222 63.9396 63.3697 64.6379C59.0899 65.9894 54.8327 67.476 50.5529 68.8275C49.5168 69.1429 48.413 69.278 47.3544 69.3907C46.566 69.4808 45.7776 69.3907 44.9892 69.4132C43.007 69.4582 41.633 70.7872 41.6105 72.7469C41.5879 74.5264 41.5654 76.3059 41.633 78.0628C41.633 78.3782 41.9483 78.8061 42.2637 78.9863C45.0343 80.6307 47.8499 82.2525 50.6655 83.8518C51.3638 84.2347 51.6792 84.7302 51.6566 85.5411C51.6116 87.9288 51.6566 90.3165 51.6341 92.7266C51.6341 93.7403 51.2287 94.2358 50.4628 94.2358C49.697 94.2358 49.2915 93.7178 49.2915 92.7041C49.2915 90.6769 49.269 88.6496 49.314 86.6223C49.3366 86.0142 49.1564 85.6763 48.5932 85.361C45.8001 83.7842 43.0521 82.1399 40.2589 80.5631C39.5607 80.1802 39.2453 79.6846 39.2678 78.8737C39.3129 76.8465 39.2678 74.8192 39.2904 72.792C39.3129 69.661 41.4528 67.3634 44.5838 67.0706C44.7414 67.0481 44.9216 67.0255 45.0793 67.0481C48.9762 67.5436 52.2873 65.629 55.7787 64.4577C56.6347 64.1648 56.9726 63.2413 56.6572 62.4304C56.3644 61.6195 55.4859 61.1915 54.5849 61.4844C52.7378 62.0925 50.9133 62.7683 49.0663 63.3089C48.1878 63.5792 47.2642 63.7594 46.3407 63.7594C40.7996 63.8044 35.2584 63.7369 29.6947 63.8044C28.4333 63.827 27.1043 64.0747 25.9105 64.4577C24.3562 64.9532 23.7706 65.9669 23.7706 67.6112C23.7706 72.0261 23.7706 76.441 23.7706 80.8785C23.7706 82.6129 24.6941 83.8743 26.2483 84.2572C26.2483 83.9419 26.2483 83.649 26.2483 83.3337C26.2483 78.8061 26.2483 74.2786 26.2483 69.7285C26.2483 69.4582 26.2483 69.1654 26.2709 68.8951C26.3384 68.2419 26.7214 67.859 27.3521 67.8364C28.0504 67.8139 28.4558 68.1968 28.5459 68.8951C28.5684 69.1429 28.5684 69.3907 28.5684 69.661C28.5684 78.6034 28.5684 87.5684 28.5684 96.5109C28.5684 97.7948 28.1855 98.3804 27.3746 98.3579C26.6087 98.3354 26.2483 97.7723 26.2483 96.5109C26.2483 93.5376 26.2258 90.5417 26.2483 87.5684C26.2483 87.0503 26.1357 86.78 25.5951 86.6223C22.9597 85.7664 21.4505 83.6941 21.428 80.9235C21.4055 76.4861 21.428 72.0261 21.428 67.5887C21.428 65.1109 22.5317 63.3089 24.8067 62.4529C26.1582 61.9349 27.69 61.7997 29.1316 61.5069C29.4019 61.4618 29.6722 61.5069 30.1227 61.5069C29.8524 61.169 29.6947 60.9438 29.537 60.741C27.8251 58.466 27.2845 55.9207 27.9152 53.1726C28.4783 50.7624 30.0326 49.3433 32.4653 48.8478C36.0242 48.127 39.1552 49.8614 39.9211 53.105C40.5743 55.8756 40.0562 58.466 38.3218 60.7636C38.1641 60.9663 38.0064 61.1465 37.7587 61.4618C38.1191 61.4844 38.3668 61.5294 38.6371 61.5294C41.205 61.5294 43.7729 61.6871 46.3182 61.4844C47.9851 61.3492 49.6519 60.741 51.2512 60.2004C54.6074 59.0742 57.9411 57.9029 61.2749 56.664C61.9506 56.4162 62.6038 55.9207 63.0994 55.3801C64.4734 53.8934 65.7573 52.3167 67.1088 50.8075C68.7081 49.0505 70.6903 48.1495 73.123 48.2621C73.8438 48.3072 74.5872 48.2621 75.4657 48.2621C75.2404 47.9918 75.1053 47.8342 74.9701 47.6765C72.7176 45.1762 72.0869 42.2479 72.9428 39.0494C73.5961 36.6167 75.6008 35.1075 78.1236 34.9048C83.2819 34.4993 85.8948 37.9907 85.219 42.9237C84.9487 44.8383 84.6559 45.3113 82.6962 48.1045C84.9712 48.1045 87.2012 48.1045 89.5438 48.1045C89.5438 47.7891 89.5438 47.4963 89.5438 47.2035C89.5438 45.2888 89.5438 43.3742 89.5664 41.4596C89.5664 39.6801 90.3547 38.3736 91.9991 37.6528C92.5397 37.4276 92.5171 37.0897 92.5171 36.6617C92.5171 32.5847 92.5171 28.5076 92.4946 24.4081C92.4946 23.7098 92.6298 23.1467 93.2379 22.7412C97.2925 22.7412 101.347 22.7412 105.401 22.7412C105.401 23.2368 105.401 23.7548 105.401 24.2504C105.019 24.9712 104.591 25.7145 104.23 26.4578C104.14 26.6381 104.14 26.9534 104.23 27.1336C104.591 27.8769 104.996 28.5977 105.401 29.3185C105.401 29.5663 105.401 29.8591 105.401 30.1294ZM82.989 41.3469C82.9665 41.1442 82.9665 40.7838 82.9215 40.4234C82.6962 38.5989 81.4799 37.405 79.6553 37.2248C77.3578 36.9996 75.7134 37.788 75.2179 39.5675C74.5872 41.7749 74.9025 43.8923 76.3441 45.7168C77.8083 47.5864 80.1283 47.5639 81.615 45.6943C82.5836 44.4554 82.9665 43.0363 82.989 41.3469ZM37.8713 55.1323C37.8488 54.907 37.8713 54.5692 37.8262 54.2313C37.6235 52.4518 36.4973 51.2805 34.7628 51.0552C32.5554 50.7849 30.9561 51.5057 30.393 53.1951C29.6496 55.4702 30.0326 57.61 31.5643 59.4346C32.9608 61.0789 35.0557 61.0339 36.4522 59.367C37.4433 58.1957 37.8488 56.7766 37.8713 55.1323ZM94.9048 25.0613C94.9048 26.2101 94.9048 27.3138 94.9048 28.395C97.36 28.395 99.7702 28.395 102.361 28.395C101.324 27.2462 101.505 26.165 102.316 25.0613C99.7477 25.0613 97.3826 25.0613 94.9048 25.0613Z" fill="#1A1A1A"/>
<path d="M18.9143 103.111C19.3873 102.57 19.973 102.413 20.6938 102.413C26.7756 102.435 32.8573 102.435 38.9391 102.435C39.2545 102.435 39.5473 102.435 39.9527 102.435C39.9527 101.467 39.9527 100.588 39.9527 99.687C39.9527 98.3581 40.2681 98.0427 41.5971 98.0427C47.6788 98.0427 53.7606 98.0427 59.8424 98.0427C60.1803 98.0427 60.5181 98.0427 60.9912 98.0427C60.9912 97.6823 60.9912 97.3669 60.9912 97.0291C60.9236 93.9882 61.0587 94.1233 63.9194 94.1233C69.5732 94.1459 75.227 94.1233 80.9033 94.1233C81.2412 94.1233 81.5791 94.1233 82.0521 94.1233C82.0521 93.0647 82.0521 92.0736 82.0521 91.0599C82.0521 89.7309 82.39 89.4156 83.6964 89.4156C90.3413 89.4156 96.9862 89.4156 103.631 89.3931C104.352 89.3931 104.938 89.5282 105.411 90.0913C105.411 96.4434 105.411 102.818 105.411 109.193C104.915 109.193 104.397 109.193 103.879 109.193C103.248 108.832 103.045 108.292 103.045 107.571C103.068 102.638 103.045 97.7274 103.045 92.7944C103.045 92.479 103.045 92.1411 103.045 91.8032C96.761 91.8032 90.6116 91.8032 84.3497 91.8032C84.3497 92.1636 84.3497 92.5015 84.3497 92.8394C84.3497 97.7048 84.3497 102.57 84.3497 107.458C84.3497 108.179 84.2596 108.81 83.5838 109.193C83.3135 109.193 83.0207 109.193 82.7279 109.193C82.1422 108.787 81.9845 108.224 81.9845 107.526C82.0071 104.17 81.9845 100.836 81.9845 97.4796C81.9845 97.1867 81.9845 96.8714 81.9845 96.511C75.7226 96.511 69.5507 96.511 63.2662 96.511C63.2662 96.8263 63.2662 97.1417 63.2662 97.4345C63.2662 100.723 63.2437 104.012 63.2887 107.301C63.2887 108.044 63.1761 108.675 62.613 109.17C62.2751 109.17 61.9372 109.17 61.5993 109.17C61.0362 108.675 60.9011 108.044 60.9236 107.301C60.9686 105.476 60.9461 103.651 60.9461 101.804C60.9461 101.331 60.9461 100.881 60.9461 100.43C54.6391 100.43 48.4672 100.43 42.2278 100.43C42.2278 102.841 42.2052 105.161 42.2503 107.503C42.2503 108.202 42.0926 108.765 41.507 109.17C41.2367 109.17 40.9438 109.17 40.651 109.17C40.0428 108.765 39.8626 108.202 39.8852 107.503C39.9302 106.602 39.8852 105.724 39.8852 104.8C33.6007 104.8 27.4288 104.8 21.1894 104.8C21.1894 105.746 21.1668 106.647 21.1894 107.548C21.2119 108.269 20.9866 108.81 20.3559 109.17C19.8604 109.17 19.3423 109.17 18.8242 109.17C18.9143 107.165 18.9143 105.138 18.9143 103.111Z" fill="#1A1A1A"/>
<path d="M78.7888 73.3327C78.7888 73.8283 78.7888 74.1211 78.7888 74.4139C78.7888 78.8063 78.7888 83.1987 78.7888 87.5911C78.7888 87.9065 78.7888 88.2218 78.7438 88.5146C78.6537 89.1679 78.2032 89.5283 77.5725 89.5057C76.9868 89.4832 76.5814 89.1453 76.4913 88.5146C76.4688 88.357 76.4688 88.1768 76.4688 88.0191C76.4688 82.5905 76.4688 77.162 76.4688 71.7109C76.4688 71.3505 76.5138 70.9451 76.694 70.6748C77.0769 70.0891 77.6626 70.0215 78.2482 70.3594C81.6045 72.229 84.9832 74.0986 88.3169 76.0357C88.6773 76.2385 88.9702 76.8466 88.9927 77.2746C89.0603 79.4145 89.0377 81.5544 89.0152 83.6943C89.0152 84.4601 88.5197 85.0007 87.8664 85.0007C87.2132 85.0007 86.6951 84.5052 86.6726 83.7393C86.6501 81.9598 86.6726 80.1804 86.6501 78.4234C86.6501 78.1306 86.4924 77.7251 86.2897 77.59C83.8795 76.1934 81.4243 74.8194 78.7888 73.3327Z" fill="#1A1A1A"/>
<path d="M35.3231 84.4144C35.3231 85.7659 35.3231 86.9372 35.3231 88.1085C35.3231 91.0142 35.3231 93.8974 35.3231 96.8032C35.3231 97.7717 34.8951 98.3349 34.1518 98.3349C33.4084 98.3349 32.9805 97.7717 32.9805 96.7806C32.9805 92.1179 32.9805 87.4327 32.9805 82.77C32.9805 81.396 33.8364 80.9005 35.0303 81.5537C38.1612 83.3106 41.2922 85.0901 44.4457 86.8246C45.0539 87.1624 45.3467 87.6129 45.3467 88.3112C45.3242 89.7979 45.3467 91.2845 45.3467 92.7937C45.3467 93.6947 44.9413 94.1677 44.243 94.1903C43.4997 94.2128 43.0492 93.7172 43.0492 92.7937C43.0267 91.6449 43.0717 90.4961 43.0267 89.3248C43.0267 89.032 42.8465 88.6266 42.6437 88.5139C40.2561 87.1624 37.8684 85.8334 35.3231 84.4144Z" fill="#1A1A1A"/>
</svg>
