<svg width="58" height="43" viewBox="0 0 58 43" fill="none" xmlns="http://www.w3.org/2000/svg">
<path d="M21.5234 0L21.5234 10.728C18.6514 10.728 16.2017 11.8262 14.1743 14.0225C12.147 16.2187 11.1333 18.8092 11.1333 21.7939H22.8477C23.2982 21.7939 23.5234 22.0192 23.5234 22.4697L23.5234 41.8984C23.5234 42.349 23.2982 42.5742 22.8477 42.5742H1.25C0.799479 42.5742 0.574219 42.349 0.574219 41.8984L0.574221 21.7939C0.574221 17.7393 1.55974 14.0506 3.53076 10.728C5.50179 7.40543 8.06413 4.78678 11.2178 2.87207C14.3714 0.957356 17.8066 -3.24933e-07 21.5234 0Z" fill="white"/>
<path d="M55.9492 0L55.9492 10.728C53.0772 10.728 50.6274 11.8262 48.6001 14.0225C46.5728 16.2187 45.5591 18.8092 45.5591 21.7939H57.2734C57.724 21.7939 57.9492 22.0192 57.9492 22.4697L57.9492 41.8984C57.9492 42.349 57.724 42.5742 57.2734 42.5742H35.6758C35.2253 42.5742 35 42.349 35 41.8984L35 21.7939C35 17.7393 35.9855 14.0506 37.9565 10.728C39.9276 7.40543 42.4899 4.78678 45.6436 2.87207C48.7972 0.957356 52.2324 -3.24933e-07 55.9492 0Z" fill="white"/>
</svg>
