<svg width="128" height="128" viewBox="0 0 128 128" fill="none" xmlns="http://www.w3.org/2000/svg">
<rect width="128" height="128" rx="15" fill="#FFE600"/>
<path d="M64.827 24.5215C65.6736 24.977 65.942 25.6809 65.9214 26.6333C65.8801 29.7803 65.9008 32.9273 65.9008 36.0743C65.9008 37.0888 65.3845 37.7513 64.5379 37.8548C63.6707 37.979 62.8241 37.3165 62.8241 36.3848C62.8034 32.9273 62.8034 29.4697 62.8241 26.0122C62.8241 25.2668 63.3609 24.8942 63.8978 24.5215C64.2075 24.5215 64.5173 24.5215 64.827 24.5215Z" fill="black"/>
<path d="M63.8962 104.025C63.0702 103.569 62.7812 102.866 62.8018 101.913C62.8431 98.7662 62.8225 95.6192 62.8225 92.4722C62.8225 91.4991 63.2974 90.8573 64.1027 90.6916C64.9906 90.526 65.8991 91.1885 65.8991 92.1616C65.9198 95.6192 65.9198 99.0767 65.8991 102.534C65.8991 103.28 65.3623 103.652 64.8254 104.025C64.5157 104.025 64.2059 104.025 63.8962 104.025Z" fill="black"/>
<path d="M65.1225 42.5335C71.503 42.5749 77.9661 44.7902 83.9129 48.4962C90.0043 52.285 95.1252 57.1712 99.3789 62.9682C100.205 64.0863 100.205 64.5003 99.3789 65.5976C93.845 73.0096 87.1341 79.0345 78.6475 82.844C68.1992 87.5231 57.8954 86.9848 47.7982 81.7467C40.3233 77.8751 34.2939 72.285 29.2969 65.5562C28.5122 64.4796 28.5122 64.0656 29.3175 62.989C35.0372 55.3492 41.9959 49.2209 50.8129 45.3906C54.9427 43.5894 59.981 42.5128 65.1225 42.5335ZM65.1019 45.6391C60.0429 45.6391 55.8512 46.5708 51.866 48.3099C44.0195 51.7053 37.8248 57.1712 32.5387 63.7964C32.2084 64.1898 32.3116 64.4382 32.58 64.7902C37.4944 70.9807 43.2555 76.1566 50.4412 79.5935C59.2583 83.7964 68.1579 84.0655 77.1401 80.1111C84.8628 76.7156 90.9748 71.2912 96.1783 64.7488C96.5087 64.3347 96.4054 64.107 96.137 63.755C92.1931 58.7654 87.6503 54.4382 82.2197 51.1049C76.7684 47.7302 70.8835 45.6805 65.1019 45.6391Z" fill="black"/>
<path d="M43.2438 44.625C42.9547 44.9977 42.7482 45.5774 42.3352 45.7844C41.9223 45.9914 41.3235 45.8879 40.8279 45.8258C40.6214 45.8051 40.4149 45.536 40.2291 45.3496C38.2055 43.3206 36.1613 41.3124 34.179 39.2627C33.8073 38.8693 33.4976 38.2275 33.5389 37.7306C33.5802 37.2958 34.0964 36.7575 34.53 36.5091C35.1495 36.1364 35.7689 36.4883 36.2645 36.9852C38.3294 39.0763 40.4149 41.1467 42.5004 43.2171C42.6243 43.3413 42.7689 43.4656 42.8515 43.6312C42.9547 43.9003 43.058 44.1902 43.2438 44.625Z" fill="black"/>
<path d="M95.4921 37.7927C95.1617 38.3517 94.9965 38.8072 94.7074 39.1178C92.6219 41.2503 90.4951 43.3621 88.3682 45.4739C87.6249 46.1985 86.7576 46.2399 86.0969 45.5981C85.4155 44.9563 85.4361 44.0246 86.2001 43.2586C88.3063 41.1261 90.4125 39.0143 92.5393 36.9025C93.0555 36.3849 93.6956 36.095 94.3564 36.5091C94.79 36.8196 95.0997 37.3372 95.4921 37.7927Z" fill="black"/>
<path d="M35.2629 93.7351C33.8588 93.7558 33.0948 92.4928 33.611 91.4784C33.6936 91.3127 33.7969 91.1678 33.9414 91.0436C36.1095 88.8697 38.257 86.675 40.4664 84.5425C40.7761 84.2527 41.3543 84.0457 41.7879 84.0871C43.0062 84.1906 43.5224 85.6399 42.7171 86.6129C42.1596 87.2548 41.5402 87.8345 40.9413 88.4349C39.3927 89.9877 37.8647 91.5405 36.2954 93.0726C35.9237 93.4038 35.4694 93.5901 35.2629 93.7351Z" fill="black"/>
<path d="M95.2956 91.9955C95.275 93.3826 93.9741 94.1073 92.9623 93.4862C92.7765 93.3619 92.5906 93.1963 92.4254 93.0514C90.3812 91.0017 88.3163 88.9934 86.334 86.9023C85.983 86.5296 85.6526 85.9085 85.7146 85.4323C85.7765 84.9769 86.2514 84.3764 86.6644 84.2108C87.098 84.0452 87.862 84.1694 88.1924 84.48C90.4638 86.6539 92.6732 88.8899 94.862 91.1466C95.1304 91.3951 95.213 91.8091 95.2956 91.9955Z" fill="black"/>
<path d="M64.4071 50.2979C71.6755 50.3186 77.6636 55.8879 78.2831 63.2171C78.8819 70.3392 73.7404 76.9231 66.6578 78.0618C57.2626 79.5939 49.189 71.5608 50.5931 62.0784C50.7583 60.9604 51.4603 60.3392 52.3895 60.4842C53.4013 60.6291 53.8349 61.3951 53.6491 62.7409C53.1742 66.2813 54.186 69.3454 56.6638 71.892C59.947 75.2875 65.0885 76.1156 69.2802 73.9624C73.5339 71.7885 75.8259 67.1715 75.0413 62.3475C74.2979 57.8341 70.5192 54.1902 65.9351 53.5277C64.2419 53.2792 62.59 53.4448 60.9794 53.9624C60.7729 54.0246 60.5871 54.1074 60.3806 54.1488C59.534 54.3351 58.7494 53.9417 58.5016 53.1964C58.2125 52.3889 58.5842 51.6022 59.4101 51.2295C60.5665 50.6912 62.7346 50.2979 64.4071 50.2979Z" fill="black"/>
<path d="M58.1915 64.2312C58.2122 60.815 61.0204 58.0407 64.4481 58.0614C67.8552 58.0821 70.6221 60.9185 70.5808 64.3554C70.5395 67.7301 67.7519 70.5044 64.3655 70.4837C60.9378 70.463 58.1709 67.668 58.1915 64.2312ZM67.4628 64.2519C67.4628 62.5541 66.0587 61.167 64.3449 61.167C62.6517 61.167 61.2682 62.5748 61.2682 64.2933C61.2682 65.991 62.6723 67.3781 64.3862 67.3781C66.1 67.3574 67.4835 65.9496 67.4628 64.2519Z" fill="black"/>
<path d="M56.609 56.5088C56.609 57.3577 55.8863 58.0823 55.0191 58.0616C54.1931 58.0409 53.5117 57.3369 53.5117 56.5088C53.5117 55.6599 54.2344 54.9353 55.1017 54.956C55.9276 54.9767 56.609 55.6806 56.609 56.5088Z" fill="black"/>
</svg>
