<svg width="110" height="54" viewBox="0 0 110 54" fill="none" xmlns="http://www.w3.org/2000/svg">
<g filter="url(#filter0_d_351_84)">
<rect x="22.5" y="2.5" width="84" height="35" rx="17.5" fill="#DCFFC7"/>
<rect x="22.5" y="2.5" width="84" height="35" rx="17.5" stroke="#6F6F6F"/>
<path d="M44.602 20.114C44.602 19.162 44.8167 18.308 45.246 17.552C45.6753 16.7867 46.2587 16.1893 46.996 15.76C47.7427 15.3307 48.5687 15.116 49.474 15.116C50.538 15.116 51.4667 15.3727 52.26 15.886C53.0533 16.3993 53.632 17.1273 53.996 18.07H52.47C52.1993 17.482 51.8073 17.0293 51.294 16.712C50.79 16.3947 50.1833 16.236 49.474 16.236C48.7927 16.236 48.1813 16.3947 47.64 16.712C47.0987 17.0293 46.674 17.482 46.366 18.07C46.058 18.6487 45.904 19.33 45.904 20.114C45.904 20.8887 46.058 21.57 46.366 22.158C46.674 22.7367 47.0987 23.1847 47.64 23.502C48.1813 23.8193 48.7927 23.978 49.474 23.978C50.1833 23.978 50.79 23.824 51.294 23.516C51.8073 23.1987 52.1993 22.746 52.47 22.158H53.996C53.632 23.0913 53.0533 23.8147 52.26 24.328C51.4667 24.832 50.538 25.084 49.474 25.084C48.5687 25.084 47.7427 24.874 46.996 24.454C46.2587 24.0247 45.6753 23.432 45.246 22.676C44.8167 21.92 44.602 21.066 44.602 20.114ZM61.5305 25L59.2065 21.01H57.6665V25H56.3925V15.242H59.5425C60.2798 15.242 60.9005 15.368 61.4045 15.62C61.9178 15.872 62.3005 16.2127 62.5525 16.642C62.8045 17.0713 62.9305 17.5613 62.9305 18.112C62.9305 18.784 62.7345 19.3767 62.3425 19.89C61.9598 20.4033 61.3811 20.744 60.6065 20.912L63.0565 25H61.5305ZM57.6665 19.988H59.5425C60.2331 19.988 60.7511 19.82 61.0965 19.484C61.4418 19.1387 61.6145 18.6813 61.6145 18.112C61.6145 17.5333 61.4418 17.0853 61.0965 16.768C60.7605 16.4507 60.2425 16.292 59.5425 16.292H57.6665V19.988ZM66.656 15.242V21.416C66.656 22.284 66.866 22.928 67.286 23.348C67.7154 23.768 68.308 23.978 69.064 23.978C69.8107 23.978 70.394 23.768 70.814 23.348C71.2434 22.928 71.458 22.284 71.458 21.416V15.242H72.732V21.402C72.732 22.214 72.5687 22.9 72.242 23.46C71.9154 24.0107 71.472 24.4213 70.912 24.692C70.3614 24.9627 69.7407 25.098 69.05 25.098C68.3594 25.098 67.734 24.9627 67.174 24.692C66.6234 24.4213 66.1847 24.0107 65.858 23.46C65.5407 22.9 65.382 22.214 65.382 21.402V15.242H66.656ZM78.3953 15.242C79.4593 15.242 80.3786 15.4427 81.1533 15.844C81.9373 16.236 82.5346 16.8007 82.9453 17.538C83.3653 18.2753 83.5753 19.1433 83.5753 20.142C83.5753 21.1407 83.3653 22.0087 82.9453 22.746C82.5346 23.474 81.9373 24.034 81.1533 24.426C80.3786 24.8087 79.4593 25 78.3953 25H75.3573V15.242H78.3953ZM78.3953 23.95C79.6553 23.95 80.6166 23.6187 81.2793 22.956C81.942 22.284 82.2733 21.346 82.2733 20.142C82.2733 18.9287 81.9373 17.9813 81.2653 17.3C80.6026 16.6187 79.646 16.278 78.3953 16.278H76.6313V23.95H78.3953Z" fill="black"/>
<path d="M14.7777 45.7884L12.9078 39.8801L6.99956 38.0102L17.8989 34.8891L14.7777 45.7884Z" fill="#A3FF2E" stroke="black" stroke-width="0.8" stroke-miterlimit="10"/>
</g>
<defs>
<filter id="filter0_d_351_84" x="0.613281" y="0" width="109.387" height="53.1745" filterUnits="userSpaceOnUse" color-interpolation-filters="sRGB">
<feFlood flood-opacity="0" result="BackgroundImageFix"/>
<feColorMatrix in="SourceAlpha" type="matrix" values="0 0 0 0 0 0 0 0 0 0 0 0 0 0 0 0 0 0 127 0" result="hardAlpha"/>
<feOffset dx="-1" dy="2"/>
<feGaussianBlur stdDeviation="2"/>
<feComposite in2="hardAlpha" operator="out"/>
<feColorMatrix type="matrix" values="0 0 0 0 0 0 0 0 0 0 0 0 0 0 0 0 0 0 0.3 0"/>
<feBlend mode="normal" in2="BackgroundImageFix" result="effect1_dropShadow_351_84"/>
<feBlend mode="normal" in="SourceGraphic" in2="effect1_dropShadow_351_84" result="shape"/>
</filter>
</defs>
</svg>
