<svg width="165" height="46" viewBox="0 0 165 46" fill="none" xmlns="http://www.w3.org/2000/svg">
<g filter="url(#filter0_d_351_97)">
<rect x="30.5" y="2.5" width="111" height="35" rx="17.5" fill="#FEDBFF"/>
<rect x="30.5" y="2.5" width="111" height="35" rx="17.5" stroke="#6F6F6F"/>
<path d="M53.616 15.242C54.68 15.242 55.5993 15.4427 56.374 15.844C57.158 16.236 57.7553 16.8007 58.166 17.538C58.586 18.2753 58.796 19.1433 58.796 20.142C58.796 21.1407 58.586 22.0087 58.166 22.746C57.7553 23.474 57.158 24.034 56.374 24.426C55.5993 24.8087 54.68 25 53.616 25H50.578V15.242H53.616ZM53.616 23.95C54.876 23.95 55.8373 23.6187 56.5 22.956C57.1627 22.284 57.494 21.346 57.494 20.142C57.494 18.9287 57.158 17.9813 56.486 17.3C55.8233 16.6187 54.8667 16.278 53.616 16.278H51.852V23.95H53.616ZM60.5004 21.136C60.5004 20.352 60.6591 19.666 60.9764 19.078C61.2938 18.4807 61.7278 18.0187 62.2784 17.692C62.8384 17.3653 63.4591 17.202 64.1404 17.202C64.8124 17.202 65.3958 17.3467 65.8904 17.636C66.3851 17.9253 66.7538 18.2893 66.9964 18.728V17.328H68.2844V25H66.9964V23.572C66.7444 24.02 66.3664 24.3933 65.8624 24.692C65.3678 24.9813 64.7891 25.126 64.1264 25.126C63.4451 25.126 62.8291 24.958 62.2784 24.622C61.7278 24.286 61.2938 23.8147 60.9764 23.208C60.6591 22.6013 60.5004 21.9107 60.5004 21.136ZM66.9964 21.15C66.9964 20.5713 66.8798 20.0673 66.6464 19.638C66.4131 19.2087 66.0958 18.882 65.6944 18.658C65.3024 18.4247 64.8684 18.308 64.3924 18.308C63.9164 18.308 63.4824 18.42 63.0904 18.644C62.6984 18.868 62.3858 19.1947 62.1524 19.624C61.9191 20.0533 61.8024 20.5573 61.8024 21.136C61.8024 21.724 61.9191 22.2373 62.1524 22.676C62.3858 23.1053 62.6984 23.4367 63.0904 23.67C63.4824 23.894 63.9164 24.006 64.3924 24.006C64.8684 24.006 65.3024 23.894 65.6944 23.67C66.0958 23.4367 66.4131 23.1053 66.6464 22.676C66.8798 22.2373 66.9964 21.7287 66.9964 21.15ZM72.4914 18.378V22.9C72.4914 23.2733 72.5707 23.5393 72.7294 23.698C72.888 23.8473 73.1634 23.922 73.5554 23.922H74.4934V25H73.3454C72.636 25 72.104 24.8367 71.7494 24.51C71.3947 24.1833 71.2174 23.6467 71.2174 22.9V18.378H70.2234V17.328H71.2174V15.396H72.4914V17.328H74.4934V18.378H72.4914ZM76.061 21.136C76.061 20.352 76.2197 19.666 76.537 19.078C76.8543 18.4807 77.2883 18.0187 77.839 17.692C78.399 17.3653 79.0197 17.202 79.701 17.202C80.373 17.202 80.9563 17.3467 81.451 17.636C81.9457 17.9253 82.3143 18.2893 82.557 18.728V17.328H83.845V25H82.557V23.572C82.305 24.02 81.927 24.3933 81.423 24.692C80.9283 24.9813 80.3497 25.126 79.687 25.126C79.0057 25.126 78.3897 24.958 77.839 24.622C77.2883 24.286 76.8543 23.8147 76.537 23.208C76.2197 22.6013 76.061 21.9107 76.061 21.136ZM82.557 21.15C82.557 20.5713 82.4403 20.0673 82.207 19.638C81.9737 19.2087 81.6563 18.882 81.255 18.658C80.863 18.4247 80.429 18.308 79.953 18.308C79.477 18.308 79.043 18.42 78.651 18.644C78.259 18.868 77.9463 19.1947 77.713 19.624C77.4797 20.0533 77.363 20.5573 77.363 21.136C77.363 21.724 77.4797 22.2373 77.713 22.676C77.9463 23.1053 78.259 23.4367 78.651 23.67C79.043 23.894 79.477 24.006 79.953 24.006C80.429 24.006 80.863 23.894 81.255 23.67C81.6563 23.4367 81.9737 23.1053 82.207 22.676C82.4403 22.2373 82.557 21.7287 82.557 21.15ZM87.7719 18.756C88.0333 18.2987 88.4159 17.9253 88.9199 17.636C89.4239 17.3467 89.9979 17.202 90.6419 17.202C91.3326 17.202 91.9533 17.3653 92.5039 17.692C93.0546 18.0187 93.4886 18.4807 93.8059 19.078C94.1233 19.666 94.2819 20.352 94.2819 21.136C94.2819 21.9107 94.1233 22.6013 93.8059 23.208C93.4886 23.8147 93.0499 24.286 92.4899 24.622C91.9393 24.958 91.3233 25.126 90.6419 25.126C89.9793 25.126 89.3959 24.9813 88.8919 24.692C88.3973 24.4027 88.0239 24.034 87.7719 23.586V25H86.4979V14.64H87.7719V18.756ZM92.9799 21.136C92.9799 20.5573 92.8633 20.0533 92.6299 19.624C92.3966 19.1947 92.0793 18.868 91.6779 18.644C91.2859 18.42 90.8519 18.308 90.3759 18.308C89.9093 18.308 89.4753 18.4247 89.0739 18.658C88.6819 18.882 88.3646 19.2133 88.1219 19.652C87.8886 20.0813 87.7719 20.5807 87.7719 21.15C87.7719 21.7287 87.8886 22.2373 88.1219 22.676C88.3646 23.1053 88.6819 23.4367 89.0739 23.67C89.4753 23.894 89.9093 24.006 90.3759 24.006C90.8519 24.006 91.2859 23.894 91.6779 23.67C92.0793 23.4367 92.3966 23.1053 92.6299 22.676C92.8633 22.2373 92.9799 21.724 92.9799 21.136ZM95.9829 21.136C95.9829 20.352 96.1415 19.666 96.4589 19.078C96.7762 18.4807 97.2102 18.0187 97.7609 17.692C98.3209 17.3653 98.9415 17.202 99.6229 17.202C100.295 17.202 100.878 17.3467 101.373 17.636C101.868 17.9253 102.236 18.2893 102.479 18.728V17.328H103.767V25H102.479V23.572C102.227 24.02 101.849 24.3933 101.345 24.692C100.85 24.9813 100.272 25.126 99.6089 25.126C98.9275 25.126 98.3115 24.958 97.7609 24.622C97.2102 24.286 96.7762 23.8147 96.4589 23.208C96.1415 22.6013 95.9829 21.9107 95.9829 21.136ZM102.479 21.15C102.479 20.5713 102.362 20.0673 102.129 19.638C101.896 19.2087 101.578 18.882 101.177 18.658C100.785 18.4247 100.351 18.308 99.8749 18.308C99.3989 18.308 98.9649 18.42 98.5729 18.644C98.1809 18.868 97.8682 19.1947 97.6349 19.624C97.4015 20.0533 97.2849 20.5573 97.2849 21.136C97.2849 21.724 97.4015 22.2373 97.6349 22.676C97.8682 23.1053 98.1809 23.4367 98.5729 23.67C98.9649 23.894 99.3989 24.006 99.8749 24.006C100.351 24.006 100.785 23.894 101.177 23.67C101.578 23.4367 101.896 23.1053 102.129 22.676C102.362 22.2373 102.479 21.7287 102.479 21.15ZM109.136 25.126C108.548 25.126 108.02 25.028 107.554 24.832C107.087 24.6267 106.718 24.3467 106.448 23.992C106.177 23.628 106.028 23.2127 106 22.746H107.316C107.353 23.1287 107.53 23.4413 107.848 23.684C108.174 23.9267 108.599 24.048 109.122 24.048C109.607 24.048 109.99 23.9407 110.27 23.726C110.55 23.5113 110.69 23.2407 110.69 22.914C110.69 22.578 110.54 22.3307 110.242 22.172C109.943 22.004 109.481 21.8407 108.856 21.682C108.286 21.5327 107.82 21.3833 107.456 21.234C107.101 21.0753 106.793 20.8467 106.532 20.548C106.28 20.24 106.154 19.8387 106.154 19.344C106.154 18.952 106.27 18.5927 106.504 18.266C106.737 17.9393 107.068 17.6827 107.498 17.496C107.927 17.3 108.417 17.202 108.968 17.202C109.817 17.202 110.503 17.4167 111.026 17.846C111.548 18.2753 111.828 18.8633 111.866 19.61H110.592C110.564 19.2087 110.4 18.8867 110.102 18.644C109.812 18.4013 109.42 18.28 108.926 18.28C108.468 18.28 108.104 18.378 107.834 18.574C107.563 18.77 107.428 19.0267 107.428 19.344C107.428 19.596 107.507 19.806 107.666 19.974C107.834 20.1327 108.039 20.2633 108.282 20.366C108.534 20.4593 108.879 20.5667 109.318 20.688C109.868 20.8373 110.316 20.9867 110.662 21.136C111.007 21.276 111.301 21.4907 111.544 21.78C111.796 22.0693 111.926 22.4473 111.936 22.914C111.936 23.334 111.819 23.712 111.586 24.048C111.352 24.384 111.021 24.65 110.592 24.846C110.172 25.0327 109.686 25.126 109.136 25.126ZM121.234 20.87C121.234 21.1127 121.22 21.3693 121.192 21.64H115.06C115.107 22.396 115.364 22.9887 115.83 23.418C116.306 23.838 116.88 24.048 117.552 24.048C118.103 24.048 118.56 23.922 118.924 23.67C119.298 23.4087 119.559 23.0633 119.708 22.634H121.08C120.875 23.3713 120.464 23.9733 119.848 24.44C119.232 24.8973 118.467 25.126 117.552 25.126C116.824 25.126 116.171 24.9627 115.592 24.636C115.023 24.3093 114.575 23.8473 114.248 23.25C113.922 22.6433 113.758 21.9433 113.758 21.15C113.758 20.3567 113.917 19.6613 114.234 19.064C114.552 18.4667 114.995 18.0093 115.564 17.692C116.143 17.3653 116.806 17.202 117.552 17.202C118.28 17.202 118.924 17.3607 119.484 17.678C120.044 17.9953 120.474 18.434 120.772 18.994C121.08 19.5447 121.234 20.17 121.234 20.87ZM119.918 20.604C119.918 20.1187 119.811 19.7033 119.596 19.358C119.382 19.0033 119.088 18.7373 118.714 18.56C118.35 18.3733 117.944 18.28 117.496 18.28C116.852 18.28 116.302 18.4853 115.844 18.896C115.396 19.3067 115.14 19.876 115.074 20.604H119.918Z" fill="black"/>
<path d="M16.21 12.14C17.7647 12.14 19.1287 12.448 20.302 13.064C21.49 13.68 22.4067 14.538 23.052 15.638C23.712 16.738 24.042 17.9993 24.042 19.422C24.042 20.566 23.866 21.6513 23.514 22.678C23.1767 23.7047 22.6853 24.5407 22.04 25.186C21.3947 25.8167 20.632 26.132 19.752 26.132C19.048 26.132 18.52 25.9193 18.168 25.494C17.8307 25.054 17.6767 24.4747 17.706 23.756C17.266 24.504 16.6793 25.0907 15.946 25.516C15.2273 25.9267 14.4573 26.132 13.636 26.132C12.536 26.132 11.6707 25.7947 11.04 25.12C10.424 24.4453 10.116 23.536 10.116 22.392C10.116 21.3213 10.336 20.324 10.776 19.4C11.2307 18.4613 11.8613 17.7133 12.668 17.156C13.4747 16.584 14.384 16.298 15.396 16.298C16.188 16.298 16.848 16.4887 17.376 16.87C17.9187 17.2513 18.2853 17.8013 18.476 18.52L18.806 16.584H19.686L18.564 23.03C18.52 23.2647 18.498 23.4993 18.498 23.734C18.498 24.2473 18.6153 24.6507 18.85 24.944C19.0993 25.2373 19.4513 25.384 19.906 25.384C20.566 25.384 21.1453 25.0907 21.644 24.504C22.1427 23.9173 22.524 23.1767 22.788 22.282C23.052 21.3727 23.184 20.456 23.184 19.532C23.184 18.1827 22.8907 17.0093 22.304 16.012C21.732 15.0147 20.9107 14.2447 19.84 13.702C18.7693 13.1593 17.5153 12.888 16.078 12.888C14.3033 12.888 12.69 13.3353 11.238 14.23C9.786 15.11 8.642 16.3127 7.806 17.838C6.98467 19.3487 6.574 21.006 6.574 22.81C6.574 24.1887 6.86 25.3693 7.432 26.352C8.004 27.3493 8.818 28.112 9.874 28.64C10.9447 29.168 12.184 29.432 13.592 29.432C14.8973 29.432 16.1073 29.19 17.222 28.706L17.376 29.454C16.1293 29.9527 14.7947 30.202 13.372 30.202C11.8613 30.202 10.5267 29.9013 9.368 29.3C8.20933 28.7133 7.30733 27.87 6.662 26.77C6.01667 25.6847 5.694 24.4087 5.694 22.942C5.694 20.9327 6.14867 19.1067 7.058 17.464C7.96733 15.8213 9.22133 14.5233 10.82 13.57C12.4187 12.6167 14.2153 12.14 16.21 12.14ZM13.9 25.318C14.5747 25.318 15.2053 25.1493 15.792 24.812C16.3787 24.46 16.87 23.9613 17.266 23.316C17.6767 22.656 17.9407 21.886 18.058 21.006C18.1167 20.7127 18.146 20.4047 18.146 20.082C18.146 19.1873 17.904 18.4687 17.42 17.926C16.9507 17.3687 16.2613 17.09 15.352 17.09C14.5013 17.09 13.746 17.3393 13.086 17.838C12.4407 18.322 11.942 18.96 11.59 19.752C11.238 20.544 11.062 21.38 11.062 22.26C11.062 23.1987 11.3113 23.9467 11.81 24.504C12.3087 25.0467 13.0053 25.318 13.9 25.318Z" fill="black" fill-opacity="0.6"/>
<path d="M159.902 28.6273L154.809 32.1586L154.768 38.3556L148.567 28.8641L159.902 28.6273Z" fill="#A3FF2E" stroke="black" stroke-width="0.8" stroke-miterlimit="10"/>
</g>
<defs>
<filter id="filter0_d_351_97" x="0.693359" y="0" width="163.527" height="45.6856" filterUnits="userSpaceOnUse" color-interpolation-filters="sRGB">
<feFlood flood-opacity="0" result="BackgroundImageFix"/>
<feColorMatrix in="SourceAlpha" type="matrix" values="0 0 0 0 0 0 0 0 0 0 0 0 0 0 0 0 0 0 127 0" result="hardAlpha"/>
<feOffset dx="-1" dy="2"/>
<feGaussianBlur stdDeviation="2"/>
<feComposite in2="hardAlpha" operator="out"/>
<feColorMatrix type="matrix" values="0 0 0 0 0 0 0 0 0 0 0 0 0 0 0 0 0 0 0.3 0"/>
<feBlend mode="normal" in2="BackgroundImageFix" result="effect1_dropShadow_351_97"/>
<feBlend mode="normal" in="SourceGraphic" in2="effect1_dropShadow_351_97" result="shape"/>
</filter>
</defs>
</svg>
