<svg width="165" height="46" viewBox="0 0 165 46" fill="none" xmlns="http://www.w3.org/2000/svg">
<g filter="url(#filter0_d_351_97)">
<rect x="30.5" y="2.5" width="111" height="35" rx="17.5" fill="#FEDBFF"/>
<rect x="30.5" y="2.5" width="111" height="35" rx="17.5" stroke="#6F6F6F"/>
<path d="M56.594 15.242V16.278H52.352V19.568H55.796V20.604H52.352V25H51.078V15.242H56.594ZM65.4367 17.328V25H64.1627V23.866C63.92 24.258 63.5794 24.566 63.1407 24.79C62.7114 25.0047 62.2354 25.112 61.7127 25.112C61.1154 25.112 60.5787 24.9907 60.1027 24.748C59.6267 24.496 59.2487 24.1227 58.9687 23.628C58.698 23.1333 58.5627 22.5313 58.5627 21.822V17.328H59.8227V21.654C59.8227 22.41 60.014 22.9933 60.3967 23.404C60.7794 23.8053 61.302 24.006 61.9647 24.006C62.646 24.006 63.1827 23.796 63.5747 23.376C63.9667 22.956 64.1627 22.3447 64.1627 21.542V17.328H65.4367ZM71.8258 17.188C72.7591 17.188 73.5151 17.4727 74.0938 18.042C74.6724 18.602 74.9618 19.414 74.9618 20.478V25H73.7018V20.66C73.7018 19.8947 73.5104 19.3113 73.1278 18.91C72.7451 18.4993 72.2224 18.294 71.5598 18.294C70.8878 18.294 70.3511 18.504 69.9498 18.924C69.5578 19.344 69.3618 19.9553 69.3618 20.758V25H68.0878V17.328H69.3618V18.42C69.6138 18.028 69.9544 17.7247 70.3838 17.51C70.8224 17.2953 71.3031 17.188 71.8258 17.188ZM77.0668 21.15C77.0668 20.3567 77.2255 19.666 77.5428 19.078C77.8602 18.4807 78.2988 18.0187 78.8588 17.692C79.4282 17.3653 80.0768 17.202 80.8048 17.202C81.7475 17.202 82.5222 17.4307 83.1288 17.888C83.7448 18.3453 84.1508 18.98 84.3468 19.792H82.9748C82.8442 19.3253 82.5875 18.9567 82.2048 18.686C81.8315 18.4153 81.3648 18.28 80.8048 18.28C80.0768 18.28 79.4888 18.532 79.0408 19.036C78.5928 19.5307 78.3688 20.2353 78.3688 21.15C78.3688 22.074 78.5928 22.788 79.0408 23.292C79.4888 23.796 80.0768 24.048 80.8048 24.048C81.3648 24.048 81.8315 23.9173 82.2048 23.656C82.5782 23.3947 82.8348 23.0213 82.9748 22.536H84.3468C84.1415 23.32 83.7308 23.95 83.1148 24.426C82.4988 24.8927 81.7288 25.126 80.8048 25.126C80.0768 25.126 79.4282 24.9627 78.8588 24.636C78.2988 24.3093 77.8602 23.8473 77.5428 23.25C77.2255 22.6527 77.0668 21.9527 77.0668 21.15ZM88.1008 18.378V22.9C88.1008 23.2733 88.1801 23.5393 88.3388 23.698C88.4974 23.8473 88.7728 23.922 89.1647 23.922H90.1028V25H88.9548C88.2454 25 87.7134 24.8367 87.3588 24.51C87.0041 24.1833 86.8268 23.6467 86.8268 22.9V18.378H85.8328V17.328H86.8268V15.396H88.1008V17.328H90.1028V18.378H88.1008ZM92.8044 16.082C92.5617 16.082 92.3564 15.998 92.1884 15.83C92.0204 15.662 91.9364 15.4567 91.9364 15.214C91.9364 14.9713 92.0204 14.766 92.1884 14.598C92.3564 14.43 92.5617 14.346 92.8044 14.346C93.0377 14.346 93.2337 14.43 93.3924 14.598C93.5604 14.766 93.6444 14.9713 93.6444 15.214C93.6444 15.4567 93.5604 15.662 93.3924 15.83C93.2337 15.998 93.0377 16.082 92.8044 16.082ZM93.4204 17.328V25H92.1464V17.328H93.4204ZM99.4377 25.126C98.719 25.126 98.0657 24.9627 97.4777 24.636C96.899 24.3093 96.4417 23.8473 96.1057 23.25C95.779 22.6433 95.6157 21.9433 95.6157 21.15C95.6157 20.366 95.7837 19.6753 96.1197 19.078C96.465 18.4713 96.9317 18.0093 97.5197 17.692C98.1077 17.3653 98.7657 17.202 99.4937 17.202C100.222 17.202 100.88 17.3653 101.468 17.692C102.056 18.0093 102.518 18.4667 102.854 19.064C103.199 19.6613 103.372 20.3567 103.372 21.15C103.372 21.9433 103.194 22.6433 102.84 23.25C102.494 23.8473 102.023 24.3093 101.426 24.636C100.828 24.9627 100.166 25.126 99.4377 25.126ZM99.4377 24.006C99.895 24.006 100.324 23.8987 100.726 23.684C101.127 23.4693 101.449 23.1473 101.692 22.718C101.944 22.2887 102.07 21.766 102.07 21.15C102.07 20.534 101.948 20.0113 101.706 19.582C101.463 19.1527 101.146 18.8353 100.754 18.63C100.362 18.4153 99.937 18.308 99.4797 18.308C99.013 18.308 98.5837 18.4153 98.1917 18.63C97.809 18.8353 97.501 19.1527 97.2677 19.582C97.0343 20.0113 96.9177 20.534 96.9177 21.15C96.9177 21.7753 97.0297 22.3027 97.2537 22.732C97.487 23.1613 97.795 23.4833 98.1777 23.698C98.5603 23.9033 98.9803 24.006 99.4377 24.006ZM109.285 17.188C110.218 17.188 110.974 17.4727 111.553 18.042C112.131 18.602 112.421 19.414 112.421 20.478V25H111.161V20.66C111.161 19.8947 110.969 19.3113 110.587 18.91C110.204 18.4993 109.681 18.294 109.019 18.294C108.347 18.294 107.81 18.504 107.409 18.924C107.017 19.344 106.821 19.9553 106.821 20.758V25H105.547V17.328H106.821V18.42C107.073 18.028 107.413 17.7247 107.843 17.51C108.281 17.2953 108.762 17.188 109.285 17.188ZM117.718 25.126C117.13 25.126 116.602 25.028 116.136 24.832C115.669 24.6267 115.3 24.3467 115.03 23.992C114.759 23.628 114.61 23.2127 114.582 22.746H115.898C115.935 23.1287 116.112 23.4413 116.43 23.684C116.756 23.9267 117.181 24.048 117.704 24.048C118.189 24.048 118.572 23.9407 118.852 23.726C119.132 23.5113 119.272 23.2407 119.272 22.914C119.272 22.578 119.122 22.3307 118.824 22.172C118.525 22.004 118.063 21.8407 117.438 21.682C116.868 21.5327 116.402 21.3833 116.038 21.234C115.683 21.0753 115.375 20.8467 115.114 20.548C114.862 20.24 114.736 19.8387 114.736 19.344C114.736 18.952 114.852 18.5927 115.086 18.266C115.319 17.9393 115.65 17.6827 116.08 17.496C116.509 17.3 116.999 17.202 117.55 17.202C118.399 17.202 119.085 17.4167 119.608 17.846C120.13 18.2753 120.41 18.8633 120.448 19.61H119.174C119.146 19.2087 118.982 18.8867 118.684 18.644C118.394 18.4013 118.002 18.28 117.508 18.28C117.05 18.28 116.686 18.378 116.416 18.574C116.145 18.77 116.01 19.0267 116.01 19.344C116.01 19.596 116.089 19.806 116.248 19.974C116.416 20.1327 116.621 20.2633 116.864 20.366C117.116 20.4593 117.461 20.5667 117.9 20.688C118.45 20.8373 118.898 20.9867 119.244 21.136C119.589 21.276 119.883 21.4907 120.126 21.78C120.378 22.0693 120.508 22.4473 120.518 22.914C120.518 23.334 120.401 23.712 120.168 24.048C119.934 24.384 119.603 24.65 119.174 24.846C118.754 25.0327 118.268 25.126 117.718 25.126Z" fill="black"/>
<path d="M16.21 12.14C17.7647 12.14 19.1287 12.448 20.302 13.064C21.49 13.68 22.4067 14.538 23.052 15.638C23.712 16.738 24.042 17.9993 24.042 19.422C24.042 20.566 23.866 21.6513 23.514 22.678C23.1767 23.7047 22.6853 24.5407 22.04 25.186C21.3947 25.8167 20.632 26.132 19.752 26.132C19.048 26.132 18.52 25.9193 18.168 25.494C17.8307 25.054 17.6767 24.4747 17.706 23.756C17.266 24.504 16.6793 25.0907 15.946 25.516C15.2273 25.9267 14.4573 26.132 13.636 26.132C12.536 26.132 11.6707 25.7947 11.04 25.12C10.424 24.4453 10.116 23.536 10.116 22.392C10.116 21.3213 10.336 20.324 10.776 19.4C11.2307 18.4613 11.8613 17.7133 12.668 17.156C13.4747 16.584 14.384 16.298 15.396 16.298C16.188 16.298 16.848 16.4887 17.376 16.87C17.9187 17.2513 18.2853 17.8013 18.476 18.52L18.806 16.584H19.686L18.564 23.03C18.52 23.2647 18.498 23.4993 18.498 23.734C18.498 24.2473 18.6153 24.6507 18.85 24.944C19.0993 25.2373 19.4513 25.384 19.906 25.384C20.566 25.384 21.1453 25.0907 21.644 24.504C22.1427 23.9173 22.524 23.1767 22.788 22.282C23.052 21.3727 23.184 20.456 23.184 19.532C23.184 18.1827 22.8907 17.0093 22.304 16.012C21.732 15.0147 20.9107 14.2447 19.84 13.702C18.7693 13.1593 17.5153 12.888 16.078 12.888C14.3033 12.888 12.69 13.3353 11.238 14.23C9.786 15.11 8.642 16.3127 7.806 17.838C6.98467 19.3487 6.574 21.006 6.574 22.81C6.574 24.1887 6.86 25.3693 7.432 26.352C8.004 27.3493 8.818 28.112 9.874 28.64C10.9447 29.168 12.184 29.432 13.592 29.432C14.8973 29.432 16.1073 29.19 17.222 28.706L17.376 29.454C16.1293 29.9527 14.7947 30.202 13.372 30.202C11.8613 30.202 10.5267 29.9013 9.368 29.3C8.20933 28.7133 7.30733 27.87 6.662 26.77C6.01667 25.6847 5.694 24.4087 5.694 22.942C5.694 20.9327 6.14867 19.1067 7.058 17.464C7.96733 15.8213 9.22133 14.5233 10.82 13.57C12.4187 12.6167 14.2153 12.14 16.21 12.14ZM13.9 25.318C14.5747 25.318 15.2053 25.1493 15.792 24.812C16.3787 24.46 16.87 23.9613 17.266 23.316C17.6767 22.656 17.9407 21.886 18.058 21.006C18.1167 20.7127 18.146 20.4047 18.146 20.082C18.146 19.1873 17.904 18.4687 17.42 17.926C16.9507 17.3687 16.2613 17.09 15.352 17.09C14.5013 17.09 13.746 17.3393 13.086 17.838C12.4407 18.322 11.942 18.96 11.59 19.752C11.238 20.544 11.062 21.38 11.062 22.26C11.062 23.1987 11.3113 23.9467 11.81 24.504C12.3087 25.0467 13.0053 25.318 13.9 25.318Z" fill="black" fill-opacity="0.6"/>
<path d="M159.902 28.6273L154.809 32.1586L154.768 38.3556L148.567 28.8641L159.902 28.6273Z" fill="#A3FF2E" stroke="black" stroke-width="0.8" stroke-miterlimit="10"/>
</g>
<defs>
<filter id="filter0_d_351_97" x="0.693359" y="0" width="163.527" height="45.6856" filterUnits="userSpaceOnUse" color-interpolation-filters="sRGB">
<feFlood flood-opacity="0" result="BackgroundImageFix"/>
<feColorMatrix in="SourceAlpha" type="matrix" values="0 0 0 0 0 0 0 0 0 0 0 0 0 0 0 0 0 0 127 0" result="hardAlpha"/>
<feOffset dx="-1" dy="2"/>
<feGaussianBlur stdDeviation="2"/>
<feComposite in2="hardAlpha" operator="out"/>
<feColorMatrix type="matrix" values="0 0 0 0 0 0 0 0 0 0 0 0 0 0 0 0 0 0 0.3 0"/>
<feBlend mode="normal" in2="BackgroundImageFix" result="effect1_dropShadow_351_97"/>
<feBlend mode="normal" in="SourceGraphic" in2="effect1_dropShadow_351_97" result="shape"/>
</filter>
</defs>
</svg>
