<svg width="121" height="54" viewBox="0 0 121 54" fill="none" xmlns="http://www.w3.org/2000/svg">
<g filter="url(#filter0_d_54_13965)">
<rect x="4.5" y="0.5" width="81" height="35" rx="17.5" fill="#E6FFB1"/>
<rect x="4.5" y="0.5" width="81" height="35" rx="17.5" stroke="#6F6F6F"/>
<path d="M31.492 13.242V20.452C31.492 21.2547 31.2447 21.8987 30.75 22.384C30.2553 22.86 29.602 23.098 28.79 23.098C27.9687 23.098 27.3107 22.8553 26.816 22.37C26.3213 21.8753 26.074 21.2033 26.074 20.354H27.348C27.3573 20.83 27.4787 21.2173 27.712 21.516C27.9547 21.8147 28.314 21.964 28.79 21.964C29.266 21.964 29.6207 21.824 29.854 21.544C30.0873 21.2547 30.204 20.8907 30.204 20.452V13.242H31.492ZM37.8478 23.126C37.1292 23.126 36.4758 22.9627 35.8878 22.636C35.3092 22.3093 34.8518 21.8473 34.5158 21.25C34.1892 20.6433 34.0258 19.9433 34.0258 19.15C34.0258 18.366 34.1938 17.6753 34.5298 17.078C34.8752 16.4713 35.3418 16.0093 35.9298 15.692C36.5178 15.3653 37.1758 15.202 37.9038 15.202C38.6318 15.202 39.2898 15.3653 39.8778 15.692C40.4658 16.0093 40.9278 16.4667 41.2638 17.064C41.6092 17.6613 41.7818 18.3567 41.7818 19.15C41.7818 19.9433 41.6045 20.6433 41.2498 21.25C40.9045 21.8473 40.4332 22.3093 39.8358 22.636C39.2385 22.9627 38.5758 23.126 37.8478 23.126ZM37.8478 22.006C38.3052 22.006 38.7345 21.8987 39.1358 21.684C39.5372 21.4693 39.8592 21.1473 40.1018 20.718C40.3538 20.2887 40.4798 19.766 40.4798 19.15C40.4798 18.534 40.3585 18.0113 40.1158 17.582C39.8732 17.1527 39.5558 16.8353 39.1638 16.63C38.7718 16.4153 38.3472 16.308 37.8898 16.308C37.4232 16.308 36.9938 16.4153 36.6018 16.63C36.2192 16.8353 35.9112 17.1527 35.6778 17.582C35.4445 18.0113 35.3278 18.534 35.3278 19.15C35.3278 19.7753 35.4398 20.3027 35.6638 20.732C35.8972 21.1613 36.2052 21.4833 36.5878 21.698C36.9705 21.9033 37.3905 22.006 37.8478 22.006ZM44.6149 14.082C44.3722 14.082 44.1669 13.998 43.9989 13.83C43.8309 13.662 43.7469 13.4567 43.7469 13.214C43.7469 12.9713 43.8309 12.766 43.9989 12.598C44.1669 12.43 44.3722 12.346 44.6149 12.346C44.8482 12.346 45.0442 12.43 45.2029 12.598C45.3709 12.766 45.4549 12.9713 45.4549 13.214C45.4549 13.4567 45.3709 13.662 45.2029 13.83C45.0442 13.998 44.8482 14.082 44.6149 14.082ZM45.2309 15.328V23H43.9569V15.328H45.2309ZM51.6402 15.188C52.5736 15.188 53.3296 15.4727 53.9082 16.042C54.4869 16.602 54.7762 17.414 54.7762 18.478V23H53.5162V18.66C53.5162 17.8947 53.3249 17.3113 52.9422 16.91C52.5596 16.4993 52.0369 16.294 51.3742 16.294C50.7022 16.294 50.1656 16.504 49.7642 16.924C49.3722 17.344 49.1762 17.9553 49.1762 18.758V23H47.9022V15.328H49.1762V16.42C49.4282 16.028 49.7689 15.7247 50.1982 15.51C50.6369 15.2953 51.1176 15.188 51.6402 15.188ZM60.0733 23.126C59.4853 23.126 58.958 23.028 58.4913 22.832C58.0246 22.6267 57.656 22.3467 57.3853 21.992C57.1146 21.628 56.9653 21.2127 56.9373 20.746H58.2533C58.2906 21.1287 58.468 21.4413 58.7853 21.684C59.112 21.9267 59.5366 22.048 60.0593 22.048C60.5446 22.048 60.9273 21.9407 61.2073 21.726C61.4873 21.5113 61.6273 21.2407 61.6273 20.914C61.6273 20.578 61.478 20.3307 61.1793 20.172C60.8806 20.004 60.4186 19.8407 59.7933 19.682C59.224 19.5327 58.7573 19.3833 58.3933 19.234C58.0386 19.0753 57.7306 18.8467 57.4693 18.548C57.2173 18.24 57.0913 17.8387 57.0913 17.344C57.0913 16.952 57.208 16.5927 57.4413 16.266C57.6746 15.9393 58.006 15.6827 58.4353 15.496C58.8646 15.3 59.3546 15.202 59.9053 15.202C60.7546 15.202 61.4406 15.4167 61.9633 15.846C62.486 16.2753 62.766 16.8633 62.8033 17.61H61.5293C61.5013 17.2087 61.338 16.8867 61.0393 16.644C60.75 16.4013 60.358 16.28 59.8633 16.28C59.406 16.28 59.042 16.378 58.7713 16.574C58.5006 16.77 58.3653 17.0267 58.3653 17.344C58.3653 17.596 58.4446 17.806 58.6033 17.974C58.7713 18.1327 58.9766 18.2633 59.2193 18.366C59.4713 18.4593 59.8166 18.5667 60.2553 18.688C60.806 18.8373 61.254 18.9867 61.5993 19.136C61.9446 19.276 62.2386 19.4907 62.4813 19.78C62.7333 20.0693 62.864 20.4473 62.8733 20.914C62.8733 21.334 62.7566 21.712 62.5233 22.048C62.29 22.384 61.9586 22.65 61.5293 22.846C61.1093 23.0327 60.624 23.126 60.0733 23.126Z" fill="black"/>
<path d="M114.679 38.1759L108.528 38.9317L105.607 44.3974L104.536 33.1107L114.679 38.1759Z" fill="#A3FF2E" stroke="black" stroke-width="0.8" stroke-miterlimit="10"/>
</g>
<defs>
<filter id="filter0_d_54_13965" x="0" y="0" width="120.045" height="53.7565" filterUnits="userSpaceOnUse" color-interpolation-filters="sRGB">
<feFlood flood-opacity="0" result="BackgroundImageFix"/>
<feColorMatrix in="SourceAlpha" type="matrix" values="0 0 0 0 0 0 0 0 0 0 0 0 0 0 0 0 0 0 127 0" result="hardAlpha"/>
<feOffset dy="4"/>
<feGaussianBlur stdDeviation="2"/>
<feComposite in2="hardAlpha" operator="out"/>
<feColorMatrix type="matrix" values="0 0 0 0 0 0 0 0 0 0 0 0 0 0 0 0 0 0 0.25 0"/>
<feBlend mode="normal" in2="BackgroundImageFix" result="effect1_dropShadow_54_13965"/>
<feBlend mode="normal" in="SourceGraphic" in2="effect1_dropShadow_54_13965" result="shape"/>
</filter>
</defs>
</svg>
