<svg width="140" height="54" viewBox="0 0 140 54" fill="none" xmlns="http://www.w3.org/2000/svg">
<g filter="url(#filter0_d_351_92)">
<rect x="28.5" y="2.5" width="91" height="35" rx="17.5" fill="#DEF5FF"/>
<rect x="28.5" y="2.5" width="91" height="35" rx="17.5" stroke="#6F6F6F"/>
<path d="M56.584 15.242V16.278H53.924V25H52.65V16.278H49.976V15.242H56.584ZM58.1762 21.136C58.1762 20.352 58.3349 19.666 58.6522 19.078C58.9696 18.4807 59.4036 18.0187 59.9542 17.692C60.5142 17.3653 61.1349 17.202 61.8162 17.202C62.4882 17.202 63.0716 17.3467 63.5662 17.636C64.0609 17.9253 64.4296 18.2893 64.6722 18.728V17.328H65.9602V25H64.6722V23.572C64.4202 24.02 64.0422 24.3933 63.5382 24.692C63.0436 24.9813 62.4649 25.126 61.8022 25.126C61.1209 25.126 60.5049 24.958 59.9542 24.622C59.4036 24.286 58.9696 23.8147 58.6522 23.208C58.3349 22.6013 58.1762 21.9107 58.1762 21.136ZM64.6722 21.15C64.6722 20.5713 64.5556 20.0673 64.3222 19.638C64.0889 19.2087 63.7716 18.882 63.3702 18.658C62.9782 18.4247 62.5442 18.308 62.0682 18.308C61.5922 18.308 61.1582 18.42 60.7662 18.644C60.3742 18.868 60.0616 19.1947 59.8282 19.624C59.5949 20.0533 59.4782 20.5573 59.4782 21.136C59.4782 21.724 59.5949 22.2373 59.8282 22.676C60.0616 23.1053 60.3742 23.4367 60.7662 23.67C61.1582 23.894 61.5922 24.006 62.0682 24.006C62.5442 24.006 62.9782 23.894 63.3702 23.67C63.7716 23.4367 64.0889 23.1053 64.3222 22.676C64.5556 22.2373 64.6722 21.7287 64.6722 21.15ZM69.8872 18.756C70.1485 18.2987 70.5312 17.9253 71.0352 17.636C71.5392 17.3467 72.1132 17.202 72.7572 17.202C73.4478 17.202 74.0685 17.3653 74.6192 17.692C75.1698 18.0187 75.6038 18.4807 75.9212 19.078C76.2385 19.666 76.3972 20.352 76.3972 21.136C76.3972 21.9107 76.2385 22.6013 75.9212 23.208C75.6038 23.8147 75.1652 24.286 74.6052 24.622C74.0545 24.958 73.4385 25.126 72.7572 25.126C72.0945 25.126 71.5112 24.9813 71.0072 24.692C70.5125 24.4027 70.1392 24.034 69.8872 23.586V25H68.6132V14.64H69.8872V18.756ZM75.0952 21.136C75.0952 20.5573 74.9785 20.0533 74.7452 19.624C74.5118 19.1947 74.1945 18.868 73.7932 18.644C73.4012 18.42 72.9672 18.308 72.4912 18.308C72.0245 18.308 71.5905 18.4247 71.1892 18.658C70.7972 18.882 70.4798 19.2133 70.2372 19.652C70.0038 20.0813 69.8872 20.5807 69.8872 21.15C69.8872 21.7287 70.0038 22.2373 70.2372 22.676C70.4798 23.1053 70.7972 23.4367 71.1892 23.67C71.5905 23.894 72.0245 24.006 72.4912 24.006C72.9672 24.006 73.4012 23.894 73.7932 23.67C74.1945 23.4367 74.5118 23.1053 74.7452 22.676C74.9785 22.2373 75.0952 21.724 75.0952 21.136ZM79.8481 14.64V25H78.5741V14.64H79.8481ZM89.5194 20.87C89.5194 21.1127 89.5054 21.3693 89.4774 21.64H83.3454C83.3921 22.396 83.6487 22.9887 84.1154 23.418C84.5914 23.838 85.1654 24.048 85.8374 24.048C86.3881 24.048 86.8454 23.922 87.2094 23.67C87.5827 23.4087 87.8441 23.0633 87.9934 22.634H89.3654C89.1601 23.3713 88.7494 23.9733 88.1334 24.44C87.5174 24.8973 86.7521 25.126 85.8374 25.126C85.1094 25.126 84.4561 24.9627 83.8774 24.636C83.3081 24.3093 82.8601 23.8473 82.5334 23.25C82.2067 22.6433 82.0434 21.9433 82.0434 21.15C82.0434 20.3567 82.2021 19.6613 82.5194 19.064C82.8367 18.4667 83.2801 18.0093 83.8494 17.692C84.4281 17.3653 85.0907 17.202 85.8374 17.202C86.5654 17.202 87.2094 17.3607 87.7694 17.678C88.3294 17.9953 88.7587 18.434 89.0574 18.994C89.3654 19.5447 89.5194 20.17 89.5194 20.87ZM88.2034 20.604C88.2034 20.1187 88.0961 19.7033 87.8814 19.358C87.6667 19.0033 87.3727 18.7373 86.9994 18.56C86.6354 18.3733 86.2294 18.28 85.7814 18.28C85.1374 18.28 84.5867 18.4853 84.1294 18.896C83.6814 19.3067 83.4247 19.876 83.3594 20.604H88.2034ZM94.417 25.126C93.829 25.126 93.3017 25.028 92.835 24.832C92.3684 24.6267 91.9997 24.3467 91.729 23.992C91.4584 23.628 91.309 23.2127 91.281 22.746H92.597C92.6344 23.1287 92.8117 23.4413 93.129 23.684C93.4557 23.9267 93.8804 24.048 94.403 24.048C94.8884 24.048 95.271 23.9407 95.551 23.726C95.831 23.5113 95.971 23.2407 95.971 22.914C95.971 22.578 95.8217 22.3307 95.523 22.172C95.2244 22.004 94.7624 21.8407 94.137 21.682C93.5677 21.5327 93.101 21.3833 92.737 21.234C92.3824 21.0753 92.0744 20.8467 91.813 20.548C91.561 20.24 91.435 19.8387 91.435 19.344C91.435 18.952 91.5517 18.5927 91.785 18.266C92.0184 17.9393 92.3497 17.6827 92.779 17.496C93.2084 17.3 93.6984 17.202 94.249 17.202C95.0984 17.202 95.7844 17.4167 96.307 17.846C96.8297 18.2753 97.1097 18.8633 97.147 19.61H95.873C95.845 19.2087 95.6817 18.8867 95.383 18.644C95.0937 18.4013 94.7017 18.28 94.207 18.28C93.7497 18.28 93.3857 18.378 93.115 18.574C92.8444 18.77 92.709 19.0267 92.709 19.344C92.709 19.596 92.7884 19.806 92.947 19.974C93.115 20.1327 93.3204 20.2633 93.563 20.366C93.815 20.4593 94.1604 20.5667 94.599 20.688C95.1497 20.8373 95.5977 20.9867 95.943 21.136C96.2884 21.276 96.5824 21.4907 96.825 21.78C97.077 22.0693 97.2077 22.4473 97.217 22.914C97.217 23.334 97.1004 23.712 96.867 24.048C96.6337 24.384 96.3024 24.65 95.873 24.846C95.453 25.0327 94.9677 25.126 94.417 25.126Z" fill="black"/>
<path d="M134.788 38.0102L128.88 39.8801L127.01 45.7884L123.889 34.8891L134.788 38.0102Z" fill="#A3FF2E" stroke="black" stroke-width="0.8" stroke-miterlimit="10"/>
<path d="M18.728 15.888L17.744 20.496H21.32V21.456H17.528L16.352 27H15.296L16.472 21.456H10.808L9.632 27H8.576L9.752 21.456H5.912V20.496H9.968L10.952 15.888H7.16V14.928H11.144L12.368 9.24H13.424L12.2 14.928H17.864L19.088 9.24H20.144L18.92 14.928H22.568V15.888H18.728ZM17.672 15.888H12.008L11.024 20.496H16.688L17.672 15.888Z" fill="black" fill-opacity="0.6"/>
</g>
<defs>
<filter id="filter0_d_351_92" x="0.912109" y="0" width="138.262" height="53.1745" filterUnits="userSpaceOnUse" color-interpolation-filters="sRGB">
<feFlood flood-opacity="0" result="BackgroundImageFix"/>
<feColorMatrix in="SourceAlpha" type="matrix" values="0 0 0 0 0 0 0 0 0 0 0 0 0 0 0 0 0 0 127 0" result="hardAlpha"/>
<feOffset dx="-1" dy="2"/>
<feGaussianBlur stdDeviation="2"/>
<feComposite in2="hardAlpha" operator="out"/>
<feColorMatrix type="matrix" values="0 0 0 0 0 0 0 0 0 0 0 0 0 0 0 0 0 0 0.3 0"/>
<feBlend mode="normal" in2="BackgroundImageFix" result="effect1_dropShadow_351_92"/>
<feBlend mode="normal" in="SourceGraphic" in2="effect1_dropShadow_351_92" result="shape"/>
</filter>
</defs>
</svg>
