<svg width="121" height="54" viewBox="0 0 121 54" fill="none" xmlns="http://www.w3.org/2000/svg">
<g filter="url(#filter0_d_351_88)">
<rect x="4.5" y="0.5" width="81" height="35" rx="17.5" fill="#FFF7B1"/>
<rect x="4.5" y="0.5" width="81" height="35" rx="17.5" stroke="#6F6F6F"/>
<path d="M32.642 13.242L28.96 23H27.49L23.808 13.242H25.166L28.232 21.656L31.298 13.242H32.642ZM35.1969 14.082C34.9543 14.082 34.7489 13.998 34.5809 13.83C34.4129 13.662 34.3289 13.4567 34.3289 13.214C34.3289 12.9713 34.4129 12.766 34.5809 12.598C34.7489 12.43 34.9543 12.346 35.1969 12.346C35.4303 12.346 35.6263 12.43 35.7849 12.598C35.9529 12.766 36.0369 12.9713 36.0369 13.214C36.0369 13.4567 35.9529 13.662 35.7849 13.83C35.6263 13.998 35.4303 14.082 35.1969 14.082ZM35.8129 15.328V23H34.5389V15.328H35.8129ZM45.4843 18.87C45.4843 19.1127 45.4703 19.3693 45.4423 19.64H39.3103C39.3569 20.396 39.6136 20.9887 40.0803 21.418C40.5563 21.838 41.1303 22.048 41.8023 22.048C42.3529 22.048 42.8103 21.922 43.1743 21.67C43.5476 21.4087 43.8089 21.0633 43.9583 20.634H45.3303C45.1249 21.3713 44.7143 21.9733 44.0983 22.44C43.4823 22.8973 42.7169 23.126 41.8023 23.126C41.0743 23.126 40.4209 22.9627 39.8423 22.636C39.2729 22.3093 38.8249 21.8473 38.4983 21.25C38.1716 20.6433 38.0083 19.9433 38.0083 19.15C38.0083 18.3567 38.1669 17.6613 38.4843 17.064C38.8016 16.4667 39.2449 16.0093 39.8143 15.692C40.3929 15.3653 41.0556 15.202 41.8023 15.202C42.5303 15.202 43.1743 15.3607 43.7343 15.678C44.2943 15.9953 44.7236 16.434 45.0223 16.994C45.3303 17.5447 45.4843 18.17 45.4843 18.87ZM44.1683 18.604C44.1683 18.1187 44.0609 17.7033 43.8463 17.358C43.6316 17.0033 43.3376 16.7373 42.9643 16.56C42.6003 16.3733 42.1943 16.28 41.7463 16.28C41.1023 16.28 40.5516 16.4853 40.0943 16.896C39.6463 17.3067 39.3896 17.876 39.3243 18.604H44.1683ZM57.8859 15.328L55.4919 23H54.1759L52.3279 16.91L50.4799 23H49.1639L46.7559 15.328H48.0579L49.8219 21.768L51.7259 15.328H53.0279L54.8899 21.782L56.6259 15.328H57.8859ZM62.3663 23.126C61.7783 23.126 61.2509 23.028 60.7843 22.832C60.3176 22.6267 59.9489 22.3467 59.6783 21.992C59.4076 21.628 59.2583 21.2127 59.2303 20.746H60.5463C60.5836 21.1287 60.7609 21.4413 61.0783 21.684C61.4049 21.9267 61.8296 22.048 62.3523 22.048C62.8376 22.048 63.2203 21.9407 63.5003 21.726C63.7803 21.5113 63.9203 21.2407 63.9203 20.914C63.9203 20.578 63.7709 20.3307 63.4723 20.172C63.1736 20.004 62.7116 19.8407 62.0863 19.682C61.5169 19.5327 61.0503 19.3833 60.6863 19.234C60.3316 19.0753 60.0236 18.8467 59.7623 18.548C59.5103 18.24 59.3843 17.8387 59.3843 17.344C59.3843 16.952 59.5009 16.5927 59.7343 16.266C59.9676 15.9393 60.2989 15.6827 60.7283 15.496C61.1576 15.3 61.6476 15.202 62.1983 15.202C63.0476 15.202 63.7336 15.4167 64.2563 15.846C64.7789 16.2753 65.0589 16.8633 65.0963 17.61H63.8223C63.7943 17.2087 63.6309 16.8867 63.3323 16.644C63.0429 16.4013 62.6509 16.28 62.1563 16.28C61.6989 16.28 61.3349 16.378 61.0643 16.574C60.7936 16.77 60.6583 17.0267 60.6583 17.344C60.6583 17.596 60.7376 17.806 60.8963 17.974C61.0643 18.1327 61.2696 18.2633 61.5123 18.366C61.7643 18.4593 62.1096 18.5667 62.5483 18.688C63.0989 18.8373 63.5469 18.9867 63.8923 19.136C64.2376 19.276 64.5316 19.4907 64.7743 19.78C65.0263 20.0693 65.1569 20.4473 65.1663 20.914C65.1663 21.334 65.0496 21.712 64.8163 22.048C64.5829 22.384 64.2516 22.65 63.8223 22.846C63.4023 23.0327 62.9169 23.126 62.3663 23.126Z" fill="black"/>
<path d="M114.679 38.1759L108.528 38.9317L105.607 44.3974L104.536 33.1107L114.679 38.1759Z" fill="#A3FF2E" stroke="black" stroke-width="0.8" stroke-miterlimit="10"/>
</g>
<defs>
<filter id="filter0_d_351_88" x="0" y="0" width="120.045" height="53.7565" filterUnits="userSpaceOnUse" color-interpolation-filters="sRGB">
<feFlood flood-opacity="0" result="BackgroundImageFix"/>
<feColorMatrix in="SourceAlpha" type="matrix" values="0 0 0 0 0 0 0 0 0 0 0 0 0 0 0 0 0 0 127 0" result="hardAlpha"/>
<feOffset dy="4"/>
<feGaussianBlur stdDeviation="2"/>
<feComposite in2="hardAlpha" operator="out"/>
<feColorMatrix type="matrix" values="0 0 0 0 0 0 0 0 0 0 0 0 0 0 0 0 0 0 0.25 0"/>
<feBlend mode="normal" in2="BackgroundImageFix" result="effect1_dropShadow_351_88"/>
<feBlend mode="normal" in="SourceGraphic" in2="effect1_dropShadow_351_88" result="shape"/>
</filter>
</defs>
</svg>
