<svg width="147" height="57" viewBox="0 0 147 57" fill="none" xmlns="http://www.w3.org/2000/svg">
<g filter="url(#filter0_d_351_92)">
<rect x="28.5" y="2.5" width="97" height="35" rx="17.5" fill="#DEF5FF"/>
<rect x="28.5" y="2.5" width="97" height="35" rx="17.5" stroke="#6F6F6F"/>
<path d="M60.852 16.278V19.54H64.408V20.59H60.852V23.95H64.828V25H59.578V15.228H64.828V16.278H60.852ZM71.2597 25L69.4397 22.144L67.6897 25H66.3597L68.8377 21.192L66.3597 17.328H67.8017L69.6217 20.17L71.3577 17.328H72.6877L70.2237 21.122L72.7017 25H71.2597ZM73.979 21.15C73.979 20.3567 74.1376 19.666 74.455 19.078C74.7723 18.4807 75.211 18.0187 75.771 17.692C76.3403 17.3653 76.989 17.202 77.717 17.202C78.6596 17.202 79.4343 17.4307 80.041 17.888C80.657 18.3453 81.063 18.98 81.259 19.792H79.887C79.7563 19.3253 79.4996 18.9567 79.117 18.686C78.7436 18.4153 78.277 18.28 77.717 18.28C76.989 18.28 76.401 18.532 75.953 19.036C75.505 19.5307 75.281 20.2353 75.281 21.15C75.281 22.074 75.505 22.788 75.953 23.292C76.401 23.796 76.989 24.048 77.717 24.048C78.277 24.048 78.7436 23.9173 79.117 23.656C79.4903 23.3947 79.747 23.0213 79.887 22.536H81.259C81.0536 23.32 80.643 23.95 80.027 24.426C79.411 24.8927 78.641 25.126 77.717 25.126C76.989 25.126 76.3403 24.9627 75.771 24.636C75.211 24.3093 74.7723 23.8473 74.455 23.25C74.1376 22.6527 73.979 21.9527 73.979 21.15ZM90.4589 20.87C90.4589 21.1127 90.4449 21.3693 90.4169 21.64H84.2849C84.3315 22.396 84.5882 22.9887 85.0549 23.418C85.5309 23.838 86.1049 24.048 86.7769 24.048C87.3275 24.048 87.7849 23.922 88.1489 23.67C88.5222 23.4087 88.7835 23.0633 88.9329 22.634H90.3049C90.0995 23.3713 89.6889 23.9733 89.0729 24.44C88.4569 24.8973 87.6915 25.126 86.7769 25.126C86.0489 25.126 85.3955 24.9627 84.8169 24.636C84.2475 24.3093 83.7995 23.8473 83.4729 23.25C83.1462 22.6433 82.9829 21.9433 82.9829 21.15C82.9829 20.3567 83.1415 19.6613 83.4589 19.064C83.7762 18.4667 84.2195 18.0093 84.7889 17.692C85.3675 17.3653 86.0302 17.202 86.7769 17.202C87.5049 17.202 88.1489 17.3607 88.7089 17.678C89.2689 17.9953 89.6982 18.434 89.9969 18.994C90.3049 19.5447 90.4589 20.17 90.4589 20.87ZM89.1429 20.604C89.1429 20.1187 89.0355 19.7033 88.8209 19.358C88.6062 19.0033 88.3122 18.7373 87.9389 18.56C87.5749 18.3733 87.1689 18.28 86.7209 18.28C86.0769 18.28 85.5262 18.4853 85.0689 18.896C84.6209 19.3067 84.3642 19.876 84.2989 20.604H89.1429ZM93.9145 14.64V25H92.6405V14.64H93.9145Z" fill="black"/>
<path d="M141.788 41.0102L135.88 42.8801L134.01 48.7884L130.889 37.8891L141.788 41.0102Z" fill="#A3FF2E" stroke="black" stroke-width="0.8" stroke-miterlimit="10"/>
<path d="M18.728 15.888L17.744 20.496H21.32V21.456H17.528L16.352 27H15.296L16.472 21.456H10.808L9.632 27H8.576L9.752 21.456H5.912V20.496H9.968L10.952 15.888H7.16V14.928H11.144L12.368 9.24H13.424L12.2 14.928H17.864L19.088 9.24H20.144L18.92 14.928H22.568V15.888H18.728ZM17.672 15.888H12.008L11.024 20.496H16.688L17.672 15.888Z" fill="black" fill-opacity="0.6"/>
</g>
<defs>
<filter id="filter0_d_351_92" x="0.912109" y="0" width="145.262" height="56.1745" filterUnits="userSpaceOnUse" color-interpolation-filters="sRGB">
<feFlood flood-opacity="0" result="BackgroundImageFix"/>
<feColorMatrix in="SourceAlpha" type="matrix" values="0 0 0 0 0 0 0 0 0 0 0 0 0 0 0 0 0 0 127 0" result="hardAlpha"/>
<feOffset dx="-1" dy="2"/>
<feGaussianBlur stdDeviation="2"/>
<feComposite in2="hardAlpha" operator="out"/>
<feColorMatrix type="matrix" values="0 0 0 0 0 0 0 0 0 0 0 0 0 0 0 0 0 0 0.3 0"/>
<feBlend mode="normal" in2="BackgroundImageFix" result="effect1_dropShadow_351_92"/>
<feBlend mode="normal" in="SourceGraphic" in2="effect1_dropShadow_351_92" result="shape"/>
</filter>
</defs>
</svg>
