<svg width="169" height="47" viewBox="0 0 169 47" fill="none" xmlns="http://www.w3.org/2000/svg">
<g filter="url(#filter0_d_351_97)">
<rect x="30.5" y="2.5" width="111" height="35" rx="17.5" fill="#FEDBFF"/>
<rect x="30.5" y="2.5" width="111" height="35" rx="17.5" stroke="#6F6F6F"/>
<path d="M63.002 25.098C62.0967 25.098 61.2707 24.888 60.524 24.468C59.7773 24.0387 59.1847 23.446 58.746 22.69C58.3167 21.9247 58.102 21.066 58.102 20.114C58.102 19.162 58.3167 18.308 58.746 17.552C59.1847 16.7867 59.7773 16.194 60.524 15.774C61.2707 15.3447 62.0967 15.13 63.002 15.13C63.9167 15.13 64.7473 15.3447 65.494 15.774C66.2407 16.194 66.8287 16.782 67.258 17.538C67.6873 18.294 67.902 19.1527 67.902 20.114C67.902 21.0753 67.6873 21.934 67.258 22.69C66.8287 23.446 66.2407 24.0387 65.494 24.468C64.7473 24.888 63.9167 25.098 63.002 25.098ZM63.002 23.992C63.6833 23.992 64.2947 23.8333 64.836 23.516C65.3867 23.1987 65.816 22.746 66.124 22.158C66.4413 21.57 66.6 20.8887 66.6 20.114C66.6 19.33 66.4413 18.6487 66.124 18.07C65.816 17.482 65.3913 17.0293 64.85 16.712C64.3087 16.3947 63.6927 16.236 63.002 16.236C62.3113 16.236 61.6953 16.3947 61.154 16.712C60.6127 17.0293 60.1833 17.482 59.866 18.07C59.558 18.6487 59.404 19.33 59.404 20.114C59.404 20.8887 59.558 21.57 59.866 22.158C60.1833 22.746 60.6127 23.1987 61.154 23.516C61.7047 23.8333 62.3207 23.992 63.002 23.992ZM76.8879 17.328V25H75.6139V23.866C75.3712 24.258 75.0305 24.566 74.5919 24.79C74.1625 25.0047 73.6865 25.112 73.1639 25.112C72.5665 25.112 72.0299 24.9907 71.5539 24.748C71.0779 24.496 70.6999 24.1227 70.4199 23.628C70.1492 23.1333 70.0139 22.5313 70.0139 21.822V17.328H71.2739V21.654C71.2739 22.41 71.4652 22.9933 71.8479 23.404C72.2305 23.8053 72.7532 24.006 73.4159 24.006C74.0972 24.006 74.6339 23.796 75.0259 23.376C75.4179 22.956 75.6139 22.3447 75.6139 21.542V17.328H76.8879ZM81.0929 18.378V22.9C81.0929 23.2733 81.1723 23.5393 81.3309 23.698C81.4896 23.8473 81.7649 23.922 82.1569 23.922H83.0949V25H81.9469C81.2376 25 80.7056 24.8367 80.3509 24.51C79.9963 24.1833 79.8189 23.6467 79.8189 22.9V18.378H78.8249V17.328H79.8189V15.396H81.0929V17.328H83.0949V18.378H81.0929ZM86.4125 14.64V25H85.1385V14.64H86.4125ZM92.4299 25.126C91.7112 25.126 91.0579 24.9627 90.4699 24.636C89.8912 24.3093 89.4339 23.8473 89.0979 23.25C88.7712 22.6433 88.6079 21.9433 88.6079 21.15C88.6079 20.366 88.7759 19.6753 89.1119 19.078C89.4572 18.4713 89.9239 18.0093 90.5119 17.692C91.0999 17.3653 91.7579 17.202 92.4859 17.202C93.2139 17.202 93.8719 17.3653 94.4599 17.692C95.0479 18.0093 95.5099 18.4667 95.8459 19.064C96.1912 19.6613 96.3639 20.3567 96.3639 21.15C96.3639 21.9433 96.1865 22.6433 95.8319 23.25C95.4865 23.8473 95.0152 24.3093 94.4179 24.636C93.8205 24.9627 93.1579 25.126 92.4299 25.126ZM92.4299 24.006C92.8872 24.006 93.3165 23.8987 93.7179 23.684C94.1192 23.4693 94.4412 23.1473 94.6839 22.718C94.9359 22.2887 95.0619 21.766 95.0619 21.15C95.0619 20.534 94.9405 20.0113 94.6979 19.582C94.4552 19.1527 94.1379 18.8353 93.7459 18.63C93.3539 18.4153 92.9292 18.308 92.4719 18.308C92.0052 18.308 91.5759 18.4153 91.1839 18.63C90.8012 18.8353 90.4932 19.1527 90.2599 19.582C90.0265 20.0113 89.9099 20.534 89.9099 21.15C89.9099 21.7753 90.0219 22.3027 90.2459 22.732C90.4792 23.1613 90.7872 23.4833 91.1699 23.698C91.5525 23.9033 91.9725 24.006 92.4299 24.006ZM101.885 25.126C101.166 25.126 100.513 24.9627 99.9249 24.636C99.3463 24.3093 98.8889 23.8473 98.5529 23.25C98.2263 22.6433 98.0629 21.9433 98.0629 21.15C98.0629 20.366 98.2309 19.6753 98.5669 19.078C98.9123 18.4713 99.3789 18.0093 99.9669 17.692C100.555 17.3653 101.213 17.202 101.941 17.202C102.669 17.202 103.327 17.3653 103.915 17.692C104.503 18.0093 104.965 18.4667 105.301 19.064C105.646 19.6613 105.819 20.3567 105.819 21.15C105.819 21.9433 105.642 22.6433 105.287 23.25C104.942 23.8473 104.47 24.3093 103.873 24.636C103.276 24.9627 102.613 25.126 101.885 25.126ZM101.885 24.006C102.342 24.006 102.772 23.8987 103.173 23.684C103.574 23.4693 103.896 23.1473 104.139 22.718C104.391 22.2887 104.517 21.766 104.517 21.15C104.517 20.534 104.396 20.0113 104.153 19.582C103.91 19.1527 103.593 18.8353 103.201 18.63C102.809 18.4153 102.384 18.308 101.927 18.308C101.46 18.308 101.031 18.4153 100.639 18.63C100.256 18.8353 99.9483 19.1527 99.7149 19.582C99.4816 20.0113 99.3649 20.534 99.3649 21.15C99.3649 21.7753 99.4769 22.3027 99.7009 22.732C99.9343 23.1613 100.242 23.4833 100.625 23.698C101.008 23.9033 101.428 24.006 101.885 24.006ZM112.278 25L109.268 21.612V25H107.994V14.64H109.268V20.73L112.222 17.328H114L110.388 21.15L114.014 25H112.278Z" fill="black"/>
<path d="M163.902 29.8437L158.809 33.375L158.768 39.572L152.567 30.0805L163.902 29.8437Z" fill="#A3FF2E" stroke="black" stroke-width="0.8" stroke-miterlimit="10"/>
<path d="M16.21 12.14C17.7647 12.14 19.1287 12.448 20.302 13.064C21.49 13.68 22.4067 14.538 23.052 15.638C23.712 16.738 24.042 17.9993 24.042 19.422C24.042 20.566 23.866 21.6513 23.514 22.678C23.1767 23.7047 22.6853 24.5407 22.04 25.186C21.3947 25.8167 20.632 26.132 19.752 26.132C19.048 26.132 18.52 25.9193 18.168 25.494C17.8307 25.054 17.6767 24.4747 17.706 23.756C17.266 24.504 16.6793 25.0907 15.946 25.516C15.2273 25.9267 14.4573 26.132 13.636 26.132C12.536 26.132 11.6707 25.7947 11.04 25.12C10.424 24.4453 10.116 23.536 10.116 22.392C10.116 21.3213 10.336 20.324 10.776 19.4C11.2307 18.4613 11.8613 17.7133 12.668 17.156C13.4747 16.584 14.384 16.298 15.396 16.298C16.188 16.298 16.848 16.4887 17.376 16.87C17.9187 17.2513 18.2853 17.8013 18.476 18.52L18.806 16.584H19.686L18.564 23.03C18.52 23.2647 18.498 23.4993 18.498 23.734C18.498 24.2473 18.6153 24.6507 18.85 24.944C19.0993 25.2373 19.4513 25.384 19.906 25.384C20.566 25.384 21.1453 25.0907 21.644 24.504C22.1427 23.9173 22.524 23.1767 22.788 22.282C23.052 21.3727 23.184 20.456 23.184 19.532C23.184 18.1827 22.8907 17.0093 22.304 16.012C21.732 15.0147 20.9107 14.2447 19.84 13.702C18.7693 13.1593 17.5153 12.888 16.078 12.888C14.3033 12.888 12.69 13.3353 11.238 14.23C9.786 15.11 8.642 16.3127 7.806 17.838C6.98467 19.3487 6.574 21.006 6.574 22.81C6.574 24.1887 6.86 25.3693 7.432 26.352C8.004 27.3493 8.818 28.112 9.874 28.64C10.9447 29.168 12.184 29.432 13.592 29.432C14.8973 29.432 16.1073 29.19 17.222 28.706L17.376 29.454C16.1293 29.9527 14.7947 30.202 13.372 30.202C11.8613 30.202 10.5267 29.9013 9.368 29.3C8.20933 28.7133 7.30733 27.87 6.662 26.77C6.01667 25.6847 5.694 24.4087 5.694 22.942C5.694 20.9327 6.14867 19.1067 7.058 17.464C7.96733 15.8213 9.22133 14.5233 10.82 13.57C12.4187 12.6167 14.2153 12.14 16.21 12.14ZM13.9 25.318C14.5747 25.318 15.2053 25.1493 15.792 24.812C16.3787 24.46 16.87 23.9613 17.266 23.316C17.6767 22.656 17.9407 21.886 18.058 21.006C18.1167 20.7127 18.146 20.4047 18.146 20.082C18.146 19.1873 17.904 18.4687 17.42 17.926C16.9507 17.3687 16.2613 17.09 15.352 17.09C14.5013 17.09 13.746 17.3393 13.086 17.838C12.4407 18.322 11.942 18.96 11.59 19.752C11.238 20.544 11.062 21.38 11.062 22.26C11.062 23.1987 11.3113 23.9467 11.81 24.504C12.3087 25.0467 13.0053 25.318 13.9 25.318Z" fill="black" fill-opacity="0.6"/>
</g>
<defs>
<filter id="filter0_d_351_97" x="0.693359" y="0" width="167.527" height="46.9019" filterUnits="userSpaceOnUse" color-interpolation-filters="sRGB">
<feFlood flood-opacity="0" result="BackgroundImageFix"/>
<feColorMatrix in="SourceAlpha" type="matrix" values="0 0 0 0 0 0 0 0 0 0 0 0 0 0 0 0 0 0 127 0" result="hardAlpha"/>
<feOffset dx="-1" dy="2"/>
<feGaussianBlur stdDeviation="2"/>
<feComposite in2="hardAlpha" operator="out"/>
<feColorMatrix type="matrix" values="0 0 0 0 0 0 0 0 0 0 0 0 0 0 0 0 0 0 0.3 0"/>
<feBlend mode="normal" in2="BackgroundImageFix" result="effect1_dropShadow_351_97"/>
<feBlend mode="normal" in="SourceGraphic" in2="effect1_dropShadow_351_97" result="shape"/>
</filter>
</defs>
</svg>
