<svg width="128" height="63" viewBox="0 0 128 63" fill="none" xmlns="http://www.w3.org/2000/svg">
<g filter="url(#filter0_d_351_88)">
<rect x="4.5" y="0.5" width="119" height="35" rx="17.5" fill="#FFF7B1"/>
<rect x="4.5" y="0.5" width="119" height="35" rx="17.5" stroke="#6F6F6F"/>
<path d="M28.602 16.098C28.602 16.91 28.322 17.5867 27.762 18.128C27.2113 18.66 26.3667 18.926 25.228 18.926H23.352V23H22.078V13.242H25.228C26.3293 13.242 27.1647 13.508 27.734 14.04C28.3127 14.572 28.602 15.258 28.602 16.098ZM25.228 17.876C25.9373 17.876 26.46 17.722 26.796 17.414C27.132 17.106 27.3 16.6673 27.3 16.098C27.3 14.894 26.6093 14.292 25.228 14.292H23.352V17.876H25.228ZM34.0314 23.126C33.3128 23.126 32.6594 22.9627 32.0714 22.636C31.4928 22.3093 31.0354 21.8473 30.6994 21.25C30.3728 20.6433 30.2094 19.9433 30.2094 19.15C30.2094 18.366 30.3774 17.6753 30.7134 17.078C31.0588 16.4713 31.5254 16.0093 32.1134 15.692C32.7014 15.3653 33.3594 15.202 34.0874 15.202C34.8154 15.202 35.4734 15.3653 36.0614 15.692C36.6494 16.0093 37.1114 16.4667 37.4474 17.064C37.7928 17.6613 37.9654 18.3567 37.9654 19.15C37.9654 19.9433 37.7881 20.6433 37.4334 21.25C37.0881 21.8473 36.6168 22.3093 36.0194 22.636C35.4221 22.9627 34.7594 23.126 34.0314 23.126ZM34.0314 22.006C34.4888 22.006 34.9181 21.8987 35.3194 21.684C35.7208 21.4693 36.0428 21.1473 36.2854 20.718C36.5374 20.2887 36.6634 19.766 36.6634 19.15C36.6634 18.534 36.5421 18.0113 36.2994 17.582C36.0568 17.1527 35.7394 16.8353 35.3474 16.63C34.9554 16.4153 34.5308 16.308 34.0734 16.308C33.6068 16.308 33.1774 16.4153 32.7854 16.63C32.4028 16.8353 32.0948 17.1527 31.8614 17.582C31.6281 18.0113 31.5114 18.534 31.5114 19.15C31.5114 19.7753 31.6234 20.3027 31.8474 20.732C32.0808 21.1613 32.3888 21.4833 32.7714 21.698C33.1541 21.9033 33.5741 22.006 34.0314 22.006ZM50.3605 15.328L47.9665 23H46.6505L44.8025 16.91L42.9545 23H41.6385L39.2305 15.328H40.5325L42.2965 21.768L44.2005 15.328H45.5025L47.3645 21.782L49.1005 15.328H50.3605ZM59.1249 18.87C59.1249 19.1127 59.1109 19.3693 59.0829 19.64H52.9509C52.9975 20.396 53.2542 20.9887 53.7209 21.418C54.1969 21.838 54.7709 22.048 55.4429 22.048C55.9935 22.048 56.4509 21.922 56.8149 21.67C57.1882 21.4087 57.4495 21.0633 57.5989 20.634H58.9709C58.7655 21.3713 58.3549 21.9733 57.7389 22.44C57.1229 22.8973 56.3575 23.126 55.4429 23.126C54.7149 23.126 54.0615 22.9627 53.4829 22.636C52.9135 22.3093 52.4655 21.8473 52.1389 21.25C51.8122 20.6433 51.6489 19.9433 51.6489 19.15C51.6489 18.3567 51.8075 17.6613 52.1249 17.064C52.4422 16.4667 52.8855 16.0093 53.4549 15.692C54.0335 15.3653 54.6962 15.202 55.4429 15.202C56.1709 15.202 56.8149 15.3607 57.3749 15.678C57.9349 15.9953 58.3642 16.434 58.6629 16.994C58.9709 17.5447 59.1249 18.17 59.1249 18.87ZM57.8089 18.604C57.8089 18.1187 57.7015 17.7033 57.4869 17.358C57.2722 17.0033 56.9782 16.7373 56.6049 16.56C56.2409 16.3733 55.8349 16.28 55.3869 16.28C54.7429 16.28 54.1922 16.4853 53.7349 16.896C53.2869 17.3067 53.0302 17.876 52.9649 18.604H57.8089ZM62.5805 16.574C62.8045 16.1353 63.1218 15.7947 63.5325 15.552C63.9525 15.3093 64.4612 15.188 65.0585 15.188V16.504H64.7225C63.2945 16.504 62.5805 17.2787 62.5805 18.828V23H61.3065V15.328H62.5805V16.574ZM77.7856 16.098C77.7856 16.91 77.5056 17.5867 76.9456 18.128C76.3949 18.66 75.5503 18.926 74.4116 18.926H72.5356V23H71.2616V13.242H74.4116C75.5129 13.242 76.3483 13.508 76.9176 14.04C77.4963 14.572 77.7856 15.258 77.7856 16.098ZM74.4116 17.876C75.1209 17.876 75.6436 17.722 75.9796 17.414C76.3156 17.106 76.4836 16.6673 76.4836 16.098C76.4836 14.894 75.7929 14.292 74.4116 14.292H72.5356V17.876H74.4116ZM83.215 23.126C82.4963 23.126 81.843 22.9627 81.255 22.636C80.6763 22.3093 80.219 21.8473 79.883 21.25C79.5563 20.6433 79.393 19.9433 79.393 19.15C79.393 18.366 79.561 17.6753 79.897 17.078C80.2423 16.4713 80.709 16.0093 81.297 15.692C81.885 15.3653 82.543 15.202 83.271 15.202C83.999 15.202 84.657 15.3653 85.245 15.692C85.833 16.0093 86.295 16.4667 86.631 17.064C86.9763 17.6613 87.149 18.3567 87.149 19.15C87.149 19.9433 86.9717 20.6433 86.617 21.25C86.2717 21.8473 85.8003 22.3093 85.203 22.636C84.6057 22.9627 83.943 23.126 83.215 23.126ZM83.215 22.006C83.6723 22.006 84.1017 21.8987 84.503 21.684C84.9043 21.4693 85.2263 21.1473 85.469 20.718C85.721 20.2887 85.847 19.766 85.847 19.15C85.847 18.534 85.7257 18.0113 85.483 17.582C85.2403 17.1527 84.923 16.8353 84.531 16.63C84.139 16.4153 83.7143 16.308 83.257 16.308C82.7903 16.308 82.361 16.4153 81.969 16.63C81.5863 16.8353 81.2783 17.1527 81.045 17.582C80.8117 18.0113 80.695 18.534 80.695 19.15C80.695 19.7753 80.807 20.3027 81.031 20.732C81.2643 21.1613 81.5723 21.4833 81.955 21.698C82.3377 21.9033 82.7577 22.006 83.215 22.006ZM89.9821 14.082C89.7394 14.082 89.5341 13.998 89.3661 13.83C89.1981 13.662 89.1141 13.4567 89.1141 13.214C89.1141 12.9713 89.1981 12.766 89.3661 12.598C89.5341 12.43 89.7394 12.346 89.9821 12.346C90.2154 12.346 90.4114 12.43 90.5701 12.598C90.7381 12.766 90.8221 12.9713 90.8221 13.214C90.8221 13.4567 90.7381 13.662 90.5701 13.83C90.4114 13.998 90.2154 14.082 89.9821 14.082ZM90.5981 15.328V23H89.3241V15.328H90.5981ZM97.0074 15.188C97.9407 15.188 98.6967 15.4727 99.2754 16.042C99.8541 16.602 100.143 17.414 100.143 18.478V23H98.8834V18.66C98.8834 17.8947 98.6921 17.3113 98.3094 16.91C97.9267 16.4993 97.4041 16.294 96.7414 16.294C96.0694 16.294 95.5327 16.504 95.1314 16.924C94.7394 17.344 94.5434 17.9553 94.5434 18.758V23H93.2694V15.328H94.5434V16.42C94.7954 16.028 95.1361 15.7247 95.5654 15.51C96.0041 15.2953 96.4847 15.188 97.0074 15.188ZM104.278 16.378V20.9C104.278 21.2733 104.358 21.5393 104.516 21.698C104.675 21.8473 104.95 21.922 105.342 21.922H106.28V23H105.132C104.423 23 103.891 22.8367 103.536 22.51C103.182 22.1833 103.004 21.6467 103.004 20.9V16.378H102.01V15.328H103.004V13.396H104.278V15.328H106.28V16.378H104.278Z" fill="black"/>
<path d="M101.317 47.1872L95.1666 47.943L92.2459 53.4087L91.1744 42.1221L101.317 47.1872Z" fill="#A3FF2E" stroke="black" stroke-width="0.8" stroke-miterlimit="10"/>
</g>
<defs>
<filter id="filter0_d_351_88" x="0" y="0" width="128" height="62.7679" filterUnits="userSpaceOnUse" color-interpolation-filters="sRGB">
<feFlood flood-opacity="0" result="BackgroundImageFix"/>
<feColorMatrix in="SourceAlpha" type="matrix" values="0 0 0 0 0 0 0 0 0 0 0 0 0 0 0 0 0 0 127 0" result="hardAlpha"/>
<feOffset dy="4"/>
<feGaussianBlur stdDeviation="2"/>
<feComposite in2="hardAlpha" operator="out"/>
<feColorMatrix type="matrix" values="0 0 0 0 0 0 0 0 0 0 0 0 0 0 0 0 0 0 0.25 0"/>
<feBlend mode="normal" in2="BackgroundImageFix" result="effect1_dropShadow_351_88"/>
<feBlend mode="normal" in="SourceGraphic" in2="effect1_dropShadow_351_88" result="shape"/>
</filter>
</defs>
</svg>
