<svg width="112" height="54" viewBox="0 0 112 54" fill="none" xmlns="http://www.w3.org/2000/svg">
<g filter="url(#filter0_d_351_84)">
<rect x="22.5" y="2.5" width="86" height="35" rx="17.5" fill="#DCFFC7"/>
<rect x="22.5" y="2.5" width="86" height="35" rx="17.5" stroke="#6F6F6F"/>
<path d="M59.342 15.242L56.514 25H55.086L52.818 17.146L50.466 25L49.052 25.014L46.322 15.242H47.68L49.808 23.516L52.16 15.242H53.588L55.828 23.488L57.97 15.242H59.342ZM64.5822 25.126C63.8635 25.126 63.2102 24.9627 62.6222 24.636C62.0435 24.3093 61.5862 23.8473 61.2502 23.25C60.9235 22.6433 60.7602 21.9433 60.7602 21.15C60.7602 20.366 60.9282 19.6753 61.2642 19.078C61.6095 18.4713 62.0762 18.0093 62.6642 17.692C63.2522 17.3653 63.9102 17.202 64.6382 17.202C65.3662 17.202 66.0242 17.3653 66.6122 17.692C67.2002 18.0093 67.6622 18.4667 67.9982 19.064C68.3435 19.6613 68.5162 20.3567 68.5162 21.15C68.5162 21.9433 68.3389 22.6433 67.9842 23.25C67.6389 23.8473 67.1675 24.3093 66.5702 24.636C65.9729 24.9627 65.3102 25.126 64.5822 25.126ZM64.5822 24.006C65.0395 24.006 65.4689 23.8987 65.8702 23.684C66.2715 23.4693 66.5935 23.1473 66.8362 22.718C67.0882 22.2887 67.2142 21.766 67.2142 21.15C67.2142 20.534 67.0929 20.0113 66.8502 19.582C66.6075 19.1527 66.2902 18.8353 65.8982 18.63C65.5062 18.4153 65.0815 18.308 64.6242 18.308C64.1575 18.308 63.7282 18.4153 63.3362 18.63C62.9535 18.8353 62.6455 19.1527 62.4122 19.582C62.1789 20.0113 62.0622 20.534 62.0622 21.15C62.0622 21.7753 62.1742 22.3027 62.3982 22.732C62.6315 23.1613 62.9395 23.4833 63.3222 23.698C63.7049 23.9033 64.1249 24.006 64.5822 24.006ZM71.9653 18.574C72.1893 18.1353 72.5066 17.7947 72.9173 17.552C73.3373 17.3093 73.8459 17.188 74.4433 17.188V18.504H74.1073C72.6793 18.504 71.9653 19.2787 71.9653 20.828V25H70.6913V17.328H71.9653V18.574ZM75.9379 21.136C75.9379 20.352 76.0966 19.666 76.4139 19.078C76.7313 18.4807 77.1653 18.0187 77.7159 17.692C78.2759 17.3653 78.9013 17.202 79.5919 17.202C80.1893 17.202 80.7446 17.342 81.2579 17.622C81.7713 17.8927 82.1633 18.252 82.4339 18.7V14.64H83.7219V25H82.4339V23.558C82.1819 24.0153 81.8086 24.3933 81.3139 24.692C80.8193 24.9813 80.2406 25.126 79.5779 25.126C78.8966 25.126 78.2759 24.958 77.7159 24.622C77.1653 24.286 76.7313 23.8147 76.4139 23.208C76.0966 22.6013 75.9379 21.9107 75.9379 21.136ZM82.4339 21.15C82.4339 20.5713 82.3173 20.0673 82.0839 19.638C81.8506 19.2087 81.5333 18.882 81.1319 18.658C80.7399 18.4247 80.3059 18.308 79.8299 18.308C79.3539 18.308 78.9199 18.42 78.5279 18.644C78.1359 18.868 77.8233 19.1947 77.5899 19.624C77.3566 20.0533 77.2399 20.5573 77.2399 21.136C77.2399 21.724 77.3566 22.2373 77.5899 22.676C77.8233 23.1053 78.1359 23.4367 78.5279 23.67C78.9199 23.894 79.3539 24.006 79.8299 24.006C80.3059 24.006 80.7399 23.894 81.1319 23.67C81.5333 23.4367 81.8506 23.1053 82.0839 22.676C82.3173 22.2373 82.4339 21.7287 82.4339 21.15Z" fill="black"/>
<path d="M14.7777 45.7884L12.9078 39.8801L6.99956 38.0102L17.8989 34.8891L14.7777 45.7884Z" fill="#A3FF2E" stroke="black" stroke-width="0.8" stroke-miterlimit="10"/>
</g>
<defs>
<filter id="filter0_d_351_84" x="0.613281" y="0" width="111.387" height="53.1745" filterUnits="userSpaceOnUse" color-interpolation-filters="sRGB">
<feFlood flood-opacity="0" result="BackgroundImageFix"/>
<feColorMatrix in="SourceAlpha" type="matrix" values="0 0 0 0 0 0 0 0 0 0 0 0 0 0 0 0 0 0 127 0" result="hardAlpha"/>
<feOffset dx="-1" dy="2"/>
<feGaussianBlur stdDeviation="2"/>
<feComposite in2="hardAlpha" operator="out"/>
<feColorMatrix type="matrix" values="0 0 0 0 0 0 0 0 0 0 0 0 0 0 0 0 0 0 0.3 0"/>
<feBlend mode="normal" in2="BackgroundImageFix" result="effect1_dropShadow_351_84"/>
<feBlend mode="normal" in="SourceGraphic" in2="effect1_dropShadow_351_84" result="shape"/>
</filter>
</defs>
</svg>
