<svg width="168" height="54" viewBox="0 0 168 54" fill="none" xmlns="http://www.w3.org/2000/svg">
<g filter="url(#filter0_d_351_92)">
<rect x="28.5" y="2.5" width="119" height="35" rx="17.5" fill="#DEF5FF"/>
<rect x="28.5" y="2.5" width="119" height="35" rx="17.5" stroke="#6F6F6F"/>
<path d="M69.47 18.07C69.1993 17.5007 68.8073 17.062 68.294 16.754C67.7807 16.4367 67.1833 16.278 66.502 16.278C65.8207 16.278 65.2047 16.4367 64.654 16.754C64.1127 17.062 63.6833 17.51 63.366 18.098C63.058 18.6767 62.904 19.3487 62.904 20.114C62.904 20.8793 63.058 21.5513 63.366 22.13C63.6833 22.7087 64.1127 23.1567 64.654 23.474C65.2047 23.782 65.8207 23.936 66.502 23.936C67.454 23.936 68.238 23.6513 68.854 23.082C69.47 22.5127 69.8293 21.7427 69.932 20.772H66.04V19.736H71.29V20.716C71.2153 21.5187 70.9633 22.256 70.534 22.928C70.1047 23.5907 69.54 24.118 68.84 24.51C68.14 24.8927 67.3607 25.084 66.502 25.084C65.5967 25.084 64.7707 24.874 64.024 24.454C63.2773 24.0247 62.6847 23.432 62.246 22.676C61.8167 21.92 61.602 21.066 61.602 20.114C61.602 19.162 61.8167 18.308 62.246 17.552C62.6847 16.7867 63.2773 16.194 64.024 15.774C64.7707 15.3447 65.5967 15.13 66.502 15.13C67.538 15.13 68.4527 15.3867 69.246 15.9C70.0487 16.4133 70.632 17.1367 70.996 18.07H69.47ZM74.7485 18.574C74.9725 18.1353 75.2898 17.7947 75.7005 17.552C76.1205 17.3093 76.6292 17.188 77.2265 17.188V18.504H76.8905C75.4625 18.504 74.7485 19.2787 74.7485 20.828V25H73.4745V17.328H74.7485V18.574ZM78.7211 21.136C78.7211 20.352 78.8798 19.666 79.1971 19.078C79.5145 18.4807 79.9485 18.0187 80.4991 17.692C81.0591 17.3653 81.6798 17.202 82.3611 17.202C83.0331 17.202 83.6165 17.3467 84.1111 17.636C84.6058 17.9253 84.9745 18.2893 85.2171 18.728V17.328H86.5051V25H85.2171V23.572C84.9651 24.02 84.5871 24.3933 84.0831 24.692C83.5885 24.9813 83.0098 25.126 82.3471 25.126C81.6658 25.126 81.0498 24.958 80.4991 24.622C79.9485 24.286 79.5145 23.8147 79.1971 23.208C78.8798 22.6013 78.7211 21.9107 78.7211 21.136ZM85.2171 21.15C85.2171 20.5713 85.1005 20.0673 84.8671 19.638C84.6338 19.2087 84.3165 18.882 83.9151 18.658C83.5231 18.4247 83.0891 18.308 82.6131 18.308C82.1371 18.308 81.7031 18.42 81.3111 18.644C80.9191 18.868 80.6065 19.1947 80.3731 19.624C80.1398 20.0533 80.0231 20.5573 80.0231 21.136C80.0231 21.724 80.1398 22.2373 80.3731 22.676C80.6065 23.1053 80.9191 23.4367 81.3111 23.67C81.7031 23.894 82.1371 24.006 82.6131 24.006C83.0891 24.006 83.5231 23.894 83.9151 23.67C84.3165 23.4367 84.6338 23.1053 84.8671 22.676C85.1005 22.2373 85.2171 21.7287 85.2171 21.15ZM90.4321 18.742C90.6841 18.3033 91.0574 17.9393 91.5521 17.65C92.0561 17.3513 92.6394 17.202 93.3021 17.202C93.9834 17.202 94.5994 17.3653 95.1501 17.692C95.7101 18.0187 96.1487 18.4807 96.4661 19.078C96.7834 19.666 96.9421 20.352 96.9421 21.136C96.9421 21.9107 96.7834 22.6013 96.4661 23.208C96.1487 23.8147 95.7101 24.286 95.1501 24.622C94.5994 24.958 93.9834 25.126 93.3021 25.126C92.6487 25.126 92.0701 24.9813 91.5661 24.692C91.0714 24.3933 90.6934 24.0247 90.4321 23.586V28.64H89.1581V17.328H90.4321V18.742ZM95.6401 21.136C95.6401 20.5573 95.5234 20.0533 95.2901 19.624C95.0567 19.1947 94.7394 18.868 94.3381 18.644C93.9461 18.42 93.5121 18.308 93.0361 18.308C92.5694 18.308 92.1354 18.4247 91.7341 18.658C91.3421 18.882 91.0247 19.2133 90.7821 19.652C90.5487 20.0813 90.4321 20.5807 90.4321 21.15C90.4321 21.7287 90.5487 22.2373 90.7821 22.676C91.0247 23.1053 91.3421 23.4367 91.7341 23.67C92.1354 23.894 92.5694 24.006 93.0361 24.006C93.5121 24.006 93.9461 23.894 94.3381 23.67C94.7394 23.4367 95.0567 23.1053 95.2901 22.676C95.5234 22.2373 95.6401 21.724 95.6401 21.136ZM102.927 17.188C103.506 17.188 104.028 17.314 104.495 17.566C104.962 17.8087 105.326 18.1773 105.587 18.672C105.858 19.1667 105.993 19.7687 105.993 20.478V25H104.733V20.66C104.733 19.8947 104.542 19.3113 104.159 18.91C103.776 18.4993 103.254 18.294 102.591 18.294C101.919 18.294 101.382 18.504 100.981 18.924C100.589 19.344 100.393 19.9553 100.393 20.758V25H99.119V14.64H100.393V18.42C100.645 18.028 100.99 17.7247 101.429 17.51C101.877 17.2953 102.376 17.188 102.927 17.188ZM111.29 25.126C110.702 25.126 110.175 25.028 109.708 24.832C109.241 24.6267 108.873 24.3467 108.602 23.992C108.331 23.628 108.182 23.2127 108.154 22.746H109.47C109.507 23.1287 109.685 23.4413 110.002 23.684C110.329 23.9267 110.753 24.048 111.276 24.048C111.761 24.048 112.144 23.9407 112.424 23.726C112.704 23.5113 112.844 23.2407 112.844 22.914C112.844 22.578 112.695 22.3307 112.396 22.172C112.097 22.004 111.635 21.8407 111.01 21.682C110.441 21.5327 109.974 21.3833 109.61 21.234C109.255 21.0753 108.947 20.8467 108.686 20.548C108.434 20.24 108.308 19.8387 108.308 19.344C108.308 18.952 108.425 18.5927 108.658 18.266C108.891 17.9393 109.223 17.6827 109.652 17.496C110.081 17.3 110.571 17.202 111.122 17.202C111.971 17.202 112.657 17.4167 113.18 17.846C113.703 18.2753 113.983 18.8633 114.02 19.61H112.746C112.718 19.2087 112.555 18.8867 112.256 18.644C111.967 18.4013 111.575 18.28 111.08 18.28C110.623 18.28 110.259 18.378 109.988 18.574C109.717 18.77 109.582 19.0267 109.582 19.344C109.582 19.596 109.661 19.806 109.82 19.974C109.988 20.1327 110.193 20.2633 110.436 20.366C110.688 20.4593 111.033 20.5667 111.472 20.688C112.023 20.8373 112.471 20.9867 112.816 21.136C113.161 21.276 113.455 21.4907 113.698 21.78C113.95 22.0693 114.081 22.4473 114.09 22.914C114.09 23.334 113.973 23.712 113.74 24.048C113.507 24.384 113.175 24.65 112.746 24.846C112.326 25.0327 111.841 25.126 111.29 25.126Z" fill="black"/>
<path d="M162.788 38.0102L156.88 39.8801L155.01 45.7884L151.889 34.8891L162.788 38.0102Z" fill="#A3FF2E" stroke="black" stroke-width="0.8" stroke-miterlimit="10"/>
<path d="M18.728 15.888L17.744 20.496H21.32V21.456H17.528L16.352 27H15.296L16.472 21.456H10.808L9.632 27H8.576L9.752 21.456H5.912V20.496H9.968L10.952 15.888H7.16V14.928H11.144L12.368 9.24H13.424L12.2 14.928H17.864L19.088 9.24H20.144L18.92 14.928H22.568V15.888H18.728ZM17.672 15.888H12.008L11.024 20.496H16.688L17.672 15.888Z" fill="black" fill-opacity="0.6"/>
</g>
<defs>
<filter id="filter0_d_351_92" x="0.912109" y="0" width="166.262" height="53.1745" filterUnits="userSpaceOnUse" color-interpolation-filters="sRGB">
<feFlood flood-opacity="0" result="BackgroundImageFix"/>
<feColorMatrix in="SourceAlpha" type="matrix" values="0 0 0 0 0 0 0 0 0 0 0 0 0 0 0 0 0 0 127 0" result="hardAlpha"/>
<feOffset dx="-1" dy="2"/>
<feGaussianBlur stdDeviation="2"/>
<feComposite in2="hardAlpha" operator="out"/>
<feColorMatrix type="matrix" values="0 0 0 0 0 0 0 0 0 0 0 0 0 0 0 0 0 0 0.3 0"/>
<feBlend mode="normal" in2="BackgroundImageFix" result="effect1_dropShadow_351_92"/>
<feBlend mode="normal" in="SourceGraphic" in2="effect1_dropShadow_351_92" result="shape"/>
</filter>
</defs>
</svg>
