<svg width="152" height="44" viewBox="0 0 152 44" fill="none" xmlns="http://www.w3.org/2000/svg">
<g filter="url(#filter0_d_351_97)">
<rect x="30.5" y="2.5" width="118" height="35" rx="17.5" fill="#FEDBFF"/>
<rect x="30.5" y="2.5" width="118" height="35" rx="17.5" stroke="#6F6F6F"/>
<path d="M54.352 23.964H57.768V25H53.078V15.242H54.352V23.964ZM60.279 16.082C60.0363 16.082 59.831 15.998 59.663 15.83C59.495 15.662 59.411 15.4567 59.411 15.214C59.411 14.9713 59.495 14.766 59.663 14.598C59.831 14.43 60.0363 14.346 60.279 14.346C60.5123 14.346 60.7083 14.43 60.867 14.598C61.035 14.766 61.119 14.9713 61.119 15.214C61.119 15.4567 61.035 15.662 60.867 15.83C60.7083 15.998 60.5123 16.082 60.279 16.082ZM60.895 17.328V25H59.621V17.328H60.895ZM67.3043 17.188C68.2376 17.188 68.9936 17.4727 69.5723 18.042C70.1509 18.602 70.4403 19.414 70.4403 20.478V25H69.1803V20.66C69.1803 19.8947 68.9889 19.3113 68.6063 18.91C68.2236 18.4993 67.7009 18.294 67.0383 18.294C66.3663 18.294 65.8296 18.504 65.4283 18.924C65.0363 19.344 64.8403 19.9553 64.8403 20.758V25H63.5663V17.328H64.8403V18.42C65.0923 18.028 65.4329 17.7247 65.8623 17.51C66.3009 17.2953 66.7816 17.188 67.3043 17.188ZM77.3054 25L74.2954 21.612V25H73.0214V14.64H74.2954V20.73L77.2494 17.328H79.0274L75.4154 21.15L79.0414 25H77.3054ZM87.7264 20.87C87.7264 21.1127 87.7124 21.3693 87.6844 21.64H81.5524C81.5991 22.396 81.8558 22.9887 82.3224 23.418C82.7984 23.838 83.3724 24.048 84.0444 24.048C84.5951 24.048 85.0524 23.922 85.4164 23.67C85.7898 23.4087 86.0511 23.0633 86.2004 22.634H87.5724C87.3671 23.3713 86.9564 23.9733 86.3404 24.44C85.7244 24.8973 84.9591 25.126 84.0444 25.126C83.3164 25.126 82.6631 24.9627 82.0844 24.636C81.5151 24.3093 81.0671 23.8473 80.7404 23.25C80.4138 22.6433 80.2504 21.9433 80.2504 21.15C80.2504 20.3567 80.4091 19.6613 80.7264 19.064C81.0438 18.4667 81.4871 18.0093 82.0564 17.692C82.6351 17.3653 83.2978 17.202 84.0444 17.202C84.7724 17.202 85.4164 17.3607 85.9764 17.678C86.5364 17.9953 86.9658 18.434 87.2644 18.994C87.5724 19.5447 87.7264 20.17 87.7264 20.87ZM86.4104 20.604C86.4104 20.1187 86.3031 19.7033 86.0884 19.358C85.8738 19.0033 85.5798 18.7373 85.2064 18.56C84.8424 18.3733 84.4364 18.28 83.9884 18.28C83.3444 18.28 82.7938 18.4853 82.3364 18.896C81.8884 19.3067 81.6318 19.876 81.5664 20.604H86.4104ZM89.4321 21.136C89.4321 20.352 89.5907 19.666 89.9081 19.078C90.2254 18.4807 90.6594 18.0187 91.2101 17.692C91.7701 17.3653 92.3954 17.202 93.0861 17.202C93.6834 17.202 94.2387 17.342 94.7521 17.622C95.2654 17.8927 95.6574 18.252 95.9281 18.7V14.64H97.2161V25H95.9281V23.558C95.6761 24.0153 95.3027 24.3933 94.8081 24.692C94.3134 24.9813 93.7347 25.126 93.0721 25.126C92.3907 25.126 91.7701 24.958 91.2101 24.622C90.6594 24.286 90.2254 23.8147 89.9081 23.208C89.5907 22.6013 89.4321 21.9107 89.4321 21.136ZM95.9281 21.15C95.9281 20.5713 95.8114 20.0673 95.5781 19.638C95.3447 19.2087 95.0274 18.882 94.6261 18.658C94.2341 18.4247 93.8001 18.308 93.3241 18.308C92.8481 18.308 92.4141 18.42 92.0221 18.644C91.6301 18.868 91.3174 19.1947 91.0841 19.624C90.8507 20.0533 90.7341 20.5573 90.7341 21.136C90.7341 21.724 90.8507 22.2373 91.0841 22.676C91.3174 23.1053 91.6301 23.4367 92.0221 23.67C92.4141 23.894 92.8481 24.006 93.3241 24.006C93.8001 24.006 94.2341 23.894 94.6261 23.67C95.0274 23.4367 95.3447 23.1053 95.5781 22.676C95.8114 22.2373 95.9281 21.7287 95.9281 21.15ZM105.375 23.964H108.791V25H104.101V15.242H105.375V23.964ZM111.302 16.082C111.06 16.082 110.854 15.998 110.686 15.83C110.518 15.662 110.434 15.4567 110.434 15.214C110.434 14.9713 110.518 14.766 110.686 14.598C110.854 14.43 111.06 14.346 111.302 14.346C111.536 14.346 111.732 14.43 111.89 14.598C112.058 14.766 112.142 14.9713 112.142 15.214C112.142 15.4567 112.058 15.662 111.89 15.83C111.732 15.998 111.536 16.082 111.302 16.082ZM111.918 17.328V25H110.644V17.328H111.918ZM117.306 25.126C116.718 25.126 116.19 25.028 115.724 24.832C115.257 24.6267 114.888 24.3467 114.618 23.992C114.347 23.628 114.198 23.2127 114.17 22.746H115.486C115.523 23.1287 115.7 23.4413 116.018 23.684C116.344 23.9267 116.769 24.048 117.292 24.048C117.777 24.048 118.16 23.9407 118.44 23.726C118.72 23.5113 118.86 23.2407 118.86 22.914C118.86 22.578 118.71 22.3307 118.412 22.172C118.113 22.004 117.651 21.8407 117.026 21.682C116.456 21.5327 115.99 21.3833 115.626 21.234C115.271 21.0753 114.963 20.8467 114.702 20.548C114.45 20.24 114.324 19.8387 114.324 19.344C114.324 18.952 114.44 18.5927 114.674 18.266C114.907 17.9393 115.238 17.6827 115.668 17.496C116.097 17.3 116.587 17.202 117.138 17.202C117.987 17.202 118.673 17.4167 119.196 17.846C119.718 18.2753 119.998 18.8633 120.036 19.61H118.762C118.734 19.2087 118.57 18.8867 118.272 18.644C117.982 18.4013 117.59 18.28 117.096 18.28C116.638 18.28 116.274 18.378 116.004 18.574C115.733 18.77 115.598 19.0267 115.598 19.344C115.598 19.596 115.677 19.806 115.836 19.974C116.004 20.1327 116.209 20.2633 116.452 20.366C116.704 20.4593 117.049 20.5667 117.488 20.688C118.038 20.8373 118.486 20.9867 118.832 21.136C119.177 21.276 119.471 21.4907 119.714 21.78C119.966 22.0693 120.096 22.4473 120.106 22.914C120.106 23.334 119.989 23.712 119.756 24.048C119.522 24.384 119.191 24.65 118.762 24.846C118.342 25.0327 117.856 25.126 117.306 25.126ZM123.958 18.378V22.9C123.958 23.2733 124.038 23.5393 124.196 23.698C124.355 23.8473 124.63 23.922 125.022 23.922H125.96V25H124.812C124.103 25 123.571 24.8367 123.216 24.51C122.862 24.1833 122.684 23.6467 122.684 22.9V18.378H121.69V17.328H122.684V15.396H123.958V17.328H125.96V18.378H123.958Z" fill="black"/>
<path d="M16.21 12.14C17.7647 12.14 19.1287 12.448 20.302 13.064C21.49 13.68 22.4067 14.538 23.052 15.638C23.712 16.738 24.042 17.9993 24.042 19.422C24.042 20.566 23.866 21.6513 23.514 22.678C23.1767 23.7047 22.6853 24.5407 22.04 25.186C21.3947 25.8167 20.632 26.132 19.752 26.132C19.048 26.132 18.52 25.9193 18.168 25.494C17.8307 25.054 17.6767 24.4747 17.706 23.756C17.266 24.504 16.6793 25.0907 15.946 25.516C15.2273 25.9267 14.4573 26.132 13.636 26.132C12.536 26.132 11.6707 25.7947 11.04 25.12C10.424 24.4453 10.116 23.536 10.116 22.392C10.116 21.3213 10.336 20.324 10.776 19.4C11.2307 18.4613 11.8613 17.7133 12.668 17.156C13.4747 16.584 14.384 16.298 15.396 16.298C16.188 16.298 16.848 16.4887 17.376 16.87C17.9187 17.2513 18.2853 17.8013 18.476 18.52L18.806 16.584H19.686L18.564 23.03C18.52 23.2647 18.498 23.4993 18.498 23.734C18.498 24.2473 18.6153 24.6507 18.85 24.944C19.0993 25.2373 19.4513 25.384 19.906 25.384C20.566 25.384 21.1453 25.0907 21.644 24.504C22.1427 23.9173 22.524 23.1767 22.788 22.282C23.052 21.3727 23.184 20.456 23.184 19.532C23.184 18.1827 22.8907 17.0093 22.304 16.012C21.732 15.0147 20.9107 14.2447 19.84 13.702C18.7693 13.1593 17.5153 12.888 16.078 12.888C14.3033 12.888 12.69 13.3353 11.238 14.23C9.786 15.11 8.642 16.3127 7.806 17.838C6.98467 19.3487 6.574 21.006 6.574 22.81C6.574 24.1887 6.86 25.3693 7.432 26.352C8.004 27.3493 8.818 28.112 9.874 28.64C10.9447 29.168 12.184 29.432 13.592 29.432C14.8973 29.432 16.1073 29.19 17.222 28.706L17.376 29.454C16.1293 29.9527 14.7947 30.202 13.372 30.202C11.8613 30.202 10.5267 29.9013 9.368 29.3C8.20933 28.7133 7.30733 27.87 6.662 26.77C6.01667 25.6847 5.694 24.4087 5.694 22.942C5.694 20.9327 6.14867 19.1067 7.058 17.464C7.96733 15.8213 9.22133 14.5233 10.82 13.57C12.4187 12.6167 14.2153 12.14 16.21 12.14ZM13.9 25.318C14.5747 25.318 15.2053 25.1493 15.792 24.812C16.3787 24.46 16.87 23.9613 17.266 23.316C17.6767 22.656 17.9407 21.886 18.058 21.006C18.1167 20.7127 18.146 20.4047 18.146 20.082C18.146 19.1873 17.904 18.4687 17.42 17.926C16.9507 17.3687 16.2613 17.09 15.352 17.09C14.5013 17.09 13.746 17.3393 13.086 17.838C12.4407 18.322 11.942 18.96 11.59 19.752C11.238 20.544 11.062 21.38 11.062 22.26C11.062 23.1987 11.3113 23.9467 11.81 24.504C12.3087 25.0467 13.0053 25.318 13.9 25.318Z" fill="black" fill-opacity="0.6"/>
</g>
<defs>
<filter id="filter0_d_351_97" x="0.693359" y="0" width="151.307" height="44" filterUnits="userSpaceOnUse" color-interpolation-filters="sRGB">
<feFlood flood-opacity="0" result="BackgroundImageFix"/>
<feColorMatrix in="SourceAlpha" type="matrix" values="0 0 0 0 0 0 0 0 0 0 0 0 0 0 0 0 0 0 127 0" result="hardAlpha"/>
<feOffset dx="-1" dy="2"/>
<feGaussianBlur stdDeviation="2"/>
<feComposite in2="hardAlpha" operator="out"/>
<feColorMatrix type="matrix" values="0 0 0 0 0 0 0 0 0 0 0 0 0 0 0 0 0 0 0.3 0"/>
<feBlend mode="normal" in2="BackgroundImageFix" result="effect1_dropShadow_351_97"/>
<feBlend mode="normal" in="SourceGraphic" in2="effect1_dropShadow_351_97" result="shape"/>
</filter>
</defs>
</svg>
