<svg width="121" height="54" viewBox="0 0 121 54" fill="none" xmlns="http://www.w3.org/2000/svg">
<g filter="url(#filter0_d_351_88)">
<rect x="4.5" y="0.5" width="95" height="35" rx="17.5" fill="#FFF7B1"/>
<rect x="4.5" y="0.5" width="95" height="35" rx="17.5" stroke="#6F6F6F"/>
<path d="M35.672 23.098C35.028 23.098 34.4493 22.986 33.936 22.762C33.432 22.5287 33.0353 22.2113 32.746 21.81C32.4567 21.3993 32.3073 20.928 32.298 20.396H33.656C33.7027 20.8533 33.8893 21.2407 34.216 21.558C34.552 21.866 35.0373 22.02 35.672 22.02C36.2787 22.02 36.7547 21.8707 37.1 21.572C37.4547 21.264 37.632 20.872 37.632 20.396C37.632 20.0227 37.5293 19.7193 37.324 19.486C37.1187 19.2527 36.862 19.0753 36.554 18.954C36.246 18.8327 35.8307 18.702 35.308 18.562C34.664 18.394 34.146 18.226 33.754 18.058C33.3713 17.89 33.04 17.6287 32.76 17.274C32.4893 16.91 32.354 16.4247 32.354 15.818C32.354 15.286 32.4893 14.8147 32.76 14.404C33.0307 13.9933 33.4087 13.676 33.894 13.452C34.3887 13.228 34.9533 13.116 35.588 13.116C36.5027 13.116 37.2493 13.3447 37.828 13.802C38.416 14.2593 38.7473 14.866 38.822 15.622H37.422C37.3753 15.2487 37.1793 14.922 36.834 14.642C36.4887 14.3527 36.0313 14.208 35.462 14.208C34.93 14.208 34.496 14.348 34.16 14.628C33.824 14.8987 33.656 15.2813 33.656 15.776C33.656 16.1307 33.754 16.42 33.95 16.644C34.1553 16.868 34.4027 17.0407 34.692 17.162C34.9907 17.274 35.406 17.4047 35.938 17.554C36.582 17.7313 37.1 17.9087 37.492 18.086C37.884 18.254 38.22 18.52 38.5 18.884C38.78 19.2387 38.92 19.724 38.92 20.34C38.92 20.816 38.794 21.264 38.542 21.684C38.29 22.104 37.9167 22.4447 37.422 22.706C36.9273 22.9673 36.344 23.098 35.672 23.098ZM42.8488 16.378V20.9C42.8488 21.2733 42.9281 21.5393 43.0868 21.698C43.2455 21.8473 43.5208 21.922 43.9128 21.922H44.8508V23H43.7028C42.9935 23 42.4615 22.8367 42.1068 22.51C41.7521 22.1833 41.5748 21.6467 41.5748 20.9V16.378H40.5808V15.328H41.5748V13.396H42.8488V15.328H44.8508V16.378H42.8488ZM46.4184 19.136C46.4184 18.352 46.5771 17.666 46.8944 17.078C47.2117 16.4807 47.6457 16.0187 48.1964 15.692C48.7564 15.3653 49.3771 15.202 50.0584 15.202C50.7304 15.202 51.3137 15.3467 51.8084 15.636C52.3031 15.9253 52.6717 16.2893 52.9144 16.728V15.328H54.2024V23H52.9144V21.572C52.6624 22.02 52.2844 22.3933 51.7804 22.692C51.2857 22.9813 50.7071 23.126 50.0444 23.126C49.3631 23.126 48.7471 22.958 48.1964 22.622C47.6457 22.286 47.2117 21.8147 46.8944 21.208C46.5771 20.6013 46.4184 19.9107 46.4184 19.136ZM52.9144 19.15C52.9144 18.5713 52.7977 18.0673 52.5644 17.638C52.3311 17.2087 52.0137 16.882 51.6124 16.658C51.2204 16.4247 50.7864 16.308 50.3104 16.308C49.8344 16.308 49.4004 16.42 49.0084 16.644C48.6164 16.868 48.3037 17.1947 48.0704 17.624C47.8371 18.0533 47.7204 18.5573 47.7204 19.136C47.7204 19.724 47.8371 20.2373 48.0704 20.676C48.3037 21.1053 48.6164 21.4367 49.0084 21.67C49.4004 21.894 49.8344 22.006 50.3104 22.006C50.7864 22.006 51.2204 21.894 51.6124 21.67C52.0137 21.4367 52.3311 21.1053 52.5644 20.676C52.7977 20.2373 52.9144 19.7287 52.9144 19.15ZM56.3793 19.15C56.3793 18.3567 56.538 17.666 56.8553 17.078C57.1727 16.4807 57.6113 16.0187 58.1713 15.692C58.7407 15.3653 59.3893 15.202 60.1173 15.202C61.06 15.202 61.8347 15.4307 62.4413 15.888C63.0573 16.3453 63.4633 16.98 63.6593 17.792H62.2873C62.1567 17.3253 61.9 16.9567 61.5173 16.686C61.144 16.4153 60.6773 16.28 60.1173 16.28C59.3893 16.28 58.8013 16.532 58.3533 17.036C57.9053 17.5307 57.6813 18.2353 57.6813 19.15C57.6813 20.074 57.9053 20.788 58.3533 21.292C58.8013 21.796 59.3893 22.048 60.1173 22.048C60.6773 22.048 61.144 21.9173 61.5173 21.656C61.8907 21.3947 62.1473 21.0213 62.2873 20.536H63.6593C63.454 21.32 63.0433 21.95 62.4273 22.426C61.8113 22.8927 61.0413 23.126 60.1173 23.126C59.3893 23.126 58.7407 22.9627 58.1713 22.636C57.6113 22.3093 57.1727 21.8473 56.8553 21.25C56.538 20.6527 56.3793 19.9527 56.3793 19.15ZM70.1433 23L67.1333 19.612V23H65.8593V12.64H67.1333V18.73L70.0873 15.328H71.8653L68.2533 19.15L71.8793 23H70.1433Z" fill="black"/>
<path d="M114.679 38.1759L108.528 38.9317L105.607 44.3974L104.536 33.1107L114.679 38.1759Z" fill="#A3FF2E" stroke="black" stroke-width="0.8" stroke-miterlimit="10"/>
</g>
<defs>
<filter id="filter0_d_351_88" x="0" y="0" width="120.045" height="53.7565" filterUnits="userSpaceOnUse" color-interpolation-filters="sRGB">
<feFlood flood-opacity="0" result="BackgroundImageFix"/>
<feColorMatrix in="SourceAlpha" type="matrix" values="0 0 0 0 0 0 0 0 0 0 0 0 0 0 0 0 0 0 127 0" result="hardAlpha"/>
<feOffset dy="4"/>
<feGaussianBlur stdDeviation="2"/>
<feComposite in2="hardAlpha" operator="out"/>
<feColorMatrix type="matrix" values="0 0 0 0 0 0 0 0 0 0 0 0 0 0 0 0 0 0 0.25 0"/>
<feBlend mode="normal" in2="BackgroundImageFix" result="effect1_dropShadow_351_88"/>
<feBlend mode="normal" in="SourceGraphic" in2="effect1_dropShadow_351_88" result="shape"/>
</filter>
</defs>
</svg>
