<?xml version="1.0" encoding="UTF-8"?>
<svg id="Layer_2" data-name="Layer 2" xmlns="http://www.w3.org/2000/svg" viewBox="0 0 240.94 250">
  <defs>
    <style>
      .cls-1 {
        stroke-width: 0px;
      }
    </style>
  </defs>
  <g id="Layer_1-2" data-name="Layer 1">
    <g>
      <path class="cls-1" d="M161.69,239.61c-15.68-12.91-21.86-29.38-17.51-48.96,4.33-19.49,16.39-32.25,36.3-37.65-.28-3.19-.59-6.49-.86-9.78-1.05-12.79-2.21-25.54-7.67-37.45-9.99-21.76-26.22-36.58-48.85-44.45-1.52-.53-3.17-1.27-4.24-2.41-1.78-1.9-1.02-4.57,1.6-6.68,8.24-6.6,13.19-15.14,14.23-25.6.57-5.7.1-11.51.1-17.48H59.86c-1.25,15.11-.56,29.73,11.89,40.9,1.17,1.05,3.06,1.76,4.63,1.8,7.71.18,15.44.04,23.15.11,3.03.03,4.88,1.93,4.79,4.62-.09,2.56-1.9,4.16-4.85,4.27-.65.02-1.3,0-1.95,0-5.95,0-11.93.35-17.85-.09-7.39-.55-13.63,2.35-19.8,5.58-17.8,9.34-30.55,23.36-38.21,41.97-1.74,4.22-3.81,5.72-6.58,4.65-2.91-1.11-3.51-3.69-1.7-8.04,9.4-22.55,25.26-38.87,47.48-49.02.59-.27,1.2-.5,1.79-.77.16-.07.28-.23.59-.5-.4-.55-.79-1.13-1.24-1.67-7.42-8.78-11.3-18.88-11.35-30.4-.02-4.46-.05-8.93,0-13.39C50.74,3.8,54.42.04,59.79.03c25.01-.04,50.03-.04,75.04,0,4.63,0,8.79,3.23,8.91,7.57.23,8.71.96,17.48-1.23,26.09-2,7.88-5.86,14.78-11.5,20.92.95.46,1.68.82,2.41,1.17,32.37,15.16,50.35,40.54,54.03,76.07.68,6.55,1.28,13.1,1.89,19.39,5.09.73,10,1.14,14.76,2.19,7.96,1.75,14.85,5.74,20.9,11.19,3.06,2.76,3.59,5.5,1.54,7.64-1.98,2.06-4.54,1.73-7.51-.99-22.19-20.25-58.34-9.9-66.02,18.9-5.89,22.08,8.79,45.92,30.89,50.15,23,4.4,45.08-11.63,47.6-34.93.53-4.88-.32-9.96-.9-14.9-.38-3.27.43-5.61,2.99-6.29,2.7-.72,4.96.85,5.74,4.2,4.45,19.11-.19,35.8-14.77,48.86-14.66,13.14-31.82,15.87-50.46,9.37-1.24-.43-2.93-.44-4.14.03-5.35,2.1-10.82,3.29-16.57,3.29-37.38,0-74.77.06-112.15-.03-25.21-.06-43.66-21.2-40.97-46.23,2.2-20.51,3.91-41.07,5.85-61.61.35-3.7.71-7.4,1.08-11.1.3-2.98,2.28-4.93,4.78-4.74,2.59.2,4.37,2.31,4.1,5.31-.94,10.64-1.99,21.28-3,31.92-1.38,14.43-2.98,28.84-4.08,43.3-1.41,18.6,13.05,34.16,31.74,34.21,37.57.11,75.14.05,112.71,0,2.56,0,5.11-.38,7.67-.59.19-.26.38-.52.58-.78Z"/>
      <path class="cls-1" d="M92.81,115.73c0-1.78-.06-3.72.01-5.64.12-3.09,1.87-5.05,4.43-5.07,2.58-.02,4.34,1.93,4.45,5.02.07,1.93.01,3.86.01,6.1,3.36,0,6.4,0,9.44,0,2.04,0,4.1-.09,6.13.05,2.84.19,4.68,2.12,4.59,4.61-.08,2.52-1.96,4.23-4.88,4.25-7.99.04-15.99-.04-23.98.04-6.26.06-10.76,4.05-11.24,9.75-.49,5.86,3.46,10.92,9.34,11.44,4.15.37,8.36.08,12.53.34,8.5.53,15.39,6.44,17.47,14.77,2.05,8.2-1.31,16.96-8.65,21.16-3.14,1.79-6.84,2.6-10.76,4.03,0,1.4.07,3.43-.02,5.45-.13,2.9-1.91,4.79-4.38,4.81-2.46.02-4.32-1.87-4.47-4.73-.11-2.02-.02-4.05-.02-6.43-4.34,0-8.4,0-12.46,0-1.12,0-2.24.07-3.34-.04-2.6-.25-4.43-2.2-4.37-4.56.06-2.41,1.88-4.26,4.58-4.28,7.9-.08,15.8-.02,23.7-.07,1.38,0,2.8-.12,4.13-.46,4.95-1.27,8.09-5.89,7.71-11.16-.36-5-4.23-9.15-9.29-9.53-4.35-.33-8.74-.04-13.09-.4-8.81-.73-16.14-7.76-17.32-16.3-1.29-9.32,3.6-17.97,12.18-21.22,2.31-.87,4.81-1.24,7.56-1.92Z"/>
      <path class="cls-1" d="M184.77,209.98c1.08-1.43,1.85-2.73,2.89-3.78,7.18-7.26,14.42-14.46,21.64-21.68.53-.52,1.03-1.07,1.59-1.56,2.06-1.79,4.5-1.84,6.27-.17,1.89,1.79,2.02,4.39,0,6.44-9.8,9.89-19.64,19.73-29.54,29.52-2.08,2.06-4.45,1.9-6.66-.26-4.77-4.68-9.5-9.4-14.18-14.18-2.16-2.2-2.16-4.8-.21-6.65,1.86-1.77,4.35-1.74,6.45.33,3.77,3.71,7.42,7.53,11.75,11.96Z"/>
    </g>
  </g>
</svg>