<?xml version="1.0" encoding="UTF-8"?>
<svg id="Layer_2" data-name="Layer 2" xmlns="http://www.w3.org/2000/svg" viewBox="0 0 251.29 250">
  <defs>
    <style>
      .cls-1 {
        stroke-width: 0px;
      }
    </style>
  </defs>
  <g id="Layer_1-2" data-name="Layer 1">
    <g>
      <path class="cls-1" d="M0,94.98c2.35-6.7,7.21-9.32,14.07-8.77,1.13.09,2.27.01,3.72.01,0-1.03.02-1.89,0-2.75-.17-6.39-.31-12.78-.57-19.16-.06-1.53.42-2.32,1.77-3.03,8.58-4.57,17.15-9.17,25.64-13.91,1.39-.78,2.73-2.08,3.5-3.47,4.73-8.51,9.33-17.09,13.88-25.7.76-1.44,1.6-1.92,3.22-1.86,9.89.37,19.78.67,29.67.88,1.21.03,2.6-.36,3.64-.99,8.46-5.12,16.88-10.32,25.26-15.58,1.37-.86,2.31-.89,3.7-.02,8.3,5.23,16.65,10.38,25.05,15.45,1.18.71,2.72,1.17,4.09,1.14,9.81-.19,19.62-.5,29.43-.88,1.62-.06,2.46.43,3.22,1.86,4.43,8.39,9.02,16.7,13.43,25.11,1.08,2.07,2.52,3.43,4.56,4.5,8.38,4.43,16.67,9.02,25.05,13.47,1.35.72,1.82,1.51,1.76,3.03-.27,6.39-.4,12.78-.57,19.16-.02.8,0,1.61,0,2.74,2.15,0,4.17-.02,6.18,0,6.91.09,11.59,4.72,11.6,11.59.03,18.11.03,36.22,0,54.33-.01,6.87-4.68,11.49-11.6,11.59-1.95.03-3.9,0-6.17,0,0,1.19-.02,2.21,0,3.23.17,6.23.3,12.45.56,18.67.06,1.52-.41,2.32-1.75,3.04-8.52,4.52-16.96,9.19-25.48,13.7-1.82.97-3.05,2.24-4.01,4.06-4.47,8.46-9.08,16.85-13.55,25.32-.76,1.43-1.59,1.93-3.22,1.87-9.81-.38-19.62-.69-29.43-.88-1.36-.03-2.91.43-4.09,1.14-8.47,5.11-16.88,10.32-25.26,15.57-1.21.76-2.07.74-3.27-.01-8.46-5.29-16.94-10.54-25.47-15.7-1.04-.63-2.42-1.01-3.64-.99-9.89.21-19.78.51-29.67.88-1.62.06-2.46-.41-3.22-1.86-4.62-8.75-9.31-17.47-14.09-26.14-.62-1.13-1.71-2.2-2.85-2.82-8.65-4.78-17.36-9.47-26.09-14.11-1.34-.71-1.8-1.5-1.78-3.03.09-7.19.04-14.39.04-21.93-7.15.57-14.34.08-17.25-8.74v-59.99ZM136.81,156.36c1.09,0,2.05,0,3.02,0,32.87,0,65.75,0,98.62,0,4.41,0,5.46-1.06,5.46-5.53,0-17.29,0-34.58,0-51.87,0-4.27-1.09-5.37-5.37-5.37-75.32,0-150.64,0-225.95,0-4.11,0-5.23,1.13-5.23,5.26,0,17.21,0,34.41,0,51.62,0,4.97.91,5.88,5.84,5.88,32.71,0,65.42,0,98.13,0,1.02,0,2.04,0,3.1,0v7.45h-63.85c12.28,25.31,41.49,46.82,77.09,45.95,37.1-.9,63.37-25.15,72.98-46.07h-63.83v-7.33ZM78.37,45.95c.8-.48,1.46-.93,2.17-1.31,27.62-14.87,55.86-16.01,84.34-2.98,19.41,8.88,33.69,23.38,43.3,42.49.4.79,1.17,1.94,1.8,1.96,5.28.16,10.56.09,16.52.09,0-5.96-.1-11.6.06-17.23.05-1.85-.52-2.74-2.11-3.58-7.95-4.19-15.86-8.47-23.72-12.83-1.13-.63-2.2-1.71-2.82-2.84-4.39-7.95-8.68-15.95-12.92-23.98-.75-1.41-1.56-1.95-3.22-1.88-8.99.35-17.98.62-26.97.74-1.51.02-3.22-.5-4.53-1.29-7.65-4.57-15.23-9.25-22.76-14.01-1.4-.89-2.34-.83-3.71.03-7.75,4.87-15.56,9.66-23.39,14.4-.91.55-2.11.93-3.17.91-9.07-.17-18.15-.37-27.22-.76-2.05-.09-3.01.55-3.93,2.31-4.13,7.9-8.38,15.74-12.7,23.54-.63,1.13-1.7,2.21-2.83,2.83-8,4.44-16.06,8.77-24.14,13.08-1.22.65-1.78,1.36-1.69,2.84.23,3.84.26,7.7.34,11.55.04,2.01,0,4.01,0,6.18,5.39,0,10.21-.07,15.02.04,1.54.03,2.2-.58,2.99-1.84,4.04-6.42,7.95-12.97,12.49-19.03,4.46-5.96,10.14-10.84,16.37-15.21,1.45,2.03,2.8,3.94,4.22,5.93-10.87,8.09-19.48,17.84-25.74,30h150.47c-8.73-16.51-21.04-29.04-37.59-37.02-27.48-13.25-54.62-11.65-81.27,2.96-1.22-2.03-2.39-3.98-3.66-6.09ZM25.35,163.74c-.08,1.12-.17,2-.19,2.89-.13,4.75-.14,9.51-.42,14.25-.11,1.82.4,2.78,2.02,3.63,7.95,4.19,15.86,8.47,23.71,12.84,1.19.66,2.31,1.81,2.97,3.01,4.4,7.94,8.69,15.95,12.94,23.97.71,1.34,1.52,1.81,3.05,1.75,8.99-.33,17.98-.61,26.97-.74,1.52-.02,3.24.43,4.55,1.22,7.72,4.61,15.36,9.35,22.97,14.14,1.31.82,2.2.8,3.5-.02,7.68-4.83,15.4-9.6,23.17-14.28,1.11-.67,2.57-1.1,3.86-1.08,8.99.15,17.99.38,26.97.74,1.8.07,2.78-.37,3.63-2,4.18-7.97,8.45-15.89,12.81-23.76.66-1.19,1.81-2.32,3-2.99,7.93-4.4,15.92-8.69,23.93-12.95,1.33-.71,1.82-1.51,1.75-3.06-.24-4.91-.29-9.83-.43-14.74-.02-.88-.12-1.76-.2-2.84-4.84,0-9.5.11-14.15-.05-2.03-.07-2.95.66-3.84,2.45-25.47,51.36-91.67,67.08-137.41,32.68-11.78-8.86-20.94-19.91-27.48-33.14-.38-.77-1.22-1.83-1.88-1.85-5.21-.15-10.43-.08-15.81-.08Z"/>
      <path class="cls-1" d="M160.48,121.01v22.47h-7.18v-37.11c2.03,0,4.06-.14,6.05.08.68.08,1.42.96,1.86,1.65,3.78,5.93,7.49,11.91,11.24,17.87.42.66.89,1.29,1.7,2.47v-21.97h7.2v36.67c-1.95,0-3.91.16-5.82-.08-.76-.1-1.62-.95-2.08-1.68-3.79-5.93-7.5-11.91-11.24-17.86-.42-.66-.89-1.28-1.74-2.5Z"/>
      <path class="cls-1" d="M49.48,122.66c6.87,6.8,4.4,15.52-.9,18.85-1.61,1.01-3.58,1.88-5.43,1.99-4.88.27-9.78.09-14.84.09v-37.12c4.63,0,9.14-.4,13.56.09,7.14.8,10.98,7.99,8.23,14.68-.18.45-.38.89-.61,1.43ZM35.66,136.25c2.32,0,4.45.11,6.56-.03,2.45-.16,4.09-2.03,4.07-4.38-.01-2.25-1.55-4.08-3.9-4.28-2.18-.18-4.38-.04-6.73-.04v8.72ZM35.69,113.75v6.34c1.61,0,3.13.03,4.66,0,2.04-.05,3.26-1.15,3.27-3.18,0-1.92-1.26-2.98-3.11-3.13-1.45-.12-2.93-.02-4.83-.02Z"/>
      <path class="cls-1" d="M68.3,106.4c4.24,0,8.25-.19,12.22.05,5.44.32,9.86,4.25,10.76,9.17.99,5.38-1.48,10.04-6.69,12.63-.36.18-.73.33-1.49.68,3.03,3.6,5.94,7.05,9.02,10.72-1.88,1.59-3.66,3.1-5.6,4.75-3.57-4.21-7.04-8.31-10.95-12.93v12.02h-7.27v-37.08ZM75.62,121.93c3.08-.06,6.24.79,7.93-2.35.53-.99.41-2.87-.21-3.83-1.83-2.83-4.84-1.92-7.71-1.94v8.12Z"/>
      <path class="cls-1" d="M195.97,142.68v-36.6c5.34.26,10.66.14,15.85.89,4.16.6,7.17,3.54,8.98,7.35,3.14,6.59,3.25,13.33.06,19.91-2.7,5.57-7.28,8.45-13.55,8.45-3.74,0-7.48,0-11.33,0ZM203.28,135.13c4.38.48,8.37.53,10.86-3.81,2.34-4.09,2.11-11.26-.58-14.73-2.73-3.52-6.48-3.02-10.28-2.73v21.28Z"/>
      <path class="cls-1" d="M138.5,141.7c-2.39.9-4.51,1.7-6.77,2.55-1.12-2.88-2.18-5.6-3.27-8.41-3.83,0-7.59-.08-11.34.07-.71.03-1.69.81-2.02,1.5-1,2.13-1.74,4.38-2.68,6.83-2.3-.87-4.47-1.7-6.85-2.6,1.76-4.63,3.46-9.11,5.16-13.58,2.5-6.57,5.04-13.12,7.45-19.72.53-1.45,1.16-2.04,2.76-2.02,4.29.06,4.29-.02,5.8,3.98,3.67,9.71,7.33,19.41,10.99,29.12.25.67.46,1.36.77,2.29ZM122.08,118.83c-1.34,3.58-2.41,6.46-3.56,9.53h7.15c-1.15-3.06-2.25-5.99-3.59-9.53Z"/>
      <path class="cls-1" d="M129.14,163.66h-6.95v-7.1h6.95v7.1Z"/>
      <path class="cls-1" d="M147.84,55.04h7.13v7.09h-7.13v-7.09Z"/>
      <path class="cls-1" d="M169.74,62.46v7.03h-7.16v-7.03h7.16Z"/>
    </g>
  </g>
</svg>