<?xml version="1.0" encoding="UTF-8"?>
<svg id="Layer_2" data-name="Layer 2" xmlns="http://www.w3.org/2000/svg" viewBox="0 0 250.08 250">
  <defs>
    <style>
      .cls-1 {
        stroke-width: 0px;
      }
    </style>
  </defs>
  <g id="Layer_1-2" data-name="Layer 1">
    <g>
      <path class="cls-1" d="M95.87,241.77h8.34v-2.73c0-11.03,0-22.05,0-33.08,0-4.49,1.28-5.8,5.66-5.8,10.16,0,20.32,0,30.47,0,4.21,0,5.54,1.36,5.54,5.66,0,11.88,0,23.77,0,35.83h8.34v-3.06c0-21.97,0-43.93,0-65.9,0-4.63,1.24-5.87,5.85-5.87,10.16,0,20.32-.01,30.47,0,3.92,0,5.35,1.42,5.35,5.33.01,22.05,0,44.11,0,66.16,0,1.04,0,2.08,0,3.32h8.34v-2.97c0-39.94,0-79.88,0-119.81,0-5.11,1.11-6.2,6.3-6.2,9.9,0,19.8,0,29.69,0,4.39,0,5.68,1.31,5.68,5.78,0,40.03,0,80.05,0,120.08v3.24h3.97v8.26H.16v-8.04c1.22-.07,2.47-.15,4.03-.24,0-.98,0-1.9,0-2.83,0-12.42,0-24.83,0-37.25,0-4.3,1.32-5.65,5.54-5.66,10.16,0,20.32,0,30.47,0,4.38,0,5.66,1.32,5.66,5.8,0,12.33,0,24.66,0,36.99,0,.93,0,1.86,0,2.92h8.34c0-.99,0-1.99,0-2.99,0-19.19,0-38.38,0-57.56,0-4.79,1.2-5.99,5.99-5.99,10.07,0,20.14,0,30.21,0,4.08,0,5.47,1.38,5.47,5.47,0,19.36,0,38.72,0,58.08,0,.94,0,1.88,0,3.06ZM212.74,121.1v120.53h24.7v-120.53h-24.7ZM162.73,175.27v66.35h24.69v-66.35h-24.69ZM62.72,183.6v58.11h24.67v-58.11h-24.67ZM37.41,204.51H12.73v37.18h24.68v-37.18ZM137.36,241.72v-33.02h-24.68v33.02h24.68Z"/>
      <path class="cls-1" d="M70.97,0c36.3.17,66.71,27.76,70.35,63.89,1.46,14.5-1.37,28.13-8.26,40.92-.82,1.53-.91,2.74-.24,4.33,4.28,10.14,8.44,20.33,12.66,30.49.93,2.22,1.12,4.55-1.18,5.7-1.38.69-3.59.61-5.09.01-10.07-3.99-20.06-8.18-30.03-12.4-1.68-.71-2.95-.62-4.57.26C61.36,156.84,7.28,129.43.65,80.56-4.73,40.89,23.94,4.5,63.7.54c2.41-.24,4.84-.36,7.26-.54ZM116.36,114.02c.35-.46.59-.82.87-1.14,12.37-14.16,17.6-30.56,15.67-49.3C129.36,29.15,95.68,3.44,61.5,9.15,27.7,14.8,5.34,44.09,8.82,78.17c3.05,29.86,28.93,54.08,59.04,55.25,12.65.49,24.44-2.43,35.28-8.96,2.05-1.24,3.9-1.51,6.11-.47,2.74,1.29,5.59,2.35,8.39,3.5,5.33,2.2,10.65,4.39,16.62,6.85-2.79-6.73-5.3-12.8-7.92-19.13-1.49,1.61-2.74,2.98-4.05,4.4-2.13-2.02-4.01-3.8-5.93-5.61Z"/>
      <path class="cls-1" d="M221.12,54.3c8.29,0,16.36-.03,24.43.02,2.81.02,4.47,1.58,4.49,4.31.07,8.15.02,16.3.02,24.65h-8.32v-14.58c-1.03.96-1.66,1.51-2.25,2.1-17.06,17.06-34.11,34.13-51.21,51.15-1.28,1.28-1.77,2.3-1.26,4.22,2.47,9.33-5.78,17.59-15.11,15.12-1.92-.51-2.95-.05-4.22,1.24-9.83,9.93-19.71,19.81-29.63,29.65-1.16,1.15-1.55,2.08-1.07,3.79,2.06,7.19-2.39,14.2-9.74,15.66-6.86,1.36-13.75-3.6-14.55-10.77-.21-1.92-.98-2.61-2.57-3.25-7.95-3.23-15.87-6.52-23.75-9.91-1.5-.65-2.4-.48-3.65.54-4.26,3.47-10.05,3.77-14.51.63-1.53-1.08-2.59-1.07-4.16-.27-11.52,5.84-23.08,11.59-34.63,17.37-.77.38-1.55.74-2.55,1.22-1.23-2.45-2.41-4.8-3.71-7.38,1.1-.57,2-1.04,2.91-1.49,11.47-5.74,22.94-11.49,34.43-17.18,1.38-.68,2.03-1.39,2.08-3.08.17-6.51,5.38-11.76,11.71-12.05,6.71-.31,12.39,4.41,13.1,11.13.17,1.63.73,2.37,2.2,2.96,8.03,3.26,16.03,6.59,24,9.98,1.42.6,2.36.64,3.66-.44,3.27-2.73,7.12-3.55,11.23-2.25,1.42.45,2.32.33,3.4-.76,10.15-10.23,20.37-20.38,30.49-30.63.6-.61.92-1.98.7-2.83-2.56-10.14,5.63-18.38,15.74-15.82.86.22,2.25-.05,2.85-.65,17.79-17.68,35.51-35.43,53.24-53.17.12-.12.2-.28.54-.75h-14.35v-8.47ZM179.2,129.31c0-2.23-1.84-4.11-4.08-4.16-2.23-.04-4.14,1.78-4.22,4.02-.08,2.34,1.87,4.33,4.2,4.29,2.24-.04,4.09-1.91,4.09-4.15ZM79.18,158.59c.07-2.23-1.74-4.16-3.97-4.26-2.22-.1-4.19,1.68-4.32,3.91-.14,2.33,1.76,4.37,4.1,4.39,2.23.02,4.13-1.81,4.2-4.04ZM125.15,183.47c2.24-.06,4.07-1.96,4.05-4.19-.02-2.34-2.06-4.24-4.38-4.11-2.23.13-4.01,2.1-3.91,4.32.1,2.24,2.02,4.05,4.25,3.98Z"/>
      <path class="cls-1" d="M70.75,93.78c-7.06-.17-13.76-1.75-19.82-5.45-9.61-5.86-19.73-10.46-30.66-13.22-2.17-.55-3.56-1.89-3.53-4.21.03-2.32,1.47-3.56,3.64-4.12,10.65-2.74,20.49-7.3,29.99-12.83,13.56-7.89,27.44-7.91,41-.01,9.42,5.49,19.17,10.03,29.73,12.76,2.24.58,3.86,1.73,3.9,4.19.04,2.6-1.67,3.77-4.01,4.37-10.57,2.72-20.41,7.11-29.7,12.82-6.28,3.86-13.2,5.58-20.54,5.69ZM71.5,85.44c4.58-.13,9.48-1.52,14.3-3.71,4.03-1.83,5.77-4.82,5.77-8.89,0-2.82-.53-5.65-.99-8.45-.13-.75-.72-1.65-1.37-2.07-10.77-6.94-21.85-7.72-33.5-2.01-3.83,1.88-5.46,4.68-5.52,8.51-.05,2.9.49,5.83.98,8.7.14.81.88,1.7,1.59,2.19,5.45,3.66,11.45,5.65,18.74,5.73ZM41.63,68.08c-2.28,1-4.23,1.86-6.68,2.93,2.57,1.07,4.53,1.88,6.68,2.77v-5.7ZM100.11,73.8c2.25-.95,4.23-1.78,6.74-2.84-2.56-1.06-4.55-1.89-6.74-2.81v5.65Z"/>
      <path class="cls-1" d="M70.78,58.48c6.93-.04,12.6,5.61,12.57,12.52-.02,6.81-5.57,12.38-12.4,12.45-6.78.07-12.5-5.51-12.57-12.27-.08-6.95,5.5-12.67,12.4-12.71ZM70.83,75.11c2.24.02,4.13-1.81,4.19-4.04.06-2.24-1.74-4.16-3.98-4.25-2.34-.09-4.33,1.83-4.32,4.17.01,2.24,1.86,4.1,4.11,4.13Z"/>
    </g>
  </g>
</svg>