<?xml version="1.0" encoding="UTF-8"?>
<svg id="Layer_2" data-name="Layer 2" xmlns="http://www.w3.org/2000/svg" viewBox="0 0 290.12 250">
  <defs>
    <style>
      .cls-1 {
        stroke-width: 0px;
      }
    </style>
  </defs>
  <g id="Layer_1-2" data-name="Layer 1">
    <path class="cls-1" d="M0,153.85c3.12-10.41,11.36-11.05,20.6-10.15,0-1.62,0-2.81,0-3.99,0-4.06-.03-8.12,0-12.18.06-7.16,3.94-11.07,11.02-11.09,10.58-.02,21.16-.02,31.73,0,6.97.02,10.87,3.92,10.9,10.88.02,3.76,0,7.52,0,11.62,3.63-.73,6.97-1.28,10.22-2.17.62-.17,1.24-1.68,1.25-2.58.11-6.61.04-13.22.06-19.83.03-7.64,3.87-11.45,11.54-11.45,10.2,0,20.4,0,30.6,0,7.7,0,11.49,3.79,11.5,11.45,0,1.32,0,2.64,0,4.5,3.74-1.76,7.22-3.31,10.58-5.08.58-.3.89-1.56.91-2.38.09-4.63.01-9.25.05-13.88.06-7.32,3.9-11.09,11.27-11.1,10.01,0,20.02.07,30.03-.07,1.54-.02,3.42-.59,4.56-1.58,10.41-9.02,20.68-18.2,31.01-27.31.97-.86,2.07-2.13,3.14-2.18,1.49-.06,3.38.48,4.43,1.47,1.52,1.43,1.3,3.52-.12,5.13-1.75,1.98-3.64,3.84-5.53,5.68-41.81,40.7-91.34,66.88-148.46,78.69-21.44,4.44-43.16,6.02-65.03,5.82-.94,0-1.89-.02-2.83,0-3.08.07-4.96,1.69-4.93,4.23.03,2.52,1.92,4.19,5.01,4.25,49.81.94,97.37-8.72,142.24-30.58,45.33-22.09,82.83-53.64,112.68-94.29,4.04-5.5,4.97-5.66,10.39-1.74.45.33.92.63,2.1,1.44V9.17c-7.74,2.6-15.84,5.32-24.36,8.19,2.1,1.59,3.9,2.9,5.64,4.28,2.47,1.95,2.93,4.14,1.05,6.62-5.02,6.62-10.13,13.17-15.31,19.66-1.93,2.41-4.48,2.64-6.42.92-1.86-1.65-1.82-4.16.1-6.56,4.18-5.21,8.36-10.42,12.73-15.86-1.72-1.29-3.14-2.34-4.54-3.41-2.27-1.74-3.46-4.03-3.08-6.89.41-3.07,2.2-5.16,5.15-6.16,9.38-3.18,18.74-6.4,28.15-9.47,5.57-1.82,10.19,1.62,10.08,7.48-.17,9.35-.55,18.69-.76,28.04-.08,3.51-.83,6.6-4.29,8.27-3.49,1.68-6.4.33-9.11-1.89-.29-.23-.61-.42-1.01-.69-6.86,8.38-13.7,16.74-20.86,25.49,1.59,0,2.94,0,4.29,0,7.68,0,11.42,3.76,11.42,11.51,0,43.54,0,87.08,0,130.62,0,1.12,0,2.24,0,3.42,2.19.29,4.18.38,6.08.82,7.75,1.83,13.42,8.77,13.67,16.75.12,4.06.11,8.12.01,12.18-.1,4.14-2.65,6.86-6.77,7.37-1.12.14-2.26.13-3.39.13-89.63,0-179.25.01-268.88-.03-2.03,0-4.21-.2-6.07-.93-2.67-1.05-3.95-3.41-3.98-6.31-.04-3.87-.09-7.75-.01-11.62.19-9.93,6.84-17.04,16.77-18.01,1.02-.1,2.03-.19,3.21-.3v-43.81c-8.77.71-17.06.1-20.43-10.04v-5.1ZM9.05,241.22h272.04c0-2.76,0-5.3,0-7.85,0-8.53-3.29-11.84-11.79-11.84-82.9,0-165.81,0-248.71,0-1.41,0-2.85.02-4.23.27-3.81.7-7.01,3.91-7.26,7.69-.26,3.84-.06,7.71-.06,11.72ZM261.29,212.82v-3.47c0-27.84,0-55.69,0-83.53,0-15.67-.03-31.34.04-47.01.01-2.25-.54-3.29-3-3.17-3.58.17-7.18-.08-10.75.11-1.16.06-2.51.67-3.39,1.46-5.88,5.32-11.6,10.81-17.49,16.11-1.47,1.32-2.06,2.63-2.06,4.6.05,37.28.04,74.57.05,111.85,0,.99.1,1.99.16,3.05h36.45ZM196.11,116.83c-.84.45-1.24.66-1.63.88-11.03,6.33-22.04,12.72-33.13,18.95-1.66.93-1.89,2-1.89,3.61.03,23.22.02,46.45.02,69.67,0,.92,0,1.84,0,2.83h36.62c0-1.23,0-2.26,0-3.28,0-9.35,0-18.69,0-28.04,0-3.62,1.47-5.51,4.2-5.55,2.78-.04,4.29,1.83,4.29,5.42.01,9.44,0,18.88,0,28.32,0,1.01,0,2.02,0,3.17h11.29v-110.43c-3.14,2.35-5.83,4.56-8.73,6.46-1.95,1.28-2.64,2.73-2.62,5.09.11,15.76.07,31.53.05,47.3,0,3.06-1.71,4.99-4.23,4.98-2.5,0-4.17-1.96-4.26-5-.03-.85,0-1.7,0-2.55,0-13.78,0-27.56,0-41.83ZM29.28,212.74h36.48c0-4.57-.02-8.9,0-13.24.02-3.51,1.61-5.47,4.35-5.42,2.64.05,4.13,1.93,4.15,5.31.02,4.42,0,8.83,0,13.33h11.33v-50.01c-3.9.72-7.55,1.4-11.33,2.11,0,5.06.12,9.88-.08,14.67-.06,1.36-.7,3.12-1.69,3.88-.97.74-3.17,1.07-4.07.46-1.26-.85-2.43-2.7-2.55-4.2-.33-4.39-.12-8.82-.12-13.23-12.32.97-24.32,1.91-36.49,2.87v43.47ZM130.84,150.22c-12.21,3.64-24.27,7.24-36.34,10.85v51.69h36.34v-62.54ZM150.79,212.81v-71.02c-3.21,1.34-6.1,2.68-9.09,3.73-1.83.65-2.31,1.65-2.3,3.54.07,20.38.04,40.75.05,61.13,0,.83.09,1.65.14,2.62h11.2ZM94.32,134.95c10.1-3.32,19.6-6.3,28.99-9.59,7.96-2.79,7.91-2.95,7.63-11.32,0-.09,0-.19,0-.28.14-1.68-.62-2.39-2.31-2.39-10.65.03-21.3-.03-31.95.1-.79.01-2.24,1.28-2.26,2-.17,6.86-.1,13.73-.1,21.47ZM29.13,143.77c12.46-1.05,24.45-2.05,36.62-3.07,0-5,.09-9.42-.1-13.84-.03-.66-1.34-1.82-2.07-1.83-10.76-.12-21.51-.12-32.27,0-.73,0-2.06,1.19-2.08,1.85-.17,5.35-.1,10.72-.1,16.88ZM182.06,95.62c-.11-.24-.22-.49-.32-.73-6.68,0-13.36-.04-20.04.06-.71.01-2,.82-2.02,1.3-.16,4.07-.09,8.15-.09,12.93,7.92-4.77,15.2-9.17,22.48-13.56Z"/>
  </g>
</svg>