<?xml version="1.0" encoding="UTF-8"?>
<svg id="Layer_2" data-name="Layer 2" xmlns="http://www.w3.org/2000/svg" viewBox="0 0 250 250">
  <defs>
    <style>
      .cls-1 {
        stroke-width: 0px;
      }
    </style>
  </defs>
  <g id="Layer_1-2" data-name="Layer 1">
    <g>
      <path class="cls-1" d="M125.01,54.28c-2.55,0-4.58-1.9-4.82-4.52-.08-.86-.07-1.72-.05-2.56,0-.31,0-.61,0-.92,0-3.49,0-6.98,0-10.48,0-9.57.02-19.47-.05-29.2-.01-2.06.3-4.65,2.9-6.43l.25-.17h3.53l.26.18c2.59,1.8,2.91,4.38,2.89,6.43-.07,10.19-.06,20.55-.05,30.58v10.56s0,.49,0,.49c0,.5.01,1.02-.04,1.56-.29,2.61-2.32,4.5-4.83,4.5h0Z"/>
      <path class="cls-1" d="M126.46.99c1.97,1.37,2.48,3.25,2.47,5.61-.09,13.71-.04,27.43-.05,41.14,0,.65.04,1.3-.03,1.93-.24,2.14-1.83,3.62-3.84,3.61-2.02,0-3.63-1.48-3.83-3.62-.1-1.12-.04-2.26-.04-3.39,0-13.23.05-26.46-.05-39.69-.02-2.36.48-4.25,2.47-5.61h2.91Z"/>
      <path class="cls-1" d="M6.5,129.92c-2.01,0-4.54-.33-6.32-2.89l-.18-.25v-3.53l.17-.25c1.77-2.57,4.31-2.89,6.32-2.89h.11c5.84.04,12.11.06,20.34.06h20.8c.18,0,.36-.01.55-.02.2,0,.4,0,.6,0,.48,0,.85.03,1.21.09,2.64.49,4.15,2.24,4.16,4.78,0,2.55-1.56,4.34-4.17,4.79-.46.08-.97.12-1.59.12-.29,0-.59,0-.89-.02-.28,0-.55-.01-.83-.01h-20.41c-7.99-.01-14.08,0-19.75.05h-.12Z"/>
      <path class="cls-1" d="M.99,123.56c1.36-1.98,3.25-2.48,5.61-2.47,13.71.09,27.43.04,41.14.05.73,0,1.47-.07,2.17.06,2.08.39,3.34,1.67,3.34,3.81,0,2.14-1.26,3.45-3.34,3.81-1.02.17-2.09.07-3.14.07-13.39,0-26.78-.05-40.17.05-2.36.02-4.24-.5-5.61-2.47v-2.91Z"/>
      <path class="cls-1" d="M234.57,116.31c-2.47,0-4.32-1.93-4.93-5.16-.24-1.27-.47-2.55-.69-3.83-.68-3.88-1.38-7.89-2.58-11.64-12.84-40.35-40.36-65.38-81.79-74.38-1.14-.25-2.34-.42-3.49-.59-1.04-.15-2.11-.31-3.17-.52-2.74-.55-4.5-2.82-4.17-5.4.33-2.58,2.41-4.19,5.44-4.19h.23c10.21,1.25,19.6,3.68,28.01,7.24,38.98,16.48,62.96,46.04,71.28,87.88.29,1.47.47,2.93.6,4.15.39,3.6-1.13,5.99-4.09,6.39-.23.03-.46.05-.68.05Z"/>
      <path class="cls-1" d="M139.4,11.6c9.3,1.14,18.7,3.37,27.65,7.16,39.02,16.49,62.45,45.69,70.69,87.16.27,1.34.44,2.71.59,4.07.34,3.05-.86,4.98-3.23,5.3-2.33.32-3.94-1.38-4.5-4.32-.99-5.22-1.69-10.55-3.29-15.59-13.01-40.9-40.56-65.94-82.52-75.05-2.2-.48-4.47-.66-6.68-1.11-2.29-.46-3.64-2.26-3.38-4.3.26-2.09,1.95-3.39,4.67-3.32Z"/>
      <path class="cls-1" d="M110.96,239.4c-.49,0-1.01-.04-1.56-.12-13.06-1.84-25.07-5.56-35.7-11.07-34.05-17.64-55.05-45.86-62.41-83.88-.23-1.2-.38-2.39-.51-3.45-.05-.44-.11-.85-.16-1.23v-.11c-.11-3.36,1.57-5.59,4.39-5.81.13-.01.27-.02.4-.02,2.44,0,4.28,1.8,4.93,4.83.4,1.88.77,3.81,1.12,5.67.88,4.67,1.79,9.49,3.38,13.95,13.58,38.2,40.68,61.94,80.52,70.55,1.64.35,3.35.6,5,.84l.42.06c3.74.54,5.79,2.61,5.48,5.55-.28,2.69-2.21,4.23-5.29,4.23Z"/>
      <path class="cls-1" d="M11.61,139.51c-.09-2.89,1.29-4.62,3.49-4.79,2.2-.17,3.72,1.4,4.28,4.03,1.41,6.61,2.28,13.42,4.53,19.74,13.79,38.78,41,62.49,81.25,71.18,1.81.39,3.65.64,5.48.91,3.18.46,4.89,2.08,4.63,4.46-.27,2.54-2.29,3.72-5.72,3.24-12.39-1.74-24.27-5.21-35.38-10.97-34.11-17.67-54.6-45.54-61.89-83.19-.32-1.66-.48-3.35-.66-4.63Z"/>
      <path class="cls-1" d="M138.82,239.41c-2.78,0-4.77-1.66-5.06-4.22-.31-2.68,1.58-4.88,4.69-5.48,1.49-.28,2.98-.54,4.48-.79,3.52-.59,7.15-1.2,10.55-2.26,40.73-12.67,66.04-40.22,75.21-81.89.26-1.18.44-2.41.61-3.6.16-1.08.32-2.2.54-3.3.5-2.48,2.41-4.15,4.75-4.15.23,0,.46.02.7.05,2.67.38,4.21,2.53,4.11,5.75-1.28,10.25-3.72,19.63-7.25,27.98-16.49,38.98-46.07,62.95-87.9,71.24-1.58.31-3.23.53-4.91.65-.18.01-.35.02-.52.02Z"/>
      <path class="cls-1" d="M238.41,139.49c-1.16,9.26-3.39,18.67-7.18,27.62-16.51,39-45.7,62.43-87.18,70.65-1.58.31-3.19.52-4.79.64-2.52.18-4.28-1.16-4.52-3.33-.25-2.18,1.33-3.9,3.89-4.39,5.06-.97,10.25-1.55,15.14-3.08,41.25-12.83,66.59-40.4,75.89-82.62.5-2.28.69-4.63,1.15-6.91.47-2.29,2.29-3.61,4.34-3.32,2.08.29,3.34,1.97,3.26,4.74Z"/>
      <path class="cls-1" d="M15.65,116.21c-.22,0-.44-.02-.67-.05-2.81-.42-4.48-2.64-4.35-5.81,1.49-11.79,4.58-22.69,9.2-32.48C36.99,41.5,65.89,19.09,105.73,11.29c1.69-.33,3.43-.56,5.16-.67.14,0,.28-.01.42-.01,2.64,0,4.63,1.67,4.95,4.16.35,2.67-1.46,4.92-4.4,5.48-1.32.25-2.64.46-3.97.67-2.29.36-4.65.74-6.9,1.33C60.1,32.94,33.66,59.12,22.42,100.06c-.68,2.47-1.08,5.09-1.48,7.63-.21,1.37-.43,2.79-.69,4.18-.5,2.64-2.3,4.35-4.6,4.35Z"/>
      <path class="cls-1" d="M11.62,110.4c1.38-10.93,4.26-21.83,9.11-32.1C37.91,41.86,66.46,19.99,105.92,12.26c1.66-.32,3.35-.54,5.04-.65,2.36-.15,4.05,1.2,4.33,3.29.28,2.11-1.15,3.91-3.6,4.38-3.64.69-7.36,1.08-10.93,2.02C59.19,32.16,32.82,58.44,21.46,99.8c-1.06,3.87-1.44,7.92-2.19,11.88-.45,2.41-2.15,3.8-4.16,3.5-2.23-.33-3.61-2.07-3.5-4.79Z"/>
      <path class="cls-1" d="M111.27,215.99c-.31,0-.62-.03-.93-.08-16.26-2.68-30.74-9.14-43.03-19.19-18.06-14.76-29.19-33.78-33.09-56.51-.56-3.29.87-5.8,3.66-6.4.35-.08.71-.11,1.05-.11,2.41,0,4.29,1.83,4.78,4.65,2.8,16.09,9.51,30.11,19.95,41.68,12.46,13.81,28.1,22.53,46.5,25.93,3.16.58,6.08,1.61,6.12,5.15.01,1.29-.47,2.5-1.37,3.4-.95.96-2.24,1.49-3.65,1.49Z"/>
      <path class="cls-1" d="M115.3,211.11c.03,2.44-2.18,4.25-4.79,3.82-15.84-2.61-30.13-8.81-42.57-18.98-17.81-14.56-28.84-33.17-32.74-55.91-.48-2.77.61-4.77,2.89-5.26,2.25-.48,4.16.96,4.65,3.74,2.78,15.96,9.32,30.12,20.19,42.17,12.69,14.07,28.42,22.8,47.06,26.24,3.8.7,5.29,1.83,5.31,4.18Z"/>
      <path class="cls-1" d="M138.85,215.9c-2.66,0-4.59-1.49-5.06-3.88-.24-1.26-.02-2.45.65-3.42.83-1.21,2.3-2.03,4.24-2.37,15.3-2.69,28.75-8.97,39.98-18.68,14.6-12.62,23.79-28.7,27.32-47.8.04-.19.07-.39.1-.59.12-.72.24-1.46.52-2.18.81-2.1,2.37-3.26,4.4-3.26.27,0,.54.02.83.06,3.38.5,4.09,3.47,4.32,5.66l.02.18-.05.18c-.33,1.27-.65,2.63-.98,4.04-.75,3.22-1.61,6.87-2.87,10.33-12.36,33.88-36.54,54.59-71.86,61.56-.54.11-1.06.16-1.56.16Z"/>
      <path class="cls-1" d="M215.16,139.56c-1.1,4.2-2.04,9.4-3.82,14.29-12.26,33.61-35.96,53.99-71.12,60.92-2.88.57-5.01-.62-5.45-2.94-.45-2.31,1.03-4.09,4.09-4.62,15.19-2.67,28.77-8.81,40.46-18.9,14.88-12.86,24.07-29.02,27.64-48.37.16-.87.26-1.78.57-2.59.72-1.87,2.14-2.87,4.15-2.57,2.12.31,3.16,1.76,3.48,4.78Z"/>
      <path class="cls-1" d="M38.82,116.28c-1.4,0-2.65-.58-3.54-1.63-1.01-1.19-1.42-2.86-1.13-4.58,3.3-19.64,12.12-36.65,26.2-50.56,13.75-13.58,30.47-22.11,49.69-25.35.4-.07.79-.1,1.17-.1,2.54,0,4.49,1.51,4.98,3.84.27,1.27.03,2.54-.67,3.57-.78,1.15-2.08,1.93-3.65,2.2-14.74,2.54-27.73,8.32-38.62,17.2-15.73,12.82-25.57,29.48-29.24,49.52-.46,2.5-1.49,5.84-5.13,5.88h-.06Z"/>
      <path class="cls-1" d="M38.88,115.29c-2.51.03-4.21-2.26-3.74-5.05,3.27-19.46,11.89-36.16,25.92-50.02,13.72-13.55,30.14-21.87,49.16-25.08,2.55-.43,4.55.76,5.02,2.97.46,2.18-.93,4.15-3.52,4.59-14.51,2.5-27.65,8.09-39.08,17.41-16.01,13.05-25.87,29.78-29.59,50.11-.64,3.51-1.89,5.04-4.16,5.07Z"/>
      <path class="cls-1" d="M211.13,116.29c-2.4,0-4.34-1.85-4.82-4.6-2.51-14.39-8.12-27.12-16.69-37.84-12.78-15.98-29.51-26.01-49.71-29.8-.22-.04-.44-.08-.66-.12-.67-.12-1.37-.24-2.06-.45-2.43-.75-3.89-3.1-3.4-5.45.64-3.07,3.04-4,4.78-4.44l.25-.06.25.07c1.8.5,3.66.96,5.45,1.4,3.93.97,7.99,1.97,11.81,3.47,32.87,12.87,52.9,36.98,59.53,71.66.28,1.49,0,2.95-.8,4.1-.74,1.06-1.85,1.77-3.14,1.98-.27.04-.54.07-.8.07Z"/>
      <path class="cls-1" d="M138.82,34.57c5.73,1.59,11.66,2.68,17.17,4.84,32.63,12.77,52.32,36.45,58.91,70.92.47,2.44-.94,4.55-3.13,4.92-2.14.36-4.02-1.1-4.48-3.72-2.47-14.17-7.9-27.04-16.89-38.29-13.01-16.27-29.81-26.31-50.3-30.15-.87-.16-1.76-.28-2.6-.54-1.91-.59-3.11-2.45-2.72-4.3.44-2.08,1.83-3.13,4.05-3.68Z"/>
      <path class="cls-1" d="M150.16,195.74c-2.84-.02-4.78-2.17-4.81-5.35-.02-1.82-.02-3.63-.01-5.45,0-1.81.01-3.63-.01-5.44-.08-6.23-4.61-10.8-10.78-10.86-3.19-.03-6.39-.04-9.59-.04s-6.34.01-9.51.05c-6.16.06-10.69,4.64-10.76,10.88-.02,1.85-.02,3.69-.01,5.54,0,1.7,0,3.4,0,5.1-.03,3.38-1.94,5.56-4.85,5.57-1.34,0-2.5-.46-3.37-1.34-1-1.01-1.51-2.48-1.48-4.24.02-1.3.01-2.6,0-3.9-.02-3.6-.04-7.33.51-10.95,1.39-9.07,9.6-16.11,19.1-16.38,1.31-.04,2.62-.05,3.93-.05,1.09,0,2.17,0,3.26.02.76,0,1.53.01,2.29.01v-.26s1.01.05,1.01.05c1.39.06,2.79.09,4.18.11,3.1.05,6.31.11,9.42.61,8.99,1.45,16.01,9.57,16.34,18.89.13,3.71.09,7.49.05,11.13v1.01c-.05,3.11-2.04,5.29-4.86,5.29h-.05Z"/>
      <path class="cls-1" d="M125.03,159.69c4.5.21,9.07,0,13.49.71,8.68,1.4,15.2,9.16,15.51,17.95.14,4.03.08,8.06.03,12.1-.03,2.64-1.62,4.33-3.89,4.31-2.27-.02-3.8-1.71-3.83-4.37-.04-3.63.02-7.26-.02-10.89-.08-6.8-5-11.78-11.76-11.84-6.37-.06-12.74-.06-19.11,0-6.74.07-11.66,5.07-11.74,11.86-.04,3.55.01,7.1-.02,10.65-.03,2.84-1.53,4.58-3.86,4.59-2.34,0-3.9-1.74-3.86-4.57.07-4.91-.23-9.89.51-14.71,1.34-8.8,9.24-15.29,18.15-15.54,3.46-.1,6.94-.02,10.4-.02v-.22Z"/>
      <path class="cls-1" d="M89.82,106.61c-11.11-.13-20.1-9.32-20.06-20.48.05-11.16,9.2-20.24,20.4-20.24h.14c5.41.04,10.48,2.19,14.3,6.07,3.84,3.9,5.93,9.07,5.88,14.53-.1,11.1-9.26,20.12-20.42,20.12h-.25ZM90.14,75.63c-5.79,0-10.56,4.69-10.64,10.45-.04,2.86,1.05,5.56,3.06,7.62,2,2.04,4.67,3.17,7.5,3.19,5.84,0,10.61-4.69,10.69-10.45.04-2.86-1.05-5.56-3.06-7.62-2-2.04-4.67-3.17-7.5-3.19l-.06-.99v.99Z"/>
      <path class="cls-1" d="M90.3,66.88c10.66.07,19.29,8.89,19.2,19.6-.1,10.65-8.95,19.27-19.66,19.14-10.55-.13-19.12-8.89-19.08-19.48.05-10.67,8.84-19.33,19.54-19.26ZM90.06,97.87c6.33.03,11.6-5.12,11.69-11.43.09-6.45-5.12-11.78-11.55-11.81-6.34-.03-11.6,5.11-11.69,11.42-.09,6.44,5.13,11.78,11.55,11.81Z"/>
      <path class="cls-1" d="M159.66,106.62c-5.39-.05-10.46-2.22-14.27-6.1-3.84-3.92-5.92-9.09-5.86-14.56.12-11.06,9.27-20.07,20.38-20.07,5.5.02,10.59,2.17,14.42,6.04,3.85,3.89,5.95,9.04,5.92,14.49-.07,11.14-9.22,20.2-20.41,20.2h-.19ZM159.9,75.63c-5.78,0-10.55,4.68-10.64,10.42-.04,2.86,1.04,5.57,3.05,7.63,2,2.04,4.66,3.18,7.48,3.2,5.85,0,10.62-4.68,10.72-10.43.05-2.86-1.04-5.57-3.05-7.63-2-2.04-4.66-3.18-7.49-3.2l-.08-.99v.99Z"/>
      <path class="cls-1" d="M179.26,86.41c-.07,10.66-8.89,19.31-19.59,19.21-10.65-.1-19.26-8.94-19.14-19.66.12-10.54,8.87-19.13,19.47-19.08,10.67.04,19.34,8.82,19.27,19.53ZM159.79,97.87c6.34.05,11.61-5.09,11.71-11.4.1-6.45-5.1-11.79-11.52-11.83-6.34-.04-11.62,5.09-11.71,11.4-.1,6.45,5.1,11.79,11.52,11.84Z"/>
      <path class="cls-1" d="M124.84,155.06c-5.4-.04-10.48-2.19-14.3-6.07-3.85-3.91-5.94-9.06-5.89-14.52.1-11.1,9.23-20.13,20.37-20.13,5.46,0,10.56,2.14,14.41,6.01,3.85,3.88,5.97,9.01,5.94,14.46-.04,11.17-9.19,20.26-20.39,20.26h-.14ZM124.91,124.07c-2.83.02-5.49,1.16-7.48,3.21-2.01,2.06-3.09,4.77-3.04,7.63.09,5.74,4.87,10.41,10.64,10.41,5.89-.05,10.61-4.81,10.61-10.62,0-2.83-1.11-5.5-3.13-7.51-2.02-2.01-4.69-3.12-7.52-3.12v-.99l-.08.99Z"/>
      <path class="cls-1" d="M144.38,134.8c-.04,10.66-8.84,19.34-19.53,19.27-10.66-.07-19.3-8.89-19.21-19.6.09-10.55,8.82-19.16,19.41-19.15,10.68.02,19.37,8.77,19.33,19.47ZM125.12,146.32c6.32-.05,11.5-5.28,11.51-11.61,0-6.43-5.29-11.68-11.73-11.63-6.42.05-11.62,5.4-11.51,11.85.1,6.31,5.39,11.44,11.73,11.39Z"/>
      <path class="cls-1" d="M64.85,147.3c-2.84-.05-4.8-2.28-4.76-5.41.02-1.28,0-2.57,0-3.86-.03-3.62-.05-7.37.49-11,1.41-9.33,9.5-16.29,19.25-16.54,1.22-.03,2.43-.04,3.65-.04,1.01,0,2.03,0,3.04.01.72,0,1.43,0,2.15.01h.88s5.81-.02,5.81-.02c1.3,0,2.59,0,3.89.02,3.22.04,5.34,1.9,5.42,4.74.03,1.33-.4,2.5-1.26,3.39-1,1.03-2.46,1.58-4.22,1.59-1.81,0-3.62.01-5.42.01h-7.81c-1.64,0-3.29,0-4.93,0-6.66.03-11.16,4.53-11.21,11.18-.01,1.59,0,3.17,0,4.76,0,1.89,0,3.77-.01,5.66-.03,3.29-1.98,5.51-4.84,5.51h-.1Z"/>
      <path class="cls-1" d="M89.55,111.45c3.23,0,6.46-.03,9.69,0,2.69.03,4.38,1.5,4.44,3.77.06,2.35-1.69,3.94-4.49,3.96-6.06.03-12.11-.01-18.17.02-7.25.03-12.15,4.93-12.2,12.16-.02,3.47.02,6.94-.01,10.41-.03,2.81-1.59,4.57-3.93,4.52-2.26-.04-3.82-1.74-3.79-4.41.06-4.92-.25-9.9.48-14.73,1.35-8.96,9.25-15.46,18.3-15.7,3.23-.08,6.46-.01,9.69-.01,0,0,0,0,0-.01Z"/>
      <path class="cls-1" d="M185.04,147.3c-2.84-.03-4.78-2.18-4.81-5.36-.02-1.8-.02-3.6-.01-5.41,0-1.83.01-3.66-.01-5.49-.08-6.22-4.63-10.78-10.82-10.84-2.21-.02-4.43-.03-6.64-.03h-8.99s-2.53,0-2.53,0c-3.63,0-5.83-1.8-5.87-4.8-.02-1.32.41-2.47,1.25-3.32,1.02-1.04,2.57-1.59,4.51-1.61,1.23,0,2.47-.01,3.7-.01h5.04s0-.04,0-.04l1-.14c1.29.06,2.6.09,3.9.11,2.88.05,5.86.11,8.76.59,9.23,1.52,16.13,9.56,16.4,19.13.11,4.05.07,8.22.02,11.91-.04,3.12-2.03,5.3-4.85,5.3h-.05Z"/>
      <path class="cls-1" d="M160.81,111.25c4.18.2,8.43.01,12.54.69,8.81,1.45,15.31,9.25,15.57,18.18.11,3.95.07,7.91.02,11.87-.03,2.64-1.62,4.34-3.89,4.32-2.27-.02-3.8-1.71-3.83-4.38-.04-3.63.02-7.27-.02-10.9-.09-6.8-5.02-11.76-11.8-11.82-6.05-.06-12.11,0-18.17-.02-3.08,0-4.84-1.41-4.88-3.82-.04-2.42,1.74-3.9,4.77-3.92,3.23-.02,6.46,0,9.69,0,0-.06,0-.13,0-.19Z"/>
      <path class="cls-1" d="M210.74,129.88c-3.06,0-6.12,0-9.19,0-3.59,0-5.82-1.87-5.82-4.86,0-3,2.23-4.86,5.81-4.86,7.1,0,14.21,0,21.31,0s14.21,0,21.31,0c3.59,0,5.82,1.86,5.82,4.86,0,2.99-2.23,4.86-5.82,4.87-3.13,0-6.27,0-9.4,0h-24.04Z"/>
      <path class="cls-1" d="M222.62,128.89c-7.02,0-14.05.01-21.07,0-3.05,0-4.83-1.45-4.83-3.87,0-2.42,1.77-3.87,4.82-3.87,14.21-.01,28.42-.01,42.63,0,3.06,0,4.83,1.45,4.83,3.87,0,2.41-1.78,3.87-4.83,3.87-7.19.02-14.37,0-21.56,0Z"/>
      <path class="cls-1" d="M125.01,250c-2.99,0-4.85-2.23-4.86-5.82-.01-5.11,0-10.21,0-15.32v-12.33c0-4.99,0-9.98,0-14.97,0-3.59,1.87-5.82,4.86-5.82,3,0,4.86,2.23,4.87,5.82.01,14.21.01,28.42,0,42.63,0,3.59-1.87,5.82-4.86,5.82h0Z"/>
      <path class="cls-1" d="M121.13,222.63c0-7.02-.01-14.05,0-21.07,0-3.06,1.45-4.83,3.87-4.83,2.42,0,3.87,1.77,3.87,4.82.01,14.21.01,28.42,0,42.63,0,3.05-1.46,4.83-3.87,4.83-2.41,0-3.86-1.78-3.87-4.83-.02-7.19,0-14.37,0-21.56Z"/>
    </g>
  </g>
</svg>