<?xml version="1.0" encoding="UTF-8"?>
<svg id="Layer_2" data-name="Layer 2" xmlns="http://www.w3.org/2000/svg" viewBox="0 0 229.63 250">
  <defs>
    <style>
      .cls-1 {
        fill: #a79ba7;
      }

      .cls-1, .cls-2, .cls-3, .cls-4, .cls-5, .cls-6, .cls-7, .cls-8, .cls-9, .cls-10, .cls-11, .cls-12, .cls-13, .cls-14, .cls-15, .cls-16, .cls-17, .cls-18, .cls-19, .cls-20, .cls-21, .cls-22 {
        stroke-width: 0px;
      }

      .cls-2 {
        fill: #687a90;
      }

      .cls-3 {
        fill: #8191a4;
      }

      .cls-4 {
        fill: #544854;
      }

      .cls-5 {
        fill: #e2a66f;
      }

      .cls-6 {
        fill: #695f69;
      }

      .cls-7 {
        fill: #f0cabb;
      }

      .cls-8 {
        fill: #b1b1b5;
      }

      .cls-9 {
        fill: #f5dbcc;
      }

      .cls-10 {
        fill: #fecf64;
      }

      .cls-11 {
        fill: #fee077;
      }

      .cls-12 {
        fill: #a69aa6;
      }

      .cls-13 {
        fill: #a69ba6;
      }

      .cls-14 {
        fill: #685e68;
      }

      .cls-15 {
        fill: #fd646f;
      }

      .cls-16 {
        fill: #b5733e;
      }

      .cls-17 {
        fill: #c38958;
      }

      .cls-18 {
        fill: #ebeef0;
      }

      .cls-19 {
        fill: #fc4855;
      }

      .cls-20 {
        fill: #697c91;
      }

      .cls-21 {
        fill: #d0d0d5;
      }

      .cls-22 {
        fill: #fc4755;
      }
    </style>
  </defs>
  <g id="Layer_1-2" data-name="Layer 1">
    <g>
      <path class="cls-18" d="M229.19,25.01c.67.84.38,1.84.38,2.76.01,56.98.01,113.95.01,170.93,0,3.74-1.19,4.91-4.98,4.91-13.62,0-27.23,0-40.85-.01.16-1.69,1.69-2.06,2.78-2.76,3.27-2.12,6.77-3.87,9.91-6.19,4.57-3.38,5.32-10.38,1.56-14.52-3.07-3.38-7.05-3.31-11.09-2.61-4.16.73-7.86,2.7-11.47,4.76-11.12,6.37-22.22,12.77-33.22,19.34-4.71,2.82-9.69,3.52-14.97,3.12-.87-.07-2.42.15-1.59-1.69,2.38-1.29,5.03-2.25,6.16-5.07,2.16-6.61-.35-11.35-7.11-12.93-5.82-1.36-11.59-2.88-17.25-4.81-4.39-1.6-8.82-3.09-13.2-4.74-2.6-.98-5.28-1.67-8.06-1.92-.95-.09-1.94-.14-2.4-1.21-.36-1-.34-2.05-.34-3.08-.01-20.58,0-41.17,0-61.75,0-1.21-.06-2.43.48-3.56,1.32-1.54,2.86-.61,4.28-.27,2.97.71,3,.72,2.26-2.2-.17-.67-.37-1.32-.58-1.98-1.6-5.03-2.68-10.2-4.25-15.24-.65-1.3-1.94-2.27-2.05-3.87-.17-1.12-.16-2.25-.16-3.37,0-24.16,0-48.33.01-72.49,0-1.53-.3-3.15.81-4.49,39.29,0,78.58-.02,117.88-.01.83,0,1.76-.29,2.44.52.83,1.22.82,2.61.82,4.01,0,5.46-.04,10.92.02,16.37.03,3.31.47,3.75,3.78,3.78,5.37.04,10.74.02,16.12,0,1.3,0,2.59.05,3.88.29Z"/>
      <path class="cls-9" d="M107.72,179.69c5.93,1.82,11.91,3.45,17.96,4.88,6.69,1.58,9.53,7.96,6.53,13.84-1.08.86-2.16.23-3.21-.04-8.57-2.2-17.06-4.64-25.64-6.82-.76-.19-1.51-.41-2.28-.5-1.72-.19-2.91.56-3.32,2.21-.39,1.59.46,2.65,1.88,3.28.48.21.98.36,1.48.5,6.17,1.76,12.4,3.29,18.58,5.01,1.1.31,2.23.3,3.35.34,1.02.04,2.11-.16,2.93.71-.55,1.58.73.94,1.31,1.02,6.85.93,12.57-1.78,18.29-5.17,11.44-6.79,22.76-13.78,34.63-19.83,3.42-1.74,7.04-2.73,10.97-2.62,4.64.14,8.12,2.56,9.56,6.94,1.36,4.15-.36,9.33-3.89,11.81-4.24,2.98-9.01,5.12-13.08,8.34-5.27,2.61-10.05,6.03-15.06,9.07-11.52,7-22.93,14.17-34.48,21.11-4.91,2.96-10.41,3.79-15.95,2.36-14.78-3.8-29.51-7.79-44.24-11.78-1.36-.37-2.39-.42-3.61.44-2.45,1.72-5.52,2.48-7.55,4.87-.37.02-.7-.1-.89-.4-3.37-5.46-6.71-10.94-9.35-16.81-.03-1.62,1.27-2.15,2.37-2.78,11.01-6.36,22.03-12.69,33.03-19.07,5.31-3.08,10.67-6.08,15.96-9.2,1.18-.7,2.31-1.53,3.73-1.73Z"/>
      <path class="cls-5" d="M84.24,81.35c.68.83,1.36,1.67,2.04,2.5-.89,2.27-2.95,3.53-4.51,5.22-1.51,1.64-3.13,3.19-4.73,4.75-.74.72-1.45,1.5-2.64,1.39-1.19-.26-1.89-1.18-2.68-1.97-19.57-19.56-39.14-39.12-58.7-58.69-2.57-2.57-2.58-2.91-.04-5.43,3.13-3.11,6.18-6.32,9.4-9.33,15.98,15.95,31.95,31.9,47.94,47.84.79.79,1.67,1.49,2.5,2.23,2.91,1.52,4.74,4.24,7.04,6.43,1.61,1.53,3.52,2.87,4.38,5.07Z"/>
      <path class="cls-7" d="M107.72,179.69c-5.06,3.65-10.65,6.41-16.01,9.54-12.33,7.18-24.7,14.28-37.05,21.4-.76.44-1.59.77-1.59,1.84-.65.19-.98-.27-1.23-.7-3.03-5.35-6.07-10.7-9.06-16.07-.25-.45-.41-.96-.08-1.47,10.05-5.89,20.1-11.78,30.15-17.66,3.44-2.43,7.02-4.44,11.48-3.67,6.8-.28,12.59,3.21,18.83,5.05,1.56.46,3.05,1.16,4.58,1.75Z"/>
      <path class="cls-21" d="M63.49,244.76c-2.86,1.59-5.67,3.29-8.6,4.74-2.56,1.26-5.1.12-6.84-2.92-3.22-5.62-6.36-11.29-9.55-16.93-5.62-9.92-11.21-19.86-16.92-29.73-2.94-5.09-2.35-7.38,2.89-10.14,2.98-1.57,5.9-3.23,8.85-4.85,3.28,4.8,5.86,10,8.73,15.04,7.17,12.56,14.25,25.17,21.39,37.75,1.39,2.44,1.6,4.68.05,7.04Z"/>
      <path class="cls-21" d="M84.24,81.35c-3.92-3.72-7.83-7.45-11.42-11.5,0-21.59,0-43.18,0-64.78,0-3.65,1.34-5.01,4.95-5.03,2.17-.01,4.34.01,6.5.02-.01,27.1-.03,54.19-.04,81.29Z"/>
      <path class="cls-21" d="M84.31,172.88c-4.11.32-7.7,2.29-11.48,3.67.01-25.35.02-50.7.03-76.05.38-.42.9-.58,1.4-.46,3.33.78,6.68,1.52,9.93,2.61.41.14.71.47.66.98-.88.75-.53,1.77-.54,2.68-.02,22.19,0,44.38,0,66.57Z"/>
      <path class="cls-17" d="M22.38,19.77c0,1.1-.85,1.66-1.51,2.32-2.69,2.71-5.33,5.46-8.11,8.06-1.35,1.26-1.26,2.05.02,3.31,6.43,6.31,12.77,12.72,19.15,19.09,13.42,13.42,26.84,26.84,40.27,40.25.73.73,1.54,1.38,2.32,2.06.1.23.09.46,0,.7-1.23,1.44-2.33,3.02-4.17,3.79-.65-.55-1.35-1.06-1.95-1.66C47.92,77.26,27.47,56.83,7.02,36.38c-.12-.12-.19-.28-.28-.43,3.08-3.95,3.18-4.03.03-7.84-2.74-3.32-3.35-6.9-2.16-10.92,4.11-4.74,10.1-5.07,14.54-.78,1.11,1.08,2.16,2.23,3.23,3.35Z"/>
      <path class="cls-12" d="M229.19,25.01c-.68.79-1.61.51-2.44.51-6.24.02-12.48.02-18.71,0-3.08,0-3.53-.42-3.53-3.4,0-7.19.05-14.38.08-21.57,3.76,3.06,6.95,6.7,10.38,10.09,4.79,4.73,9.48,9.56,14.22,14.35Z"/>
      <path class="cls-8" d="M63.49,244.76c1.44-3.75-.54-6.68-2.27-9.72-6.62-11.62-13.19-23.27-19.79-34.9-2.51-4.43-5-8.87-7.54-13.28-.36-.62-.68-1.19-.58-1.92,2.74-.35,4.64.85,5.94,3.2,1.13,2.04,2.28,4.06,3.43,6.08,3.46,6.08,6.92,12.16,10.37,18.24,3.27,5.74,6.54,11.48,9.81,17.23,1.06,1.96,2.07,3.94,3.18,5.87,2.56,4.44,1.96,6.68-2.56,9.2Z"/>
      <path class="cls-4" d="M70.33,99.36c1.28-1.44,2.56-2.88,4.13-4.02,2.79-.74,14.04,2.17,16,4.15.55,1.8,1.09,3.6,1.7,5.59-2.68.2-4.85-1.41-7.31-1.44-3.93-1.29-7.9-2.45-11.99-3.13-.65-.81-1.9-.29-2.53-1.14Z"/>
      <path class="cls-16" d="M4.6,17.2c.39.27.6.65.45,1.1-1.41,4.33.5,7.61,3.26,10.69.87.97,2.91,1.85,2.2,3.06-.86,1.47-1.64,3.49-3.78,3.91-.88-.82-1.78-1.61-2.63-2.46-5.63-5.63-5.46-11,.5-16.3Z"/>
      <path class="cls-11" d="M170.17,88.58c-5.02-2.64-9.85-5.64-15.01-8.04-6.51-3.03-13.29-5.16-20.31-6.58-.67-.55-.81-1.33-.81-2.11,0-8.57-.32-17.14.16-25.71.33-1.25,1.29-1.72,2.45-2.01,10.08-2.5,19.22-7.17,28.15-12.31,1.2-.69,2.38-1.41,3.67-1.92.89-.35,1.86-.76,2.32.62.32,1.11.27,2.24.27,3.37,0,16.83.01,33.67-.01,50.5,0,1.44.31,2.99-.88,4.19Z"/>
      <path class="cls-15" d="M170.17,88.58c0-19.61-.02-39.22-.03-58.83-.13-.28-.1-.55.08-.79,1.93-1.63,4.16-2.78,6.49-3.67,2.92-1.11,5.34-.27,6.6,2.29,0-1.45-.68-2.77.52-3.72.87,1.72.37,3.56.39,5.34.06,5.97.04,11.95.05,17.92.81.78.68,1.8.74,2.78.15,4.8.05,9.59.06,14.39,0,1.03-.03,2.07-.79,2.9-.03,6.4-.11,12.79-.07,19.19.01,2.57-.4,4.86-2.82,6.24-2.36,1.34-4.48.53-6.51-.89-1.55-1.08-3.15-2.1-4.72-3.15Z"/>
      <path class="cls-15" d="M134.89,45.31c-.01,9.55-.02,19.09-.03,28.64,0,0-.11.06-.11.06-.65.64-1.48.66-2.31.7-3.43-.13-6.91.74-10.26-.65-3.24-.34-6.53.29-9.75-.61-6.84-1.91-12.12-8.28-12.42-15.13,1.12-8.54,10.67-14.36,17.7-13.78,4.48.37,9.02.06,13.53.08,1.12,0,2.26-.13,3.33.39.11.1.22.2.33.3Z"/>
      <path class="cls-13" d="M151.39,122.87c14.66,0,29.32,0,43.98,0,.78,0,1.56-.03,2.34.01,2.39.12,4.08,1.63,4.23,3.75.14,1.96-1.52,4.06-3.63,4.47-.76.15-1.55.09-2.33.1-29.84,0-59.69,0-89.53,0-.69,0-1.4.05-2.08-.05-2.13-.33-3.94-2.38-3.85-4.28.1-2.33,1.73-3.88,4.28-3.97,1.82-.06,3.64-.02,5.46-.02,13.71,0,27.41,0,41.12,0Z"/>
      <path class="cls-13" d="M151.13,168.27c-14.66,0-29.32,0-43.98,0-.78,0-1.56.02-2.34-.01-2.45-.11-3.98-1.46-4.25-3.72-.23-1.9,1.43-4.04,3.57-4.49.75-.16,1.55-.11,2.33-.11,29.84,0,59.69,0,89.53,0,.78,0,1.58-.05,2.33.1,2.12.42,3.77,2.5,3.63,4.46-.15,2.13-1.82,3.64-4.23,3.75-1.13.05-2.26.02-3.38.02-14.4,0-28.8,0-43.2,0Z"/>
      <path class="cls-1" d="M151.36,141.58c15.36,0,30.71.03,46.07-.02,2.38,0,3.84,1.06,4.41,3.21.51,1.91-.44,3.46-2.06,4.38-1.37.77-2.98.77-4.56.77-21.78-.01-43.55,0-65.33,0-7.55,0-15.1.01-22.64-.02-1.12,0-2.25-.14-3.34-.35-2.31-.45-3.4-2.03-3.35-4.27.04-2.13,1.86-3.66,4.22-3.67,8.33-.04,16.66-.02,24.99-.02,7.2,0,14.4,0,21.6,0Z"/>
      <path class="cls-3" d="M122.18,74.06c3.52,0,7.04,0,10.56,0,1.05,1.16.78,2.6.81,3.95.16,8.9-.28,17.8.26,26.7-5.51,1.57-11.43-2.74-11.54-8.56-.13-7.36-.07-14.72-.09-22.09Z"/>
      <path class="cls-7" d="M125.98,203.11c-6.93.55-13.15-2.53-19.7-3.91-2.36-.5-4.68-1.2-6.98-1.95-1.99-.66-3-2.72-2.42-4.55.56-1.75,2.64-2.88,4.56-2.37,9.75,2.6,19.5,5.22,29.25,7.83.5.13,1.02.17,1.52.25-1.14,2.8-3.3,4.27-6.23,4.7Z"/>
      <path class="cls-10" d="M170.29,29.18c-.05.19-.1.38-.14.57-7.21,3.67-14.06,8.01-21.58,11.09-4.46,1.83-9.01,3.31-13.67,4.47,0,0-.22.04-.22.04-.91-1.77-.95-3.52.11-5.24,12.21-3.01,23.21-8.72,33.95-15.04.44-.26.94-.41,1.42-.61,1.24,1.54,1.06,3.12.14,4.72Z"/>
      <path class="cls-22" d="M134.78,40.11c-.04,1.75-.07,3.5-.11,5.24-5.96,0-11.92-.01-17.88-.01-6.84,0-13.16,4.31-15.67,10.7-.31.8-.42,1.68-1.11,2.28-1.28-9.39,7.12-18.46,16.56-18.28,6.07.12,12.15.05,18.22.07Z"/>
      <path class="cls-3" d="M184.3,67.18c0-5.9,0-11.8.01-17.7,2.76-.82,6.5.69,8.49,3.43.44.61.58,1.46,1.37,1.8,2.13,6.04-2.93,12.43-9.88,12.48Z"/>
      <path class="cls-11" d="M200.54,69.83c2.52-.08,9.35,6.77,9.24,9.28-.13,3.11-3.56,5.14-6.19,3.45-2.62-1.69-4.89-3.93-6.55-6.57-1.65-2.61.43-6.07,3.5-6.17Z"/>
      <path class="cls-11" d="M201.65,44.32c-1.86-.08-3.16-.79-3.92-2.33-.76-1.54-.69-3.13.42-4.37,1.78-1.99,3.69-3.89,5.69-5.66,1.63-1.44,3.5-1.36,5.19.02,1.64,1.34,1.95,3.35,1,4.93-1.74,2.88-4.2,5.22-7.05,7.07-.41.26-.98.27-1.32.35Z"/>
      <path class="cls-14" d="M90.46,99.49c-5.26-1.67-10.53-3.28-16-4.15,0-.16.01-.32.05-.47,3.08-1.95,5.18-4.94,7.84-7.34,1.33-1.2,2.62-2.45,3.93-3.68,1.4,5.21,2.79,10.42,4.19,15.63Z"/>
      <path class="cls-11" d="M211.13,61.44c-1.24-.1-3.08.35-4.81-.58-1.77-.94-2.51-2.39-2.19-4.29.32-1.89,1.52-3.23,3.46-3.36,2.77-.18,5.57-.26,8.32,0,2.1.2,3.32,1.68,3.33,3.95.01,2.29-1.38,4-3.67,4.25-1.29.14-2.6.02-4.45.02Z"/>
      <path class="cls-19" d="M170.29,29.18c-.05-1.57-.09-3.15-.14-4.72,2.02-1.63,4.32-2.83,6.63-3.94,3.05-1.46,5.87-.04,7.07,3.34,0,1.25,0,2.51,0,4-3.05-2.78-4.83-2.94-8.34-1.34-1.78.82-3.22,2.29-5.22,2.66Z"/>
      <path class="cls-20" d="M133.8,104.71c-1.58-.3-1.05-1.57-1.05-2.49-.03-9.39-.02-18.77-.01-28.16.67-.02,1.34-.03,2.01-.05.02,9.51.04,19.02.06,28.53,0,.89-.02,1.75-1.01,2.17Z"/>
      <path class="cls-2" d="M194.18,54.7c-.66.16-.81.15-1.09-.33-1.99-3.32-5.07-4.67-8.77-4.9,0-.79-.01-1.58-.02-2.36,5.63.58,8.69,2.94,9.89,7.59Z"/>
      <path class="cls-6" d="M32.47,201.57c-1.62-.15-2.83-1.12-2.93-3.2-.09-1.96,1.4-3.63,3.27-3.53,1.99.11,3.19,1.28,3.42,3.23.21,1.78-1.53,3.47-3.76,3.5Z"/>
    </g>
  </g>
</svg>