<?xml version="1.0" encoding="UTF-8"?>
<svg id="Layer_2" data-name="Layer 2" xmlns="http://www.w3.org/2000/svg" viewBox="0 0 249.95 250">
  <defs>
    <style>
      .cls-1 {
        fill: #83b1c5;
      }

      .cls-1, .cls-2, .cls-3, .cls-4, .cls-5, .cls-6, .cls-7, .cls-8, .cls-9, .cls-10 {
        stroke-width: 0px;
      }

      .cls-2 {
        fill: #fe491f;
      }

      .cls-3 {
        fill: #fefefe;
      }

      .cls-4 {
        fill: #3c3f4d;
      }

      .cls-5 {
        fill: #1f81a2;
      }

      .cls-6 {
        fill: #1f80a2;
      }

      .cls-7 {
        fill: #fee04d;
      }

      .cls-8 {
        fill: #2d303b;
      }

      .cls-9 {
        fill: #c3e1f1;
      }

      .cls-10 {
        fill: #2c91be;
      }
    </style>
  </defs>
  <g id="Layer_1-2" data-name="Layer 1">
    <g>
      <path class="cls-9" d="M.07,153.63c-.01-31.14-.03-62.28-.04-93.42,0-13.7-.03-27.39.01-41.09.02-5.38,2.61-9.61,6.35-13.22C11.06,1.39,16.83,0,23.15,0c68.22.03,136.45.02,204.67.02,10.02,0,18.7,6.13,21.29,16,.49,1.87.83,3.79.83,5.76,0,44.1-.01,88.2-.01,132.31-.63.59-1.43.75-2.25.76-6.15.05-12.31.09-18.46-.02-.57,0-1.13-.13-1.64-.4-1.13-.79-1.23-2.02-1.35-3.24-.82-7.75-1.58-15.51-2.39-23.26-.2-1.91-1.01-2.48-2.78-2.45-4.3.06-8.61.03-12.91.01-1.13,0-2.28.09-3.37-.35-1.17-.75-.96-1.98-.97-3.08-.05-3.5-.02-7-.02-10.5-.01-14.23-9.83-26.67-23.55-29.83-14.09-3.25-28.1,3.38-34.54,16.27-2.15,4.31-3.32,8.79-3.18,13.63.1,3.5.05,7,0,10.5-.02,1.1.18,2.34-1.05,3.05-2.88.69-5.81.29-8.71.33-3.64.05-7.29.1-10.94-.03-6.95.21-5.62-.38-6.37,5.94-.75,6.3-1.28,12.63-2.04,18.93-.46,3.8-.62,3.95-4.59,3.95-21.32,0-42.65,0-63.97,0-13.75,0-27.51,0-41.26-.01-1.2,0-2.47.25-3.51-.65Z"/>
      <path class="cls-2" d="M121.9,124.79c6.62.02,13.23.03,19.85.05.99.78.78,1.9.81,2.93.07,2.93-.1,5.86.08,8.78.13,2.19,1.42,3.51,3.11,3.28,1.99-.27,2.63-1.72,2.69-3.5.1-2.93,0-5.85.06-8.78.02-1.11-.15-2.32.92-3.14,1.07-.53,2.22-.44,3.36-.44,13.35-.01,26.69,0,40.04,0,.57,0,1.14.03,1.71.04,1.9.04,2.76.97,2.81,2.9.07,3.17-.24,6.34.22,9.5.18.62.24,1.28.55,1.86.65,1.2,1.66,1.81,3.01,1.58,1.67-.28,2.52-1.41,2.61-3.06.16-3,.01-6,.08-9.01.02-1.02-.21-2.14.73-2.96,6.03-.03,12.05,0,18.08-.12,1.65-.03,1.79.79,1.91,2.06.81,8.42,1.68,16.84,2.54,25.26.07.64.26,1.27.4,1.91,1.35,2.86,1.17,6,1.51,9.01.47,4.25,1.06,8.5,1.29,12.78.04.8.23,1.62-.33,2.33.71,7.29,1.39,14.58,2.14,21.86,1.37,13.36,2.79,26.71,4.19,40.06.29,2.75.57,5.5.9,8.25.13,1.11.15,1.79-1.39,1.79-20.85-.08-41.7-.09-62.54-.11-1.17-1.44-1.06-3.22-1.23-4.89-1.2-11.67-2.51-23.33-3.72-35-1.37-13.21-2.87-26.4-4.19-39.62-.08-.81-.19-1.62-.33-2.42-.22-1.25-.95-1.8-2.19-1.83-1.47-.03-2.93-.02-4.4-.03-11.74,0-23.47,0-35.21,0-1.29,0-2.62.15-3.85-.42-.27-.16-.46-.38-.6-.66-.71-2.58.28-5.08.37-7.62.04-1.11.27-2.22.32-3.35.97-8.85,1.78-17.72,2.81-26.56.11-.95.07-1.97.91-2.68Z"/>
      <path class="cls-7" d="M117.81,165.2c14.49.03,28.99.11,43.48.05,2.15,0,3.09.33,3.3,2.74.75,8.49,1.78,16.96,2.7,25.43.93,8.56,1.87,17.11,2.78,25.67.89,8.4,1.74,16.8,2.6,25.21.19,1.86.36,3.72.54,5.58-5.94.03-11.87.07-17.81.08-22.94,0-45.88-.02-68.81.04-2.07,0-2.55-.43-2.26-2.6.77-5.7,1.18-11.46,1.74-17.19-.89-2.68.04-5.3.3-7.92,1.44-14.47,3.03-28.93,4.61-43.4.38-3.88.77-7.75,1.21-11.62.2-1.77,1.05-2.64,2.82-2.67,7.15-.11,14.3-.03,21.44.1.5,0,.96.17,1.35.49Z"/>
      <path class="cls-4" d="M117.81,165.2c-7.41.03-14.82.12-22.22.03-1.98-.02-2.6.5-2.73,2.53-.23,3.8-.86,7.57-1.33,11.36-2.64-.51-5.32-.32-7.98-.33-.8,0-1.62.2-2.37-.24-.84-.78-1.86-.39-2.79-.39-18.64-.03-37.29-.03-55.93-.02-9.39,0-16.36-3.99-20.77-12.37-1.96-3.72-1.74-7.69-1.59-11.67.84-.47,1.76-.23,2.63-.24,36.14-.01,72.28-.01,108.41-.01,1.38.6,1.06,1.87,1.05,2.93-.01,1.61-.31,3.21-.49,4.81-.21,1.89.34,2.69,2.33,2.57,1.24-.08,2.61-.32,3.7.67.04.12.07.24.08.36Z"/>
      <path class="cls-8" d="M81.18,178.55c3.13-.99,6.33-.32,9.5-.42.58-.02.73.53.86,1-.88,8.81-1.74,17.61-2.64,26.42-.75,7.27-1.54,14.53-2.34,21.8-.11.97-.32,1.92-.48,2.88-13.1,0-26.19-.03-39.29.04-1.76,0-2.42-.34-2.33-2.25.17-3.89-.26-7.83,1.57-11.48,3.16-6.3,8.36-9.27,15.31-9.34,3.58-.04,7.16-.13,10.74.02,1.75.08,2.37-.53,2.74-2.15,1.93-8.47,3.96-16.91,5.97-25.36.09-.39.27-.76.41-1.14Z"/>
      <path class="cls-4" d="M229.92,178.03c-1.01-8.02-1.95-16.05-2.47-24.12,7.49.06,14.99.12,22.48.17.29,9.77-3.46,17.29-12.33,21.88-2.39,1.23-4.98,1.9-7.68,2.07Z"/>
      <path class="cls-1" d="M111.54,154.12c-8.31-.02-16.62-.06-24.93-.06-28.84,0-57.68.03-86.52.05-.06-.16-.07-.31-.02-.47,35.98-.01,71.96-.03,107.94-.04.81,0,1.63-.07,2.44.01,1.59.16,1.98-.51,2.12-2.08.66-7.17,1.49-14.33,2.32-21.48.19-1.67-.66-3.92.81-4.87,1.74-1.13,4.11-.31,6.21-.37-1.03,9.71-2.06,19.42-3.09,29.13-2.38,1.52-4.82,1.26-7.27.19Z"/>
      <path class="cls-10" d="M115.34,73.9c-.63,5.39-1.22,10.78-1.92,16.16-.71,5.46-1.46,10.92-2.32,16.36-1.16,7.33-5.04,11.23-12.32,11.3-12.53.12-25.07.54-37.6-.28-5.82-1.29-8.39-5.36-9.21-10.87-1-6.67-1.79-13.37-2.65-20.05-.34-2.68-.24-5.36,1.33-7.77,1.81-2.76,4.23-4.5,7.6-4.55,2.18-.03,4.39-.31,6.55.27.88.45,1.06,1.37,1.46,2.15,1.57,3.01,3.88,4.92,7.44,4.94,3.47.02,5.74-1.8,7.28-4.75.47-.9.63-2.06,1.8-2.46,1.19-.34,2.42-.25,3.63-.26,9.64-.1,19.28.2,28.92-.19Z"/>
      <path class="cls-6" d="M65.01,74.87c-1.55,0-3.12.16-4.64-.05-6.29-.83-11.43,3.87-10.43,11.57.88,6.81,1.97,13.59,2.82,20.41.61,4.91,3.12,8.21,7.67,10.04.28.11.5.39.74.6-4.23.03-8.46.12-12.69.07-6.89-.09-11.43-4.46-12.29-11.35-1.67-13.3-3.52-26.57-5.2-39.86-.18-1.43-.78-1.9-2.03-2.16-2.59-.55-3.84-2.35-3.99-4.87-.13-2.19-.12-4.4,0-6.59.15-2.71,1.61-4.22,4.3-4.78,5.84-.4,11.68-.07,17.52-.19,1.28-.03,1.45.66.86,1.5-2.22,3.18-1.38,6.75-1.32,10.18.05,2.58,1.92,4.2,4.97,4.35,4.13.2,8.28.32,12.42-.11.54-.06,1.11-.39,1.59.17.69,3.71,1.17,7.42-.31,11.07Z"/>
      <path class="cls-3" d="M149.3,124.85c0,3.82.05,7.64,0,11.45-.04,2.75-1.55,4.48-3.78,4.47-2.23,0-3.73-1.71-3.77-4.48-.05-3.82,0-7.64,0-11.46.03-4.81.08-9.61.1-14.42.07-14.41,12.03-27.56,26.3-29.8,16.97-2.65,33.82,8.83,36.16,27.32.7,5.54.17,11.23.21,16.85,0,3.96.04,7.92-.04,11.88-.05,2.4-1.55,3.99-3.63,4.08-2.01.09-3.46-1.36-3.81-3.81.22-8.82-1.64-17.56-1.09-26.39.13-2.06-.29-4.03-.96-5.98-3.6-10.57-13.3-16.79-24.68-15.78-10.04.89-18.47,9.42-20.01,20.07-.61,4.22-.28,8.45-.41,12.67-.03,1.13.12,2.29-.58,3.31Z"/>
      <path class="cls-4" d="M65.01,74.87c0-3.75-.01-7.5-.02-11.25-.13-.3-.09.12-.14-.19-.85-5.34-1.07-10.67.1-16,.03-4.88.03-9.76.08-14.63.05-5.36,3.67-9.22,8.62-9.24,4.93-.02,8.58,3.81,8.65,9.2.07,4.88.04,9.76.06,14.64.55.87.51,1.86.51,2.83-.04,6.97.06,13.94.1,20.91,0,1.28.17,2.62-.72,3.74-1.02,4.42-3.97,7.17-7.85,7.33-4.8.19-7.7-2.07-9.4-7.33Z"/>
      <path class="cls-10" d="M82.7,47.51c11.28-.01,22.57-.05,33.85-.03,3.6,0,5.79,2.11,6.12,5.85.15,1.77.16,3.58,0,5.35-.33,3.73-2.13,5.39-6.12,5.93-.97.74-2.11.76-3.26.76-9.09.01-18.19.03-27.28,0-3.42-.01-3.63-.21-3.56-3.55.1-4.77-.33-9.55.24-14.32Z"/>
      <path class="cls-4" d="M204.46,60.67c-8.39,0-16.78,0-25.17,0-.81,0-1.66.03-2.42-.19-1.74-.51-2.74-1.72-2.76-3.58-.02-1.85.89-3.13,2.68-3.59,1.01-.26,2.09-.32,3.14-.32,16.29-.02,32.59-.01,48.88-.01.49,0,.98-.02,1.47,0,2.77.15,4.48,1.61,4.5,3.82.02,2.35-1.74,3.87-4.65,3.87-8.55.02-17.11,0-25.66,0Z"/>
      <path class="cls-4" d="M204.61,35.17c8.23,0,16.45,0,24.68,0,.73,0,1.48-.04,2.19.07,2.06.33,3.24,1.64,3.24,3.67,0,1.99-1.06,3.39-3.16,3.71-.72.11-1.46.11-2.19.11-16.61,0-33.23,0-49.84,0-.73,0-1.47,0-2.19-.1-2.06-.31-3.16-1.57-3.23-3.63-.07-1.99,1.34-3.55,3.39-3.76,1.05-.11,2.11-.06,3.17-.06,7.98,0,15.96,0,23.94,0Z"/>
      <path class="cls-5" d="M82.7,47.51c0,4.88.07,9.75-.05,14.63-.05,1.9.49,2.51,2.45,2.49,10.48-.08,20.97-.02,31.45,0-.4,3.09-.8,6.19-1.21,9.28-.65,1.15-1.76.95-2.8.95-10.09,0-20.18.02-30.27.02.04-9.16.07-18.32.11-27.49.13-.02.24.02.33.12Z"/>
      <path class="cls-10" d="M64.96,47.43c.01,5.4.03,10.79.04,16.19-.61.96-1.55.99-2.56.98-3.41-.04-6.83,0-10.24-.02-4.68-.02-6.68-2.01-6.69-6.6,0-1.22,0-2.44,0-3.66q0-3.41,2.45-6.42c-6.48,0-12.58,0-18.68,0,.86-.67,1.87-.4,2.82-.4,10.95-.04,21.9-.05,32.85-.07Z"/>
      <path class="cls-2" d="M152.64,60.67c-2.53,0-5.05.05-7.58-.01-2.5-.06-4.06-1.42-4.19-3.54-.14-2.26,1.29-4.01,3.89-4.08,5.37-.15,10.75-.14,16.12,0,2.36.06,3.96,1.9,3.89,3.9-.08,2.18-1.75,3.67-4.32,3.72-2.61.05-5.21.01-7.82.01Z"/>
      <path class="cls-2" d="M153.11,35.18c2.44,0,4.89-.04,7.33,0,2.6.05,4.27,1.5,4.34,3.66.07,2.17-1.58,3.83-4.12,3.86-5.29.07-10.59.08-15.88,0-2.45-.04-3.93-1.59-3.93-3.75,0-2.16,1.53-3.68,3.95-3.75,2.77-.08,5.54-.02,8.31-.02Z"/>
      <path class="cls-9" d="M149.3,124.85c.04-6.88-.68-13.76,1.3-20.57,2.51-8.64,12.04-15.99,21.01-16.28,6.89-.23,12.9,1.78,17.79,6.44,4.25,4.06,7.27,9.1,7.19,15.21-.12,9.11.88,18.19.46,27.3-.5-3.47-.11-6.96-.2-10.44-.03-1.07-.03-1.84-1.5-1.83-15.34.09-30.69.12-46.03.17Z"/>
      <path class="cls-8" d="M111.54,154.12c2.42-.06,4.85-.13,7.27-.19-.36,3.64-.73,7.28-1.09,10.91-.57,0-1.14,0-1.71,0-5.82,0-5.91,0-4.86-5.66.32-1.7.32-3.37.39-5.07Z"/>
      <path class="cls-4" d="M108.46,191.08c0-3.9-.05-6.91.02-9.93.06-2.67,1.48-4.17,3.75-4.17,2.25,0,3.73,1.55,3.76,4.17.06,5.21-.09,10.43.05,15.63.28,10.35,10.61,16.34,19.19,11.16,4.1-2.48,6.04-6.28,6.12-11,.08-5.05,0-10.1.03-15.15.01-3.09,1.28-4.73,3.65-4.81,2.5-.08,4.06,1.58,4.03,4.72-.06,5.94.29,11.88-.28,17.81-.87,9.09-8.64,16.76-17.67,17.74-10.85,1.18-19.99-5.98-22.15-15.64-.84-3.77-.37-7.62-.49-10.55Z"/>
    </g>
  </g>
</svg>