<?xml version="1.0" encoding="UTF-8"?>
<svg id="Layer_2" data-name="Layer 2" xmlns="http://www.w3.org/2000/svg" viewBox="0 0 252.89 250">
  <defs>
    <style>
      .cls-1 {
        fill: #d70029;
      }

      .cls-1, .cls-2, .cls-3, .cls-4, .cls-5, .cls-6, .cls-7, .cls-8 {
        stroke-width: 0px;
      }

      .cls-2 {
        fill: #eef3f6;
      }

      .cls-3 {
        fill: #f9d708;
      }

      .cls-4 {
        fill: #0f9352;
      }

      .cls-5 {
        fill: #22c169;
      }

      .cls-6 {
        fill: #4d5c7d;
      }

      .cls-7 {
        fill: #fbbb04;
      }

      .cls-8 {
        fill: #197ff1;
      }
    </style>
  </defs>
  <g id="Layer_1-2" data-name="Layer 1">
    <g>
      <path class="cls-8" d="M52.61,132.85C27.22,127.82,5.98,105.87,1.18,79.72-4.63,48.06,12.22,17.14,41.9,5c40.08-16.39,85.25,9.23,91.71,52.1,2.85,18.94-1.74,36.04-13.31,51.29-.26.34-.48.7-.72,1.06-.58,1.03-1.6.8-2.5.86-14.41,1.03-28.23,4.43-41.45,10.3-4.21,1.87-8.3,3.96-12.3,6.23-2.78,1.49-5.32,3.36-7.97,5.06-.82.53-1.57,1.4-2.75.97Z"/>
      <path class="cls-1" d="M189.51,126.35c10.04,5.49,18.9,12.53,26.87,20.68,19.92,20.35,31.71,44.71,35.46,72.91.61,4.56.64,9.19,1.02,13.78.12,1.49-.2,2.09-1.89,2.08-12.81-.07-25.62-.09-38.44.01-2.02.02-1.9-1.01-1.94-2.36-.54-20.2-7.59-37.89-20.7-53.21-6.11-7.13-13.47-12.76-21.36-17.76-.22-.92.24-1.65.67-2.39,6.07-10.44,12.06-20.92,18.13-31.36.55-.94.98-2.02,2.16-2.4Z"/>
      <path class="cls-5" d="M62.9,126.37c13.98-8.23,29-13.45,45.05-15.78,3.87-.56,7.74-.9,11.63-1.15,3.64.12,7.29-.63,10.94.07-3.28.93-3.45,3.35-3.41,6.26.14,10.4.05,20.8.06,31.2,0,3.07.04,3.05,3.03,3.43.86.11,1.97-.12,2.26,1.16-7.39-.11-14.77-.11-22.08,1.34-9.24,1.83-17.89,5.18-26.14,9.65-1.22-.15-1.58-1.21-2.07-2.06-6.22-10.74-12.36-21.52-18.65-32.22-.35-.59-.72-1.16-.62-1.9Z"/>
      <path class="cls-7" d="M62.9,126.37c1.57,1.61,2.4,3.69,3.51,5.58,5.97,10.18,11.89,20.39,17.83,30.59-7,4.42-13.59,9.33-19.28,15.4-4.39,4.68-8.09,9.86-11.52,15.25-.97.77-1.78.13-2.58-.33-10.6-6.05-21.13-12.23-31.71-18.31-.89-.51-2.13-.89-2-2.35,5.51-10,12.64-18.74,20.7-26.77,4.6-4.58,9.7-8.56,14.76-12.59,3.43-2.16,6.86-4.32,10.29-6.48Z"/>
      <path class="cls-3" d="M17.15,172.21c2.76,2.76,6.42,4.09,9.68,6.04,8.32,4.97,16.75,9.75,25.15,14.59.42.24.97.25,1.45.36-7.09,12.35-11.03,25.61-11.36,39.86-.05,2.22-.73,2.77-2.93,2.75-12.2-.12-24.41-.1-36.61-.01-2,.01-2.57-.49-2.53-2.53.45-21.84,6.13-42.19,17.15-61.05Z"/>
      <path class="cls-4" d="M132.46,151.56c-1.34-.82-2.83-.35-4.24-.4-1.22-.05-1.88-.3-1.87-1.72.04-12.7.03-25.41,0-38.11,0-1.17.39-1.74,1.62-1.68.84.04,1.7-.08,2.54-.13,21.1.56,40.78,6.12,58.99,16.84-6.99,12.05-13.98,24.1-20.96,36.15-7.49-3.87-15.18-7.23-23.48-9.01-4.17-.89-8.37-1.49-12.61-1.92Z"/>
      <path class="cls-6" d="M140.09,231.53c1.34,6.31-.12,11.71-5.4,15.7-5.15,3.9-12.22,3.63-17.33-.5-4.92-3.98-6.57-10.83-4.01-16.66,2.61-5.95,8.83-9.35,15.21-8.31.67.11,1.35.19,2.03.28,4.36.32,9.16,5.13,9.49,9.49Z"/>
      <path class="cls-3" d="M140.09,231.53c-1.78-4.55-4.91-7.74-9.49-9.49,7.98-7.97,15.95-15.95,23.94-23.91,1.95-1.95,4.25-2.8,7-1.89,2.6.86,4.12,2.7,4.59,5.33.47,2.59-.7,4.61-2.49,6.39-7.86,7.84-15.71,15.71-23.56,23.56Z"/>
      <path class="cls-2" d="M54.18,97.97c-2.8.05-4.96-.98-6.61-3.04-6.17-7.74-12.36-15.47-18.47-23.26-3.2-4.08-2.61-9.04,1.25-12.01,3.66-2.81,8.56-2.04,11.76,1.93,3.8,4.72,7.6,9.44,11.28,14.25,1.07,1.4,1.64,1.34,2.83.14,12.22-12.3,24.49-24.53,36.75-36.79,2.45-2.45,5.36-3.32,8.66-2.3,3.01.93,4.87,3.1,5.54,6.17.76,3.45-.76,6.09-3.13,8.45-12.16,12.11-24.28,24.26-36.42,36.4-2.48,2.48-4.95,4.95-7.43,7.42-1.7,1.69-3.69,2.73-6.02,2.65Z"/>
    </g>
  </g>
</svg>