<?xml version="1.0" encoding="UTF-8"?>
<svg id="Layer_2" data-name="Layer 2" xmlns="http://www.w3.org/2000/svg" viewBox="0 0 260.2 250">
  <defs>
    <style>
      .cls-1 {
        fill: #fefefe;
      }

      .cls-1, .cls-2, .cls-3, .cls-4, .cls-5, .cls-6, .cls-7, .cls-8, .cls-9, .cls-10, .cls-11, .cls-12, .cls-13, .cls-14, .cls-15, .cls-16, .cls-17, .cls-18, .cls-19, .cls-20, .cls-21, .cls-22 {
        stroke-width: 0px;
      }

      .cls-2 {
        fill: #ebeff0;
      }

      .cls-3 {
        fill: #c1dffe;
      }

      .cls-4 {
        fill: #ab3945;
      }

      .cls-5 {
        fill: #a5bcd0;
      }

      .cls-6 {
        fill: #1d3a52;
      }

      .cls-7 {
        fill: #e04c5b;
      }

      .cls-8 {
        fill: #84d257;
      }

      .cls-9 {
        fill: #e14c5b;
      }

      .cls-10 {
        fill: #347cac;
      }

      .cls-11 {
        fill: #a5bbd0;
      }

      .cls-12 {
        fill: #a6bdd1;
      }

      .cls-13 {
        fill: #357cad;
      }

      .cls-14 {
        fill: #193752;
      }

      .cls-15 {
        fill: #83d257;
      }

      .cls-16 {
        fill: #8bc4fd;
      }

      .cls-17 {
        fill: #1b3b53;
      }

      .cls-18 {
        fill: #367dad;
      }

      .cls-19 {
        fill: #28567f;
      }

      .cls-20 {
        fill: #fed142;
      }

      .cls-21 {
        fill: #285680;
      }

      .cls-22 {
        fill: #1d3853;
      }
    </style>
  </defs>
  <g id="Layer_1-2" data-name="Layer 1">
    <g>
      <path class="cls-2" d="M260.18,45.39c0,64.81,0,129.62,0,194.43,0,6.9-3.22,10.18-9.98,10.18-79.6,0-159.21,0-238.81,0-8.16,0-10.88-2.58-11.37-10.78-.03-.56,0-1.13,0-1.69,0-63,0-126.01,0-189.01,0-1.13.09-2.25.13-3.38,1.38-1.02,3.01-.85,4.57-.85,83.54-.02,167.09-.02,250.63,0,1.68,0,3.42-.14,4.83,1.11Z"/>
      <path class="cls-19" d="M260.18,45.39c-1.24.05-2.48.14-3.71.14-83.99,0-167.99,0-251.98,0-1.45,0-2.94.27-4.34-.39.04-11.29.08-22.57.13-33.86C.3,3.16,3.45,0,11.53,0,90.66,0,169.79,0,248.92,0c8.16,0,11.28,3.09,11.28,11.18,0,11.4-.01,22.8-.02,34.2Z"/>
      <path class="cls-8" d="M70.79,62.2c16.14,0,32.29.07,48.43-.06,3.25-.03,4.28.99,4.26,4.25-.11,27.21-.06,54.42-.06,81.63,0,4.25-.16,4.41-4.39,4.41-32.18,0-64.35,0-96.53,0-4.19,0-4.38-.19-4.39-4.42,0-27.21.04-54.42-.06-81.63-.01-3.28,1.07-4.27,4.3-4.24,16.14.13,32.29.06,48.43.06Z"/>
      <path class="cls-10" d="M184.92,149.18c-21.65-2.26-38.4-20.39-39.07-42.31-.66-21.67,15.31-40.98,36.75-44.41,24.17-3.87,47.26,13.11,50.41,37.09,3.24,24.65-13.82,46.67-38.45,49.64-3.21,2.18-6.42,1.85-9.63,0Z"/>
      <path class="cls-9" d="M200.37,168.65c.03,17.49.16,34.97.04,52.46-.04,5.97-4.99,10.54-10.7,10.49-5.66-.05-10.31-4.74-10.33-10.76-.05-17.37.02-34.75.04-52.12.3-.34.66-.69,1.1-.73,6.34-.56,12.69-.74,19.03.09.35.05.55.36.81.57Z"/>
      <path class="cls-11" d="M83.03,207.31c-11.95,0-23.9-.02-35.85.01-2.33,0-4.53-.2-4.42-3.23.1-2.81,2.25-2.9,4.41-2.9,23.9.02,47.81.02,71.71,0,2.32,0,4.52.16,4.41,3.22-.1,2.83-2.25,2.91-4.4,2.9-11.95-.02-23.9,0-35.85,0Z"/>
      <path class="cls-5" d="M83,182.93c-11.63,0-23.26,0-34.89,0-.9,0-1.81.05-2.71-.04-1.53-.15-2.45-1.03-2.68-2.57-.26-1.79.73-2.81,2.28-3.25.95-.27,2.01-.23,3.02-.23,23.49-.01,46.97,0,70.46,0,.34,0,.68,0,1.02,0,2.21-.06,3.86.64,3.79,3.18-.06,2.34-1.64,2.95-3.7,2.93-3.61-.04-7.23,0-10.84,0-8.58,0-17.16,0-25.75,0Z"/>
      <path class="cls-12" d="M83.34,225.59c11.85,0,23.7,0,35.55,0,2.14,0,4.33.03,4.39,2.89.07,3.07-2.3,3.21-4.51,3.21-23.81.02-47.63.02-71.44,0-2.2,0-4.58-.13-4.58-3.16,0-2.56,1.88-2.94,4.02-2.94,12.19.03,24.38.02,36.57.01Z"/>
      <path class="cls-4" d="M200.37,168.65c-6.98.02-13.96.05-20.94.07-.81-2.37-.2-4.82-.38-7.23-.11-1.4.73-1.63,1.88-1.62,1.55.01,3.1-.07,4.65-.12,2.97-1.35,5.93-1.4,8.88.03q6.15.28,6.08,6.53c0,.78-.11,1.56-.17,2.33Z"/>
      <path class="cls-5" d="M194.46,159.79c-2.96-.01-5.92-.02-8.88-.03-.26-3.52.75-7.12-.66-10.57,3.21.56,6.42.51,9.63,0-.03,3.53-.06,7.06-.09,10.6Z"/>
      <path class="cls-13" d="M24.95,182.92c-1.35,0-2.7.08-4.03-.02-1.69-.12-2.66-1.11-2.75-2.81-.1-1.89.95-3.06,2.74-3.17,2.68-.16,5.39-.18,8.07,0,1.75.12,2.92,1.33,2.81,3.17-.11,1.82-1.29,2.79-3.13,2.84-1.23.04-2.47,0-3.7,0,0,0,0-.02,0-.03Z"/>
      <path class="cls-13" d="M24.83,201.22c1.35,0,2.69-.05,4.04.01,1.7.08,2.75,1.07,2.9,2.7.17,1.84-.94,3.13-2.68,3.26-2.79.21-5.61.19-8.4,0-1.63-.11-2.58-1.29-2.54-3.01.04-1.7.95-2.76,2.64-2.92,1.33-.12,2.69-.02,4.03-.02,0,0,0-.02,0-.02Z"/>
      <path class="cls-18" d="M25.06,225.57c1.34,0,2.69-.07,4.03.02,1.54.1,2.5,1.06,2.69,2.53.21,1.67-.72,3.1-2.27,3.24-2.99.29-6.04.29-9.03.05-1.57-.12-2.51-1.43-2.32-3.17.19-1.67,1.14-2.64,2.86-2.69,1.34-.04,2.69,0,4.03,0,0,.01,0,.02,0,.03Z"/>
      <path class="cls-16" d="M232.4,25.87c-12.4-.04-24.8-.1-37.2-.12-17.25-.02-34.5-.01-51.75,0-2.27,0-4.56-.02-4.6-3.06-.04-3.11,2.32-3.54,4.7-3.54,28.97-.02,57.95,0,86.92-.02,2.09,0,3.75.64,4.74,2.58.68,3.22.23,3.89-2.83,4.15Z"/>
      <path class="cls-15" d="M29.14,29.71c-2.96-1.99-5.22-4.46-4.46-8.33.6-3.11,2.57-5.2,5.7-6.04,3.26-.88,6.08.54,8.67,4.31,1.78,3.34,1.46,6.16-1.02,8.81-2.28,2.45-5.1,2.84-8.89,1.24Z"/>
      <path class="cls-7" d="M91.5,29.14c-2.75-2.23-4.15-5.06-3.26-8.58.75-2.97,2.89-4.78,5.9-5.32,3.84-.69,6.41,1.23,8.27,4.38,1.87,3.43,1.51,6.11-1.16,8.74-2.79,2.74-5.76,2.98-9.76.78Z"/>
      <path class="cls-20" d="M60.97,29.77c-3.21-1.95-5.38-4.55-4.6-8.55.65-3.29,2.81-5.3,6.12-5.96,3.42-.69,6.13.97,8.51,5.14,1.43,3.16,1.12,5.14-1.21,7.61-2.59,2.75-5.21,3.27-8.83,1.76Z"/>
      <path class="cls-14" d="M232.4,25.87c2.2-.53,2.85-2.11,2.83-4.15,1.75.95,2.39,2.42,1.69,4.25-.61,1.6-2.07,1.82-3.65,1.82-29.44-.02-58.88-.01-88.32-.03-.94,0-2.06.37-3.07-1.34,1.45,0,2.58,0,3.7,0,27.64,0,55.27,0,82.91-.02,1.31,0,2.72.45,3.92-.52Z"/>
      <path class="cls-22" d="M91.5,29.14c7.85,2.26,12.55-1.84,10.92-9.52,3.49,3.25,3.65,6.61.49,9.93-3.31,3.48-7.57,3.32-11.41-.41Z"/>
      <path class="cls-6" d="M60.97,29.77c7.46.65,10.49-2.19,10.04-9.37,2.01,1.38,2.73,3.13,2.09,5.76-.67,2.79-2.26,5.17-5.22,5.53-2.38.29-5.32,1.2-6.91-1.92Z"/>
      <path class="cls-17" d="M29.14,29.71c8.05.75,11.07-2.32,9.91-10.06,2.97,2.41,3.3,7.11.7,10.02-2.79,3.11-7.65,3.13-10.61.04Z"/>
      <path class="cls-1" d="M92.14,107c0-9.35.08-18.71-.05-28.06-.03-2.39.68-3.15,3.04-3.01,3.14.19,6.31.11,9.46.02,1.7-.05,2.4.46,2.4,2.28-.05,19.27-.05,38.54,0,57.81,0,1.8-.66,2.35-2.37,2.3-3.15-.09-6.32-.16-9.46.02-2.32.13-3.1-.55-3.06-2.97.13-9.46.05-18.93.05-28.4Z"/>
      <path class="cls-1" d="M63.48,115.83c0-6.43.08-12.86-.05-19.29-.04-2.22.66-3.01,2.89-2.9,3.04.15,6.09.15,9.13,0,2.15-.11,2.65.77,2.64,2.77-.07,13.08-.07,26.17,0,39.25.01,2.06-.59,2.8-2.69,2.7-3.15-.15-6.32-.13-9.47,0-1.96.08-2.51-.69-2.49-2.56.08-6.65.03-13.31.03-19.96Z"/>
      <path class="cls-1" d="M34.59,122.53c0-4.29.06-8.58-.03-12.87-.04-1.77.3-2.71,2.38-2.62,3.38.15,6.77.11,10.16.01,1.7-.05,2.4.42,2.38,2.26-.08,8.92-.06,17.84-.01,26.75,0,1.48-.29,2.32-2.03,2.27-3.61-.09-7.23-.09-10.84,0-1.72.04-2.06-.78-2.04-2.27.06-4.51.02-9.03.02-13.55Z"/>
      <path class="cls-3" d="M154.99,105.66c.03-19.32,15.32-34.62,34.57-34.58,19.46.04,34.74,15.4,34.71,34.87-.03,19.01-15.45,34.39-34.49,34.39-19.58,0-34.82-15.19-34.8-34.69Z"/>
      <path class="cls-21" d="M205.02,101.89c-3.4,3.25-6.69,6.17-9.69,9.36-2.17,2.31-3.9,2.43-6.23.23-4.26-4.02-4.35-3.93-8.61.1-2.21,2.09-4.41,4.19-6.59,6.31-1.27,1.23-2.7,1.98-4.08.44-1.17-1.3-.68-2.72.52-3.88,3.96-3.85,7.94-7.67,11.87-11.55,1.92-1.9,3.48-1.25,5.24.3,4.65,4.09,4.66,4.03,9.04-.38,1.57-1.58,3.31-2.99,5.5-4.95-1.66-.28-2.3-.33-2.9-.51-1.31-.4-2.13-1.22-2.02-2.71.1-1.38,1.03-2.07,2.23-2.12,2.81-.12,5.63-.16,8.43-.02,1.54.08,2.36,1.15,2.34,2.77-.02,2.03-.02,4.06.01,6.08.03,1.76.06,3.63-2.22,3.88-2.28.25-2.57-1.64-2.84-3.35Z"/>
    </g>
  </g>
</svg>