<?xml version="1.0" encoding="UTF-8"?>
<svg id="Layer_2" data-name="Layer 2" xmlns="http://www.w3.org/2000/svg" viewBox="0 0 250.29 250">
  <defs>
    <style>
      .cls-1 {
        fill: #0fd8fe;
      }

      .cls-1, .cls-2, .cls-3, .cls-4, .cls-5, .cls-6, .cls-7, .cls-8, .cls-9, .cls-10, .cls-11, .cls-12, .cls-13, .cls-14, .cls-15 {
        stroke-width: 0px;
      }

      .cls-2 {
        fill: #fefefe;
      }

      .cls-3 {
        fill: #fe94c1;
      }

      .cls-4 {
        fill: #6464fe;
      }

      .cls-5 {
        fill: #fe6969;
      }

      .cls-6 {
        fill: #fe4848;
      }

      .cls-7 {
        fill: #fe95c2;
      }

      .cls-8 {
        fill: #fe95c1;
      }

      .cls-9 {
        fill: #407bfe;
      }

      .cls-10 {
        fill: #64e7fe;
      }

      .cls-11 {
        fill: #fed051;
      }

      .cls-12 {
        fill: #e4f3fe;
      }

      .cls-13 {
        fill: #6192fe;
      }

      .cls-14 {
        fill: #fe758d;
      }

      .cls-15 {
        fill: #83a6c4;
      }
    </style>
  </defs>
  <g id="Layer_1-2" data-name="Layer 1">
    <g>
      <path class="cls-13" d="M195.25,0h.98c7.36,1.34,13.94,4.46,19.72,9.14,10.07,8.15,16.11,18.64,17.61,31.6,1.48,12.83-1.69,24.43-9.67,34.57-7.26,9.24-16.66,15.19-28.27,17.49-8.9-1.03-16.47-5.07-23.09-10.81-8.82-7.64-14.15-17.39-15.74-28.98-.72-5.24-.62-10.55.29-15.81.67-2.7,1.25-5.42,2.34-7.99,5.38-13.22,14.75-22.35,28.07-27.48,2.53-.97,5.19-1.15,7.78-1.74Z"/>
      <path class="cls-10" d="M29.95,90.01c-6.05-2.72-11.78-5.98-16.33-10.87C1.36,65.99-3.01,50.59,2.1,33.26,7.31,15.55,19.49,4.78,37.42.5c.47-.11.98-.06,1.32-.5h.98c19.64,2.83,35.4,19.83,38.07,39.36,2.08,15.19-2.22,28.47-12.78,39.69-6.94,7.38-15.45,11.82-25.32,13.8-.64.14-1.28.14-1.93,0-2.62-.92-5.6-.85-7.83-2.85Z"/>
      <path class="cls-9" d="M195.75,92.33c6.22-1.66,12.25-3.81,17.47-7.69,11.28-8.38,18.19-19.26,19.77-33.5.99-8.94-.6-17.31-4.36-25.25-3.94-8.32-10.07-14.84-17.98-19.67-3.99-2.44-8.26-4.12-12.77-5.27-.64-.16-1.24-.38-1.66-.94h16.14c5.52,1.59,10.99,3.27,15.89,6.41,11.94,7.66,19.77,18.42,21.55,32.45,2.91,22.93-7.32,41.1-27.83,50.53-.44.2-.87.42-1.31.64-2.34,2.15-5.47,2.1-8.27,2.97-4.5,1-9.07.63-13.61.59-1.13-.01-2.3-.17-3.02-1.26Z"/>
      <path class="cls-1" d="M55.38,0c3.04,1.1,6.24,1.64,9.24,2.92,11.78,5.03,20.23,13.4,25.4,25.09.2.44.42.88.63,1.32,1.74,1.18,1.45,3.26,2.14,4.9.4.95.6,1.98.8,3,1.26,9.25,1.08,18.37-2.77,27.07-7.38,16.66-20.12,26.4-38.13,29.12-3.61.54-7.31.18-10.97.1-.81-.02-1.65-.18-1.96-1.14,6.17-1.52,12.13-3.63,17.33-7.34,12.09-8.63,19.2-20.18,20.34-35.2,1.17-15.49-4.33-28.29-15.6-38.67-5.9-5.44-13.02-8.75-20.81-10.63-.47-.11-.99-.05-1.29-.54h15.65Z"/>
      <path class="cls-5" d="M37.31,248.84c-19.44-3.99-34.52-20.29-36.76-39.74-2.46-21.38,8.37-40.3,28.1-49.07.44-.2.87-.42,1.31-.63,1.94-1.66,4.31-2.07,6.75-2.31,18.5,4.14,32.78,19.3,35.82,38.32,2.32,14.51-1.42,27.4-10.89,38.65-5.77,6.87-13.06,11.39-21.47,14.27-.94.32-1.94.15-2.86.51Z"/>
      <path class="cls-3" d="M195.75,249.31c-16.99-3.59-29.04-13.22-35.78-29.31-1.66-1.14-1.61-3.06-2.14-4.71-.32-1-.56-2.02-.77-3.05-1.88-12.26-.28-23.89,6.54-34.46,7.12-11.05,17.17-18.06,30-21.04.48-.11.96-.18,1.45-.1,5.01,1.67,10.07,3.19,14.56,6.1,4.75,3.08,9.04,6.64,12.45,11.18.61.82,1.55,1.7.03,2.59-1.19.38-2.42.27-3.64.27-9.85,0-19.71,0-29.56,0-1.47,0-2.93.04-4.36.46-4.3,1.28-7.06,4.67-7.09,9.16-.09,11.16-.1,22.31,0,33.47.05,5.58,4.19,9.43,10.2,9.66,3.58.14,7.17.06,10.75.03,7.98-.06,15.96.19,23.93-.17,2,.87.48,1.91-.03,2.61-2.74,3.76-6.09,6.92-9.89,9.61-5.08,3.6-10.67,6.06-16.66,7.68Z"/>
      <path class="cls-6" d="M37.31,248.84c3.29-1.73,6.98-2.49,10.26-4.31,13.71-7.63,22.11-19.06,24.4-34.61,2.34-15.85-2.55-29.48-13.92-40.67-5.7-5.61-12.56-9.4-20.38-11.32-.3-.07-.57-.27-.85-.41.24-.54.69-.81,1.21-1,15.49-2.59,29.27.99,40.95,11.65,8.29,7.57,13.37,17,14.88,28.14.71,5.23.75,10.55-.34,15.8-.37,1.88-.91,3.73-1.42,5.57-.26.93-.53,1.86-1.46,2.37-5.97,14.03-16.01,23.63-30.74,28.02-7.43,2.21-14.98,2.59-22.58.77Z"/>
      <path class="cls-14" d="M195.75,249.31c-.55-1.27.57-.83,1.03-.95,8.26-2.24,15.41-6.42,21.43-12.46,1.82-1.83,3.29-4,4.92-6.01.18-.8.83-1.19,1.47-1.53,3.89-2.05,5.5-5.54,5.56-9.67.17-10.5.18-21.01,0-31.52-.07-4.22-2.16-7.42-5.89-9.5-.67-.38-1.6-.53-1.67-1.57-2.31-4.19-5.77-7.31-9.49-10.17-4.94-3.79-10.39-6.55-16.48-7.96-.6-.14-1.06-.36-1.35-.9,1-1.2,2.43-1.25,3.78-1.27,4.45-.05,8.92-.33,13.33.53,2.79.9,5.96.81,8.25,3.07,11.66,4.93,20.37,12.93,25.7,24.5,2.88,6.26,3.66,12.81,3.79,19.67.21,10.88-3.23,20.33-9.88,28.66-7.73,9.68-17.78,15.51-30.16,17.23-4.81.67-9.56.54-14.34-.14Z"/>
      <path class="cls-11" d="M37.79,156.97c-.32.18-.65.37-.97.55-2.28.63-4.57,1.25-6.85,1.87-4.84-13.31-6.69-27.05-5.89-41.16.55-9.7,2.54-19.11,5.87-28.23,2.63.77,5.27,1.55,7.9,2.32.57,1.08.06,2.07-.26,3.06-2.64,8.26-4.24,16.66-4.6,25.38-.47,11.29,1.07,22.21,4.48,32.93.33,1.05,1.01,2.1.3,3.27Z"/>
      <path class="cls-11" d="M220.64,159.38c-2.62-.81-5.25-1.61-7.87-2.42-.69-1.04-.23-2.06.12-3.04,4.16-11.61,5.19-23.64,4.57-35.83-.39-7.74-2.04-15.3-4.47-22.68-.33-.99-.9-1.96-.22-3.02,2.63-.79,5.26-1.57,7.89-2.36,4.43,12.65,6.46,25.66,5.91,39.07-.43,10.4-2.59,20.45-5.92,30.27Z"/>
      <path class="cls-11" d="M90.63,220.06c.81-2.62,1.61-5.24,2.42-7.87.94-.68,1.87-.28,2.79.03,19.47,6.45,38.96,6.43,58.46.12,1.06-.34,2.13-.93,3.27-.23.8,2.63,1.6,5.26,2.4,7.88-13.19,4.74-26.81,6.64-40.77,5.89-9.8-.52-19.29-2.68-28.57-5.83Z"/>
      <path class="cls-2" d="M196.22,61.39c0-3.18-.1-6.36.04-9.53.07-1.76-.35-2.61-2.27-2.36-.96.13-1.96.06-2.93-.01-2.37-.17-4.06-1.91-4.02-4.08.04-2.17,1.73-3.81,4.14-3.96.81-.05,1.65-.13,2.44,0,2.26.37,2.67-.66,2.65-2.72-.04-3.57-.49-7.17.33-10.71,1.6-6.86,7.21-11.32,14.26-11.39,1.55-.01,3.1-.06,4.64.02,2.42.12,4.11,1.76,4.18,3.94.07,2.27-1.64,4.15-4.07,4.32-1.62.11-3.26,0-4.89.04-3.47.09-6.07,2.54-6.18,5.94-.09,2.93.03,5.87-.06,8.8-.05,1.45.56,1.84,1.88,1.77,1.3-.07,2.61-.07,3.91.03,2.3.18,3.71,1.77,3.69,4.03-.02,2.26-1.44,3.77-3.76,3.98-.24.02-.49.02-.73.03q-4.95.16-4.95,5.25c0,5.54.01,11.08-.01,16.62,0,1.74-.64,3.2-2.27,4.02-1.42.72-2.86.63-4.18-.23-1.33-.87-1.85-2.18-1.84-3.77.03-3.34,0-6.68,0-10.02Z"/>
      <path class="cls-11" d="M157.6,37.21c-10.16-3.66-20.67-5.64-31.45-5.73-9.86-.08-19.57,1.31-28.99,4.37-1.39.45-2.78.9-4.16,1.35-.79-2.62-1.57-5.24-2.36-7.87,23.1-8.07,46.2-8.15,69.3.04-.78,2.61-1.56,5.23-2.34,7.84Z"/>
      <path class="cls-2" d="M36.01,59.18c-6.09-3.03-10.62-6.87-12.5-13.22-1.41-4.78-1.03-9.48.31-14.18.53-1.84,1.24-1.81,2.4-.47,3.71,4.26,8.33,6.96,13.9,8.02.32.06.63.18.95.22,3.46.5,3.68.34,4.2-3.04,1.32-8.59,10.07-12.29,16.83-6.98,1.9,1.49,3.15.14,4.68-.28.97-.27,1.98-1.65,2.78-.89.97.94-.17,2.28-.82,2.96-2.98,3.1-2.9,6.87-3.18,10.79-1.02,14.42-13.15,25.63-27.59,25.95-4.79.11-9.41-.54-13.83-2.38-.69-.29-1.91-.36-1.78-1.33.13-1.02,1.29-.68,2.05-.78,4.06-.57,7.86-1.81,11.6-4.39Z"/>
      <path class="cls-2" d="M36.84,202.65c0-4.56-.02-9.13,0-13.69.02-2.62.88-3.15,3.07-1.89,7.91,4.54,15.81,9.09,23.7,13.66,2.39,1.39,2.41,2.35.04,3.72-7.88,4.58-15.77,9.14-23.68,13.68-2.26,1.3-3.11.8-3.13-1.8-.04-4.56,0-9.13,0-13.69Z"/>
      <path class="cls-2" d="M222.61,176.09c6.15,2.34,8.45,6.9,8.3,13.33-.22,9.41-.13,18.83-.03,28.25.06,5.82-2.18,10.03-7.74,12.21-2.4.55-4.85.42-7.28.42-9.29,0-18.57-.07-27.86.03-6.18.07-11.61-4.68-11.44-11.26.27-10.74.05-21.5.08-32.25.02-6.25,4.54-10.76,10.78-10.76,11.73,0,23.46.03,35.19.04Z"/>
      <path class="cls-12" d="M116.01,107.59c9.06-1.68,17.64-4.76,25.9-8.78,2.11-1.03,4.09-2.35,6.39-2.96.89.92.77,2.1.78,3.23.02,13.99.02,27.97,0,41.96,0,1.12.12,2.3-.77,3.23-9.44-4.95-19.25-8.96-29.65-11.44-.89-.21-1.75-.27-2.64-.3-.84-.84-.77-1.93-.78-2.97-.03-6.33-.03-12.66,0-18.99,0-1.04-.07-2.13.77-2.97Z"/>
      <path class="cls-8" d="M116.01,107.59c0,8.31,0,16.62,0,24.93-.15,1.14-1.01,1.03-1.81,1.04-1.68.03-3.36.06-5.03.09-2.77.94-5.53.94-8.3,0-6.52-.4-6.8-.7-6.8-7.41,0-5.05-.02-10.09,0-15.14.02-3.34,1.6-4.93,4.95-4.95,4.88-.03,9.77,0,14.65-.01,1.08,0,2.21-.1,2.34,1.43Z"/>
      <path class="cls-4" d="M148.31,144.26c0-16.14,0-32.27,0-48.41.04-1.95.05-3.91.11-5.86.09-3.03,1.8-4.95,4.3-4.89,2.46.06,3.96,1.84,3.96,4.86.01,20.04.01,40.07,0,60.11,0,2.87-1.66,4.77-4.06,4.8-2.35.03-4.1-1.92-4.19-4.76-.07-1.95-.08-3.91-.11-5.86Z"/>
      <path class="cls-15" d="M100.87,133.65c2.77,0,5.53,0,8.3,0,.47,8.51.94,17.01,1.4,25.52.05.97.08,1.95.06,2.92-.05,2.6-1.81,4.52-4.1,4.54-2.16.02-3.98-1.77-4.15-4.3-.16-2.35-.25-4.7-.4-7.05-.47-7.21-.75-14.43-1.1-21.64Z"/>
      <path class="cls-3" d="M184.92,203.19c0-5.13-.01-10.26,0-15.39,0-3,.45-3.46,3.35-3.47,10.26-.01,20.52-.01,30.78,0,2.67,0,3.53.84,3.53,3.47.02,10.18.02,20.35,0,30.53,0,2.75-.95,3.66-3.66,3.66-10.18.01-20.35.01-30.53,0-2.85,0-3.46-.63-3.47-3.42-.02-5.13,0-10.26,0-15.39Z"/>
      <path class="cls-2" d="M203.69,214.73c-6.73,0-11.88-5.05-11.85-11.63.02-6.28,5.37-11.72,11.62-11.84,6.47-.12,11.88,5.34,11.86,11.97-.02,6.55-5.02,11.49-11.63,11.5Z"/>
      <path class="cls-7" d="M203.48,206.43c-2.01-.04-3.37-1.4-3.33-3.33.03-1.89,1.81-3.63,3.6-3.53,1.83.1,3.36,1.87,3.27,3.8-.09,1.99-1.38,3.11-3.54,3.07Z"/>
    </g>
  </g>
</svg>