<?xml version="1.0" encoding="UTF-8"?>
<svg id="Layer_2" data-name="Layer 2" xmlns="http://www.w3.org/2000/svg" viewBox="0 0 249.04 250">
  <defs>
    <style>
      .cls-1 {
        fill: #e4e4e4;
      }

      .cls-1, .cls-2, .cls-3 {
        stroke-width: 0px;
      }

      .cls-2 {
        fill: #fefefe;
      }

      .cls-3 {
        fill: #64b061;
      }
    </style>
  </defs>
  <g id="Layer_1-2" data-name="Layer 1">
    <g>
      <path class="cls-1" d="M133.28,0c1.94,1,4.12.65,6.15.88,10.86,1.19,21.3,3.9,31.45,7.9,11.72,4.62,22.48,10.91,32.2,18.88,12.22,10.01,22.22,21.93,30.04,35.69,6.76,11.9,11.26,24.59,13.76,38,.92,4.91,1.55,9.88,1.76,14.92.14,3.32.51,6.63.38,9.95-.64,16.15-3.68,31.76-10.17,46.68-4.8,11.03-10.94,21.2-18.6,30.4-9.42,11.31-20.57,20.64-33.34,28.07-13.2,7.68-27.35,12.68-42.36,15.14-7.91,1.29-15.94,2.05-23.97,1.58-16.71-.99-32.86-4.4-48.04-11.73-1.24-.6-2.56-1-3.69-1.84-.74-.55-1.58-.56-2.54-.31-19.72,5.19-39.49,10.23-59.17,15.59-4.2,1.14-8.14-2.58-6.91-6.91,5.18-18.22,10.04-36.53,15.11-54.79.71-2.57.69-4.73-.6-7.19-6.69-12.75-10.81-26.36-12.78-40.59-1-7.23-1.44-14.55-1.01-21.84.9-15.23,4.09-29.94,10.3-43.96,4.96-11.2,11.34-21.47,19.36-30.75,9.76-11.28,21.01-20.65,33.99-28.03,13.57-7.72,28.16-12.3,43.5-14.67,2.84-.44,5.76-.28,8.57-1.06h16.61Z"/>
      <path class="cls-2" d="M124.93,242.77c-17.25-.06-33.74-3.58-49.44-10.81-1.92-.88-3.89-1.62-5.65-2.82-1.15-.79-2.41-.58-3.74-.23-19.1,5.04-38.2,10.03-57.31,15.04-.23.06-.46.16-.7.22-3.03.74-3.07.72-2.22-2.35,5.22-18.97,10.42-37.94,15.72-56.88.42-1.48,0-2.54-.65-3.65-6.67-11.5-10.71-23.94-13.12-36.93-1.75-9.45-2.14-19.07-1.44-28.61,1.02-13.88,4.36-27.24,10.08-40.05,6.9-15.47,16.72-28.76,29.21-40.01,16.38-14.74,35.49-24.19,57.21-28.41,9.88-1.92,19.85-2.44,29.78-1.79,17.84,1.17,34.67,6.04,50.34,14.91,11.51,6.51,21.61,14.7,30.41,24.44,8.19,9.06,14.81,19.22,19.84,30.43,4.58,10.21,7.72,20.83,9.26,31.84,1.22,8.73,1.56,17.55.75,26.42-.89,9.82-2.73,19.37-5.93,28.67-4.64,13.48-11.46,25.72-20.46,36.81-11.9,14.64-26.53,25.68-43.62,33.47-10.67,4.87-21.87,7.97-33.56,9.35-4.92.58-9.82,1.07-14.79.95Z"/>
      <path class="cls-3" d="M33.78,216.48c2.4-8.76,4.69-17.12,6.98-25.49.77-2.82,1.4-5.69,2.33-8.45.58-1.74.27-3.06-.7-4.54-8.51-13.01-13.78-27.25-15.45-42.69-2.63-24.29,2.72-46.78,16.64-66.9,16.12-23.3,38.37-37.53,66.36-41.85,52.93-8.16,100.35,26.59,111.22,75.88,11.54,52.32-19.88,103.67-71.76,117.08-26.71,6.9-52.07,2.79-75.79-11.29-1.74-1.03-3.23-1.3-5.21-.76-10.89,2.95-21.83,5.75-32.75,8.59-.46.12-.93.21-1.87.43Z"/>
      <path class="cls-2" d="M64.65,97.33c-.09-9.86,3.76-18.01,10.7-24.81,2.32-2.27,5.07-3.32,8.36-3.32,9.24,0,9.35-.01,12.97,8.54,2.63,6.21,5.15,12.46,7.76,18.67.96,2.29.86,4.36-.57,6.45-2.25,3.3-4.64,6.49-7.22,9.52-1.6,1.88-1.76,3.64-.51,5.76,9.75,16.46,23.37,28.35,41.23,35.34,2.31.9,4.11.32,5.61-1.54,2.86-3.54,5.78-7.04,8.58-10.63,2.47-3.15,3.42-3.64,7.03-2.15,8.33,3.45,16.33,7.62,24.39,11.66,1.57.79,2.04,2.07,2.12,3.78.72,16.28-12.18,24.54-24.29,26.08-7.71.98-14.94-1.36-22.22-3.5-26.54-7.82-45.54-25.21-60.89-47.41-5.16-7.46-9.91-15.06-12.07-24.01-.67-2.79-.85-5.62-.99-8.43Z"/>
    </g>
  </g>
</svg>