<svg width="88" height="62" viewBox="0 0 88 62" fill="none" xmlns="http://www.w3.org/2000/svg">
<path d="M0 30.1525C1.32882 26.0925 2.63473 22.0554 3.96355 17.9954C5.49857 13.2013 7.03358 8.40726 8.59151 3.61321C9.43921 0.998272 11.547 -0.102753 14.1588 0.723016C16.0833 1.34234 18.0078 2.00755 19.9552 2.581C21.7881 3.13151 22.8878 4.25547 23.2544 6.18227C25.2476 6.43459 27.1721 6.0217 29.0966 5.60882C32.4416 4.92068 35.7865 4.57661 39.0627 5.88407C40.025 6.25108 40.9185 6.77866 41.8578 7.19154C42.1099 7.30623 42.5452 7.32917 42.7514 7.19154C47.0815 4.59954 51.5491 4.48485 56.177 6.29696C58.0557 7.03098 59.9573 7.74206 61.9047 8.33844C62.5004 8.52195 63.2335 8.36138 63.9438 8.36138C63.8292 7.74206 63.7147 7.30623 63.6917 6.84747C63.5543 5.08124 64.4707 3.45264 66.1203 2.78744C68.4113 1.86992 70.7024 0.998272 73.0393 0.218379C75.2158 -0.515638 77.3236 0.654202 78.1713 2.92507C80.0729 8.04025 81.9745 13.1784 83.8761 18.2936C85.2507 21.9636 86.6254 25.6337 88 29.2809C88 29.7855 88 30.3131 88 30.8407C87.4731 32.7445 86.1901 33.7767 84.3572 34.3502C82.616 34.9007 80.9206 35.6118 79.2023 36.254C76.6821 37.1716 74.7118 36.3458 73.5433 33.9144C73.4975 33.8226 73.4288 33.7309 73.1997 33.662C73.1997 33.8914 73.1768 34.0979 73.1997 34.3272C73.3601 35.6806 73.2226 37.011 72.6269 38.2726C71.5272 40.5664 69.5798 41.3463 66.5327 40.6581C66.6701 42.7914 66.0515 44.6264 64.3562 45.9568C62.6608 47.3102 60.7363 47.5166 58.5827 46.8514C58.6972 48.6176 58.2619 50.1774 57.0935 51.462C55.9021 52.7694 54.39 53.3199 52.5801 53.3887C52.8321 55.5679 52.2364 57.4029 50.4035 58.6416C48.5019 59.9261 46.6004 59.5132 44.6759 58.3663C43.4845 60.6142 41.8808 62.3346 39.1086 61.9446C36.4967 61.5547 34.9617 59.8114 34.0682 57.3341C32.5332 57.9534 30.9753 58.114 29.4173 57.4717C27.8823 56.8295 26.8513 55.7055 26.2557 54.1228C24.0104 55.4302 21.8339 55.499 19.7719 54.0081C17.71 52.5171 17.2059 50.4068 17.6641 47.9754C17.0226 47.9066 16.4041 47.9066 15.7855 47.7689C12.2114 47.012 10.3327 43.2272 11.8907 39.9012C12.326 38.9607 12.8529 38.0891 13.334 37.1716C13.4715 36.8963 13.5402 36.5522 13.7235 36.0476C13.3569 36.2311 13.2195 36.277 13.1049 36.3687C11.9823 37.1716 10.7451 37.378 9.43921 36.988C7.23978 36.2999 5.04035 35.5659 2.84093 34.8548C1.30591 34.3502 0.504035 33.2033 0.0229107 31.7352C0 31.1847 0 30.6801 0 30.1525ZM41.9953 48.3883C41.56 48.113 41.2851 47.9754 41.056 47.7689C40.5978 47.379 40.4374 46.8514 40.7581 46.3009C41.0789 45.7274 41.5829 45.521 42.2015 45.7504C42.4306 45.8421 42.6597 45.9798 42.8888 46.0944C45.661 47.5625 48.4332 49.0764 51.2283 50.5215C53.2216 51.5537 55.5126 50.5674 56.1083 48.48C56.5207 46.989 55.9021 45.4751 54.4129 44.6264C52.3051 43.4336 50.1286 42.3097 47.9979 41.1628C47.4251 40.8416 46.8295 40.5664 46.2796 40.2223C45.7298 39.8782 45.5465 39.3507 45.8443 38.7313C46.1651 38.0891 46.7149 37.9285 47.3564 38.135C47.6084 38.2038 47.8146 38.3643 48.0437 38.479C51.6636 40.4288 55.2835 42.3785 58.9263 44.3282C60.805 45.3375 62.8211 44.787 63.7605 43.0666C64.6998 41.3463 64.0583 39.3507 62.2025 38.3414C61.0112 37.6762 59.7969 37.0339 58.5827 36.3687C56.2458 35.1071 53.9089 33.8226 51.572 32.561C50.9305 32.2169 50.5181 31.7352 50.8159 30.9553C51.0909 30.2213 51.8469 30.0149 52.6717 30.4507C54.5733 31.46 56.452 32.4922 58.3306 33.5244C61.1945 35.0613 64.0583 36.644 66.9451 38.1579C68.9154 39.1901 70.4275 38.3873 70.8399 36.1852C71.1835 34.2584 70.4504 32.7445 68.9154 31.7123C66.7389 30.2443 64.4936 28.868 62.2025 27.5835C59.1783 25.909 56.0854 24.3492 53.0154 22.7665C52.4426 22.4683 51.7553 22.216 51.1367 22.2618C49.7391 22.3995 48.3187 22.6288 46.944 23.0188C44.6759 23.684 42.4764 24.6245 40.1854 25.1979C36.7258 26.0925 33.61 25.3355 31.044 22.6977C29.2111 20.8167 29.1195 20.3121 30.8378 18.3165C32.5103 16.3897 34.3431 14.6005 36.1302 12.7884C37.4132 11.481 38.742 10.2423 40.0937 8.93483C39.9563 8.84308 39.8417 8.77427 39.7271 8.70545C36.955 7.26036 34.0453 7.12273 31.044 7.67324C28.478 8.132 25.9578 8.7972 23.3231 8.63664C23.1169 8.6137 22.7732 8.98071 22.6816 9.21009C20.4822 15.9768 18.2827 22.7665 16.1291 29.5561C15.7855 30.6572 15.6938 31.8729 15.5105 33.0198C20.024 29.6249 24.7665 32.4463 25.408 36.9651C30.013 36.9422 31.296 37.9056 32.4874 42.2638C36.2906 41.4839 39.773 44.0071 39.6355 48.3653C40.3457 48.3883 41.056 48.3883 41.9953 48.3883ZM32.1666 20.3809C33.2205 21.6425 34.3661 22.56 35.8552 22.95C37.8943 23.4775 39.8188 22.9958 41.7433 22.3536C43.7365 21.6884 45.7068 20.8856 47.7459 20.2892C49.8995 19.6469 52.076 19.5551 54.1609 20.6791C56.4978 21.9407 58.8576 23.1794 61.1945 24.418C64.9518 26.4136 68.8925 28.111 71.8709 31.3224C71.9625 31.4141 72.1458 31.4141 72.3062 31.46C72.352 31.2994 72.4436 31.1388 72.4436 30.9553C72.4436 30.8177 72.352 30.6801 72.3062 30.5425C70.3358 25.2438 68.3655 19.9222 66.3952 14.6235C65.8912 13.2701 65.3871 11.8938 64.8602 10.4946C62.7295 11.2516 60.7821 10.6781 58.8805 9.94411C57.7121 9.48535 56.5436 9.00365 55.3752 8.52195C50.7243 6.61809 46.3254 7.14567 42.4764 10.3341C39.4293 12.8802 36.68 15.7704 33.8162 18.5229C33.2434 19.0734 32.7623 19.7157 32.1666 20.3809ZM2.40562 30.6801C2.3598 31.6894 2.79511 32.2858 3.73444 32.6069C5.7735 33.295 7.81255 33.9373 9.8516 34.6025C11.1804 35.0154 11.9823 34.6025 12.4176 33.2491C15.1898 24.6703 17.9391 16.1144 20.7113 7.53561C21.1466 6.15933 20.7342 5.3565 19.3595 4.89774C17.458 4.27841 15.5564 3.65908 13.6548 3.0627C12.0739 2.55806 11.3408 2.92507 10.8139 4.55367C8.06457 12.9719 5.3611 21.4131 2.63473 29.8314C2.52018 30.1755 2.45144 30.4966 2.40562 30.6801ZM74.0932 2.42043C73.9328 2.46631 73.6579 2.51218 73.383 2.60394C71.3897 3.33795 69.4194 4.07197 67.4262 4.80599C66.1661 5.28769 65.7766 6.11345 66.2348 7.37505C69.3736 15.8621 72.5124 24.3263 75.674 32.8133C76.1552 34.1437 76.9799 34.4878 78.3088 34.0061C80.1874 33.318 82.0661 32.6069 83.9448 31.9187C85.5485 31.3224 85.8693 30.5883 85.2965 29.0056C83.5324 24.2345 81.7454 19.4634 79.9813 14.6693C78.6295 11.0451 77.2778 7.42092 75.949 3.79671C75.6511 2.99388 75.17 2.44337 74.0932 2.42043ZM19.7948 49.4205C19.9094 51.0032 20.78 52.1501 22.2463 52.563C23.6668 52.9529 25.133 52.3795 25.8891 51.0032C27.1263 48.7553 28.3405 46.4615 29.5319 44.1906C30.4483 42.4473 29.9214 40.5205 28.2947 39.6718C26.6681 38.8002 24.8123 39.4195 23.85 41.1628C22.6587 43.3419 21.4902 45.5439 20.3447 47.746C20.0927 48.2736 19.9781 48.87 19.7948 49.4205ZM16.931 45.4751C18.0995 45.4751 19.1304 44.9476 19.7032 43.8924C20.6884 42.1262 21.6506 40.337 22.567 38.502C23.3689 36.9192 22.7045 35.153 21.0778 34.2584C19.7261 33.5244 17.8474 33.9832 16.9997 35.3824C15.9229 37.2174 14.892 39.0754 13.9984 40.9793C13.0133 43.1354 14.5941 45.4751 16.931 45.4751ZM32.0292 55.4761C32.7394 55.4532 33.6787 54.9944 34.2515 54.0081C35.1908 52.3795 36.1073 50.705 36.9091 49.0076C37.6194 47.5166 36.932 45.7274 35.5116 44.9475C34.0453 44.1447 32.1437 44.5805 31.296 46.0486C30.3567 47.6542 29.4632 49.2828 28.6613 50.9573C27.6532 53.1364 29.2341 55.4761 32.0292 55.4761ZM40.9185 50.7738C38.6962 50.7509 35.9927 54.0998 36.3822 56.4166C36.4051 56.5083 36.4051 56.5771 36.428 56.6689C36.7488 58.091 38.0776 59.3985 39.3606 59.582C40.9185 59.7885 41.7204 58.8021 42.339 57.6093C42.8201 56.7148 43.3241 55.7972 43.7136 54.8568C44.6071 52.7006 43.2554 50.7967 40.9185 50.7738ZM45.0424 49.971C46.8982 51.8748 46.692 53.9851 45.7756 56.1872C47.3335 57.2882 48.6394 57.3111 49.5788 56.256C50.7472 54.9485 50.4494 52.9988 48.8914 52.0583C47.6313 51.3014 46.3254 50.6591 45.0424 49.971Z" fill="black"/>
</svg>
