<svg width="83" height="83" viewBox="0 0 83 83" fill="none" xmlns="http://www.w3.org/2000/svg">
<path d="M45.2543 41.6756C45.994 41.8544 46.6664 41.9214 47.2716 42.1672C48.5043 42.6811 49.7595 43.1504 50.8578 43.8655C52.8302 45.1392 53.8389 47.0386 53.8389 49.4296C53.8389 52.2005 53.8389 54.9937 53.8837 57.7646C53.9285 60.7589 52.7182 62.9488 49.8492 64.1331C49.625 64.2225 49.4233 64.7141 49.4233 65.027C49.4009 69.4738 49.4233 73.9206 49.4009 78.3674C49.3785 80.7808 47.8095 82.5908 45.5009 82.9483C43.9992 83.1718 42.7216 82.6578 41.5784 81.6523C40.4353 82.6578 39.1577 83.1718 37.656 82.926C35.325 82.5461 33.8008 80.7361 33.8008 78.3004C33.7784 73.943 33.7784 69.5855 33.8008 65.2281C33.8008 64.6024 33.6663 64.2896 33.0612 63.9767C30.5508 62.703 29.2956 60.5355 29.2284 57.7869C29.1612 54.5915 29.2284 51.396 29.3405 48.2006C29.3853 46.6587 30.2594 45.4297 31.4025 44.4241C33.1284 42.9046 35.2129 42.1895 37.4543 41.832C37.5888 41.8097 37.7233 41.7873 37.9474 41.7426C37.6112 41.2957 37.275 40.9382 37.006 40.5359C35.3474 37.8991 35.056 35.0836 35.8853 32.1339C36.356 30.458 37.5888 29.3407 39.2922 29.0502C40.6595 28.8044 42.1388 28.7374 43.506 28.9161C46.1061 29.2737 47.5181 31.1284 47.6974 33.9663C47.8543 36.8042 47.3612 39.441 45.2543 41.6756ZM33.756 61.2952C33.756 60.826 33.756 60.5131 33.756 60.2226C33.756 57.0048 33.756 53.787 33.756 50.5692C33.756 49.5637 34.2715 49.005 35.0784 49.005C35.8853 49.005 36.4008 49.6084 36.4233 50.5692C36.4233 50.7927 36.4233 51.0161 36.4233 51.2396C36.4233 60.0662 36.4233 68.8928 36.4233 77.7194C36.4233 78.0546 36.4008 78.3898 36.4457 78.725C36.6026 79.9093 37.8353 80.6244 38.9336 80.1774C39.7629 79.8422 40.2112 79.1048 40.2112 78.0546C40.2112 74.4346 40.2112 70.8369 40.2112 67.2169C40.2112 66.904 40.2112 66.5912 40.256 66.3007C40.3681 65.675 40.794 65.3398 41.3991 65.2728C42.0491 65.2057 42.5647 65.4962 42.7664 66.1219C42.8785 66.4571 42.8785 66.837 42.8785 67.1945C42.8785 70.7252 42.8785 74.2558 42.8785 77.7641C42.8785 78.0993 42.8785 78.4345 42.9233 78.7697C43.0578 79.6858 43.8871 80.3562 44.806 80.3115C45.7026 80.2892 46.4871 79.6188 46.5992 78.7473C46.644 78.4121 46.6216 78.0769 46.6216 77.7417C46.6216 68.8258 46.6216 59.9098 46.6216 51.0161C46.6216 50.6363 46.6216 50.234 46.7561 49.8765C46.9578 49.2508 47.4509 48.938 48.1233 49.0274C48.7733 49.0944 49.1992 49.4743 49.2888 50.1447C49.3337 50.4128 49.3112 50.7033 49.3112 50.9715C49.3112 54.0999 49.3112 57.2506 49.3112 60.379C49.3112 60.6695 49.3112 60.9377 49.3112 61.3176C50.7681 60.5802 51.0819 59.3958 51.0819 58.0998C51.1044 55.3512 51.0147 52.6027 51.0819 49.8542C51.1268 47.6866 50.1181 46.2788 48.213 45.4073C47.563 45.1168 46.8681 44.8487 46.1733 44.6699C43.506 43.9995 40.8164 44.0442 38.1267 44.4241C36.4905 44.6476 34.8991 45.0722 33.5319 46.033C32.6577 46.6364 31.9181 47.3961 31.8956 48.5134C31.806 51.5301 31.7388 54.5691 31.7612 57.5858C31.8508 58.9936 32.3215 60.2897 33.756 61.2952ZM45.2319 35.1283C45.1871 35.1059 45.1423 35.0836 45.075 35.0612C44.9854 34.4132 44.9405 33.7428 44.806 33.0948C44.5819 32.1563 43.9319 31.5976 42.9905 31.5306C42.0716 31.4635 41.1526 31.4412 40.256 31.5529C39.2698 31.6647 38.5526 32.2457 38.3284 33.2512C37.925 35.1506 38.0371 37.0053 38.956 38.7483C39.5164 39.7985 40.3457 40.4913 41.6009 40.4913C42.8336 40.4689 43.7526 39.7762 44.2009 38.7036C44.6492 37.5193 44.8957 36.3126 45.2319 35.1283ZM25.5077 68.4235C27.0542 69.3844 28.7801 70.0548 30.4612 70.7922C31.2232 71.1274 31.9853 70.7475 32.2543 70.0324C32.5008 69.3621 32.187 68.6693 31.4698 68.3118C31.3129 68.2448 31.156 68.1777 30.9991 68.133C18.5594 63.1946 11.2076 50.748 12.9559 37.4969C15.0404 21.475 30.4387 10.2797 46.4871 13.1176C61.5044 15.7768 71.9493 29.5195 70.1113 44.5359C68.7217 55.8875 62.4458 63.7309 51.9113 68.2001C51.5975 68.3342 51.2837 68.4235 51.0147 68.6246C50.5216 68.9822 50.3199 69.4738 50.5216 70.0771C50.7233 70.7028 51.194 71.038 51.844 70.9933C52.1354 70.971 52.4492 70.8592 52.7182 70.7699C67.2872 65.2504 75.6476 49.8765 72.3079 34.6813C68.3631 16.7376 49.6923 5.89992 32.187 11.4417C18.9852 15.598 10.1766 27.5307 10.0645 43.2174C10.3783 53.1166 15.4214 62.2114 25.5077 68.4235ZM39.0905 21.5197C26.068 23.1062 18.0439 36.469 22.818 48.6251C23.468 50.3011 24.5215 51.8429 25.4853 53.4071C25.9336 54.1222 26.7853 54.2116 27.3905 53.787C28.018 53.3401 28.1301 52.6027 27.6594 51.8653C27.5474 51.7089 27.4353 51.5524 27.3232 51.396C23.6025 45.8543 22.9749 39.955 25.8663 33.9439C28.7353 27.9776 33.6663 24.6257 40.3233 24.1118C52.5388 23.1732 61.7958 34.8825 58.1423 46.547C57.5371 48.4687 56.6182 50.234 55.4078 51.8429C54.982 52.4239 54.9147 53.0273 55.3854 53.6083C55.7664 54.0775 56.3044 54.2786 56.8871 53.9881C57.2233 53.8094 57.5147 53.5189 57.7389 53.2284C60.0027 50.167 61.3027 46.7034 61.5941 42.9046C62.4682 31.2848 53.2337 21.3632 41.2198 21.3632C40.7043 21.4079 39.875 21.4303 39.0905 21.5197ZM6.43346 42.7258C7.3076 42.7035 7.86795 42.1672 7.89037 41.4298C7.91278 40.67 7.33002 40.089 6.43346 40.0667C4.77483 40.0443 3.09379 40.0443 1.43516 40.0667C0.538607 40.089 0.0230876 40.603 0.000673677 41.3627C-0.0217402 42.1672 0.516193 42.7035 1.45758 42.7258C2.28689 42.7482 3.1162 42.7258 3.96793 42.7258C4.77483 42.7482 5.60415 42.7705 6.43346 42.7258ZM79.0545 40.0667C78.27 40.0667 77.4855 40.0667 76.7234 40.0667C76.6786 40.0667 76.6114 40.0667 76.5665 40.0667C75.6924 40.1337 75.1321 40.6253 75.1096 41.3627C75.0872 42.1225 75.67 42.7258 76.5665 42.7258C78.2252 42.7482 79.9062 42.7482 81.5648 42.7258C82.4614 42.7035 82.9769 42.1895 82.9993 41.4298C83.0217 40.6253 82.4838 40.089 81.5424 40.0667C80.7355 40.0443 79.9062 40.0667 79.0545 40.0667ZM40.1664 6.45857C40.1888 7.33005 40.7043 7.86635 41.4664 7.8887C42.2733 7.91104 42.8336 7.3524 42.8336 6.45857C42.856 4.78263 42.856 3.12904 42.8336 1.4531C42.8336 0.60396 42.2957 0.0229684 41.5336 0.000622575C40.7491 -0.0217232 40.1888 0.559268 40.1664 1.4531C40.144 2.25755 40.1664 3.062 40.1664 3.86645C40.1664 4.73794 40.144 5.58708 40.1664 6.45857ZM17.8645 16.0226C16.5421 14.6595 15.2197 13.3187 13.8525 12.0227C13.3594 11.5534 12.6869 11.6428 12.1714 12.1121C11.6335 12.6037 11.499 13.2964 11.9921 13.8327C13.2697 15.2181 14.6145 16.5589 16.0266 17.8102C16.2956 18.056 16.9904 18.056 17.3939 17.8996C17.7525 17.7656 17.9766 17.2516 18.2232 16.9388C18.0663 16.5142 18.0439 16.2013 17.8645 16.0226ZM70.47 11.9109C70.0217 11.7769 69.3044 11.8886 68.9682 12.1791C67.7131 13.274 66.5699 14.5031 65.4044 15.6874C64.7544 16.3354 64.7096 17.1175 65.2475 17.6762C65.8303 18.2795 66.5924 18.2572 67.3096 17.5644C68.4527 16.4471 69.6182 15.3075 70.7389 14.1455C71.0079 13.855 71.1648 13.4752 71.4562 12.9835C71.0975 12.5813 70.851 12.0227 70.47 11.9109ZM13.8749 70.7922C15.2197 69.4961 16.5421 68.2001 17.8197 66.837C18.3128 66.3007 18.2456 65.6303 17.7301 65.1163C17.2145 64.6024 16.5421 64.4907 16.0042 65.0046C14.6369 66.2783 13.3145 67.5967 12.0594 68.9598C11.8128 69.2503 11.768 69.9431 11.9249 70.3229C12.0818 70.7028 12.6197 70.9263 12.9559 71.1944C13.3818 70.9933 13.6956 70.9486 13.8749 70.7922ZM70.9631 68.9375C69.6631 67.5967 68.3631 66.2783 66.9958 65.0046C66.4579 64.513 65.7855 64.6024 65.2699 65.1163C64.7544 65.6303 64.6648 66.323 65.1803 66.837C66.4579 68.2001 67.7803 69.5185 69.1475 70.7699C69.4389 71.0157 70.1338 71.038 70.5148 70.8816C70.8734 70.7475 71.0976 70.2335 71.3665 69.8984C71.2096 69.4738 71.1424 69.1386 70.9631 68.9375Z" fill="black"/>
</svg>
