<svg width="88" height="88" viewBox="0 0 88 88" fill="none" xmlns="http://www.w3.org/2000/svg">
<path d="M29.8538 85.0682C29.8538 84.1225 29.8538 83.2477 29.8538 82.3729C32.0301 82.0656 34.2301 81.8291 36.3828 81.4272C44 80.0322 50.9075 76.9586 57.2946 72.6556C65.4559 67.1467 72.1032 60.101 77.8516 52.1805C78.8688 50.762 79.8387 49.3197 80.8323 47.8775C81.6129 46.7426 81.9677 46.6008 83.2688 47.05C83.671 47.1918 84.0968 47.31 84.6172 47.4992C83.9785 44.6384 83.3871 41.9194 82.7484 39.0586C80.1226 40.5244 77.5677 41.9194 74.8237 43.4562C75.5806 43.669 76.1247 43.8109 76.6688 43.9527C78.0645 44.331 78.443 45.3004 77.5914 46.4825C74.9183 50.1472 71.8903 53.5046 68.5312 56.5545C59.4473 64.7824 48.8731 70.0312 36.8323 72.2773C36.4301 72.3482 36.028 72.4191 35.6021 72.4901C35.2 72.561 34.7742 72.6083 34.2774 72.6792C34.1355 71.7808 33.9935 70.906 33.8516 69.9366C34.9161 69.7474 35.9097 69.511 36.9269 69.3692C37.4946 69.2982 37.7075 69.0618 37.8022 68.4944C38.8194 61.3305 39.9312 54.1902 40.9011 47.0263C41.0903 45.5604 40.8065 44.0236 40.7355 42.5341C40.6882 41.8485 40.6172 41.1392 40.5226 40.2171C40.0495 40.8318 39.7183 41.281 39.3634 41.7066C37.6129 44 35.8387 46.2934 34.1118 48.6341C33.3548 49.6744 32.4323 50.2418 31.1312 50.2418C30.2086 50.2654 29.3097 50.4073 28.3871 50.4546C27.1806 50.5492 26.2344 50.0999 25.6194 49.036C25.0043 47.9957 25.0753 46.9318 25.7849 45.9624C29.5935 40.7609 33.4022 35.5594 37.2108 30.3815C38.1097 29.1521 39.4108 28.4428 40.9484 27.9463C39.4344 26.1967 38.8194 24.187 39.1742 21.9409C39.4108 20.4277 40.1204 19.151 41.2086 18.087C43.4086 15.9119 46.886 15.439 49.5591 16.9285C52.729 18.6781 53.6989 21.5153 52.6817 26.2203C53.8882 25.2746 55.0237 24.3998 56.1591 23.525C58.5484 21.6572 60.9613 19.7657 63.3505 17.8979C64.9828 16.6212 66.6624 16.8812 67.8452 18.5836C68.2946 19.2456 68.7441 19.9076 69.1936 20.5696C70.2344 22.13 69.9742 23.6196 68.4839 24.7781C64.5097 27.8044 60.5591 30.8544 56.5613 33.8334C55.9226 34.3299 55.686 34.7792 55.828 35.583C56.1355 37.3563 56.3011 39.1531 56.5849 40.9264C56.6323 41.2101 56.8925 41.5411 57.1527 41.683C58.8086 42.5814 60.4882 43.4799 62.1677 44.3074C63.1376 44.7802 63.7054 45.5132 64.0129 46.5535C64.7699 49.1779 65.5742 51.8023 66.4022 54.5922C69.2645 52.0387 71.7957 49.3197 74.1613 46.2461C72.9548 45.9387 71.8903 45.655 70.8021 45.3949C70.0925 45.2294 69.6194 44.8512 69.5247 44.1182C69.4301 43.4089 69.8086 42.9597 70.4 42.6287C74.5398 40.3353 78.6559 38.0419 82.7957 35.7485C83.9548 35.1102 84.8301 35.5121 85.114 36.8125C86.0366 40.9264 86.9591 45.0403 87.8581 49.1779C88.1419 50.4782 87.1957 51.3294 85.9419 50.9511C85.1613 50.7147 84.357 50.4782 83.6 50.1709C83.0086 49.9344 82.7247 50.0999 82.3935 50.5965C78.9871 55.6797 75.2021 60.4793 70.9204 64.8769C63.1613 72.8447 54.2667 79.0629 43.5979 82.5621C39.3871 83.9334 35.0817 84.7609 30.6817 85.0919C30.4688 85.0682 30.2323 85.0682 29.8538 85.0682ZM65.3849 19.9312C61.4108 23.0285 57.5548 26.0785 53.6753 29.0575C53.1785 29.4358 52.4688 29.6959 51.8301 29.7668C48.8258 30.0742 45.8215 30.3106 42.8172 30.547C41.2086 30.6652 39.9785 31.3509 39.0323 32.6749C35.5785 37.4272 32.0774 42.1558 28.6237 46.9081C28.4817 47.0973 28.3634 47.3337 28.1742 47.6411C29.0731 47.5701 29.8301 47.4519 30.6108 47.4283C31.3204 47.4283 31.7226 47.0973 32.1247 46.5535C34.7979 42.9833 37.5183 39.4369 40.2151 35.8904C40.6882 35.2757 41.1849 34.7319 42.0602 34.9919C42.9118 35.252 43.0774 35.9613 43.1247 36.7415C43.2667 38.6803 43.4796 40.619 43.5979 42.5578C43.6925 44.0236 43.9527 45.5368 43.7634 46.979C43.1957 51.6131 42.4387 56.2235 41.7763 60.834C41.4215 63.3401 41.043 65.8463 40.6645 68.518C41.7763 68.187 42.7226 67.8324 43.7161 67.6432C44.5204 67.4777 44.7806 67.0285 44.8989 66.2719C45.9871 59.8882 47.0989 53.5282 48.2108 47.1682C48.471 45.726 49.2989 45.324 50.6473 45.9624C52.4215 46.8135 54.172 47.7829 55.9935 48.5395C57.6731 49.2251 58.6194 50.36 59.1398 52.086C59.8022 54.2848 60.6538 56.4127 61.4581 58.6588C62.2387 58.0677 62.972 57.5476 63.6107 56.9565C63.8237 56.7673 63.9419 56.2945 63.871 56.0107C63.0903 53.2208 62.2151 50.4782 61.4344 47.6883C61.2688 47.1209 60.9849 46.7899 60.4645 46.5535C58.6667 45.655 56.8925 44.7093 55.1183 43.8109C54.3849 43.4562 53.9828 42.9597 53.8882 42.1322C53.6043 39.6497 53.2495 37.1435 52.8946 34.6609C52.7527 33.6916 52.9656 32.9823 53.8172 32.3675C58.0043 29.223 62.1441 26.0548 66.3075 22.8866C66.5441 22.7211 66.757 22.532 67.0172 22.2955C66.4731 21.4917 65.9527 20.7587 65.3849 19.9312ZM47.7849 66.1773C51.7118 64.6405 55.2839 62.7727 58.6667 60.5502C58.8323 60.432 58.8796 59.9828 58.8086 59.7464C57.9333 57.2165 57.0344 54.6867 56.1118 52.1805C56.0409 51.9678 55.9226 51.7077 55.7333 51.6131C54.1011 50.7856 52.4688 50.0054 50.7419 49.1779C49.7484 54.8759 48.7785 60.4557 47.7849 66.1773ZM46.2237 18.9146C43.8344 18.9146 41.9419 20.806 41.9419 23.1703C41.9656 25.511 43.8581 27.3788 46.1763 27.4025C48.5419 27.4261 50.4581 25.4874 50.4344 23.1231C50.4344 20.7587 48.5892 18.9146 46.2237 18.9146ZM29.3097 64.4514C28.7419 65.1134 28.2452 65.7517 27.6538 66.3192C27.2516 66.6975 27.2043 67.0048 27.3935 67.525C27.6301 68.1634 28.0559 68.0924 28.5054 68.0924C31.0839 68.0924 31.2258 68.2343 31.2258 70.7878C31.2258 72.0881 31.2258 73.3885 31.2258 74.6889C31.2258 76.1784 30.7763 76.604 29.2624 76.6276C29.0021 76.6276 28.7183 76.6513 28.4581 76.6276C27.9376 76.5803 27.6065 76.6749 27.3699 77.2423C27.1333 77.8098 27.3462 78.0935 27.7011 78.4481C29.5935 80.3396 29.5935 80.4815 27.6774 82.3966C26.7075 83.3659 25.7613 84.3353 24.7914 85.281C23.9871 86.0613 23.3011 86.0613 22.4731 85.281C22.1892 85.021 21.9054 84.7609 21.6688 84.4535C21.3376 84.0516 21.0301 83.9334 20.4624 84.1462C19.871 84.3826 19.871 84.7609 19.871 85.2574C19.871 87.8581 19.729 88 17.1269 88C15.7785 88 14.4065 88 13.0581 88C11.8989 88 11.3785 87.4799 11.3548 86.3213C11.3548 85.9667 11.3312 85.612 11.3548 85.2574C11.4022 84.69 11.2366 84.3826 10.6925 84.1225C10.0538 83.8151 9.84086 84.2171 9.50968 84.5244C7.71183 86.2977 7.47527 86.2977 5.67742 84.5244C4.68387 83.5551 3.71398 82.5621 2.74409 81.569C1.96344 80.7652 1.96344 80.0795 2.72043 79.252C2.98065 78.9683 3.24086 78.6846 3.54839 78.4481C3.95054 78.1171 4.09247 77.8098 3.85591 77.2423C3.61935 76.6749 3.26452 76.6276 2.76774 76.6276C0.11828 76.5803 0 76.4621 0 73.8614C0 72.5373 0 71.2133 0 69.8657C0 68.5653 0.496774 68.0924 1.75054 68.0688C2.10538 68.0688 2.46022 68.0451 2.81505 68.0688C3.35914 68.1397 3.64301 67.9269 3.87957 67.4068C4.13978 66.863 3.87957 66.6029 3.57204 66.2719C1.65591 64.3331 1.65591 64.2149 3.5957 62.2762C4.51828 61.3541 5.44086 60.432 6.36344 59.5336C7.28602 58.6351 7.92473 58.6351 8.87097 59.5336C9.10753 59.77 9.34409 59.9828 9.55699 60.2192C9.88817 60.5739 10.1484 60.834 10.7398 60.5739C11.2839 60.3138 11.3785 60.0301 11.3785 59.4863C11.3785 56.8146 11.4968 56.6964 14.1699 56.6964C15.5183 56.6964 16.8903 56.6964 18.2387 56.6964C19.3505 56.72 19.8473 57.2165 19.871 58.3278C19.871 58.6824 19.8946 59.0371 19.871 59.3917C19.8473 59.9119 19.871 60.3138 20.5097 60.5502C21.1011 60.7867 21.3613 60.5266 21.7161 60.1956C23.5613 58.3514 23.7742 58.3514 25.6194 60.1956C26.5892 61.165 27.5591 62.1107 28.4817 63.0801C28.7656 63.4584 28.9548 63.9076 29.3097 64.4514ZM14.1935 59.6045C14.1935 60.1247 14.1935 60.5502 14.1935 60.9995C14.1935 62.1107 13.9097 62.4417 12.8925 62.82C12.1828 63.0801 11.4495 63.3401 10.7871 63.7184C9.93548 64.1677 9.24946 64.0494 8.65806 63.3638C8.35054 63.0091 8.09032 62.6072 7.83011 62.2762C6.97849 63.1037 6.33979 63.7184 5.51183 64.5223C5.89032 64.806 6.26882 65.0661 6.57634 65.3735C7.4043 66.1773 7.42796 66.5793 6.93118 67.6432C6.6 68.3289 6.31613 69.0382 6.05591 69.7711C5.7957 70.575 5.27527 70.9769 4.42366 70.9769C3.92688 70.9769 3.43011 70.9769 2.90968 70.9769C2.90968 71.9699 2.90968 72.8684 2.90968 73.8141C3.40645 73.8141 3.83226 73.8141 4.28172 73.8141C5.39355 73.8141 5.72473 74.0978 6.10323 75.1145C6.36344 75.8238 6.64731 76.5567 7.00215 77.2187C7.42796 78.0226 7.38065 78.6846 6.71828 79.2993C6.33979 79.6303 5.93763 79.914 5.55914 80.1977C6.3871 81.0253 7.00215 81.6873 7.80645 82.4911C8.11398 82.0892 8.39785 81.7109 8.70538 81.3563C9.32043 80.647 10.0065 80.576 10.8344 81.0253C11.5441 81.4035 12.2774 81.6873 13.0344 81.9237C13.8387 82.2074 14.2409 82.7039 14.2409 83.5551C14.2409 84.0516 14.2409 84.5481 14.2409 85.0682C15.2108 85.0682 16.1097 85.0682 17.0796 85.0682C17.0796 84.5717 17.0796 84.1462 17.0796 83.6969C17.0796 82.5384 17.3398 82.2311 18.4516 81.8528C19.1613 81.5927 19.8946 81.309 20.557 80.9543C21.3376 80.5524 21.9763 80.6706 22.5677 81.2617C22.9226 81.64 23.3011 81.9946 23.5849 82.2547C24.3183 81.569 24.9806 80.978 25.7376 80.2687C25.3828 79.9613 25.0516 79.7012 24.7204 79.3702C23.8688 78.5427 23.8452 78.1408 24.3419 77.1005C24.6495 76.4385 24.9806 75.7528 25.1699 75.0672C25.4301 74.1687 25.9742 73.7195 26.8968 73.7668C27.3935 73.7904 27.8667 73.7668 28.3398 73.7668C28.3398 72.7501 28.3398 71.8517 28.3398 70.9296C27.8667 70.9296 27.4409 70.9296 27.0387 70.9296C25.8323 70.9296 25.5247 70.6695 25.1226 69.511C24.886 68.8254 24.6022 68.1161 24.271 67.4777C23.8452 66.6738 23.9398 65.9882 24.6021 65.4207C24.9806 65.0897 25.4065 64.8297 25.714 64.5932C24.8624 63.7184 24.2473 63.0801 23.5376 62.3471C23.2538 62.6545 22.9699 62.9855 22.6624 63.2929C21.8581 64.0967 21.4559 64.1204 20.4624 63.6475C19.7763 63.3165 19.0667 63.0091 18.3333 62.7727C17.4344 62.489 17.0323 61.9215 17.0796 60.9995C17.1032 60.5266 17.0796 60.0774 17.0796 59.5809C16.0624 59.6045 15.1871 59.6045 14.1935 59.6045ZM88 8.13326C87.8817 8.34605 87.6925 8.77163 87.3849 9.10263C86.4387 10.1193 85.4925 11.1359 84.4753 12.0817C83.9548 12.5782 83.8602 13.051 84.0022 13.7367C84.286 15.1553 84.5462 16.5739 84.6645 18.0161C84.7118 18.5126 84.4753 19.2692 84.1204 19.5293C83.7419 19.7894 82.9613 19.7657 82.5118 19.5529C81.1871 18.9382 79.9333 18.1343 78.6086 17.4723C78.3247 17.3305 77.8516 17.3305 77.5914 17.4723C76.3376 18.1107 75.1075 18.82 73.8538 19.5056C73.2624 19.8366 72.6473 20.0494 72.0323 19.6002C71.4172 19.1746 71.3462 18.5599 71.4645 17.8743C71.7247 16.4557 71.914 15.0134 72.1742 13.5948C72.2688 13.0274 72.1978 12.6018 71.7484 12.1762C70.7075 11.1832 69.6667 10.1666 68.7204 9.05535C68.3892 8.65341 68.129 7.94412 68.271 7.4949C68.4129 7.06932 69.0516 6.6201 69.5484 6.52552C70.8968 6.21816 72.2688 6.02902 73.6645 5.86351C74.2796 5.79258 74.5871 5.53251 74.8237 4.98872C75.4151 3.6647 76.0538 2.36432 76.6452 1.06394C76.929 0.449221 77.3312 0.0236432 78.0409 0C78.7505 0 79.1763 0.425578 79.4602 1.01666C80.0753 2.36432 80.7376 3.68834 81.329 5.036C81.5656 5.55615 81.8731 5.79258 82.4409 5.86351C83.8839 6.02902 85.3032 6.26545 86.7226 6.52552C87.5269 6.66738 87.9763 7.18753 88 8.13326ZM81.4473 15.7464C81.2817 14.7061 81.2107 13.8549 80.9978 13.0274C80.7849 12.1526 81.0215 11.4906 81.6602 10.8759C82.2989 10.2612 82.914 9.59914 83.6237 8.8662C82.6065 8.7007 81.8021 8.55884 80.9742 8.46427C80.1226 8.36969 79.5548 7.9914 79.2237 7.18753C78.9161 6.40731 78.514 5.67437 78.0645 4.72864C77.6151 5.65073 77.2129 6.40731 76.9054 7.18753C76.5742 7.9914 76.0065 8.36969 75.1548 8.46427C74.3269 8.55884 73.4989 8.72434 72.671 8.84256C72.6237 8.93713 72.5527 9.00806 72.5054 9.10263C73.1914 9.71736 73.8538 10.3084 74.5398 10.9232C75.1548 11.467 75.3441 12.1053 75.1548 12.9092C74.9656 13.784 74.871 14.6824 74.7054 15.7227C75.628 15.2262 76.4086 14.8006 77.1656 14.3751C77.7806 14.0204 78.3957 14.0204 79.0107 14.3751C79.7677 14.8479 80.5247 15.2499 81.4473 15.7464ZM8.51613 72.3482C8.51613 68.4471 11.7097 65.2552 15.6366 65.2552C19.5398 65.2552 22.7333 68.4707 22.7097 72.3955C22.686 76.273 19.5161 79.4412 15.6366 79.4412C11.7333 79.4412 8.51613 76.2493 8.51613 72.3482ZM19.871 72.3246C19.871 70.0075 17.9548 68.0924 15.6366 68.0924C13.271 68.0688 11.3548 70.0075 11.3548 72.3482C11.3548 74.6652 13.271 76.5803 15.5892 76.5803C17.9312 76.604 19.871 74.6652 19.871 72.3246Z" fill="black"/>
</svg>
