<svg width="110" height="36" viewBox="0 0 110 36" fill="none" xmlns="http://www.w3.org/2000/svg">
<rect x="0.5" y="0.5" width="109" height="35" rx="17.5" fill="#EBB1FF"/>
<rect x="0.5" y="0.5" width="109" height="35" rx="17.5" stroke="#6F6F6F"/>
<path d="M31.102 18.114C31.102 17.162 31.3167 16.308 31.746 15.552C32.1753 14.7867 32.7587 14.1893 33.496 13.76C34.2427 13.3307 35.0687 13.116 35.974 13.116C37.038 13.116 37.9667 13.3727 38.76 13.886C39.5533 14.3993 40.132 15.1273 40.496 16.07H38.97C38.6993 15.482 38.3073 15.0293 37.794 14.712C37.29 14.3947 36.6833 14.236 35.974 14.236C35.2927 14.236 34.6813 14.3947 34.14 14.712C33.5987 15.0293 33.174 15.482 32.866 16.07C32.558 16.6487 32.404 17.33 32.404 18.114C32.404 18.8887 32.558 19.57 32.866 20.158C33.174 20.7367 33.5987 21.1847 34.14 21.502C34.6813 21.8193 35.2927 21.978 35.974 21.978C36.6833 21.978 37.29 21.824 37.794 21.516C38.3073 21.1987 38.6993 20.746 38.97 20.158H40.496C40.132 21.0913 39.5533 21.8147 38.76 22.328C37.9667 22.832 37.038 23.084 35.974 23.084C35.0687 23.084 34.2427 22.874 33.496 22.454C32.7587 22.0247 32.1753 21.432 31.746 20.676C31.3167 19.92 31.102 19.066 31.102 18.114ZM42.4165 19.136C42.4165 18.352 42.5751 17.666 42.8925 17.078C43.2098 16.4807 43.6438 16.0187 44.1945 15.692C44.7545 15.3653 45.3751 15.202 46.0565 15.202C46.7285 15.202 47.3118 15.3467 47.8065 15.636C48.3011 15.9253 48.6698 16.2893 48.9125 16.728V15.328H50.2005V23H48.9125V21.572C48.6605 22.02 48.2825 22.3933 47.7785 22.692C47.2838 22.9813 46.7051 23.126 46.0425 23.126C45.3611 23.126 44.7451 22.958 44.1945 22.622C43.6438 22.286 43.2098 21.8147 42.8925 21.208C42.5751 20.6013 42.4165 19.9107 42.4165 19.136ZM48.9125 19.15C48.9125 18.5713 48.7958 18.0673 48.5625 17.638C48.3291 17.2087 48.0118 16.882 47.6105 16.658C47.2185 16.4247 46.7845 16.308 46.3085 16.308C45.8325 16.308 45.3985 16.42 45.0065 16.644C44.6145 16.868 44.3018 17.1947 44.0685 17.624C43.8351 18.0533 43.7185 18.5573 43.7185 19.136C43.7185 19.724 43.8351 20.2373 44.0685 20.676C44.3018 21.1053 44.6145 21.4367 45.0065 21.67C45.3985 21.894 45.8325 22.006 46.3085 22.006C46.7845 22.006 47.2185 21.894 47.6105 21.67C48.0118 21.4367 48.3291 21.1053 48.5625 20.676C48.7958 20.2373 48.9125 19.7287 48.9125 19.15ZM56.5914 15.188C57.5247 15.188 58.2807 15.4727 58.8594 16.042C59.4381 16.602 59.7274 17.414 59.7274 18.478V23H58.4674V18.66C58.4674 17.8947 58.2761 17.3113 57.8934 16.91C57.5107 16.4993 56.9881 16.294 56.3254 16.294C55.6534 16.294 55.1167 16.504 54.7154 16.924C54.3234 17.344 54.1274 17.9553 54.1274 18.758V23H52.8534V15.328H54.1274V16.42C54.3794 16.028 54.7201 15.7247 55.1494 15.51C55.5881 15.2953 56.0687 15.188 56.5914 15.188ZM65.1645 21.824L67.5445 15.328H68.9025L65.8925 23H64.4085L61.3985 15.328H62.7705L65.1645 21.824ZM70.1801 19.136C70.1801 18.352 70.3388 17.666 70.6561 17.078C70.9735 16.4807 71.4075 16.0187 71.9581 15.692C72.5181 15.3653 73.1388 15.202 73.8201 15.202C74.4921 15.202 75.0755 15.3467 75.5701 15.636C76.0648 15.9253 76.4335 16.2893 76.6761 16.728V15.328H77.9641V23H76.6761V21.572C76.4241 22.02 76.0461 22.3933 75.5421 22.692C75.0475 22.9813 74.4688 23.126 73.8061 23.126C73.1248 23.126 72.5088 22.958 71.9581 22.622C71.4075 22.286 70.9735 21.8147 70.6561 21.208C70.3388 20.6013 70.1801 19.9107 70.1801 19.136ZM76.6761 19.15C76.6761 18.5713 76.5595 18.0673 76.3261 17.638C76.0928 17.2087 75.7755 16.882 75.3741 16.658C74.9821 16.4247 74.5481 16.308 74.0721 16.308C73.5961 16.308 73.1621 16.42 72.7701 16.644C72.3781 16.868 72.0655 17.1947 71.8321 17.624C71.5988 18.0533 71.4821 18.5573 71.4821 19.136C71.4821 19.724 71.5988 20.2373 71.8321 20.676C72.0655 21.1053 72.3781 21.4367 72.7701 21.67C73.1621 21.894 73.5961 22.006 74.0721 22.006C74.5481 22.006 74.9821 21.894 75.3741 21.67C75.7755 21.4367 76.0928 21.1053 76.3261 20.676C76.5595 20.2373 76.6761 19.7287 76.6761 19.15Z" fill="black"/>
</svg>
