<svg width="152" height="44" viewBox="0 0 152 44" fill="none" xmlns="http://www.w3.org/2000/svg">
<g filter="url(#filter0_d_351_97)">
<rect x="30.5" y="2.5" width="118" height="35" rx="17.5" fill="#FEDBFF"/>
<rect x="30.5" y="2.5" width="118" height="35" rx="17.5" stroke="#6F6F6F"/>
<path d="M57.116 15.242C58.18 15.242 59.0993 15.4427 59.874 15.844C60.658 16.236 61.2553 16.8007 61.666 17.538C62.086 18.2753 62.296 19.1433 62.296 20.142C62.296 21.1407 62.086 22.0087 61.666 22.746C61.2553 23.474 60.658 24.034 59.874 24.426C59.0993 24.8087 58.18 25 57.116 25H54.078V15.242H57.116ZM57.116 23.95C58.376 23.95 59.3373 23.6187 60 22.956C60.6627 22.284 60.994 21.346 60.994 20.142C60.994 18.9287 60.658 17.9813 59.986 17.3C59.3233 16.6187 58.3667 16.278 57.116 16.278H55.352V23.95H57.116ZM64.0004 21.136C64.0004 20.352 64.1591 19.666 64.4764 19.078C64.7938 18.4807 65.2278 18.0187 65.7784 17.692C66.3384 17.3653 66.9591 17.202 67.6404 17.202C68.3124 17.202 68.8958 17.3467 69.3904 17.636C69.8851 17.9253 70.2538 18.2893 70.4964 18.728V17.328H71.7844V25H70.4964V23.572C70.2444 24.02 69.8664 24.3933 69.3624 24.692C68.8678 24.9813 68.2891 25.126 67.6264 25.126C66.9451 25.126 66.3291 24.958 65.7784 24.622C65.2278 24.286 64.7938 23.8147 64.4764 23.208C64.1591 22.6013 64.0004 21.9107 64.0004 21.136ZM70.4964 21.15C70.4964 20.5713 70.3798 20.0673 70.1464 19.638C69.9131 19.2087 69.5958 18.882 69.1944 18.658C68.8024 18.4247 68.3684 18.308 67.8924 18.308C67.4164 18.308 66.9824 18.42 66.5904 18.644C66.1984 18.868 65.8858 19.1947 65.6524 19.624C65.4191 20.0533 65.3024 20.5573 65.3024 21.136C65.3024 21.724 65.4191 22.2373 65.6524 22.676C65.8858 23.1053 66.1984 23.4367 66.5904 23.67C66.9824 23.894 67.4164 24.006 67.8924 24.006C68.3684 24.006 68.8024 23.894 69.1944 23.67C69.5958 23.4367 69.9131 23.1053 70.1464 22.676C70.3798 22.2373 70.4964 21.7287 70.4964 21.15ZM75.9914 18.378V22.9C75.9914 23.2733 76.0707 23.5393 76.2294 23.698C76.388 23.8473 76.6634 23.922 77.0554 23.922H77.9934V25H76.8454C76.136 25 75.604 24.8367 75.2494 24.51C74.8947 24.1833 74.7174 23.6467 74.7174 22.9V18.378H73.7234V17.328H74.7174V15.396H75.9914V17.328H77.9934V18.378H75.9914ZM79.561 21.136C79.561 20.352 79.7197 19.666 80.037 19.078C80.3543 18.4807 80.7883 18.0187 81.339 17.692C81.899 17.3653 82.5197 17.202 83.201 17.202C83.873 17.202 84.4563 17.3467 84.951 17.636C85.4457 17.9253 85.8143 18.2893 86.057 18.728V17.328H87.345V25H86.057V23.572C85.805 24.02 85.427 24.3933 84.923 24.692C84.4283 24.9813 83.8497 25.126 83.187 25.126C82.5057 25.126 81.8897 24.958 81.339 24.622C80.7883 24.286 80.3543 23.8147 80.037 23.208C79.7197 22.6013 79.561 21.9107 79.561 21.136ZM86.057 21.15C86.057 20.5713 85.9403 20.0673 85.707 19.638C85.4737 19.2087 85.1563 18.882 84.755 18.658C84.363 18.4247 83.929 18.308 83.453 18.308C82.977 18.308 82.543 18.42 82.151 18.644C81.759 18.868 81.4463 19.1947 81.213 19.624C80.9797 20.0533 80.863 20.5573 80.863 21.136C80.863 21.724 80.9797 22.2373 81.213 22.676C81.4463 23.1053 81.759 23.4367 82.151 23.67C82.543 23.894 82.977 24.006 83.453 24.006C83.929 24.006 84.363 23.894 84.755 23.67C85.1563 23.4367 85.4737 23.1053 85.707 22.676C85.9403 22.2373 86.057 21.7287 86.057 21.15ZM91.2719 18.756C91.5333 18.2987 91.9159 17.9253 92.4199 17.636C92.9239 17.3467 93.4979 17.202 94.1419 17.202C94.8326 17.202 95.4533 17.3653 96.0039 17.692C96.5546 18.0187 96.9886 18.4807 97.3059 19.078C97.6233 19.666 97.7819 20.352 97.7819 21.136C97.7819 21.9107 97.6233 22.6013 97.3059 23.208C96.9886 23.8147 96.5499 24.286 95.9899 24.622C95.4393 24.958 94.8233 25.126 94.1419 25.126C93.4793 25.126 92.8959 24.9813 92.3919 24.692C91.8973 24.4027 91.5239 24.034 91.2719 23.586V25H89.9979V14.64H91.2719V18.756ZM96.4799 21.136C96.4799 20.5573 96.3633 20.0533 96.1299 19.624C95.8966 19.1947 95.5793 18.868 95.1779 18.644C94.7859 18.42 94.3519 18.308 93.8759 18.308C93.4093 18.308 92.9753 18.4247 92.5739 18.658C92.1819 18.882 91.8646 19.2133 91.6219 19.652C91.3886 20.0813 91.2719 20.5807 91.2719 21.15C91.2719 21.7287 91.3886 22.2373 91.6219 22.676C91.8646 23.1053 92.1819 23.4367 92.5739 23.67C92.9753 23.894 93.4093 24.006 93.8759 24.006C94.3519 24.006 94.7859 23.894 95.1779 23.67C95.5793 23.4367 95.8966 23.1053 96.1299 22.676C96.3633 22.2373 96.4799 21.724 96.4799 21.136ZM99.4829 21.136C99.4829 20.352 99.6415 19.666 99.9589 19.078C100.276 18.4807 100.71 18.0187 101.261 17.692C101.821 17.3653 102.442 17.202 103.123 17.202C103.795 17.202 104.378 17.3467 104.873 17.636C105.368 17.9253 105.736 18.2893 105.979 18.728V17.328H107.267V25H105.979V23.572C105.727 24.02 105.349 24.3933 104.845 24.692C104.35 24.9813 103.772 25.126 103.109 25.126C102.428 25.126 101.812 24.958 101.261 24.622C100.71 24.286 100.276 23.8147 99.9589 23.208C99.6415 22.6013 99.4829 21.9107 99.4829 21.136ZM105.979 21.15C105.979 20.5713 105.862 20.0673 105.629 19.638C105.396 19.2087 105.078 18.882 104.677 18.658C104.285 18.4247 103.851 18.308 103.375 18.308C102.899 18.308 102.465 18.42 102.073 18.644C101.681 18.868 101.368 19.1947 101.135 19.624C100.902 20.0533 100.785 20.5573 100.785 21.136C100.785 21.724 100.902 22.2373 101.135 22.676C101.368 23.1053 101.681 23.4367 102.073 23.67C102.465 23.894 102.899 24.006 103.375 24.006C103.851 24.006 104.285 23.894 104.677 23.67C105.078 23.4367 105.396 23.1053 105.629 22.676C105.862 22.2373 105.979 21.7287 105.979 21.15ZM112.636 25.126C112.048 25.126 111.52 25.028 111.054 24.832C110.587 24.6267 110.218 24.3467 109.948 23.992C109.677 23.628 109.528 23.2127 109.5 22.746H110.816C110.853 23.1287 111.03 23.4413 111.348 23.684C111.674 23.9267 112.099 24.048 112.622 24.048C113.107 24.048 113.49 23.9407 113.77 23.726C114.05 23.5113 114.19 23.2407 114.19 22.914C114.19 22.578 114.04 22.3307 113.742 22.172C113.443 22.004 112.981 21.8407 112.356 21.682C111.786 21.5327 111.32 21.3833 110.956 21.234C110.601 21.0753 110.293 20.8467 110.032 20.548C109.78 20.24 109.654 19.8387 109.654 19.344C109.654 18.952 109.77 18.5927 110.004 18.266C110.237 17.9393 110.568 17.6827 110.998 17.496C111.427 17.3 111.917 17.202 112.468 17.202C113.317 17.202 114.003 17.4167 114.526 17.846C115.048 18.2753 115.328 18.8633 115.366 19.61H114.092C114.064 19.2087 113.9 18.8867 113.602 18.644C113.312 18.4013 112.92 18.28 112.426 18.28C111.968 18.28 111.604 18.378 111.334 18.574C111.063 18.77 110.928 19.0267 110.928 19.344C110.928 19.596 111.007 19.806 111.166 19.974C111.334 20.1327 111.539 20.2633 111.782 20.366C112.034 20.4593 112.379 20.5667 112.818 20.688C113.368 20.8373 113.816 20.9867 114.162 21.136C114.507 21.276 114.801 21.4907 115.044 21.78C115.296 22.0693 115.426 22.4473 115.436 22.914C115.436 23.334 115.319 23.712 115.086 24.048C114.852 24.384 114.521 24.65 114.092 24.846C113.672 25.0327 113.186 25.126 112.636 25.126ZM124.734 20.87C124.734 21.1127 124.72 21.3693 124.692 21.64H118.56C118.607 22.396 118.864 22.9887 119.33 23.418C119.806 23.838 120.38 24.048 121.052 24.048C121.603 24.048 122.06 23.922 122.424 23.67C122.798 23.4087 123.059 23.0633 123.208 22.634H124.58C124.375 23.3713 123.964 23.9733 123.348 24.44C122.732 24.8973 121.967 25.126 121.052 25.126C120.324 25.126 119.671 24.9627 119.092 24.636C118.523 24.3093 118.075 23.8473 117.748 23.25C117.422 22.6433 117.258 21.9433 117.258 21.15C117.258 20.3567 117.417 19.6613 117.734 19.064C118.052 18.4667 118.495 18.0093 119.064 17.692C119.643 17.3653 120.306 17.202 121.052 17.202C121.78 17.202 122.424 17.3607 122.984 17.678C123.544 17.9953 123.974 18.434 124.272 18.994C124.58 19.5447 124.734 20.17 124.734 20.87ZM123.418 20.604C123.418 20.1187 123.311 19.7033 123.096 19.358C122.882 19.0033 122.588 18.7373 122.214 18.56C121.85 18.3733 121.444 18.28 120.996 18.28C120.352 18.28 119.802 18.4853 119.344 18.896C118.896 19.3067 118.64 19.876 118.574 20.604H123.418Z" fill="black"/>
<path d="M16.21 12.14C17.7647 12.14 19.1287 12.448 20.302 13.064C21.49 13.68 22.4067 14.538 23.052 15.638C23.712 16.738 24.042 17.9993 24.042 19.422C24.042 20.566 23.866 21.6513 23.514 22.678C23.1767 23.7047 22.6853 24.5407 22.04 25.186C21.3947 25.8167 20.632 26.132 19.752 26.132C19.048 26.132 18.52 25.9193 18.168 25.494C17.8307 25.054 17.6767 24.4747 17.706 23.756C17.266 24.504 16.6793 25.0907 15.946 25.516C15.2273 25.9267 14.4573 26.132 13.636 26.132C12.536 26.132 11.6707 25.7947 11.04 25.12C10.424 24.4453 10.116 23.536 10.116 22.392C10.116 21.3213 10.336 20.324 10.776 19.4C11.2307 18.4613 11.8613 17.7133 12.668 17.156C13.4747 16.584 14.384 16.298 15.396 16.298C16.188 16.298 16.848 16.4887 17.376 16.87C17.9187 17.2513 18.2853 17.8013 18.476 18.52L18.806 16.584H19.686L18.564 23.03C18.52 23.2647 18.498 23.4993 18.498 23.734C18.498 24.2473 18.6153 24.6507 18.85 24.944C19.0993 25.2373 19.4513 25.384 19.906 25.384C20.566 25.384 21.1453 25.0907 21.644 24.504C22.1427 23.9173 22.524 23.1767 22.788 22.282C23.052 21.3727 23.184 20.456 23.184 19.532C23.184 18.1827 22.8907 17.0093 22.304 16.012C21.732 15.0147 20.9107 14.2447 19.84 13.702C18.7693 13.1593 17.5153 12.888 16.078 12.888C14.3033 12.888 12.69 13.3353 11.238 14.23C9.786 15.11 8.642 16.3127 7.806 17.838C6.98467 19.3487 6.574 21.006 6.574 22.81C6.574 24.1887 6.86 25.3693 7.432 26.352C8.004 27.3493 8.818 28.112 9.874 28.64C10.9447 29.168 12.184 29.432 13.592 29.432C14.8973 29.432 16.1073 29.19 17.222 28.706L17.376 29.454C16.1293 29.9527 14.7947 30.202 13.372 30.202C11.8613 30.202 10.5267 29.9013 9.368 29.3C8.20933 28.7133 7.30733 27.87 6.662 26.77C6.01667 25.6847 5.694 24.4087 5.694 22.942C5.694 20.9327 6.14867 19.1067 7.058 17.464C7.96733 15.8213 9.22133 14.5233 10.82 13.57C12.4187 12.6167 14.2153 12.14 16.21 12.14ZM13.9 25.318C14.5747 25.318 15.2053 25.1493 15.792 24.812C16.3787 24.46 16.87 23.9613 17.266 23.316C17.6767 22.656 17.9407 21.886 18.058 21.006C18.1167 20.7127 18.146 20.4047 18.146 20.082C18.146 19.1873 17.904 18.4687 17.42 17.926C16.9507 17.3687 16.2613 17.09 15.352 17.09C14.5013 17.09 13.746 17.3393 13.086 17.838C12.4407 18.322 11.942 18.96 11.59 19.752C11.238 20.544 11.062 21.38 11.062 22.26C11.062 23.1987 11.3113 23.9467 11.81 24.504C12.3087 25.0467 13.0053 25.318 13.9 25.318Z" fill="black" fill-opacity="0.6"/>
</g>
<defs>
<filter id="filter0_d_351_97" x="0.693359" y="0" width="151.307" height="44" filterUnits="userSpaceOnUse" color-interpolation-filters="sRGB">
<feFlood flood-opacity="0" result="BackgroundImageFix"/>
<feColorMatrix in="SourceAlpha" type="matrix" values="0 0 0 0 0 0 0 0 0 0 0 0 0 0 0 0 0 0 127 0" result="hardAlpha"/>
<feOffset dx="-1" dy="2"/>
<feGaussianBlur stdDeviation="2"/>
<feComposite in2="hardAlpha" operator="out"/>
<feColorMatrix type="matrix" values="0 0 0 0 0 0 0 0 0 0 0 0 0 0 0 0 0 0 0.3 0"/>
<feBlend mode="normal" in2="BackgroundImageFix" result="effect1_dropShadow_351_97"/>
<feBlend mode="normal" in="SourceGraphic" in2="effect1_dropShadow_351_97" result="shape"/>
</filter>
</defs>
</svg>
