<svg width="168" height="54" viewBox="0 0 168 54" fill="none" xmlns="http://www.w3.org/2000/svg">
<g filter="url(#filter0_d_351_92)">
<rect x="28.5" y="2.5" width="119" height="35" rx="17.5" fill="#DEF5FF"/>
<rect x="28.5" y="2.5" width="119" height="35" rx="17.5" stroke="#6F6F6F"/>
<path d="M62.852 15.242V25H61.578V15.242H62.852ZM69.2613 17.188C70.1946 17.188 70.9506 17.4727 71.5293 18.042C72.108 18.602 72.3973 19.414 72.3973 20.478V25H71.1373V20.66C71.1373 19.8947 70.946 19.3113 70.5633 18.91C70.1806 18.4993 69.658 18.294 68.9953 18.294C68.3233 18.294 67.7866 18.504 67.3853 18.924C66.9933 19.344 66.7973 19.9553 66.7973 20.758V25H65.5233V17.328H66.7973V18.42C67.0493 18.028 67.39 17.7247 67.8193 17.51C68.258 17.2953 68.7386 17.188 69.2613 17.188ZM74.5024 21.15C74.5024 20.3567 74.6611 19.666 74.9784 19.078C75.2957 18.4807 75.7344 18.0187 76.2944 17.692C76.8637 17.3653 77.5124 17.202 78.2404 17.202C79.1831 17.202 79.9577 17.4307 80.5644 17.888C81.1804 18.3453 81.5864 18.98 81.7824 19.792H80.4104C80.2797 19.3253 80.0231 18.9567 79.6404 18.686C79.2671 18.4153 78.8004 18.28 78.2404 18.28C77.5124 18.28 76.9244 18.532 76.4764 19.036C76.0284 19.5307 75.8044 20.2353 75.8044 21.15C75.8044 22.074 76.0284 22.788 76.4764 23.292C76.9244 23.796 77.5124 24.048 78.2404 24.048C78.8004 24.048 79.2671 23.9173 79.6404 23.656C80.0137 23.3947 80.2704 23.0213 80.4104 22.536H81.7824C81.5771 23.32 81.1664 23.95 80.5504 24.426C79.9344 24.8927 79.1644 25.126 78.2404 25.126C77.5124 25.126 76.8637 24.9627 76.2944 24.636C75.7344 24.3093 75.2957 23.8473 74.9784 23.25C74.6611 22.6527 74.5024 21.9527 74.5024 21.15ZM85.2563 14.64V25H83.9823V14.64H85.2563ZM94.7316 17.328V25H93.4576V23.866C93.2149 24.258 92.8743 24.566 92.4356 24.79C92.0063 25.0047 91.5303 25.112 91.0076 25.112C90.4103 25.112 89.8736 24.9907 89.3976 24.748C88.9216 24.496 88.5436 24.1227 88.2636 23.628C87.9929 23.1333 87.8576 22.5313 87.8576 21.822V17.328H89.1176V21.654C89.1176 22.41 89.3089 22.9933 89.6916 23.404C90.0743 23.8053 90.5969 24.006 91.2596 24.006C91.9409 24.006 92.4776 23.796 92.8696 23.376C93.2616 22.956 93.4576 22.3447 93.4576 21.542V17.328H94.7316ZM96.9067 21.136C96.9067 20.352 97.0654 19.666 97.3827 19.078C97.7 18.4807 98.134 18.0187 98.6847 17.692C99.2447 17.3653 99.87 17.202 100.561 17.202C101.158 17.202 101.713 17.342 102.227 17.622C102.74 17.8927 103.132 18.252 103.403 18.7V14.64H104.691V25H103.403V23.558C103.151 24.0153 102.777 24.3933 102.283 24.692C101.788 24.9813 101.209 25.126 100.547 25.126C99.8654 25.126 99.2447 24.958 98.6847 24.622C98.134 24.286 97.7 23.8147 97.3827 23.208C97.0654 22.6013 96.9067 21.9107 96.9067 21.136ZM103.403 21.15C103.403 20.5713 103.286 20.0673 103.053 19.638C102.819 19.2087 102.502 18.882 102.101 18.658C101.709 18.4247 101.275 18.308 100.799 18.308C100.323 18.308 99.8887 18.42 99.4967 18.644C99.1047 18.868 98.792 19.1947 98.5587 19.624C98.3254 20.0533 98.2087 20.5573 98.2087 21.136C98.2087 21.724 98.3254 22.2373 98.5587 22.676C98.792 23.1053 99.1047 23.4367 99.4967 23.67C99.8887 23.894 100.323 24.006 100.799 24.006C101.275 24.006 101.709 23.894 102.101 23.67C102.502 23.4367 102.819 23.1053 103.053 22.676C103.286 22.2373 103.403 21.7287 103.403 21.15ZM114.344 20.87C114.344 21.1127 114.33 21.3693 114.302 21.64H108.17C108.216 22.396 108.473 22.9887 108.94 23.418C109.416 23.838 109.99 24.048 110.662 24.048C111.212 24.048 111.67 23.922 112.034 23.67C112.407 23.4087 112.668 23.0633 112.818 22.634H114.19C113.984 23.3713 113.574 23.9733 112.958 24.44C112.342 24.8973 111.576 25.126 110.662 25.126C109.934 25.126 109.28 24.9627 108.702 24.636C108.132 24.3093 107.684 23.8473 107.358 23.25C107.031 22.6433 106.868 21.9433 106.868 21.15C106.868 20.3567 107.026 19.6613 107.344 19.064C107.661 18.4667 108.104 18.0093 108.674 17.692C109.252 17.3653 109.915 17.202 110.662 17.202C111.39 17.202 112.034 17.3607 112.594 17.678C113.154 17.9953 113.583 18.434 113.882 18.994C114.19 19.5447 114.344 20.17 114.344 20.87ZM113.028 20.604C113.028 20.1187 112.92 19.7033 112.706 19.358C112.491 19.0033 112.197 18.7373 111.824 18.56C111.46 18.3733 111.054 18.28 110.606 18.28C109.962 18.28 109.411 18.4853 108.954 18.896C108.506 19.3067 108.249 19.876 108.184 20.604H113.028Z" fill="black"/>
<path d="M162.788 38.0102L156.88 39.8801L155.01 45.7884L151.889 34.8891L162.788 38.0102Z" fill="#A3FF2E" stroke="black" stroke-width="0.8" stroke-miterlimit="10"/>
<path d="M18.728 15.888L17.744 20.496H21.32V21.456H17.528L16.352 27H15.296L16.472 21.456H10.808L9.632 27H8.576L9.752 21.456H5.912V20.496H9.968L10.952 15.888H7.16V14.928H11.144L12.368 9.24H13.424L12.2 14.928H17.864L19.088 9.24H20.144L18.92 14.928H22.568V15.888H18.728ZM17.672 15.888H12.008L11.024 20.496H16.688L17.672 15.888Z" fill="black" fill-opacity="0.6"/>
</g>
<defs>
<filter id="filter0_d_351_92" x="0.912109" y="0" width="166.262" height="53.1745" filterUnits="userSpaceOnUse" color-interpolation-filters="sRGB">
<feFlood flood-opacity="0" result="BackgroundImageFix"/>
<feColorMatrix in="SourceAlpha" type="matrix" values="0 0 0 0 0 0 0 0 0 0 0 0 0 0 0 0 0 0 127 0" result="hardAlpha"/>
<feOffset dx="-1" dy="2"/>
<feGaussianBlur stdDeviation="2"/>
<feComposite in2="hardAlpha" operator="out"/>
<feColorMatrix type="matrix" values="0 0 0 0 0 0 0 0 0 0 0 0 0 0 0 0 0 0 0.3 0"/>
<feBlend mode="normal" in2="BackgroundImageFix" result="effect1_dropShadow_351_92"/>
<feBlend mode="normal" in="SourceGraphic" in2="effect1_dropShadow_351_92" result="shape"/>
</filter>
</defs>
</svg>
