<svg width="121" height="54" viewBox="0 0 121 54" fill="none" xmlns="http://www.w3.org/2000/svg">
<g filter="url(#filter0_d_351_88)">
<rect x="4.5" y="0.5" width="95" height="35" rx="17.5" fill="#FFF7B1"/>
<rect x="4.5" y="0.5" width="95" height="35" rx="17.5" stroke="#6F6F6F"/>
<path d="M38.976 13.312V23H37.702V15.776L34.482 23H33.586L30.352 15.762V23H29.078V13.312H30.45L34.034 21.32L37.618 13.312H38.976ZM48.2446 15.328L43.6246 26.612H42.3086L43.8206 22.916L40.7266 15.328H42.1406L44.5486 21.544L46.9286 15.328H48.2446ZM53.1193 23.098C52.4753 23.098 51.8966 22.986 51.3833 22.762C50.8793 22.5287 50.4826 22.2113 50.1933 21.81C49.9039 21.3993 49.7546 20.928 49.7453 20.396H51.1033C51.1499 20.8533 51.3366 21.2407 51.6633 21.558C51.9993 21.866 52.4846 22.02 53.1193 22.02C53.7259 22.02 54.2019 21.8707 54.5473 21.572C54.9019 21.264 55.0793 20.872 55.0793 20.396C55.0793 20.0227 54.9766 19.7193 54.7713 19.486C54.5659 19.2527 54.3093 19.0753 54.0013 18.954C53.6933 18.8327 53.2779 18.702 52.7553 18.562C52.1113 18.394 51.5933 18.226 51.2013 18.058C50.8186 17.89 50.4873 17.6287 50.2073 17.274C49.9366 16.91 49.8013 16.4247 49.8013 15.818C49.8013 15.286 49.9366 14.8147 50.2073 14.404C50.4779 13.9933 50.8559 13.676 51.3413 13.452C51.8359 13.228 52.4006 13.116 53.0353 13.116C53.9499 13.116 54.6966 13.3447 55.2753 13.802C55.8633 14.2593 56.1946 14.866 56.2693 15.622H54.8693C54.8226 15.2487 54.6266 14.922 54.2813 14.642C53.9359 14.3527 53.4786 14.208 52.9093 14.208C52.3773 14.208 51.9433 14.348 51.6073 14.628C51.2713 14.8987 51.1033 15.2813 51.1033 15.776C51.1033 16.1307 51.2013 16.42 51.3973 16.644C51.6026 16.868 51.8499 17.0407 52.1393 17.162C52.4379 17.274 52.8533 17.4047 53.3853 17.554C54.0293 17.7313 54.5473 17.9087 54.9393 18.086C55.3313 18.254 55.6673 18.52 55.9473 18.884C56.2273 19.2387 56.3673 19.724 56.3673 20.34C56.3673 20.816 56.2413 21.264 55.9893 21.684C55.7373 22.104 55.3639 22.4447 54.8693 22.706C54.3746 22.9673 53.7913 23.098 53.1193 23.098ZM66.5681 24.848L64.6221 22.902C64.1461 23.0327 63.6607 23.098 63.1661 23.098C62.2607 23.098 61.4347 22.888 60.6881 22.468C59.9414 22.0387 59.3487 21.446 58.9101 20.69C58.4807 19.9247 58.2661 19.066 58.2661 18.114C58.2661 17.162 58.4807 16.308 58.9101 15.552C59.3487 14.7867 59.9414 14.194 60.6881 13.774C61.4347 13.3447 62.2607 13.13 63.1661 13.13C64.0807 13.13 64.9114 13.3447 65.6581 13.774C66.4047 14.194 66.9927 14.782 67.4221 15.538C67.8514 16.294 68.0661 17.1527 68.0661 18.114C68.0661 19.0473 67.8607 19.8873 67.4501 20.634C67.0394 21.3807 66.4747 21.9687 65.7561 22.398L68.2201 24.848H66.5681ZM59.5681 18.114C59.5681 18.8887 59.7221 19.57 60.0301 20.158C60.3474 20.746 60.7767 21.1987 61.3181 21.516C61.8687 21.8333 62.4847 21.992 63.1661 21.992C63.8474 21.992 64.4587 21.8333 65.0001 21.516C65.5507 21.1987 65.9801 20.746 66.2881 20.158C66.6054 19.57 66.7641 18.8887 66.7641 18.114C66.7641 17.33 66.6054 16.6487 66.2881 16.07C65.9801 15.482 65.5554 15.0293 65.0141 14.712C64.4727 14.3947 63.8567 14.236 63.1661 14.236C62.4754 14.236 61.8594 14.3947 61.3181 14.712C60.7767 15.0293 60.3474 15.482 60.0301 16.07C59.7221 16.6487 59.5681 17.33 59.5681 18.114ZM71.5493 21.964H74.9653V23H70.2753V13.242H71.5493V21.964Z" fill="black"/>
<path d="M114.679 38.1759L108.528 38.9317L105.607 44.3974L104.536 33.1107L114.679 38.1759Z" fill="#A3FF2E" stroke="black" stroke-width="0.8" stroke-miterlimit="10"/>
</g>
<defs>
<filter id="filter0_d_351_88" x="0" y="0" width="120.045" height="53.7565" filterUnits="userSpaceOnUse" color-interpolation-filters="sRGB">
<feFlood flood-opacity="0" result="BackgroundImageFix"/>
<feColorMatrix in="SourceAlpha" type="matrix" values="0 0 0 0 0 0 0 0 0 0 0 0 0 0 0 0 0 0 127 0" result="hardAlpha"/>
<feOffset dy="4"/>
<feGaussianBlur stdDeviation="2"/>
<feComposite in2="hardAlpha" operator="out"/>
<feColorMatrix type="matrix" values="0 0 0 0 0 0 0 0 0 0 0 0 0 0 0 0 0 0 0.25 0"/>
<feBlend mode="normal" in2="BackgroundImageFix" result="effect1_dropShadow_351_88"/>
<feBlend mode="normal" in="SourceGraphic" in2="effect1_dropShadow_351_88" result="shape"/>
</filter>
</defs>
</svg>
