<svg width="144" height="54" viewBox="0 0 144 54" fill="none" xmlns="http://www.w3.org/2000/svg">
<g filter="url(#filter0_d_351_84)">
<rect x="22.5" y="2.5" width="118" height="35" rx="17.5" fill="#DCFFC7"/>
<rect x="22.5" y="2.5" width="118" height="35" rx="17.5" stroke="#6F6F6F"/>
<path d="M53.672 25.098C53.028 25.098 52.4493 24.986 51.936 24.762C51.432 24.5287 51.0353 24.2113 50.746 23.81C50.4567 23.3993 50.3073 22.928 50.298 22.396H51.656C51.7027 22.8533 51.8893 23.2407 52.216 23.558C52.552 23.866 53.0373 24.02 53.672 24.02C54.2787 24.02 54.7547 23.8707 55.1 23.572C55.4547 23.264 55.632 22.872 55.632 22.396C55.632 22.0227 55.5293 21.7193 55.324 21.486C55.1187 21.2527 54.862 21.0753 54.554 20.954C54.246 20.8327 53.8307 20.702 53.308 20.562C52.664 20.394 52.146 20.226 51.754 20.058C51.3713 19.89 51.04 19.6287 50.76 19.274C50.4893 18.91 50.354 18.4247 50.354 17.818C50.354 17.286 50.4893 16.8147 50.76 16.404C51.0307 15.9933 51.4087 15.676 51.894 15.452C52.3887 15.228 52.9533 15.116 53.588 15.116C54.5027 15.116 55.2493 15.3447 55.828 15.802C56.416 16.2593 56.7473 16.866 56.822 17.622H55.422C55.3753 17.2487 55.1793 16.922 54.834 16.642C54.4887 16.3527 54.0313 16.208 53.462 16.208C52.93 16.208 52.496 16.348 52.16 16.628C51.824 16.8987 51.656 17.2813 51.656 17.776C51.656 18.1307 51.754 18.42 51.95 18.644C52.1553 18.868 52.4027 19.0407 52.692 19.162C52.9907 19.274 53.406 19.4047 53.938 19.554C54.582 19.7313 55.1 19.9087 55.492 20.086C55.884 20.254 56.22 20.52 56.5 20.884C56.78 21.2387 56.92 21.724 56.92 22.34C56.92 22.816 56.794 23.264 56.542 23.684C56.29 24.104 55.9167 24.4447 55.422 24.706C54.9273 24.9673 54.344 25.098 53.672 25.098ZM66.2948 20.87C66.2948 21.1127 66.2808 21.3693 66.2528 21.64H60.1208C60.1675 22.396 60.4241 22.9887 60.8908 23.418C61.3668 23.838 61.9408 24.048 62.6128 24.048C63.1635 24.048 63.6208 23.922 63.9848 23.67C64.3581 23.4087 64.6195 23.0633 64.7688 22.634H66.1408C65.9355 23.3713 65.5248 23.9733 64.9088 24.44C64.2928 24.8973 63.5275 25.126 62.6128 25.126C61.8848 25.126 61.2315 24.9627 60.6528 24.636C60.0835 24.3093 59.6355 23.8473 59.3088 23.25C58.9821 22.6433 58.8188 21.9433 58.8188 21.15C58.8188 20.3567 58.9775 19.6613 59.2948 19.064C59.6121 18.4667 60.0555 18.0093 60.6248 17.692C61.2035 17.3653 61.8661 17.202 62.6128 17.202C63.3408 17.202 63.9848 17.3607 64.5448 17.678C65.1048 17.9953 65.5341 18.434 65.8328 18.994C66.1408 19.5447 66.2948 20.17 66.2948 20.87ZM64.9788 20.604C64.9788 20.1187 64.8715 19.7033 64.6568 19.358C64.4421 19.0033 64.1481 18.7373 63.7748 18.56C63.4108 18.3733 63.0048 18.28 62.5568 18.28C61.9128 18.28 61.3621 18.4853 60.9048 18.896C60.4568 19.3067 60.2001 19.876 60.1348 20.604H64.9788ZM71.1924 25.126C70.6044 25.126 70.0771 25.028 69.6104 24.832C69.1438 24.6267 68.7751 24.3467 68.5044 23.992C68.2338 23.628 68.0844 23.2127 68.0564 22.746H69.3724C69.4098 23.1287 69.5871 23.4413 69.9044 23.684C70.2311 23.9267 70.6558 24.048 71.1784 24.048C71.6638 24.048 72.0464 23.9407 72.3264 23.726C72.6064 23.5113 72.7464 23.2407 72.7464 22.914C72.7464 22.578 72.5971 22.3307 72.2984 22.172C71.9998 22.004 71.5378 21.8407 70.9124 21.682C70.3431 21.5327 69.8764 21.3833 69.5124 21.234C69.1578 21.0753 68.8498 20.8467 68.5884 20.548C68.3364 20.24 68.2104 19.8387 68.2104 19.344C68.2104 18.952 68.3271 18.5927 68.5604 18.266C68.7938 17.9393 69.1251 17.6827 69.5544 17.496C69.9838 17.3 70.4738 17.202 71.0244 17.202C71.8738 17.202 72.5598 17.4167 73.0824 17.846C73.6051 18.2753 73.8851 18.8633 73.9224 19.61H72.6484C72.6204 19.2087 72.4571 18.8867 72.1584 18.644C71.8691 18.4013 71.4771 18.28 70.9824 18.28C70.5251 18.28 70.1611 18.378 69.8904 18.574C69.6198 18.77 69.4844 19.0267 69.4844 19.344C69.4844 19.596 69.5638 19.806 69.7224 19.974C69.8904 20.1327 70.0958 20.2633 70.3384 20.366C70.5904 20.4593 70.9358 20.5667 71.3744 20.688C71.9251 20.8373 72.3731 20.9867 72.7184 21.136C73.0638 21.276 73.3578 21.4907 73.6004 21.78C73.8524 22.0693 73.9831 22.4473 73.9924 22.914C73.9924 23.334 73.8758 23.712 73.6424 24.048C73.4091 24.384 73.0778 24.65 72.6484 24.846C72.2284 25.0327 71.7431 25.126 71.1924 25.126ZM79.0069 25.126C78.4189 25.126 77.8916 25.028 77.4249 24.832C76.9582 24.6267 76.5896 24.3467 76.3189 23.992C76.0482 23.628 75.8989 23.2127 75.8709 22.746H77.1869C77.2242 23.1287 77.4016 23.4413 77.7189 23.684C78.0456 23.9267 78.4702 24.048 78.9929 24.048C79.4782 24.048 79.8609 23.9407 80.1409 23.726C80.4209 23.5113 80.5609 23.2407 80.5609 22.914C80.5609 22.578 80.4116 22.3307 80.1129 22.172C79.8142 22.004 79.3522 21.8407 78.7269 21.682C78.1576 21.5327 77.6909 21.3833 77.3269 21.234C76.9722 21.0753 76.6642 20.8467 76.4029 20.548C76.1509 20.24 76.0249 19.8387 76.0249 19.344C76.0249 18.952 76.1416 18.5927 76.3749 18.266C76.6082 17.9393 76.9396 17.6827 77.3689 17.496C77.7982 17.3 78.2882 17.202 78.8389 17.202C79.6882 17.202 80.3742 17.4167 80.8969 17.846C81.4196 18.2753 81.6996 18.8633 81.7369 19.61H80.4629C80.4349 19.2087 80.2716 18.8867 79.9729 18.644C79.6836 18.4013 79.2916 18.28 78.7969 18.28C78.3396 18.28 77.9756 18.378 77.7049 18.574C77.4342 18.77 77.2989 19.0267 77.2989 19.344C77.2989 19.596 77.3782 19.806 77.5369 19.974C77.7049 20.1327 77.9102 20.2633 78.1529 20.366C78.4049 20.4593 78.7502 20.5667 79.1889 20.688C79.7396 20.8373 80.1876 20.9867 80.5329 21.136C80.8782 21.276 81.1722 21.4907 81.4149 21.78C81.6669 22.0693 81.7976 22.4473 81.8069 22.914C81.8069 23.334 81.6902 23.712 81.4569 24.048C81.2236 24.384 80.8922 24.65 80.4629 24.846C80.0429 25.0327 79.5576 25.126 79.0069 25.126ZM84.7633 16.082C84.5207 16.082 84.3153 15.998 84.1473 15.83C83.9793 15.662 83.8953 15.4567 83.8953 15.214C83.8953 14.9713 83.9793 14.766 84.1473 14.598C84.3153 14.43 84.5207 14.346 84.7633 14.346C84.9967 14.346 85.1927 14.43 85.3513 14.598C85.5193 14.766 85.6033 14.9713 85.6033 15.214C85.6033 15.4567 85.5193 15.662 85.3513 15.83C85.1927 15.998 84.9967 16.082 84.7633 16.082ZM85.3793 17.328V25H84.1053V17.328H85.3793ZM91.3967 25.126C90.678 25.126 90.0247 24.9627 89.4367 24.636C88.858 24.3093 88.4007 23.8473 88.0647 23.25C87.738 22.6433 87.5747 21.9433 87.5747 21.15C87.5747 20.366 87.7427 19.6753 88.0787 19.078C88.424 18.4713 88.8907 18.0093 89.4787 17.692C90.0667 17.3653 90.7247 17.202 91.4527 17.202C92.1807 17.202 92.8387 17.3653 93.4267 17.692C94.0147 18.0093 94.4767 18.4667 94.8127 19.064C95.158 19.6613 95.3307 20.3567 95.3307 21.15C95.3307 21.9433 95.1533 22.6433 94.7987 23.25C94.4533 23.8473 93.982 24.3093 93.3847 24.636C92.7873 24.9627 92.1247 25.126 91.3967 25.126ZM91.3967 24.006C91.854 24.006 92.2833 23.8987 92.6847 23.684C93.086 23.4693 93.408 23.1473 93.6507 22.718C93.9027 22.2887 94.0287 21.766 94.0287 21.15C94.0287 20.534 93.9073 20.0113 93.6647 19.582C93.422 19.1527 93.1047 18.8353 92.7127 18.63C92.3207 18.4153 91.896 18.308 91.4387 18.308C90.972 18.308 90.5427 18.4153 90.1507 18.63C89.768 18.8353 89.46 19.1527 89.2267 19.582C88.9933 20.0113 88.8767 20.534 88.8767 21.15C88.8767 21.7753 88.9887 22.3027 89.2127 22.732C89.446 23.1613 89.754 23.4833 90.1367 23.698C90.5193 23.9033 90.9393 24.006 91.3967 24.006ZM101.244 17.188C102.177 17.188 102.933 17.4727 103.512 18.042C104.09 18.602 104.38 19.414 104.38 20.478V25H103.12V20.66C103.12 19.8947 102.928 19.3113 102.546 18.91C102.163 18.4993 101.64 18.294 100.978 18.294C100.306 18.294 99.7691 18.504 99.3677 18.924C98.9757 19.344 98.7797 19.9553 98.7797 20.758V25H97.5057V17.328H98.7797V18.42C99.0317 18.028 99.3724 17.7247 99.8017 17.51C100.24 17.2953 100.721 17.188 101.244 17.188ZM109.677 25.126C109.089 25.126 108.561 25.028 108.095 24.832C107.628 24.6267 107.259 24.3467 106.989 23.992C106.718 23.628 106.569 23.2127 106.541 22.746H107.857C107.894 23.1287 108.071 23.4413 108.389 23.684C108.715 23.9267 109.14 24.048 109.663 24.048C110.148 24.048 110.531 23.9407 110.811 23.726C111.091 23.5113 111.231 23.2407 111.231 22.914C111.231 22.578 111.081 22.3307 110.783 22.172C110.484 22.004 110.022 21.8407 109.397 21.682C108.827 21.5327 108.361 21.3833 107.997 21.234C107.642 21.0753 107.334 20.8467 107.073 20.548C106.821 20.24 106.695 19.8387 106.695 19.344C106.695 18.952 106.811 18.5927 107.045 18.266C107.278 17.9393 107.609 17.6827 108.039 17.496C108.468 17.3 108.958 17.202 109.509 17.202C110.358 17.202 111.044 17.4167 111.567 17.846C112.089 18.2753 112.369 18.8633 112.407 19.61H111.133C111.105 19.2087 110.941 18.8867 110.643 18.644C110.353 18.4013 109.961 18.28 109.467 18.28C109.009 18.28 108.645 18.378 108.375 18.574C108.104 18.77 107.969 19.0267 107.969 19.344C107.969 19.596 108.048 19.806 108.207 19.974C108.375 20.1327 108.58 20.2633 108.823 20.366C109.075 20.4593 109.42 20.5667 109.859 20.688C110.409 20.8373 110.857 20.9867 111.203 21.136C111.548 21.276 111.842 21.4907 112.085 21.78C112.337 22.0693 112.467 22.4473 112.477 22.914C112.477 23.334 112.36 23.712 112.127 24.048C111.893 24.384 111.562 24.65 111.133 24.846C110.713 25.0327 110.227 25.126 109.677 25.126Z" fill="black"/>
<path d="M14.7777 45.7884L12.9078 39.8801L6.99956 38.0102L17.8989 34.8891L14.7777 45.7884Z" fill="#A3FF2E" stroke="black" stroke-width="0.8" stroke-miterlimit="10"/>
</g>
<defs>
<filter id="filter0_d_351_84" x="0.613281" y="0" width="143.387" height="53.1745" filterUnits="userSpaceOnUse" color-interpolation-filters="sRGB">
<feFlood flood-opacity="0" result="BackgroundImageFix"/>
<feColorMatrix in="SourceAlpha" type="matrix" values="0 0 0 0 0 0 0 0 0 0 0 0 0 0 0 0 0 0 127 0" result="hardAlpha"/>
<feOffset dx="-1" dy="2"/>
<feGaussianBlur stdDeviation="2"/>
<feComposite in2="hardAlpha" operator="out"/>
<feColorMatrix type="matrix" values="0 0 0 0 0 0 0 0 0 0 0 0 0 0 0 0 0 0 0.3 0"/>
<feBlend mode="normal" in2="BackgroundImageFix" result="effect1_dropShadow_351_84"/>
<feBlend mode="normal" in="SourceGraphic" in2="effect1_dropShadow_351_84" result="shape"/>
</filter>
</defs>
</svg>
