<svg width="117" height="54" viewBox="0 0 117 54" fill="none" xmlns="http://www.w3.org/2000/svg">
<g filter="url(#filter0_d_351_84)">
<rect x="22.5" y="2.5" width="91" height="35" rx="17.5" fill="#DCFFC7"/>
<rect x="22.5" y="2.5" width="91" height="35" rx="17.5" stroke="#6F6F6F"/>
<path d="M50.846 22.83H46.59L45.806 25H44.462L47.99 15.298H49.46L52.974 25H51.63L50.846 22.83ZM50.482 21.794L48.718 16.866L46.954 21.794H50.482ZM56.2856 18.574C56.5096 18.1353 56.8269 17.7947 57.2376 17.552C57.6576 17.3093 58.1663 17.188 58.7636 17.188V18.504H58.4276C56.9996 18.504 56.2856 19.2787 56.2856 20.828V25H55.0116V17.328H56.2856V18.574ZM62.0083 18.574C62.2323 18.1353 62.5496 17.7947 62.9603 17.552C63.3803 17.3093 63.8889 17.188 64.4863 17.188V18.504H64.1503C62.7223 18.504 62.0083 19.2787 62.0083 20.828V25H60.7343V17.328H62.0083V18.574ZM65.9809 21.136C65.9809 20.352 66.1396 19.666 66.4569 19.078C66.7742 18.4807 67.2082 18.0187 67.7589 17.692C68.3189 17.3653 68.9396 17.202 69.6209 17.202C70.2929 17.202 70.8762 17.3467 71.3709 17.636C71.8656 17.9253 72.2342 18.2893 72.4769 18.728V17.328H73.7649V25H72.4769V23.572C72.2249 24.02 71.8469 24.3933 71.3429 24.692C70.8482 24.9813 70.2696 25.126 69.6069 25.126C68.9256 25.126 68.3096 24.958 67.7589 24.622C67.2082 24.286 66.7742 23.8147 66.4569 23.208C66.1396 22.6013 65.9809 21.9107 65.9809 21.136ZM72.4769 21.15C72.4769 20.5713 72.3602 20.0673 72.1269 19.638C71.8936 19.2087 71.5762 18.882 71.1749 18.658C70.7829 18.4247 70.3489 18.308 69.8729 18.308C69.3969 18.308 68.9629 18.42 68.5709 18.644C68.1789 18.868 67.8662 19.1947 67.6329 19.624C67.3996 20.0533 67.2829 20.5573 67.2829 21.136C67.2829 21.724 67.3996 22.2373 67.6329 22.676C67.8662 23.1053 68.1789 23.4367 68.5709 23.67C68.9629 23.894 69.3969 24.006 69.8729 24.006C70.3489 24.006 70.7829 23.894 71.1749 23.67C71.5762 23.4367 71.8936 23.1053 72.1269 22.676C72.3602 22.2373 72.4769 21.7287 72.4769 21.15ZM83.0258 17.328L78.4058 28.612H77.0898L78.6018 24.916L75.5078 17.328H76.9218L79.3298 23.544L81.7098 17.328H83.0258ZM87.5225 25.126C86.9345 25.126 86.4072 25.028 85.9405 24.832C85.4738 24.6267 85.1052 24.3467 84.8345 23.992C84.5638 23.628 84.4145 23.2127 84.3865 22.746H85.7025C85.7398 23.1287 85.9172 23.4413 86.2345 23.684C86.5612 23.9267 86.9858 24.048 87.5085 24.048C87.9938 24.048 88.3765 23.9407 88.6565 23.726C88.9365 23.5113 89.0765 23.2407 89.0765 22.914C89.0765 22.578 88.9272 22.3307 88.6285 22.172C88.3298 22.004 87.8678 21.8407 87.2425 21.682C86.6732 21.5327 86.2065 21.3833 85.8425 21.234C85.4878 21.0753 85.1798 20.8467 84.9185 20.548C84.6665 20.24 84.5405 19.8387 84.5405 19.344C84.5405 18.952 84.6572 18.5927 84.8905 18.266C85.1238 17.9393 85.4552 17.6827 85.8845 17.496C86.3138 17.3 86.8038 17.202 87.3545 17.202C88.2038 17.202 88.8898 17.4167 89.4125 17.846C89.9352 18.2753 90.2152 18.8633 90.2525 19.61H88.9785C88.9505 19.2087 88.7872 18.8867 88.4885 18.644C88.1992 18.4013 87.8072 18.28 87.3125 18.28C86.8552 18.28 86.4912 18.378 86.2205 18.574C85.9498 18.77 85.8145 19.0267 85.8145 19.344C85.8145 19.596 85.8938 19.806 86.0525 19.974C86.2205 20.1327 86.4258 20.2633 86.6685 20.366C86.9205 20.4593 87.2658 20.5667 87.7045 20.688C88.2552 20.8373 88.7032 20.9867 89.0485 21.136C89.3938 21.276 89.6878 21.4907 89.9305 21.78C90.1825 22.0693 90.3132 22.4473 90.3225 22.914C90.3225 23.334 90.2058 23.712 89.9725 24.048C89.7392 24.384 89.4078 24.65 88.9785 24.846C88.5585 25.0327 88.0732 25.126 87.5225 25.126Z" fill="black"/>
<path d="M14.7777 45.7884L12.9078 39.8801L6.99956 38.0102L17.8989 34.8891L14.7777 45.7884Z" fill="#A3FF2E" stroke="black" stroke-width="0.8" stroke-miterlimit="10"/>
</g>
<defs>
<filter id="filter0_d_351_84" x="0.613281" y="0" width="116.387" height="53.1745" filterUnits="userSpaceOnUse" color-interpolation-filters="sRGB">
<feFlood flood-opacity="0" result="BackgroundImageFix"/>
<feColorMatrix in="SourceAlpha" type="matrix" values="0 0 0 0 0 0 0 0 0 0 0 0 0 0 0 0 0 0 127 0" result="hardAlpha"/>
<feOffset dx="-1" dy="2"/>
<feGaussianBlur stdDeviation="2"/>
<feComposite in2="hardAlpha" operator="out"/>
<feColorMatrix type="matrix" values="0 0 0 0 0 0 0 0 0 0 0 0 0 0 0 0 0 0 0.3 0"/>
<feBlend mode="normal" in2="BackgroundImageFix" result="effect1_dropShadow_351_84"/>
<feBlend mode="normal" in="SourceGraphic" in2="effect1_dropShadow_351_84" result="shape"/>
</filter>
</defs>
</svg>
