<svg width="198" height="46" viewBox="0 0 198 46" fill="none" xmlns="http://www.w3.org/2000/svg">
<g filter="url(#filter0_d_351_97)">
<rect x="30.5" y="2.5" width="148" height="35" rx="17.5" fill="#FEDBFF"/>
<rect x="30.5" y="2.5" width="148" height="35" rx="17.5" stroke="#6F6F6F"/>
<path d="M60.976 15.312V25H59.702V17.776L56.482 25H55.586L52.352 17.762V25H51.078V15.312H52.45L56.034 23.32L59.618 15.312H60.976ZM70.4406 17.328V25H69.1666V23.866C68.9239 24.258 68.5833 24.566 68.1446 24.79C67.7153 25.0047 67.2393 25.112 66.7166 25.112C66.1193 25.112 65.5826 24.9907 65.1066 24.748C64.6306 24.496 64.2526 24.1227 63.9726 23.628C63.7019 23.1333 63.5666 22.5313 63.5666 21.822V17.328H64.8266V21.654C64.8266 22.41 65.0179 22.9933 65.4006 23.404C65.7833 23.8053 66.3059 24.006 66.9686 24.006C67.6499 24.006 68.1866 23.796 68.5786 23.376C68.9706 22.956 69.1666 22.3447 69.1666 21.542V17.328H70.4406ZM74.3657 14.64V25H73.0917V14.64H74.3657ZM78.591 18.378V22.9C78.591 23.2733 78.6703 23.5393 78.829 23.698C78.9877 23.8473 79.263 23.922 79.655 23.922H80.593V25H79.445C78.7357 25 78.2037 24.8367 77.849 24.51C77.4943 24.1833 77.317 23.6467 77.317 22.9V18.378H76.323V17.328H77.317V15.396H78.591V17.328H80.593V18.378H78.591ZM83.2946 16.082C83.0519 16.082 82.8466 15.998 82.6786 15.83C82.5106 15.662 82.4266 15.4567 82.4266 15.214C82.4266 14.9713 82.5106 14.766 82.6786 14.598C82.8466 14.43 83.0519 14.346 83.2946 14.346C83.5279 14.346 83.7239 14.43 83.8826 14.598C84.0506 14.766 84.1346 14.9713 84.1346 15.214C84.1346 15.4567 84.0506 15.662 83.8826 15.83C83.7239 15.998 83.5279 16.082 83.2946 16.082ZM83.9106 17.328V25H82.6366V17.328H83.9106ZM88.1359 18.378V22.9C88.1359 23.2733 88.2152 23.5393 88.3739 23.698C88.5326 23.8473 88.8079 23.922 89.1999 23.922H90.1379V25H88.9899C88.2806 25 87.7486 24.8367 87.3939 24.51C87.0392 24.1833 86.8619 23.6467 86.8619 22.9V18.378H85.8679V17.328H86.8619V15.396H88.1359V17.328H90.1379V18.378H88.1359ZM95.9895 17.188C96.5682 17.188 97.0908 17.314 97.5575 17.566C98.0242 17.8087 98.3882 18.1773 98.6495 18.672C98.9202 19.1667 99.0555 19.7687 99.0555 20.478V25H97.7955V20.66C97.7955 19.8947 97.6042 19.3113 97.2215 18.91C96.8388 18.4993 96.3162 18.294 95.6535 18.294C94.9815 18.294 94.4448 18.504 94.0435 18.924C93.6515 19.344 93.4555 19.9553 93.4555 20.758V25H92.1815V14.64H93.4555V18.42C93.7075 18.028 94.0528 17.7247 94.4915 17.51C94.9395 17.2953 95.4388 17.188 95.9895 17.188ZM102.911 18.574C103.135 18.1353 103.452 17.7947 103.863 17.552C104.283 17.3093 104.791 17.188 105.389 17.188V18.504H105.053C103.625 18.504 102.911 19.2787 102.911 20.828V25H101.637V17.328H102.911V18.574ZM114.359 20.87C114.359 21.1127 114.345 21.3693 114.317 21.64H108.185C108.232 22.396 108.489 22.9887 108.955 23.418C109.431 23.838 110.005 24.048 110.677 24.048C111.228 24.048 111.685 23.922 112.049 23.67C112.423 23.4087 112.684 23.0633 112.833 22.634H114.205C114 23.3713 113.589 23.9733 112.973 24.44C112.357 24.8973 111.592 25.126 110.677 25.126C109.949 25.126 109.296 24.9627 108.717 24.636C108.148 24.3093 107.7 23.8473 107.373 23.25C107.047 22.6433 106.883 21.9433 106.883 21.15C106.883 20.3567 107.042 19.6613 107.359 19.064C107.677 18.4667 108.12 18.0093 108.689 17.692C109.268 17.3653 109.931 17.202 110.677 17.202C111.405 17.202 112.049 17.3607 112.609 17.678C113.169 17.9953 113.599 18.434 113.897 18.994C114.205 19.5447 114.359 20.17 114.359 20.87ZM113.043 20.604C113.043 20.1187 112.936 19.7033 112.721 19.358C112.507 19.0033 112.213 18.7373 111.839 18.56C111.475 18.3733 111.069 18.28 110.621 18.28C109.977 18.28 109.427 18.4853 108.969 18.896C108.521 19.3067 108.265 19.876 108.199 20.604H113.043ZM116.065 21.136C116.065 20.352 116.224 19.666 116.541 19.078C116.858 18.4807 117.292 18.0187 117.843 17.692C118.403 17.3653 119.024 17.202 119.705 17.202C120.377 17.202 120.96 17.3467 121.455 17.636C121.95 17.9253 122.318 18.2893 122.561 18.728V17.328H123.849V25H122.561V23.572C122.309 24.02 121.931 24.3933 121.427 24.692C120.932 24.9813 120.354 25.126 119.691 25.126C119.01 25.126 118.394 24.958 117.843 24.622C117.292 24.286 116.858 23.8147 116.541 23.208C116.224 22.6013 116.065 21.9107 116.065 21.136ZM122.561 21.15C122.561 20.5713 122.444 20.0673 122.211 19.638C121.978 19.2087 121.66 18.882 121.259 18.658C120.867 18.4247 120.433 18.308 119.957 18.308C119.481 18.308 119.047 18.42 118.655 18.644C118.263 18.868 117.95 19.1947 117.717 19.624C117.484 20.0533 117.367 20.5573 117.367 21.136C117.367 21.724 117.484 22.2373 117.717 22.676C117.95 23.1053 118.263 23.4367 118.655 23.67C119.047 23.894 119.481 24.006 119.957 24.006C120.433 24.006 120.867 23.894 121.259 23.67C121.66 23.4367 121.978 23.1053 122.211 22.676C122.444 22.2373 122.561 21.7287 122.561 21.15ZM126.026 21.136C126.026 20.352 126.184 19.666 126.502 19.078C126.819 18.4807 127.253 18.0187 127.804 17.692C128.364 17.3653 128.989 17.202 129.68 17.202C130.277 17.202 130.832 17.342 131.346 17.622C131.859 17.8927 132.251 18.252 132.522 18.7V14.64H133.81V25H132.522V23.558C132.27 24.0153 131.896 24.3933 131.402 24.692C130.907 24.9813 130.328 25.126 129.666 25.126C128.984 25.126 128.364 24.958 127.804 24.622C127.253 24.286 126.819 23.8147 126.502 23.208C126.184 22.6013 126.026 21.9107 126.026 21.136ZM132.522 21.15C132.522 20.5713 132.405 20.0673 132.172 19.638C131.938 19.2087 131.621 18.882 131.22 18.658C130.828 18.4247 130.394 18.308 129.918 18.308C129.442 18.308 129.008 18.42 128.616 18.644C128.224 18.868 127.911 19.1947 127.678 19.624C127.444 20.0533 127.328 20.5573 127.328 21.136C127.328 21.724 127.444 22.2373 127.678 22.676C127.911 23.1053 128.224 23.4367 128.616 23.67C129.008 23.894 129.442 24.006 129.918 24.006C130.394 24.006 130.828 23.894 131.22 23.67C131.621 23.4367 131.938 23.1053 132.172 22.676C132.405 22.2373 132.522 21.7287 132.522 21.15ZM137.121 16.082C136.878 16.082 136.673 15.998 136.505 15.83C136.337 15.662 136.253 15.4567 136.253 15.214C136.253 14.9713 136.337 14.766 136.505 14.598C136.673 14.43 136.878 14.346 137.121 14.346C137.354 14.346 137.55 14.43 137.709 14.598C137.877 14.766 137.961 14.9713 137.961 15.214C137.961 15.4567 137.877 15.662 137.709 15.83C137.55 15.998 137.354 16.082 137.121 16.082ZM137.737 17.328V25H136.463V17.328H137.737ZM144.146 17.188C145.079 17.188 145.835 17.4727 146.414 18.042C146.993 18.602 147.282 19.414 147.282 20.478V25H146.022V20.66C146.022 19.8947 145.831 19.3113 145.448 18.91C145.065 18.4993 144.543 18.294 143.88 18.294C143.208 18.294 142.671 18.504 142.27 18.924C141.878 19.344 141.682 19.9553 141.682 20.758V25H140.408V17.328H141.682V18.42C141.934 18.028 142.275 17.7247 142.704 17.51C143.143 17.2953 143.623 17.188 144.146 17.188ZM153.027 17.202C153.69 17.202 154.268 17.3467 154.763 17.636C155.267 17.9253 155.64 18.2893 155.883 18.728V17.328H157.171V25.168C157.171 25.868 157.022 26.4887 156.723 27.03C156.424 27.5807 155.995 28.01 155.435 28.318C154.884 28.626 154.24 28.78 153.503 28.78C152.495 28.78 151.655 28.542 150.983 28.066C150.311 27.59 149.914 26.9413 149.793 26.12H151.053C151.193 26.5867 151.482 26.96 151.921 27.24C152.36 27.5293 152.887 27.674 153.503 27.674C154.203 27.674 154.772 27.4547 155.211 27.016C155.659 26.5773 155.883 25.9613 155.883 25.168V23.558C155.631 24.006 155.258 24.3793 154.763 24.678C154.268 24.9767 153.69 25.126 153.027 25.126C152.346 25.126 151.725 24.958 151.165 24.622C150.614 24.286 150.18 23.8147 149.863 23.208C149.546 22.6013 149.387 21.9107 149.387 21.136C149.387 20.352 149.546 19.666 149.863 19.078C150.18 18.4807 150.614 18.0187 151.165 17.692C151.725 17.3653 152.346 17.202 153.027 17.202ZM155.883 21.15C155.883 20.5713 155.766 20.0673 155.533 19.638C155.3 19.2087 154.982 18.882 154.581 18.658C154.189 18.4247 153.755 18.308 153.279 18.308C152.803 18.308 152.369 18.42 151.977 18.644C151.585 18.868 151.272 19.1947 151.039 19.624C150.806 20.0533 150.689 20.5573 150.689 21.136C150.689 21.724 150.806 22.2373 151.039 22.676C151.272 23.1053 151.585 23.4367 151.977 23.67C152.369 23.894 152.803 24.006 153.279 24.006C153.755 24.006 154.189 23.894 154.581 23.67C154.982 23.4367 155.3 23.1053 155.533 22.676C155.766 22.2373 155.883 21.7287 155.883 21.15Z" fill="black"/>
<path d="M16.21 12.14C17.7647 12.14 19.1287 12.448 20.302 13.064C21.49 13.68 22.4067 14.538 23.052 15.638C23.712 16.738 24.042 17.9993 24.042 19.422C24.042 20.566 23.866 21.6513 23.514 22.678C23.1767 23.7047 22.6853 24.5407 22.04 25.186C21.3947 25.8167 20.632 26.132 19.752 26.132C19.048 26.132 18.52 25.9193 18.168 25.494C17.8307 25.054 17.6767 24.4747 17.706 23.756C17.266 24.504 16.6793 25.0907 15.946 25.516C15.2273 25.9267 14.4573 26.132 13.636 26.132C12.536 26.132 11.6707 25.7947 11.04 25.12C10.424 24.4453 10.116 23.536 10.116 22.392C10.116 21.3213 10.336 20.324 10.776 19.4C11.2307 18.4613 11.8613 17.7133 12.668 17.156C13.4747 16.584 14.384 16.298 15.396 16.298C16.188 16.298 16.848 16.4887 17.376 16.87C17.9187 17.2513 18.2853 17.8013 18.476 18.52L18.806 16.584H19.686L18.564 23.03C18.52 23.2647 18.498 23.4993 18.498 23.734C18.498 24.2473 18.6153 24.6507 18.85 24.944C19.0993 25.2373 19.4513 25.384 19.906 25.384C20.566 25.384 21.1453 25.0907 21.644 24.504C22.1427 23.9173 22.524 23.1767 22.788 22.282C23.052 21.3727 23.184 20.456 23.184 19.532C23.184 18.1827 22.8907 17.0093 22.304 16.012C21.732 15.0147 20.9107 14.2447 19.84 13.702C18.7693 13.1593 17.5153 12.888 16.078 12.888C14.3033 12.888 12.69 13.3353 11.238 14.23C9.786 15.11 8.642 16.3127 7.806 17.838C6.98467 19.3487 6.574 21.006 6.574 22.81C6.574 24.1887 6.86 25.3693 7.432 26.352C8.004 27.3493 8.818 28.112 9.874 28.64C10.9447 29.168 12.184 29.432 13.592 29.432C14.8973 29.432 16.1073 29.19 17.222 28.706L17.376 29.454C16.1293 29.9527 14.7947 30.202 13.372 30.202C11.8613 30.202 10.5267 29.9013 9.368 29.3C8.20933 28.7133 7.30733 27.87 6.662 26.77C6.01667 25.6847 5.694 24.4087 5.694 22.942C5.694 20.9327 6.14867 19.1067 7.058 17.464C7.96733 15.8213 9.22133 14.5233 10.82 13.57C12.4187 12.6167 14.2153 12.14 16.21 12.14ZM13.9 25.318C14.5747 25.318 15.2053 25.1493 15.792 24.812C16.3787 24.46 16.87 23.9613 17.266 23.316C17.6767 22.656 17.9407 21.886 18.058 21.006C18.1167 20.7127 18.146 20.4047 18.146 20.082C18.146 19.1873 17.904 18.4687 17.42 17.926C16.9507 17.3687 16.2613 17.09 15.352 17.09C14.5013 17.09 13.746 17.3393 13.086 17.838C12.4407 18.322 11.942 18.96 11.59 19.752C11.238 20.544 11.062 21.38 11.062 22.26C11.062 23.1987 11.3113 23.9467 11.81 24.504C12.3087 25.0467 13.0053 25.318 13.9 25.318Z" fill="black" fill-opacity="0.6"/>
<path d="M192.902 28.6273L187.809 32.1586L187.768 38.3556L181.567 28.8641L192.902 28.6273Z" fill="#A3FF2E" stroke="black" stroke-width="0.8" stroke-miterlimit="10"/>
</g>
<defs>
<filter id="filter0_d_351_97" x="0.693359" y="0" width="196.527" height="45.6856" filterUnits="userSpaceOnUse" color-interpolation-filters="sRGB">
<feFlood flood-opacity="0" result="BackgroundImageFix"/>
<feColorMatrix in="SourceAlpha" type="matrix" values="0 0 0 0 0 0 0 0 0 0 0 0 0 0 0 0 0 0 127 0" result="hardAlpha"/>
<feOffset dx="-1" dy="2"/>
<feGaussianBlur stdDeviation="2"/>
<feComposite in2="hardAlpha" operator="out"/>
<feColorMatrix type="matrix" values="0 0 0 0 0 0 0 0 0 0 0 0 0 0 0 0 0 0 0.3 0"/>
<feBlend mode="normal" in2="BackgroundImageFix" result="effect1_dropShadow_351_97"/>
<feBlend mode="normal" in="SourceGraphic" in2="effect1_dropShadow_351_97" result="shape"/>
</filter>
</defs>
</svg>
