<svg width="121" height="54" viewBox="0 0 121 54" fill="none" xmlns="http://www.w3.org/2000/svg">
<g filter="url(#filter0_d_351_88)">
<rect x="4.5" y="0.5" width="95" height="35" rx="17.5" fill="#FFF7B1"/>
<rect x="4.5" y="0.5" width="95" height="35" rx="17.5" stroke="#6F6F6F"/>
<path d="M39.002 23.098C38.0967 23.098 37.2707 22.888 36.524 22.468C35.7773 22.0387 35.1847 21.446 34.746 20.69C34.3167 19.9247 34.102 19.066 34.102 18.114C34.102 17.162 34.3167 16.308 34.746 15.552C35.1847 14.7867 35.7773 14.194 36.524 13.774C37.2707 13.3447 38.0967 13.13 39.002 13.13C39.9167 13.13 40.7473 13.3447 41.494 13.774C42.2407 14.194 42.8287 14.782 43.258 15.538C43.6873 16.294 43.902 17.1527 43.902 18.114C43.902 19.0753 43.6873 19.934 43.258 20.69C42.8287 21.446 42.2407 22.0387 41.494 22.468C40.7473 22.888 39.9167 23.098 39.002 23.098ZM39.002 21.992C39.6833 21.992 40.2947 21.8333 40.836 21.516C41.3867 21.1987 41.816 20.746 42.124 20.158C42.4413 19.57 42.6 18.8887 42.6 18.114C42.6 17.33 42.4413 16.6487 42.124 16.07C41.816 15.482 41.3913 15.0293 40.85 14.712C40.3087 14.3947 39.6927 14.236 39.002 14.236C38.3113 14.236 37.6953 14.3947 37.154 14.712C36.6127 15.0293 36.1833 15.482 35.866 16.07C35.558 16.6487 35.404 17.33 35.404 18.114C35.404 18.8887 35.558 19.57 35.866 20.158C36.1833 20.746 36.6127 21.1987 37.154 21.516C37.7047 21.8333 38.3207 21.992 39.002 21.992ZM52.6079 16.098C52.6079 16.91 52.3279 17.5867 51.7679 18.128C51.2172 18.66 50.3725 18.926 49.2339 18.926H47.3579V23H46.0839V13.242H49.2339C50.3352 13.242 51.1705 13.508 51.7399 14.04C52.3185 14.572 52.6079 15.258 52.6079 16.098ZM49.2339 17.876C49.9432 17.876 50.4659 17.722 50.8019 17.414C51.1379 17.106 51.3059 16.6673 51.3059 16.098C51.3059 14.894 50.6152 14.292 49.2339 14.292H47.3579V17.876H49.2339ZM61.2153 16.098C61.2153 16.91 60.9353 17.5867 60.3753 18.128C59.8246 18.66 58.9799 18.926 57.8413 18.926H55.9653V23H54.6913V13.242H57.8413C58.9426 13.242 59.7779 13.508 60.3473 14.04C60.9259 14.572 61.2153 15.258 61.2153 16.098ZM57.8413 17.876C58.5506 17.876 59.0733 17.722 59.4093 17.414C59.7453 17.106 59.9133 16.6673 59.9133 16.098C59.9133 14.894 59.2226 14.292 57.8413 14.292H55.9653V17.876H57.8413ZM66.3927 23.098C65.7487 23.098 65.17 22.986 64.6567 22.762C64.1527 22.5287 63.756 22.2113 63.4667 21.81C63.1774 21.3993 63.028 20.928 63.0187 20.396H64.3767C64.4234 20.8533 64.61 21.2407 64.9367 21.558C65.2727 21.866 65.758 22.02 66.3927 22.02C66.9994 22.02 67.4754 21.8707 67.8207 21.572C68.1754 21.264 68.3527 20.872 68.3527 20.396C68.3527 20.0227 68.25 19.7193 68.0447 19.486C67.8394 19.2527 67.5827 19.0753 67.2747 18.954C66.9667 18.8327 66.5514 18.702 66.0287 18.562C65.3847 18.394 64.8667 18.226 64.4747 18.058C64.092 17.89 63.7607 17.6287 63.4807 17.274C63.21 16.91 63.0747 16.4247 63.0747 15.818C63.0747 15.286 63.21 14.8147 63.4807 14.404C63.7514 13.9933 64.1294 13.676 64.6147 13.452C65.1094 13.228 65.674 13.116 66.3087 13.116C67.2234 13.116 67.97 13.3447 68.5487 13.802C69.1367 14.2593 69.468 14.866 69.5427 15.622H68.1427C68.096 15.2487 67.9 14.922 67.5547 14.642C67.2094 14.3527 66.752 14.208 66.1827 14.208C65.6507 14.208 65.2167 14.348 64.8807 14.628C64.5447 14.8987 64.3767 15.2813 64.3767 15.776C64.3767 16.1307 64.4747 16.42 64.6707 16.644C64.876 16.868 65.1234 17.0407 65.4127 17.162C65.7114 17.274 66.1267 17.4047 66.6587 17.554C67.3027 17.7313 67.8207 17.9087 68.2127 18.086C68.6047 18.254 68.9407 18.52 69.2207 18.884C69.5007 19.2387 69.6407 19.724 69.6407 20.34C69.6407 20.816 69.5147 21.264 69.2627 21.684C69.0107 22.104 68.6374 22.4447 68.1427 22.706C67.648 22.9673 67.0647 23.098 66.3927 23.098Z" fill="black"/>
<path d="M114.679 38.1759L108.528 38.9317L105.607 44.3974L104.536 33.1107L114.679 38.1759Z" fill="#A3FF2E" stroke="black" stroke-width="0.8" stroke-miterlimit="10"/>
</g>
<defs>
<filter id="filter0_d_351_88" x="0" y="0" width="120.045" height="53.7565" filterUnits="userSpaceOnUse" color-interpolation-filters="sRGB">
<feFlood flood-opacity="0" result="BackgroundImageFix"/>
<feColorMatrix in="SourceAlpha" type="matrix" values="0 0 0 0 0 0 0 0 0 0 0 0 0 0 0 0 0 0 127 0" result="hardAlpha"/>
<feOffset dy="4"/>
<feGaussianBlur stdDeviation="2"/>
<feComposite in2="hardAlpha" operator="out"/>
<feColorMatrix type="matrix" values="0 0 0 0 0 0 0 0 0 0 0 0 0 0 0 0 0 0 0.25 0"/>
<feBlend mode="normal" in2="BackgroundImageFix" result="effect1_dropShadow_351_88"/>
<feBlend mode="normal" in="SourceGraphic" in2="effect1_dropShadow_351_88" result="shape"/>
</filter>
</defs>
</svg>
