<svg width="168" height="54" viewBox="0 0 168 54" fill="none" xmlns="http://www.w3.org/2000/svg">
<g filter="url(#filter0_d_351_92)">
<rect x="28.5" y="2.5" width="119" height="35" rx="17.5" fill="#DEF5FF"/>
<rect x="28.5" y="2.5" width="119" height="35" rx="17.5" stroke="#6F6F6F"/>
<path d="M66.672 25.098C66.028 25.098 65.4493 24.986 64.936 24.762C64.432 24.5287 64.0353 24.2113 63.746 23.81C63.4567 23.3993 63.3073 22.928 63.298 22.396H64.656C64.7027 22.8533 64.8893 23.2407 65.216 23.558C65.552 23.866 66.0373 24.02 66.672 24.02C67.2787 24.02 67.7547 23.8707 68.1 23.572C68.4547 23.264 68.632 22.872 68.632 22.396C68.632 22.0227 68.5293 21.7193 68.324 21.486C68.1187 21.2527 67.862 21.0753 67.554 20.954C67.246 20.8327 66.8307 20.702 66.308 20.562C65.664 20.394 65.146 20.226 64.754 20.058C64.3713 19.89 64.04 19.6287 63.76 19.274C63.4893 18.91 63.354 18.4247 63.354 17.818C63.354 17.286 63.4893 16.8147 63.76 16.404C64.0307 15.9933 64.4087 15.676 64.894 15.452C65.3887 15.228 65.9533 15.116 66.588 15.116C67.5027 15.116 68.2493 15.3447 68.828 15.802C69.416 16.2593 69.7473 16.866 69.822 17.622H68.422C68.3753 17.2487 68.1793 16.922 67.834 16.642C67.4887 16.3527 67.0313 16.208 66.462 16.208C65.93 16.208 65.496 16.348 65.16 16.628C64.824 16.8987 64.656 17.2813 64.656 17.776C64.656 18.1307 64.754 18.42 64.95 18.644C65.1553 18.868 65.4027 19.0407 65.692 19.162C65.9907 19.274 66.406 19.4047 66.938 19.554C67.582 19.7313 68.1 19.9087 68.492 20.086C68.884 20.254 69.22 20.52 69.5 20.884C69.78 21.2387 69.92 21.724 69.92 22.34C69.92 22.816 69.794 23.264 69.542 23.684C69.29 24.104 68.9167 24.4447 68.422 24.706C67.9273 24.9673 67.344 25.098 66.672 25.098ZM73.8488 18.378V22.9C73.8488 23.2733 73.9281 23.5393 74.0868 23.698C74.2455 23.8473 74.5208 23.922 74.9128 23.922H75.8508V25H74.7028C73.9935 25 73.4615 24.8367 73.1068 24.51C72.7521 24.1833 72.5748 23.6467 72.5748 22.9V18.378H71.5808V17.328H72.5748V15.396H73.8488V17.328H75.8508V18.378H73.8488ZM79.1684 18.574C79.3924 18.1353 79.7097 17.7947 80.1204 17.552C80.5404 17.3093 81.0491 17.188 81.6464 17.188V18.504H81.3104C79.8824 18.504 79.1684 19.2787 79.1684 20.828V25H77.8944V17.328H79.1684V18.574ZM84.2751 16.082C84.0324 16.082 83.8271 15.998 83.6591 15.83C83.4911 15.662 83.4071 15.4567 83.4071 15.214C83.4071 14.9713 83.4911 14.766 83.6591 14.598C83.8271 14.43 84.0324 14.346 84.2751 14.346C84.5084 14.346 84.7044 14.43 84.8631 14.598C85.0311 14.766 85.1151 14.9713 85.1151 15.214C85.1151 15.4567 85.0311 15.662 84.8631 15.83C84.7044 15.998 84.5084 16.082 84.2751 16.082ZM84.8911 17.328V25H83.6171V17.328H84.8911ZM91.3004 17.188C92.2337 17.188 92.9897 17.4727 93.5684 18.042C94.147 18.602 94.4364 19.414 94.4364 20.478V25H93.1764V20.66C93.1764 19.8947 92.985 19.3113 92.6024 18.91C92.2197 18.4993 91.697 18.294 91.0344 18.294C90.3624 18.294 89.8257 18.504 89.4244 18.924C89.0324 19.344 88.8364 19.9553 88.8364 20.758V25H87.5624V17.328H88.8364V18.42C89.0884 18.028 89.429 17.7247 89.8584 17.51C90.297 17.2953 90.7777 17.188 91.3004 17.188ZM100.181 17.202C100.844 17.202 101.423 17.3467 101.917 17.636C102.421 17.9253 102.795 18.2893 103.037 18.728V17.328H104.325V25.168C104.325 25.868 104.176 26.4887 103.877 27.03C103.579 27.5807 103.149 28.01 102.589 28.318C102.039 28.626 101.395 28.78 100.657 28.78C99.6495 28.78 98.8095 28.542 98.1375 28.066C97.4655 27.59 97.0688 26.9413 96.9475 26.12H98.2075C98.3475 26.5867 98.6368 26.96 99.0755 27.24C99.5141 27.5293 100.041 27.674 100.657 27.674C101.357 27.674 101.927 27.4547 102.365 27.016C102.813 26.5773 103.037 25.9613 103.037 25.168V23.558C102.785 24.006 102.412 24.3793 101.917 24.678C101.423 24.9767 100.844 25.126 100.181 25.126C99.5001 25.126 98.8795 24.958 98.3195 24.622C97.7688 24.286 97.3348 23.8147 97.0175 23.208C96.7001 22.6013 96.5415 21.9107 96.5415 21.136C96.5415 20.352 96.7001 19.666 97.0175 19.078C97.3348 18.4807 97.7688 18.0187 98.3195 17.692C98.8795 17.3653 99.5001 17.202 100.181 17.202ZM103.037 21.15C103.037 20.5713 102.921 20.0673 102.687 19.638C102.454 19.2087 102.137 18.882 101.735 18.658C101.343 18.4247 100.909 18.308 100.433 18.308C99.9575 18.308 99.5235 18.42 99.1315 18.644C98.7395 18.868 98.4268 19.1947 98.1935 19.624C97.9601 20.0533 97.8435 20.5573 97.8435 21.136C97.8435 21.724 97.9601 22.2373 98.1935 22.676C98.4268 23.1053 98.7395 23.4367 99.1315 23.67C99.5235 23.894 99.9575 24.006 100.433 24.006C100.909 24.006 101.343 23.894 101.735 23.67C102.137 23.4367 102.454 23.1053 102.687 22.676C102.921 22.2373 103.037 21.7287 103.037 21.15ZM109.694 25.126C109.106 25.126 108.579 25.028 108.112 24.832C107.646 24.6267 107.277 24.3467 107.006 23.992C106.736 23.628 106.586 23.2127 106.558 22.746H107.874C107.912 23.1287 108.089 23.4413 108.406 23.684C108.733 23.9267 109.158 24.048 109.68 24.048C110.166 24.048 110.548 23.9407 110.828 23.726C111.108 23.5113 111.248 23.2407 111.248 22.914C111.248 22.578 111.099 22.3307 110.8 22.172C110.502 22.004 110.04 21.8407 109.414 21.682C108.845 21.5327 108.378 21.3833 108.014 21.234C107.66 21.0753 107.352 20.8467 107.09 20.548C106.838 20.24 106.712 19.8387 106.712 19.344C106.712 18.952 106.829 18.5927 107.062 18.266C107.296 17.9393 107.627 17.6827 108.056 17.496C108.486 17.3 108.976 17.202 109.526 17.202C110.376 17.202 111.062 17.4167 111.584 17.846C112.107 18.2753 112.387 18.8633 112.424 19.61H111.15C111.122 19.2087 110.959 18.8867 110.66 18.644C110.371 18.4013 109.979 18.28 109.484 18.28C109.027 18.28 108.663 18.378 108.392 18.574C108.122 18.77 107.986 19.0267 107.986 19.344C107.986 19.596 108.066 19.806 108.224 19.974C108.392 20.1327 108.598 20.2633 108.84 20.366C109.092 20.4593 109.438 20.5667 109.876 20.688C110.427 20.8373 110.875 20.9867 111.22 21.136C111.566 21.276 111.86 21.4907 112.102 21.78C112.354 22.0693 112.485 22.4473 112.494 22.914C112.494 23.334 112.378 23.712 112.144 24.048C111.911 24.384 111.58 24.65 111.15 24.846C110.73 25.0327 110.245 25.126 109.694 25.126Z" fill="black"/>
<path d="M162.788 38.0102L156.88 39.8801L155.01 45.7884L151.889 34.8891L162.788 38.0102Z" fill="#A3FF2E" stroke="black" stroke-width="0.8" stroke-miterlimit="10"/>
<path d="M18.728 15.888L17.744 20.496H21.32V21.456H17.528L16.352 27H15.296L16.472 21.456H10.808L9.632 27H8.576L9.752 21.456H5.912V20.496H9.968L10.952 15.888H7.16V14.928H11.144L12.368 9.24H13.424L12.2 14.928H17.864L19.088 9.24H20.144L18.92 14.928H22.568V15.888H18.728ZM17.672 15.888H12.008L11.024 20.496H16.688L17.672 15.888Z" fill="black" fill-opacity="0.6"/>
</g>
<defs>
<filter id="filter0_d_351_92" x="0.912109" y="0" width="166.262" height="53.1745" filterUnits="userSpaceOnUse" color-interpolation-filters="sRGB">
<feFlood flood-opacity="0" result="BackgroundImageFix"/>
<feColorMatrix in="SourceAlpha" type="matrix" values="0 0 0 0 0 0 0 0 0 0 0 0 0 0 0 0 0 0 127 0" result="hardAlpha"/>
<feOffset dx="-1" dy="2"/>
<feGaussianBlur stdDeviation="2"/>
<feComposite in2="hardAlpha" operator="out"/>
<feColorMatrix type="matrix" values="0 0 0 0 0 0 0 0 0 0 0 0 0 0 0 0 0 0 0.3 0"/>
<feBlend mode="normal" in2="BackgroundImageFix" result="effect1_dropShadow_351_92"/>
<feBlend mode="normal" in="SourceGraphic" in2="effect1_dropShadow_351_92" result="shape"/>
</filter>
</defs>
</svg>
