<svg width="116" height="130" viewBox="0 0 116 130" fill="none" xmlns="http://www.w3.org/2000/svg">
<path d="M59.7016 0C60.7503 0.694935 61.073 1.65715 61.073 2.88665C61.0193 9.14106 61.0462 15.3955 61.0462 21.6499C61.0462 22.0775 61.073 22.5052 60.9655 22.9061C60.6966 23.9218 59.9705 24.4831 58.9217 24.4831C57.873 24.4831 57.1469 23.9485 56.878 22.9061C56.7704 22.4517 56.7973 21.9706 56.7973 21.5163C56.7973 15.342 56.8242 9.19452 56.7704 3.02029C56.7704 1.73734 57.0394 0.721663 58.1688 0C58.6797 0 59.1907 0 59.7016 0ZM22.2958 90.5553C22.4034 88.1231 21.758 87.4281 19.3378 87.348C14.2285 87.2143 9.14601 87.0807 4.03667 86.9738C1.72402 86.9203 1.07863 87.5618 0.997955 89.8337C0.863499 95.019 0.702151 100.231 0.567695 105.416C0.379456 112.125 0.191217 118.861 0.00297842 125.569C-0.0508041 127.28 0.621477 128.189 2.20806 128.242C7.85523 128.429 13.5293 128.563 19.1765 128.67C20.3597 128.697 21.274 127.975 21.2202 126.852C21.1126 124.981 22.1614 124.26 23.6135 123.672C24.2858 123.404 24.9043 123.003 25.5228 122.656C27.4859 121.587 29.5296 121.373 31.6809 121.988C37.0322 123.485 42.3836 125.008 47.7619 126.451C52.1989 127.627 56.5822 128.991 61.0999 129.686C66.3168 130.514 71.6413 129.739 76.1321 126.959C88.8248 119.074 101.302 110.869 113.861 102.797C115.367 101.835 115.555 100.766 114.587 99.242C111.817 94.8586 106.116 93.0678 101.275 95.1259C99.662 95.7941 98.1292 96.5959 96.5426 97.3176C92.3207 99.2955 88.0988 101.273 83.8768 103.251C83.7155 103.064 83.6079 102.931 83.5272 102.797C80.7306 98.36 76.67 96.195 71.3993 96.1148C67.5807 96.0614 63.7353 95.8208 59.9167 95.8475C55.399 95.8743 51.2577 94.8853 47.1971 92.7738C41.7113 89.9139 35.7684 89.2724 29.7178 90.5553C27.2169 91.0899 24.7967 92.0254 22.3227 92.7738C22.2958 92.0789 22.2689 91.3305 22.2958 90.5553ZM95.3863 109.613C88.8248 113.836 82.2365 118.032 75.7019 122.282C71.1304 125.275 66.0479 126.291 60.831 125.356C55.6948 124.447 50.7199 122.816 45.6643 121.453C41.4155 120.304 37.1667 119.101 32.9179 117.898C29.6103 116.963 26.4371 117.284 23.4253 118.941C22.8874 119.235 22.3227 119.529 21.6236 119.876C21.5698 119.529 21.4891 119.288 21.516 119.074C21.7042 112.473 21.9194 105.897 22.0538 99.2955C22.0807 98.4135 22.3765 97.9323 23.1295 97.5047C30.3632 93.4955 37.7583 93.0678 45.261 96.5425C48.6762 98.1194 52.0107 99.7766 55.8561 99.937C58.9486 100.044 62.068 100.124 65.1605 100.204C67.6345 100.284 70.0816 100.311 72.5556 100.445C76.5624 100.659 80.1658 103.813 80.865 107.795C80.3541 107.795 79.87 107.795 79.386 107.795C72.5287 107.608 65.6983 107.421 58.8411 107.261C58.4646 107.261 58.0612 107.234 57.6847 107.261C56.5284 107.367 55.6948 108.223 55.6679 109.319C55.641 110.361 56.4209 111.243 57.4965 111.403C58.1688 111.51 58.8411 111.51 59.5402 111.537C67.0967 111.751 74.68 111.884 82.2365 112.179C85.0869 112.285 85.7323 110.842 85.3559 108.704C85.1676 107.608 85.4634 107.18 86.4584 106.726C91.7829 104.294 97.0536 101.754 102.351 99.2688C105.067 98.0125 107.729 98.36 109.8 100.311C104.933 103.465 100.173 106.539 95.3863 109.613ZM4.35936 124.179C4.65517 113.141 4.97786 102.289 5.27367 91.4908C9.52249 91.4908 13.6637 91.4908 17.9932 91.4908C17.6974 102.556 17.3747 113.408 17.0789 124.179C12.7763 124.179 8.63507 124.179 4.35936 124.179ZM90.0349 59.3635C90.1156 42.3376 76.1859 28.4389 59.0293 28.3854C41.8727 28.332 27.8892 42.1505 27.8354 59.1764C27.7817 76.2023 41.6575 90.0742 58.8411 90.1277C75.9977 90.2079 89.9543 76.4161 90.0349 59.3635ZM32.1111 59.31C32.0843 44.556 44.1315 32.6085 58.9755 32.6352C73.7657 32.6619 85.7323 44.5827 85.7323 59.2833C85.7323 73.9571 73.7119 85.8779 58.9486 85.9046C44.1584 85.9314 32.138 73.9838 32.1111 59.31ZM90.0349 59.3635C90.1156 42.3376 76.1859 28.4389 59.0293 28.3854C41.8727 28.332 27.8892 42.1505 27.8354 59.1764C27.7817 76.2023 41.6575 90.0742 58.8411 90.1277C75.9977 90.2079 89.9543 76.4161 90.0349 59.3635ZM32.1111 59.31C32.0843 44.556 44.1315 32.6085 58.9755 32.6352C73.7657 32.6619 85.7323 44.5827 85.7323 59.2833C85.7323 73.9571 73.7119 85.8779 58.9486 85.9046C44.1584 85.9314 32.138 73.9838 32.1111 59.31ZM72.8783 21.9974C72.9052 23.5476 73.685 24.4831 74.9758 24.5098C76.2666 24.5365 77.1002 23.6011 77.1271 22.0775C77.154 19.084 77.154 16.0637 77.1271 13.0701C77.1271 11.6001 76.2935 10.718 75.0296 10.6913C73.7657 10.6646 72.9321 11.5733 72.8783 13.0167C72.8514 14.5402 72.8783 16.0637 72.8783 17.5872C72.8783 19.0305 72.8514 20.5006 72.8783 21.9974ZM44.9652 13.0434C44.9383 11.5733 44.1315 10.6913 42.8677 10.6646C41.6038 10.6378 40.7432 11.5466 40.7432 12.9899C40.7164 16.037 40.7164 19.084 40.7432 22.131C40.7432 23.5743 41.6038 24.4831 42.8408 24.5098C44.0778 24.5365 44.9383 23.6278 44.9921 22.1845C45.019 20.6609 44.9921 19.1374 44.9921 17.6139C44.9652 16.0904 44.9921 14.5669 44.9652 13.0434ZM65.6177 78.4207C66.2631 77.7525 66.2093 76.7368 65.4832 76.0419C65.2681 75.8281 65.0529 75.641 64.8378 75.4272L51.9838 63.346C52.2796 63.346 52.6023 63.346 52.8981 63.346C53.4628 63.346 53.9469 63.346 54.3771 63.3192C55.4797 63.2658 56.2864 63.1856 57.0662 63.0252C61.6915 62.0363 65.3488 58.1072 65.9673 53.4298C66.7471 53.4298 67.5269 53.4298 68.3337 53.4298C69.1673 53.4298 70.0278 53.4298 70.8615 53.4298C71.2379 53.4298 71.5875 53.3496 71.8833 53.1892C72.5287 52.8685 72.8514 52.0934 72.6363 51.3717C72.4212 50.6501 71.8027 50.1957 71.0497 50.1957C70.1892 50.1957 69.3287 50.1957 68.4681 50.1957H65.9673C65.537 47.603 64.4344 45.438 62.5789 43.6473H69.3287H70.3236C70.5388 43.6473 70.7808 43.6473 70.9959 43.6473C71.8027 43.6205 72.4749 43.1127 72.6363 42.3643C72.7976 41.6159 72.4212 40.8942 71.6682 40.5468L71.5875 40.4933L71.4531 40.4131H47.4661L47.3585 40.4666C47.0896 40.6002 46.3635 40.9477 46.256 41.8297C46.2022 42.3108 46.3366 42.7385 46.6324 43.086C46.9551 43.4602 47.4392 43.6473 48.0039 43.6473H48.7031C49.2678 43.6473 51.4729 43.6473 52.0376 43.6473C52.925 43.6473 53.8124 43.6472 54.7267 43.674C58.115 43.7274 61.1806 45.8924 62.3369 49.0731C62.4714 49.4206 62.5521 49.8215 62.6596 50.2224H48.2459H48.0577C47.9501 50.2224 47.8694 50.2224 47.7619 50.2224C46.9551 50.3026 46.3366 50.9441 46.2828 51.7459C46.256 52.5478 46.7938 53.2694 47.5736 53.4031C47.7888 53.4565 48.0308 53.4565 48.219 53.4565C51.5535 53.4565 62.6596 53.4565 62.6596 53.4565C62.2294 55.5681 61.0999 57.2787 59.352 58.5616C57.9268 59.5773 56.3133 60.1119 54.5116 60.1119H50.9081C49.9401 60.1119 48.9989 60.1119 48.0308 60.1119C47.4661 60.1119 46.982 60.3257 46.6593 60.7266C46.3635 61.0741 46.256 61.5285 46.3366 61.9561C46.4173 62.3303 46.6593 62.758 46.982 63.0787C48.5686 64.5755 50.1821 66.099 51.7418 67.569L53.3552 69.0926L63.2781 78.4207C63.6277 78.7682 64.0849 78.9553 64.5151 78.9553C64.8916 78.9286 65.295 78.7415 65.6177 78.4207Z" fill="black"/>
</svg>
