<svg width="134" height="120" viewBox="0 0 134 120" fill="none" xmlns="http://www.w3.org/2000/svg">
<path d="M85.3077 109.36C85.5718 110.207 85.1229 111.081 84.278 111.372C84.1196 111.425 83.9612 111.451 83.8028 111.451C83.1427 111.451 82.509 111.028 82.2978 110.34C81.0569 106.449 77.6773 102.876 74.1129 101.632C73.2944 101.341 72.8456 100.441 73.136 99.6207C73.4264 98.8002 74.3241 98.3503 75.1426 98.6414C79.6575 100.203 83.75 104.517 85.3077 109.36ZM66.8785 97.1063C66.0336 97.1063 65.3735 97.7944 65.3735 98.6149C65.3735 99.4354 66.06 100.124 66.8785 100.124C67.697 100.124 68.3835 99.4354 68.3835 98.6149C68.3835 97.7944 67.697 97.1063 66.8785 97.1063ZM133.81 115.818C133.81 116.692 133.757 117.565 133.678 118.438C133.599 119.259 132.912 119.868 132.094 119.868C132.041 119.868 131.988 119.868 131.935 119.868C131.064 119.788 130.43 118.994 130.509 118.121C130.589 117.353 130.615 116.586 130.615 115.845C130.615 103.511 120.608 93.4804 108.305 93.4804C102.892 93.4804 97.7435 95.4124 93.6774 98.959C96.5554 103.697 98.1923 109.255 98.1923 115.21C98.1923 116.268 98.1395 117.353 98.0339 118.412C97.9547 119.285 97.1626 119.921 96.2913 119.841C95.42 119.762 94.7864 118.968 94.8656 118.094C94.9712 117.142 95.024 116.162 95.024 115.21C95.024 99.6206 82.377 86.9431 66.8257 86.9431C51.2744 86.9431 38.6274 99.6206 38.6274 115.21C38.6274 116.215 38.6802 117.247 38.7858 118.253C38.8915 119.127 38.2578 119.921 37.3865 120C37.3337 120 37.2809 120 37.2281 120C36.436 120 35.7495 119.391 35.6439 118.571C35.5119 117.459 35.4591 116.321 35.4591 115.183C35.4591 109.228 37.1225 103.644 40.0004 98.8796C35.9607 95.386 30.8122 93.4539 25.4524 93.4539C13.2014 93.4539 3.19475 103.485 3.19475 115.818C3.19475 116.586 3.22115 117.353 3.30036 118.094C3.37957 118.968 2.7459 119.735 1.8746 119.841C1.8218 119.841 1.76899 119.841 1.71619 119.841C0.924101 119.841 0.237626 119.232 0.132014 118.412C0.0528058 117.539 0 116.665 0 115.792C0 104.041 7.94727 94.142 18.746 91.1513C13.9143 88.6899 10.614 83.6612 10.614 77.865C10.614 69.6604 17.2675 62.9643 25.4788 62.9643C33.6901 62.9643 40.3436 69.6339 40.3436 77.865C40.3436 83.6612 37.0432 88.6634 32.2115 91.1513C35.7231 92.1041 38.9971 93.8244 41.8222 96.2064C46.1258 90.4896 52.3305 86.3079 59.4857 84.5876C52.6209 81.7027 47.7892 74.8743 47.7892 66.9607C47.7892 56.427 56.3438 47.8518 66.8521 47.8518C77.3605 47.8518 85.915 56.427 85.915 66.9607C85.915 74.8743 81.0833 81.6762 74.2185 84.5876C81.4001 86.3344 87.6048 90.5426 91.9084 96.2594C94.76 93.8509 98.0603 92.1306 101.572 91.1513C96.7402 88.6899 93.4398 83.6612 93.4398 77.865C93.4398 69.6604 100.093 62.9643 108.305 62.9643C116.516 62.9643 123.169 69.6339 123.169 77.865C123.169 83.6612 119.869 88.6634 115.037 91.1513C125.863 94.142 133.81 104.067 133.81 115.818ZM25.5052 89.6162C31.9475 89.6162 37.2017 84.3494 37.2017 77.8915C37.2017 71.4336 31.9475 66.1667 25.5052 66.1667C19.0629 66.1667 13.8087 71.4601 13.8087 77.918C13.8087 84.3758 19.0629 89.6162 25.5052 89.6162ZM66.8785 82.9202C75.6443 82.9202 82.773 75.7742 82.773 66.9872C82.773 58.2003 75.6443 51.0543 66.8785 51.0543C58.1128 51.0543 50.984 58.2003 50.984 66.9872C50.984 75.7742 58.1128 82.9202 66.8785 82.9202ZM108.331 89.6162C114.773 89.6162 120.028 84.3494 120.028 77.8915C120.028 71.4336 114.773 66.1667 108.331 66.1667C101.889 66.1667 96.6346 71.4336 96.6346 77.8915C96.6346 84.3494 101.889 89.6162 108.331 89.6162ZM58.1128 22.285L48.3701 13.4451L61.4395 12.0159L66.8257 0L72.2119 12.0159L85.2813 13.4451L75.5387 22.285L78.2318 35.1742L66.8257 28.637L55.4197 35.2007L58.1128 22.285ZM61.0171 21.3322L59.2217 29.9338L66.8257 25.5668L74.4297 29.9338L72.6343 21.3322L79.1294 15.4301L70.4165 14.4773L66.8257 6.45787L63.2349 14.4773L54.522 15.4301L61.0171 21.3322ZM19.723 38.7208L13.2278 32.8452L21.9144 31.8924L25.4788 23.8994L29.0432 31.8924L37.7297 32.8452L31.261 38.7208L33.0564 47.296L25.4788 42.929L17.9012 47.296L19.723 38.7208ZM22.02 37.9797L20.9375 43.1143L25.4788 40.494L30.0201 43.1143L28.9376 37.9797L32.8188 34.4596L27.6174 33.9038L25.4788 29.1134L23.3402 33.8774L18.1388 34.4332L22.02 37.9797ZM102.549 38.7208L96.0801 32.8452L104.767 31.8924L108.331 23.8994L111.895 31.8924L120.582 32.8452L114.113 38.7208L115.909 47.296L108.331 42.929L100.753 47.296L102.549 38.7208ZM104.872 37.9797L103.79 43.1143L108.331 40.494L112.872 43.1143L111.79 37.9797L115.671 34.4596L110.47 33.9038L108.331 29.1134L106.192 33.9038L100.991 34.4596L104.872 37.9797Z" fill="black"/>
</svg>
