<svg width="137" height="120" viewBox="0 0 137 120" fill="none" xmlns="http://www.w3.org/2000/svg">
<path d="M136.443 111.181L130.914 97.5003C132.343 96.0305 133.095 93.92 132.795 91.6964C132.494 89.6236 133.171 87.513 134.563 86.0055C137.045 83.3674 137.008 79.184 134.563 76.5836C133.133 75.076 132.494 72.9655 132.757 70.8927C133.284 67.2746 130.876 63.8827 127.415 63.2797C125.421 62.9405 123.691 61.6215 122.751 59.7748C121.584 57.5135 119.327 56.1944 116.995 56.1567C116.995 56.1567 116.995 56.1567 116.957 56.1567C116.017 56.1567 115.039 56.3828 114.098 56.8728C113.196 57.325 112.218 57.5889 111.202 57.5889C110.224 57.5889 109.246 57.3627 108.343 56.8728C107.402 56.3828 106.424 56.1567 105.484 56.1567C103.152 56.1567 100.894 57.4758 99.7283 59.7748C98.7879 61.6591 97.0575 62.9405 95.0637 63.3174C91.6029 63.9204 89.2329 67.3123 89.7596 70.9681C90.0605 73.0409 89.3834 75.1514 87.9915 76.6589C87.1639 77.5257 86.6373 78.581 86.374 79.674C82.8002 77.6011 74.9381 73.154 70.0478 71.7595C69.634 71.6464 69.2954 71.4203 69.1073 71.2696C68.4302 70.7042 67.7531 70.1012 67.0759 69.5359C65.9098 68.5183 64.706 67.5008 63.5022 66.5209C63.2013 66.2571 62.8627 66.144 62.5618 66.1063V56.6843C67.4145 52.7271 70.5368 46.7347 70.5368 39.9886V26.6848C76.8566 22.2376 80.8065 14.8131 81.4084 10.8182C81.4836 10.2905 81.2955 9.76292 80.8441 9.42373C80.4303 9.08454 79.866 9.00916 79.3394 9.1976C73.8095 11.4212 70.123 8.70766 65.7969 5.54187C59.6652 1.05702 52.7435 -4.03085 40.0286 5.01424C34.7997 3.61979 30.8122 4.41124 28.1789 7.35089C23.4015 12.6272 24.9438 23.6321 26.8247 28.3054C26.9752 28.6822 27.2761 28.9837 27.6523 29.1345V40.0263C27.6523 46.584 30.6241 52.4633 35.2511 56.4205V66.144C35.2135 66.144 35.1383 66.144 35.1006 66.144C34.7245 66.144 34.2731 66.4078 33.5207 67.0108C33.3326 67.1616 30.4736 69.649 29.458 70.3274C29.1946 70.5158 28.8561 70.8173 28.2166 71.0434C25.4704 72.0233 12.7556 77.978 6.58622 82.6513C2.63633 85.6286 0.454487 89.9628 0.153543 94.7491C-0.0345471 97.538 0.00307086 115.063 0.00307086 116.08C0.00307086 117.211 0.115925 117.852 0.416869 118.153C0.717812 118.455 1.35732 118.606 2.52348 118.606C2.52348 118.606 94.1233 118.606 95.7032 118.606C97.0951 118.606 97.5841 118.078 97.5841 116.721C97.5841 116.721 97.5841 113.97 97.5841 111.784L100.217 118.606C100.518 119.435 101.308 119.962 102.174 119.962C103.039 119.962 103.791 119.435 104.13 118.643L109.396 105.603L109.321 105.566C109.96 105.377 110.6 105.264 111.239 105.264C111.954 105.264 112.669 105.377 113.384 105.641L113.045 105.792L118.236 118.681C118.575 119.472 119.327 120 120.193 120C121.058 120 121.848 119.472 122.149 118.643L125.384 110.277L133.509 114.045C134.299 114.422 135.24 114.271 135.842 113.668C136.556 112.877 136.744 111.972 136.443 111.181ZM64.7812 75.4152C64.1041 77.1489 60.869 85.4402 60.869 85.4402C60.7937 85.6663 60.6809 85.8548 60.568 86.1186L60.3799 86.5332L60.0037 87.4377L50.9378 80.0131L62.4865 69.4982L62.9756 69.8374C65.9098 71.8349 66.0226 72.2118 64.7812 75.4152ZM49.0945 61.433C52.7435 61.433 56.1667 60.5285 59.1762 58.9079V68.6314L48.8312 78.0911L48.0036 77.375C47.8155 77.2242 47.6651 77.0735 47.5146 76.9227L43.9785 73.6816C42.2104 72.061 40.4048 70.4027 38.6367 68.7822V58.6818C41.7214 60.4531 45.2951 61.433 49.0945 61.433ZM48.7936 81.9352L55.7529 87.6638L54.5491 89.1713C53.7968 90.1512 53.082 91.0557 52.3297 91.9602C52.0287 92.3371 51.5021 92.4878 51.2388 92.5255C51.0883 92.5632 50.9378 92.5632 50.7121 92.5632C50.5993 92.5632 50.524 92.5632 50.4112 92.5632C50.3359 92.5632 50.2231 92.5632 50.1478 92.5632H49.9598C45.2951 92.5632 44.9942 92.4125 42.3233 88.1537L41.9847 87.5884L48.7936 81.9352ZM30.3984 9.34835C32.3169 7.20014 35.5144 6.78558 39.8781 8.06696C40.3295 8.21772 40.8186 8.10465 41.1948 7.84084C52.5178 -0.488188 58.0852 3.61979 64.0289 7.9539C68.0164 10.8559 72.1167 13.8709 77.6842 12.8156C75.9162 17.3005 71.1387 24.4989 63.7655 26.7225C56.4677 28.9461 48.7184 25.5541 40.7057 16.6975C40.4424 16.396 40.0286 16.2075 39.6524 16.2075H39.6148C39.2386 16.2075 38.8624 16.3583 38.5615 16.6221C36.6806 18.4688 34.085 20.6547 31.7903 22.5768C30.737 23.4813 29.7589 24.3104 28.9313 25.0265C27.6899 20.2778 27.2761 12.8156 30.3984 9.34835ZM30.6617 39.9509V27.5139C31.5269 26.7602 32.6179 25.818 33.7464 24.8758C35.6649 23.2552 37.7715 21.4839 39.5396 19.8633C47.3265 28.0039 54.173 30.3782 59.5147 30.3782C61.4332 30.3782 63.1637 30.0767 64.6684 29.6244C65.6464 29.3229 66.6245 28.9461 67.5274 28.4938V39.9886C67.5274 50.1643 59.2514 58.4557 49.0945 58.4557C38.9377 58.4557 30.6617 50.1267 30.6617 39.9509ZM32.8812 71.1565C33.2574 70.9304 34.3483 69.9882 34.5364 69.7997L35.0254 69.3852L46.6494 79.9755L37.6211 87.4377L37.2073 86.5332C37.132 86.3824 37.0944 86.2693 37.0568 86.1563C36.9439 85.8925 36.8311 85.704 36.7558 85.4779C36.3044 84.3473 35.8906 83.2166 35.4392 82.086C34.3859 79.3725 33.295 76.5459 32.1664 73.757C31.8655 72.9655 31.6398 71.9479 32.8812 71.1565ZM3.05013 115.553C3.05013 115.553 3.08775 95.4275 3.38869 92.9401C3.72725 90.1512 5.34482 87.5507 7.90285 85.591C12.3042 82.2367 26.6366 74.963 27.4266 74.7368C27.7651 74.6238 28.1413 74.5107 28.5175 74.3977L29.157 74.2092L29.4203 74.8122C29.4956 74.9253 29.5332 75.0384 29.5708 75.1514C29.6837 75.3775 29.7589 75.566 29.8717 75.7921C31.4141 79.7493 35.2135 89.5482 35.2135 89.5482C35.8906 91.3195 36.4925 91.3195 36.7182 91.3195C37.1696 91.3195 37.7339 91.018 38.4863 90.4527C38.5991 90.3773 39.69 89.5859 39.69 89.5859L40.1415 90.1512C40.3672 90.4527 42.2104 92.7517 42.85 93.6185C43.1885 94.0707 43.1509 94.8245 43.0004 95.2767C42.4738 96.7466 38.9753 115.591 38.9753 115.591L3.05013 115.553ZM42.2857 115.515C42.2857 115.515 45.2951 97.3119 45.6337 96.4828C45.8594 95.9174 46.5741 95.4275 47.176 95.3898C47.6651 95.3521 48.1917 95.3521 48.7936 95.3521C49.3202 95.3521 49.8469 95.3521 50.4864 95.3898C50.9754 95.4275 51.7278 95.729 51.9535 96.332C52.4802 97.7641 55.3767 115.553 55.3767 115.553H42.2857V115.515ZM58.8376 115.591C58.8376 115.591 55.2263 96.7843 54.7372 95.3898C54.5115 94.7868 54.662 93.8823 55.0382 93.317C55.6024 92.5255 56.2043 91.7718 56.8062 91.018C57.0319 90.7165 57.2953 90.415 57.521 90.1135L57.9724 89.5482L59.6276 90.8296C60.0414 91.1311 60.4552 91.3195 60.7937 91.3195C61.5461 91.3195 61.9599 90.6034 62.148 90.1512C63.0132 88.003 63.8408 85.8171 64.6684 83.6689C65.0822 82.6513 65.4584 81.596 65.8722 80.5785C66.3612 79.2971 66.8502 78.0157 67.3769 76.6966L68.3173 74.3223L68.9568 74.4353C71.8158 75.0007 82.4993 80.88 86.4492 83.292C86.7501 84.3096 87.2768 85.2895 88.0291 86.1186C89.4586 87.6261 90.0981 89.7366 89.8348 91.8095C89.5339 93.9577 90.2486 96.0305 91.6405 97.5003L86.1106 111.181C85.7721 112.01 85.9978 112.915 86.5997 113.518C87.2392 114.121 88.142 114.271 88.932 113.895L94.7252 111.219C94.7252 113.178 94.7252 115.591 94.7252 115.591H58.8376ZM102.249 116.307L98.4869 106.545L89.0072 110.955L93.8223 99.0455C94.2361 99.234 94.6875 99.347 95.1389 99.4224C97.1327 99.7616 98.8631 101.081 99.8036 102.927C100.97 105.226 103.227 106.545 105.559 106.545C105.785 106.545 106.011 106.545 106.199 106.508L102.249 116.307ZM107.214 103.493C106.688 103.757 106.123 103.907 105.521 103.907C104.092 103.907 102.813 103.078 102.136 101.759C100.819 99.1586 98.3741 97.3119 95.5527 96.822C93.4838 96.4451 92.0543 94.3722 92.3552 92.1863C92.769 89.3221 91.8286 86.3824 89.8724 84.3096C88.3677 82.7267 88.3677 80.0885 89.8724 78.5056C91.8286 76.4328 92.7314 73.4931 92.3176 70.6289C92.0167 68.443 93.4085 66.3325 95.4775 65.9556C98.2612 65.4656 100.744 63.6189 102.023 61.0185C102.7 59.6617 103.979 58.8326 105.409 58.8326C105.973 58.8326 106.537 58.9833 107.064 59.2471C108.305 59.8878 109.735 60.227 111.127 60.227C112.556 60.227 113.948 59.8878 115.227 59.2094C115.754 58.9456 116.318 58.7949 116.882 58.7949C118.312 58.7949 119.628 59.624 120.305 60.9431C121.622 63.5435 124.067 65.3902 126.889 65.8802C128.958 66.2571 130.387 68.3299 130.086 70.5158C129.672 73.3801 130.613 76.3197 132.569 78.3926C134.074 79.9755 134.074 82.6136 132.569 84.1965C130.613 86.2693 129.71 89.209 130.124 92.0733C130.425 94.2592 129.033 96.3697 126.964 96.7466C124.18 97.2365 121.697 99.0832 120.418 101.684C119.741 103.04 118.462 103.87 117.033 103.87C116.468 103.87 115.904 103.719 115.377 103.455C114.136 102.814 112.707 102.475 111.315 102.475C109.885 102.475 108.493 102.814 107.214 103.493ZM124.03 106.545L120.268 116.307L116.318 106.47C116.581 106.508 116.845 106.508 117.108 106.508C119.44 106.508 121.697 105.189 122.863 102.89C123.804 101.005 125.534 99.7239 127.528 99.347C127.942 99.2717 128.356 99.1586 128.732 99.0078L133.547 110.917L124.03 106.545ZM128.92 81.2945C128.92 71.5711 120.982 63.6189 111.239 63.6189C101.459 63.6189 93.559 71.5711 93.559 81.3699C93.559 91.0934 101.496 99.0455 111.164 99.0455C111.164 99.0455 111.164 99.0455 111.202 99.0455C120.982 99.0455 128.92 91.1311 128.92 81.2945ZM111.164 96.4074C102.888 96.4074 96.1922 89.6613 96.1922 81.3699C96.1922 77.3373 97.7722 73.5308 100.594 70.7042C103.453 67.84 107.214 66.2948 111.239 66.2948C115.265 66.2948 119.026 67.8776 121.885 70.7042C124.744 73.5685 126.287 77.3373 126.287 81.3322C126.287 89.6236 119.515 96.4074 111.164 96.4074ZM120.268 79.4101L115.528 83.7066L116.845 90.0004L111.277 86.797L105.71 90.0004L107.026 83.7066L102.286 79.4101L108.644 78.7318L111.277 72.8901L113.91 78.7318L120.268 79.4101Z" fill="black"/>
</svg>
