<svg width="150" height="120" viewBox="0 0 150 120" fill="none" xmlns="http://www.w3.org/2000/svg">
<path d="M103.371 119.959V109.254C103.371 106.231 104.76 103.371 107.13 101.573C112.523 97.4872 118.366 95.4035 124.576 95.4035C125.802 95.4035 127.068 95.4852 128.335 95.6486C134.668 96.4658 140.02 99.2441 143.371 101.41C146.149 103.207 147.824 106.272 147.824 109.581V119.019H144.556V109.581C144.556 107.375 143.452 105.373 141.573 104.147C137.691 101.655 131.644 98.6312 124.617 98.6312C119.101 98.6312 113.912 100.47 109.091 104.147C107.538 105.332 106.639 107.211 106.639 109.213V119.918H103.371V119.959ZM92.8702 119.959V109.254C92.8702 107.252 91.9305 105.373 90.4188 104.188C85.5975 100.511 80.4086 98.6721 74.8927 98.6721C67.906 98.6721 61.8182 101.655 57.9366 104.188C56.098 105.373 54.954 107.416 54.954 109.622V119.06H51.6854V109.622C51.6854 106.313 53.3605 103.248 56.1389 101.45C59.4893 99.285 64.8008 96.5066 71.1746 95.6895C72.4412 95.526 73.7078 95.4443 74.9336 95.4443C81.144 95.4443 87.0275 97.5281 92.38 101.614C94.7497 103.412 96.1389 106.272 96.1389 109.295V120H92.8702V119.959ZM41.1849 119.959V109.254C41.1849 107.252 40.2451 105.373 38.7334 104.188C33.9121 100.511 28.7232 98.6721 23.2073 98.6721C16.2206 98.6721 10.1328 101.655 6.25127 104.188C4.41266 105.373 3.26864 107.416 3.26864 109.622V119.06H0V109.622C0 106.313 1.67518 103.248 4.45352 101.45C7.80388 99.285 13.1563 96.5066 19.4893 95.6895C20.7559 95.526 22.0225 95.4443 23.2482 95.4443C29.4586 95.4443 35.3422 97.5281 40.6946 101.614C43.0643 103.412 44.4535 106.272 44.4535 109.295V120H41.1849V119.959ZM125.802 95.1583C120.327 95.1583 117.63 92.2165 115.955 84.2901C114.811 79.0194 116.404 75.7099 117.957 73.8713C120.041 71.3381 123.309 69.9489 127.15 69.9489C127.273 69.9489 127.395 69.9489 127.518 69.9489C130.95 70.0306 133.851 71.4198 135.689 73.8713C137.732 76.6496 138.223 80.4494 137.079 84.5761C134.545 93.3197 129.561 95.1583 125.802 95.1583ZM127.15 73.2176C124.29 73.2176 121.92 74.1982 120.449 75.955C118.938 77.7937 118.488 80.4494 119.142 83.6364C120.776 91.3177 122.942 91.8897 125.802 91.8897C129.642 91.8897 132.339 89.1113 133.892 83.6772C134.791 80.5312 134.464 77.7528 133.034 75.8325C131.808 74.1982 129.888 73.2993 127.436 73.2584C127.314 73.2176 127.232 73.2176 127.15 73.2176ZM74.811 95.1583C71.6649 95.1583 66.1491 93.7691 64.3514 84.4535C63.6159 80.5311 64.3514 76.9356 66.5168 74.3207C68.5189 71.9101 71.5015 70.6027 74.9336 70.6027C78.8151 70.6027 82.0429 71.9918 83.9632 74.5659C85.3115 76.3636 86.6598 79.5914 85.1889 84.617C83.0643 92.2983 80.2451 95.1583 74.811 95.1583ZM74.9744 73.8713C72.523 73.8713 70.4392 74.7702 69.0909 76.4045C67.5791 78.2431 67.048 80.8989 67.62 83.8406C68.6414 89.193 71.0929 91.8897 74.8519 91.8897C77.5485 91.8897 79.9591 91.2768 82.1246 83.7181C82.9826 80.7354 82.7375 78.2431 81.43 76.5271C80.0817 74.811 77.8345 73.8713 74.9744 73.8713ZM22.0225 95.1583C18.2635 95.1583 13.2789 93.3197 10.7865 84.5761C9.64249 80.4494 10.1328 76.6496 12.1757 73.8713C13.9734 71.4198 16.8744 70.0306 20.3473 69.9489C20.4699 69.9489 20.5924 69.9489 20.715 69.9489C24.5557 69.9489 27.7834 71.3381 29.9081 73.8713C31.4198 75.7099 33.0133 79.0194 31.9101 84.2901C30.1532 92.2165 27.4974 95.1583 22.0225 95.1583ZM20.3881 73.2176C17.9367 73.2584 16.0163 74.1573 14.7906 75.7916C13.3606 77.7528 13.0337 80.5312 13.9326 83.6364C15.4852 89.0705 18.1818 91.8488 22.0225 91.8488C24.8825 91.8488 27.048 91.236 28.6823 83.5955C29.3769 80.4494 28.8866 77.7937 27.3749 75.9142C25.904 74.1573 23.5342 73.1767 20.6741 73.1767C20.5924 73.2176 20.4699 73.2176 20.3881 73.2176ZM86.3738 68.5189C86.3738 65.6997 86.3738 60.4699 86.3738 56.6701V53.524C82.5332 58.1818 78.0796 63.5342 76.9765 64.4331C73.381 67.334 69.4586 68.8458 65.3728 68.8458H65.2502H65.2094C61.9407 68.6823 59.9795 67.6609 59.4075 65.8223C58.7538 63.6976 60.3881 61.6139 61.0827 61.0827C62.1042 60.3064 63.2482 59.857 64.4739 59.3667C65.0868 59.1215 65.6997 58.8764 66.3534 58.5904C69.9489 56.9152 72.809 53.1563 75.383 49.3973C78.2022 45.2298 81.4709 40.4494 84.9029 35.9959C87.3953 32.7681 90.0919 30.8887 93.1971 30.2758C93.4831 30.2349 94.0143 30.1941 94.8723 30.1532L95.6077 30.1124L96.1389 30.6435C97.2421 31.7467 100.184 34.3616 103.452 34.3616C106.721 34.3616 109.785 31.8693 110.97 30.7661L111.501 30.2758L112.237 30.3575C114.729 30.6435 121.021 31.3381 125.148 32.0735C126.129 32.237 126.782 32.3595 127.354 32.3595C129.07 32.3595 129.765 31.4607 130.909 29.7446C131.072 29.4586 135.281 23.2074 137.365 20.8376C139.122 18.8355 141.369 17.8141 144.024 17.8141C144.842 17.8141 145.74 17.8958 146.599 18.1001C148.437 18.5087 149.295 19.2033 149.581 20.4699C149.949 22.0633 149.418 23.3299 148.151 24.1062L148.029 24.1879C143.82 26.0674 140.306 34.525 138.631 38.6108C138.223 39.5506 137.937 40.286 137.691 40.7763L137.61 40.9397C136.302 43.5546 134.382 44.8212 131.767 44.8212H131.358C130.296 44.8212 122.084 44.0041 118.12 43.6364C118.039 49.0296 117.794 64.6782 117.794 68.5598V68.9683H114.525V68.5598C114.525 64.4331 114.811 47.191 114.852 42.002L114.893 40L116.65 40.1634C123.187 40.8172 130.541 41.5117 131.318 41.5117H131.726C132.87 41.5117 133.769 41.144 134.627 39.428L134.709 39.2646C134.913 38.8968 135.199 38.1614 135.567 37.3034C137.528 32.6456 141.083 24.0245 146.231 21.3687C146.149 21.3279 146.027 21.3279 145.863 21.287C145.209 21.1236 144.556 21.0419 143.984 21.0419C142.268 21.0419 140.96 21.6547 139.816 22.9622C137.896 25.1277 133.647 31.4607 133.606 31.5424C132.38 33.3401 130.909 35.5873 127.354 35.5873C126.496 35.5873 125.679 35.4648 124.576 35.2605C120.899 34.6067 115.546 33.9939 112.605 33.667C110.848 35.1379 108.233 36.9356 105.168 37.4668V49.3973H101.9V37.4668C98.7129 36.9765 96.098 35.0562 94.382 33.4627C94.0143 33.5036 93.8508 33.5036 93.8508 33.5036C91.6036 33.953 89.5199 35.4239 87.5587 37.998C84.2083 42.4106 80.9397 47.1502 78.1614 51.236C75.3422 55.4035 72.1552 59.5301 67.8243 61.573C67.0888 61.8999 66.4351 62.1859 65.7814 62.431C64.7191 62.8396 63.8202 63.2073 63.1665 63.6976C62.9622 63.9019 62.5536 64.6374 62.6353 64.8825C62.6762 65.0051 63.3299 65.4954 65.4137 65.618C68.764 65.5771 71.9918 64.3514 74.9744 61.8999C75.955 61.0827 82.4923 53.238 86.8233 47.8856L89.7242 44.2901V56.6701C89.7242 60.4699 89.7242 65.6997 89.7242 68.478V68.8866H86.4555L86.3738 68.5189ZM10.4596 63.3299C4.69867 63.3299 0 58.6312 0 52.8703V10.4597C0 4.69867 4.69867 0 10.4596 0H78.1614C83.9632 0 88.6619 4.69867 88.6619 10.4597V26.476L85.3932 28.1103V10.4597C85.3932 6.49642 82.1654 3.26864 78.2022 3.26864H10.4596C6.49642 3.26864 3.26864 6.49642 3.26864 10.4597V52.8294C3.26864 56.7926 6.49642 60.0204 10.4596 60.0204H53.6874V63.2891H10.4596V63.3299ZM10.8274 55.2809C10.0511 55.2809 9.39734 54.6272 9.39734 53.8509C9.39734 53.0746 10.0511 52.4208 10.8274 52.4208H27.3749C28.1512 52.4208 28.8049 53.0746 28.8049 53.8509C28.8049 54.6272 28.1512 55.2809 27.3749 55.2809H10.8274ZM10.8274 47.8856C10.0511 47.8856 9.39734 47.2319 9.39734 46.4556C9.39734 45.6793 10.0511 45.0255 10.8274 45.0255H64.0654C64.8417 45.0255 65.4954 45.6793 65.4954 46.4556C65.4954 47.2319 64.8417 47.8856 64.0654 47.8856H10.8274ZM10.8274 40.5312C10.0511 40.5312 9.39734 39.8774 9.39734 39.1011C9.39734 38.3248 10.0511 37.6711 10.8274 37.6711H39.4688C40.2451 37.6711 40.8989 38.3248 40.8989 39.1011C40.8989 39.8774 40.2451 40.5312 39.4688 40.5312H10.8274ZM28.6006 32.3187C28.3963 32.3187 28.192 32.2778 27.9877 32.1961C27.1706 31.8693 26.762 30.9295 27.1297 30.1124L35.9959 8.33504C36.241 7.72216 36.8131 7.35444 37.4668 7.35444C37.6711 7.35444 37.8754 7.3953 38.0797 7.47702C38.8968 7.80388 39.3054 8.74362 38.9377 9.56078L30.0715 31.3381C29.8263 31.951 29.2135 32.3187 28.6006 32.3187ZM103.738 29.7855C100.592 29.7855 95.0766 28.3963 93.2788 19.0807C92.5434 15.1583 93.2788 11.5628 95.4443 8.94791C97.4463 6.53728 100.429 5.22983 103.861 5.22983C107.743 5.22983 110.97 6.619 112.891 9.19305C114.239 10.9908 115.587 14.2186 114.116 19.2441C111.951 26.9254 109.132 29.7855 103.738 29.7855ZM103.861 8.49847C101.41 8.49847 99.3258 9.39734 97.9775 11.0317C96.4657 12.8703 95.9346 15.526 96.5066 18.4678C97.5281 23.8202 99.9795 26.5169 103.738 26.5169C106.435 26.5169 108.846 25.904 111.011 18.3452C111.869 15.3626 111.624 12.8703 110.317 11.1542C109.009 9.4382 106.721 8.49847 103.861 8.49847ZM40.6537 28.3146C40.0408 28.3146 39.5097 27.9877 39.2237 27.4566C39.0194 27.0889 38.9785 26.6394 39.1011 26.2308C39.2237 25.8223 39.5097 25.4954 39.8774 25.2911L50.9091 19.4484L39.8774 13.7283C39.1011 13.3197 38.7742 12.3391 39.1828 11.5628C39.4688 11.0317 40 10.7048 40.6129 10.7048C40.858 10.7048 41.1031 10.7865 41.3483 10.8682L55.2809 18.141V20.7559L41.3483 28.1512C41.1849 28.2737 40.9397 28.3146 40.6537 28.3146ZM25.2094 28.3146C24.9642 28.3146 24.6782 28.2329 24.4739 28.1512L10.4188 20.7967V18.1818L24.4739 10.9091C24.7191 10.7865 24.9642 10.7457 25.2094 10.7457C25.8223 10.7457 26.3534 11.0725 26.6394 11.6037C26.8437 11.9714 26.8846 12.4208 26.762 12.8294C26.6394 13.238 26.3534 13.5649 25.9857 13.7692L14.8723 19.4893L25.9448 25.332C26.3126 25.5363 26.5986 25.8631 26.7211 26.2717C26.8437 26.6803 26.8028 27.1297 26.5986 27.4974C26.3534 27.9877 25.8223 28.3146 25.2094 28.3146Z" fill="black"/>
</svg>
