<svg width="102" height="128" viewBox="0 0 102 128" fill="none" xmlns="http://www.w3.org/2000/svg">
<path d="M89.8452 84.9846C93.3994 82.0394 95.3696 77.2728 94.6743 72.2737C94.0561 68.0497 95.4083 63.7481 98.2671 60.6867C103.251 55.3775 103.251 46.852 98.2285 41.5428C95.331 38.4814 94.0175 34.2186 94.597 29.9558C95.6401 22.5928 90.811 15.6948 83.7798 14.4935C79.7234 13.7959 76.2078 11.1608 74.3148 7.363C71.9582 2.67393 67.3996 0 62.6478 0C60.6775 0 58.7072 0.465032 56.8142 1.43385C54.9598 2.40266 52.951 2.8677 50.942 2.8677C48.9331 2.8677 46.9629 2.40266 45.1085 1.43385C43.2541 0.465032 41.2452 0 39.275 0C34.5232 0 29.9259 2.67393 27.6079 7.363C25.7149 11.1608 22.1993 13.7959 18.1429 14.5322C11.0731 15.7723 6.28266 22.6703 7.32574 30.0333C7.94386 34.2573 6.59172 38.5589 3.7329 41.6203C-1.25072 46.9295 -1.25072 55.455 3.77153 60.7642C6.66898 63.8256 7.98249 68.0884 7.403 72.3512C6.70762 77.2728 8.63925 81.9619 12.0776 84.9071L1.06724 112.228C0.60365 113.352 0.874079 114.669 1.76263 115.522C2.65118 116.374 3.92606 116.568 5.04641 116.064L22.8174 107.81L29.8872 126.101C30.3122 127.264 31.3939 128 32.6302 128C32.6302 128 32.6302 128 32.6688 128C33.905 128 34.9481 127.264 35.4117 126.14L45.688 100.641C47.4265 99.8268 49.2422 99.4006 51.0966 99.4006C52.835 99.4006 54.5349 99.7493 56.1575 100.447L66.4724 126.101C66.936 127.225 68.0177 127.961 69.2153 127.961C69.2153 127.961 69.2153 127.961 69.2539 127.961C70.4902 127.961 71.5719 127.186 71.9969 126.062L79.0667 107.771L96.8377 116.025C97.958 116.529 99.2329 116.335 100.121 115.483C101.01 114.63 101.28 113.352 100.817 112.189L89.8452 84.9846ZM32.9006 125.132C32.9006 125.171 32.8233 125.287 32.6688 125.287C32.4756 125.287 32.437 125.171 32.437 125.132L24.3241 104.128L3.96469 113.584C3.92606 113.584 3.81016 113.662 3.65563 113.545C3.53973 113.429 3.57837 113.313 3.57837 113.235L14.3569 86.4572C15.5545 87.116 16.868 87.581 18.2588 87.8135C22.3152 88.5111 25.8308 91.1462 27.7238 94.944C30.0804 99.5943 34.6391 102.268 39.3909 102.268C40.3567 102.268 41.2839 102.152 42.2497 101.919L32.9006 125.132ZM51.0966 96.7266C48.6627 96.7266 46.1902 97.3079 43.9882 98.4705C43.8723 98.548 43.7564 98.5867 43.6405 98.6255L43.6018 98.5867L43.5632 98.6255C42.2497 99.2455 40.8203 99.5556 39.3909 99.5556C35.489 99.5556 31.9734 97.3079 30.1577 93.7039C27.8783 89.1699 23.5901 85.9534 18.7224 85.1008C16.0181 84.6358 13.6229 83.0857 12.0003 80.7605C10.3777 78.3966 9.68233 75.5289 10.0687 72.6612C10.764 67.6234 9.14148 62.4693 5.7418 58.8653C1.724 54.6025 1.724 47.7045 5.7418 43.4417C9.14148 39.799 10.764 34.6449 10.0687 29.607C9.6437 26.7393 10.3391 23.8329 11.9617 21.5077C13.5842 19.1826 15.9408 17.6325 18.6451 17.1674C23.5128 16.3149 27.7624 13.0984 30.0418 8.56434C31.8575 4.96034 35.4117 2.71269 39.3136 2.71269C40.8975 2.71269 42.4429 3.10021 43.9109 3.83651C46.113 4.96034 48.5468 5.54163 50.9807 5.54163C53.4532 5.54163 55.887 4.96034 58.0891 3.79776C59.5185 3.10021 61.0638 2.71269 62.6478 2.71269C66.5497 2.71269 70.0652 4.96034 71.881 8.56434C74.1603 13.0984 78.4485 16.3149 83.3162 17.1674C86.0205 17.6325 88.4158 19.1826 90.0383 21.5077C91.6609 23.8716 92.3563 26.7393 91.97 29.607C91.2746 34.6449 92.8972 39.799 96.2968 43.403C100.315 47.6658 100.315 54.5637 96.2968 58.8265C92.8972 62.4693 91.2746 67.6234 91.97 72.6612C92.3949 75.5289 91.6995 78.4354 90.077 80.7605C88.4544 83.0857 86.0978 84.6358 83.3935 85.1008C78.5258 85.9534 74.2762 89.1699 71.9969 93.7039C70.1811 97.3079 66.6269 99.5556 62.725 99.5556C61.1411 99.5556 59.5958 99.168 58.1277 98.4317C55.9643 97.3079 53.5304 96.7266 51.0966 96.7266ZM98.2671 113.545C98.1512 113.662 97.9967 113.623 97.958 113.584L77.5986 104.128L69.4857 125.132C69.4857 125.171 69.4085 125.287 69.2539 125.287C69.0608 125.287 69.0221 125.171 69.0221 125.132L59.673 101.881C60.7161 102.152 61.7592 102.268 62.8023 102.268C67.5541 102.268 72.1514 99.5943 74.4694 94.9052C76.3624 91.1075 79.8779 88.4723 83.9344 87.736C85.2479 87.5035 86.4841 87.0772 87.6045 86.4959L98.383 113.235C98.3444 113.274 98.383 113.39 98.2671 113.545ZM89.9611 51.076C89.9611 29.5683 72.4605 12.0133 50.942 12.0133C29.385 12.0133 11.923 29.5683 11.923 51.231C11.923 72.7 29.385 90.2937 50.7489 90.2937H50.7875C72.4605 90.2937 89.9611 72.7775 89.9611 51.076ZM50.8261 87.581H50.7875C41.168 87.581 32.1279 83.7832 25.2899 76.8853C18.452 69.9873 14.6659 60.8804 14.6659 51.231C14.6659 41.5041 18.452 32.3197 25.2899 25.4217C32.1279 18.5238 41.2452 14.726 50.942 14.726C60.6002 14.726 69.7175 18.5238 76.5942 25.383C83.4708 32.2422 87.2568 41.3878 87.2568 51.076C87.2568 60.8417 83.4708 69.9873 76.5942 76.8853C69.7175 83.7832 60.5616 87.581 50.8261 87.581ZM75.0875 72.3512C74.8943 72.4287 74.7784 72.7 74.6239 72.855C73.4263 74.0951 72.2287 75.2964 71.0311 76.5365C70.1811 76.0327 69.4471 75.5677 68.6358 75.0639C68.7904 74.8701 68.9449 74.6764 69.0994 74.5213C70.2198 73.2038 71.1083 71.7312 71.7264 70.1035C71.881 69.7548 71.881 69.3285 71.456 69.251C71.2242 69.2122 70.9538 69.4835 70.722 69.6773C70.6061 69.7548 70.6061 69.9873 70.5288 70.1035C69.7562 71.3436 68.9835 72.5837 68.2109 73.8238C67.8245 74.4826 67.3223 74.5601 66.5883 74.2888C65.0043 73.7075 63.3818 73.2813 61.7592 72.7775C62.0683 71.8087 62.3773 70.8399 62.6478 69.871C62.7637 69.4835 62.8023 69.096 62.3001 68.9797C61.8365 68.8635 61.6433 69.1735 61.5274 69.561C61.2956 70.3748 60.9865 71.1499 60.7547 71.9637C60.6002 72.545 60.2912 72.7 59.673 72.5837C58.5141 72.39 57.3164 72.2737 56.1575 72.1574C54.9985 72.0412 53.8781 72.0024 52.7192 71.9637C52.7192 71.7699 52.6805 71.6924 52.6805 71.5761C52.6805 70.3748 52.7192 69.1735 52.6419 67.9334C52.6419 67.7396 52.3328 67.5071 52.1397 67.3134C51.9465 67.5071 51.6761 67.6621 51.5988 67.8946C51.4829 68.1659 51.5602 68.4759 51.5602 68.786C51.5602 69.8323 51.5602 70.9174 51.5602 71.8474C48.5855 72.1574 45.688 72.4287 42.7133 72.7387C42.4042 71.7312 42.0565 70.6073 41.6702 69.5223C41.5929 69.2897 41.3998 69.096 41.2066 68.9797C41.0907 68.9022 40.743 69.0185 40.6658 69.1347C40.5499 69.3285 40.5112 69.6385 40.5885 69.8323C40.8975 70.9174 41.2452 71.9637 41.5543 72.9712C39.8158 73.5913 38.0774 74.2113 36.3775 74.7926C36.223 74.8314 35.9139 74.7539 35.798 74.6376C34.4459 73.2038 33.2869 71.6537 32.5915 69.7935C32.437 69.406 32.2825 69.0572 31.8189 69.2122C31.278 69.406 31.4325 69.7935 31.5484 70.1811C32.1279 71.7699 33.0551 73.1263 34.0982 74.4051C34.3686 74.7539 34.6777 75.1026 34.9095 75.3739C33.8278 76.1877 32.8233 76.9628 31.7802 77.7378C29.9259 76.3815 28.1874 74.7539 26.6807 72.9712C26.4876 72.7775 26.333 72.5062 26.1012 72.39C25.9081 72.3124 25.5604 72.3124 25.4445 72.4287C25.2899 72.545 25.2513 72.8937 25.3286 73.0875C25.4445 73.3588 25.7149 73.63 25.9081 73.8626C32.0507 80.7605 39.6999 84.597 48.8945 85.0233C58.8231 85.4883 67.3223 82.0394 74.2376 74.8314C74.7784 74.2501 75.3193 73.6688 75.7829 73.0487C75.8988 72.855 75.7829 72.5062 75.7829 72.1962C75.5897 72.2737 75.3193 72.2349 75.0875 72.3512ZM52.7964 73.01C55.1916 73.2038 57.5482 73.3975 60.0207 73.5913C59.9048 73.9013 59.8662 74.0563 59.7889 74.2113C58.4754 76.304 57.1233 78.3966 55.8098 80.4893C55.6166 80.838 55.3848 80.9155 54.9598 80.838C54.3031 80.7218 53.6077 80.683 52.835 80.6055C52.7964 78.1253 52.7964 75.6452 52.7964 73.01ZM51.5988 72.9712C51.5988 75.6452 51.5988 78.0866 51.5988 80.5668C50.4785 80.7218 49.3581 80.9155 48.2378 81.0705C48.1219 81.0705 47.9287 80.993 47.8128 80.8768C46.113 78.7066 44.6449 76.4202 43.2928 73.7463C46.1902 73.5138 48.8559 73.2425 51.5988 72.9712ZM42.6747 82.9694C39.1204 82.0781 35.2185 80.2567 32.8619 78.4741C33.8664 77.7378 34.8322 77.0015 35.6821 76.3815C38.4637 78.5516 41.1293 80.6443 44.0268 82.8919C43.5246 82.9307 43.061 83.0469 42.6747 82.9694ZM37.2274 75.9939C37.1888 75.9552 37.1502 75.8777 37.0343 75.6839C38.7728 75.1414 40.4726 74.5989 42.0952 74.0951C43.6791 76.6527 45.2244 79.0554 46.7311 81.4581C46.3448 81.6131 45.9198 81.8068 45.4562 81.9619C45.3017 82.0006 45.1085 82.0006 44.954 81.8844C42.1724 80.1792 39.6227 78.2416 37.2274 75.9939ZM45.1471 83.3957C49.474 81.3031 53.8395 81.2643 58.3209 82.9307C53.9554 84.132 49.5513 84.287 45.1471 83.3957ZM57.8573 81.5356C57.5096 81.3418 57.1233 81.3031 56.737 81.1868C57.6255 79.8692 58.4754 78.6291 59.2867 77.3115C59.8662 76.3815 60.3684 75.3739 60.9479 74.4051C61.0638 74.2113 61.3342 73.9401 61.4501 73.9788C63.15 74.4051 64.8885 74.8701 66.5883 75.3352C66.5883 75.4127 66.6269 75.5289 66.6269 75.6064C65.352 76.6915 64.0772 77.8153 62.7636 78.8616C61.6433 79.753 60.4071 80.528 59.2481 81.3806C58.7845 81.6906 58.3982 81.8068 57.8573 81.5356ZM60.0594 82.5431C60.0207 82.4656 59.9821 82.3881 59.9435 82.3494C60.098 82.2331 60.2912 82.0781 60.4457 81.9619C62.9182 80.3342 65.1975 78.5129 67.3223 76.4202C67.67 76.0715 67.9404 75.9939 68.3268 76.2652C68.8676 76.614 69.4471 76.924 70.1039 77.2728C66.9746 79.6754 63.6908 81.4581 60.0594 82.5431ZM26.3717 30.9246C26.5262 30.8471 26.6421 30.6146 26.7966 30.4596C27.9942 29.2195 29.1918 27.9794 30.3508 26.7393C31.278 27.2819 32.012 27.7857 32.7074 28.2119C32.012 29.2195 31.3166 30.1108 30.6985 31.1184C30.2736 31.7772 29.9645 32.5135 29.6941 33.2498C29.6168 33.4823 29.8486 33.7923 29.9259 34.0636C30.1963 33.9086 30.4667 33.8311 30.6985 33.6373C30.8144 33.5598 30.8144 33.3273 30.8917 33.211C31.7416 31.8547 32.6302 30.4983 33.5187 29.142C33.7505 28.7545 34.0596 28.7545 34.4845 28.9095C35.1026 29.1807 35.7208 29.4133 36.3775 29.5683C37.4979 29.8783 38.6182 30.1883 39.6999 30.4596C39.3909 31.5059 39.0432 32.5135 38.7728 33.521C38.7341 33.7536 38.9659 34.0248 39.0818 34.2961C39.3136 34.1411 39.584 33.9861 39.7772 33.7923C39.8931 33.6761 39.8545 33.4823 39.8931 33.3273C40.2022 32.3972 40.5112 31.5059 40.7817 30.6921C43.4859 30.9246 46.0357 31.1571 48.6241 31.3896C48.6241 32.6297 48.6241 33.8698 48.6241 35.1099C48.6241 35.5362 48.6241 35.9625 49.1649 35.9625C49.7058 35.9625 49.7444 35.5362 49.7444 35.1099C49.7444 33.8698 49.7444 32.591 49.7444 31.4284C52.7578 31.1184 55.6166 30.8471 58.63 30.5371C58.939 31.5447 59.2867 32.6685 59.673 33.7536C59.7503 33.9861 59.9821 34.1798 60.2139 34.2961C60.2912 34.3349 60.6389 34.2186 60.6775 34.1411C60.7548 33.9086 60.7934 33.5985 60.7161 33.3273C60.4071 32.281 60.0594 31.2346 59.7503 30.2658C61.2956 29.762 62.8796 29.297 64.3862 28.677C65.1202 28.3669 65.5066 28.4832 66.0088 29.0645C67.1292 30.4208 68.2109 31.8159 68.7904 33.521C68.9449 33.9086 69.2153 34.1798 69.6403 34.0248C70.0652 33.8698 70.0266 33.4823 69.8721 33.1335C69.6403 32.6297 69.4857 32.1259 69.2153 31.6609C68.3654 30.3433 67.4382 29.0645 66.5883 27.7857C67.5155 27.0493 68.5586 26.2743 69.6016 25.4605C71.4946 26.8556 73.2331 28.4832 74.7784 30.3046C75.0875 30.6533 75.3193 31.3121 75.9374 30.8084C76.5169 30.3046 75.9374 29.917 75.6283 29.607C69.6789 22.7866 62.1842 18.9113 53.1441 18.2913C43.9495 17.6325 35.8753 20.4614 28.9987 26.6231C27.7624 27.7081 26.7194 28.987 25.599 30.2271C25.4445 30.3821 25.5604 30.7696 25.5604 31.0796C25.7922 31.0021 26.1012 31.0021 26.3717 30.9246ZM48.6241 30.2658C46.2289 30.0721 43.8336 29.8783 41.2839 29.6845C41.9793 28.4832 42.5201 27.3981 43.1769 26.3906C43.9109 25.228 44.7608 24.1041 45.4948 22.9416C45.7653 22.5153 46.0357 22.3603 46.5766 22.4765C47.2333 22.6315 47.8901 22.6315 48.6241 22.7091C48.6241 25.1892 48.6241 27.6306 48.6241 30.2658ZM49.8217 30.3433C49.8217 27.6694 49.8217 25.1892 49.8217 22.7478C50.9034 22.5928 51.9851 22.399 53.0668 22.2828C53.2214 22.244 53.4918 22.3603 53.6077 22.4765C55.3075 24.6467 56.7369 26.9331 58.1277 29.5683C55.2689 29.8008 52.5646 30.0721 49.8217 30.3433ZM57.471 20.4614C57.8573 20.3839 58.2436 20.2289 58.5913 20.3064C62.0683 21.1589 65.2748 22.5928 68.2495 24.6079C68.3268 24.6467 68.404 24.7242 68.5972 24.918C67.6314 25.5768 66.7042 26.2355 65.777 26.8556C65.6611 26.9331 65.3907 26.8943 65.3134 26.7781C62.9182 24.4917 60.2912 22.4765 57.5096 20.6939C57.471 20.6164 57.471 20.5389 57.471 20.4614ZM64.5021 27.5531C62.6478 28.1344 60.9479 28.677 59.364 29.1807C57.78 26.6231 56.2347 24.2204 54.7281 21.8177C55.1144 21.6627 55.578 21.469 56.0416 21.314C56.1961 21.2752 56.3893 21.314 56.5438 21.3915C59.2867 23.1353 61.9137 25.1505 64.5021 27.5531ZM56.3893 19.9189C51.9851 21.9728 47.581 22.0115 43.061 20.3839C45.1858 19.2213 53.994 18.9113 56.3893 19.9189ZM43.5632 21.779C43.9109 21.934 44.2972 22.0115 44.7222 22.1665C44.1813 22.9028 43.6791 23.6004 43.2155 24.2979C42.2883 25.8093 41.3998 27.3594 40.4726 28.9095C40.3567 29.1032 40.0863 29.3745 39.9704 29.3358C38.2705 28.9095 36.5707 28.4444 34.8708 27.9794C34.8708 27.9019 34.8322 27.7857 34.8322 27.7081C36.1071 26.6231 37.3433 25.538 38.6182 24.4917C39.7772 23.6004 41.0134 22.8253 42.1724 21.934C42.636 21.5852 43.0223 21.5077 43.5632 21.779ZM41.3611 20.7714C41.3998 20.8489 41.4384 20.8877 41.477 20.9652C41.3611 21.0814 41.2452 21.1977 41.1293 21.2752C38.5796 22.9416 36.223 24.8404 34.0596 26.9718C33.7505 27.2819 33.5187 27.3206 33.171 27.0881C32.5915 26.7393 32.012 26.4293 31.3553 26.0418C34.4073 23.6391 37.7297 21.8565 41.3611 20.7714ZM38.3092 55.3388C38.9659 55.3388 39.6227 55.3 40.2408 55.3775C40.5112 55.4163 40.7817 55.6488 40.9748 55.8426C41.3225 56.2301 41.5543 56.7726 41.9406 57.0439C43.9495 58.3227 46.1516 58.3615 48.3537 57.6252C49.2808 57.3152 49.7058 56.5401 49.6285 55.6101C49.5513 54.835 49.1263 54.2537 48.1991 54.0599C47.4265 53.8662 46.6152 53.7887 45.8039 53.7499C43.795 53.7112 41.8634 53.3237 39.9704 52.6261C34.8322 50.8047 34.3686 44.2555 38.1546 41.2328C40.743 39.1789 43.7177 38.4426 46.9243 38.7527C49.3967 38.9852 51.5988 39.8765 53.2986 41.8141C54.3417 42.9767 54.8826 44.333 54.9598 45.9219C54.9985 46.5807 54.7281 46.8132 54.1099 46.7744C52.9123 46.7357 51.7533 46.7744 50.5557 46.7744C50.0149 46.7744 49.7058 46.6582 49.5899 46.0382C49.4354 45.1856 48.8559 44.6431 48.1219 44.2943C46.0743 43.3642 44.0654 43.558 42.1338 44.6818C41.5157 45.0306 41.1293 45.6119 41.2066 46.3482C41.2839 47.1232 41.7475 47.7045 42.4815 47.8595C43.7564 48.1308 45.0699 48.3246 46.3834 48.4021C48.1219 48.5183 49.7831 48.8283 51.367 49.5646C54.9598 51.2698 56.5438 54.99 55.1144 58.4777C54.5349 59.9503 53.4918 60.9967 52.1783 61.8105C48.3537 64.1356 42.327 63.9419 38.7341 61.3067C37.0343 60.0666 35.9139 58.5165 35.7208 56.3464C35.6435 55.5325 35.798 55.3388 36.6093 55.3388C37.1502 55.3388 37.7297 55.3388 38.3092 55.3388ZM32.3211 63.4381C28.96 63.4381 25.599 63.4381 22.238 63.4381C21.6585 63.4381 21.4267 63.1668 21.4653 62.6243C21.4653 61.5005 21.4653 60.3766 21.4653 59.2916C21.4653 58.749 21.6971 58.4777 22.2766 58.4777C22.8174 58.4777 23.3197 58.4777 23.9378 58.4777C23.9378 53.8662 23.9378 49.3709 23.9378 44.7593C23.3969 44.7593 22.8561 44.7593 22.3152 44.7593C21.7357 44.7593 21.4653 44.488 21.4653 43.9068C21.4653 42.8217 21.4653 41.7366 21.4653 40.6128C21.4653 40.0315 21.6971 39.7602 22.2766 39.7602C25.599 39.7602 28.96 39.7602 32.2825 39.7602C32.8619 39.7602 33.1324 39.9927 33.0937 40.6128C33.0551 41.6979 33.0551 42.7829 33.0937 43.9068C33.0937 44.5656 32.8233 44.7981 32.2052 44.7593C31.703 44.7593 31.2007 44.7593 30.6213 44.7593C30.6213 49.3321 30.6213 53.8274 30.6213 58.4777C31.1621 58.4777 31.703 58.4777 32.2438 58.4777C32.8233 58.439 33.0937 58.6715 33.0937 59.2916C33.0551 60.4154 33.0551 61.5392 33.0937 62.6243C33.1324 63.2056 32.8619 63.4381 32.3211 63.4381ZM77.7531 42.8217C72.9627 38.7914 65.5066 38.8689 60.7934 43.0154C56.0029 47.2782 55.4234 54.1375 59.5185 58.9428C62.1069 61.9655 65.4679 63.3606 68.9062 63.4381C71.456 63.4381 73.3876 62.9731 75.242 62.0817C83.0458 58.2452 84.3207 48.3633 77.7531 42.8217ZM73.6581 58.3615C71.2628 61.1904 67.8632 61.2292 65.352 58.5165C61.9524 54.8738 62.0683 48.0145 65.5838 44.488C67.9018 42.1629 70.9152 42.1241 73.2331 44.4493C75.242 46.4644 75.976 48.9446 76.0147 51.5798C75.9374 54.215 75.242 56.4626 73.6581 58.3615Z" fill="black"/>
</svg>
