<svg width="108" height="106" viewBox="0 0 108 106" fill="none" xmlns="http://www.w3.org/2000/svg">
<path d="M0.0560917 22.0057C0.168275 20.2724 0.280458 18.5391 0.448733 16.8058C0.645054 14.2338 0.869421 11.6618 1.12183 9.08975C1.48643 5.31562 4.48733 2.18448 8.30157 1.87696C12.9572 1.48557 17.6128 1.26192 22.2684 1.09418C33.5989 0.674832 44.9014 0.898484 56.2039 1.51353C57.6622 1.5974 59.1487 1.68127 60.6071 1.84901C64.9542 2.35222 67.7868 5.39949 68.2075 9.73275C69.0489 18.2036 69.3013 26.6744 69.0208 35.1732C69.0208 35.4248 69.0489 35.6485 69.0769 36.0119C69.4415 36.0119 69.778 36.0119 70.1426 36.0119C79.6221 36.3194 89.1297 36.571 98.6092 36.9345C102.984 37.1022 106.35 40.4849 106.714 44.8182C106.799 45.9365 106.939 47.0547 107.051 48.145C107.163 49.3192 106.63 50.1299 105.649 50.2418C104.723 50.3536 104.05 49.7106 103.91 48.5644C103.77 47.3623 103.657 46.1322 103.517 44.93C103.237 42.358 101.245 40.2054 98.6372 40.0935C88.8773 39.7301 79.0893 39.4505 69.3293 39.143C69.1891 39.143 69.0489 39.171 68.7964 39.1989C68.6562 40.7086 68.544 42.2182 68.4038 43.7559C68.2916 44.8741 68.2355 45.9924 68.0392 47.0827C67.3381 51.1643 64.1969 53.932 60.0742 54.0998C53.3432 54.3793 46.6402 54.6589 39.9092 54.9385C39.769 54.9385 39.6288 54.9664 39.4324 54.9944C39.3764 56.2524 39.2642 57.5105 39.2361 58.7406C39.0398 66.848 39.2922 74.9553 40.2177 83.0068C40.5543 85.8864 42.5736 87.9272 45.4903 88.039C54.6894 88.3745 63.9165 88.682 73.1155 88.9057C75.5275 88.9616 77.3224 89.7723 78.7527 91.7293C81.8378 95.9507 85.7922 99.3055 89.915 102.437C90.3356 102.744 91.2051 102.884 91.6258 102.66C92.1025 102.409 92.5513 101.654 92.5513 101.095C92.6635 98.6904 92.5793 96.2862 92.6074 93.854C92.6074 90.4433 94.7388 88.2067 98.1604 88.0111C101.274 87.8433 103.293 85.8584 103.601 82.8111C104.527 73.893 104.863 64.9749 104.415 56.0288C104.387 55.6933 104.387 55.3299 104.387 54.9944C104.415 53.932 105.004 53.2611 105.901 53.2331C106.799 53.2052 107.444 53.8761 107.528 54.9385C107.612 55.9169 107.668 56.8675 107.752 57.846C107.752 61.8996 107.752 65.9533 107.752 70.007C107.64 71.6006 107.528 73.1941 107.388 74.7876C107.163 77.5274 106.939 80.295 106.714 83.0348C106.322 87.5637 103.068 90.8067 98.5811 91.1422C96.4216 91.3099 95.7485 92.0088 95.7485 94.1615C95.7485 96.398 95.7485 98.6345 95.7485 100.871C95.7485 102.94 94.9632 104.561 93.0841 105.484C91.177 106.406 89.4382 106.043 87.7835 104.785C83.3522 101.318 79.1454 97.6561 75.8079 93.0712C75.247 92.2884 74.4617 92.0368 73.5362 92.0088C66.6369 91.8691 59.7376 91.7572 52.8384 91.5336C49.8935 91.4497 46.9487 91.3099 44.032 90.9185C40.3299 90.4153 37.4692 87.2283 37.0766 83.538C36.2072 75.4306 35.8706 67.2953 36.0389 59.1599C36.0669 57.79 36.0389 56.4481 36.0389 55.0223C34.8329 55.0223 33.4587 54.9105 32.1405 55.0783C31.6077 55.1342 31.1028 55.7213 30.6821 56.1686C29.5884 57.3986 28.5787 58.7126 27.4849 59.9427C26.7277 60.7814 25.7741 60.8653 25.073 60.2502C24.3999 59.6352 24.4279 58.6846 25.1571 57.818C26.2229 56.5599 27.2886 55.3019 28.2983 54.0159C29.4481 52.5342 30.9626 51.8073 32.8417 51.7794C39.6288 51.6396 46.4439 51.4998 53.231 51.3041C55.5869 51.2482 57.9147 51.0805 60.2705 50.8848C62.8227 50.6891 64.7018 48.788 64.9822 46.1881C66.076 35.956 66.3004 25.6959 65.487 15.4079C65.3468 13.6746 65.1785 11.9413 65.0383 10.1801C64.7578 6.82527 62.991 5.00809 59.6255 4.8124C55.4747 4.56079 51.2958 4.33714 47.117 4.1694C34.6086 3.69414 22.1001 3.9737 9.59168 4.78444C6.31031 5.06401 4.57147 6.65753 4.17883 9.9564C3.28136 17.8401 2.97286 25.7798 3.30941 33.7195C3.50573 37.9409 3.87033 42.1623 4.23492 46.3558C4.45929 48.9278 6.47859 50.745 9.03076 50.9407C12.9011 51.2482 14.7521 53.2331 14.7521 57.1191C14.7521 59.2158 14.696 61.3126 14.7802 63.4093C14.8082 63.9684 15.1448 64.8071 15.5935 65.0028C16.0422 65.2265 16.8836 65.0028 17.3604 64.6953C18.4542 63.9964 19.3797 63.1018 20.4174 62.291C21.2587 61.6201 22.1562 61.704 22.7452 62.4029C23.3341 63.1297 23.25 64.0243 22.4086 64.6953C21.2868 65.6458 20.1369 66.5684 18.959 67.435C17.4445 68.5253 15.7898 68.721 14.1071 67.8544C12.4243 67.0157 11.5829 65.5899 11.5829 63.6889C11.5549 61.3405 11.5829 59.0201 11.5829 56.6718C11.5829 54.9664 10.7976 54.1557 9.1149 54.0718C4.65561 53.7923 1.45838 50.8289 1.0377 46.4397C0.6731 42.7215 0.476779 38.9753 0.168275 35.2571C0.140229 34.8098 0.0560917 34.3625 0 33.9152C0.0560917 29.9733 0.0560917 26.0035 0.0560917 22.0057ZM45.3221 40.0376C46.1354 40.8484 47.0609 40.9322 47.734 40.2892C48.4632 39.5903 48.4071 38.6678 47.5377 37.8291C46.7805 37.1022 45.9952 36.4033 45.2379 35.7323C50.0338 29.1905 48.4632 21.139 43.1065 16.8337C37.6936 12.4725 29.953 12.8639 25.0169 17.7563C20.0808 22.6487 19.6601 30.3367 24.0633 35.8721C28.0458 40.8484 36.0389 43.0849 43.2186 37.8291C43.9198 38.5839 44.5929 39.3387 45.3221 40.0376ZM40.386 30.7281C39.4885 29.8335 38.5069 29.7496 37.8338 30.4765C37.1888 31.1754 37.301 32.098 38.1704 32.9646C39.0398 33.8313 39.9092 34.67 40.7786 35.5366C37.2168 38.7796 30.8785 38.3323 27.2045 34.67C23.3061 30.784 23.1378 24.4658 26.8118 20.4401C30.57 16.3025 36.8522 15.7993 41.1432 19.3218C45.3782 22.7605 46.2195 29.0507 42.9662 33.384C42.0968 32.4614 41.2554 31.5668 40.386 30.7281ZM69.8902 51.8073C66.9454 59.5233 64.0006 67.2393 61.0558 74.9554C60.6351 76.0457 60.9717 76.8564 61.8691 77.1919C62.7666 77.5274 63.5519 77.136 63.9726 76.0457C64.4774 74.7597 64.9822 73.4457 65.459 72.1317C65.6273 71.6285 65.9077 71.4328 66.4406 71.4328C70.0585 71.4608 73.6484 71.4608 77.2663 71.4328C77.8552 71.4328 78.1357 71.6285 78.332 72.1597C78.8088 73.5016 79.3136 74.8435 79.8465 76.1854C80.2672 77.2198 81.2768 77.6112 82.1463 77.08C82.9316 76.5768 83.0998 75.85 82.7633 74.9833C81.7536 72.3833 80.8001 69.7554 79.7904 67.1555C77.8833 62.1233 75.9762 57.1191 74.0971 52.0869C73.7045 51.0525 73.1435 50.2977 71.8254 50.2697C70.8999 50.3256 70.2548 50.8568 69.8902 51.8073ZM76.8176 68.2458C73.5081 68.2458 70.3109 68.2458 66.9735 68.2458C68.6001 63.9964 70.1987 59.7749 71.9095 55.3019C73.5923 59.747 75.1909 63.9405 76.8176 68.2458ZM103.068 33.1324C104.471 32.7689 105.312 31.6786 105.817 30.3088C106.322 28.9389 105.957 27.6249 105.508 26.3389C104.695 23.9626 102.339 22.6487 99.8993 23.3476C98.1324 23.8508 96.3655 24.4658 94.6547 25.1648C92.5513 26.0035 91.4575 28.1561 91.9062 30.3367C92.4391 32.9087 94.206 34.4463 97.2349 34.4184C98.7775 34.0829 100.937 33.6915 103.068 33.1324ZM95.0474 29.8615C94.823 28.9668 95.1315 28.3238 95.9448 28.0163C97.5154 27.4292 99.086 26.8981 100.685 26.4228C101.666 26.1153 102.311 26.6185 102.648 27.7647C103.068 29.1905 102.844 30.0012 101.806 30.2528C100.124 30.6722 98.3848 30.9797 96.9264 31.2593C95.7205 31.2872 95.2437 30.7281 95.0474 29.8615ZM75.5275 14.066C77.7992 14.5692 79.9867 13.5069 80.8562 11.3822C81.5573 9.67684 82.1463 7.91557 82.6791 6.15431C83.2962 4.08553 82.3987 1.93288 80.5477 0.954397C79.7904 0.563005 78.921 0.311397 78.0796 0.115701C75.864 -0.387517 73.5362 0.786658 72.8631 2.93931C72.218 5.03605 71.9095 7.21666 71.573 8.78223C71.5169 11.7736 73.0314 13.5348 75.5275 14.066ZM79.3417 6.18227C78.921 7.3844 78.5284 8.61449 78.0796 9.81662C77.687 10.879 77.07 11.2144 76.0603 10.9628C74.9665 10.6833 74.5458 10.0962 74.7422 8.97792C74.9946 7.46827 75.3031 5.98657 75.6116 4.47692C75.7799 3.66618 76.2847 3.21888 77.07 3.16296C79.2295 3.16296 80.0148 4.25327 79.3417 6.18227ZM94.3742 10.6274C92.4391 8.89405 89.6345 8.94997 87.8676 10.851C86.6617 12.137 85.5118 13.451 84.418 14.7929C82.8194 16.7219 83.0437 19.2939 84.8667 21.139C86.7177 22.9841 89.2699 23.1798 91.2331 21.6143C92.5793 20.524 93.8975 19.3498 95.1876 18.1756C96.1692 17.281 96.646 16.1628 96.646 14.5692C96.7021 12.9757 95.6363 11.7456 94.3742 10.6274ZM86.7177 18.3713C86.4934 17.9799 86.5775 17.1971 86.8299 16.8337C87.8676 15.4918 89.0175 14.2058 90.1954 12.9757C90.8966 12.2209 91.6819 12.4166 92.6354 13.3671C93.589 14.3176 93.7853 15.1004 93.0281 15.7993C91.766 17.0014 90.4198 18.1197 89.0736 19.238C88.8773 19.4057 88.5688 19.4616 88.0639 19.6573C87.6713 19.2659 87.0262 18.9025 86.7177 18.3713Z" fill="black"/>
</svg>
