<svg width="138" height="57" viewBox="0 0 138 57" fill="none" xmlns="http://www.w3.org/2000/svg">
<g filter="url(#filter0_d_804_8442)">
<rect x="5.70312" y="2.5" width="117" height="37" rx="18.5" fill="#DEF5FF"/>
<rect x="5.70312" y="2.5" width="117" height="37" rx="18.5" stroke="#6F6F6F"/>
<path d="M40.1791 16.312V26H38.9051V18.776L35.6851 26H34.7891L31.5551 18.762V26H30.2811V16.312H31.6531L35.2371 24.32L38.8211 16.312H40.1791ZM46.1857 26.126C45.4671 26.126 44.8137 25.9627 44.2257 25.636C43.6471 25.3093 43.1897 24.8473 42.8537 24.25C42.5271 23.6433 42.3637 22.9433 42.3637 22.15C42.3637 21.366 42.5317 20.6753 42.8677 20.078C43.2131 19.4713 43.6797 19.0093 44.2677 18.692C44.8557 18.3653 45.5137 18.202 46.2417 18.202C46.9697 18.202 47.6277 18.3653 48.2157 18.692C48.8037 19.0093 49.2657 19.4667 49.6017 20.064C49.9471 20.6613 50.1197 21.3567 50.1197 22.15C50.1197 22.9433 49.9424 23.6433 49.5877 24.25C49.2424 24.8473 48.7711 25.3093 48.1737 25.636C47.5764 25.9627 46.9137 26.126 46.1857 26.126ZM46.1857 25.006C46.6431 25.006 47.0724 24.8987 47.4737 24.684C47.8751 24.4693 48.1971 24.1473 48.4397 23.718C48.6917 23.2887 48.8177 22.766 48.8177 22.15C48.8177 21.534 48.6964 21.0113 48.4537 20.582C48.2111 20.1527 47.8937 19.8353 47.5017 19.63C47.1097 19.4153 46.6851 19.308 46.2277 19.308C45.7611 19.308 45.3317 19.4153 44.9397 19.63C44.5571 19.8353 44.2491 20.1527 44.0157 20.582C43.7824 21.0113 43.6657 21.534 43.6657 22.15C43.6657 22.7753 43.7777 23.3027 44.0017 23.732C44.2351 24.1613 44.5431 24.4833 44.9257 24.698C45.3084 24.9033 45.7284 25.006 46.1857 25.006ZM56.0328 18.188C56.9661 18.188 57.7221 18.4727 58.3008 19.042C58.8795 19.602 59.1688 20.414 59.1688 21.478V26H57.9088V21.66C57.9088 20.8947 57.7175 20.3113 57.3348 19.91C56.9521 19.4993 56.4295 19.294 55.7668 19.294C55.0948 19.294 54.5581 19.504 54.1568 19.924C53.7648 20.344 53.5688 20.9553 53.5688 21.758V26H52.2948V18.328H53.5688V19.42C53.8208 19.028 54.1615 18.7247 54.5908 18.51C55.0295 18.2953 55.5101 18.188 56.0328 18.188ZM64.9139 18.202C65.5765 18.202 66.1552 18.3467 66.6499 18.636C67.1539 18.9253 67.5272 19.2893 67.7699 19.728V18.328H69.0579V26.168C69.0579 26.868 68.9085 27.4887 68.6099 28.03C68.3112 28.5807 67.8819 29.01 67.3219 29.318C66.7712 29.626 66.1272 29.78 65.3899 29.78C64.3819 29.78 63.5419 29.542 62.8699 29.066C62.1979 28.59 61.8012 27.9413 61.6799 27.12H62.9399C63.0799 27.5867 63.3692 27.96 63.8079 28.24C64.2465 28.5293 64.7739 28.674 65.3899 28.674C66.0899 28.674 66.6592 28.4547 67.0979 28.016C67.5459 27.5773 67.7699 26.9613 67.7699 26.168V24.558C67.5179 25.006 67.1445 25.3793 66.6499 25.678C66.1552 25.9767 65.5765 26.126 64.9139 26.126C64.2325 26.126 63.6119 25.958 63.0519 25.622C62.5012 25.286 62.0672 24.8147 61.7499 24.208C61.4325 23.6013 61.2739 22.9107 61.2739 22.136C61.2739 21.352 61.4325 20.666 61.7499 20.078C62.0672 19.4807 62.5012 19.0187 63.0519 18.692C63.6119 18.3653 64.2325 18.202 64.9139 18.202ZM67.7699 22.15C67.7699 21.5713 67.6532 21.0673 67.4199 20.638C67.1865 20.2087 66.8692 19.882 66.4679 19.658C66.0759 19.4247 65.6419 19.308 65.1659 19.308C64.6899 19.308 64.2559 19.42 63.8639 19.644C63.4719 19.868 63.1592 20.1947 62.9259 20.624C62.6925 21.0533 62.5759 21.5573 62.5759 22.136C62.5759 22.724 62.6925 23.2373 62.9259 23.676C63.1592 24.1053 63.4719 24.4367 63.8639 24.67C64.2559 24.894 64.6899 25.006 65.1659 25.006C65.6419 25.006 66.0759 24.894 66.4679 24.67C66.8692 24.4367 67.1865 24.1053 67.4199 23.676C67.6532 23.2373 67.7699 22.7287 67.7699 22.15ZM75.0568 26.126C74.3381 26.126 73.6848 25.9627 73.0968 25.636C72.5181 25.3093 72.0608 24.8473 71.7248 24.25C71.3981 23.6433 71.2348 22.9433 71.2348 22.15C71.2348 21.366 71.4028 20.6753 71.7388 20.078C72.0841 19.4713 72.5508 19.0093 73.1388 18.692C73.7268 18.3653 74.3848 18.202 75.1128 18.202C75.8408 18.202 76.4988 18.3653 77.0868 18.692C77.6748 19.0093 78.1368 19.4667 78.4728 20.064C78.8181 20.6613 78.9908 21.3567 78.9908 22.15C78.9908 22.9433 78.8135 23.6433 78.4588 24.25C78.1135 24.8473 77.6421 25.3093 77.0448 25.636C76.4475 25.9627 75.7848 26.126 75.0568 26.126ZM75.0568 25.006C75.5141 25.006 75.9435 24.8987 76.3448 24.684C76.7461 24.4693 77.0681 24.1473 77.3108 23.718C77.5628 23.2887 77.6888 22.766 77.6888 22.15C77.6888 21.534 77.5675 21.0113 77.3248 20.582C77.0821 20.1527 76.7648 19.8353 76.3728 19.63C75.9808 19.4153 75.5561 19.308 75.0988 19.308C74.6321 19.308 74.2028 19.4153 73.8108 19.63C73.4281 19.8353 73.1201 20.1527 72.8868 20.582C72.6535 21.0113 72.5368 21.534 72.5368 22.15C72.5368 22.7753 72.6488 23.3027 72.8728 23.732C73.1061 24.1613 73.4141 24.4833 73.7968 24.698C74.1795 24.9033 74.5995 25.006 75.0568 25.006ZM84.2039 16.242C85.2679 16.242 86.1872 16.4427 86.9619 16.844C87.7459 17.236 88.3432 17.8007 88.7539 18.538C89.1739 19.2753 89.3839 20.1433 89.3839 21.142C89.3839 22.1407 89.1739 23.0087 88.7539 23.746C88.3432 24.474 87.7459 25.034 86.9619 25.426C86.1872 25.8087 85.2679 26 84.2039 26H81.1659V16.242H84.2039ZM84.2039 24.95C85.4639 24.95 86.4252 24.6187 87.0879 23.956C87.7506 23.284 88.0819 22.346 88.0819 21.142C88.0819 19.9287 87.7459 18.9813 87.0739 18.3C86.4112 17.6187 85.4546 17.278 84.2039 17.278H82.4399V24.95H84.2039ZM96.4503 20.974C96.805 21.03 97.127 21.1747 97.4163 21.408C97.715 21.6413 97.9483 21.9307 98.1163 22.276C98.2937 22.6213 98.3823 22.99 98.3823 23.382C98.3823 23.8767 98.2563 24.3247 98.0043 24.726C97.7523 25.118 97.3837 25.4307 96.8983 25.664C96.4223 25.888 95.8577 26 95.2043 26H91.5643V16.242H95.0643C95.727 16.242 96.2917 16.354 96.7583 16.578C97.225 16.7927 97.575 17.0867 97.8083 17.46C98.0417 17.8333 98.1583 18.2533 98.1583 18.72C98.1583 19.2987 97.9997 19.7793 97.6823 20.162C97.3743 20.5353 96.9637 20.806 96.4503 20.974ZM92.8383 20.456H94.9803C95.5777 20.456 96.0397 20.316 96.3663 20.036C96.693 19.756 96.8563 19.3687 96.8563 18.874C96.8563 18.3793 96.693 17.992 96.3663 17.712C96.0397 17.432 95.5683 17.292 94.9523 17.292H92.8383V20.456ZM95.0923 24.95C95.727 24.95 96.2217 24.8007 96.5763 24.502C96.931 24.2033 97.1083 23.788 97.1083 23.256C97.1083 22.7147 96.9217 22.29 96.5483 21.982C96.175 21.6647 95.6757 21.506 95.0503 21.506H92.8383V24.95H95.0923Z" fill="black"/>
<path d="M132.726 41.0102L126.83 42.8801L124.964 48.7884L121.85 37.8891L132.726 41.0102Z" fill="#A3FF2E" stroke="black" stroke-width="0.8" stroke-miterlimit="10"/>
</g>
<defs>
<filter id="filter0_d_804_8442" x="0.203125" y="0" width="136.906" height="56.1759" filterUnits="userSpaceOnUse" color-interpolation-filters="sRGB">
<feFlood flood-opacity="0" result="BackgroundImageFix"/>
<feColorMatrix in="SourceAlpha" type="matrix" values="0 0 0 0 0 0 0 0 0 0 0 0 0 0 0 0 0 0 127 0" result="hardAlpha"/>
<feOffset dx="-1" dy="2"/>
<feGaussianBlur stdDeviation="2"/>
<feComposite in2="hardAlpha" operator="out"/>
<feColorMatrix type="matrix" values="0 0 0 0 0 0 0 0 0 0 0 0 0 0 0 0 0 0 0.3 0"/>
<feBlend mode="normal" in2="BackgroundImageFix" result="effect1_dropShadow_804_8442"/>
<feBlend mode="normal" in="SourceGraphic" in2="effect1_dropShadow_804_8442" result="shape"/>
</filter>
</defs>
</svg>
