<svg width="158" height="52" viewBox="0 0 158 52" fill="none" xmlns="http://www.w3.org/2000/svg">
<g filter="url(#filter0_d_804_8447)">
<rect x="31.2695" y="2.5" width="106" height="37" rx="18.5" fill="#FEDBFF"/>
<rect x="31.2695" y="2.5" width="106" height="37" rx="18.5" stroke="#6F6F6F"/>
<path d="M60.9855 26L58.6615 22.01H57.1215V26H55.8475V16.242H58.9975C59.7349 16.242 60.3555 16.368 60.8595 16.62C61.3729 16.872 61.7555 17.2127 62.0075 17.642C62.2595 18.0713 62.3855 18.5613 62.3855 19.112C62.3855 19.784 62.1895 20.3767 61.7975 20.89C61.4149 21.4033 60.8362 21.744 60.0615 21.912L62.5115 26H60.9855ZM57.1215 20.988H58.9975C59.6882 20.988 60.2062 20.82 60.5515 20.484C60.8969 20.1387 61.0695 19.6813 61.0695 19.112C61.0695 18.5333 60.8969 18.0853 60.5515 17.768C60.2155 17.4507 59.6975 17.292 58.9975 17.292H57.1215V20.988ZM71.8651 21.87C71.8651 22.1127 71.8511 22.3693 71.8231 22.64H65.6911C65.7378 23.396 65.9944 23.9887 66.4611 24.418C66.9371 24.838 67.5111 25.048 68.1831 25.048C68.7338 25.048 69.1911 24.922 69.5551 24.67C69.9284 24.4087 70.1898 24.0633 70.3391 23.634H71.7111C71.5058 24.3713 71.0951 24.9733 70.4791 25.44C69.8631 25.8973 69.0978 26.126 68.1831 26.126C67.4551 26.126 66.8018 25.9627 66.2231 25.636C65.6538 25.3093 65.2058 24.8473 64.8791 24.25C64.5524 23.6433 64.3891 22.9433 64.3891 22.15C64.3891 21.3567 64.5478 20.6613 64.8651 20.064C65.1824 19.4667 65.6258 19.0093 66.1951 18.692C66.7738 18.3653 67.4364 18.202 68.1831 18.202C68.9111 18.202 69.5551 18.3607 70.1151 18.678C70.6751 18.9953 71.1044 19.434 71.4031 19.994C71.7111 20.5447 71.8651 21.17 71.8651 21.87ZM70.5491 21.604C70.5491 21.1187 70.4418 20.7033 70.2271 20.358C70.0124 20.0033 69.7184 19.7373 69.3451 19.56C68.9811 19.3733 68.5751 19.28 68.1271 19.28C67.4831 19.28 66.9324 19.4853 66.4751 19.896C66.0271 20.3067 65.7704 20.876 65.7051 21.604H70.5491ZM73.5708 22.136C73.5708 21.352 73.7294 20.666 74.0468 20.078C74.3641 19.4807 74.7981 19.0187 75.3488 18.692C75.9088 18.3653 76.5294 18.202 77.2108 18.202C77.8828 18.202 78.4661 18.3467 78.9608 18.636C79.4554 18.9253 79.8241 19.2893 80.0668 19.728V18.328H81.3548V26H80.0668V24.572C79.8148 25.02 79.4368 25.3933 78.9328 25.692C78.4381 25.9813 77.8594 26.126 77.1968 26.126C76.5154 26.126 75.8994 25.958 75.3488 25.622C74.7981 25.286 74.3641 24.8147 74.0468 24.208C73.7294 23.6013 73.5708 22.9107 73.5708 22.136ZM80.0668 22.15C80.0668 21.5713 79.9501 21.0673 79.7168 20.638C79.4834 20.2087 79.1661 19.882 78.7648 19.658C78.3728 19.4247 77.9388 19.308 77.4628 19.308C76.9868 19.308 76.5528 19.42 76.1608 19.644C75.7688 19.868 75.4561 20.1947 75.2228 20.624C74.9894 21.0533 74.8728 21.5573 74.8728 22.136C74.8728 22.724 74.9894 23.2373 75.2228 23.676C75.4561 24.1053 75.7688 24.4367 76.1608 24.67C76.5528 24.894 76.9868 25.006 77.4628 25.006C77.9388 25.006 78.3728 24.894 78.7648 24.67C79.1661 24.4367 79.4834 24.1053 79.7168 23.676C79.9501 23.2373 80.0668 22.7287 80.0668 22.15ZM83.5317 22.15C83.5317 21.3567 83.6904 20.666 84.0077 20.078C84.325 19.4807 84.7637 19.0187 85.3237 18.692C85.893 18.3653 86.5417 18.202 87.2697 18.202C88.2124 18.202 88.987 18.4307 89.5937 18.888C90.2097 19.3453 90.6157 19.98 90.8117 20.792H89.4397C89.309 20.3253 89.0524 19.9567 88.6697 19.686C88.2964 19.4153 87.8297 19.28 87.2697 19.28C86.5417 19.28 85.9537 19.532 85.5057 20.036C85.0577 20.5307 84.8337 21.2353 84.8337 22.15C84.8337 23.074 85.0577 23.788 85.5057 24.292C85.9537 24.796 86.5417 25.048 87.2697 25.048C87.8297 25.048 88.2964 24.9173 88.6697 24.656C89.043 24.3947 89.2997 24.0213 89.4397 23.536H90.8117C90.6064 24.32 90.1957 24.95 89.5797 25.426C88.9637 25.8927 88.1937 26.126 87.2697 26.126C86.5417 26.126 85.893 25.9627 85.3237 25.636C84.7637 25.3093 84.325 24.8473 84.0077 24.25C83.6904 23.6527 83.5317 22.9527 83.5317 22.15ZM94.5656 19.378V23.9C94.5656 24.2733 94.6449 24.5393 94.8036 24.698C94.9623 24.8473 95.2376 24.922 95.6296 24.922H96.5676V26H95.4196C94.7103 26 94.1783 25.8367 93.8236 25.51C93.4689 25.1833 93.2916 24.6467 93.2916 23.9V19.378H92.2976V18.328H93.2916V16.396H94.5656V18.328H96.5676V19.378H94.5656ZM103.525 16.242V23.452C103.525 24.2547 103.278 24.8987 102.783 25.384C102.289 25.86 101.635 26.098 100.823 26.098C100.002 26.098 99.3439 25.8553 98.8492 25.37C98.3545 24.8753 98.1072 24.2033 98.1072 23.354H99.3812C99.3905 23.83 99.5119 24.2173 99.7452 24.516C99.9879 24.8147 100.347 24.964 100.823 24.964C101.299 24.964 101.654 24.824 101.887 24.544C102.121 24.2547 102.237 23.8907 102.237 23.452V16.242H103.525ZM109.251 26.126C108.663 26.126 108.136 26.028 107.669 25.832C107.202 25.6267 106.834 25.3467 106.563 24.992C106.292 24.628 106.143 24.2127 106.115 23.746H107.431C107.468 24.1287 107.646 24.4413 107.963 24.684C108.29 24.9267 108.714 25.048 109.237 25.048C109.722 25.048 110.105 24.9407 110.385 24.726C110.665 24.5113 110.805 24.2407 110.805 23.914C110.805 23.578 110.656 23.3307 110.357 23.172C110.058 23.004 109.596 22.8407 108.971 22.682C108.402 22.5327 107.935 22.3833 107.571 22.234C107.216 22.0753 106.908 21.8467 106.647 21.548C106.395 21.24 106.269 20.8387 106.269 20.344C106.269 19.952 106.386 19.5927 106.619 19.266C106.852 18.9393 107.184 18.6827 107.613 18.496C108.042 18.3 108.532 18.202 109.083 18.202C109.932 18.202 110.618 18.4167 111.141 18.846C111.664 19.2753 111.944 19.8633 111.981 20.61H110.707C110.679 20.2087 110.516 19.8867 110.217 19.644C109.928 19.4013 109.536 19.28 109.041 19.28C108.584 19.28 108.22 19.378 107.949 19.574C107.678 19.77 107.543 20.0267 107.543 20.344C107.543 20.596 107.622 20.806 107.781 20.974C107.949 21.1327 108.154 21.2633 108.397 21.366C108.649 21.4593 108.994 21.5667 109.433 21.688C109.984 21.8373 110.432 21.9867 110.777 22.136C111.122 22.276 111.416 22.4907 111.659 22.78C111.911 23.0693 112.042 23.4473 112.051 23.914C112.051 24.334 111.934 24.712 111.701 25.048C111.468 25.384 111.136 25.65 110.707 25.846C110.287 26.0327 109.802 26.126 109.251 26.126Z" fill="black"/>
<path d="M153.529 34.6273L148.447 38.1586L148.406 44.3556L142.218 34.8641L153.529 34.6273Z" fill="#A3FF2E" stroke="black" stroke-width="0.8" stroke-miterlimit="10"/>
<path d="M16.1475 13.14C17.7022 13.14 19.0662 13.448 20.2395 14.064C21.4275 14.68 22.3442 15.538 22.9895 16.638C23.6495 17.738 23.9795 18.9993 23.9795 20.422C23.9795 21.566 23.8035 22.6513 23.4515 23.678C23.1142 24.7047 22.6228 25.5407 21.9775 26.186C21.3322 26.8167 20.5695 27.132 19.6895 27.132C18.9855 27.132 18.4575 26.9193 18.1055 26.494C17.7682 26.054 17.6142 25.4747 17.6435 24.756C17.2035 25.504 16.6168 26.0907 15.8835 26.516C15.1648 26.9267 14.3948 27.132 13.5735 27.132C12.4735 27.132 11.6082 26.7947 10.9775 26.12C10.3615 25.4453 10.0535 24.536 10.0535 23.392C10.0535 22.3213 10.2735 21.324 10.7135 20.4C11.1682 19.4613 11.7988 18.7133 12.6055 18.156C13.4122 17.584 14.3215 17.298 15.3335 17.298C16.1255 17.298 16.7855 17.4887 17.3135 17.87C17.8562 18.2513 18.2228 18.8013 18.4135 19.52L18.7435 17.584H19.6235L18.5015 24.03C18.4575 24.2647 18.4355 24.4993 18.4355 24.734C18.4355 25.2473 18.5528 25.6507 18.7875 25.944C19.0368 26.2373 19.3888 26.384 19.8435 26.384C20.5035 26.384 21.0828 26.0907 21.5815 25.504C22.0802 24.9173 22.4615 24.1767 22.7255 23.282C22.9895 22.3727 23.1215 21.456 23.1215 20.532C23.1215 19.1827 22.8282 18.0093 22.2415 17.012C21.6695 16.0147 20.8482 15.2447 19.7775 14.702C18.7068 14.1593 17.4528 13.888 16.0155 13.888C14.2408 13.888 12.6275 14.3353 11.1755 15.23C9.7235 16.11 8.5795 17.3127 7.7435 18.838C6.92217 20.3487 6.5115 22.006 6.5115 23.81C6.5115 25.1887 6.7975 26.3693 7.3695 27.352C7.9415 28.3493 8.7555 29.112 9.8115 29.64C10.8822 30.168 12.1215 30.432 13.5295 30.432C14.8348 30.432 16.0448 30.19 17.1595 29.706L17.3135 30.454C16.0668 30.9527 14.7322 31.202 13.3095 31.202C11.7988 31.202 10.4642 30.9013 9.3055 30.3C8.14683 29.7133 7.24483 28.87 6.5995 27.77C5.95417 26.6847 5.6315 25.4087 5.6315 23.942C5.6315 21.9327 6.08617 20.1067 6.9955 18.464C7.90483 16.8213 9.15883 15.5233 10.7575 14.57C12.3562 13.6167 14.1528 13.14 16.1475 13.14ZM13.8375 26.318C14.5122 26.318 15.1428 26.1493 15.7295 25.812C16.3162 25.46 16.8075 24.9613 17.2035 24.316C17.6142 23.656 17.8782 22.886 17.9955 22.006C18.0542 21.7127 18.0835 21.4047 18.0835 21.082C18.0835 20.1873 17.8415 19.4687 17.3575 18.926C16.8882 18.3687 16.1988 18.09 15.2895 18.09C14.4388 18.09 13.6835 18.3393 13.0235 18.838C12.3782 19.322 11.8795 19.96 11.5275 20.752C11.1755 21.544 10.9995 22.38 10.9995 23.26C10.9995 24.1987 11.2488 24.9467 11.7475 25.504C12.2462 26.0467 12.9428 26.318 13.8375 26.318Z" fill="black" fill-opacity="0.6"/>
</g>
<defs>
<filter id="filter0_d_804_8447" x="0.632812" y="0" width="157.215" height="51.6869" filterUnits="userSpaceOnUse" color-interpolation-filters="sRGB">
<feFlood flood-opacity="0" result="BackgroundImageFix"/>
<feColorMatrix in="SourceAlpha" type="matrix" values="0 0 0 0 0 0 0 0 0 0 0 0 0 0 0 0 0 0 127 0" result="hardAlpha"/>
<feOffset dx="-1" dy="2"/>
<feGaussianBlur stdDeviation="2"/>
<feComposite in2="hardAlpha" operator="out"/>
<feColorMatrix type="matrix" values="0 0 0 0 0 0 0 0 0 0 0 0 0 0 0 0 0 0 0.3 0"/>
<feBlend mode="normal" in2="BackgroundImageFix" result="effect1_dropShadow_804_8447"/>
<feBlend mode="normal" in="SourceGraphic" in2="effect1_dropShadow_804_8447" result="shape"/>
</filter>
</defs>
</svg>
