<svg width="182" height="126" viewBox="0 0 182 126" fill="none" xmlns="http://www.w3.org/2000/svg">
<path d="M48.7198 93.8464L45.7417 92.6758L46.9172 91.8563C51.9329 88.3054 55.0286 83.1936 55.5772 77.4574C56.1257 71.8774 54.2057 66.3754 50.3655 62.3952C46.6821 58.5711 41.7056 56.4639 36.3765 56.4639C31.1257 56.4639 26.2275 58.5321 22.5441 62.2391C18.704 66.1412 16.6664 71.7993 17.1758 77.3794C17.6852 83.1545 20.7808 88.2663 25.8357 91.8563L27.0504 92.7148L25.6789 93.2221C25.2871 93.3781 24.9344 93.4952 24.5818 93.6513C23.8372 93.9244 23.0927 94.1976 22.4266 94.5098C21.2902 94.978 20.2714 95.4463 19.3309 95.9535C8.35912 101.963 1.8544 111.328 0.0518868 123.698C-0.0656685 124.478 0.0127017 125.063 0.326182 125.415C0.639663 125.766 1.22744 126 2.05033 126C2.1287 126 2.24625 126 2.32462 126H70.0364H70.5459C70.6634 126 70.781 126 70.8593 126C71.3687 125.961 72.0741 125.844 72.4659 125.376C72.7402 125.024 72.8578 124.478 72.7402 123.815C70.5067 109.299 62.3954 99.2313 48.7198 93.8464ZM20.2322 75.5844C20.2714 66.7656 27.5206 59.5856 36.4156 59.5856C45.3107 59.5856 52.5599 66.7656 52.5599 75.6234C52.5599 79.9158 50.8749 83.935 47.8577 86.9786C44.8013 90.0223 40.726 91.7002 36.4156 91.7002H36.3373C27.4031 91.6612 20.193 84.4032 20.2322 75.5844ZM3.53936 122.839L3.65691 121.942C5.65535 108.635 18.4297 94.861 36.3373 94.861C36.8859 94.861 37.3953 94.8609 37.9439 94.9C47.1915 95.3292 55.0677 99.0362 61.3374 105.943C65.5302 110.548 68.0772 115.776 69.2136 121.903L69.3703 122.839H3.53936ZM181.949 123.815C179.676 109.299 171.604 99.1923 157.889 93.8464L154.911 92.6758L156.087 91.8563C161.103 88.3054 164.198 83.1936 164.747 77.4574C165.295 71.8774 163.375 66.3754 159.535 62.3952C155.852 58.5711 150.875 56.4639 145.546 56.4639C140.295 56.4639 135.397 58.5321 131.714 62.2391C127.874 66.1412 125.836 71.7993 126.345 77.3794C126.855 83.1545 129.95 88.2663 135.005 91.8563L136.22 92.7148L134.849 93.2221C134.457 93.3781 134.104 93.4952 133.751 93.6513C133.007 93.9244 132.262 94.1976 131.596 94.5098C130.46 94.978 129.441 95.4463 128.501 95.9535C117.529 101.963 111.024 111.328 109.222 123.698C109.104 124.478 109.182 125.063 109.496 125.415C109.809 125.766 110.397 126 111.22 126C111.298 126 111.416 126 111.494 126H179.206H179.715C179.833 126 179.951 126 180.029 126C180.538 125.961 181.244 125.844 181.636 125.376C181.988 125.024 182.067 124.517 181.949 123.815ZM129.441 75.5844C129.48 66.7656 136.729 59.5856 145.624 59.5856C154.52 59.5856 161.769 66.7656 161.769 75.6234C161.769 79.9158 160.084 83.935 157.067 86.9786C154.01 90.0223 149.935 91.7002 145.624 91.7002H145.546C136.612 91.6612 129.402 84.4032 129.441 75.5844ZM112.709 122.839L112.827 121.942C114.825 108.635 127.599 94.861 145.507 94.861C146.056 94.861 146.565 94.8609 147.114 94.9C156.361 95.3292 164.237 99.0362 170.507 105.943C174.7 110.548 177.247 115.776 178.383 121.903L178.54 122.839H112.709ZM58.5552 52.913C61.5333 54.6689 64.9424 55.6835 68.5866 55.6835H68.6258C79.7543 55.6445 88.8061 46.2013 88.8061 34.651C88.8061 23.1007 79.7152 13.6575 68.5866 13.6575C57.4188 13.6575 48.2887 23.1787 48.3279 34.768C48.3279 38.4361 49.2684 41.8699 50.8749 44.8746C49.4251 50.2985 48.132 55.6835 48.132 55.6835C48.132 55.6835 56.9486 53.4203 58.5552 52.913ZM50.679 34.729C50.679 29.5782 52.6383 24.7786 56.2433 21.1886C59.574 17.8328 63.9628 15.9988 68.5866 15.9988C78.4221 15.9988 86.455 24.3884 86.455 34.651C86.455 44.9526 78.4612 53.3032 68.6258 53.3422H68.5866C65.491 53.3422 62.4737 52.4837 59.77 50.8839L58.8687 50.3376L57.8499 50.6497C57.027 50.9229 54.0489 51.7033 51.3843 52.4057C51.8938 50.4546 52.5207 47.9182 53.1869 45.4599L53.422 44.5624L52.9909 43.743C51.4627 41.0115 50.679 37.8898 50.679 34.729ZM61.4549 31.1781C60.632 28.1344 61.8859 24.7395 64.433 22.9836C65.5693 22.2032 66.9408 21.7739 68.3515 21.7739C69.9189 21.7739 71.4863 22.3202 72.701 23.2958C74.7778 24.9737 75.7967 27.5491 75.444 30.2416C75.0913 32.817 73.5239 35.0022 71.212 36.0167C70.3107 36.4069 69.3311 37.1093 69.527 38.7872C69.5662 39.2165 69.527 39.7238 69.4879 40.153C69.4487 40.8944 69.096 41.2456 68.3515 41.3236C68.3123 41.3236 68.2731 41.3236 68.2339 41.3236C67.7245 41.3236 67.2543 40.8554 67.1759 40.192C67.1367 39.8798 67.1367 39.5677 67.1759 39.1775C67.1759 38.9823 67.1759 38.8263 67.1759 38.6312V38.5531C66.98 36.0948 67.9205 34.5729 70.0756 33.6754C72.5051 32.6999 73.6807 30.0465 72.8186 27.471C72.1524 25.52 70.3107 24.1932 68.2731 24.1932C67.8421 24.1932 67.411 24.2713 66.98 24.3884C64.5113 25.1298 63.1007 27.5881 63.6493 30.2416C64.0019 32.0365 63.2574 32.2317 62.9048 32.3487C62.7872 32.3877 62.7088 32.3877 62.5913 32.3877C62.1602 32.4658 61.69 31.9585 61.4549 31.1781ZM70.7026 45.3038C70.6634 46.5915 69.6446 47.6451 68.4299 47.6451C67.1368 47.6451 66.0788 46.5915 66.1179 45.2258C66.1179 43.9381 67.1367 42.9235 68.3907 42.8845C69.6446 42.8845 70.7026 43.9771 70.7026 45.3038ZM111.181 80.0328L105.499 85.6909C105.303 85.886 105.068 85.9641 104.794 85.9641C104.519 85.9641 104.284 85.886 104.088 85.6909C103.696 85.3007 103.696 84.6764 104.088 84.3252L107.419 81.0084H85.5146C84.966 81.0084 84.5349 80.5791 84.5349 80.0328C84.5349 79.4865 84.966 79.0573 85.5146 79.0573H107.419L104.088 75.7405C103.696 75.3503 103.696 74.7259 104.088 74.3747C104.48 74.0235 105.107 73.9845 105.46 74.3747L111.181 80.0328ZM97.466 91.0759C97.466 91.6222 97.035 92.0514 96.4864 92.0514H74.5819L77.9127 95.3682C78.3045 95.7584 78.3045 96.3828 77.9127 96.734C77.7167 96.9291 77.4816 97.0071 77.2073 97.0071C76.933 97.0071 76.6979 96.9291 76.502 96.734L70.8202 91.0759L76.502 85.4178C76.8938 85.0276 77.5208 85.0276 77.8735 85.4178C78.2261 85.808 78.2653 86.4323 77.8735 86.7835L74.5427 90.1003H96.4472C97.035 90.1003 97.466 90.5296 97.466 91.0759ZM112.396 28.9148C113.022 31.1 114.198 33.0511 115.961 34.9631C118.117 37.3044 119.214 40.153 119.175 43.4698C119.175 44.7185 119.175 45.9282 119.175 47.1768C119.175 47.8012 119.175 48.4645 119.175 49.0889C119.175 50.1425 119.566 50.9619 120.35 51.5082C120.546 51.6643 120.781 51.7423 120.977 51.8594C121.016 51.8984 121.095 51.8984 121.134 51.9374C121.173 52.1326 121.173 52.2886 121.212 52.4837C121.291 52.952 121.33 53.3812 121.486 53.8105C121.8 54.708 122.544 55.2933 123.72 55.6055H123.759H129.323H129.363C130.577 55.2933 131.322 54.6689 131.635 53.7715C131.792 53.3422 131.831 52.913 131.91 52.4447C131.949 52.2886 131.949 52.0935 131.988 51.8984C133.36 51.3911 134.026 50.3376 133.987 48.6206C133.947 47.2549 133.947 45.8501 133.987 44.4844V43.2747C133.987 41.4017 134.378 39.6067 135.162 37.9678C135.828 36.563 136.808 35.3924 137.787 34.2217L137.866 34.1437C140.922 30.5147 142.019 26.3394 141.157 21.6959C140.021 15.7646 135.201 11.0821 129.167 10.0285C128.305 9.87241 127.403 9.79436 126.541 9.79436C124.112 9.79436 121.761 10.4187 119.606 11.5893C116.236 13.4234 113.924 16.1548 112.67 19.7058C111.533 22.7495 111.494 25.8321 112.396 28.9148ZM129.598 53.1081C129.402 53.3422 129.049 53.4983 128.54 53.4983H124.778C124.151 53.4983 123.759 53.4203 123.563 53.1861C123.367 52.991 123.289 52.6398 123.328 52.0155H129.715C129.833 52.5228 129.794 52.874 129.598 53.1081ZM131.831 49.2059C131.831 49.8303 131.283 49.9083 130.969 49.9083C130.577 49.9083 130.186 49.9083 129.755 49.9083H128.03H122.349C121.565 49.9083 121.33 49.6742 121.33 48.8938C121.33 47.8012 121.33 46.7476 121.33 45.655V44.3283H131.871V45.616C131.831 46.8256 131.831 48.0353 131.831 49.2059ZM115.06 19.3156C116.588 16.0768 119.096 13.8136 122.544 12.6429C123.916 12.1747 125.327 11.9405 126.659 11.9405C128.697 11.9405 130.695 12.4478 132.615 13.5014C135.593 15.1013 137.631 17.5206 138.65 20.6813C139.903 24.5835 139.394 28.2515 137.161 31.6463C136.729 32.3097 136.22 32.934 135.711 33.5194C135.319 33.9876 134.888 34.4949 134.535 35.0022C133.046 37.0703 132.145 39.4116 131.949 41.948C131.949 42.065 131.91 42.1431 131.91 42.2211C131.322 42.2211 121.996 42.2211 121.369 42.2211C121.291 41.909 121.251 41.5968 121.173 41.3236C121.016 40.5822 120.899 39.8018 120.664 39.0604C120.193 37.3044 119.292 35.6265 118.038 34.1437C117.881 33.9876 117.725 33.7925 117.568 33.6364C116.745 32.6999 115.883 31.7244 115.334 30.5928C113.414 26.7687 113.336 22.9836 115.06 19.3156ZM122.309 30.0074C122.858 30.0074 123.367 30.0074 123.955 30.0074C123.955 30.2806 123.955 30.4757 123.955 30.6708C123.955 33.5194 123.955 36.3679 123.955 39.2165C123.955 39.9189 124.269 40.3091 124.817 40.3091C125.366 40.3091 125.679 39.9579 125.679 39.2555C125.679 39.1384 125.679 38.9823 125.679 38.8653C125.679 36.1338 125.679 33.4023 125.679 30.6708C125.679 30.4757 125.679 30.2806 125.679 30.0855C126.306 30.0855 126.816 30.0855 127.403 30.0855C127.403 30.3196 127.403 30.5147 127.403 30.7098C127.403 33.5194 127.403 36.3289 127.403 39.1775C127.403 39.9579 127.678 40.3481 128.265 40.3481C128.853 40.3481 129.128 39.9579 129.167 39.1384C129.167 39.0214 129.167 38.9433 129.167 38.8263C129.167 36.0948 129.167 33.4023 129.167 30.6708C129.167 30.4757 129.167 30.2806 129.167 30.0465C129.755 30.0465 130.303 30.0465 130.852 30.0465C133.085 29.9684 134.574 28.2125 134.261 26.0663C134.026 24.3884 132.497 23.1397 130.773 23.2177C129.049 23.2567 127.599 24.6225 127.482 26.3004C127.443 26.9638 127.482 27.6661 127.482 28.3685C126.855 28.3685 126.345 28.3685 125.718 28.3685C125.718 27.9783 125.718 27.6271 125.718 27.2759C125.718 26.4175 125.679 25.598 125.209 24.8566C124.386 23.4909 122.701 22.9055 121.095 23.4518C119.606 23.9591 118.626 25.52 118.861 27.0418C119.096 28.7588 120.468 29.9684 122.309 30.0074ZM129.206 26.1833C129.323 25.3639 130.107 24.8176 130.969 24.8566C131.792 24.8956 132.458 25.52 132.576 26.3784C132.654 27.1589 132.145 28.0173 131.361 28.1734C130.695 28.2905 129.95 28.2905 129.206 28.3295C129.206 27.5491 129.128 26.8467 129.206 26.1833ZM122.231 24.8566C123.171 24.8566 123.916 25.559 123.955 26.5345C123.994 27.0808 123.955 27.6662 123.955 28.2905C123.289 28.2905 122.74 28.3295 122.153 28.2905C121.173 28.2125 120.468 27.432 120.507 26.5345C120.585 25.598 121.33 24.8566 122.231 24.8566ZM125.601 4.95571V0.975534C125.601 0.429235 126.032 0 126.581 0C127.129 0 127.56 0.429235 127.56 0.975534V4.95571C127.56 5.50201 127.129 5.93125 126.581 5.93125C126.032 5.93125 125.601 5.50201 125.601 4.95571ZM138.963 10.7699C138.571 10.3797 138.61 9.75534 139.002 9.40415L141.902 6.67265C142.294 6.28244 142.921 6.32146 143.273 6.71168C143.665 7.10189 143.626 7.72623 143.234 8.07742L140.334 10.8089C140.139 11.004 139.903 11.0821 139.668 11.0821C139.394 11.0821 139.159 11.004 138.963 10.7699ZM109.77 8.07742C109.378 7.68721 109.378 7.10189 109.731 6.71168C110.123 6.32146 110.711 6.32146 111.102 6.67265L114.002 9.40415C114.394 9.79436 114.394 10.3797 114.041 10.7699C113.845 10.965 113.571 11.0821 113.336 11.0821C113.101 11.0821 112.866 11.004 112.67 10.8089L109.77 8.07742ZM102.207 19.3936C102.325 18.8863 102.874 18.5742 103.383 18.6912L107.262 19.6668C107.772 19.7838 108.124 20.3301 107.968 20.8374C107.85 21.2666 107.458 21.5788 107.027 21.5788C106.949 21.5788 106.87 21.5788 106.792 21.5398L102.913 20.5643C102.403 20.4472 102.051 19.9399 102.207 19.3936ZM144.958 20.8374C144.841 20.3301 145.154 19.7838 145.664 19.6668L149.543 18.6912C150.052 18.5742 150.601 18.8863 150.719 19.3936C150.836 19.9009 150.523 20.4472 150.013 20.5643L146.134 21.5398C146.056 21.5788 145.977 21.5788 145.899 21.5788C145.468 21.5788 145.076 21.3057 144.958 20.8374Z" fill="black"/>
</svg>
