<svg width="115" height="141" viewBox="0 0 115 141" fill="none" xmlns="http://www.w3.org/2000/svg">
<path d="M22.1858 21.4963L23.6849 21.8261C28.6917 22.9354 33.7285 24.0746 38.7353 25.1539C39.0351 25.2139 39.0951 25.3039 39.0651 25.6037C39.0351 26.5031 39.0351 27.4325 39.0651 28.3319V28.3619C39.0651 29.4112 39.5148 29.8609 40.5641 29.8609C41.5535 29.8609 42.5428 29.8609 43.5322 29.8609C44.5815 29.8609 45.6009 29.8609 46.6502 29.8609C47.7295 29.8609 48.1493 29.4412 48.1493 28.3319V27.8822C48.1493 27.1327 48.1493 26.3532 48.1493 25.5737C48.1493 25.2739 48.2092 25.1839 48.509 25.094C53.1861 24.0746 57.8631 23.0253 62.5701 21.976L65.0885 21.4063C66.1378 21.1665 66.9173 20.6268 67.397 19.7274C67.5469 19.4876 67.6368 19.1878 67.7268 18.9479C67.7568 18.828 67.8167 18.7081 67.8467 18.5881V18.5582V10.5832V10.5533C67.7867 10.4034 67.7268 10.2535 67.6668 10.1036C67.5469 9.74378 67.397 9.41399 67.1871 9.0842C66.5275 8.12481 65.5382 7.6751 64.0391 7.6751C56.1542 7.6751 48.2392 7.6751 40.3542 7.6751H23.2652H23.0553C22.9953 7.6751 22.9354 7.6751 22.9054 7.6751C20.6868 7.76504 19.3676 9.14416 19.3676 11.3328C19.3676 13.5514 19.3676 15.7699 19.3676 17.9585C19.3676 19.7574 20.4769 21.1065 22.1858 21.4963ZM45.6309 27.3725H41.6134V23.3251H45.6309V27.3725ZM21.8561 11.3927C21.8561 10.4633 22.1559 10.1635 23.0553 10.1635C29.801 10.1635 36.5467 10.1635 43.2924 10.1635C50.2479 10.1635 57.2335 10.1635 64.189 10.1635C65.0885 10.1635 65.3883 10.4633 65.3883 11.3927C65.3883 13.5514 65.3883 15.68 65.3883 17.8386C65.3883 18.6781 65.1784 18.9479 64.3389 19.1278L48.509 22.6655C48.3891 22.6955 48.2992 22.6955 48.1792 22.7255H48.1493C48.1493 22.6955 48.1493 22.6655 48.1493 22.6655C48.1493 22.4856 48.1493 22.3357 48.1493 22.1858C48.0893 21.2265 47.6696 20.8367 46.7102 20.8367C46.2005 20.8367 45.7208 20.8367 45.2111 20.8367H42.9926H41.4935C41.1637 20.8367 40.8639 20.8367 40.5341 20.8367C39.5148 20.8367 39.0951 21.2564 39.0651 22.3058C39.0651 22.4257 39.0651 22.5756 39.0651 22.7255V22.7855L37.9858 22.5456C37.0863 22.3357 36.2169 22.1559 35.3474 21.976L22.8754 19.1878C22.0659 19.0079 21.8261 18.738 21.8261 17.8986C21.8561 15.68 21.8561 13.5514 21.8561 11.3927ZM22.9653 35.0476V38.1057C22.9653 39.215 23.2352 39.4548 24.3445 39.4548H62.9298C64.0391 39.4548 64.309 39.215 64.309 38.1057V24.5543C64.309 23.6249 64.6088 23.1752 65.3583 23.0553C65.4482 23.0553 65.5382 23.0253 65.5981 23.0253C66.2277 23.0253 66.7074 23.445 66.7674 24.1346C66.7674 24.2545 66.7974 24.4044 66.7974 24.5843V28.8716C66.7974 32.0196 66.7974 35.1376 66.7974 38.2856C66.7974 39.9045 66.1378 41.0138 64.8786 41.5835C64.249 41.8833 63.5295 41.9432 63.0498 41.9432C59.3621 41.9432 55.7044 41.9732 52.0168 41.9732H33.3687C30.3107 41.9732 27.2226 41.9732 24.1646 41.9732C22.5756 41.9732 21.4663 41.3136 20.8667 40.0544C20.6568 39.5747 20.5369 39.0051 20.5369 38.4355C20.5069 33.9683 20.5069 29.6511 20.5369 24.4644C20.5369 23.5949 20.9866 23.0553 21.7061 23.0553C21.8261 23.0553 21.976 23.0853 22.1259 23.1152C22.5456 23.2052 22.8454 23.505 22.9354 23.8947C22.9953 24.1346 23.0253 24.3744 23.0253 24.6743C22.9653 28.1221 22.9653 31.5998 22.9653 35.0476ZM34.8078 4.91686C34.6279 3.74761 34.5679 2.48841 35.3774 1.37912C36.037 0.449713 37.0264 0 38.2556 0H48.6589C49.9181 0 50.9075 0.329789 51.5371 0.989369C52.1967 1.64895 52.4965 2.60834 52.4965 3.83755C52.4965 3.92749 52.4965 4.01744 52.4965 4.10738C52.4965 4.31724 52.4965 4.49713 52.4965 4.707C52.4066 5.33659 51.9269 5.75633 51.2673 5.75633C50.6077 5.75633 50.098 5.30661 50.0381 4.64703C50.0081 4.43717 50.0081 4.19732 50.0081 3.98746C50.0081 3.83755 50.0081 3.68765 50.0081 3.56772C49.9781 2.8182 49.6483 2.48841 48.9288 2.48841C47.1599 2.48841 45.361 2.48841 43.5922 2.48841C41.7933 2.48841 39.9945 2.48841 38.2256 2.48841C37.536 2.48841 37.2063 2.8182 37.1763 3.53774C37.1763 3.68765 37.1763 3.83755 37.1763 4.01744C37.1763 4.25728 37.1763 4.49713 37.1463 4.73698C37.0863 5.33659 36.6366 5.72635 36.037 5.78631C36.007 5.78631 35.977 5.78631 35.9471 5.78631C35.3474 5.75633 34.8677 5.42654 34.8078 4.91686ZM72.9135 36.3668H79.839H79.869C80.7684 36.1569 81.428 35.7972 81.8777 35.2275C81.8777 35.2275 81.9077 35.2275 81.9377 35.2275C81.9677 35.2275 81.9977 35.2275 82.0276 35.2275C83.7665 35.7672 85.5654 36.097 87.3343 36.2469C87.5441 36.2768 87.784 36.2768 87.9938 36.3068L88.3236 36.3368H98.2773L98.3672 36.3068C98.3972 36.3068 98.4272 36.2768 98.4572 36.2768C99.8663 36.037 100.976 34.9277 101.095 33.5486C101.125 33.1888 101.095 32.829 101.065 32.4393C101.065 32.2894 101.036 32.1695 101.036 32.0196C101.036 32.0196 101.065 32.0196 101.065 31.9896C102.055 31.6298 102.774 30.8503 103.044 29.8909C103.344 28.9315 103.134 27.8822 102.535 27.0727C102.445 26.9528 102.445 26.8928 102.565 26.7429C103.404 25.6336 103.404 24.0746 102.565 22.9953C102.445 22.8454 102.445 22.7855 102.565 22.6056C103.284 21.5562 103.374 20.417 102.804 19.2777C102.205 18.1084 101.185 17.5088 99.8063 17.5088C99.1467 17.5088 98.4572 17.5088 97.7976 17.5088H94.5596C94.5596 17.5088 94.6496 17.269 94.7095 17.1491C95.2492 15.8899 95.7889 14.6007 95.9688 13.1916C96.1486 11.7225 95.6989 10.2235 94.7095 9.05422C93.7502 7.91495 92.3411 7.22539 90.932 7.19541H90.872C90.1525 7.19541 89.7327 7.55518 89.5528 8.27472C89.4629 8.66447 89.373 9.05422 89.313 9.47395C89.1631 10.2535 88.9832 11.0629 88.8033 11.8424C88.4735 13.4014 87.6341 14.5107 86.2849 15.2003C85.7453 15.4701 85.1756 15.7699 84.636 16.0697L84.0963 16.3696C83.6466 16.6094 83.2269 16.8492 82.7772 17.0891L82.3275 17.3289C81.6979 16.1297 80.6485 15.5301 79.2094 15.5301H79.1795C78.4299 15.5301 77.6804 15.5301 76.9309 15.5301H73.5431C72.4937 15.5301 72.074 15.9498 72.074 16.9692V21.2265C72.074 25.7835 72.074 30.3107 72.074 34.8677C72.074 35.3774 72.1639 36.007 72.9135 36.3668ZM82.8671 19.7274C83.6166 19.3377 84.3362 18.9479 85.0557 18.5282C85.8652 18.0785 86.7047 17.6287 87.5141 17.209C89.373 16.2196 90.5722 14.6307 91.0519 12.472C91.1718 11.9024 91.2917 11.3328 91.4117 10.7631C91.4716 10.4633 91.5316 10.1635 91.5915 9.8637C91.5915 9.83372 91.6215 9.80374 91.6215 9.77376C92.9707 10.2235 93.8401 11.6626 93.5703 13.0717C93.4204 13.8811 93.1505 14.6906 92.8807 15.4102C92.7308 15.7999 92.5809 16.2196 92.401 16.6094C92.2811 16.8792 92.1612 17.1491 92.0413 17.4489C91.9813 17.5988 91.9513 17.6287 91.8314 17.6287H91.8014C91.6815 17.6287 91.5316 17.6287 91.4117 17.6287C91.3217 17.6287 90.872 17.6287 90.872 17.6287C90.4223 17.6287 90.0625 17.7487 89.8227 18.0185C89.6128 18.2284 89.5229 18.4982 89.5229 18.828C89.5229 19.5475 90.0625 19.9972 90.872 19.9972H95.2192C96.7483 19.9972 98.2473 19.9972 99.7763 19.9972C100.226 19.9972 100.496 20.1471 100.676 20.4469C100.826 20.7168 100.856 21.0166 100.706 21.2864C100.556 21.5562 100.256 21.7361 99.9262 21.7361C99.6864 21.7361 99.4465 21.7361 99.2067 21.7361H98.0374C97.6177 21.7361 97.2579 21.886 97.0181 22.1259C96.8082 22.3357 96.6883 22.6056 96.7183 22.9354C96.7183 23.6249 97.2579 24.1046 98.0374 24.1046H99.8063C100.136 24.1046 100.406 24.1946 100.586 24.4044C100.736 24.5543 100.826 24.7642 100.826 25.004C100.826 25.5137 100.436 25.8735 99.8363 25.8735H99.3866H98.5171C98.3372 25.8735 98.1573 25.8735 97.9775 25.8735C97.5877 25.8735 97.2579 26.0234 97.0181 26.2333C96.8082 26.4431 96.6883 26.7429 96.6883 27.0427C96.6883 27.7023 97.228 28.212 97.9475 28.212C98.1274 28.212 98.3073 28.212 98.4871 28.212H99.3266C99.4765 28.212 99.6564 28.212 99.8063 28.212C100.106 28.212 100.376 28.3019 100.556 28.4818C100.706 28.6317 100.796 28.8416 100.796 29.0814C100.796 29.5911 100.406 29.9509 99.8363 29.9509C99.6564 29.9509 99.4765 29.9509 99.2966 29.9509H98.4572C98.3073 29.9509 98.1274 29.9509 97.9775 29.9509C97.2579 29.9509 96.7183 30.4306 96.7183 31.0902C96.6883 31.7497 97.168 32.2294 97.8875 32.2894C98.4272 32.3494 98.7869 32.7091 98.757 33.2188C98.727 33.6985 98.3372 34.0583 97.7976 34.0583C97.0181 34.0583 96.2386 34.0583 95.4591 34.0583C94.6196 34.0583 93.8101 34.0583 92.9707 34.0583C91.2917 34.0583 89.9426 34.0583 88.7434 34.0283C86.8546 33.9983 84.8458 33.6685 82.6273 33.0089H82.5973V30.4306C82.5973 27.0128 82.5973 23.5949 82.5973 20.1771C82.6572 19.9073 82.7172 19.8174 82.8671 19.7274ZM74.4425 17.8686C74.5024 17.8686 74.5324 17.8686 74.5924 17.8686H77.3506H79.2394C79.959 17.8686 80.2887 18.1984 80.2887 18.9179C80.2887 23.5949 80.2887 28.272 80.2887 32.949C80.2887 33.6685 79.959 33.9983 79.2394 33.9983H74.4125V17.8686H74.4425ZM90.6022 4.28726C90.6022 3.53774 90.6022 2.8182 90.6022 2.15862C90.6022 1.49904 91.1418 0.989369 91.7714 0.989369C92.431 0.989369 92.9407 1.49904 92.9407 2.15862C92.9407 2.39847 92.9407 2.63832 92.9407 2.87816V3.20795V3.53774C92.9407 3.77759 92.9407 4.01744 92.9407 4.25728C92.9107 4.94684 92.431 5.45652 91.7714 5.45652C91.1119 5.45652 90.6022 4.94684 90.6022 4.28726ZM84.6959 5.30661C84.3062 4.88688 84.3362 4.19732 84.7859 3.77759C85.0257 3.53774 85.3255 3.41782 85.6254 3.41782C85.8952 3.41782 86.135 3.50776 86.3149 3.68765C86.8246 4.16734 87.3642 4.67701 87.9639 5.33659C88.0838 5.45652 88.1437 5.6364 88.2037 5.78631C88.2337 5.84627 88.2337 5.90623 88.2637 5.96619L88.2936 5.99617V6.02615C88.2037 6.53583 87.9938 6.86562 87.5741 7.07548C87.3942 7.16543 87.2143 7.19541 87.0344 7.19541C86.7946 7.19541 86.5548 7.10546 86.3449 6.92558C85.7453 6.4159 85.1756 5.84627 84.6959 5.30661ZM95.3092 5.90623V5.87625L95.3391 5.84627C95.3691 5.81629 95.3691 5.78631 95.3991 5.72635C95.4591 5.57644 95.549 5.39656 95.6689 5.24665C96.1486 4.73698 96.6583 4.2273 97.108 3.77759C97.3479 3.53774 97.6477 3.41782 97.9475 3.41782C98.2473 3.41782 98.5471 3.53774 98.7869 3.77759C99.2367 4.25728 99.2367 4.94684 98.757 5.42654C98.2473 5.96619 97.7676 6.44589 97.2879 6.8956C97.0481 7.10546 96.7782 7.22539 96.5084 7.22539C96.3285 7.22539 96.1486 7.19541 95.9987 7.10547C95.549 6.8956 95.3391 6.50585 95.3092 5.90623ZM78.5499 31.0602C78.5499 31.36 78.4299 31.6598 78.2201 31.8996C78.0102 32.1395 77.7104 32.2594 77.3806 32.2594C76.751 32.2594 76.2114 31.7497 76.2114 31.0902C76.2114 30.4606 76.721 29.9209 77.3806 29.8909C78.0102 29.9209 78.5499 30.4306 78.5499 31.0602ZM105.623 72.3438H78.8197L66.2577 59.9018C65.3883 59.0323 64.0091 59.0323 63.1097 59.8418L56.8137 65.7181C56.364 66.1378 56.0942 66.7374 56.0942 67.367C56.0942 67.9966 56.334 68.5962 56.7838 69.016L75.3119 86.8246H89.9726V100.436C89.9726 100.526 89.8826 100.616 89.7927 100.616H79.839H56.2441L65.9279 85.6553L63.4095 84.0364L52.6764 100.616H47.1599V91.6515C47.1599 90.2424 45.9907 89.0732 44.5516 89.0732H29.9809V80.9483C29.9809 76.1814 26.1133 72.3138 21.3464 72.3138H8.63449C3.86753 72.3438 0 76.2114 0 80.9783V108.711C0 113.478 3.86753 117.345 8.63449 117.345H9.83372V140.67H12.8318V117.345H26.9828V138.152C26.9828 139.381 27.9721 140.37 29.2014 140.37H41.2537C42.4829 140.37 43.4723 139.381 43.4723 138.152V109.67C43.4723 107.361 42.6028 105.233 41.1637 103.644H55.4346V138.002H47.5796V141H66.9173V138.002H58.4627V103.644H73.1533C71.7142 105.233 70.8448 107.361 70.8448 109.67V138.152C70.8448 139.381 71.8342 140.37 73.0634 140.37H85.1157C86.3449 140.37 87.3343 139.381 87.3343 138.152V117.345H101.815V140.67H104.813V117.345H105.683C110.45 117.345 114.317 113.478 114.317 108.711V80.9783C114.257 76.2114 110.39 72.3438 105.623 72.3438ZM44.1318 100.646H34.448H27.6124H18.798C18.7081 100.646 18.6181 100.556 18.6181 100.466V85.3555H15.62V100.466C15.62 102.205 17.0591 103.644 18.798 103.644H27.6124H34.448C37.7759 103.644 40.4742 106.342 40.4742 109.67V137.372H29.9809V116.656C29.9809 115.366 28.9315 114.347 27.6723 114.347H8.63449C5.51648 114.347 2.99809 111.829 2.99809 108.711V80.9783C2.99809 77.8603 5.51648 75.3419 8.63449 75.3419H21.3464C24.4644 75.3419 26.9828 77.8603 26.9828 80.9783V90.1525C26.9828 91.2318 27.8522 92.1012 28.9315 92.1012H44.1318V100.646ZM111.259 108.711C111.259 111.829 108.741 114.347 105.623 114.347H86.5847C85.2956 114.347 84.2762 115.396 84.2762 116.656V137.372H73.7829V109.67C73.7829 106.342 76.4812 103.644 79.8091 103.644H89.7627H90.6921V103.494C92.0113 103.104 92.9407 101.875 92.9407 100.466V83.8565H76.4812L59.3921 67.397L64.6088 62.5101L77.5605 75.3119H105.593C108.711 75.3119 111.229 77.8303 111.229 80.9483V108.711H111.259ZM14.0011 70.9047C20.5669 70.9047 25.9035 65.5682 25.9035 59.0023C25.9035 52.4365 20.5669 47.0999 14.0011 47.0999C7.43526 47.0999 2.06868 52.4365 2.06868 59.0023C2.06868 65.5682 7.43526 70.9047 14.0011 70.9047ZM14.0011 50.098C18.9179 50.098 22.9054 54.0855 22.9054 59.0023C22.9054 63.9192 18.8879 67.9067 14.0011 67.9067C9.11418 67.9067 5.09675 63.9192 5.09675 59.0023C5.09675 54.0855 9.0842 50.098 14.0011 50.098ZM89.1931 59.0023C89.1931 65.5682 94.5297 70.9047 101.095 70.9047C107.661 70.9047 112.998 65.5682 112.998 59.0023C112.998 52.4365 107.661 47.0999 101.095 47.0999C94.5297 47.0999 89.1931 52.4365 89.1931 59.0023ZM110.03 59.0023C110.03 63.9192 106.042 67.9067 101.125 67.9067C96.2086 67.9067 92.2211 63.9192 92.2211 59.0023C92.2211 54.0855 96.2086 50.098 101.125 50.098C106.042 50.098 110.03 54.0855 110.03 59.0023Z" fill="black"/>
</svg>
