<svg width="135" height="132" viewBox="0 0 135 132" fill="none" xmlns="http://www.w3.org/2000/svg">
<path d="M111.925 130.222C112.037 130.556 112.261 131.111 111.141 132H23.5042C22.385 131.222 22.6088 130.667 22.7208 130.333C22.9446 129.667 23.2804 129.444 24.7354 129.444C39.2857 129.444 53.8359 129.444 68.3861 129.444C82.3767 129.444 96.2554 129.444 110.246 129.444C111.477 129.333 111.813 129.556 111.925 130.222ZM134.646 52.4444C134.646 53.5556 134.198 53.8889 133.079 53.8889C132.183 53.8889 131.288 53.8889 130.281 53.8889H124.908V92.4444C124.908 94.3333 124.684 94.6667 122.67 94.6667H115.73C113.38 94.6667 113.268 94.4445 113.268 92.2222V54H21.3777V92.2222C21.3777 94.3333 21.1538 94.6667 19.0272 94.6667H14.886H11.6402C9.96132 94.6667 9.62554 94.3333 9.62554 92.6667C9.62554 84.2222 9.62554 56.7778 9.62554 56.7778V54H4.477C3.5816 54 2.6862 54 1.7908 54C0.335775 54 0 53.6667 0 52.2222C0 49.2222 0 46.3333 0 43.3333C0 41.5556 0.111925 41.3333 2.01465 41.3333C2.12657 41.3333 2.35042 41.3333 2.46235 41.3333H4.58892V38C4.58892 36.4444 4.58892 35 4.58892 33.4444C4.70085 27.7778 8.28244 23.4444 13.2071 23C16.341 22.6667 19.5869 22.5556 22.8327 22.5556C26.0785 22.5556 29.2124 22.6667 32.4582 23C37.3829 23.4444 40.9645 27.7778 40.9645 33.3333C40.9645 34.8889 40.9645 36.4444 40.9645 38V41.3333H49.247V40.2222V39.4444C49.247 38.8889 49.247 38.3333 49.247 37.8889C49.247 37.1111 49.247 36.3333 49.3589 35.6667C49.3589 33.8889 49.4708 32.2222 49.8066 30.5556C50.8139 26.1111 54.8432 22.8889 59.5441 22.7778C62.3422 22.6667 65.1403 22.6667 67.8265 22.6667C70.2889 22.6667 72.6393 22.6667 75.1016 22.7778C81.1456 22.8889 85.6226 27.3333 85.7345 33.4444C85.7345 35 85.7345 36.5556 85.7345 38.1111V41.4444H93.905V39.2222C93.905 38.4444 93.905 37.6667 93.905 36.7778C93.905 36.3333 93.905 35.8889 93.905 35.4444V35.3333C93.905 34 93.905 32.7778 94.1289 31.5556C94.9123 26.6667 99.1655 23 104.09 22.8889C106.664 22.7778 109.239 22.7778 112.149 22.7778C114.499 22.7778 116.962 22.7778 119.312 22.7778C125.58 22.8889 130.057 27.3333 130.169 33.6667C130.169 35.1111 130.169 36.5556 130.169 38.1111V41.5556H131.288C131.624 41.5556 131.848 41.5556 132.183 41.5556C132.519 41.5556 132.631 41.5556 132.855 41.5556C133.079 41.5556 133.303 41.5556 133.638 41.5556C134.646 41.6667 134.87 41.8889 134.87 42.8889C134.758 46.1111 134.758 49.3333 134.646 52.4444ZM96.2554 37.6667V37.8889C96.2554 38.5556 96.2554 39.3333 96.2554 40V41.1111H127.259V40C127.259 39.2222 127.259 38.4444 127.259 37.6667C127.259 35.8889 127.371 34.1111 127.147 32.3333C126.699 28.2222 123.453 25.2222 119.2 25.2222C117.745 25.2222 116.29 25.2222 114.947 25.2222C114.947 25.3333 114.947 25.3333 114.947 25.4444L114.387 27.4444C114.275 27.6667 114.052 27.8889 113.828 27.8889H113.268L114.611 37.6667L112.261 40L109.91 37.6667L111.253 27.8889H110.806C110.47 27.8889 110.246 27.6667 110.246 27.4444L109.686 25.4444C109.686 25.3333 109.686 25.3333 109.686 25.2222C107.896 25.2222 106.105 25.2222 104.202 25.2222C100.061 25.3333 96.5912 28.5556 96.3674 32.6667C96.2554 34.3333 96.2554 36 96.2554 37.6667ZM51.8212 37.6667C51.8212 38.5556 51.8212 39.3333 51.8212 40.1111V41.2222H82.8244V40.1111C82.8244 39.3333 82.8244 38.5556 82.8244 37.7778C82.8244 36 82.8244 34.4444 82.8244 32.7778C82.6006 28.4444 79.2429 25.3333 74.8778 25.2222C73.3108 25.2222 71.632 25.2222 69.9531 25.2222C69.9531 25.3333 69.9531 25.3333 69.9531 25.4444L69.3935 27.3333C69.2815 27.5556 69.0577 27.7778 68.8338 27.7778H68.2742L69.6173 37.5556L67.2669 39.8889L64.9165 37.5556L66.2596 27.7778H65.6999C65.3642 27.7778 65.1403 27.5556 65.1403 27.3333L64.5807 25.3333C64.5807 25.2222 64.5807 25.2222 64.5807 25.1111C63.0137 25.1111 61.4468 25.1111 59.8798 25.1111C55.6267 25.1111 52.3809 28 51.9332 32C51.7093 33.8889 51.8212 35.7778 51.8212 37.6667ZM7.49897 37.4444C7.49897 38.3333 7.49897 39.2222 7.49897 40.1111V41.2222H38.3903V40.1111C38.3903 39.3333 38.3903 38.4444 38.3903 37.6667C38.3903 35.8889 38.5022 34 38.2783 32.2222C37.9426 28.3333 34.5848 25.2222 30.7794 25.2222C28.9886 25.2222 27.3097 25.2222 25.5189 25.2222C25.5189 25.3333 25.5189 25.3333 25.5189 25.4444L24.9593 27.4444C24.8473 27.6667 24.6235 27.8889 24.3996 27.8889H23.84L25.1831 37.6667L22.8327 40L20.4823 37.6667L21.8254 27.8889H21.2657C20.93 27.8889 20.7061 27.6667 20.7061 27.4444L20.1465 25.3333C20.1465 25.2222 20.1465 25.2222 20.1465 25.2222C18.4676 25.2222 16.6768 25.2222 14.9979 25.2222C11.4163 25.2222 8.05859 28 7.72282 31.3333C7.38705 33.3333 7.38704 35.4444 7.49897 37.4444ZM18.6915 54H12.3117V92H18.6915V54ZM122.334 54H116.066V92H122.334V54ZM132.071 43.8889H2.6862V51.3333H132.071V43.8889ZM125.58 120.444C125.804 120.667 125.804 120.889 125.804 121.333C125.804 122.111 125.468 122.444 124.796 122.556C124.461 122.667 124.013 122.667 123.565 122.667H71.4081H11.4163C10.8567 122.667 10.409 122.667 9.96132 122.556C9.28977 122.444 8.954 122 9.06592 121.333C9.06592 120.667 9.40169 120.222 10.0732 120.111C10.409 120.111 10.7448 120.111 11.0806 120.111H41.9719V119C41.9719 118 41.9719 116.889 41.9719 115.889C41.9719 113.444 41.9719 111.111 41.9719 108.778C41.9719 107.333 42.0838 105.444 42.5315 103.778C44.0984 97.8889 49.5827 93.4445 55.5148 93.3333C59.8798 93.2222 63.9091 93.1111 67.8265 93.1111C71.7439 93.1111 75.6613 93.2222 79.3548 93.3333C86.6299 93.5556 92.6738 99.5556 93.0096 107C93.1215 110.556 93.1215 118.889 93.1215 119V120.111H94.2408C94.2408 120.111 109.798 120.111 120.095 120.111H124.237C124.796 120 125.356 120.111 125.58 120.444ZM90.2115 107.111C89.9876 100.889 84.951 95.8889 78.7952 95.7778C75.1016 95.6667 71.2962 95.6667 67.4907 95.6667C63.7972 95.6667 59.7679 95.6667 55.8505 95.7778C50.1424 95.8889 45.2177 100.222 44.6581 105.667C44.3223 108.667 44.4342 111.778 44.4342 114.778C44.4342 116.111 44.5461 117.444 44.5461 118.778V119.889H52.7166V117C52.7166 115.667 52.7166 114.444 52.7166 113.111C52.7166 111.667 53.3882 111.444 54.0597 111.444C54.7313 111.444 55.2909 111.556 55.2909 113C55.2909 114.222 55.2909 115.444 55.2909 116.778V119.778H79.4667C79.4667 119.778 79.4667 117.333 79.4667 116.778C79.4667 115.333 79.4667 113.889 79.4667 112.556C79.4667 111.889 79.9144 111.556 80.586 111.444H80.6979C81.4814 111.444 81.8171 111.778 81.929 112.444C82.041 112.889 82.041 113.333 82.041 113.889V114.333C82.041 115.222 82.041 116.222 82.041 117.111V119.889H90.3234V118.778C90.3234 117.667 90.3234 116.556 90.3234 115.444V115.111C90.3234 112.556 90.3234 109.778 90.2115 107.111ZM53.0524 76.5556C53.1643 68.6667 59.3202 62.4444 67.2669 62.4444H67.3788C71.1843 62.4444 74.7659 64 77.452 66.6667C80.1383 69.3333 81.5933 73 81.4814 76.7778C81.3694 84.5556 74.9897 90.7778 67.2669 90.7778H67.155C59.4321 90.6667 53.0524 84.3333 53.0524 76.5556ZM55.7386 76.6667C55.7386 83 60.9991 88.2222 67.3788 88.2222C73.8705 88.2222 79.1309 83 79.1309 76.6667C79.1309 73.5556 77.8997 70.5556 75.7732 68.4444C73.5347 66.2222 70.6246 65 67.4907 65C64.3568 65 61.4468 66.2222 59.3202 68.4444C56.8579 70.5556 55.6267 73.5556 55.7386 76.6667ZM101.516 10.4444C101.516 7.77778 102.523 5.22222 104.426 3.22222C106.441 1.22222 108.903 0.111111 111.701 0.111111H111.813C117.521 0.111111 122.11 4.66667 122.222 10.2222C122.222 12.8889 121.215 15.4444 119.312 17.4444C117.297 19.4444 114.723 20.5556 111.925 20.5556H111.813C106.217 20.6667 101.516 16.1111 101.516 10.4444ZM104.09 10.3333C104.09 12.4444 104.874 14.3333 106.329 15.7778C107.784 17.2222 109.686 18 111.813 18C116.066 18 119.536 14.5556 119.648 10.3333C119.648 8.33333 118.864 6.44444 117.409 5C115.954 3.55556 113.94 2.66667 111.925 2.66667C107.56 2.66667 104.09 6.11111 104.09 10.3333ZM12.5356 10.3333C12.5356 7.66667 13.6548 5.11111 15.5576 3.11111C17.5722 1.22222 20.1465 0.111111 22.8327 0.111111C28.5409 0.111111 33.2417 4.77778 33.2417 10.3333C33.2417 16 28.5409 20.5556 22.8327 20.5556H22.7208C17.1245 20.5556 12.5356 16 12.5356 10.3333ZM15.1099 10.3333C15.1099 14.5556 18.5795 18 22.8327 18C27.1978 18 30.6674 14.5556 30.6674 10.2222C30.6674 6 27.1978 2.55556 22.8327 2.55556C18.5795 2.66667 15.1099 6.22222 15.1099 10.3333ZM59.9918 17.5556C57.9771 15.5556 56.9698 13 56.9698 10.2222C56.9698 4.55556 61.6706 0 67.2669 0C72.9751 0 77.564 4.55556 77.6759 10.2222C77.6759 12.8889 76.6686 15.5556 74.6539 17.4444C72.6393 19.4444 70.065 20.5556 67.2669 20.5556C64.5807 20.6667 62.0064 19.5556 59.9918 17.5556ZM59.5441 10.3333C59.5441 14.5556 63.0137 18 67.2669 18C71.632 18 75.1016 14.4444 75.1016 10.2222C75.1016 6 71.52 2.55556 67.2669 2.55556H67.155C63.1257 2.66667 59.5441 6.22222 59.5441 10.3333Z" fill="black"/>
</svg>
