<?xml version="1.0" encoding="UTF-8"?>
<svg id="Layer_2" width="100px" height="120px" data-name="Layer 2" xmlns="http://www.w3.org/2000/svg" viewBox="0 0 214.72 250">
  <defs>
    <style>
      .cls-1 {
        stroke-width: 0px;
      }
    </style>
  </defs>
  <g id="Layer_1-2" data-name="Layer 1">
    <g>
      <path class="cls-1" d="M68.33,250c-5.76-2.16-7.82-6.4-7.53-12.4.29-6.16.07-12.34.07-18.86-3.08,0-5.96,0-8.85,0-7.36-.01-11.12-3.74-11.12-11.08,0-65.49.03-130.98-.06-196.47,0-5.66,2.45-9.18,7.52-11.18h138.89c5.72,2.2,7.83,6.42,7.48,12.44-.31,5.35-.07,10.73-.07,16.1v2.73c1.98,0,3.6,0,5.21,0,1.7,0,3.41-.04,5.11.02,4.54.14,8.28,2.95,9.31,7.2.36,1.47.33,3.06.33,4.6.01,64.83-.04,129.66.1,194.48.01,6.01-1.79,10.23-7.5,12.43H68.33ZM46.45,109.25c0,32.71,0,65.41,0,98.12,0,4.42,1.21,5.64,5.63,5.64,43.77,0,87.54,0,131.3,0,4.55,0,5.72-1.19,5.72-5.81,0-65.25,0-130.5,0-195.75,0-4.59-1.19-5.8-5.77-5.8-43.69,0-87.37,0-131.06,0-4.71,0-5.83,1.16-5.83,5.97,0,32.54,0,65.09,0,97.63ZM66.43,218.73c0,6.65,0,12.91,0,19.16,0,5.47.96,6.46,6.32,6.46,43.36,0,86.72,0,130.08,0,5.22,0,6.26-1.05,6.26-6.29,0-64.92,0-129.85,0-194.77,0-.89.06-1.8-.08-2.68-.3-1.84-1.28-3.38-3.21-3.48-3.62-.19-7.25-.05-11.15-.05v3.32c0,55.57,0,111.14-.02,166.7,0,1.53,0,3.13-.39,4.59-1.22,4.54-5,7.04-10.41,7.04-38.08,0-76.17,0-114.25,0-.96,0-1.91,0-3.16,0Z"/>
      <path class="cls-1" d="M0,156.99c0-23.67-.02-47.35.04-71.02,0-1.65.34-3.41.96-4.94,3.52-8.82,7.11-17.62,10.85-26.35.48-1.13,1.83-2.33,3-2.63,1.61-.41,2.46,1.06,3.06,2.52,3.78,9.24,7.62,18.46,11.39,27.71.38.94.51,2.05.51,3.08,0,47.27-.01,94.53-.04,141.8,0,7.31-4.21,11.55-11.44,11.59-2.35.01-4.71.02-7.06,0-7.04-.05-11.23-4.2-11.24-11.23-.02-23.51,0-47.02,0-70.53ZM23.86,212.42v-125.52H5.72v125.52h18.14ZM24.02,218.39H5.63c0,3.6-.16,7.07.05,10.53.15,2.43,1.95,3.98,4.38,4.06,3.24.1,6.48.11,9.72-.02,2.4-.09,4.12-1.81,4.21-4.21.12-3.39.03-6.79.03-10.35ZM14.85,61.96c-2.74,6.67-5.25,12.75-7.82,18.99h15.63c-2.57-6.24-5.05-12.28-7.81-18.99Z"/>
      <path class="cls-1" d="M57.6,182.1c0-10.19,8.22-18.49,18.36-18.52,10.26-.03,18.66,8.35,18.6,18.57-.06,10.11-8.46,18.48-18.52,18.45-10.13-.03-18.43-8.35-18.44-18.49ZM88.85,182.14c.02-7.17-5.59-12.86-12.72-12.9-7.1-.04-12.86,5.64-12.92,12.75-.06,7.07,5.67,12.86,12.76,12.89,7.14.04,12.85-5.62,12.88-12.74Z"/>
      <path class="cls-1" d="M75.98,55.15c-10.24-.05-18.47-8.46-18.38-18.78.09-10.09,8.55-18.37,18.66-18.25,10.09.11,18.4,8.59,18.3,18.66-.11,10.14-8.48,18.42-18.58,18.37ZM76.04,23.84c-7.13,0-12.84,5.7-12.83,12.81,0,7.11,5.72,12.8,12.85,12.8,7.13,0,12.79-5.67,12.79-12.83,0-7.15-5.66-12.8-12.81-12.79Z"/>
      <path class="cls-1" d="M75.99,115.14c10.18-.03,18.47,8.15,18.57,18.31.1,10.19-8.35,18.65-18.56,18.59-10.21-.06-18.4-8.27-18.4-18.46,0-10.2,8.19-18.42,18.39-18.45ZM88.85,133.75c.06-7.14-5.54-12.93-12.63-13.05-7-.12-12.88,5.63-13.01,12.72-.12,7.03,5.63,12.94,12.67,13.04,7.06.1,12.91-5.63,12.97-12.71Z"/>
      <path class="cls-1" d="M76.05,103.57c-10.2,0-18.44-8.22-18.46-18.4-.02-10.28,8.37-18.66,18.58-18.56,10.15.11,18.43,8.46,18.38,18.56-.05,10.15-8.35,18.4-18.5,18.4ZM88.85,85.08c-.01-7.12-5.73-12.83-12.83-12.82-7.07.01-12.83,5.8-12.81,12.87.02,7.06,5.84,12.87,12.87,12.86,7.06-.01,12.78-5.8,12.77-12.92Z"/>
      <path class="cls-1" d="M140.24,28.72c-11.11,0-22.22,0-33.34,0-.88,0-1.99.18-2.6-.27-.86-.63-1.8-1.75-1.84-2.7-.04-.82.99-1.91,1.83-2.46.65-.43,1.72-.26,2.61-.26,22.14-.01,44.29,0,66.43,0,.73,0,1.65-.23,2.14.12.95.69,2.36,1.77,2.3,2.59-.07,1.02-1.34,2.08-2.3,2.86-.45.37-1.41.13-2.14.13-11.03,0-22.06,0-33.09,0Z"/>
      <path class="cls-1" d="M140.23,39.49c-11.11,0-22.23,0-33.34,0-.73,0-1.66.24-2.14-.12-.94-.69-2.06-1.61-2.33-2.64-.4-1.55.77-2.55,2.3-2.86.71-.14,1.45-.09,2.18-.09,22.14,0,44.29,0,66.43,0,.57,0,1.14-.03,1.7.03,1.76.19,2.95,1.1,2.87,2.96-.07,1.72-1.23,2.59-2.89,2.69-1.13.07-2.27.02-3.41.02-10.46,0-20.93,0-31.39,0Z"/>
      <path class="cls-1" d="M139.94,77.15c-11.03,0-22.06,0-33.09,0-.73,0-1.67.25-2.14-.1-.93-.7-2.19-1.72-2.22-2.65-.03-.9,1.18-2.02,2.1-2.71.54-.4,1.57-.18,2.37-.18,22.06,0,44.12,0,66.18,0,3.39,0,4.77.8,4.81,2.77.05,2.04-1.38,2.87-4.92,2.87-11.03,0-22.06,0-33.09,0Z"/>
      <path class="cls-1" d="M140.2,184.9c-11.11,0-22.22,0-33.33,0-.81,0-1.82.2-2.37-.2-.88-.63-2.07-1.72-2.01-2.54.07-.99,1.18-2.05,2.08-2.79.44-.37,1.41-.14,2.14-.14,22.3,0,44.61,0,66.91,0,.57,0,1.32-.21,1.67.07.98.78,2.46,1.75,2.49,2.68.03.92-1.36,2.04-2.33,2.8-.46.36-1.41.12-2.14.12-11.03,0-22.06,0-33.09,0Z"/>
      <path class="cls-1" d="M140.37,168.46c11.03,0,22.06,0,33.09,0,.65,0,1.5-.24,1.91.08.97.77,2.29,1.74,2.41,2.76.1.8-1.26,1.96-2.21,2.63-.56.39-1.57.17-2.38.17-22.06,0-44.12,0-66.18,0-.41,0-.81,0-1.22,0-1.91-.02-3.48-.61-3.45-2.84.03-2.19,1.52-2.82,3.47-2.81,5.92.02,11.84,0,17.76,0,5.6,0,11.19,0,16.79,0Z"/>
      <path class="cls-1" d="M140.14,87.91c-11.21,0-22.42,0-33.62,0-.73,0-1.69.22-2.14-.16-.84-.7-1.92-1.76-1.91-2.67,0-.88,1.1-1.98,1.99-2.56.64-.42,1.73-.21,2.62-.21,22.01,0,44.02,0,66.03,0,3.44,0,4.79.77,4.85,2.73.06,2.04-1.37,2.87-4.92,2.87-10.96,0-21.93,0-32.89,0Z"/>
      <path class="cls-1" d="M140.14,125.58c-11.13,0-22.25,0-33.38,0-.73,0-1.68.24-2.14-.12-.91-.71-2.15-1.78-2.14-2.68.01-.9,1.29-1.91,2.2-2.64.4-.32,1.26-.11,1.91-.11,22.33,0,44.66,0,67,0,.73,0,1.66-.22,2.14.14.88.66,2.12,1.72,2.06,2.53-.07.98-1.22,2.01-2.13,2.74-.46.37-1.41.13-2.14.13-11.13,0-22.25,0-33.38,0Z"/>
      <path class="cls-1" d="M140.22,136.35c-11.13,0-22.25,0-33.38,0-.81,0-1.83.24-2.38-.15-.88-.63-1.98-1.69-1.99-2.57,0-.9,1.05-2,1.91-2.65.53-.4,1.57-.17,2.38-.17,22.25,0,44.5,0,66.75,0,.65,0,1.51-.24,1.91.09.96.78,2.25,1.77,2.36,2.79.08.79-1.33,1.89-2.28,2.57-.49.35-1.42.11-2.15.11-11.04,0-22.09,0-33.13,0Z"/>
      <path class="cls-1" d="M126.59,50.28c-6.65,0-13.29,0-19.94,0-.8,0-1.85.18-2.36-.24-.84-.69-1.79-1.78-1.83-2.73-.04-.81,1-1.89,1.83-2.44.65-.43,1.72-.29,2.6-.29,13.13-.01,26.26,0,39.39,0,.16,0,.32,0,.49,0,2.81.03,4.27,1.02,4.27,2.88,0,1.87-1.44,2.84-4.27,2.84-6.73,0-13.45,0-20.18,0Z"/>
      <path class="cls-1" d="M126.6,195.71c-6.48,0-12.97,0-19.45,0-.57,0-1.14.03-1.7-.01-1.85-.13-3.16-.92-3.1-2.97.06-1.9,1.34-2.68,3.09-2.73,2.27-.05,4.54-.02,6.81-.02,11.35,0,22.69,0,34.04,0,.65,0,1.3-.04,1.94.03,1.67.18,2.77,1.12,2.78,2.82,0,1.71-1.11,2.71-2.77,2.82-1.94.13-3.89.06-5.83.06-5.27,0-10.54,0-15.8,0Z"/>
      <path class="cls-1" d="M126.59,98.69c-7.07,0-14.13,0-21.2,0-1.81,0-3.01-.83-3.05-2.73-.04-1.9,1.12-2.77,2.94-2.83.65-.02,1.3-.02,1.95-.02,8.04,0,16.08,0,24.12,0,5.03,0,10.07,0,15.1,0,3.18,0,4.55.83,4.59,2.74.04,1.94-1.37,2.85-4.48,2.85-6.66,0-13.32,0-19.98,0Z"/>
      <path class="cls-1" d="M126.81,141.57c6.98,0,13.97,0,20.95,0,1.93,0,3.22.89,3.23,2.84,0,1.83-1.26,2.71-3.06,2.76-.73.02-1.46.02-2.19.02-9.26,0-18.52,0-27.78,0-3.98,0-7.96.02-11.94-.01-2.53-.02-3.8-.99-3.69-2.84.14-2.38,1.78-2.78,3.77-2.78,6.9.03,13.81.01,20.71.01Z"/>
      <path class="cls-1" d="M74.13,182.18c1.81-1.92,3.58-3.81,5.36-5.7,1.29-1.36,2.81-1.85,4.27-.49,1.55,1.45,1.13,3.04-.29,4.45-2.41,2.41-4.82,4.82-7.22,7.24-1.53,1.54-3.07,1.67-4.65.09-1.03-1.03-2.07-2.06-3.09-3.1-1.34-1.36-1.66-2.86-.2-4.26,1.35-1.29,2.79-.99,4.1.23.47.44.96.86,1.71,1.53Z"/>
      <path class="cls-1" d="M74.01,36.67c1.97-2.02,3.73-3.82,5.48-5.62,1.3-1.34,2.8-1.86,4.27-.46,1.55,1.48,1.11,3.05-.31,4.46-2.41,2.41-4.82,4.83-7.22,7.24-1.53,1.54-3.09,1.62-4.66.06-1.04-1.03-2.07-2.06-3.09-3.1-1.25-1.27-1.61-2.72-.32-4.1,1.37-1.47,2.87-1.2,4.27.1.47.44.95.86,1.58,1.42Z"/>
      <path class="cls-1" d="M74.09,133.74c1.89-2.01,3.6-3.84,5.32-5.65,1.35-1.42,2.95-1.94,4.44-.44,1.51,1.52.91,3.08-.48,4.45-2.36,2.33-4.66,4.72-7.04,7.03-1.82,1.77-3.13,1.72-4.99-.07-.99-.95-1.95-1.94-2.91-2.92-1.25-1.29-1.54-2.73-.22-4.08,1.29-1.32,2.74-1.15,4.09.04.48.42.94.87,1.79,1.65Z"/>
      <path class="cls-1" d="M74.13,85.24c1.82-1.94,3.56-3.85,5.36-5.72,1.37-1.42,2.95-1.87,4.43-.29,1.38,1.48.85,2.97-.45,4.28-2.4,2.41-4.77,4.86-7.22,7.22-1.71,1.65-3.08,1.59-4.84-.08-1-.95-1.96-1.94-2.92-2.93-1.32-1.36-1.63-2.87-.18-4.27,1.35-1.3,2.79-.99,4.09.24.47.44.95.85,1.73,1.54Z"/>
    </g>
  </g>
</svg>