<svg width="106" height="120" viewBox="0 0 106 120" fill="none" xmlns="http://www.w3.org/2000/svg">
<path d="M77.9569 116.628L79.6473 116.572C80.3517 116.544 81.056 116.488 81.7322 116.404L83.4226 116.207L83.8452 119.55L82.1548 119.747C81.366 119.831 80.5489 119.916 79.76 119.944L78.0696 120L77.9569 116.628ZM72.0968 119.073C60.4892 115.982 52.3751 105.474 52.3751 93.4769C52.3751 86.4528 55.1361 79.8221 60.1792 74.7928C65.2224 69.7635 71.8714 67.0101 78.9148 67.0101C86.2118 67.0101 93.2271 70.0445 98.2421 75.3547L102.384 72.9665V86.3685L90.7478 79.6816L95.2275 77.0967C90.8887 72.826 84.9722 70.3816 78.9148 70.3816C66.1521 70.3816 55.756 80.7492 55.756 93.4769C55.756 103.929 62.8276 113.116 72.9702 115.814L73.2519 115.898L72.3785 119.157L72.0968 119.073ZM87.6205 114.971L89.1419 114.24C90.3816 113.622 91.5649 112.92 92.6636 112.105L94.016 111.093L96.0163 113.819L94.664 114.83C93.3962 115.757 92.0438 116.6 90.607 117.275L89.0856 118.005L87.6205 114.971ZM97.0869 107.919L98.0448 106.514C98.8337 105.39 99.5099 104.182 100.073 102.917L100.778 101.372L103.849 102.749L103.144 104.294C102.496 105.727 101.707 107.104 100.834 108.424L99.8761 109.829L97.0869 107.919ZM5.07128 100.894C2.28208 100.894 0 98.6186 0 95.837V5.05736C0 2.27581 2.28208 0 5.07128 0H75.8721C78.6613 0 80.9433 2.27581 80.9433 5.05736V61.7841L80.6334 61.756C79.9854 61.7279 79.422 61.6998 78.9148 61.6998C78.5486 61.6998 78.2105 61.6998 77.8442 61.7279H77.5625V5.05736C77.5625 4.13018 76.8018 3.37158 75.8721 3.37158H5.07128C4.14155 3.37158 3.38086 4.13018 3.38086 5.05736V95.837C3.38086 96.7642 4.14155 97.5228 5.07128 97.5228H47.332L47.3602 97.7757C47.4729 98.7029 47.6701 99.6582 47.8673 100.557L47.9518 100.894H5.07128ZM77.0554 100.332V79.7378C77.0554 78.8106 77.816 78.052 78.7458 78.052C79.6755 78.052 80.4362 78.8106 80.4362 79.7378V96.9609H88.5784C89.5082 96.9609 90.2689 97.7195 90.2689 98.6467C90.2689 99.5739 89.5082 100.332 88.5784 100.332H77.0554ZM101.848 97.1576L101.989 95.4718C102.046 94.7694 102.074 94.067 102.074 93.3926V91.7069H105.455V93.3926C105.455 94.1793 105.426 94.9941 105.342 95.7808L105.201 97.4666L101.848 97.1576ZM7.55058 75.9166L9.86083 73.5004L13.129 76.6191L18.8201 70.7188L21.243 73.0227L13.2417 81.3393L7.55058 75.9166ZM26.4834 79.4287C26.0889 79.4287 25.7509 79.0915 25.7509 78.6982V76.7876C25.7509 76.3943 26.0889 76.0571 26.4834 76.0571H44.74C45.1344 76.0571 45.4725 76.3943 45.4725 76.7876V78.6982C45.4725 79.0915 45.1344 79.4287 44.74 79.4287H26.4834ZM26.7369 72.4889C26.2016 72.4889 25.779 72.0674 25.779 71.5336V70.0726C25.779 69.5387 26.2016 69.1173 26.7369 69.1173H58.4888L57.9253 69.623C56.9393 70.494 55.9813 71.4212 55.108 72.4046L55.0234 72.4889H26.7369ZM7.55058 48.2978L9.86083 45.8815L13.129 49.0002L18.8201 43.1L21.243 45.4039L13.2417 53.7485L7.55058 48.2978ZM26.4834 51.838C26.0889 51.838 25.7509 51.5008 25.7509 51.1075V49.1969C25.7509 48.8036 26.0889 48.4664 26.4834 48.4664H44.74C45.1344 48.4664 45.4725 48.8036 45.4725 49.1969V51.1075C45.4725 51.5008 45.1344 51.838 44.74 51.838H26.4834ZM26.7369 44.8982C26.2016 44.8982 25.779 44.4767 25.779 43.9429V42.4819C25.779 41.948 26.2016 41.5266 26.7369 41.5266H70.1528C70.6881 41.5266 71.1107 41.948 71.1107 42.4819V43.9429C71.1107 44.4767 70.6881 44.8982 70.1528 44.8982H26.7369ZM7.55058 20.7071L9.86083 18.2908L13.129 21.4095L18.8201 15.5092L21.243 17.8132L13.2417 26.1297L7.55058 20.7071ZM26.4834 24.2192C26.0889 24.2192 25.7509 23.882 25.7509 23.4886V21.5781C25.7509 21.1847 26.0889 20.8476 26.4834 20.8476H44.74C45.1344 20.8476 45.4725 21.1847 45.4725 21.5781V23.4886C45.4725 23.882 45.1344 24.2192 44.74 24.2192H26.4834ZM26.7369 17.2793C26.2016 17.2793 25.779 16.8579 25.779 16.324V14.863C25.779 14.3292 26.2016 13.9078 26.7369 13.9078H70.1528C70.6881 13.9078 71.1107 14.3292 71.1107 14.863V16.324C71.1107 16.8579 70.6881 17.2793 70.1528 17.2793H26.7369Z" fill="black"/>
</svg>
