<svg width="85" height="120" viewBox="0 0 85 120" fill="none" xmlns="http://www.w3.org/2000/svg">
<path d="M76.2356 81.8935C74.5772 81.8935 73.0357 82.4352 71.7745 83.3302C70.9803 79.8445 67.8973 77.2538 64.207 77.2538C61.9414 77.2538 59.9094 78.243 58.4846 79.7974C57.9241 79.0202 57.2234 78.3372 56.4293 77.7955C61.8947 75.3933 66.7995 71.7663 70.7701 67.1502C77.1231 59.7786 80.6032 50.3344 80.6032 40.5369C80.6032 31.6579 77.8472 23.2971 72.5919 16.2316C73.4094 14.9363 73.8765 13.429 73.8765 11.7804C73.8765 7.21138 70.1862 3.51378 65.6784 3.51378C61.1473 3.51378 57.4803 7.23493 57.4803 11.7804C57.4803 16.3259 61.1706 20.047 65.6784 20.047C67.3134 20.047 68.8082 19.576 70.0928 18.7517C74.6707 25.1106 77.0997 32.6 77.0997 40.5369C77.0997 58.0357 64.6741 73.2736 47.9041 76.8535V63.0758C57.3869 59.8257 63.9033 50.7583 63.9033 40.5369C63.9033 27.4187 53.3228 16.7498 40.3133 16.7498C27.3037 16.7498 16.7232 27.4187 16.7232 40.5369C16.7232 45.7654 18.3816 50.7347 21.5113 54.9034C24.2674 58.5774 28.0745 61.3801 32.3487 62.9345V99.7456L27.6074 92.162C25.6921 89.0532 21.231 88.276 17.4706 90.3956C13.7103 92.5153 12.0052 96.731 13.6168 100.028L23.0996 119.034C23.4032 119.647 24.0338 120 24.6644 120C24.9214 120 25.2016 119.929 25.4586 119.812C26.3228 119.364 26.6731 118.304 26.2293 117.433L16.77 98.4503C15.9525 96.8959 17.0502 94.682 19.1523 93.5044C21.2544 92.3269 23.7068 92.5624 24.6177 94.0461L32.3487 106.411C32.5122 107.211 33.2129 107.824 34.0771 107.824C35.0347 107.824 35.8288 107.023 35.8288 106.057V52.0301C35.8288 49.6514 37.7441 47.7201 40.1031 47.7201C42.4621 47.7201 44.3773 49.6514 44.3773 52.0301V97.0843C44.3773 98.0499 45.1714 98.8507 46.1291 98.8507C47.0867 98.8507 47.8808 98.0499 47.8808 97.0843V84.3429C47.8808 81.9642 49.796 80.0329 52.155 80.0329C54.514 80.0329 56.4293 81.9642 56.4293 84.3429V97.8615C56.4293 98.8271 57.2234 99.6279 58.181 99.6279C59.1386 99.6279 59.9327 98.8271 59.9327 97.8615V85.0965C59.9327 82.7178 61.848 80.7866 64.207 80.7866C66.566 80.7866 68.4812 82.7178 68.4812 85.0965V97.9086C68.4812 98.8742 69.2753 99.675 70.2329 99.675C71.1906 99.675 71.9847 98.8742 71.9847 97.9086V89.7362C71.9847 87.3575 73.8999 85.4263 76.2589 85.4263C78.6179 85.4263 80.5331 87.3575 80.5331 89.7362V118.139C80.5331 119.105 81.3273 119.906 82.2849 119.906C83.2425 119.906 84.0366 119.105 84.0366 118.139V89.7362C84.0133 85.4027 80.5331 81.8935 76.2356 81.8935ZM60.9604 11.8039C60.9604 9.18972 63.0625 7.07007 65.6551 7.07007C68.2476 7.07007 70.3497 9.18972 70.3497 11.8039C70.3497 14.4182 68.2476 16.5378 65.6551 16.5378C63.0625 16.5378 60.9604 14.4182 60.9604 11.8039ZM20.2034 40.5369C20.2034 29.3734 29.219 20.2825 40.2899 20.2825C51.3609 20.2825 60.3765 29.3734 60.3765 40.5369C60.3765 48.8271 55.3315 56.2223 47.8808 59.3075V52.0301C47.8808 50.6405 47.5071 49.3452 46.8765 48.1912C49.072 46.2835 50.3332 43.5044 50.3332 40.5369C50.3332 34.9552 45.8254 30.4097 40.2899 30.4097C34.7544 30.4097 30.2466 34.9552 30.2466 40.5369C30.2466 43.3631 31.4378 46.048 33.4698 47.9557C32.7458 49.1332 32.3487 50.5228 32.3487 52.0065V59.1191C25.0849 55.9867 20.2034 48.6386 20.2034 40.5369ZM35.8989 45.4356C34.5442 44.1874 33.7501 42.421 33.7501 40.5369C33.7501 36.8864 36.693 33.9425 40.2899 33.9425C43.8868 33.9425 46.8297 36.91 46.8297 40.5369C46.8297 42.4917 45.9656 44.3287 44.5175 45.5769C43.2562 44.7055 41.738 44.1874 40.1031 44.1874C38.5616 44.1874 37.1135 44.6584 35.8989 45.4356ZM22.7025 69.317C22.7025 64.7479 19.0122 61.0503 14.5044 61.0503C13.0096 61.0503 11.6082 61.4507 10.3936 62.1808C5.88583 55.8219 3.50347 48.4031 3.50347 40.5369C3.50347 21.1068 18.545 4.85622 37.7441 3.53733C38.7017 3.46668 39.4491 2.61882 39.379 1.6532C39.309 0.687588 38.4681 -0.0660633 37.5105 0.00459149C27.3271 0.71114 17.8911 5.23305 10.8841 12.7696C3.87718 20.3061 0 30.1742 0 40.5369C0 49.2745 2.686 57.5412 7.77771 64.536C6.84345 65.8784 6.28289 67.527 6.28289 69.2934C6.28289 73.8624 9.97322 77.56 14.481 77.56C18.9888 77.56 22.7025 73.8624 22.7025 69.317ZM9.78637 69.317C9.78637 66.7027 11.8884 64.5831 14.481 64.5831C17.0736 64.5831 19.1757 66.7027 19.1757 69.317C19.1757 71.9312 17.0736 74.0508 14.481 74.0508C11.8884 74.0508 9.78637 71.9312 9.78637 69.317Z" fill="black"/>
<path d="M49 2.47383e-10C47.8919 2.47383e-10 47 0.891892 47 2C47 3.10811 47.8919 4 49 4C50.1081 4 51 3.10811 51 2C51 0.891892 50.1081 2.47383e-10 49 2.47383e-10Z" fill="black"/>
</svg>
