<svg width="48" height="48" viewBox="0 0 48 48" fill="none" xmlns="http://www.w3.org/2000/svg">
<path d="M41.9504 9.87623H40.6339V11.5237C40.6339 13.3509 39.152 14.8401 37.3175 14.8401C35.4902 14.8401 34.0011 13.3581 34.0011 11.5237V9.87623H14.0449V11.5237C14.0449 13.3509 12.5629 14.8401 10.7285 14.8401C8.9012 14.8401 7.41204 13.3581 7.41204 11.5237V9.87623H6.03079C4.01647 9.87623 2.39062 11.5021 2.39062 13.5164V40.0695C2.39062 42.0766 4.01647 43.7096 6.03079 43.7096H41.9504C43.9576 43.7096 45.5906 42.0838 45.5906 40.0695V13.5164C45.5834 11.5021 43.9576 9.87623 41.9504 9.87623ZM42.1878 40.3213H5.62793V18.8831H42.1878V40.3213ZM15.8866 24.3218H13.009V21.4442H15.8866V24.3218ZM20.6778 24.3218H17.8002V21.4442H20.6778V24.3218ZM25.1165 24.3218H22.2389V21.4442H25.1165V24.3218ZM29.7638 24.3218H26.8862V21.4442H29.7638V24.3218ZM34.4111 24.3218H31.5335V21.4442H34.4111V24.3218ZM39.4325 24.3218H36.5549V21.4442H39.4325V24.3218ZM11.2608 28.7605H8.38323V25.8829H11.2608V28.7605ZM15.8866 28.7605H13.009V25.8829H15.8866V28.7605ZM20.6778 28.7605H17.8002V25.8829H20.6778V28.7605ZM25.1165 28.7605H22.2389V25.8829H25.1165V28.7605ZM29.7638 28.7605H26.8862V25.8829H29.7638V28.7605ZM34.4111 28.7605H31.5335V25.8829H34.4111V28.7605ZM39.4325 28.7605H36.5549V25.8829H39.4325V28.7605ZM11.2608 33.1992H8.38323V30.3216H11.2608V33.1992ZM15.8866 33.1992H13.009V30.3216H15.8866V33.1992ZM20.6778 33.1992H17.8002V30.3216H20.6778V33.1992ZM25.1165 33.1992H22.2389V30.3216H25.1165V33.1992ZM29.7638 33.1992H26.8862V30.3216H29.7638V33.1992ZM34.4111 33.1992H31.5335V30.3216H34.4111V33.1992ZM39.4325 33.1992H36.5549V30.3216H39.4325V33.1992ZM11.2608 37.6451H8.38323V34.7675H11.2608V37.6451ZM15.8866 37.6451H13.009V34.7675H15.8866V37.6451ZM20.6778 37.6451H17.8002V34.7675H20.6778V37.6451ZM25.1165 37.6451H22.2389V34.7675H25.1165V37.6451ZM10.7285 13.1927C9.78606 13.1927 9.0163 12.4301 9.0163 11.4805V4.91237C9.0163 3.96276 9.77887 3.2002 10.7285 3.2002C11.6709 3.2002 12.4406 3.96276 12.4406 4.91237V11.4805C12.4335 12.4229 11.6709 13.1927 10.7285 13.1927ZM37.3175 13.1927C36.3751 13.1927 35.6053 12.4301 35.6053 11.4805V4.91237C35.6053 3.96995 36.3679 3.2002 37.3175 3.2002C38.2599 3.2002 39.0297 3.96276 39.0297 4.91237V11.4805C39.0297 12.4229 38.2599 13.1927 37.3175 13.1927Z" fill="#FFC700"/>
</svg>
