<svg width="144" height="54" viewBox="0 0 144 54" fill="none" xmlns="http://www.w3.org/2000/svg">
<g filter="url(#filter0_d_804_8434)">
<rect x="22.4297" y="2.5" width="118" height="37" rx="18.5" fill="#DCFFC7"/>
<rect x="22.4297" y="2.5" width="118" height="37" rx="18.5" stroke="#6F6F6F"/>
<path d="M48.2817 17.278V20.54H51.8377V21.59H48.2817V24.95H52.2577V26H47.0077V16.228H52.2577V17.278H48.2817ZM58.6894 26L56.8694 23.144L55.1194 26H53.7894L56.2674 22.192L53.7894 18.328H55.2314L57.0514 21.17L58.7874 18.328H60.1174L57.6534 22.122L60.1314 26H58.6894ZM63.1586 19.742C63.4106 19.3033 63.784 18.9393 64.2786 18.65C64.7826 18.3513 65.366 18.202 66.0286 18.202C66.71 18.202 67.326 18.3653 67.8766 18.692C68.4366 19.0187 68.8753 19.4807 69.1926 20.078C69.51 20.666 69.6686 21.352 69.6686 22.136C69.6686 22.9107 69.51 23.6013 69.1926 24.208C68.8753 24.8147 68.4366 25.286 67.8766 25.622C67.326 25.958 66.71 26.126 66.0286 26.126C65.3753 26.126 64.7966 25.9813 64.2926 25.692C63.798 25.3933 63.42 25.0247 63.1586 24.586V29.64H61.8846V18.328H63.1586V19.742ZM68.3666 22.136C68.3666 21.5573 68.25 21.0533 68.0166 20.624C67.7833 20.1947 67.466 19.868 67.0646 19.644C66.6726 19.42 66.2386 19.308 65.7626 19.308C65.296 19.308 64.862 19.4247 64.4606 19.658C64.0686 19.882 63.7513 20.2133 63.5086 20.652C63.2753 21.0813 63.1586 21.5807 63.1586 22.15C63.1586 22.7287 63.2753 23.2373 63.5086 23.676C63.7513 24.1053 64.0686 24.4367 64.4606 24.67C64.862 24.894 65.296 25.006 65.7626 25.006C66.2386 25.006 66.6726 24.894 67.0646 24.67C67.466 24.4367 67.7833 24.1053 68.0166 23.676C68.25 23.2373 68.3666 22.724 68.3666 22.136ZM73.1196 19.574C73.3436 19.1353 73.6609 18.7947 74.0716 18.552C74.4916 18.3093 75.0002 18.188 75.5976 18.188V19.504H75.2616C73.8336 19.504 73.1196 20.2787 73.1196 21.828V26H71.8456V18.328H73.1196V19.574ZM84.5682 21.87C84.5682 22.1127 84.5542 22.3693 84.5262 22.64H78.3942C78.4409 23.396 78.6976 23.9887 79.1642 24.418C79.6402 24.838 80.2142 25.048 80.8862 25.048C81.4369 25.048 81.8942 24.922 82.2582 24.67C82.6316 24.4087 82.8929 24.0633 83.0422 23.634H84.4142C84.2089 24.3713 83.7982 24.9733 83.1822 25.44C82.5662 25.8973 81.8009 26.126 80.8862 26.126C80.1582 26.126 79.5049 25.9627 78.9262 25.636C78.3569 25.3093 77.9089 24.8473 77.5822 24.25C77.2556 23.6433 77.0922 22.9433 77.0922 22.15C77.0922 21.3567 77.2509 20.6613 77.5682 20.064C77.8856 19.4667 78.3289 19.0093 78.8982 18.692C79.4769 18.3653 80.1396 18.202 80.8862 18.202C81.6142 18.202 82.2582 18.3607 82.8182 18.678C83.3782 18.9953 83.8076 19.434 84.1062 19.994C84.4142 20.5447 84.5682 21.17 84.5682 21.87ZM83.2522 21.604C83.2522 21.1187 83.1449 20.7033 82.9302 20.358C82.7156 20.0033 82.4216 19.7373 82.0482 19.56C81.6842 19.3733 81.2782 19.28 80.8302 19.28C80.1862 19.28 79.6356 19.4853 79.1782 19.896C78.7302 20.3067 78.4736 20.876 78.4082 21.604H83.2522ZM89.4659 26.126C88.8779 26.126 88.3505 26.028 87.8839 25.832C87.4172 25.6267 87.0485 25.3467 86.7779 24.992C86.5072 24.628 86.3579 24.2127 86.3299 23.746H87.6459C87.6832 24.1287 87.8605 24.4413 88.1779 24.684C88.5045 24.9267 88.9292 25.048 89.4519 25.048C89.9372 25.048 90.3199 24.9407 90.5999 24.726C90.8799 24.5113 91.0199 24.2407 91.0199 23.914C91.0199 23.578 90.8705 23.3307 90.5719 23.172C90.2732 23.004 89.8112 22.8407 89.1859 22.682C88.6165 22.5327 88.1499 22.3833 87.7859 22.234C87.4312 22.0753 87.1232 21.8467 86.8619 21.548C86.6099 21.24 86.4839 20.8387 86.4839 20.344C86.4839 19.952 86.6005 19.5927 86.8339 19.266C87.0672 18.9393 87.3985 18.6827 87.8279 18.496C88.2572 18.3 88.7472 18.202 89.2979 18.202C90.1472 18.202 90.8332 18.4167 91.3559 18.846C91.8785 19.2753 92.1585 19.8633 92.1959 20.61H90.9219C90.8939 20.2087 90.7305 19.8867 90.4319 19.644C90.1425 19.4013 89.7505 19.28 89.2559 19.28C88.7985 19.28 88.4345 19.378 88.1639 19.574C87.8932 19.77 87.7579 20.0267 87.7579 20.344C87.7579 20.596 87.8372 20.806 87.9959 20.974C88.1639 21.1327 88.3692 21.2633 88.6119 21.366C88.8639 21.4593 89.2092 21.5667 89.6479 21.688C90.1985 21.8373 90.6465 21.9867 90.9919 22.136C91.3372 22.276 91.6312 22.4907 91.8739 22.78C92.1259 23.0693 92.2565 23.4473 92.2659 23.914C92.2659 24.334 92.1492 24.712 91.9159 25.048C91.6825 25.384 91.3512 25.65 90.9219 25.846C90.5019 26.0327 90.0165 26.126 89.4659 26.126ZM97.2803 26.126C96.6923 26.126 96.165 26.028 95.6983 25.832C95.2317 25.6267 94.863 25.3467 94.5923 24.992C94.3217 24.628 94.1723 24.2127 94.1443 23.746H95.4603C95.4977 24.1287 95.675 24.4413 95.9923 24.684C96.319 24.9267 96.7437 25.048 97.2663 25.048C97.7517 25.048 98.1343 24.9407 98.4143 24.726C98.6943 24.5113 98.8343 24.2407 98.8343 23.914C98.8343 23.578 98.685 23.3307 98.3863 23.172C98.0877 23.004 97.6257 22.8407 97.0003 22.682C96.431 22.5327 95.9643 22.3833 95.6003 22.234C95.2457 22.0753 94.9377 21.8467 94.6763 21.548C94.4243 21.24 94.2983 20.8387 94.2983 20.344C94.2983 19.952 94.415 19.5927 94.6483 19.266C94.8817 18.9393 95.213 18.6827 95.6423 18.496C96.0717 18.3 96.5617 18.202 97.1123 18.202C97.9617 18.202 98.6477 18.4167 99.1703 18.846C99.693 19.2753 99.973 19.8633 100.01 20.61H98.7363C98.7083 20.2087 98.545 19.8867 98.2463 19.644C97.957 19.4013 97.565 19.28 97.0703 19.28C96.613 19.28 96.249 19.378 95.9783 19.574C95.7077 19.77 95.5723 20.0267 95.5723 20.344C95.5723 20.596 95.6517 20.806 95.8103 20.974C95.9783 21.1327 96.1837 21.2633 96.4263 21.366C96.6783 21.4593 97.0237 21.5667 97.4623 21.688C98.013 21.8373 98.461 21.9867 98.8063 22.136C99.1517 22.276 99.4457 22.4907 99.6883 22.78C99.9403 23.0693 100.071 23.4473 100.08 23.914C100.08 24.334 99.9637 24.712 99.7303 25.048C99.497 25.384 99.1657 25.65 98.7363 25.846C98.3163 26.0327 97.831 26.126 97.2803 26.126ZM107.293 16.242V23.452C107.293 24.2547 107.045 24.8987 106.551 25.384C106.056 25.86 105.403 26.098 104.591 26.098C103.769 26.098 103.111 25.8553 102.617 25.37C102.122 24.8753 101.875 24.2033 101.875 23.354H103.149C103.158 23.83 103.279 24.2173 103.513 24.516C103.755 24.8147 104.115 24.964 104.591 24.964C105.067 24.964 105.421 24.824 105.655 24.544C105.888 24.2547 106.005 23.8907 106.005 23.452V16.242H107.293ZM113.019 26.126C112.431 26.126 111.903 26.028 111.437 25.832C110.97 25.6267 110.601 25.3467 110.331 24.992C110.06 24.628 109.911 24.2127 109.883 23.746H111.199C111.236 24.1287 111.413 24.4413 111.731 24.684C112.057 24.9267 112.482 25.048 113.005 25.048C113.49 25.048 113.873 24.9407 114.153 24.726C114.433 24.5113 114.573 24.2407 114.573 23.914C114.573 23.578 114.423 23.3307 114.125 23.172C113.826 23.004 113.364 22.8407 112.739 22.682C112.169 22.5327 111.703 22.3833 111.339 22.234C110.984 22.0753 110.676 21.8467 110.415 21.548C110.163 21.24 110.037 20.8387 110.037 20.344C110.037 19.952 110.153 19.5927 110.387 19.266C110.62 18.9393 110.951 18.6827 111.381 18.496C111.81 18.3 112.3 18.202 112.851 18.202C113.7 18.202 114.386 18.4167 114.909 18.846C115.431 19.2753 115.711 19.8633 115.749 20.61H114.475C114.447 20.2087 114.283 19.8867 113.985 19.644C113.695 19.4013 113.303 19.28 112.809 19.28C112.351 19.28 111.987 19.378 111.717 19.574C111.446 19.77 111.311 20.0267 111.311 20.344C111.311 20.596 111.39 20.806 111.549 20.974C111.717 21.1327 111.922 21.2633 112.165 21.366C112.417 21.4593 112.762 21.5667 113.201 21.688C113.751 21.8373 114.199 21.9867 114.545 22.136C114.89 22.276 115.184 22.4907 115.427 22.78C115.679 23.0693 115.809 23.4473 115.819 23.914C115.819 24.334 115.702 24.712 115.469 25.048C115.235 25.384 114.904 25.65 114.475 25.846C114.055 26.0327 113.569 26.126 113.019 26.126Z" fill="black"/>
<path d="M14.7234 45.7884L12.8574 39.8801L6.9614 38.0102L17.838 34.8891L14.7234 45.7884Z" fill="#A3FF2E" stroke="black" stroke-width="0.8" stroke-miterlimit="10"/>
</g>
<defs>
<filter id="filter0_d_804_8434" x="0.578125" y="0" width="143.352" height="53.1759" filterUnits="userSpaceOnUse" color-interpolation-filters="sRGB">
<feFlood flood-opacity="0" result="BackgroundImageFix"/>
<feColorMatrix in="SourceAlpha" type="matrix" values="0 0 0 0 0 0 0 0 0 0 0 0 0 0 0 0 0 0 127 0" result="hardAlpha"/>
<feOffset dx="-1" dy="2"/>
<feGaussianBlur stdDeviation="2"/>
<feComposite in2="hardAlpha" operator="out"/>
<feColorMatrix type="matrix" values="0 0 0 0 0 0 0 0 0 0 0 0 0 0 0 0 0 0 0.3 0"/>
<feBlend mode="normal" in2="BackgroundImageFix" result="effect1_dropShadow_804_8434"/>
<feBlend mode="normal" in="SourceGraphic" in2="effect1_dropShadow_804_8434" result="shape"/>
</filter>
</defs>
</svg>
