<svg width="141" height="62" viewBox="0 0 141 62" fill="none" xmlns="http://www.w3.org/2000/svg">
<g filter="url(#filter0_d_804_8438)">
<rect x="26.6914" y="2.5" width="101" height="37" rx="18.5" fill="#FFF7B1"/>
<rect x="26.6914" y="2.5" width="101" height="37" rx="18.5" stroke="#6F6F6F"/>
<path d="M58.9414 26H57.6674L52.5434 18.23V26H51.2694V16.228H52.5434L57.6674 23.984V16.228H58.9414V26ZM64.9592 26.126C64.2405 26.126 63.5872 25.9627 62.9992 25.636C62.4205 25.3093 61.9632 24.8473 61.6272 24.25C61.3005 23.6433 61.1372 22.9433 61.1372 22.15C61.1372 21.366 61.3052 20.6753 61.6412 20.078C61.9865 19.4713 62.4532 19.0093 63.0412 18.692C63.6292 18.3653 64.2872 18.202 65.0152 18.202C65.7432 18.202 66.4012 18.3653 66.9892 18.692C67.5772 19.0093 68.0392 19.4667 68.3752 20.064C68.7205 20.6613 68.8932 21.3567 68.8932 22.15C68.8932 22.9433 68.7158 23.6433 68.3612 24.25C68.0158 24.8473 67.5445 25.3093 66.9472 25.636C66.3498 25.9627 65.6872 26.126 64.9592 26.126ZM64.9592 25.006C65.4165 25.006 65.8458 24.8987 66.2472 24.684C66.6485 24.4693 66.9705 24.1473 67.2132 23.718C67.4652 23.2887 67.5912 22.766 67.5912 22.15C67.5912 21.534 67.4698 21.0113 67.2272 20.582C66.9845 20.1527 66.6672 19.8353 66.2752 19.63C65.8832 19.4153 65.4585 19.308 65.0012 19.308C64.5345 19.308 64.1052 19.4153 63.7132 19.63C63.3305 19.8353 63.0225 20.1527 62.7892 20.582C62.5558 21.0113 62.4392 21.534 62.4392 22.15C62.4392 22.7753 62.5512 23.3027 62.7752 23.732C63.0085 24.1613 63.3165 24.4833 63.6992 24.698C64.0818 24.9033 64.5018 25.006 64.9592 25.006ZM70.5922 22.136C70.5922 21.352 70.7509 20.666 71.0682 20.078C71.3856 19.4807 71.8196 19.0187 72.3702 18.692C72.9302 18.3653 73.5556 18.202 74.2462 18.202C74.8436 18.202 75.3989 18.342 75.9122 18.622C76.4256 18.8927 76.8176 19.252 77.0882 19.7V15.64H78.3762V26H77.0882V24.558C76.8362 25.0153 76.4629 25.3933 75.9682 25.692C75.4736 25.9813 74.8949 26.126 74.2322 26.126C73.5509 26.126 72.9302 25.958 72.3702 25.622C71.8196 25.286 71.3856 24.8147 71.0682 24.208C70.7509 23.6013 70.5922 22.9107 70.5922 22.136ZM77.0882 22.15C77.0882 21.5713 76.9716 21.0673 76.7382 20.638C76.5049 20.2087 76.1876 19.882 75.7862 19.658C75.3942 19.4247 74.9602 19.308 74.4842 19.308C74.0082 19.308 73.5742 19.42 73.1822 19.644C72.7902 19.868 72.4776 20.1947 72.2442 20.624C72.0109 21.0533 71.8942 21.5573 71.8942 22.136C71.8942 22.724 72.0109 23.2373 72.2442 23.676C72.4776 24.1053 72.7902 24.4367 73.1822 24.67C73.5742 24.894 74.0082 25.006 74.4842 25.006C74.9602 25.006 75.3942 24.894 75.7862 24.67C76.1876 24.4367 76.5049 24.1053 76.7382 23.676C76.9716 23.2373 77.0882 22.7287 77.0882 22.15ZM88.0292 21.87C88.0292 22.1127 88.0152 22.3693 87.9872 22.64H81.8552C81.9018 23.396 82.1585 23.9887 82.6252 24.418C83.1012 24.838 83.6752 25.048 84.3472 25.048C84.8978 25.048 85.3552 24.922 85.7192 24.67C86.0925 24.4087 86.3538 24.0633 86.5032 23.634H87.8752C87.6698 24.3713 87.2592 24.9733 86.6432 25.44C86.0272 25.8973 85.2618 26.126 84.3472 26.126C83.6192 26.126 82.9658 25.9627 82.3872 25.636C81.8178 25.3093 81.3698 24.8473 81.0432 24.25C80.7165 23.6433 80.5532 22.9433 80.5532 22.15C80.5532 21.3567 80.7118 20.6613 81.0292 20.064C81.3465 19.4667 81.7898 19.0093 82.3592 18.692C82.9378 18.3653 83.6005 18.202 84.3472 18.202C85.0752 18.202 85.7192 18.3607 86.2792 18.678C86.8392 18.9953 87.2685 19.434 87.5672 19.994C87.8752 20.5447 88.0292 21.17 88.0292 21.87ZM86.7132 21.604C86.7132 21.1187 86.6058 20.7033 86.3912 20.358C86.1765 20.0033 85.8825 19.7373 85.5092 19.56C85.1452 19.3733 84.7392 19.28 84.2912 19.28C83.6472 19.28 83.0965 19.4853 82.6392 19.896C82.1912 20.3067 81.9345 20.876 81.8692 21.604H86.7132ZM90.6168 26.084C90.3741 26.084 90.1688 26 90.0008 25.832C89.8328 25.664 89.7488 25.4587 89.7488 25.216C89.7488 24.9733 89.8328 24.768 90.0008 24.6C90.1688 24.432 90.3741 24.348 90.6168 24.348C90.8501 24.348 91.0461 24.432 91.2048 24.6C91.3728 24.768 91.4568 24.9733 91.4568 25.216C91.4568 25.4587 91.3728 25.664 91.2048 25.832C91.0461 26 90.8501 26.084 90.6168 26.084ZM94.3363 17.082C94.0936 17.082 93.8883 16.998 93.7203 16.83C93.5616 16.662 93.4823 16.4567 93.4823 16.214C93.4823 15.9713 93.5616 15.766 93.7203 15.598C93.8883 15.43 94.0936 15.346 94.3363 15.346C94.5789 15.346 94.7796 15.43 94.9383 15.598C95.1063 15.766 95.1903 15.9713 95.1903 16.214C95.1903 16.4567 95.1063 16.662 94.9383 16.83C94.7796 16.998 94.5789 17.082 94.3363 17.082ZM94.9663 27.666C94.9663 28.3473 94.7936 28.8467 94.4483 29.164C94.1029 29.4813 93.5989 29.64 92.9363 29.64H92.1943V28.562H92.7263C93.0809 28.562 93.3283 28.492 93.4683 28.352C93.6176 28.212 93.6923 27.974 93.6923 27.638V18.328H94.9663V27.666ZM100.339 26.126C99.7509 26.126 99.2236 26.028 98.7569 25.832C98.2903 25.6267 97.9216 25.3467 97.6509 24.992C97.3803 24.628 97.2309 24.2127 97.2029 23.746H98.5189C98.5563 24.1287 98.7336 24.4413 99.0509 24.684C99.3776 24.9267 99.8023 25.048 100.325 25.048C100.81 25.048 101.193 24.9407 101.473 24.726C101.753 24.5113 101.893 24.2407 101.893 23.914C101.893 23.578 101.744 23.3307 101.445 23.172C101.146 23.004 100.684 22.8407 100.059 22.682C99.4896 22.5327 99.0229 22.3833 98.6589 22.234C98.3043 22.0753 97.9963 21.8467 97.7349 21.548C97.4829 21.24 97.3569 20.8387 97.3569 20.344C97.3569 19.952 97.4736 19.5927 97.7069 19.266C97.9403 18.9393 98.2716 18.6827 98.7009 18.496C99.1303 18.3 99.6203 18.202 100.171 18.202C101.02 18.202 101.706 18.4167 102.229 18.846C102.752 19.2753 103.032 19.8633 103.069 20.61H101.795C101.767 20.2087 101.604 19.8867 101.305 19.644C101.016 19.4013 100.624 19.28 100.129 19.28C99.6716 19.28 99.3076 19.378 99.0369 19.574C98.7663 19.77 98.6309 20.0267 98.6309 20.344C98.6309 20.596 98.7103 20.806 98.8689 20.974C99.0369 21.1327 99.2423 21.2633 99.4849 21.366C99.7369 21.4593 100.082 21.5667 100.521 21.688C101.072 21.8373 101.52 21.9867 101.865 22.136C102.21 22.276 102.504 22.4907 102.747 22.78C102.999 23.0693 103.13 23.4473 103.139 23.914C103.139 24.334 103.022 24.712 102.789 25.048C102.556 25.384 102.224 25.65 101.795 25.846C101.375 26.0327 100.89 26.126 100.339 26.126Z" fill="black"/>
<path d="M136.64 48.1759L130.502 48.9317L127.588 54.3974L126.519 43.1107L136.64 48.1759Z" fill="#A3FF2E" stroke="black" stroke-width="0.8" stroke-miterlimit="10"/>
<path d="M17.9663 17.888L16.9823 22.496H20.5583V23.456H16.7663L15.5903 29H14.5343L15.7103 23.456H10.0463L8.87028 29H7.81428L8.99028 23.456H5.15028V22.496H9.20628L10.1903 17.888H6.39828V16.928H10.3823L11.6063 11.24H12.6623L11.4383 16.928H17.1023L18.3263 11.24H19.3823L18.1583 16.928H21.8063V17.888H17.9663ZM16.9103 17.888H11.2463L10.2623 22.496H15.9263L16.9103 17.888Z" fill="black" fill-opacity="0.6"/>
</g>
<defs>
<filter id="filter0_d_804_8438" x="0.148438" y="0" width="140.855" height="61.7579" filterUnits="userSpaceOnUse" color-interpolation-filters="sRGB">
<feFlood flood-opacity="0" result="BackgroundImageFix"/>
<feColorMatrix in="SourceAlpha" type="matrix" values="0 0 0 0 0 0 0 0 0 0 0 0 0 0 0 0 0 0 127 0" result="hardAlpha"/>
<feOffset dx="-1" dy="2"/>
<feGaussianBlur stdDeviation="2"/>
<feComposite in2="hardAlpha" operator="out"/>
<feColorMatrix type="matrix" values="0 0 0 0 0 0 0 0 0 0 0 0 0 0 0 0 0 0 0.3 0"/>
<feBlend mode="normal" in2="BackgroundImageFix" result="effect1_dropShadow_804_8438"/>
<feBlend mode="normal" in="SourceGraphic" in2="effect1_dropShadow_804_8438" result="shape"/>
</filter>
</defs>
</svg>
