<svg width="41" height="41" viewBox="0 0 41 41" fill="none" xmlns="http://www.w3.org/2000/svg">
<path d="M20.328 0C9.0992 0 0 9.0992 0 20.328C0 31.5568 9.0992 40.656 20.328 40.656C31.5568 40.656 40.656 31.5568 40.656 20.328C40.656 9.0992 31.5568 0 20.328 0ZM7.32313 7.32313C9.01082 5.63544 10.9805 4.3055 13.169 3.37958C13.7414 3.13548 14.3222 2.92504 14.9114 2.74407C13.6193 4.14556 12.4956 6.03106 11.6076 8.26588H6.4393C6.72129 7.94602 7.0159 7.63036 7.32313 7.32313ZM3.37958 13.169C3.8257 12.1126 4.36863 11.1067 4.99572 10.1598H10.9426C10.0967 12.8912 9.57899 16.0309 9.49482 19.3768H1.96125C2.06647 17.2304 2.54626 15.1471 3.37958 13.169ZM4.67586 29.9954C4.18344 29.1957 3.74995 28.3624 3.37958 27.487C2.54205 25.5089 2.06647 23.4256 1.95704 21.275H9.49482C9.57057 24.4188 10.0293 27.3818 10.7827 29.9954H4.67586ZM13.169 37.2764C10.9805 36.3505 9.01082 35.0248 7.32313 33.3329C6.86017 32.8699 6.42668 32.3901 6.02264 31.8893H11.4056C12.3104 34.3387 13.4931 36.3926 14.8693 37.8993C14.2969 37.7183 13.7288 37.5121 13.169 37.2764ZM19.381 38.6484C18.674 38.4801 17.9711 38.1224 17.2851 37.5752C16.2161 36.7251 15.1934 35.4246 14.3348 33.8169C14.0107 33.2108 13.7119 32.5669 13.4384 31.8893H19.381V38.6484ZM19.381 29.9954H12.765C12.5503 29.3009 12.3567 28.5812 12.1884 27.8363C11.717 25.753 11.4519 23.5519 11.3929 21.2792H19.381V29.9954ZM19.381 19.381H11.3929C11.4519 17.121 11.717 14.9282 12.1842 12.8534C12.3946 11.9106 12.6471 11.0142 12.9333 10.1598H19.381V19.381ZM19.381 8.27009H13.6614C13.8719 7.78609 14.0949 7.31892 14.3348 6.87701C15.1934 5.26087 16.2119 3.96038 17.2851 3.11443C17.9711 2.57151 18.674 2.20957 19.381 2.04122V8.27009ZM27.487 3.37958C29.6755 4.3055 31.6452 5.63123 33.3329 7.32313C33.6401 7.63036 33.9347 7.94602 34.2167 8.27009H29.0442C28.1604 6.03106 27.0367 4.14557 25.7404 2.74828C26.3338 2.92504 26.9146 3.13969 27.487 3.37958ZM21.275 2.04122C21.982 2.20957 22.6849 2.5673 23.3709 3.11443C24.4399 3.96459 25.4626 5.26508 26.3212 6.8728C26.5569 7.31892 26.7841 7.78188 26.9946 8.26588H21.275V2.04122ZM21.275 10.164H27.7227C28.0089 11.0184 28.2572 11.9148 28.4718 12.8576C28.939 14.9325 29.2041 17.121 29.2631 19.3853H21.275V10.164ZM21.275 21.275H29.2631C29.2041 23.5477 28.939 25.7488 28.4676 27.8321C28.2993 28.5812 28.1057 29.3009 27.891 29.9912H21.275V21.275ZM23.3709 37.5752C22.6849 38.1182 21.982 38.4801 21.275 38.6484V31.8893H27.2176C26.9441 32.5669 26.6453 33.2108 26.3212 33.8169C25.4626 35.4288 24.4441 36.7251 23.3709 37.5752ZM33.3329 33.3329C31.6452 35.0206 29.6755 36.3505 27.487 37.2764C26.9272 37.5121 26.3591 37.7183 25.7867 37.8993C27.1629 36.3926 28.3456 34.3345 29.2504 31.8893H34.6334C34.2293 32.3901 33.7958 32.8699 33.3329 33.3329ZM37.2764 27.487C36.9061 28.3582 36.4726 29.1957 35.9801 29.9954H29.8691C30.6225 27.3818 31.0812 24.4231 31.157 21.275H38.6947C38.5895 23.4256 38.1097 25.5089 37.2764 27.487ZM37.2764 13.169C38.1139 15.1471 38.5895 17.2304 38.699 19.381H31.157C31.0728 16.0309 30.5593 12.8954 29.7092 10.164H35.6561C36.2874 11.111 36.8303 12.1126 37.2764 13.169Z" fill="#FFC700"/>
</svg>
