<svg width="27" height="33" viewBox="0 0 27 33" fill="none" xmlns="http://www.w3.org/2000/svg">
<path d="M23.7484 32.72H2.63871C1.18372 32.72 0 31.5363 0 30.0813V2.63872C0 1.18373 1.18372 9.72145e-06 2.63871 9.72145e-06H13.3748C13.7214 -0.000934341 14.0648 0.06689 14.385 0.199556C14.7053 0.332221 14.996 0.527093 15.2404 0.772888L25.6142 11.1467C25.86 11.3911 26.0549 11.6818 26.1875 12.0021C26.3202 12.3223 26.388 12.6657 26.3871 13.0123V30.0813C26.3871 31.5363 25.2034 32.72 23.7484 32.72ZM2.63871 1.05549C1.76556 1.05549 1.05548 1.76557 1.05548 2.63872V30.0813C1.05548 30.9544 1.76556 31.6645 2.63871 31.6645H23.7484C24.6215 31.6645 25.3316 30.9544 25.3316 30.0813V13.0123C25.3303 12.5927 25.1637 12.1905 24.868 11.8929L14.4942 1.51911C14.3475 1.37167 14.1731 1.25477 13.9809 1.17519C13.7888 1.09561 13.5828 1.05492 13.3748 1.05549H2.63871Z" fill="white"/>
<path d="M21.425 20.6664C21.4065 20.5318 21.2984 20.363 21.1823 20.2495C20.8498 19.9223 20.1189 19.7508 19.0053 19.735C18.2507 19.727 17.3429 19.793 16.3877 19.9276C15.9603 19.6822 15.5196 19.413 15.1739 19.0885C14.2425 18.2203 13.4667 17.0144 12.9811 15.6872C13.0128 15.5632 13.0392 15.455 13.0656 15.3441C13.0656 15.3441 13.5881 12.3677 13.4508 11.3597C13.4324 11.2225 13.4192 11.1829 13.3822 11.0747L13.3374 10.9586C13.1949 10.6288 12.9152 10.2805 12.4772 10.2989L12.2186 10.291H12.2133C11.7225 10.291 11.3267 10.5417 11.2211 10.9138C10.9045 12.0853 11.2317 13.8401 11.8254 16.1094L11.6723 16.4788C11.2475 17.5184 10.7145 18.5634 10.2448 19.4843L10.1841 19.603C9.68804 20.5714 9.23946 21.3947 8.83046 22.0913L8.4109 22.313C8.37924 22.3288 7.65887 22.7114 7.49 22.8117C6.05718 23.6693 5.10724 24.6403 4.94892 25.4108C4.89878 25.6589 4.93572 25.9729 5.19168 26.118L5.59804 26.3238C5.77483 26.4109 5.96218 26.4557 6.15217 26.4557C7.17335 26.4557 8.35813 25.1839 9.99149 22.3341C11.8755 21.7219 14.0234 21.21 15.9048 20.9303C17.3377 21.7351 19.1003 22.2971 20.2139 22.2971C20.4118 22.2971 20.5833 22.2787 20.7205 22.2417C20.9342 22.1837 21.1136 22.0623 21.2245 21.8987C21.4408 21.5741 21.4831 21.1256 21.425 20.6664ZM5.93052 25.6826C6.11523 25.1733 6.85407 24.1653 7.94385 23.2735C8.01246 23.2181 8.18134 23.0597 8.33438 22.912C7.19446 24.73 6.43187 25.453 5.93052 25.6826ZM12.3848 10.8188C12.712 10.8188 12.8993 11.6447 12.9152 12.4205C12.931 13.1962 12.7489 13.7398 12.5247 14.1435C12.3373 13.5472 12.2476 12.6078 12.2476 11.993C12.2476 11.993 12.2344 10.8188 12.3848 10.8188ZM10.4585 21.4105C10.6881 21.0015 10.9256 20.5688 11.1684 20.1123C11.7621 18.9908 12.1368 18.1148 12.4138 17.3944C12.968 18.4024 13.6593 19.26 14.4694 19.9461C14.5723 20.0305 14.6805 20.1176 14.7913 20.2046C13.1421 20.5292 11.7146 20.9277 10.4585 21.4105ZM20.863 21.3182C20.7627 21.3789 20.4751 21.4158 20.2904 21.4158C19.694 21.4158 18.9525 21.144 17.9155 20.6981C18.314 20.6691 18.6808 20.6532 19.008 20.6532C19.6069 20.6532 19.7837 20.6506 20.3722 20.801C20.958 20.9514 20.9659 21.2549 20.863 21.3182Z" fill="white"/>
</svg>
