<svg width="34" height="40" viewBox="0 0 34 40" fill="none" xmlns="http://www.w3.org/2000/svg">
<path d="M31.6846 36.3636H29.8208V31.5909C29.8208 28.9545 27.1183 26.7273 24.509 24.5455C23.6237 23.8182 22.3656 22.7273 21.8996 22.1818V17.7727C22.3656 17.2727 23.6237 16.1364 24.509 15.4091C27.1183 13.2727 29.8208 11.0455 29.8208 8.40909V3.63636H31.6846C32.7097 3.63636 33.5484 2.81818 33.5484 1.81818C33.5484 0.818182 32.7097 0 31.6846 0H1.8638C0.83871 0 0 0.818182 0 1.81818C0 2.81818 0.83871 3.63636 1.8638 3.63636H3.7276V8.40909C3.7276 11.0455 6.43011 13.2727 9.03943 15.4545C9.92473 16.1818 11.1828 17.3182 11.6487 17.8182V22.2273C11.1828 22.7273 9.92473 23.8636 9.03943 24.5909C6.43011 26.7273 3.7276 28.9545 3.7276 31.5909V36.3636H1.8638C0.83871 36.3636 0 37.1818 0 38.1818C0 39.1818 0.83871 40 1.8638 40H31.6846C32.7097 40 33.5484 39.1818 33.5484 38.1818C33.5484 37.1818 32.7097 36.3636 31.6846 36.3636ZM7.4552 31.5909C7.4552 30.6364 10.0645 28.4545 11.4624 27.3182C13.6989 25.4545 15.3763 24.0909 15.3763 22.4091V17.5909C15.3763 15.8636 13.6989 14.5 11.4624 12.6364C10.0645 11.5 7.4552 9.36364 7.4552 8.36364V3.63636H26.0932V8.40909C26.0932 9.36364 23.4839 11.5455 22.086 12.6818C19.8495 14.5455 18.172 15.9091 18.172 17.5909V22.3636C18.172 24.0909 19.8495 25.4545 22.086 27.3182C23.4839 28.4545 26.0932 30.5909 26.0932 31.5909V36.3636H7.4552V31.5909ZM20.9677 7.72727V6.81818C20.9677 5.95455 21.7133 5.22727 22.5986 5.22727C23.4839 5.22727 24.2294 5.90909 24.2294 6.81818V7.72727C24.2294 8.59091 23.4839 9.31818 22.5986 9.31818C21.7133 9.31818 20.9677 8.59091 20.9677 7.72727Z" fill="#FFC700"/>
<path d="M13.58 29.6542C12.68 30.263 11 31.4318 11 31.9432V34.5H23V31.9432C23 31.4075 21.32 30.263 20.42 29.6542C18.98 28.6558 16.9 26.9253 16.9 26C16.9 26.901 15.02 28.6558 13.58 29.6542Z" fill="#FFC700"/>
</svg>
