<svg width="40" height="40" viewBox="0 0 40 40" fill="none" xmlns="http://www.w3.org/2000/svg">
<path fill-rule="evenodd" clip-rule="evenodd" d="M18 35.8762V34.5C18 33.6716 18.6716 33 19.5 33C20.3284 33 21 33.6716 21 34.5V35.9693C29.04 35.4735 35.4735 29.04 35.9693 21H34.5C33.6716 21 33 20.3284 33 19.5C33 18.6716 33.6716 18 34.5 18H35.8762C34.9325 10.4323 28.7038 4.50581 21 4.03074V5.5C21 6.32843 20.3284 7 19.5 7C18.6716 7 18 6.32843 18 5.5V4.12379C10.7626 5.02628 5.02628 10.7626 4.12379 18H5.5C6.32843 18 7 18.6716 7 19.5C7 20.3284 6.32843 21 5.5 21H4.03074C4.50581 28.7038 10.4323 34.9325 18 35.8762ZM0.00377657 19.6073C0.00126268 19.7379 5.73497e-09 19.8688 0 20C-4.72767e-07 30.8156 8.58519 39.6261 19.3126 39.9884C19.374 39.9961 19.4365 40 19.5 40C19.5361 40 19.5719 39.9987 19.6073 39.9962C19.7379 39.9987 19.8688 40 20 40C31.0457 40 40 31.0457 40 20C40 19.8688 39.9987 19.7379 39.9962 19.6073C39.9987 19.5719 40 19.5361 40 19.5C40 19.4365 39.9961 19.374 39.9884 19.3126C39.6261 8.58519 30.8156 4.94623e-07 20 2.18561e-08C19.8688 1.61211e-08 19.7379 0.00126333 19.6073 0.00377846C19.5719 0.00127366 19.5361 1.57745e-09 19.5 0C19.4365 -2.77344e-09 19.374 0.00394078 19.3126 0.011591C8.81337 0.366196 0.3662 8.81337 0.0115929 19.3126C0.00394442 19.374 2.46309e-08 19.4365 2.1857e-08 19.5C2.028e-08 19.5361 0.00127031 19.5719 0.00377657 19.6073ZM21 12C21 11.1716 20.3284 10.5 19.5 10.5C18.6716 10.5 18 11.1716 18 12V20.8493L26.2283 25.7862C26.9386 26.2125 27.86 25.9821 28.2862 25.2717C28.7125 24.5614 28.4821 23.64 27.7717 23.2138L21 19.1507V12Z" fill="#FFC700"/>
</svg>
