<svg width="221" height="46" viewBox="0 0 221 46" fill="none" xmlns="http://www.w3.org/2000/svg">
<g filter="url(#filter0_d_351_97)">
<rect x="30.5" y="2.5" width="171" height="35" rx="17.5" fill="#FEDBFF"/>
<rect x="30.5" y="2.5" width="171" height="35" rx="17.5" stroke="#6F6F6F"/>
<path d="M47.602 20.114C47.602 19.162 47.8167 18.308 48.246 17.552C48.6753 16.7867 49.2587 16.1893 49.996 15.76C50.7427 15.3307 51.5687 15.116 52.474 15.116C53.538 15.116 54.4667 15.3727 55.26 15.886C56.0533 16.3993 56.632 17.1273 56.996 18.07H55.47C55.1993 17.482 54.8073 17.0293 54.294 16.712C53.79 16.3947 53.1833 16.236 52.474 16.236C51.7927 16.236 51.1813 16.3947 50.64 16.712C50.0987 17.0293 49.674 17.482 49.366 18.07C49.058 18.6487 48.904 19.33 48.904 20.114C48.904 20.8887 49.058 21.57 49.366 22.158C49.674 22.7367 50.0987 23.1847 50.64 23.502C51.1813 23.8193 51.7927 23.978 52.474 23.978C53.1833 23.978 53.79 23.824 54.294 23.516C54.8073 23.1987 55.1993 22.746 55.47 22.158H56.996C56.632 23.0913 56.0533 23.8147 55.26 24.328C54.4667 24.832 53.538 25.084 52.474 25.084C51.5687 25.084 50.7427 24.874 49.996 24.454C49.2587 24.0247 48.6753 23.432 48.246 22.676C47.8167 21.92 47.602 21.066 47.602 20.114ZM62.7385 25.126C62.0198 25.126 61.3665 24.9627 60.7785 24.636C60.1998 24.3093 59.7425 23.8473 59.4065 23.25C59.0798 22.6433 58.9165 21.9433 58.9165 21.15C58.9165 20.366 59.0845 19.6753 59.4205 19.078C59.7658 18.4713 60.2325 18.0093 60.8205 17.692C61.4085 17.3653 62.0665 17.202 62.7945 17.202C63.5225 17.202 64.1805 17.3653 64.7685 17.692C65.3565 18.0093 65.8185 18.4667 66.1545 19.064C66.4998 19.6613 66.6725 20.3567 66.6725 21.15C66.6725 21.9433 66.4951 22.6433 66.1405 23.25C65.7951 23.8473 65.3238 24.3093 64.7265 24.636C64.1291 24.9627 63.4665 25.126 62.7385 25.126ZM62.7385 24.006C63.1958 24.006 63.6251 23.8987 64.0265 23.684C64.4278 23.4693 64.7498 23.1473 64.9925 22.718C65.2445 22.2887 65.3705 21.766 65.3705 21.15C65.3705 20.534 65.2491 20.0113 65.0065 19.582C64.7638 19.1527 64.4465 18.8353 64.0545 18.63C63.6625 18.4153 63.2378 18.308 62.7805 18.308C62.3138 18.308 61.8845 18.4153 61.4925 18.63C61.1098 18.8353 60.8018 19.1527 60.5685 19.582C60.3351 20.0113 60.2185 20.534 60.2185 21.15C60.2185 21.7753 60.3305 22.3027 60.5545 22.732C60.7878 23.1613 61.0958 23.4833 61.4785 23.698C61.8611 23.9033 62.2811 24.006 62.7385 24.006ZM72.5855 17.188C73.5189 17.188 74.2749 17.4727 74.8535 18.042C75.4322 18.602 75.7215 19.414 75.7215 20.478V25H74.4615V20.66C74.4615 19.8947 74.2702 19.3113 73.8875 18.91C73.5049 18.4993 72.9822 18.294 72.3195 18.294C71.6475 18.294 71.1109 18.504 70.7095 18.924C70.3175 19.344 70.1215 19.9553 70.1215 20.758V25H68.8475V17.328H70.1215V18.42C70.3735 18.028 70.7142 17.7247 71.1435 17.51C71.5822 17.2953 72.0629 17.188 72.5855 17.188ZM79.8566 18.378V22.9C79.8566 23.2733 79.9359 23.5393 80.0946 23.698C80.2533 23.8473 80.5286 23.922 80.9206 23.922H81.8586V25H80.7106C80.0013 25 79.4693 24.8367 79.1146 24.51C78.7599 24.1833 78.5826 23.6467 78.5826 22.9V18.378H77.5886V17.328H78.5826V15.396H79.8566V17.328H81.8586V18.378H79.8566ZM90.9022 20.87C90.9022 21.1127 90.8882 21.3693 90.8602 21.64H84.7282C84.7749 22.396 85.0316 22.9887 85.4982 23.418C85.9742 23.838 86.5482 24.048 87.2202 24.048C87.7709 24.048 88.2282 23.922 88.5922 23.67C88.9656 23.4087 89.2269 23.0633 89.3762 22.634H90.7482C90.5429 23.3713 90.1322 23.9733 89.5162 24.44C88.9002 24.8973 88.1349 25.126 87.2202 25.126C86.4922 25.126 85.8389 24.9627 85.2602 24.636C84.6909 24.3093 84.2429 23.8473 83.9162 23.25C83.5896 22.6433 83.4262 21.9433 83.4262 21.15C83.4262 20.3567 83.5849 19.6613 83.9022 19.064C84.2196 18.4667 84.6629 18.0093 85.2322 17.692C85.8109 17.3653 86.4736 17.202 87.2202 17.202C87.9482 17.202 88.5922 17.3607 89.1522 17.678C89.7122 17.9953 90.1416 18.434 90.4402 18.994C90.7482 19.5447 90.9022 20.17 90.9022 20.87ZM89.5862 20.604C89.5862 20.1187 89.4789 19.7033 89.2642 19.358C89.0496 19.0033 88.7556 18.7373 88.3822 18.56C88.0182 18.3733 87.6122 18.28 87.1642 18.28C86.5202 18.28 85.9696 18.4853 85.5122 18.896C85.0642 19.3067 84.8076 19.876 84.7422 20.604H89.5862ZM96.8219 17.188C97.7552 17.188 98.5112 17.4727 99.0899 18.042C99.6685 18.602 99.9579 19.414 99.9579 20.478V25H98.6979V20.66C98.6979 19.8947 98.5065 19.3113 98.1239 18.91C97.7412 18.4993 97.2185 18.294 96.5559 18.294C95.8839 18.294 95.3472 18.504 94.9459 18.924C94.5539 19.344 94.3579 19.9553 94.3579 20.758V25H93.0839V17.328H94.3579V18.42C94.6099 18.028 94.9505 17.7247 95.3799 17.51C95.8185 17.2953 96.2992 17.188 96.8219 17.188ZM104.093 18.378V22.9C104.093 23.2733 104.172 23.5393 104.331 23.698C104.49 23.8473 104.765 23.922 105.157 23.922H106.095V25H104.947C104.238 25 103.706 24.8367 103.351 24.51C102.996 24.1833 102.819 23.6467 102.819 22.9V18.378H101.825V17.328H102.819V15.396H104.093V17.328H106.095V18.378H104.093ZM122.269 15.312V25H120.995V17.776L117.775 25H116.879L113.645 17.762V25H112.371V15.312H113.743L117.327 23.32L120.911 15.312H122.269ZM124.454 21.136C124.454 20.352 124.612 19.666 124.93 19.078C125.247 18.4807 125.681 18.0187 126.232 17.692C126.792 17.3653 127.412 17.202 128.094 17.202C128.766 17.202 129.349 17.3467 129.844 17.636C130.338 17.9253 130.707 18.2893 130.95 18.728V17.328H132.238V25H130.95V23.572C130.698 24.02 130.32 24.3933 129.816 24.692C129.321 24.9813 128.742 25.126 128.08 25.126C127.398 25.126 126.782 24.958 126.232 24.622C125.681 24.286 125.247 23.8147 124.93 23.208C124.612 22.6013 124.454 21.9107 124.454 21.136ZM130.95 21.15C130.95 20.5713 130.833 20.0673 130.6 19.638C130.366 19.2087 130.049 18.882 129.648 18.658C129.256 18.4247 128.822 18.308 128.346 18.308C127.87 18.308 127.436 18.42 127.044 18.644C126.652 18.868 126.339 19.1947 126.106 19.624C125.872 20.0533 125.756 20.5573 125.756 21.136C125.756 21.724 125.872 22.2373 126.106 22.676C126.339 23.1053 126.652 23.4367 127.044 23.67C127.436 23.894 127.87 24.006 128.346 24.006C128.822 24.006 129.256 23.894 129.648 23.67C130.049 23.4367 130.366 23.1053 130.6 22.676C130.833 22.2373 130.95 21.7287 130.95 21.15ZM136.165 18.574C136.389 18.1353 136.706 17.7947 137.117 17.552C137.537 17.3093 138.045 17.188 138.643 17.188V18.504H138.307C136.879 18.504 136.165 19.2787 136.165 20.828V25H134.891V17.328H136.165V18.574ZM144.897 25L141.887 21.612V25H140.613V14.64H141.887V20.73L144.841 17.328H146.619L143.007 21.15L146.633 25H144.897ZM155.318 20.87C155.318 21.1127 155.304 21.3693 155.276 21.64H149.144C149.191 22.396 149.448 22.9887 149.914 23.418C150.39 23.838 150.964 24.048 151.636 24.048C152.187 24.048 152.644 23.922 153.008 23.67C153.382 23.4087 153.643 23.0633 153.792 22.634H155.164C154.959 23.3713 154.548 23.9733 153.932 24.44C153.316 24.8973 152.551 25.126 151.636 25.126C150.908 25.126 150.255 24.9627 149.676 24.636C149.107 24.3093 148.659 23.8473 148.332 23.25C148.006 22.6433 147.842 21.9433 147.842 21.15C147.842 20.3567 148.001 19.6613 148.318 19.064C148.636 18.4667 149.079 18.0093 149.648 17.692C150.227 17.3653 150.89 17.202 151.636 17.202C152.364 17.202 153.008 17.3607 153.568 17.678C154.128 17.9953 154.558 18.434 154.856 18.994C155.164 19.5447 155.318 20.17 155.318 20.87ZM154.002 20.604C154.002 20.1187 153.895 19.7033 153.68 19.358C153.466 19.0033 153.172 18.7373 152.798 18.56C152.434 18.3733 152.028 18.28 151.58 18.28C150.936 18.28 150.386 18.4853 149.928 18.896C149.48 19.3067 149.224 19.876 149.158 20.604H154.002ZM159.054 18.378V22.9C159.054 23.2733 159.133 23.5393 159.292 23.698C159.451 23.8473 159.726 23.922 160.118 23.922H161.056V25H159.908C159.199 25 158.667 24.8367 158.312 24.51C157.957 24.1833 157.78 23.6467 157.78 22.9V18.378H156.786V17.328H157.78V15.396H159.054V17.328H161.056V18.378H159.054ZM163.757 16.082C163.515 16.082 163.309 15.998 163.141 15.83C162.973 15.662 162.889 15.4567 162.889 15.214C162.889 14.9713 162.973 14.766 163.141 14.598C163.309 14.43 163.515 14.346 163.757 14.346C163.991 14.346 164.187 14.43 164.345 14.598C164.513 14.766 164.597 14.9713 164.597 15.214C164.597 15.4567 164.513 15.662 164.345 15.83C164.187 15.998 163.991 16.082 163.757 16.082ZM164.373 17.328V25H163.099V17.328H164.373ZM170.783 17.188C171.716 17.188 172.472 17.4727 173.051 18.042C173.629 18.602 173.919 19.414 173.919 20.478V25H172.659V20.66C172.659 19.8947 172.467 19.3113 172.085 18.91C171.702 18.4993 171.179 18.294 170.517 18.294C169.845 18.294 169.308 18.504 168.907 18.924C168.515 19.344 168.319 19.9553 168.319 20.758V25H167.045V17.328H168.319V18.42C168.571 18.028 168.911 17.7247 169.341 17.51C169.779 17.2953 170.26 17.188 170.783 17.188ZM179.664 17.202C180.327 17.202 180.905 17.3467 181.4 17.636C181.904 17.9253 182.277 18.2893 182.52 18.728V17.328H183.808V25.168C183.808 25.868 183.659 26.4887 183.36 27.03C183.061 27.5807 182.632 28.01 182.072 28.318C181.521 28.626 180.877 28.78 180.14 28.78C179.132 28.78 178.292 28.542 177.62 28.066C176.948 27.59 176.551 26.9413 176.43 26.12H177.69C177.83 26.5867 178.119 26.96 178.558 27.24C178.997 27.5293 179.524 27.674 180.14 27.674C180.84 27.674 181.409 27.4547 181.848 27.016C182.296 26.5773 182.52 25.9613 182.52 25.168V23.558C182.268 24.006 181.895 24.3793 181.4 24.678C180.905 24.9767 180.327 25.126 179.664 25.126C178.983 25.126 178.362 24.958 177.802 24.622C177.251 24.286 176.817 23.8147 176.5 23.208C176.183 22.6013 176.024 21.9107 176.024 21.136C176.024 20.352 176.183 19.666 176.5 19.078C176.817 18.4807 177.251 18.0187 177.802 17.692C178.362 17.3653 178.983 17.202 179.664 17.202ZM182.52 21.15C182.52 20.5713 182.403 20.0673 182.17 19.638C181.937 19.2087 181.619 18.882 181.218 18.658C180.826 18.4247 180.392 18.308 179.916 18.308C179.44 18.308 179.006 18.42 178.614 18.644C178.222 18.868 177.909 19.1947 177.676 19.624C177.443 20.0533 177.326 20.5573 177.326 21.136C177.326 21.724 177.443 22.2373 177.676 22.676C177.909 23.1053 178.222 23.4367 178.614 23.67C179.006 23.894 179.44 24.006 179.916 24.006C180.392 24.006 180.826 23.894 181.218 23.67C181.619 23.4367 181.937 23.1053 182.17 22.676C182.403 22.2373 182.52 21.7287 182.52 21.15Z" fill="black"/>
<path d="M16.21 12.14C17.7647 12.14 19.1287 12.448 20.302 13.064C21.49 13.68 22.4067 14.538 23.052 15.638C23.712 16.738 24.042 17.9993 24.042 19.422C24.042 20.566 23.866 21.6513 23.514 22.678C23.1767 23.7047 22.6853 24.5407 22.04 25.186C21.3947 25.8167 20.632 26.132 19.752 26.132C19.048 26.132 18.52 25.9193 18.168 25.494C17.8307 25.054 17.6767 24.4747 17.706 23.756C17.266 24.504 16.6793 25.0907 15.946 25.516C15.2273 25.9267 14.4573 26.132 13.636 26.132C12.536 26.132 11.6707 25.7947 11.04 25.12C10.424 24.4453 10.116 23.536 10.116 22.392C10.116 21.3213 10.336 20.324 10.776 19.4C11.2307 18.4613 11.8613 17.7133 12.668 17.156C13.4747 16.584 14.384 16.298 15.396 16.298C16.188 16.298 16.848 16.4887 17.376 16.87C17.9187 17.2513 18.2853 17.8013 18.476 18.52L18.806 16.584H19.686L18.564 23.03C18.52 23.2647 18.498 23.4993 18.498 23.734C18.498 24.2473 18.6153 24.6507 18.85 24.944C19.0993 25.2373 19.4513 25.384 19.906 25.384C20.566 25.384 21.1453 25.0907 21.644 24.504C22.1427 23.9173 22.524 23.1767 22.788 22.282C23.052 21.3727 23.184 20.456 23.184 19.532C23.184 18.1827 22.8907 17.0093 22.304 16.012C21.732 15.0147 20.9107 14.2447 19.84 13.702C18.7693 13.1593 17.5153 12.888 16.078 12.888C14.3033 12.888 12.69 13.3353 11.238 14.23C9.786 15.11 8.642 16.3127 7.806 17.838C6.98467 19.3487 6.574 21.006 6.574 22.81C6.574 24.1887 6.86 25.3693 7.432 26.352C8.004 27.3493 8.818 28.112 9.874 28.64C10.9447 29.168 12.184 29.432 13.592 29.432C14.8973 29.432 16.1073 29.19 17.222 28.706L17.376 29.454C16.1293 29.9527 14.7947 30.202 13.372 30.202C11.8613 30.202 10.5267 29.9013 9.368 29.3C8.20933 28.7133 7.30733 27.87 6.662 26.77C6.01667 25.6847 5.694 24.4087 5.694 22.942C5.694 20.9327 6.14867 19.1067 7.058 17.464C7.96733 15.8213 9.22133 14.5233 10.82 13.57C12.4187 12.6167 14.2153 12.14 16.21 12.14ZM13.9 25.318C14.5747 25.318 15.2053 25.1493 15.792 24.812C16.3787 24.46 16.87 23.9613 17.266 23.316C17.6767 22.656 17.9407 21.886 18.058 21.006C18.1167 20.7127 18.146 20.4047 18.146 20.082C18.146 19.1873 17.904 18.4687 17.42 17.926C16.9507 17.3687 16.2613 17.09 15.352 17.09C14.5013 17.09 13.746 17.3393 13.086 17.838C12.4407 18.322 11.942 18.96 11.59 19.752C11.238 20.544 11.062 21.38 11.062 22.26C11.062 23.1987 11.3113 23.9467 11.81 24.504C12.3087 25.0467 13.0053 25.318 13.9 25.318Z" fill="black" fill-opacity="0.6"/>
<path d="M215.902 28.6273L210.809 32.1586L210.768 38.3556L204.567 28.8641L215.902 28.6273Z" fill="#A3FF2E" stroke="black" stroke-width="0.8" stroke-miterlimit="10"/>
</g>
<defs>
<filter id="filter0_d_351_97" x="0.693359" y="0" width="219.527" height="45.6856" filterUnits="userSpaceOnUse" color-interpolation-filters="sRGB">
<feFlood flood-opacity="0" result="BackgroundImageFix"/>
<feColorMatrix in="SourceAlpha" type="matrix" values="0 0 0 0 0 0 0 0 0 0 0 0 0 0 0 0 0 0 127 0" result="hardAlpha"/>
<feOffset dx="-1" dy="2"/>
<feGaussianBlur stdDeviation="2"/>
<feComposite in2="hardAlpha" operator="out"/>
<feColorMatrix type="matrix" values="0 0 0 0 0 0 0 0 0 0 0 0 0 0 0 0 0 0 0.3 0"/>
<feBlend mode="normal" in2="BackgroundImageFix" result="effect1_dropShadow_351_97"/>
<feBlend mode="normal" in="SourceGraphic" in2="effect1_dropShadow_351_97" result="shape"/>
</filter>
</defs>
</svg>
