<svg width="121" height="54" viewBox="0 0 121 54" fill="none" xmlns="http://www.w3.org/2000/svg">
<g filter="url(#filter0_d_54_13965)">
<rect x="4.5" y="0.5" width="81" height="35" rx="17.5" fill="#E6FFB1"/>
<rect x="4.5" y="0.5" width="81" height="35" rx="17.5" stroke="#6F6F6F"/>
<path d="M34.672 23.098C34.028 23.098 33.4493 22.986 32.936 22.762C32.432 22.5287 32.0353 22.2113 31.746 21.81C31.4567 21.3993 31.3073 20.928 31.298 20.396H32.656C32.7027 20.8533 32.8893 21.2407 33.216 21.558C33.552 21.866 34.0373 22.02 34.672 22.02C35.2787 22.02 35.7547 21.8707 36.1 21.572C36.4547 21.264 36.632 20.872 36.632 20.396C36.632 20.0227 36.5293 19.7193 36.324 19.486C36.1187 19.2527 35.862 19.0753 35.554 18.954C35.246 18.8327 34.8307 18.702 34.308 18.562C33.664 18.394 33.146 18.226 32.754 18.058C32.3713 17.89 32.04 17.6287 31.76 17.274C31.4893 16.91 31.354 16.4247 31.354 15.818C31.354 15.286 31.4893 14.8147 31.76 14.404C32.0307 13.9933 32.4087 13.676 32.894 13.452C33.3887 13.228 33.9533 13.116 34.588 13.116C35.5027 13.116 36.2493 13.3447 36.828 13.802C37.416 14.2593 37.7473 14.866 37.822 15.622H36.422C36.3753 15.2487 36.1793 14.922 35.834 14.642C35.4887 14.3527 35.0313 14.208 34.462 14.208C33.93 14.208 33.496 14.348 33.16 14.628C32.824 14.8987 32.656 15.2813 32.656 15.776C32.656 16.1307 32.754 16.42 32.95 16.644C33.1553 16.868 33.4027 17.0407 33.692 17.162C33.9907 17.274 34.406 17.4047 34.938 17.554C35.582 17.7313 36.1 17.9087 36.492 18.086C36.884 18.254 37.22 18.52 37.5 18.884C37.78 19.2387 37.92 19.724 37.92 20.34C37.92 20.816 37.794 21.264 37.542 21.684C37.29 22.104 36.9167 22.4447 36.422 22.706C35.9273 22.9673 35.344 23.098 34.672 23.098ZM41.5688 14.278V17.54H45.1248V18.59H41.5688V21.95H45.5448V23H40.2948V13.228H45.5448V14.278H41.5688ZM57.8705 13.312V23H56.5965V15.776L53.3765 23H52.4805L49.2465 15.762V23H47.9725V13.312H49.3445L52.9285 21.32L56.5125 13.312H57.8705Z" fill="black"/>
<path d="M114.679 38.1759L108.528 38.9317L105.607 44.3974L104.536 33.1107L114.679 38.1759Z" fill="#A3FF2E" stroke="black" stroke-width="0.8" stroke-miterlimit="10"/>
</g>
<defs>
<filter id="filter0_d_54_13965" x="0" y="0" width="120.045" height="53.7565" filterUnits="userSpaceOnUse" color-interpolation-filters="sRGB">
<feFlood flood-opacity="0" result="BackgroundImageFix"/>
<feColorMatrix in="SourceAlpha" type="matrix" values="0 0 0 0 0 0 0 0 0 0 0 0 0 0 0 0 0 0 127 0" result="hardAlpha"/>
<feOffset dy="4"/>
<feGaussianBlur stdDeviation="2"/>
<feComposite in2="hardAlpha" operator="out"/>
<feColorMatrix type="matrix" values="0 0 0 0 0 0 0 0 0 0 0 0 0 0 0 0 0 0 0.25 0"/>
<feBlend mode="normal" in2="BackgroundImageFix" result="effect1_dropShadow_54_13965"/>
<feBlend mode="normal" in="SourceGraphic" in2="effect1_dropShadow_54_13965" result="shape"/>
</filter>
</defs>
</svg>
