<svg width="101" height="54" viewBox="0 0 101 54" fill="none" xmlns="http://www.w3.org/2000/svg">
<g filter="url(#filter0_d_351_84)">
<rect x="22.5" y="2.5" width="75" height="35" rx="17.5" fill="#DCFFC7"/>
<rect x="22.5" y="2.5" width="75" height="35" rx="17.5" stroke="#6F6F6F"/>
<path d="M50.172 25.098C49.528 25.098 48.9493 24.986 48.436 24.762C47.932 24.5287 47.5353 24.2113 47.246 23.81C46.9567 23.3993 46.8073 22.928 46.798 22.396H48.156C48.2027 22.8533 48.3893 23.2407 48.716 23.558C49.052 23.866 49.5373 24.02 50.172 24.02C50.7787 24.02 51.2547 23.8707 51.6 23.572C51.9547 23.264 52.132 22.872 52.132 22.396C52.132 22.0227 52.0293 21.7193 51.824 21.486C51.6187 21.2527 51.362 21.0753 51.054 20.954C50.746 20.8327 50.3307 20.702 49.808 20.562C49.164 20.394 48.646 20.226 48.254 20.058C47.8713 19.89 47.54 19.6287 47.26 19.274C46.9893 18.91 46.854 18.4247 46.854 17.818C46.854 17.286 46.9893 16.8147 47.26 16.404C47.5307 15.9933 47.9087 15.676 48.394 15.452C48.8887 15.228 49.4533 15.116 50.088 15.116C51.0027 15.116 51.7493 15.3447 52.328 15.802C52.916 16.2593 53.2473 16.866 53.322 17.622H51.922C51.8753 17.2487 51.6793 16.922 51.334 16.642C50.9887 16.3527 50.5313 16.208 49.962 16.208C49.43 16.208 48.996 16.348 48.66 16.628C48.324 16.8987 48.156 17.2813 48.156 17.776C48.156 18.1307 48.254 18.42 48.45 18.644C48.6553 18.868 48.9027 19.0407 49.192 19.162C49.4907 19.274 49.906 19.4047 50.438 19.554C51.082 19.7313 51.6 19.9087 51.992 20.086C52.384 20.254 52.72 20.52 53 20.884C53.28 21.2387 53.42 21.724 53.42 22.34C53.42 22.816 53.294 23.264 53.042 23.684C52.79 24.104 52.4167 24.4447 51.922 24.706C51.4273 24.9673 50.844 25.098 50.172 25.098ZM57.0688 16.278V19.54H60.6248V20.59H57.0688V23.95H61.0448V25H55.7948V15.228H61.0448V16.278H57.0688ZM67.8965 25.098C66.9912 25.098 66.1652 24.888 65.4185 24.468C64.6719 24.0387 64.0792 23.446 63.6405 22.69C63.2112 21.9247 62.9965 21.066 62.9965 20.114C62.9965 19.162 63.2112 18.308 63.6405 17.552C64.0792 16.7867 64.6719 16.194 65.4185 15.774C66.1652 15.3447 66.9912 15.13 67.8965 15.13C68.8112 15.13 69.6419 15.3447 70.3885 15.774C71.1352 16.194 71.7232 16.782 72.1525 17.538C72.5819 18.294 72.7965 19.1527 72.7965 20.114C72.7965 21.0753 72.5819 21.934 72.1525 22.69C71.7232 23.446 71.1352 24.0387 70.3885 24.468C69.6419 24.888 68.8112 25.098 67.8965 25.098ZM67.8965 23.992C68.5779 23.992 69.1892 23.8333 69.7305 23.516C70.2812 23.1987 70.7105 22.746 71.0185 22.158C71.3359 21.57 71.4945 20.8887 71.4945 20.114C71.4945 19.33 71.3359 18.6487 71.0185 18.07C70.7105 17.482 70.2859 17.0293 69.7445 16.712C69.2032 16.3947 68.5872 16.236 67.8965 16.236C67.2059 16.236 66.5899 16.3947 66.0485 16.712C65.5072 17.0293 65.0779 17.482 64.7605 18.07C64.4525 18.6487 64.2985 19.33 64.2985 20.114C64.2985 20.8887 64.4525 21.57 64.7605 22.158C65.0779 22.746 65.5072 23.1987 66.0485 23.516C66.5992 23.8333 67.2152 23.992 67.8965 23.992Z" fill="black"/>
<path d="M14.7777 45.7884L12.9078 39.8801L6.99956 38.0102L17.8989 34.8891L14.7777 45.7884Z" fill="#A3FF2E" stroke="black" stroke-width="0.8" stroke-miterlimit="10"/>
</g>
<defs>
<filter id="filter0_d_351_84" x="0.613281" y="0" width="100.387" height="53.1745" filterUnits="userSpaceOnUse" color-interpolation-filters="sRGB">
<feFlood flood-opacity="0" result="BackgroundImageFix"/>
<feColorMatrix in="SourceAlpha" type="matrix" values="0 0 0 0 0 0 0 0 0 0 0 0 0 0 0 0 0 0 127 0" result="hardAlpha"/>
<feOffset dx="-1" dy="2"/>
<feGaussianBlur stdDeviation="2"/>
<feComposite in2="hardAlpha" operator="out"/>
<feColorMatrix type="matrix" values="0 0 0 0 0 0 0 0 0 0 0 0 0 0 0 0 0 0 0.3 0"/>
<feBlend mode="normal" in2="BackgroundImageFix" result="effect1_dropShadow_351_84"/>
<feBlend mode="normal" in="SourceGraphic" in2="effect1_dropShadow_351_84" result="shape"/>
</filter>
</defs>
</svg>
