<svg width="121" height="54" viewBox="0 0 121 54" fill="none" xmlns="http://www.w3.org/2000/svg">
<g filter="url(#filter0_d_351_88)">
<rect x="4.5" y="0.5" width="81" height="35" rx="17.5" fill="#FFF7B1"/>
<rect x="4.5" y="0.5" width="81" height="35" rx="17.5" stroke="#6F6F6F"/>
<path d="M32.172 23.098C31.528 23.098 30.9493 22.986 30.436 22.762C29.932 22.5287 29.5353 22.2113 29.246 21.81C28.9567 21.3993 28.8073 20.928 28.798 20.396H30.156C30.2027 20.8533 30.3893 21.2407 30.716 21.558C31.052 21.866 31.5373 22.02 32.172 22.02C32.7787 22.02 33.2547 21.8707 33.6 21.572C33.9547 21.264 34.132 20.872 34.132 20.396C34.132 20.0227 34.0293 19.7193 33.824 19.486C33.6187 19.2527 33.362 19.0753 33.054 18.954C32.746 18.8327 32.3307 18.702 31.808 18.562C31.164 18.394 30.646 18.226 30.254 18.058C29.8713 17.89 29.54 17.6287 29.26 17.274C28.9893 16.91 28.854 16.4247 28.854 15.818C28.854 15.286 28.9893 14.8147 29.26 14.404C29.5307 13.9933 29.9087 13.676 30.394 13.452C30.8887 13.228 31.4533 13.116 32.088 13.116C33.0027 13.116 33.7493 13.3447 34.328 13.802C34.916 14.2593 35.2473 14.866 35.322 15.622H33.922C33.8753 15.2487 33.6793 14.922 33.334 14.642C32.9887 14.3527 32.5313 14.208 31.962 14.208C31.43 14.208 30.996 14.348 30.66 14.628C30.324 14.8987 30.156 15.2813 30.156 15.776C30.156 16.1307 30.254 16.42 30.45 16.644C30.6553 16.868 30.9027 17.0407 31.192 17.162C31.4907 17.274 31.906 17.4047 32.438 17.554C33.082 17.7313 33.6 17.9087 33.992 18.086C34.384 18.254 34.72 18.52 35 18.884C35.28 19.2387 35.42 19.724 35.42 20.34C35.42 20.816 35.294 21.264 35.042 21.684C34.79 22.104 34.4167 22.4447 33.922 22.706C33.4273 22.9673 32.844 23.098 32.172 23.098ZM47.6928 13.312V23H46.4188V15.776L43.1988 23H42.3028L39.0688 15.762V23H37.7948V13.312H39.1668L42.7508 21.32L46.3348 13.312H47.6928ZM60.2514 13.312V23H58.9774V15.776L55.7574 23H54.8614L51.6274 15.762V23H50.3534V13.312H51.7254L55.3094 21.32L58.8934 13.312H60.2514Z" fill="black"/>
<path d="M114.679 38.1759L108.528 38.9317L105.607 44.3974L104.536 33.1107L114.679 38.1759Z" fill="#A3FF2E" stroke="black" stroke-width="0.8" stroke-miterlimit="10"/>
</g>
<defs>
<filter id="filter0_d_351_88" x="0" y="0" width="120.045" height="53.7565" filterUnits="userSpaceOnUse" color-interpolation-filters="sRGB">
<feFlood flood-opacity="0" result="BackgroundImageFix"/>
<feColorMatrix in="SourceAlpha" type="matrix" values="0 0 0 0 0 0 0 0 0 0 0 0 0 0 0 0 0 0 127 0" result="hardAlpha"/>
<feOffset dy="4"/>
<feGaussianBlur stdDeviation="2"/>
<feComposite in2="hardAlpha" operator="out"/>
<feColorMatrix type="matrix" values="0 0 0 0 0 0 0 0 0 0 0 0 0 0 0 0 0 0 0.25 0"/>
<feBlend mode="normal" in2="BackgroundImageFix" result="effect1_dropShadow_351_88"/>
<feBlend mode="normal" in="SourceGraphic" in2="effect1_dropShadow_351_88" result="shape"/>
</filter>
</defs>
</svg>
