<svg width="132" height="54" viewBox="0 0 132 54" fill="none" xmlns="http://www.w3.org/2000/svg">
<g filter="url(#filter0_d_351_92)">
<rect x="28.5" y="2.5" width="85" height="35" rx="17.5" fill="#DEF5FF"/>
<rect x="28.5" y="2.5" width="85" height="35" rx="17.5" stroke="#6F6F6F"/>
<path d="M58.672 25.098C58.028 25.098 57.4493 24.986 56.936 24.762C56.432 24.5287 56.0353 24.2113 55.746 23.81C55.4567 23.3993 55.3073 22.928 55.298 22.396H56.656C56.7027 22.8533 56.8893 23.2407 57.216 23.558C57.552 23.866 58.0373 24.02 58.672 24.02C59.2787 24.02 59.7547 23.8707 60.1 23.572C60.4547 23.264 60.632 22.872 60.632 22.396C60.632 22.0227 60.5293 21.7193 60.324 21.486C60.1187 21.2527 59.862 21.0753 59.554 20.954C59.246 20.8327 58.8307 20.702 58.308 20.562C57.664 20.394 57.146 20.226 56.754 20.058C56.3713 19.89 56.04 19.6287 55.76 19.274C55.4893 18.91 55.354 18.4247 55.354 17.818C55.354 17.286 55.4893 16.8147 55.76 16.404C56.0307 15.9933 56.4087 15.676 56.894 15.452C57.3887 15.228 57.9533 15.116 58.588 15.116C59.5027 15.116 60.2493 15.3447 60.828 15.802C61.416 16.2593 61.7473 16.866 61.822 17.622H60.422C60.3753 17.2487 60.1793 16.922 59.834 16.642C59.4887 16.3527 59.0313 16.208 58.462 16.208C57.93 16.208 57.496 16.348 57.16 16.628C56.824 16.8987 56.656 17.2813 56.656 17.776C56.656 18.1307 56.754 18.42 56.95 18.644C57.1553 18.868 57.4027 19.0407 57.692 19.162C57.9907 19.274 58.406 19.4047 58.938 19.554C59.582 19.7313 60.1 19.9087 60.492 20.086C60.884 20.254 61.22 20.52 61.5 20.884C61.78 21.2387 61.92 21.724 61.92 22.34C61.92 22.816 61.794 23.264 61.542 23.684C61.29 24.104 60.9167 24.4447 60.422 24.706C59.9273 24.9673 59.344 25.098 58.672 25.098ZM74.1928 15.312V25H72.9188V17.776L69.6988 25H68.8028L65.5688 17.762V25H64.2948V15.312H65.6668L69.2508 23.32L72.8348 15.312H74.1928ZM81.2774 25.098C80.3721 25.098 79.5461 24.888 78.7994 24.468C78.0527 24.0387 77.4601 23.446 77.0214 22.69C76.5921 21.9247 76.3774 21.066 76.3774 20.114C76.3774 19.162 76.5921 18.308 77.0214 17.552C77.4601 16.7867 78.0527 16.194 78.7994 15.774C79.5461 15.3447 80.3721 15.13 81.2774 15.13C82.1921 15.13 83.0227 15.3447 83.7694 15.774C84.5161 16.194 85.1041 16.782 85.5334 17.538C85.9627 18.294 86.1774 19.1527 86.1774 20.114C86.1774 21.0753 85.9627 21.934 85.5334 22.69C85.1041 23.446 84.5161 24.0387 83.7694 24.468C83.0227 24.888 82.1921 25.098 81.2774 25.098ZM81.2774 23.992C81.9587 23.992 82.5701 23.8333 83.1114 23.516C83.6621 23.1987 84.0914 22.746 84.3994 22.158C84.7167 21.57 84.8754 20.8887 84.8754 20.114C84.8754 19.33 84.7167 18.6487 84.3994 18.07C84.0914 17.482 83.6667 17.0293 83.1254 16.712C82.5841 16.3947 81.9681 16.236 81.2774 16.236C80.5867 16.236 79.9707 16.3947 79.4294 16.712C78.8881 17.0293 78.4587 17.482 78.1414 18.07C77.8334 18.6487 77.6794 19.33 77.6794 20.114C77.6794 20.8887 77.8334 21.57 78.1414 22.158C78.4587 22.746 78.8881 23.1987 79.4294 23.516C79.9801 23.8333 80.5961 23.992 81.2774 23.992Z" fill="black"/>
<path d="M126.788 38.0102L120.88 39.8801L119.01 45.7884L115.889 34.8891L126.788 38.0102Z" fill="#A3FF2E" stroke="black" stroke-width="0.8" stroke-miterlimit="10"/>
<path d="M18.728 15.888L17.744 20.496H21.32V21.456H17.528L16.352 27H15.296L16.472 21.456H10.808L9.632 27H8.576L9.752 21.456H5.912V20.496H9.968L10.952 15.888H7.16V14.928H11.144L12.368 9.24H13.424L12.2 14.928H17.864L19.088 9.24H20.144L18.92 14.928H22.568V15.888H18.728ZM17.672 15.888H12.008L11.024 20.496H16.688L17.672 15.888Z" fill="black" fill-opacity="0.6"/>
</g>
<defs>
<filter id="filter0_d_351_92" x="0.912109" y="0" width="130.262" height="53.1745" filterUnits="userSpaceOnUse" color-interpolation-filters="sRGB">
<feFlood flood-opacity="0" result="BackgroundImageFix"/>
<feColorMatrix in="SourceAlpha" type="matrix" values="0 0 0 0 0 0 0 0 0 0 0 0 0 0 0 0 0 0 127 0" result="hardAlpha"/>
<feOffset dx="-1" dy="2"/>
<feGaussianBlur stdDeviation="2"/>
<feComposite in2="hardAlpha" operator="out"/>
<feColorMatrix type="matrix" values="0 0 0 0 0 0 0 0 0 0 0 0 0 0 0 0 0 0 0.3 0"/>
<feBlend mode="normal" in2="BackgroundImageFix" result="effect1_dropShadow_351_92"/>
<feBlend mode="normal" in="SourceGraphic" in2="effect1_dropShadow_351_92" result="shape"/>
</filter>
</defs>
</svg>
