<?xml version="1.0" encoding="UTF-8"?>
<svg id="Layer_2" data-name="Layer 2" xmlns="http://www.w3.org/2000/svg" viewBox="0 0 233.22 250">
  <defs>
    <style>
      .cls-1 {
        stroke-width: 0px;
      }
    </style>
  </defs>
  <g id="Layer_1-2" data-name="Layer 1">
    <g>
      <path class="cls-1" d="M168.52,110.2c-7.3-2.09-8.12-7.61-7.44-14.37-.85.72-1.32,1.07-1.74,1.47-11.88,11.55-26.09,15.56-42.25,12.94-2.33-.38-3.9-.16-5.58,1.67-3.86,4.18-8.02,8.09-12.01,12.16-1.4,1.43-2.93,2.27-4.83,1.23-1.93-1.06-1.98-2.84-1.46-4.76,1.43-5.25,2.8-10.52,4.28-15.77.45-1.58.27-2.58-1.17-3.72-9.1-7.26-14.67-16.62-14.94-28.41-.38-16.29,7.73-27.9,21.61-35.41,13.65-7.38,27.9-7.55,42.23-1.67.75.31,1.49.64,2.45,1.06,2.95-5.78,7.32-10.13,12.88-13.32,14.56-8.37,35.57-6.24,47.12,4.8,10.02,9.58,12.63,25.84,5.96,39.19-2.2,4.4-5.05,8.51-7.9,12.55-3.46,4.91-5.42,10.16-5.02,16.21.07,1.07.01,2.15,0,3.22,0,6.17-1.64,8.61-7.45,10.97-.04.49-.12,1.05-.13,1.6-.1,5.91-3.19,9.03-9.03,9.07-2.14.02-4.29.01-6.43,0-5.89-.04-9.01-3.1-9.14-8.98-.01-.49,0-.98,0-1.74ZM103.27,109.81c.47-.04.58-.01.62-.06,2-1.97,4.01-3.92,5.97-5.93,1.27-1.3,2.66-1.71,4.47-1.26,2.39.59,4.83,1.15,7.28,1.32,14.61,1.04,26.88-3.47,36.07-15.36,1.6-2.07,1.58-3.72.16-5.72-2.24-3.16-4.39-6.39-6.56-9.6-5.76-8.52-7.89-17.87-6.25-28.03.25-1.52-.18-2.23-1.54-2.8-14.89-6.29-29.15-5.36-42.36,4.21-10.71,7.77-15.17,20.35-11.9,32.3,2.11,7.73,6.79,13.65,13.28,18.21,3.25,2.28,3.43,2.73,2.4,6.58-.53,1.98-1.06,3.96-1.64,6.15ZM193.15,91.7c1.38-3.86,2.35-7.64,4.07-11.05,1.73-3.44,4.25-6.47,6.33-9.75,1.46-2.29,2.98-4.59,4.08-7.06,5.02-11.29,4.27-28.54-12.69-35.82-9.23-3.96-18.65-3.98-27.91-.13-10.52,4.37-15.77,12.92-15.59,24.36.12,7.36,3.07,13.55,7.14,19.44,2.53,3.65,5.01,7.39,7.01,11.34,1.34,2.65,1.8,5.74,2.64,8.6h3.73c0-6.28-.07-12.38.04-18.49.03-1.66-.55-2.43-1.96-3.21-6.64-3.69-10.29-9.37-10.6-17.01-.13-3.28,1-6.1,4.27-7.42,3.22-1.3,6.25-.33,8.25,2.22,2,2.54,3.63,5.49,4.81,8.51,1.13,2.87,1.47,6.06,2.15,9.11,3.69.82,3.83.67,4.4-2.87.82-5.1,2.12-10.04,5.6-14.07,2.65-3.06,6.08-4.14,9.02-2.92,2.99,1.23,4.64,4.3,4.24,8.45-.7,7.28-4.39,12.64-10.75,16.22-.69.39-1.67,1.15-1.68,1.75-.12,6.59-.08,13.18-.08,19.84h3.47ZM193.52,98.92h-25.49c-.32,3.78.16,4.37,3.58,4.38,6.18.02,12.36.02,18.53,0,3.34-.01,3.91-.77,3.38-4.38ZM179.04,72.7v18.95h3.51v-18.95h-3.51ZM185.96,110.26c-2.89,0-5.82.03-8.75-.02-1.2-.02-1.84.29-1.79,1.65.05,1.23.31,2.09,1.77,2.08,1.97-.03,3.93,0,5.9,0,3.19,0,3.28-.12,2.86-3.71ZM170.88,61.85c-.54-3.55-1.25-7.03-4.52-9.95-.01,4.45,1.62,7.48,4.52,9.95ZM194.98,52.47c-2.79,2.52-3.84,5.76-4.5,9.96,3.28-3.04,4.76-6.12,4.5-9.96Z"/>
      <path class="cls-1" d="M54.88,218.41c-12.04,0-24.09-.29-36.12.08C7.11,218.84-.18,210.23,0,200.15c.25-13.62.03-27.26.08-40.89,0-2.05.34-4.11.65-6.15,1.06-6.87,5.17-11.53,11.46-13.73,8.14-2.85,16.49-5.13,24.83-7.36,3.2-.86,6.52-.06,9.1,2.14,5.42,4.61,12.34,4.74,18.02-.07,2.73-2.31,6.21-2.85,9.61-1.98,6.94,1.77,13.83,3.74,20.69,5.78,2.11.63,4.12,1.67,6.08,2.7,6.45,3.39,9.24,9.2,9.35,16.1.24,15.52.33,31.06-.01,46.58-.18,8.25-7.44,14.9-15.89,15.04-13.03.21-26.06.06-39.09.06,0,.01,0,.03,0,.04ZM89.9,211.18c7.54,1.09,13.05-2.69,13.13-9.15.17-14.54.06-29.08.08-43.62.01-7-3.27-11.6-9.95-13.63-5.67-1.72-11.43-3.16-17.06-4.98-3.9-1.26-7.19-1.2-10.58,1.6-1.66,1.37-2.16,2.44-1.95,4.43,1.23,11.58,2.39,23.17,3.45,34.77.11,1.2-.29,2.66-.95,3.67-2.47,3.81-5.11,7.51-7.74,11.2-2.02,2.84-4.5,2.8-6.57-.1-2.59-3.63-5.18-7.26-7.6-11-.66-1.02-1.09-2.45-1.02-3.66.28-4.53.8-9.05,1.25-13.57.73-7.4,1.52-14.79,2.17-22.2.08-.88-.31-2.09-.92-2.69-3.52-3.43-7.57-4.26-12.2-2.32-1.73.73-3.68.9-5.48,1.49-4.69,1.52-9.43,2.94-14.01,4.76-3.9,1.54-6.07,4.67-6.51,8.92-.15,1.48-.44,2.95-.45,4.43-.02,13.8-.06,27.59.04,41.39.05,7.44,5.5,11.65,13.24,10.18,0-.91,0-1.88,0-2.85,0-9.34-.02-18.68.03-28.02.01-2.39,1.33-3.76,3.4-3.7,2.21.06,3.22,1.41,3.47,3.46.08.65.03,1.32.03,1.98,0,8.84,0,17.69,0,26.53,0,.89,0,1.77,0,2.76h55.76c0-1.15,0-2.12,0-3.1,0-9.09-.02-18.18.01-27.28.01-2.92,1.3-4.43,3.55-4.37,2.17.05,3.33,1.47,3.35,4.3.04,7.11.01,14.22.01,21.33,0,2.96,0,5.93,0,9.01ZM53.58,144.85c-1.02,10.39-1.62,20.71-3.21,30.87-.85,5.39,2.03,8.39,4.79,12.2,1.07-1.53,1.88-2.98,2.96-4.17,1.84-2.02,2.07-4.27,1.72-6.86-.58-4.33-.91-8.7-1.35-13.05-.64-6.3-1.28-12.6-1.93-18.98h-2.98Z"/>
      <path class="cls-1" d="M180.56,249.99c-10.22,0-20.45.01-30.67,0-8.75-.02-15.05-5.37-15.29-14.11-.35-12.95-.12-25.92.17-38.88.14-6.54,3.57-11.52,9.67-13.73,7.17-2.6,14.6-4.55,21.99-6.47,2.71-.7,5.32.52,7.63,2.17,5.01,3.58,8.5,3.57,13.54-.01,2.76-1.96,5.77-2.84,9.1-1.93,5.8,1.57,11.6,3.13,17.35,4.86,8.77,2.64,13.1,8.78,13.17,17.84.1,11.89.18,23.79-.07,35.68-.18,8.73-6.49,14.55-15.18,14.58-10.47.03-20.94,0-31.41,0ZM210.57,242.85c5.75.59,9.57-2.28,9.66-7.62.19-11.9.08-23.8.06-35.7-.01-5.77-2.81-9.5-8.37-11.07-5.54-1.57-11.07-3.22-16.67-4.58-1.15-.28-2.79.27-3.84.97-7.36,4.93-13.82,4.95-21.11,0-.96-.65-2.4-1.37-3.36-1.11-6.59,1.77-13.16,3.65-19.64,5.79-3.62,1.2-5.44,4.14-5.66,7.97-.21,3.63-.53,7.26-.52,10.89,0,8.93.01,17.86.34,26.78.21,5.6,4.25,8.59,9.61,7.5,0-6.65-.02-13.33.01-20.01.01-2.55,1.29-3.97,3.41-3.98,2.1-.01,3.46,1.44,3.49,3.93.05,4.13.02,8.27.02,12.4,0,2.61,0,5.23,0,7.86h45.66c0-1.96,0-3.76,0-5.56,0-4.88-.04-9.76.02-14.63.03-2.53,1.37-3.97,3.45-4,2.15-.02,3.37,1.35,3.46,3.92.03.91,0,1.82,0,2.73,0,5.78,0,11.55,0,17.5Z"/>
      <path class="cls-1" d="M80.92,102.02c-.08,5.49-2.41,13.48-7.85,20.29-10.55,13.21-25.81,13-36.02-.1-7.08-9.09-9.28-19.61-7.09-30.86,2.5-12.83,12.63-20.56,25.8-20.14,15.52.49,25.27,11.18,25.17,30.81ZM73.99,100.71c.16-15.87-8.16-23.76-22-22.38-6.53.65-11.19,4.06-13.84,10.12-4.37,10.02-1.48,24.16,6.51,31.89,6.44,6.23,14.15,6.35,20.63.15,6.07-5.81,8.42-13.22,8.7-19.78Z"/>
      <path class="cls-1" d="M181.11,126.2c12.55.24,20.8,8.14,21.76,21.29.65,8.92-1.87,17.01-7.92,23.76-8.04,8.96-19.83,9.2-27.93.29-7.78-8.56-10.11-18.78-7.18-29.94,2.6-9.88,10.83-15.6,21.26-15.4ZM180.77,133.15c-7.11.02-12.17,3.36-14.08,9.85-2.54,8.63-.83,16.6,5.02,23.39,5.54,6.43,12.97,6.24,18.48-.24,4.44-5.22,6.29-11.42,5.76-18.18-.75-9.58-6.3-14.84-15.19-14.82Z"/>
      <path class="cls-1" d="M145.6,14.21c.9.18,1.44.12,1.68.36,2.49,2.45,5.09,4.83,7.27,7.54.46.58-.25,2.95-1.09,3.51-.96.65-3.08.78-3.95.13-2.28-1.71-4.29-3.84-6.09-6.06-.6-.74-.61-2.43-.19-3.39.41-.95,1.69-1.53,2.37-2.09Z"/>
      <path class="cls-1" d="M226.11,55.99c-1.31,0-2.64.11-3.94-.03-1.98-.21-3.19-1.43-3.19-3.42,0-1.99,1.2-3.29,3.19-3.41,2.62-.15,5.26-.15,7.88,0,1.97.12,3.17,1.38,3.18,3.4,0,2.03-1.22,3.2-3.18,3.42-1.3.15-2.62.03-3.94.03Z"/>
      <path class="cls-1" d="M184.25,7.33c0,1.23.08,2.48-.02,3.7-.16,2.01-1.35,3.19-3.33,3.27-1.9.07-3.28-1.06-3.42-2.88-.23-2.86-.24-5.77.02-8.62.17-1.81,1.6-2.9,3.5-2.78,1.86.11,3.04,1.23,3.22,3.12.13,1.39.03,2.8.03,4.19,0,0,0,0,0,0Z"/>
      <path class="cls-1" d="M219.09,17.33c-.25.96-.22,1.57-.51,1.88-2.26,2.36-4.43,4.85-6.98,6.85-.7.55-2.88-.06-3.87-.81-1.36-1.04-1.35-2.89-.19-4.2,1.84-2.09,3.77-4.15,5.94-5.88.8-.64,2.54-.67,3.58-.26.93.37,1.48,1.71,2.04,2.42Z"/>
      <path class="cls-1" d="M125.59,60.54c-4.53,0-9.06.02-13.59,0-2.62-.02-3.99-1.18-4.05-3.31-.07-2.19,1.42-3.6,4.06-3.61,9.14-.04,18.28-.04,27.42,0,2.57.01,4.2,1.52,4.12,3.61-.08,1.99-1.64,3.29-4.12,3.31-4.61.03-9.22,0-13.83,0Z"/>
      <path class="cls-1" d="M125.72,88.92c-4.53,0-9.05.03-13.58-.01-2.78-.02-4.19-1.22-4.19-3.42,0-2.16,1.47-3.48,4.18-3.49,9.05-.04,18.11-.04,27.16,0,2.65.01,4.25,1.4,4.26,3.47,0,2.07-1.59,3.42-4.24,3.44-4.53.04-9.05.01-13.58.01Z"/>
      <path class="cls-1" d="M119.27,67.87c2.47,0,4.94-.04,7.41,0,2.33.04,3.78,1.32,3.86,3.28.08,1.97-1.35,3.57-3.58,3.61-5.18.09-10.37.1-15.55,0-2.23-.05-3.62-1.66-3.44-3.69.2-2.18,1.53-3.18,3.65-3.2,2.55-.02,5.1,0,7.65,0Z"/>
      <path class="cls-1" d="M138.85,74.81c-3.01,0-4.67-1.28-4.63-3.58.04-2.3,1.57-3.39,4.76-3.37,2.87.01,4.52,1.24,4.56,3.38.04,2.24-1.71,3.56-4.69,3.56Z"/>
    </g>
  </g>
</svg>