<?xml version="1.0" encoding="UTF-8"?>
<svg id="Layer_2" data-name="Layer 2" xmlns="http://www.w3.org/2000/svg" viewBox="0 0 249.48 250">
  <defs>
    <style>
      .cls-1 {
        stroke-width: 0px;
      }
    </style>
  </defs>
  <g id="Layer_1-2" data-name="Layer 1">
    <g>
      <path class="cls-1" d="M35.58,250H10.23c-5.31-1.51-8.73-4.92-10.23-10.25v-92.29c2.55-7.6,7.96-10.44,15.74-9.99,5.58.32,11.19.09,16.79.06,5.36-.03,9.33,2.24,11.91,6.98.3.55.95,1.27,1.47,1.29,2.65.13,5.3.06,8.17.06,0-1.16,0-2.03,0-2.91,0-17.32,0-34.63,0-51.95,0-25.85,0-51.7,0-77.55,0-6.6,2.88-10.71,8.99-12.97.28-.1.51-.32.77-.48h154.97c7.56,2.59,9.99,8.03,9.96,15.81-.19,48.74-.1,97.47-.1,146.21,0,1,0,2.01,0,2.46,3.67.29,7,.02,10,.9,6.28,1.84,9.91,6.49,10.67,12.92.8,6.79-2.17,11.99-7.97,15.54-25.08,15.31-50.21,30.54-75.23,45.95-6.79,4.18-13.96,6.11-21.92,6.08-33.05-.12-66.1-.05-99.15-.03-1.02,0-2.15.07-3.03.5-2.22,1.1-4.32,2.42-6.47,3.66ZM203.66,25.18h-124.67v3.14c0,38.32,0,76.64,0,114.96,0,3.25-.07,6.51.05,9.76.03.83.48,1.91,1.11,2.4,4.68,3.7,10,6.27,15.95,6.61,8.34.48,16.71.3,25.06.52,2.58.07,5.23.22,7.7.88,12.8,3.42,19.17,13.88,17.11,28.55,2.6-.5,5.07-.73,7.39-1.46,7.57-2.4,15.09-4.98,22.62-7.49,9.22-3.08,18.44-6.17,27.68-9.27V25.18ZM45.91,154.41v83.05h3.24c31.59,0,63.17-.08,94.76.06,6.82.03,12.84-1.68,18.63-5.27,18.7-11.59,37.53-22.95,56.31-34.4,6.24-3.8,12.49-7.58,18.7-11.43,2.74-1.69,4.07-4.24,3.54-7.45-.5-3.07-2.35-5.31-5.44-5.86-1.66-.3-3.57.02-5.2.56-22.78,7.53-45.58,15.02-68.27,22.83-7.25,2.5-14.48,3.81-22.15,3.58-9.17-.28-18.35-.09-27.52-.05-2.27.01-4.55.13-6.79.44-5.94.81-11.02,3.64-15.89,6.97-2.21,1.51-4.67.94-5.97-1.08-1.23-1.91-.74-4.27,1.32-5.77,7.26-5.27,15.21-8.7,24.31-8.83,8.28-.12,16.56-.14,24.84-.06,1.79.02,2.66-.65,3.28-2.19,1.31-3.3,1.28-6.53-.44-9.64-3.17-5.71-8.01-8.89-14.58-9-7.14-.12-14.29-.02-21.44-.04-9.73-.03-18.62-2.79-26.24-8.88-8.56-6.84-18.3-8.59-29.01-7.57ZM212.05,170.96c2.11-.7,3.84-1.45,5.64-1.83,2.13-.44,2.73-1.46,2.73-3.66-.07-50.36-.05-100.72-.06-151.08,0-4.91-1.14-6.07-5.97-6.08-48.64,0-97.28,0-145.92,0-4.96,0-6.1,1.16-6.1,6.22,0,43.12,0,86.24,0,129.36v2.84c2.83.92,5.48,1.77,8.3,2.68v-3.2c0-41.09,0-82.17,0-123.26,0-5.19,1.12-6.33,6.25-6.33,42.96,0,85.91,0,128.87,0,5.17,0,6.25,1.08,6.25,6.3,0,48.16,0,96.33,0,144.49v3.53ZM8.3,193.84c0,14.15,0,28.29,0,42.44,0,3.98,1.44,5.4,5.46,5.4,6.17.01,12.33.02,18.5,0,3.66-.01,5.19-1.52,5.19-5.2.01-28.46.01-56.91,0-85.37,0-3.82-1.45-5.22-5.36-5.23-6.09-.02-12.17-.01-18.26,0-4.22,0-5.54,1.32-5.54,5.52,0,14.15,0,28.29,0,42.44Z"/>
      <path class="cls-1" d="M141.38,140.9c-3.5,3.52-6.8,6.78-10.02,10.09-2.74,2.82-5.89,3.98-9.69,2.53-3.47-1.33-5.21-4.31-5.22-8.79,0-12.12,0-24.23,0-36.49-.39-.16-.74-.31-1.1-.45-4.8-1.95-7.37-5.46-7.31-10.69.02-1.92-.6-3.15-2.31-4.15-5.94-3.48-7.59-9.71-4.19-15.69.91-1.6.93-2.9.02-4.52-3.41-6.01-1.78-12.22,4.13-15.7,1.68-.99,2.33-2.21,2.35-4.13.09-6.88,4.61-11.3,11.58-11.36,1.75-.01,2.84-.64,3.73-2.14,3.74-6.26,9.52-7.77,16.02-4.21,1.45.8,2.66.75,4.09-.04,6.42-3.56,12.23-1.99,15.98,4.32.91,1.53,2.04,2.05,3.77,2.05,6.84.01,11.47,4.58,11.55,11.44.02,1.94.66,3.13,2.35,4.11,5.78,3.36,7.47,9.67,4.16,15.51-.96,1.68-1,3.02-.03,4.73,3.39,5.93,1.68,12.2-4.27,15.67-1.63.95-2.19,2.11-2.19,3.94,0,5.04-2.25,8.78-7.01,10.64-1.59.62-1.48,1.63-1.48,2.85,0,11.63.03,23.26,0,34.89-.02,4.79-2.71,8.06-7.14,8.74-2.86.44-5.25-.6-7.26-2.61-3.44-3.45-6.87-6.9-10.5-10.55ZM174.88,66.54c-.69-.79-1.24-1.85-2.11-2.34-4.31-2.43-6.38-6.03-6.32-10.98.03-2.44-.98-3.39-3.45-3.34-4.87.09-8.36-2.04-10.75-6.24-1.26-2.21-2.42-2.52-4.61-1.23-4.17,2.47-8.25,2.48-12.43.03-2.31-1.36-3.37-1.02-4.75,1.36-2.37,4.09-5.83,6.15-10.6,6.08-2.62-.04-3.44.85-3.47,3.53-.05,4.71-2.01,8.26-6.14,10.61-2.33,1.33-2.67,2.53-1.35,4.77,2.46,4.18,2.42,8.29-.03,12.46-1.25,2.13-.92,3.41,1.25,4.62,4.24,2.37,6.25,5.96,6.28,10.77.02,2.66.82,3.45,3.53,3.45,4.63,0,8.09,1.95,10.43,5.96,1.52,2.6,2.49,2.86,5.11,1.36,3.94-2.25,7.84-2.26,11.79-.03,2.76,1.56,3.62,1.31,5.26-1.5,2.25-3.84,5.56-5.78,10.01-5.79,3.15,0,3.91-.72,3.94-3.84.04-4.56,2.02-7.92,5.93-10.21,2.56-1.5,2.82-2.52,1.32-5.15-2.24-3.95-2.25-7.87,0-11.81.39-.69.67-1.45,1.16-2.53ZM157.83,113.16c-4.88,4.15-9.74,4.55-15.02,1.43-.88-.52-2.68-.06-3.77.5-3.65,1.89-7.26,2.2-10.93.28-1.11-.58-2.09-1.39-3.13-2.09v32.46c3.31-3.37,6.26-6.39,9.23-9.39,5.09-5.12,9.26-5.1,14.41.07,2.95,2.97,5.85,5.98,9.21,9.41v-32.67Z"/>
      <path class="cls-1" d="M166.29,74.95c-.04,13.95-11.25,25.14-25.11,25.07-13.67-.07-24.78-11.41-24.72-25.23.06-13.72,11.45-24.97,25.13-24.82,13.68.15,24.74,11.33,24.7,24.98ZM157.97,75.09c.03-9.22-7.25-16.65-16.44-16.76-9.1-.11-16.71,7.36-16.77,16.46-.07,9.27,7.37,16.85,16.6,16.91,9.08.05,16.57-7.44,16.6-16.61Z"/>
    </g>
  </g>
</svg>