<?xml version="1.0" encoding="UTF-8"?>
<svg id="Layer_2" data-name="Layer 2" xmlns="http://www.w3.org/2000/svg" viewBox="0 0 287.31 250">
  <defs>
    <style>
      .cls-1 {
        stroke-width: 0px;
      }
    </style>
  </defs>
  <g id="Layer_1-2" data-name="Layer 1">
    <g>
      <path class="cls-1" d="M287.31,163.14c-1.29,2.31-3.28,2.92-5.86,2.9-10.29-.11-20.58-.05-30.86-.05-5.93,0-6.81-.86-6.95-6.75-.47-20.3-6.71-38.69-18.33-55.3-.53-.76-1.11-1.49-1.93-2.58-.7.9-1.31,1.64-1.88,2.42-3.69,5.06-7.33,10.16-11.07,15.18-1.71,2.29-4.14,2.65-6.12,1.15-1.89-1.44-2.17-3.69-.71-5.98.4-.63.85-1.23,1.29-1.83,9.45-13.01,18.91-26.02,28.36-39.03.55-.75,1.08-1.52,1.28-2.73-20.98,15.24-41.96,30.49-63.01,45.78,7.75,14.96,5.91,28.56-5.41,40.97,3.57.75,6.12.5,8.39-2.93,5.14-7.8,10.87-15.21,16.37-22.77.38-.53.76-1.08,1.2-1.55,1.62-1.74,3.49-2.11,5.53-.81,1.89,1.2,2.46,3.64,1.16,5.69-1.5,2.36-3.23,4.58-4.87,6.85-4.43,6.11-8.87,12.22-13.4,18.46,1.06.68,1.92,1.2,2.75,1.77,7.49,5.14,11.84,12.17,12.11,21.32.24,8.51.11,17.02.07,25.54-.02,3.28-1.56,4.78-4.85,4.78-31.24.02-62.48.02-93.72,0-3.46,0-4.94-1.49-4.96-4.97-.04-8.14-.14-16.28.03-24.41.32-14.9,11.47-26.09,26.33-26.66.9-.03,1.8,0,3.37,0-7.75-7.93-11.38-16.86-10.35-27.32.82-8.32,4.44-15.35,10.67-21,11.07-10.04,29.58-12.32,44.17.55,12.54-9.11,25.14-18.26,38.14-27.71-2.35-1.63-4.39-3.16-6.54-4.53-59.23-37.81-137.73-4.83-152.05,63.97-1.27,6.09-1.5,12.42-1.98,18.65-.36,4.57-1.4,5.77-5.98,5.78-10.76,0-21.51.01-32.27,0-4.03,0-5.53-1.39-5.42-5.34,1.35-49.83,22.55-89.03,63.15-117.81,2.76-1.96,5.13-1.73,6.65.4,1.6,2.24.87,4.44-1.97,6.6-5.64,4.27-11.21,8.62-16.68,12.83,6.61,6.63,12.78,12.83,18.8,18.87,5.46-3.95,10.85-8.31,16.67-11.97,15.23-9.57,31.91-14.93,49.91-15.92,2.31-.13,2.99-.89,2.95-3.17-.14-7.01-.04-14.03-.06-21.05,0-.82-.1-1.63-.21-3.13-6.74.82-13.32,1.4-19.82,2.48-11.39,1.88-22.27,5.5-32.77,10.33-1.22.56-2.95,1.28-3.92.82-1.39-.66-2.84-2.18-3.27-3.62-.59-1.96.79-3.62,2.72-4.34,8.21-3.07,16.25-6.89,24.71-8.95,48.95-11.88,92.93-1.76,131.49,30.9,1.66,1.41,2.76,1.73,4.45.24,1.67-1.47,3.58-2.68,5.69-4.23-1.04-.98-1.94-1.88-2.89-2.71-28.36-24.93-61.44-37.78-99.15-38.81-.84-.02-1.68-.01-2.52-.06-2.78-.17-4.37-1.64-4.42-4.06C139.47,1.82,141.2-.01,144.03,0c4.21.02,8.42.13,12.61.49,34.46,2.95,65.01,15.44,91.47,37.78,3.14,2.65,6.14,5.48,9.11,8.32,2.63,2.51,2.74,4.18.64,7.11-2.66,3.71-5.36,7.4-7.81,10.78,5.13,7.01,10.44,13.56,14.96,20.61,12.81,19.95,20.01,41.86,21.81,65.52.06.82.32,1.62.49,2.42v10.1ZM124.03,205.02h39.24c0-2.17-.02-4.13,0-6.09.05-3.12,1.55-4.91,4.11-4.96,2.65-.04,4.25,1.82,4.3,5.08.03,2.01,0,4.03,0,6h15.3c0-7.09.13-14.01-.03-20.91-.24-10.02-7.78-17.9-17.78-18.05-17.01-.25-34.04-.25-51.05,0-10,.15-17.5,8.04-17.8,18.05-.12,4.2-.04,8.42-.04,12.62,0,2.76,0,5.52,0,8.47h15.33c0-2.29-.02-4.24,0-6.19.05-3.26,1.64-5.12,4.3-5.08,2.57.05,4.06,1.83,4.11,4.96.03,1.96,0,3.91,0,6.09ZM44.9,69.39c-22.88,24.91-35,54.16-36.45,87.98h26.73c1.37-26.58,10.96-49.62,28.61-69.09-6.32-6.33-12.46-12.47-18.89-18.89ZM244.74,71.98c-.7.88-1.23,1.5-1.71,2.16-4.34,5.97-8.6,12-13.06,17.87-1.28,1.69-1.1,2.7.12,4.3,10.42,13.68,17.25,28.98,20.24,45.92.89,5.02,1.37,10.11,2.04,15.15h26.49c-1.46-32.51-12.7-60.82-34.12-85.4ZM147.87,26.62c0,8.67-.05,16.88.09,25.08.01.63,1.27,1.65,2.07,1.77,3.22.5,6.51.57,9.74,1.06,18.45,2.81,35.1,9.89,49.98,21.18.63.48,2.04.8,2.56.43,7.09-4.99,14.08-10.12,21.29-15.36-24.63-21.42-52.92-32.76-85.73-34.17ZM143.39,157.57c13.33.09,24.24-10.55,24.38-23.77.14-13.38-10.68-24.41-24.01-24.48-13.21-.07-24.16,10.76-24.24,23.96-.08,13.3,10.63,24.19,23.87,24.28Z"/>
      <path class="cls-1" d="M287.31,181.1c-1.51,2.05-3.55,2.67-6.06,2.65-10.47-.08-20.94-.03-31.4-.04-.93,0-1.88-.02-2.78-.22-2.23-.5-3.38-2.07-3.25-4.27.13-2.19,1.41-3.64,3.72-3.85,1.3-.12,2.61-.08,3.92-.08,9.81,0,19.63.06,29.44-.05,2.57-.03,4.74.43,6.41,2.48v3.37Z"/>
      <path class="cls-1" d="M100.46,231.76v9.63h86.3v-9.63h-3.34c-17.48,0-34.96,0-52.44,0-1.03,0-2.33.32-3.02-.18-1.31-.94-3.04-2.3-3.16-3.61-.12-1.32,1.3-3.02,2.45-4.12.65-.62,2.13-.48,3.23-.48,19.63-.02,39.26-.02,58.89-.01,4.88,0,6.05,1.22,6.06,6.18,0,4.67,0,9.35,0,14.02,0,5.33-1.1,6.45-6.36,6.45-19.44,0-38.88,0-58.33,0-10.75,0-21.5,0-32.25,0-5.63,0-6.62-1.01-6.63-6.74,0-4.95-.04-9.91.02-14.86.04-3.49,1.46-4.96,4.94-5.03,3.83-.08,7.67-.07,11.5,0,3.06.06,4.94,1.71,4.98,4.19.03,2.57-1.9,4.16-5.17,4.2-2.5.03-5,0-7.67,0Z"/>
      <path class="cls-1" d="M21.78,175.3c5.52,0,11.03-.03,16.55,0,3.31.02,5.21,1.6,5.19,4.18-.02,2.57-1.95,4.2-5.23,4.21-11.03.04-22.07.04-33.1,0-3.29-.01-5.19-1.66-5.18-4.25,0-2.58,1.89-4.12,5.22-4.14,5.52-.03,11.03,0,16.55,0Z"/>
      <path class="cls-1" d="M265.31,201.84c-1.96,0-3.92.08-5.87-.02-2.63-.14-4.28-1.85-4.27-4.22,0-2.4,1.66-4.08,4.31-4.14,4.01-.08,8.02-.07,12.03,0,2.62.04,4.4,1.73,4.47,4.04.08,2.38-1.78,4.17-4.51,4.35-.19.01-.37,0-.56,0-1.86,0-3.73,0-5.59,0h0Z"/>
      <path class="cls-1" d="M22.11,193.44c1.96,0,3.92-.07,5.87.02,2.47.12,4.07,1.74,4.14,4.03.06,2.28-1.47,4.19-3.88,4.28-4.28.16-8.58.15-12.86.01-2.39-.08-4.07-2-4.07-4.18,0-2.3,1.79-4.05,4.37-4.15,2.14-.08,4.29-.02,6.43-.01Z"/>
    </g>
  </g>
</svg>