<?xml version="1.0" encoding="UTF-8"?>
<svg id="Layer_2" data-name="Layer 2" xmlns="http://www.w3.org/2000/svg" viewBox="0 0 245.4 250">
  <defs>
    <style>
      .cls-1 {
        stroke-width: 0px;
      }
    </style>
  </defs>
  <g id="Layer_1-2" data-name="Layer 1">
    <g>
      <path class="cls-1" d="M241.5,165.38h3.9v7.9h-98.64c-9.8,32.91-47.92,51.33-81.98,33.17-1.62,1.78-3.35,3.71-5.11,5.61-2.32,2.49-5.13,3.57-8.58,3.32-.86-.06-2.14.73-2.66,1.5-5.66,8.33-11.14,16.77-16.8,25.1-6.33,9.32-18.56,10.74-26.37,3.18-7.96-7.7-6.75-20.32,2.69-26.78,8.23-5.64,16.56-11.13,24.9-16.61,1.43-.94,2.05-1.84,1.8-3.62-.4-2.92.73-5.45,2.82-7.5,1.97-1.93,4.01-3.8,5.84-5.53-1.74-4.13-3.31-7.82-4.95-11.71H4.21v-7.98c1.16-.06,2.3-.11,3.85-.19,0-.87,0-1.74,0-2.62,0-7.81,0-15.62,0-23.43,0-5.02,1.06-6.11,5.98-6.11,8.38,0,16.77-.05,25.15.04,1.79.02,2.77-.43,3.67-2.13,6.23-11.76,15.5-20.32,27.73-25.56,1.51-.65,1.93-1.42,1.9-2.97-.1-4.28-.06-8.57-.03-12.85.02-3.46,1.44-4.9,4.89-4.91,10.14-.02,20.29-.02,30.43,0,3.45,0,4.88,1.45,4.9,4.91.03,4.2.09,8.4-.03,12.6-.05,1.75.49,2.56,2.14,3.31,16.66,7.53,27.55,20.11,32.34,37.83,1.72,6.37,2.31,12.88,1.4,19.46-.1.73-.08,1.48-.12,2.37h4.53c0-1.03,0-2.01,0-2.99,0-33.26,0-66.52,0-99.79,0-4.82,1.1-5.94,5.89-5.94,9.73,0,19.45,0,29.18,0,3.78,0,5.17,1.38,5.17,5.15.01,12.93,0,25.86,0,39h-7.99v-35.95h-24.01v100.5h23.88v-52.06h8.09v52.1h8.09v-2.9c0-29.31,0-58.63,0-87.94,0-4.64,1.16-5.8,5.78-5.8,9.73,0,19.45,0,29.18,0,3.94,0,5.29,1.34,5.29,5.29,0,29.4,0,58.8,0,88.19,0,.99,0,1.99,0,3.34ZM140.88,157.21c-.02-26.66-21.71-48.36-48.33-48.34-26.61.01-48.27,21.75-48.26,48.41.01,26.65,21.72,48.36,48.33,48.35,26.6-.01,48.28-21.76,48.26-48.42ZM233.27,165.21v-88.47h-23.83v88.47h23.83ZM17.72,241.92c2.63-.11,5.22-1.43,7.03-4.14,5.82-8.72,11.58-17.48,17.48-26.14,1.2-1.76-.1-2.34-.93-3.28-.89-1.02-1.66-1.65-3.12-.58-2.9,2.14-5.96,4.04-8.96,6.05-5.71,3.82-11.46,7.59-17.12,11.48-3.57,2.45-4.86,6.5-3.55,10.4,1.24,3.71,4.7,6.22,9.17,6.22ZM38.52,141.32h-22.28v23.87h20.67c-1.4-8.13-.51-15.98,1.61-23.87ZM104.57,92.91h-23.87v8.85c4.08-.33,7.99-.89,11.9-.89,3.96,0,7.92.58,11.97.91v-8.87ZM47.08,192.06c-.97,1.07-2.51,2.51-3.7,4.2-.43.62-.41,2.18.06,2.71,2.4,2.67,4.97,5.2,7.6,7.64.47.43,1.8.59,2.28.24,1.86-1.34,3.54-2.93,4.64-3.86-3.88-3.9-7.18-7.21-10.88-10.93Z"/>
      <path class="cls-1" d="M112.78,61.82c5.17-5.07,11.14-6.78,18.14-4.15.47.18,1.44-.21,1.82-.65,8.77-10.17,17.47-20.4,26.25-30.55,1.14-1.32.22-2.12-.27-3.1-4.22-8.43-.36-18.68,8.37-22.21,8.7-3.51,18.64,1.26,21.35,10.29.43,1.43.62,2.94.96,4.59,5.43,1.36,10.95,2.68,16.43,4.17,1.65.45,2.01-.62,2.69-1.53,4.35-5.79,11.44-8,18.12-5.66,6.57,2.3,10.9,8.46,10.82,15.42-.09,8.07-6.34,14.94-14.43,15.84-8,.89-15.73-4.55-17.23-12.55-.51-2.72-1.54-3.88-4.2-4.38-4.19-.79-8.3-2-12.43-3.07-1.32-.34-2.16-.23-3.1,1.1-4.4,6.17-11.25,8.22-18.45,5.91-.73-.24-2.05-.06-2.5.45-8.96,10.34-17.82,20.75-26.7,31.15-.1.12-.14.3-.21.45,3.91,8.99,3.21,15.57-2.23,20.82-4.88,4.7-12.18,5.88-18.18,2.94-6.54-3.22-9.72-9.51-8.86-17.92-6.66-3.35-13.44-6.75-19.32-9.71-3.96,1.81-7.13,3.77-10.57,4.66-2.35.61-5.07-.35-7.63-.45-.83-.03-2.02.17-2.47.73-9.02,11.16-17.93,22.41-26.95,33.57-1.04,1.29-.36,2.06.2,3.08,3.43,6.2,2.59,13.47-2.14,18.7-4.49,4.97-11.77,6.6-17.97,4.03-6.38-2.64-10.39-9.09-9.95-16.02.63-10.14,10.67-17.23,20.48-14.31,1.78.53,2.64.2,3.73-1.17,8.54-10.8,17.13-21.54,25.76-32.26,1.05-1.31,1.4-2.22.41-3.9-3.52-5.99-2.61-13.3,2-18.47,4.56-5.11,11.85-6.78,18.15-4.14,6.3,2.64,10.35,8.92,9.83,15.8-.16,2.06.45,2.89,2.21,3.73,5.9,2.8,11.71,5.8,17.55,8.71.13.07.31.05.54.08ZM181.12,16.15c.01-4.37-3.59-8.03-7.95-8.08-4.38-.05-8.05,3.52-8.13,7.9-.08,4.48,3.61,8.23,8.08,8.21,4.36-.02,7.99-3.66,8-8.03ZM229.41,28.27c.02-4.38-3.57-8.04-7.94-8.1-4.38-.05-8.06,3.5-8.14,7.89-.09,4.48,3.59,8.24,8.06,8.23,4.36-.01,8-3.64,8.02-8.02ZM76.39,40.33c-4.38.05-7.96,3.69-7.95,8.08.01,4.38,3.64,8.01,8,8.03,4.47.02,8.16-3.73,8.08-8.21-.08-4.37-3.76-7.95-8.13-7.9ZM124.41,80.63c4.36.2,8.18-3.26,8.41-7.62.23-4.37-3.19-8.22-7.54-8.48-4.47-.27-8.37,3.26-8.53,7.73-.16,4.38,3.31,8.17,7.66,8.36ZM36.23,108.96c.05-4.38-3.53-8.07-7.89-8.15-4.37-.08-8.08,3.47-8.19,7.84-.11,4.48,3.55,8.26,8.01,8.28,4.36.02,8.02-3.6,8.07-7.97Z"/>
      <path class="cls-1" d="M132.83,157.57c-.12,22.2-18.39,40.16-40.7,39.99-22.04-.16-39.9-18.41-39.79-40.64.11-22.2,18.37-40.14,40.69-39.98,22.03.15,39.92,18.41,39.8,40.63ZM108.68,165.21c0-11.7.04-23.12-.08-34.53,0-.77-.99-1.85-1.79-2.24-9.4-4.6-18.85-4.57-28.34-.16-1.48.69-2.05,1.52-2.04,3.23.09,10.58.04,21.16.05,31.75,0,.64.1,1.28.16,1.96h32.03ZM120.36,173.58h-55.56c6.74,10.27,15.81,15.87,27.79,15.86,11.97,0,21.06-5.57,27.77-15.86ZM68.31,136.62c-6.62,5.95-9.83,19.78-6.7,28.54h6.7v-28.54ZM116.91,136.66v28.56h6.62c3.13-8.85-.08-22.68-6.62-28.56Z"/>
    </g>
  </g>
</svg>