<?xml version="1.0" encoding="UTF-8"?>
<svg id="Layer_2" data-name="Layer 2" xmlns="http://www.w3.org/2000/svg" viewBox="0 0 249.64 250">
  <defs>
    <style>
      .cls-1 {
        stroke-width: 0px;
      }
    </style>
  </defs>
  <g id="Layer_1-2" data-name="Layer 1">
    <g>
      <path class="cls-1" d="M161.02,96.31c1.38,2.36,1.21,4.59-.49,6.74-.48.61-.86,1.3-1.29,1.95-1.62,2.52-1.47,6.55.56,8.64.58.6,1.71.73,2.63.91q8,1.6,8,9.76c0,1.91.06,3.82-.03,5.72-.1,2.33-1.21,3.93-3.62,4.42-.76.15-1.52.5-2.28.48-4.34-.08-5.81,2.92-6.81,6.34-.18.62.09,1.51.44,2.11.9,1.58,1.96,3.06,2.93,4.6,1.33,2.11,1.18,4.11-.59,5.91-2.31,2.35-4.65,4.67-6.99,6.99-1.87,1.86-3.89,2.09-6.07.53-.56-.4-1.24-.67-1.73-1.14-2.5-2.36-5.07-2.57-8.13-.88-1.46.8-2.14,1.58-2.49,3.19-1.78,8.2-.73,8.37-10.23,8.21-.35,0-.69,0-1.04,0q-7.81,0-9.41-7.75c-.82-3.96-5.6-6.01-8.96-3.84-.87.56-1.76,1.1-2.62,1.7-2,1.4-4.05,2.42-5.69,1.13,2.54,5.12,5.85,10.54,7.99,16.39,4.55,12.44,4.01,25.02-.85,37.34-.52,1.32-1.72,2.8-2.95,3.27-1.09.42-2.92-.12-3.98-.87-1.68-1.18-1.46-3.11-.95-4.99,1.09-4,2.44-7.97,3.02-12.05,3.36-23.71-14.27-47.02-38.06-50.56-24.83-3.7-47.32,12.08-52.28,36.73-1.66,8.27-.87,16.39,1.98,24.31.2.57.48,1.12.66,1.69.76,2.46-.11,4.56-2.2,5.43-2.22.92-4.73.07-5.43-2.48-1.58-5.73-3.6-11.52-3.95-17.37-1.94-32.36,24.75-58.91,57.07-57.11,10.55.59,20.13,4.09,28.69,10.33.63.46,1.26.91,1.89,1.36.07.05.17.05.55.15-2.33-3.84.53-6.25,2.19-8.95,2.26-3.68.33-8.36-3.95-9.28q-7.57-1.64-7.57-9.29c0-1.99,0-3.99,0-5.98,0-2.52,1.2-4.08,3.71-4.57.68-.13,1.35-.42,2.03-.42,4.25.04,5.97-2.71,6.87-6.27.16-.63-.06-1.49-.4-2.08-.94-1.66-2.03-3.22-3.06-4.83-1.3-2.04-1.11-3.94.58-5.66,2.37-2.41,4.75-4.81,7.15-7.2,1.7-1.7,3.59-1.94,5.64-.63.58.37,1.27.65,1.74,1.13,3.01,3.15,6.24,2.45,9.48.53.56-.33,1.02-1.08,1.21-1.73.52-1.83.89-3.7,1.3-5.56.53-2.4,2.1-3.52,4.46-3.55,3.29-.05,6.59-.05,9.88,0,2.47.04,4.08,1.23,4.59,3.74.14.68.46,1.35.44,2.03-.08,4.29,2.7,5.96,6.25,6.86.64.16,1.51-.01,2.1-.34,1.51-.84,2.92-1.87,4.38-2.79,2.72-1.71,4.12-1.54,6.47.65.93.87,1.97,1.64,2.96,2.45,1.42,1.49,2.83,2.98,4.25,4.46ZM149.69,97.2c-1.57.99-3.07,1.85-4.47,2.84-2.07,1.46-4.01,1.51-6.28.25-2.17-1.21-4.54-2.14-6.93-2.85-2.37-.71-3.68-2.07-4.1-4.47-.31-1.77-.76-3.52-1.16-5.31h-4c-.41,1.89-.83,3.66-1.15,5.45-.43,2.39-1.75,3.72-4.15,4.41-2.39.69-4.73,1.7-6.92,2.88-2.26,1.22-4.22,1.18-6.29-.29-1.47-1.04-3.03-1.95-4.49-2.87q-3.05,2.54-1.03,5.65c.42.65.8,1.35,1.26,1.97,1.42,1.9,1.31,3.72.22,5.8-1.23,2.36-2.21,4.87-3.07,7.4-.69,2.01-1.85,3.26-3.93,3.69-1.93.4-3.85.85-5.8,1.27v3.96c1.74.4,3.33.88,4.95,1.11,2.78.39,4.18,1.97,4.92,4.61.61,2.15,1.5,4.27,2.62,6.19,1.47,2.5,1.37,4.69-.3,6.99-1,1.37-1.82,2.86-2.47,3.9.94,1.3,1.64,2.27,2.36,3.27,1.84-1.16,3.35-2.02,4.75-3.01,2.16-1.54,4.2-1.48,6.53-.2,2.1,1.16,4.4,2.04,6.71,2.71,2.28.66,3.55,1.95,4.02,4.23.39,1.91.89,3.8,1.32,5.57h3.94c.39-1.71.87-3.3,1.09-4.92.38-2.76,1.83-4.3,4.55-4.95,1.75-.42,3.6-.98,5.04-1.99,3.42-2.42,6.33-1.75,9.46.57,2.97,2.19,3.08,2.03,5.62-1.02-.97-1.54-1.91-3.19-3.01-4.72-1.37-1.91-1.42-3.68-.31-5.8,1.27-2.44,2.3-5.03,3.2-7.63.7-2.03,1.91-3.22,3.97-3.64,1.93-.39,3.84-.83,5.78-1.24v-3.97c-1.63-.38-3.19-.9-4.79-1.09-2.88-.35-4.47-1.84-5.16-4.66-.43-1.75-1-3.61-2.05-5.02-2.52-3.4-1.84-6.26.54-9.39,2.23-2.93,2.05-3.07-.99-5.67Z"/>
      <path class="cls-1" d="M240.82,188.41c-.28-13.34-.55-26.2-.84-39.57-11.65,6.54-22.85,12.82-34.52,19.37,3.05,1.74,5.73,3.24,8.38,4.77,3.56,2.05,4.16,3.8,2.27,7.47-8.98,17.44-22.5,30.4-39.61,39.7-11.83,6.43-24.49,10.46-37.86,12.18-3.15.41-5.16-.76-5.56-3.22-.42-2.57,1.16-4.51,4.4-4.96,11.51-1.59,22.5-4.87,32.83-10.2,15.21-7.85,27.51-18.88,36.36-33.63.18-.29.31-.61.66-1.31-2.28-1.32-4.57-2.64-6.85-3.95-1.65-.95-3.32-1.87-4.96-2.84-3.84-2.27-3.84-5.86.06-8.06,12.75-7.19,25.53-14.34,38.29-21.5,2.57-1.44,5.1-2.95,7.71-4.31,3.34-1.74,6.38.03,6.46,3.83.4,17.6.78,35.21,1.09,52.81.08,4.31-3.02,6-6.82,3.85-4.06-2.29-8.09-4.62-12.14-6.94-3.07,4.11-5.87,8.18-8.99,11.98-20.09,24.48-45.93,39.07-77.03,44.49-13.28,2.31-26.58,2.01-39.86-.12-2.96-.47-4.73-2.39-4.46-4.77.29-2.56,2.42-4.01,5.64-3.48,14.63,2.39,29.2,2.2,43.66-1.06,32-7.23,56.81-24.76,74.4-52.48.23-.37.45-.74.68-1.11,2.29-3.63,4.04-4.09,7.72-2,2.83,1.61,5.66,3.22,8.88,5.06Z"/>
      <path class="cls-1" d="M19.29,58.07c2.96-3.99,5.64-7.93,8.65-11.6C49.33,20.42,76.81,5.36,110.2,1.02c11.61-1.51,23.17-1.06,34.71.7,2.07.32,3.91.95,4.66,3.16,1.01,3.01-1.56,5.6-5.03,5.27-6.72-.63-13.47-1.81-20.18-1.61-42.15,1.24-75.14,19.19-98.24,54.77-.38.58-.73,1.18-1.1,1.76-1.97,3.08-3.8,3.57-6.96,1.8-2.99-1.68-5.96-3.41-9.34-5.35.28,13.38.55,26.24.83,39.64,11.62-6.52,22.82-12.81,34.5-19.36-2.89-1.68-5.45-3.18-8.02-4.65-4.07-2.33-4.61-3.8-2.43-7.98,9.78-18.73,24.66-32.16,43.45-41.43,8.03-3.96,16.49-6.74,25.23-8.67,2.95-.65,5.15.49,5.72,2.95.55,2.38-.95,4.49-3.9,5.14-15.21,3.34-29.07,9.54-41.22,19.38-8.36,6.77-15.36,14.71-20.85,24.38,3.76,2.14,7.41,4.24,11.08,6.31,1.85,1.05,3.62,2.1,3.58,4.64-.04,2.41-1.75,3.38-3.53,4.38-14.81,8.29-29.61,16.6-44.42,24.89-4.42,2.47-7.23.86-7.34-4.16-.37-16.99-.72-33.99-1.1-50.98-.04-2.04-.09-4.06,1.96-5.28,2.05-1.23,3.8-.24,5.57.78,3.8,2.21,7.64,4.37,11.45,6.54Z"/>
      <path class="cls-1" d="M141.42,56.57c.05-30.61,21.58-53.83,50.01-56.37,27.05-2.42,52.24,17.05,57.28,44.23,1.93,10.42.87,20.53-3.14,30.32-1.06,2.58-3.13,3.6-5.35,2.83-2.24-.78-3.21-3.15-2.37-5.83.18-.58.45-1.12.66-1.7,3.86-10.89,3.84-21.76-.36-32.53-7.42-19.05-27.53-31.37-47.03-28.92-21.89,2.75-38.24,18.64-40.96,39.71-.99,7.65-.1,15.03,2.62,22.22.15.4.33.8.45,1.22.73,2.46-.15,4.55-2.26,5.4-2.24.9-4.4-.03-5.46-2.52-2.79-6.54-4.05-13.4-4.08-18.06Z"/>
      <path class="cls-1" d="M161.02,96.31c-1.42-1.49-2.83-2.98-4.25-4.46.18-1.74-.15-3.74.61-5.17,5.33-9.99,13.78-15.38,25.09-15.74,8.74-.28,17.51-.3,26.25,0,11.42.4,19.83,5.99,25.25,16.02,1.51,2.8,1.19,4.16-1.17,6.44-18.71,18.11-48.5,19.98-69.41,4.37-.74-.55-1.59-.97-2.39-1.45ZM225.38,88.69c-4.04-5.8-9.42-9.2-16.33-9.41-9-.27-18.01-.28-27.01,0-6.99.22-12.41,3.64-16.33,9.42,14.51,14.86,44.84,14.87,59.68-.01Z"/>
      <path class="cls-1" d="M54.13,212.88c5.71,0,11.5-.6,17.11.13,9.65,1.26,16.62,6.9,21.2,15.44,1.52,2.84,1.23,4.21-1.08,6.46-20.38,19.87-53.97,19.98-74.35.25-2.63-2.55-2.92-3.87-1.13-7.09,5.49-9.91,13.94-15.15,25.25-15.6,4.33-.17,8.67-.03,13-.03,0,.15,0,.29,0,.44ZM24.19,230.28c16.68,15.68,45,14.37,59.6-.1-3.93-5.69-9.31-9.09-16.22-9.31-9-.28-18.01-.28-27.01,0-7,.21-12.43,3.62-16.37,9.42Z"/>
      <path class="cls-1" d="M195.4,62.53c-11.45-.05-20.75-9.49-20.68-21,.08-11.46,9.54-20.73,21.04-20.63,11.32.1,20.59,9.5,20.57,20.86-.02,11.45-9.46,20.81-20.93,20.76ZM195.65,29.23c-6.8-.05-12.49,5.47-12.6,12.24-.11,6.91,5.49,12.68,12.37,12.73,6.83.05,12.47-5.44,12.58-12.24.11-6.95-5.44-12.68-12.35-12.73Z"/>
      <path class="cls-1" d="M54.2,162.48c11.46.08,20.72,9.54,20.61,21.07-.11,11.45-9.61,20.7-21.12,20.56-11.33-.14-20.53-9.55-20.48-20.94.05-11.47,9.49-20.76,20.99-20.68ZM53.95,195.78c6.82.03,12.45-5.48,12.54-12.28.09-6.95-5.48-12.65-12.4-12.68-6.8-.03-12.47,5.51-12.56,12.28-.09,6.91,5.53,12.65,12.42,12.69Z"/>
      <path class="cls-1" d="M191.29,130.54c-2.45,22.83-13.65,40.77-34.18,52.66-8.61,4.99-18.02,7.51-27.91,8.27-2.53.19-4.5-1.39-4.74-3.76-.24-2.41,1.43-4.24,4.3-4.48,11.13-.94,21.34-4.42,30.33-11.11,14.3-10.64,22.13-24.94,23.87-42.64.32-3.29,2.45-5.11,5.08-4.35,2.32.66,3.29,2.37,3.25,5.41Z"/>
      <path class="cls-1" d="M58.36,118.87c2.13-20.24,11.76-36.86,29.03-48.93,9.65-6.74,20.46-10.39,32.18-11.37,2.76-.23,4.82,1.21,5.15,3.61.33,2.41-1.24,4.37-4.11,4.63-11.77,1.07-22.43,4.99-31.7,12.36-12.65,10.07-20.09,23.12-22.01,39.25-.08.69-.17,1.38-.29,2.06-.44,2.45-2.26,4.03-4.43,3.85-2.3-.19-3.94-2.2-3.82-5.46Z"/>
      <path class="cls-1" d="M121.1,25.05c-2.72.03-4.62-1.67-4.63-4.14-.01-2.47,1.88-4.19,4.6-4.18,2.57.01,4.42,1.66,4.51,4.01.09,2.46-1.8,4.28-4.47,4.31Z"/>
      <path class="cls-1" d="M120.18,233.26c-2.67,0-4.59-1.8-4.54-4.25.05-2.36,1.88-4.04,4.45-4.07,2.73-.04,4.63,1.64,4.66,4.11.03,2.47-1.87,4.21-4.57,4.21Z"/>
      <path class="cls-1" d="M145.57,125.09c-.04,11.47-9.47,20.79-20.96,20.72-11.45-.07-20.74-9.53-20.64-21.04.09-11.35,9.45-20.6,20.83-20.58,11.48.01,20.81,9.4,20.77,20.91ZM137.25,124.89c-.05-6.79-5.67-12.37-12.47-12.38-6.92,0-12.54,5.66-12.49,12.6.05,6.81,5.64,12.36,12.46,12.37,6.93,0,12.55-5.66,12.5-12.59Z"/>
    </g>
  </g>
</svg>