<?xml version="1.0" encoding="UTF-8"?>
<svg id="Layer_2" data-name="Layer 2" xmlns="http://www.w3.org/2000/svg" viewBox="0 0 190.84 250">
  <defs>
    <style>
      .cls-1 {
        stroke-width: 0px;
      }
    </style>
  </defs>
  <g id="Layer_1-2" data-name="Layer 1">
    <g>
      <path class="cls-1" d="M3.64,250c-2.69-1.24-3.61-3.34-3.58-6.28.11-11.06.36-22.14-.03-33.19-.65-18.82,8.09-31.93,23.92-41.01,10.31-5.91,21.53-9.47,32.86-12.78,3.51-1.02,7-2.12,10.53-3.05,1.46-.38,1.9-1.09,1.86-2.55-.1-3.5.04-7-.09-10.49-.03-.82-.52-1.92-1.16-2.36-10.55-7.28-17.47-17.09-20.61-29.51-.34-1.36-1.03-1.55-2.22-1.59-2.11-.07-4.26-.08-6.3-.55-7.71-1.8-13.26-8.25-13.5-16.2-.13-4.16.8-8.34,1.1-12.53.2-2.75.19-5.52.2-8.28.02-10.22,1.98-20.02,6.25-29.34C45.01,13.76,72.23-1.92,100.47.19c31.77,2.37,55.84,25.64,61.9,53.06,1.04,4.73,1.41,9.63,1.86,14.48.61,6.68,1.91,13.47,1.27,20.05-.88,8.9-.9,17.79-1.39,26.68-.36,6.61-5.62,11.61-12.28,12.12-4.86.37-9.76.22-14.64.17-1.54-.02-2.43.59-3.5,1.65-3.34,3.31-6.82,6.49-10.4,9.52-1.12.95-1.63,1.76-1.59,3.21.1,3.25.14,6.51-.01,9.76-.08,1.7.52,2.36,2.11,2.85,10.31,3.22,20.65,6.34,30.83,9.93,7.53,2.66,14.52,6.53,20.75,11.64,10.27,8.41,15.47,19.21,15.42,32.52-.04,11.96-.07,23.92.04,35.88.03,2.94-.9,5.03-3.58,6.28H61.75c-2.91-2.08-3.83-3.87-3.15-6.16.76-2.58,2.56-3.6,6.4-3.6,2.92,0,5.84,0,8.85,0,2.01-8.78,3.73-17.46,6.04-25.99,1.51-5.55,1.53-10.77-.45-16.14-1.01-2.76-1.57-5.68-2.39-8.74-1.62,1.08-2.89,1.95-4.17,2.8-3.91,2.59-6.56,1.92-8.71-2.24-3.43-6.64-6.83-13.29-10.25-19.94-.32-.63-.72-1.21-1.09-1.83-1.58.49-2.98.9-4.36,1.37-8.88,3-17.55,6.43-25.16,12.08-8.96,6.65-13.65,15.41-13.48,26.72.14,9.76.03,19.52.03,29.28v2.63c1.76,0,3.28,0,4.81,0,1.55,0,3.09-.05,4.64.02,3.18.14,5.16,2.39,4.9,5.42-.19,2.26-1.76,3.34-3.49,4.33H3.64ZM55.78,83.98c0,4.93-.31,10.15.06,15.31,1.12,15.81,8.98,27.41,23.33,33.92,14.29,6.48,28.04,4.49,40.71-4.79.49-.36,1.07-.6,1.61-.89-.17-.24-.35-.49-.52-.73h-2.62c-6.99,0-13.99.01-20.98-.01-1.13,0-2.3-.05-3.38-.33-2.11-.55-3.49-2.63-3.4-4.79.1-2.29,1.76-4.19,4.04-4.52.88-.13,1.78-.11,2.68-.11,10.17,0,20.33-.03,30.5.03,1.5,0,2.47-.38,3-1.83,1.05-2.89,2.84-5.7,3.12-8.65.77-8.06.94-16.18,1.24-24.28.02-.61-.64-1.48-1.23-1.84-4.34-2.71-8.66-5.46-13.14-7.93-5.43-3-11.06-3.12-16.93-.97-9.22,3.38-18.41,6.93-27.86,9.51-6.42,1.75-13.26,1.97-20.22,2.91ZM113.81,189.39c-1.37,5.13-2.73,9.95-3.91,14.82-.33,1.36-.36,2.9-.08,4.27,1.16,5.57,2.48,11.1,3.76,16.64,1.16,5.03,2.33,10.05,3.46,14.92h63.95c0-11.42.08-22.64-.03-33.87-.09-8.68-3.58-15.93-9.99-21.73-9.42-8.52-21.07-12.54-32.95-16.32-.52.94-.97,1.7-1.37,2.49-3.38,6.58-6.72,13.17-10.13,19.73-1.87,3.6-4.68,4.29-8.08,2.1-1.48-.96-2.94-1.94-4.64-3.05ZM135.12,69.52c0-1.03.02-1.59,0-2.16-.88-20.28-18.08-37.07-38.43-37.53-23.31-.53-41.69,18.16-41.05,41.65.05,1.82.75,2.27,2.33,2.1,4.92-.53,10.03-.39,14.72-1.72,8.89-2.51,17.66-5.53,26.25-8.94,10.26-4.07,19.83-3.17,29.16,2.42,2.21,1.33,4.43,2.64,7.02,4.18ZM154.6,67.48c-1.47-22.49-11.38-39.93-31.26-50.52-21.24-11.31-42.47-9.81-62.18,3.98-15.98,11.18-23.82,27.14-24.77,46.52,3.35-.4,6.39-.75,9.42-1.11,1.88-26.69,24.3-45.95,48.7-46.28,11.54-.15,21.98,3.2,31.1,10.29,11.74,9.13,18.02,21.29,19.36,35.97,3.2.38,6.25.74,9.64,1.15ZM106.99,240.14c-2.15-9.45-4.24-18.7-6.42-27.94-.11-.47-.98-1.07-1.52-1.09-2.75-.11-5.51-.05-8.51-.05-2.21,9.71-4.41,19.32-6.63,29.08h23.08ZM111.94,143.83c-11.12,3.66-21.97,3.61-33.01.02,0,3.29-.06,6.21.05,9.12.02.6.5,1.38,1.01,1.73,4.75,3.28,9.52,6.51,14.36,9.65.54.35,1.73.32,2.29-.05,4.7-3.05,9.33-6.21,13.95-9.39.55-.38,1.26-1.03,1.29-1.58.13-3.05.06-6.11.06-9.51ZM95.31,201.29c.89,0,1.81-.12,2.68.02,2.07.35,2.88-.6,3.25-2.52.47-2.39,1.22-4.71,1.83-7.07.68-2.67,2.46-5.75,1.68-7.9-.78-2.13-4.14-3.32-6.38-4.91-.53-.38-1.03-.92-1.62-1.05-.82-.18-1.91-.38-2.55,0-2.44,1.45-4.7,3.21-7.13,4.69-1.24.75-1.34,1.52-.97,2.79,1.07,3.66,2,7.37,2.97,11.06q1.29,4.89,6.23,4.89ZM70.92,181.7c5.36-3.62,10.45-7.05,15.78-10.64-4.35-2.94-8.49-5.76-12.67-8.52-.4-.27-1.1-.36-1.57-.22-3.25.92-6.48,1.93-9.95,2.98,2.82,5.49,5.54,10.81,8.41,16.41ZM104.19,171.06c5.43,3.65,10.56,7.09,15.81,10.62,2.88-5.64,5.6-10.95,8.39-16.4-3.43-1.04-6.59-2.03-9.78-2.92-.54-.15-1.33-.07-1.79.23-4.13,2.7-8.2,5.48-12.63,8.46ZM45.79,76.62c-7.06-.91-10.82,2.36-10.84,9.17,0,1.05-.02,2.11,0,3.16.11,5.99,4.77,9.53,10.84,8.12v-20.45ZM145.12,97.06c6.45,1.29,10.76-2.14,10.83-8.46.01-1.22.02-2.44,0-3.66-.1-6.08-4.59-9.53-10.82-8.19v20.32ZM154.49,106.48c-3.14.24-6.03.4-8.91.71-.64.07-1.6.52-1.78,1.02-1,2.79-1.8,5.65-2.72,8.69,3.39,0,6.68.14,9.96-.05,2.14-.12,3.32-1.66,3.43-3.76.12-2.25.03-4.52.03-6.61Z"/>
      <path class="cls-1" d="M39.78,250c-1.91-1.32-3.58-2.8-3.27-5.44.27-2.23,2.12-4.03,4.32-4.28,2.12-.24,4.23,1.02,5.03,3.03.85,2.1.15,4.43-1.75,5.79-.45.33-.94.6-1.41.9h-2.93Z"/>
      <path class="cls-1" d="M149.7,215.82c3.82,0,7.64-.03,11.46,0,3.28.03,5.53,2.08,5.5,4.91-.03,2.84-2.27,4.82-5.59,4.83-7.72.03-15.45.03-23.17,0-3.36-.01-5.54-1.93-5.59-4.8-.05-2.96,2.18-4.93,5.68-4.95,3.9-.02,7.8,0,11.71,0Z"/>
    </g>
  </g>
</svg>