<?xml version="1.0" encoding="UTF-8"?>
<svg id="Layer_2" data-name="Layer 2" xmlns="http://www.w3.org/2000/svg" viewBox="0 0 257.92 250">
  <defs>
    <style>
      .cls-1 {
        stroke-width: 0px;
      }
    </style>
  </defs>
  <g id="Layer_1-2" data-name="Layer 1">
    <g>
      <path class="cls-1" d="M226.35,241.67c6.4,0,12.27,0,18.13,0,3.03,0,6.07-.05,9.1.02,2.71.06,4.34,1.69,4.33,4.15,0,2.45-1.65,4.01-4.36,4.14-.69.03-1.39,0-2.08,0-81.65,0-163.3,0-244.95,0-.87,0-1.74.04-2.6-.03-2.37-.2-3.87-1.77-3.92-4.04-.05-2.36,1.51-4.14,4-4.21,4.24-.11,8.49-.04,12.74-.04,4.76,0,9.51,0,14.52,0-3.49-8.03-1.24-16.09-.88-24.03.73-16.36,1.86-32.7,2.93-49.04,1.11-16.91,10.34-27.91,25.68-33.92,6.82-2.67,14.14-4.03,21.06-6.5,5.76-2.06,11.49-4.44,16.79-7.44,6.99-3.95,8.85-9.2,7.1-17.04-.12-.54-.52-1.08-.92-1.49-4.9-5.15-7.84-11.35-9.86-18.07-.26-.85-.67-2.02-1.33-2.32-8.18-3.63-9.94-15.15-7.84-22.23.39-1.31.33-2.84.13-4.21-1.25-8.45-1.8-16.93.16-25.3,1.75-7.5,6.25-13.22,12.91-17.18.66-.39,1.38-.8,1.83-1.39,5.19-6.67,12.36-9.56,20.43-10.6,10.11-1.31,19.9-.2,29.7,2.96,5.39,1.74,11.4,1.71,17.16,2.06,4.16.25,5.87,1.31,5.74,5.47-.09,2.8-.93,5.58-1.37,8.38-.13.87-.34,1.9,0,2.63,4.94,10.71,4.75,21.83,2.92,33.12-.2,1.21-.13,2.56.21,3.73,1.45,5.02,1.36,9.98-.68,14.75-.86,2.01-2.08,4.42-3.83,5.39-3.77,2.09-4.82,5.45-6.05,9.06-1.74,5.13-4.52,9.72-8.27,13.68-.35.37-.77.76-.93,1.22-1.81,5.02.18,12.68,4.64,15.68,3.84,2.59,7.97,4.97,12.29,6.61,6.53,2.48,13.32,4.32,20.04,6.28,6.19,1.8,12.15,4.05,17.48,7.74,10.27,7.11,15.41,17.03,16.16,29.38,1.13,18.68,2.35,37.36,3.41,56.05.31,5.47,1.57,11.07-1.71,16.59ZM195.62,241.53c.1-1,.22-1.85.26-2.71.93-20.52,1.86-41.04,2.78-61.56.23-5.19.39-10.39.69-15.58.13-2.35-.78-3.41-3.15-3.25-1.12.08-2.25.01-3.38.01-43.51,0-87.03,0-130.54,0-3.36,0-4,.53-3.88,3.3,1.02,22.77,2.06,45.54,3.1,68.31.17,3.79.39,7.57.6,11.48h133.53ZM53.58,241.65c0-1.06.03-1.83,0-2.6-1.16-25.54-2.29-51.08-3.5-76.62-.35-7.35,3.83-12.29,10.85-12.29,45.34-.02,90.67-.02,136.01,0,6.51,0,10.98,4.58,10.71,11.09-.78,18.79-1.67,37.58-2.5,56.37-.35,7.94-.7,15.88-1.05,24.07,2.48,0,4.71,0,6.95,0,6.24-.02,9.45-3.42,9.08-9.62-1.11-18.34-2.12-36.68-3.41-55.01-.41-5.83-.77-11.88-2.59-17.35-3.32-10-11.54-15.35-21.15-18.37-12.67-3.98-25.86-6.5-37.21-14.07-6.61,9.52-15.54,14.5-26.92,14.5-11.35,0-20.25-5.05-26.31-13.66-7.43,2.97-14.4,6.01-21.54,8.54-6.51,2.31-13.41,3.61-19.79,6.2-12.57,5.1-19.36,14.46-19.7,28.39-.24,9.7-1.16,19.37-1.76,29.06-.67,10.9-1.38,21.8-1.98,32.7-.26,4.71,2.94,8.38,7.46,8.63,2.67.15,5.35.03,8.35.03ZM111.23,38.73c-.63,1.25-1.14,2.32-1.71,3.37-3.73,6.94-8.06,13.41-15.11,17.41-1.94,1.1-2.82,2.53-2.82,4.52,0,1.97-.08,4.09.6,5.88.62,1.64,1.96,3.78,3.4,4.18,3.7,1.03,4.65,3.5,5.39,6.75,2.87,12.62,12.29,24.69,29.8,23.62,10.33-.63,17.57-5.36,22.38-14,2.03-3.64,2.83-7.94,4.42-11.85.57-1.4,1.57-3.09,2.82-3.66,4.98-2.24,7.47-7.43,5.57-12.65-.21-.57-.73-1.23-1.26-1.44-3.39-1.31-5.28-4.06-7.05-6.98-1.78-2.96-3.48-5.98-5.47-8.8-1.92-2.72-4.72-4.02-8.11-3.73-2.58.22-5.17.5-7.74.85-8.55,1.16-16.94,1.16-25.11-3.47ZM163.89,14.35c-8.18.06-15.4-1.8-22.64-4.03-8.25-2.54-16.7-1.95-25.19-.37-7.66,1.43-10.91,8.71-17.14,12.02-2.23,1.18-3.87,3.96-5.13,6.36-3.75,7.14-1.93,14.83-1.84,22.46,1.08-.5,1.88-1.1,2.58-1.8,4.96-4.92,7.96-11.05,10.72-17.34,1.77-4.03,4.38-4.69,7.72-1.94,3.1,2.56,6.62,4.37,10.59,4.41,5.34.05,10.72-.19,16.01-.85,9.15-1.15,16.41,1.4,21.29,9.52,1.2,2,2.33,4.05,3.52,6.06.36.61.8,1.18,1.36,2,1.55-8.84.55-21.07-4.03-27.28-1.22-1.65-1.03-3.36.06-5.08.75-1.19,1.3-2.51,2.12-4.15ZM113.19,109.82c-1.23,3.5-2.18,6.97-3.68,10.18-.7,1.49-.76,2.35.14,3.65,8.7,12.53,27.89,13.15,37.51,1.21,1.57-1.95,2.23-3.43.61-6.06-1.62-2.62-1.94-6.03-2.83-9.08-10.48,4.13-20.82,4.13-31.75.1Z"/>
      <g>
        <path class="cls-1" d="M221.98,0c1.52.28,3.07.46,4.57.85,9.25,2.45,16.19,10.73,16.93,20.25.69,8.83-2.59,15.9-9.67,21.21-1.92,1.44-2.94,3.31-2.92,5.73.02,3.06,0,6.13,0,9.19,0,2.85-1.27,4.9-3.84,6.15-.19.09-.37.39-.39.61-.08,1.05.01,2.13-.16,3.17-.51,3.2-3.48,5.45-6.71,5.2-3.19-.25-5.76-2.91-5.86-6.1-.02-.73-.03-1.46,0-2.19.01-.37-.09-.57-.46-.74-2.52-1.21-3.78-3.23-3.79-6.02-.01-2.97-.03-5.94,0-8.91.03-2.63-1.02-4.67-3.12-6.24-5.02-3.74-8.1-8.7-9.26-14.85-2.04-10.9,4.5-22.26,14.98-25.87,1.85-.64,3.83-.89,5.76-1.33.13-.03.26-.08.39-.12,1.18,0,2.36,0,3.53,0ZM226.64,46.91c.07-.43.12-.85.21-1.26.63-2.92,2.28-5.12,4.64-6.93,6.32-4.83,8.94-11.29,7.48-19.09-1.93-10.3-11.35-16.72-21.75-15.13-10.81,1.65-18.05,12.4-15.53,23.09,1.11,4.73,3.71,8.48,7.63,11.35,2.36,1.73,3.79,4.08,4.4,6.93.07.34.12.68.18,1.03h12.74ZM213.92,51.21c0,2.08,0,4.1,0,6.12,0,1.46.87,2.32,2.33,2.33,2.68,0,5.37,0,8.05,0,1.46,0,2.32-.87,2.33-2.33,0-1.86,0-3.72,0-5.58,0-.18-.03-.36-.05-.53h-4.2v4.15h-4.25v-4.16h-4.22ZM218.17,63.93c0,.8-.04,1.55.01,2.29.08,1.07,1.02,1.9,2.08,1.91,1.06,0,2.02-.8,2.11-1.88.07-.76.01-1.53.01-2.33h-4.22Z"/>
        <path class="cls-1" d="M184.09,21.2h8.57v4.24h-8.57v-4.24Z"/>
        <path class="cls-1" d="M256.44,21.25v4.15h-8.53v-4.15h8.53Z"/>
        <path class="cls-1" d="M191.97,45.74c-.83-1.19-1.61-2.31-2.43-3.48,2.33-1.63,4.61-3.23,6.94-4.86.81,1.16,1.59,2.27,2.43,3.47-2.31,1.62-4.6,3.22-6.94,4.87Z"/>
        <path class="cls-1" d="M198.92,5.77c-.84,1.2-1.62,2.32-2.43,3.47-2.33-1.63-4.62-3.23-6.94-4.86.82-1.17,1.6-2.28,2.43-3.47,2.31,1.62,4.59,3.21,6.95,4.86Z"/>
        <path class="cls-1" d="M244.08,9.25c-.83-1.19-1.61-2.3-2.43-3.47,2.33-1.63,4.62-3.23,6.94-4.87.82,1.17,1.6,2.28,2.43,3.47-2.31,1.62-4.59,3.22-6.94,4.87Z"/>
        <path class="cls-1" d="M241.65,40.87c.85-1.21,1.63-2.32,2.43-3.47,2.32,1.63,4.6,3.22,6.94,4.86-.81,1.16-1.6,2.28-2.43,3.47-2.32-1.62-4.6-3.22-6.95-4.86Z"/>
        <path class="cls-1" d="M228.05,34.01c-2.41-1.25-4.7-2.41-6.95-3.63-.58-.31-1.02-.33-1.61,0-2.04,1.11-4.12,2.16-6.19,3.24-.22.12-.45.21-.78.37.36-2.17.57-4.26,1.08-6.28.42-1.68.12-2.84-1.25-3.95-1.47-1.2-2.74-2.65-4.1-3.99-.15-.14-.28-.3-.5-.52,1.95-.3,3.81-.58,5.66-.86.21-.03.42-.11.63-.09,1.83.11,2.79-.84,3.44-2.49.67-1.7,1.6-3.3,2.42-4.94.1-.2.22-.4.38-.68.16.29.29.5.4.73,1.09,2.17,2.18,4.33,3.24,6.51.19.38.41.55.83.61,2.38.34,4.75.71,7.12,1.07.28.04.55.09.97.32-.27.21-.56.4-.81.64-1.67,1.63-3.32,3.28-4.99,4.9-.32.31-.42.59-.34,1.05.46,2.61.88,5.24,1.34,8.02ZM218.11,26.32c.6-.31,1.08-.5,1.51-.78.45-.29.84-.3,1.29-.02.45.28.95.49,1.53.79-.09-.62-.11-1.14-.26-1.62-.17-.58-.02-.99.44-1.35.4-.31.78-.65,1.17-.98-.04-.07-.09-.15-.13-.22-.58-.08-1.16-.12-1.72-.27-.29-.08-.61-.31-.78-.56-.33-.49-.56-1.05-.89-1.7-.29.58-.55,1-.72,1.45-.22.58-.58.85-1.2.87-.49.02-.98.16-1.68.28.49.44.8.76,1.15,1.02.55.42.73.9.52,1.58-.14.44-.14.92-.23,1.51Z"/>
      </g>
    </g>
  </g>
</svg>