<?xml version="1.0" encoding="UTF-8"?>
<svg id="Layer_2" data-name="Layer 2" xmlns="http://www.w3.org/2000/svg" viewBox="0 0 249.48 250">
  <defs>
    <style>
      .cls-1 {
        stroke-width: 0px;
      }
    </style>
  </defs>
  <g id="Layer_1-2" data-name="Layer 1">
    <g>
      <path class="cls-1" d="M249.48,104v4.88c-1.33,3.78-4.01,6.54-6.81,9.26-4.19,4.08-8.35,8.2-12.36,12.45-.89.94-1.58,2.49-1.58,3.76-.1,20.98-.07,41.96-.06,62.94,0,.85.09,1.71.14,2.73,1.34,0,2.38-.02,3.43,0,5.61.1,8.9,3.4,8.94,9,.03,4.07.15,8.14-.03,12.2-.53,11.81-6.03,20.55-16.62,25.83-2.71,1.35-5.77,1.98-8.67,2.93H25.31c-.53-.17-1.04-.37-1.58-.5-11.88-2.77-20.04-9.81-22.7-21.81C-.28,221.76.14,215.42,0,209.26c-.13-5.92,3.22-9.16,9.17-9.22,3.62-.04,3.31.41,3.31-3.5,0-48.42,0-96.84.01-145.26,0-13.34,8.66-22.19,21.9-21.97,3.9.06,6.58-1.05,9.28-3.85,8.34-8.64,16.97-16.99,25.49-25.46,42.88,0,85.77,0,128.65,0,8.14,3.47,10.12,6.49,10.12,15.43,0,1.63,0,3.26,0,4.88,0,2.9,0,5.8,0,8.56.47.2.61.3.75.32,12.67,1.39,19.94,9.5,19.96,22.33.01,9.77,0,19.53,0,29.3,0,.87,0,1.73,0,2.6.22-.16.45-.31.67-.47,2.47,1.89,5.05,3.66,7.39,5.7,2.32,2.03,4.34,4.4,6.6,6.5,2.7,2.52,5.05,5.24,6.16,8.85ZM41.63,199.91c1,.05,1.72.11,2.44.11,51,0,102.01,0,153.01.05,2.04,0,2.6-.58,2.58-2.6-.09-11.23-.04-22.46-.05-33.69,0-.61-.1-1.21-.16-1.82l-.86-.65c-.45.78-.77,1.69-1.38,2.31-5.36,5.45-10.7,10.92-16.22,16.2-1.59,1.52-3.6,2.82-5.66,3.56-7.24,2.62-14.56,5.01-21.9,7.35-1.82.58-3.81.9-5.72.9-30.62.05-61.24.04-91.86.03-.89,0-1.8,0-2.66-.18-2.11-.44-3.25-1.87-3.25-3.98,0-2.1,1.09-3.57,3.22-4,1.02-.2,2.1-.19,3.15-.19,27.21,0,54.42,0,81.62,0,.65,0,1.36.16,1.93-.05.63-.24,1.43-.71,1.62-1.27,2.72-7.99,5.25-16.06,8.08-24.01.79-2.21,2.09-4.45,3.72-6.11,14.84-15.05,29.83-29.95,44.69-44.98.9-.91,1.56-2.49,1.56-3.76.09-29.62.07-59.24.06-88.86,0-4.68-1.27-5.95-5.92-5.95-38.66,0-77.32,0-115.98,0-.87,0-1.74,0-2.86,0,0,1.14,0,2.02,0,2.9,0,5.7.04,11.39-.01,17.09-.07,8.14-5.18,13.26-13.25,13.32-5.77.04-11.53,0-17.3.01-.86,0-1.72.08-2.66.13v158.16ZM74.91,208.59H8.38c0,4.92-.39,9.67.08,14.33,1.14,11.26,10.01,18.76,21.71,18.76,60.24.01,120.48,0,180.72,0,.73,0,1.46,0,2.19-.04,9.28-.48,17.61-7.19,19.13-16.26.92-5.46.63-11.12.89-16.85h-66.86c0,1.6.05,3.04,0,4.48-.35,8.96-7.11,15.97-16.04,16.04-19.81.15-39.62.15-59.43-.01-8.68-.07-15.43-7.02-15.85-15.7-.07-1.53-.01-3.06-.01-4.75ZM33.06,199.87V37.52c-1.03.13-1.91.16-2.75.37-6.06,1.51-9.5,6.29-9.5,13.27,0,48.72,0,97.44,0,146.16,0,.8,0,1.6,0,2.56h12.25ZM209.96,107.15c-16.27,16.28-32.57,32.6-48.61,48.66,5.24,5.28,10.55,10.62,15.66,15.77,16.19-16.17,32.5-32.47,48.73-48.68-5.2-5.19-10.48-10.46-15.78-15.75ZM83.45,208.45c-1.44,7.95,2.43,12.59,10.34,12.45,18.25-.32,36.52-.24,54.78-.02,5.94.07,11.02-4.27,8.97-12.42h-74.08ZM220.12,199.88v-59.21c-3.76,3.79-7.27,7.16-10.56,10.73-.87.95-1.54,2.49-1.55,3.76-.11,14.06-.07,28.11-.07,42.17v2.54h12.18ZM208.05,96.71c4.18-4,8.05-7.68,11.88-11.4.29-.28.38-.88.38-1.33,0-11.79.14-23.58-.12-35.37-.14-6.23-6.35-11.47-12.14-10.77v58.87ZM232.19,116.72c2.63-2.62,5.32-5.2,7.9-7.89,1.53-1.59,1.52-3.45,0-5.02-3.61-3.74-7.28-7.41-11.01-11.02-1.55-1.51-3.44-1.59-5.02-.08-2.76,2.61-5.37,5.38-7.94,7.98,5.35,5.34,10.62,10.6,16.07,16.03ZM48.1,33.26c4.88,0,9.66.04,14.44-.02,1.92-.02,3.58-1.09,3.67-2.93.24-5.14.08-10.29.08-15.36-6.02,6.06-12.01,12.08-18.19,18.3ZM169.03,176.8c-4.32-4.35-8.52-8.57-12.8-12.86-2.04,6.18-4.14,12.51-6.36,19.22,6.77-2.25,13.05-4.33,19.15-6.36Z"/>
      <path class="cls-1" d="M172.05,58.95c9.27,2.71,15.57,8.38,18.14,17.58.92,3.3.9,6.9,1.05,10.37.15,3.33.17,6.68-.11,10-.55,6.53-5.56,11.37-12.08,11.42-16.8.12-33.61.12-50.41,0-6.87-.05-12.12-5.53-12.19-12.37-.06-5.12-.42-10.31.2-15.36,1.29-10.45,7.19-17.5,17.16-21.03.53-.19,1.07-.36,1.91-.63-5.88-6.76-8.06-14.45-6.11-23.09,1.34-5.94,4.59-10.7,9.47-14.32,9.88-7.32,23.52-6.28,32.31,2.37,7.6,7.48,11.55,22,.66,35.07ZM153.87,58.29c9.17-.02,16.6-7.45,16.61-16.6.01-9.11-7.46-16.65-16.56-16.71-9.22-.06-16.71,7.49-16.67,16.78.05,9.22,7.42,16.56,16.62,16.53ZM138.19,100.02c1.86-6.67,3.69-13.21,5.48-19.77.12-.44.12-1.01-.05-1.43-1.62-3.96-3.28-7.91-4.92-11.8-7.34,1.41-12.64,6.26-13.56,13.38-.68,5.28-.43,10.7-.3,16.04.05,2.19,1.8,3.46,3.98,3.55,3.07.12,6.14.03,9.36.03ZM168.96,67.01c-1.47,3.51-3,6.9-4.27,10.39-.46,1.26-.6,2.83-.31,4.13.79,3.56,1.83,7.06,2.88,10.55.81,2.66,1.06,6.34,2.91,7.6,1.94,1.33,5.47.41,8.3.33,2.81-.08,4.36-1.59,4.42-4.43.09-4.38.17-8.78-.07-13.15-.43-7.91-5.7-13.76-13.87-15.42ZM160.79,99.92c-1.4-5.08-2.85-9.97-4.05-14.91-.46-1.89-1.66-1.6-2.92-1.64-1.33-.04-2.48-.14-2.87,1.72-.63,3.01-1.59,5.95-2.42,8.92-.53,1.92-1.06,3.83-1.63,5.91h13.89ZM147.71,66.83c1.08,2.62,1.99,5.03,3.07,7.36.57,1.22,5.47,1.3,6.06.08,1.13-2.36,2.05-4.82,3.14-7.44h-12.27Z"/>
      <path class="cls-1" d="M106.21,120.82c16.56,0,33.13,0,49.69,0,4.22,0,6.21,1.32,6.25,4.12.05,2.82-2,4.24-6.14,4.24-33.37,0-66.75,0-100.12,0-.49,0-.98.01-1.46-.02-2.76-.17-4.49-1.75-4.53-4.11-.03-2.38,1.68-4.03,4.41-4.21.73-.05,1.46-.02,2.19-.02,16.56,0,33.13,0,49.69,0Z"/>
      <path class="cls-1" d="M93.67,162.54c12.51,0,25.02,0,37.52,0,.73,0,1.47-.03,2.19.04,2.1.21,3.63,1.77,3.78,3.8.15,2.01-1.15,3.84-3.21,4.31-.86.2-1.77.17-2.66.17-25.18,0-50.36,0-75.54,0-.41,0-.81.01-1.22,0-2.85-.11-4.68-1.79-4.64-4.25.04-2.45,1.85-4.05,4.78-4.06,13-.02,25.99,0,38.99,0Z"/>
      <path class="cls-1" d="M83.29,149.96c-9.49,0-18.99.01-28.48,0-3.07,0-4.93-1.64-4.9-4.17.03-2.52,1.91-4.13,4.99-4.13,18.82-.02,37.65-.02,56.47,0,3.95,0,6.21,3.17,4.48,6.19-.95,1.67-2.49,2.14-4.33,2.13-9.41-.03-18.82-.02-28.24-.01Z"/>
      <path class="cls-1" d="M78.89,75.03c8.03,0,16.05.02,24.08-.01,1.89,0,3.56.33,4.58,2.13,1.29,2.3.21,5.13-2.35,5.89-.99.29-2.08.32-3.12.32-15.4.02-30.81.01-46.21.01-.57,0-1.14.03-1.7-.02-2.65-.24-4.37-2.02-4.25-4.38.11-2.28,1.8-3.88,4.41-3.9,6.57-.06,13.13-.03,19.7-.03,1.62,0,3.24,0,4.86,0Z"/>
      <path class="cls-1" d="M78.9,104.13c-7.7,0-15.4,0-23.11,0-.81,0-1.63.04-2.43-.09-2.01-.33-3.18-1.59-3.39-3.59-.22-1.99.64-3.5,2.53-4.24.73-.29,1.58-.39,2.37-.39,16.05-.02,32.11-.01,48.16-.02,2,0,3.93.45,4.54,2.5.37,1.23.32,3.17-.42,4.01-.91,1.03-2.73,1.72-4.18,1.75-8.02.16-16.05.08-24.08.08Z"/>
      <path class="cls-1" d="M78.9,62.5c-7.95,0-15.89,0-23.84,0-3.26,0-5.18-1.59-5.16-4.19.01-2.59,1.92-4.12,5.21-4.12,16.06,0,32.11,0,48.17-.02,2.18,0,3.8.75,4.56,2.88.66,1.84.11,3.48-1.44,4.49-.95.61-2.26.9-3.41.91-8.03.08-16.05.04-24.08.04Z"/>
      <path class="cls-1" d="M58.34,216.73c1.38,0,2.76-.06,4.13.02,2.28.13,3.84,1.68,3.98,3.81.14,2.15-1.21,4.15-3.43,4.31-3.22.24-6.49.24-9.71-.01-2.19-.17-3.56-2.25-3.39-4.35.17-2.12,1.75-3.65,4.04-3.77,1.46-.08,2.92-.01,4.38-.01Z"/>
      <path class="cls-1" d="M20.65,225.01c-2.24-.07-4.14-2.12-4.04-4.34.1-2.29,2.05-4.03,4.38-3.92,2.25.11,3.89,1.87,3.87,4.14-.02,2.29-1.97,4.19-4.21,4.12Z"/>
      <path class="cls-1" d="M37.32,216.73c2.37-.04,4.16,1.72,4.16,4.09,0,2.32-1.87,4.22-4.13,4.18-2.14-.03-4.02-1.88-4.11-4.03-.09-2.26,1.78-4.2,4.08-4.24Z"/>
    </g>
  </g>
</svg>