<svg width="118" height="63" viewBox="0 0 118 63" fill="none" xmlns="http://www.w3.org/2000/svg">
<g filter="url(#filter0_d_351_88)">
<rect x="4.5" y="0.5" width="109" height="35" rx="17.5" fill="#FFF7B1"/>
<rect x="4.5" y="0.5" width="109" height="35" rx="17.5" stroke="#6F6F6F"/>
<path d="M42.594 13.242V14.278H38.352V17.568H41.796V18.604H38.352V23H37.078V13.242H42.594ZM45.2907 14.082C45.048 14.082 44.8427 13.998 44.6747 13.83C44.5067 13.662 44.4227 13.4567 44.4227 13.214C44.4227 12.9713 44.5067 12.766 44.6747 12.598C44.8427 12.43 45.048 12.346 45.2907 12.346C45.524 12.346 45.72 12.43 45.8787 12.598C46.0467 12.766 46.1307 12.9713 46.1307 13.214C46.1307 13.4567 46.0467 13.662 45.8787 13.83C45.72 13.998 45.524 14.082 45.2907 14.082ZM45.9067 15.328V23H44.6327V15.328H45.9067ZM51.742 15.202C52.4047 15.202 52.9833 15.3467 53.478 15.636C53.982 15.9253 54.3553 16.2893 54.598 16.728V15.328H55.886V23.168C55.886 23.868 55.7367 24.4887 55.438 25.03C55.1393 25.5807 54.71 26.01 54.15 26.318C53.5993 26.626 52.9553 26.78 52.218 26.78C51.21 26.78 50.37 26.542 49.698 26.066C49.026 25.59 48.6293 24.9413 48.508 24.12H49.768C49.908 24.5867 50.1973 24.96 50.636 25.24C51.0747 25.5293 51.602 25.674 52.218 25.674C52.918 25.674 53.4873 25.4547 53.926 25.016C54.374 24.5773 54.598 23.9613 54.598 23.168V21.558C54.346 22.006 53.9727 22.3793 53.478 22.678C52.9833 22.9767 52.4047 23.126 51.742 23.126C51.0607 23.126 50.44 22.958 49.88 22.622C49.3293 22.286 48.8953 21.8147 48.578 21.208C48.2607 20.6013 48.102 19.9107 48.102 19.136C48.102 18.352 48.2607 17.666 48.578 17.078C48.8953 16.4807 49.3293 16.0187 49.88 15.692C50.44 15.3653 51.0607 15.202 51.742 15.202ZM54.598 19.15C54.598 18.5713 54.4813 18.0673 54.248 17.638C54.0147 17.2087 53.6973 16.882 53.296 16.658C52.904 16.4247 52.47 16.308 51.994 16.308C51.518 16.308 51.084 16.42 50.692 16.644C50.3 16.868 49.9873 17.1947 49.754 17.624C49.5207 18.0533 49.404 18.5573 49.404 19.136C49.404 19.724 49.5207 20.2373 49.754 20.676C49.9873 21.1053 50.3 21.4367 50.692 21.67C51.084 21.894 51.518 22.006 51.994 22.006C52.47 22.006 52.904 21.894 53.296 21.67C53.6973 21.4367 54.0147 21.1053 54.248 20.676C54.4813 20.2373 54.598 19.7287 54.598 19.15ZM67.7649 15.188C68.3623 15.188 68.8943 15.314 69.3609 15.566C69.8276 15.8087 70.1963 16.1773 70.4669 16.672C70.7376 17.1667 70.8729 17.7687 70.8729 18.478V23H69.6129V18.66C69.6129 17.8947 69.4216 17.3113 69.0389 16.91C68.6656 16.4993 68.1569 16.294 67.5129 16.294C66.8503 16.294 66.3229 16.5087 65.9309 16.938C65.5389 17.358 65.3429 17.9693 65.3429 18.772V23H64.0829V18.66C64.0829 17.8947 63.8916 17.3113 63.5089 16.91C63.1356 16.4993 62.6269 16.294 61.9829 16.294C61.3203 16.294 60.7929 16.5087 60.4009 16.938C60.0089 17.358 59.8129 17.9693 59.8129 18.772V23H58.5389V15.328H59.8129V16.434C60.0649 16.0327 60.4009 15.7247 60.8209 15.51C61.2503 15.2953 61.7216 15.188 62.2349 15.188C62.8789 15.188 63.4483 15.3327 63.9429 15.622C64.4376 15.9113 64.8063 16.336 65.0489 16.896C65.2636 16.3547 65.6183 15.9347 66.1129 15.636C66.6076 15.3373 67.1583 15.188 67.7649 15.188ZM72.9868 19.136C72.9868 18.352 73.1454 17.666 73.4628 17.078C73.7801 16.4807 74.2141 16.0187 74.7648 15.692C75.3248 15.3653 75.9454 15.202 76.6268 15.202C77.2988 15.202 77.8821 15.3467 78.3768 15.636C78.8714 15.9253 79.2401 16.2893 79.4828 16.728V15.328H80.7708V23H79.4828V21.572C79.2308 22.02 78.8528 22.3933 78.3488 22.692C77.8541 22.9813 77.2754 23.126 76.6128 23.126C75.9314 23.126 75.3154 22.958 74.7648 22.622C74.2141 22.286 73.7801 21.8147 73.4628 21.208C73.1454 20.6013 72.9868 19.9107 72.9868 19.136ZM79.4828 19.15C79.4828 18.5713 79.3661 18.0673 79.1328 17.638C78.8994 17.2087 78.5821 16.882 78.1808 16.658C77.7888 16.4247 77.3548 16.308 76.8788 16.308C76.4028 16.308 75.9688 16.42 75.5768 16.644C75.1848 16.868 74.8721 17.1947 74.6388 17.624C74.4054 18.0533 74.2888 18.5573 74.2888 19.136C74.2888 19.724 74.4054 20.2373 74.6388 20.676C74.8721 21.1053 75.1848 21.4367 75.5768 21.67C75.9688 21.894 76.4028 22.006 76.8788 22.006C77.3548 22.006 77.7888 21.894 78.1808 21.67C78.5821 21.4367 78.8994 21.1053 79.1328 20.676C79.3661 20.2373 79.4828 19.7287 79.4828 19.15Z" fill="black"/>
<path d="M101.317 47.1872L95.1666 47.943L92.2459 53.4087L91.1744 42.1221L101.317 47.1872Z" fill="#A3FF2E" stroke="black" stroke-width="0.8" stroke-miterlimit="10"/>
</g>
<defs>
<filter id="filter0_d_351_88" x="0" y="0" width="118" height="62.7679" filterUnits="userSpaceOnUse" color-interpolation-filters="sRGB">
<feFlood flood-opacity="0" result="BackgroundImageFix"/>
<feColorMatrix in="SourceAlpha" type="matrix" values="0 0 0 0 0 0 0 0 0 0 0 0 0 0 0 0 0 0 127 0" result="hardAlpha"/>
<feOffset dy="4"/>
<feGaussianBlur stdDeviation="2"/>
<feComposite in2="hardAlpha" operator="out"/>
<feColorMatrix type="matrix" values="0 0 0 0 0 0 0 0 0 0 0 0 0 0 0 0 0 0 0.25 0"/>
<feBlend mode="normal" in2="BackgroundImageFix" result="effect1_dropShadow_351_88"/>
<feBlend mode="normal" in="SourceGraphic" in2="effect1_dropShadow_351_88" result="shape"/>
</filter>
</defs>
</svg>
