<svg width="169" height="47" viewBox="0 0 169 47" fill="none" xmlns="http://www.w3.org/2000/svg">
<g filter="url(#filter0_d_351_97)">
<rect x="30.5" y="2.5" width="111" height="35" rx="17.5" fill="#FEDBFF"/>
<rect x="30.5" y="2.5" width="111" height="35" rx="17.5" stroke="#6F6F6F"/>
<path d="M52.852 15.242V25H51.578V15.242H52.852ZM56.7973 14.64V25H55.5233V14.64H56.7973ZM60.7426 14.64V25H59.4686V14.64H60.7426ZM70.2179 17.328V25H68.9439V23.866C68.7013 24.258 68.3606 24.566 67.9219 24.79C67.4926 25.0047 67.0166 25.112 66.4939 25.112C65.8966 25.112 65.3599 24.9907 64.8839 24.748C64.4079 24.496 64.0299 24.1227 63.7499 23.628C63.4793 23.1333 63.3439 22.5313 63.3439 21.822V17.328H64.6039V21.654C64.6039 22.41 64.7953 22.9933 65.1779 23.404C65.5606 23.8053 66.0833 24.006 66.7459 24.006C67.4273 24.006 67.9639 23.796 68.3559 23.376C68.7479 22.956 68.9439 22.3447 68.9439 21.542V17.328H70.2179ZM75.585 25.126C74.997 25.126 74.4697 25.028 74.003 24.832C73.5363 24.6267 73.1677 24.3467 72.897 23.992C72.6263 23.628 72.477 23.2127 72.449 22.746H73.765C73.8023 23.1287 73.9797 23.4413 74.297 23.684C74.6237 23.9267 75.0483 24.048 75.571 24.048C76.0563 24.048 76.439 23.9407 76.719 23.726C76.999 23.5113 77.139 23.2407 77.139 22.914C77.139 22.578 76.9897 22.3307 76.691 22.172C76.3923 22.004 75.9303 21.8407 75.305 21.682C74.7357 21.5327 74.269 21.3833 73.905 21.234C73.5503 21.0753 73.2423 20.8467 72.981 20.548C72.729 20.24 72.603 19.8387 72.603 19.344C72.603 18.952 72.7197 18.5927 72.953 18.266C73.1863 17.9393 73.5177 17.6827 73.947 17.496C74.3763 17.3 74.8663 17.202 75.417 17.202C76.2663 17.202 76.9523 17.4167 77.475 17.846C77.9977 18.2753 78.2777 18.8633 78.315 19.61H77.041C77.013 19.2087 76.8497 18.8867 76.551 18.644C76.2617 18.4013 75.8697 18.28 75.375 18.28C74.9177 18.28 74.5537 18.378 74.283 18.574C74.0123 18.77 73.877 19.0267 73.877 19.344C73.877 19.596 73.9563 19.806 74.115 19.974C74.283 20.1327 74.4883 20.2633 74.731 20.366C74.983 20.4593 75.3283 20.5667 75.767 20.688C76.3177 20.8373 76.7657 20.9867 77.111 21.136C77.4563 21.276 77.7503 21.4907 77.993 21.78C78.245 22.0693 78.3757 22.4473 78.385 22.914C78.385 23.334 78.2683 23.712 78.035 24.048C77.8017 24.384 77.4703 24.65 77.041 24.846C76.621 25.0327 76.1357 25.126 75.585 25.126ZM82.2375 18.378V22.9C82.2375 23.2733 82.3168 23.5393 82.4755 23.698C82.6341 23.8473 82.9095 23.922 83.3015 23.922H84.2395V25H83.0915C82.3821 25 81.8501 24.8367 81.4955 24.51C81.1408 24.1833 80.9635 23.6467 80.9635 22.9V18.378H79.9695V17.328H80.9635V15.396H82.2375V17.328H84.2395V18.378H82.2375ZM87.5571 18.574C87.7811 18.1353 88.0984 17.7947 88.5091 17.552C88.9291 17.3093 89.4377 17.188 90.0351 17.188V18.504H89.6991C88.2711 18.504 87.5571 19.2787 87.5571 20.828V25H86.2831V17.328H87.5571V18.574ZM91.5297 21.136C91.5297 20.352 91.6884 19.666 92.0057 19.078C92.3231 18.4807 92.7571 18.0187 93.3077 17.692C93.8677 17.3653 94.4884 17.202 95.1697 17.202C95.8417 17.202 96.4251 17.3467 96.9197 17.636C97.4144 17.9253 97.7831 18.2893 98.0257 18.728V17.328H99.3137V25H98.0257V23.572C97.7737 24.02 97.3957 24.3933 96.8917 24.692C96.3971 24.9813 95.8184 25.126 95.1557 25.126C94.4744 25.126 93.8584 24.958 93.3077 24.622C92.7571 24.286 92.3231 23.8147 92.0057 23.208C91.6884 22.6013 91.5297 21.9107 91.5297 21.136ZM98.0257 21.15C98.0257 20.5713 97.9091 20.0673 97.6757 19.638C97.4424 19.2087 97.1251 18.882 96.7237 18.658C96.3317 18.4247 95.8977 18.308 95.4217 18.308C94.9457 18.308 94.5117 18.42 94.1197 18.644C93.7277 18.868 93.4151 19.1947 93.1817 19.624C92.9484 20.0533 92.8317 20.5573 92.8317 21.136C92.8317 21.724 92.9484 22.2373 93.1817 22.676C93.4151 23.1053 93.7277 23.4367 94.1197 23.67C94.5117 23.894 94.9457 24.006 95.4217 24.006C95.8977 24.006 96.3317 23.894 96.7237 23.67C97.1251 23.4367 97.4424 23.1053 97.6757 22.676C97.9091 22.2373 98.0257 21.7287 98.0257 21.15ZM103.521 18.378V22.9C103.521 23.2733 103.6 23.5393 103.759 23.698C103.917 23.8473 104.193 23.922 104.585 23.922H105.523V25H104.375C103.665 25 103.133 24.8367 102.779 24.51C102.424 24.1833 102.247 23.6467 102.247 22.9V18.378H101.253V17.328H102.247V15.396H103.521V17.328H105.523V18.378H103.521ZM110.912 25.126C110.194 25.126 109.54 24.9627 108.952 24.636C108.374 24.3093 107.916 23.8473 107.58 23.25C107.254 22.6433 107.09 21.9433 107.09 21.15C107.09 20.366 107.258 19.6753 107.594 19.078C107.94 18.4713 108.406 18.0093 108.994 17.692C109.582 17.3653 110.24 17.202 110.968 17.202C111.696 17.202 112.354 17.3653 112.942 17.692C113.53 18.0093 113.992 18.4667 114.328 19.064C114.674 19.6613 114.846 20.3567 114.846 21.15C114.846 21.9433 114.669 22.6433 114.314 23.25C113.969 23.8473 113.498 24.3093 112.9 24.636C112.303 24.9627 111.64 25.126 110.912 25.126ZM110.912 24.006C111.37 24.006 111.799 23.8987 112.2 23.684C112.602 23.4693 112.924 23.1473 113.166 22.718C113.418 22.2887 113.544 21.766 113.544 21.15C113.544 20.534 113.423 20.0113 113.18 19.582C112.938 19.1527 112.62 18.8353 112.228 18.63C111.836 18.4153 111.412 18.308 110.954 18.308C110.488 18.308 110.058 18.4153 109.666 18.63C109.284 18.8353 108.976 19.1527 108.742 19.582C108.509 20.0113 108.392 20.534 108.392 21.15C108.392 21.7753 108.504 22.3027 108.728 22.732C108.962 23.1613 109.27 23.4833 109.652 23.698C110.035 23.9033 110.455 24.006 110.912 24.006ZM118.295 18.574C118.519 18.1353 118.837 17.7947 119.247 17.552C119.667 17.3093 120.176 17.188 120.773 17.188V18.504H120.437C119.009 18.504 118.295 19.2787 118.295 20.828V25H117.021V17.328H118.295V18.574Z" fill="black"/>
<path d="M163.902 29.8437L158.809 33.375L158.768 39.572L152.567 30.0805L163.902 29.8437Z" fill="#A3FF2E" stroke="black" stroke-width="0.8" stroke-miterlimit="10"/>
<path d="M16.21 12.14C17.7647 12.14 19.1287 12.448 20.302 13.064C21.49 13.68 22.4067 14.538 23.052 15.638C23.712 16.738 24.042 17.9993 24.042 19.422C24.042 20.566 23.866 21.6513 23.514 22.678C23.1767 23.7047 22.6853 24.5407 22.04 25.186C21.3947 25.8167 20.632 26.132 19.752 26.132C19.048 26.132 18.52 25.9193 18.168 25.494C17.8307 25.054 17.6767 24.4747 17.706 23.756C17.266 24.504 16.6793 25.0907 15.946 25.516C15.2273 25.9267 14.4573 26.132 13.636 26.132C12.536 26.132 11.6707 25.7947 11.04 25.12C10.424 24.4453 10.116 23.536 10.116 22.392C10.116 21.3213 10.336 20.324 10.776 19.4C11.2307 18.4613 11.8613 17.7133 12.668 17.156C13.4747 16.584 14.384 16.298 15.396 16.298C16.188 16.298 16.848 16.4887 17.376 16.87C17.9187 17.2513 18.2853 17.8013 18.476 18.52L18.806 16.584H19.686L18.564 23.03C18.52 23.2647 18.498 23.4993 18.498 23.734C18.498 24.2473 18.6153 24.6507 18.85 24.944C19.0993 25.2373 19.4513 25.384 19.906 25.384C20.566 25.384 21.1453 25.0907 21.644 24.504C22.1427 23.9173 22.524 23.1767 22.788 22.282C23.052 21.3727 23.184 20.456 23.184 19.532C23.184 18.1827 22.8907 17.0093 22.304 16.012C21.732 15.0147 20.9107 14.2447 19.84 13.702C18.7693 13.1593 17.5153 12.888 16.078 12.888C14.3033 12.888 12.69 13.3353 11.238 14.23C9.786 15.11 8.642 16.3127 7.806 17.838C6.98467 19.3487 6.574 21.006 6.574 22.81C6.574 24.1887 6.86 25.3693 7.432 26.352C8.004 27.3493 8.818 28.112 9.874 28.64C10.9447 29.168 12.184 29.432 13.592 29.432C14.8973 29.432 16.1073 29.19 17.222 28.706L17.376 29.454C16.1293 29.9527 14.7947 30.202 13.372 30.202C11.8613 30.202 10.5267 29.9013 9.368 29.3C8.20933 28.7133 7.30733 27.87 6.662 26.77C6.01667 25.6847 5.694 24.4087 5.694 22.942C5.694 20.9327 6.14867 19.1067 7.058 17.464C7.96733 15.8213 9.22133 14.5233 10.82 13.57C12.4187 12.6167 14.2153 12.14 16.21 12.14ZM13.9 25.318C14.5747 25.318 15.2053 25.1493 15.792 24.812C16.3787 24.46 16.87 23.9613 17.266 23.316C17.6767 22.656 17.9407 21.886 18.058 21.006C18.1167 20.7127 18.146 20.4047 18.146 20.082C18.146 19.1873 17.904 18.4687 17.42 17.926C16.9507 17.3687 16.2613 17.09 15.352 17.09C14.5013 17.09 13.746 17.3393 13.086 17.838C12.4407 18.322 11.942 18.96 11.59 19.752C11.238 20.544 11.062 21.38 11.062 22.26C11.062 23.1987 11.3113 23.9467 11.81 24.504C12.3087 25.0467 13.0053 25.318 13.9 25.318Z" fill="black" fill-opacity="0.6"/>
</g>
<defs>
<filter id="filter0_d_351_97" x="0.693359" y="0" width="167.527" height="46.9019" filterUnits="userSpaceOnUse" color-interpolation-filters="sRGB">
<feFlood flood-opacity="0" result="BackgroundImageFix"/>
<feColorMatrix in="SourceAlpha" type="matrix" values="0 0 0 0 0 0 0 0 0 0 0 0 0 0 0 0 0 0 127 0" result="hardAlpha"/>
<feOffset dx="-1" dy="2"/>
<feGaussianBlur stdDeviation="2"/>
<feComposite in2="hardAlpha" operator="out"/>
<feColorMatrix type="matrix" values="0 0 0 0 0 0 0 0 0 0 0 0 0 0 0 0 0 0 0.3 0"/>
<feBlend mode="normal" in2="BackgroundImageFix" result="effect1_dropShadow_351_97"/>
<feBlend mode="normal" in="SourceGraphic" in2="effect1_dropShadow_351_97" result="shape"/>
</filter>
</defs>
</svg>
