<svg width="143" height="54" viewBox="0 0 143 54" fill="none" xmlns="http://www.w3.org/2000/svg">
<g filter="url(#filter0_d_351_84)">
<rect x="22.5" y="2.5" width="117" height="35" rx="17.5" fill="#DCFFC7"/>
<rect x="22.5" y="2.5" width="117" height="35" rx="17.5" stroke="#6F6F6F"/>
<path d="M49.102 18.098C49.102 18.91 48.822 19.5867 48.262 20.128C47.7113 20.66 46.8667 20.926 45.728 20.926H43.852V25H42.578V15.242H45.728C46.8293 15.242 47.6647 15.508 48.234 16.04C48.8127 16.572 49.102 17.258 49.102 18.098ZM45.728 19.876C46.4373 19.876 46.96 19.722 47.296 19.414C47.632 19.106 47.8 18.6673 47.8 18.098C47.8 16.894 47.1093 16.292 45.728 16.292H43.852V19.876H45.728ZM54.9934 17.188C55.5721 17.188 56.0948 17.314 56.5614 17.566C57.0281 17.8087 57.3921 18.1773 57.6534 18.672C57.9241 19.1667 58.0594 19.7687 58.0594 20.478V25H56.7994V20.66C56.7994 19.8947 56.6081 19.3113 56.2254 18.91C55.8428 18.4993 55.3201 18.294 54.6574 18.294C53.9854 18.294 53.4488 18.504 53.0474 18.924C52.6554 19.344 52.4594 19.9553 52.4594 20.758V25H51.1854V14.64H52.4594V18.42C52.7114 18.028 53.0568 17.7247 53.4954 17.51C53.9434 17.2953 54.4428 17.188 54.9934 17.188ZM63.9865 25.126C63.2678 25.126 62.6145 24.9627 62.0265 24.636C61.4478 24.3093 60.9905 23.8473 60.6545 23.25C60.3278 22.6433 60.1645 21.9433 60.1645 21.15C60.1645 20.366 60.3325 19.6753 60.6685 19.078C61.0138 18.4713 61.4805 18.0093 62.0685 17.692C62.6565 17.3653 63.3145 17.202 64.0425 17.202C64.7705 17.202 65.4285 17.3653 66.0165 17.692C66.6045 18.0093 67.0665 18.4667 67.4025 19.064C67.7478 19.6613 67.9205 20.3567 67.9205 21.15C67.9205 21.9433 67.7432 22.6433 67.3885 23.25C67.0432 23.8473 66.5718 24.3093 65.9745 24.636C65.3772 24.9627 64.7145 25.126 63.9865 25.126ZM63.9865 24.006C64.4438 24.006 64.8732 23.8987 65.2745 23.684C65.6758 23.4693 65.9978 23.1473 66.2405 22.718C66.4925 22.2887 66.6185 21.766 66.6185 21.15C66.6185 20.534 66.4972 20.0113 66.2545 19.582C66.0118 19.1527 65.6945 18.8353 65.3025 18.63C64.9105 18.4153 64.4858 18.308 64.0285 18.308C63.5618 18.308 63.1325 18.4153 62.7405 18.63C62.3578 18.8353 62.0498 19.1527 61.8165 19.582C61.5832 20.0113 61.4665 20.534 61.4665 21.15C61.4665 21.7753 61.5785 22.3027 61.8025 22.732C62.0358 23.1613 62.3438 23.4833 62.7265 23.698C63.1092 23.9033 63.5292 24.006 63.9865 24.006ZM71.6496 18.378V22.9C71.6496 23.2733 71.7289 23.5393 71.8876 23.698C72.0462 23.8473 72.3216 23.922 72.7136 23.922H73.6516V25H72.5036C71.7942 25 71.2622 24.8367 70.9076 24.51C70.5529 24.1833 70.3756 23.6467 70.3756 22.9V18.378H69.3816V17.328H70.3756V15.396H71.6496V17.328H73.6516V18.378H71.6496ZM79.0412 25.126C78.3225 25.126 77.6692 24.9627 77.0812 24.636C76.5025 24.3093 76.0452 23.8473 75.7092 23.25C75.3825 22.6433 75.2192 21.9433 75.2192 21.15C75.2192 20.366 75.3872 19.6753 75.7232 19.078C76.0685 18.4713 76.5352 18.0093 77.1232 17.692C77.7112 17.3653 78.3692 17.202 79.0972 17.202C79.8252 17.202 80.4832 17.3653 81.0712 17.692C81.6592 18.0093 82.1212 18.4667 82.4572 19.064C82.8025 19.6613 82.9752 20.3567 82.9752 21.15C82.9752 21.9433 82.7979 22.6433 82.4432 23.25C82.0979 23.8473 81.6265 24.3093 81.0292 24.636C80.4319 24.9627 79.7692 25.126 79.0412 25.126ZM79.0412 24.006C79.4985 24.006 79.9279 23.8987 80.3292 23.684C80.7305 23.4693 81.0525 23.1473 81.2952 22.718C81.5472 22.2887 81.6732 21.766 81.6732 21.15C81.6732 20.534 81.5519 20.0113 81.3092 19.582C81.0665 19.1527 80.7492 18.8353 80.3572 18.63C79.9652 18.4153 79.5405 18.308 79.0832 18.308C78.6165 18.308 78.1872 18.4153 77.7952 18.63C77.4125 18.8353 77.1045 19.1527 76.8712 19.582C76.6379 20.0113 76.5212 20.534 76.5212 21.15C76.5212 21.7753 76.6332 22.3027 76.8572 22.732C77.0905 23.1613 77.3985 23.4833 77.7812 23.698C78.1639 23.9033 78.5839 24.006 79.0412 24.006ZM87.8663 25.126C87.2783 25.126 86.7509 25.028 86.2843 24.832C85.8176 24.6267 85.4489 24.3467 85.1783 23.992C84.9076 23.628 84.7583 23.2127 84.7303 22.746H86.0463C86.0836 23.1287 86.2609 23.4413 86.5783 23.684C86.9049 23.9267 87.3296 24.048 87.8523 24.048C88.3376 24.048 88.7203 23.9407 89.0003 23.726C89.2803 23.5113 89.4203 23.2407 89.4203 22.914C89.4203 22.578 89.2709 22.3307 88.9723 22.172C88.6736 22.004 88.2116 21.8407 87.5863 21.682C87.0169 21.5327 86.5503 21.3833 86.1863 21.234C85.8316 21.0753 85.5236 20.8467 85.2623 20.548C85.0103 20.24 84.8843 19.8387 84.8843 19.344C84.8843 18.952 85.0009 18.5927 85.2343 18.266C85.4676 17.9393 85.7989 17.6827 86.2283 17.496C86.6576 17.3 87.1476 17.202 87.6983 17.202C88.5476 17.202 89.2336 17.4167 89.7563 17.846C90.2789 18.2753 90.5589 18.8633 90.5963 19.61H89.3223C89.2943 19.2087 89.1309 18.8867 88.8323 18.644C88.5429 18.4013 88.1509 18.28 87.6563 18.28C87.1989 18.28 86.8349 18.378 86.5643 18.574C86.2936 18.77 86.1583 19.0267 86.1583 19.344C86.1583 19.596 86.2376 19.806 86.3963 19.974C86.5643 20.1327 86.7696 20.2633 87.0123 20.366C87.2643 20.4593 87.6096 20.5667 88.0483 20.688C88.5989 20.8373 89.0469 20.9867 89.3923 21.136C89.7376 21.276 90.0316 21.4907 90.2743 21.78C90.5263 22.0693 90.6569 22.4473 90.6663 22.914C90.6663 23.334 90.5496 23.712 90.3163 24.048C90.0829 24.384 89.7516 24.65 89.3223 24.846C88.9023 25.0327 88.4169 25.126 87.8663 25.126ZM96.7727 17.188C97.3514 17.188 97.8741 17.314 98.3407 17.566C98.8074 17.8087 99.1714 18.1773 99.4327 18.672C99.7034 19.1667 99.8387 19.7687 99.8387 20.478V25H98.5787V20.66C98.5787 19.8947 98.3874 19.3113 98.0047 18.91C97.6221 18.4993 97.0994 18.294 96.4367 18.294C95.7647 18.294 95.2281 18.504 94.8267 18.924C94.4347 19.344 94.2387 19.9553 94.2387 20.758V25H92.9647V14.64H94.2387V18.42C94.4907 18.028 94.8361 17.7247 95.2747 17.51C95.7227 17.2953 96.2221 17.188 96.7727 17.188ZM105.766 25.126C105.047 25.126 104.394 24.9627 103.806 24.636C103.227 24.3093 102.77 23.8473 102.434 23.25C102.107 22.6433 101.944 21.9433 101.944 21.15C101.944 20.366 102.112 19.6753 102.448 19.078C102.793 18.4713 103.26 18.0093 103.848 17.692C104.436 17.3653 105.094 17.202 105.822 17.202C106.55 17.202 107.208 17.3653 107.796 17.692C108.384 18.0093 108.846 18.4667 109.182 19.064C109.527 19.6613 109.7 20.3567 109.7 21.15C109.7 21.9433 109.522 22.6433 109.168 23.25C108.822 23.8473 108.351 24.3093 107.754 24.636C107.156 24.9627 106.494 25.126 105.766 25.126ZM105.766 24.006C106.223 24.006 106.652 23.8987 107.054 23.684C107.455 23.4693 107.777 23.1473 108.02 22.718C108.272 22.2887 108.398 21.766 108.398 21.15C108.398 20.534 108.276 20.0113 108.034 19.582C107.791 19.1527 107.474 18.8353 107.082 18.63C106.69 18.4153 106.265 18.308 105.808 18.308C105.341 18.308 104.912 18.4153 104.52 18.63C104.137 18.8353 103.829 19.1527 103.596 19.582C103.362 20.0113 103.246 20.534 103.246 21.15C103.246 21.7753 103.358 22.3027 103.582 22.732C103.815 23.1613 104.123 23.4833 104.506 23.698C104.888 23.9033 105.308 24.006 105.766 24.006ZM113.149 18.742C113.401 18.3033 113.774 17.9393 114.269 17.65C114.773 17.3513 115.356 17.202 116.019 17.202C116.7 17.202 117.316 17.3653 117.867 17.692C118.427 18.0187 118.866 18.4807 119.183 19.078C119.5 19.666 119.659 20.352 119.659 21.136C119.659 21.9107 119.5 22.6013 119.183 23.208C118.866 23.8147 118.427 24.286 117.867 24.622C117.316 24.958 116.7 25.126 116.019 25.126C115.366 25.126 114.787 24.9813 114.283 24.692C113.788 24.3933 113.41 24.0247 113.149 23.586V28.64H111.875V17.328H113.149V18.742ZM118.357 21.136C118.357 20.5573 118.24 20.0533 118.007 19.624C117.774 19.1947 117.456 18.868 117.055 18.644C116.663 18.42 116.229 18.308 115.753 18.308C115.286 18.308 114.852 18.4247 114.451 18.658C114.059 18.882 113.742 19.2133 113.499 19.652C113.266 20.0813 113.149 20.5807 113.149 21.15C113.149 21.7287 113.266 22.2373 113.499 22.676C113.742 23.1053 114.059 23.4367 114.451 23.67C114.852 23.894 115.286 24.006 115.753 24.006C116.229 24.006 116.663 23.894 117.055 23.67C117.456 23.4367 117.774 23.1053 118.007 22.676C118.24 22.2373 118.357 21.724 118.357 21.136Z" fill="black"/>
<path d="M14.7777 45.7884L12.9078 39.8801L6.99956 38.0102L17.8989 34.8891L14.7777 45.7884Z" fill="#A3FF2E" stroke="black" stroke-width="0.8" stroke-miterlimit="10"/>
</g>
<defs>
<filter id="filter0_d_351_84" x="0.613281" y="0" width="142.387" height="53.1745" filterUnits="userSpaceOnUse" color-interpolation-filters="sRGB">
<feFlood flood-opacity="0" result="BackgroundImageFix"/>
<feColorMatrix in="SourceAlpha" type="matrix" values="0 0 0 0 0 0 0 0 0 0 0 0 0 0 0 0 0 0 127 0" result="hardAlpha"/>
<feOffset dx="-1" dy="2"/>
<feGaussianBlur stdDeviation="2"/>
<feComposite in2="hardAlpha" operator="out"/>
<feColorMatrix type="matrix" values="0 0 0 0 0 0 0 0 0 0 0 0 0 0 0 0 0 0 0.3 0"/>
<feBlend mode="normal" in2="BackgroundImageFix" result="effect1_dropShadow_351_84"/>
<feBlend mode="normal" in="SourceGraphic" in2="effect1_dropShadow_351_84" result="shape"/>
</filter>
</defs>
</svg>
