<?xml version="1.0" encoding="UTF-8"?>
<svg id="Layer_2" data-name="Layer 2" xmlns="http://www.w3.org/2000/svg" xmlns:xlink="http://www.w3.org/1999/xlink" viewBox="0 0 903.05 738.78">
  <defs>
    <style>
      .cls-1 {
        fill: #ff5252;
      }

      .cls-1, .cls-2, .cls-3, .cls-4, .cls-5, .cls-6, .cls-7, .cls-8, .cls-9, .cls-10, .cls-11, .cls-12, .cls-13, .cls-14, .cls-15, .cls-16 {
        stroke-width: 0px;
      }

      .cls-2 {
        fill: #fd2;
      }

      .cls-17, .cls-18, .cls-19, .cls-20, .cls-21, .cls-22, .cls-6, .cls-23, .cls-24, .cls-25 {
        fill: none;
      }

      .cls-17, .cls-18, .cls-19, .cls-20, .cls-21, .cls-22, .cls-23, .cls-24, .cls-25 {
        stroke-miterlimit: 10;
      }

      .cls-17, .cls-20 {
        stroke-width: 1.47px;
      }

      .cls-17, .cls-23, .cls-24, .cls-25 {
        stroke: #ffb600;
      }

      .cls-18, .cls-20 {
        stroke: #ff632e;
      }

      .cls-18, .cls-21, .cls-23 {
        stroke-width: 2px;
      }

      .cls-18, .cls-22, .cls-23 {
        stroke-linecap: round;
      }

      .cls-19 {
        stroke: #ea6060;
      }

      .cls-19, .cls-22, .cls-24 {
        stroke-width: 2.21px;
      }

      .cls-21 {
        stroke: #62bff3;
      }

      .cls-4 {
        fill: #ff8700;
      }

      .cls-22 {
        stroke: #000;
      }

      .cls-5 {
        fill: red;
      }

      .cls-7 {
        fill: #f1c49d;
      }

      .cls-8 {
        fill: #ffe9e9;
      }

      .cls-9 {
        fill: #ffe9e2;
      }

      .cls-10 {
        fill: #eeb27e;
      }

      .cls-11 {
        fill: #f4c70b;
      }

      .cls-12 {
        fill: #a77d6e;
        opacity: .32;
      }

      .cls-13 {
        fill: #8e0202;
      }

      .cls-26 {
        clip-path: url(#clippath);
      }

      .cls-14 {
        fill: #f9b29e;
      }

      .cls-25 {
        stroke-width: .93px;
      }

      .cls-15 {
        fill: #d80000;
      }

      .cls-16 {
        fill: #ffb600;
      }
    </style>
    <clipPath id="clippath">
      <path class="cls-6" d="M493.53,2.21c257.26-22.47,405.42,129.26,409.42,311.17s-111.27,366.47-303.17,402.78C409.46,752.18,27.98,773.45,2.1,550.92c-24.99-214.88,179.9-210.89,227.88-312.33C277.96,137.14,333.32,16.21,493.53,2.21Z"/>
    </clipPath>
  </defs>
  <g id="Layer_1-2" data-name="Layer 1">
    <path class="cls-8" d="M493.53,2.21c257.26-22.47,405.42,129.26,409.42,311.17s-111.27,366.47-303.17,402.78C409.46,752.18,27.98,773.45,2.1,550.92c-24.99-214.88,179.9-210.89,227.88-312.33C277.96,137.14,333.32,16.21,493.53,2.21Z"/>
    <g class="cls-26">
      <path class="cls-10" d="M449.57,396.67c61.8-9.66,53.14-37.98,53.14-37.98,0,0-20.66-13.66-24.65-39.65-3.12-20.31,5.33-43.64,5.33-43.64l-33.82,2h.79l-33.82-2s8.46,23.33,5.33,43.64c-4,25.99-24.65,39.65-24.65,39.65,0,0-8.66,28.32,53.14,37.98h-.79Z"/>
      <path class="cls-7" d="M523.82,178.62c0,39.74-33.97,119.39-73.71,119.39s-70.21-79.65-70.21-119.39,32.22-71.96,71.96-71.96,71.96,32.22,71.96,71.96Z"/>
      <path class="cls-3" d="M450.36,146.14c23.24,0,30.02-7.1,41.23-1.5,19.99,9.99,20.24,35.44,19.99,57.7-.25,22.26-.83,25.33,3.5,17.76,8.5-14.87,16.56-30.98,14.99-72.96,0,0-4.5-71.21-79.71-71.21s-79.71,71.21-79.71,71.21c-1.57,41.98,6.49,58.09,14.99,72.96,4.33,7.57,3.75,4.5,3.5-17.76-.25-22.26,0-47.7,19.99-57.7,11.21-5.61,17.99,1.5,41.23,1.5Z"/>
      <path class="cls-3" d="M429.37,198.11c0,2.9-1.34,5.25-3,5.25s-3-2.35-3-5.25,1.34-5.25,3-5.25,3,2.35,3,5.25Z"/>
      <path class="cls-3" d="M479.35,198.11c0,2.9-1.34,5.25-3,5.25s-3-2.35-3-5.25,1.34-5.25,3-5.25,3,2.35,3,5.25Z"/>
      <path class="cls-12" d="M459.19,233.95c0,1.01-3.95,1.82-8.83,1.82s-8.83-.82-8.83-1.82,3.95-1.82,8.83-1.82,8.83.82,8.83,1.82Z"/>
      <path class="cls-9" d="M468.1,250.7c0,6.14-7.94,11.12-17.74,11.12s-17.74-4.98-17.74-11.12h35.48Z"/>
      <path class="cls-5" d="M449.97,378.01c-28.76,0-43.18-27.96-43.18-27.96,0,0-94.85,21.96-109.51,46.61-14.66,24.65-61.3,112.61-50.64,302.5l383.13-5.33-5.01-63.02,38.33,9.05s15.99-3.33,0-87.95c-12.79-67.69-37.15-146.62-41.31-155.25-8.66-17.99-67.3-31.32-87.29-36.65-19.99-5.33-34.65-13.99-34.65-13.99,0,0-9.12,31.98-49.87,31.98Z"/>
      <g>
        <line class="cls-21" x1="305.77" y1="449.81" x2="322.52" y2="467.92"/>
        <line class="cls-21" x1="322.11" y1="581.96" x2="338.86" y2="600.06"/>
        <line class="cls-21" x1="417.11" y1="411.07" x2="424.03" y2="434.75"/>
        <line class="cls-21" x1="585.89" y1="632.23" x2="592.82" y2="655.91"/>
        <line class="cls-21" x1="551.7" y1="438.06" x2="558.63" y2="461.73"/>
        <line class="cls-21" x1="634.2" y1="570.15" x2="641.12" y2="593.83"/>
        <line class="cls-21" x1="606.06" y1="473.94" x2="612.99" y2="497.62"/>
        <line class="cls-21" x1="355.7" y1="479.33" x2="362.62" y2="503"/>
        <line class="cls-21" x1="359.73" y1="410.43" x2="345.78" y2="430.77"/>
        <line class="cls-21" x1="517.11" y1="653.74" x2="495.22" y2="642.37"/>
        <line class="cls-21" x1="514.28" y1="467.99" x2="500.33" y2="488.33"/>
        <line class="cls-21" x1="512.62" y1="376.36" x2="526.1" y2="397.01"/>
        <line class="cls-21" x1="289.82" y1="567.45" x2="275.87" y2="587.79"/>
        <line class="cls-21" x1="475.13" y1="398.82" x2="461.18" y2="419.17"/>
        <line class="cls-21" x1="414.88" y1="647.69" x2="400.93" y2="668.04"/>
        <line class="cls-21" x1="400.26" y1="457.93" x2="375.67" y2="459.8"/>
        <line class="cls-21" x1="361.95" y1="626.58" x2="346.73" y2="645.98"/>
        <line class="cls-21" x1="521.53" y1="428.28" x2="496.93" y2="430.16"/>
        <line class="cls-21" x1="322.41" y1="669.43" x2="297.81" y2="671.31"/>
        <line class="cls-21" x1="583.03" y1="398.97" x2="558.44" y2="400.84"/>
        <line class="cls-21" x1="301.52" y1="623.75" x2="276.93" y2="625.63"/>
        <line class="cls-21" x1="339.12" y1="522.6" x2="328.29" y2="544.76"/>
        <line class="cls-21" x1="416.5" y1="491.16" x2="405.67" y2="513.33"/>
        <line class="cls-21" x1="308.84" y1="501.97" x2="286.79" y2="513.02"/>
        <line class="cls-21" x1="517.41" y1="531.62" x2="534.16" y2="549.73"/>
        <line class="cls-21" x1="567.34" y1="561.14" x2="574.26" y2="584.81"/>
        <line class="cls-21" x1="571.37" y1="492.24" x2="557.42" y2="512.58"/>
        <line class="cls-21" x1="611.9" y1="539.74" x2="587.31" y2="541.61"/>
        <line class="cls-21" x1="550.76" y1="604.41" x2="539.93" y2="626.57"/>
        <line class="cls-21" x1="520.48" y1="583.79" x2="498.43" y2="594.83"/>
        <line class="cls-21" x1="378.81" y1="561.34" x2="356.76" y2="572.38"/>
        <line class="cls-21" x1="404.63" y1="381.16" x2="382.58" y2="392.21"/>
        <line class="cls-21" x1="468.66" y1="503.56" x2="446.6" y2="514.61"/>
        <line class="cls-21" x1="468.66" y1="453.34" x2="446.6" y2="464.39"/>
        <line class="cls-21" x1="466.46" y1="611.89" x2="452.51" y2="632.23"/>
        <line class="cls-21" x1="427.31" y1="542.72" x2="413.36" y2="563.06"/>
        <line class="cls-21" x1="473.71" y1="572.18" x2="449.11" y2="574.05"/>
        <line class="cls-21" x1="420.84" y1="597.24" x2="398.78" y2="608.28"/>
        <line class="cls-21" x1="604.81" y1="429.33" x2="582.75" y2="440.37"/>
      </g>
      <path class="cls-22" d="M518.08,238.59c-6.39,16.31-20.74,43.23-60.47,39.48"/>
      <circle class="cls-3" cx="457.61" cy="278.07" r="9.24"/>
      <path class="cls-10" d="M516.83,432.98s-25.33-44.48-23.16-75.21c2.17-30.73,15.36-35.73,11.51-54.72s-14.17-43.73-8.01-52.35c6.16-8.62,37.65,22.86,39.15,39.85,1.5,16.99-7.6,45.98-6.05,62.97,1.55,16.99,18.54,55.97,18.54,55.97l-31.98,23.49Z"/>
      <path class="cls-15" d="M621.77,396.67c29.98,43.98,55.97,167.24,53.3,204.56-2.67,37.31-5.33,49.97-13.99,51.97-8.66,2-83.95-51.31-111.27-115.94-27.32-64.63-52.64-130.6-52.64-130.6l47.97-23.99s25.32,49.31,47.97,81.29c22.65,31.98,49.97,65.3,55.97,87.29,6,21.99,15.32,57.97,16.66,69.3,1.33,11.33-2-81.29-16.66-127.27-14.66-45.98-27.32-96.61-27.32-96.61Z"/>
      <path class="cls-1" d="M203.5,679.85h-34.98c-3.44,0-6.34-2.54-6.81-5.94l-12.32-89.73c-.46-3.32,2.12-6.28,5.47-6.28h62.29c3.35,0,5.93,2.96,5.47,6.28l-12.32,89.73c-.47,3.4-3.38,5.94-6.81,5.94Z"/>
      <path class="cls-19" d="M156.69,616.38c-8.33-12.16-17.99-17.16-26.15-13.83-8.16,3.33-5.5,25.82,4.66,34.65,10.16,8.83,26.65,16.49,26.65,16.49"/>
      <rect class="cls-13" x="22.76" y="679.85" width="798.9" height="72.63"/>
      <rect class="cls-2" x="303.19" y="475.29" width="296.59" height="200.56" rx="6.87" ry="6.87"/>
      <path class="cls-4" d="M468.1,575.57c0,9.18-7.44,16.62-16.62,16.62s-16.62-7.44-16.62-16.62,7.44-16.62,16.62-16.62,16.62,7.44,16.62,16.62Z"/>
      <path class="cls-16" d="M48.08,496.91v56.01c0,4.14,3.36,7.5,7.5,7.5h12.31l-.32,22.5,32.16-22.5h78.78c4.14,0,7.5-3.36,7.5-7.5v-56.01c0-4.14-3.36-7.5-7.5-7.5H55.58c-4.14,0-7.5,3.36-7.5,7.5Z"/>
      <path class="cls-2" d="M248.97,384.77v56.01c0,4.14-3.36,7.5-7.5,7.5h-12.31l.32,22.5-32.16-22.5h-78.78c-4.14,0-7.5-3.36-7.5-7.5v-56.01c0-4.14,3.36-7.5,7.5-7.5h122.93c4.14,0,7.5,3.36,7.5,7.5Z"/>
      <path class="cls-4" d="M729.71,256.73v56.01c0,4.14-3.36,7.5-7.5,7.5h-12.31l.32,22.5-32.16-22.5h-78.78c-4.14,0-7.5-3.36-7.5-7.5v-56.01c0-4.14,3.36-7.5,7.5-7.5h122.93c4.14,0,7.5,3.36,7.5,7.5Z"/>
      <path class="cls-22" d="M412.29,185.25c3.3-3.74,8.38-6.13,14.08-6.13,4.97,0,9.47,1.82,12.72,4.76"/>
      <path class="cls-22" d="M462.95,185.25c3.3-3.74,8.38-6.13,14.08-6.13,4.97,0,9.47,1.82,12.72,4.76"/>
      <path class="cls-24" d="M365.19,188.49c6.72-47.13,42.12-83.07,84.78-83.07s76.17,34.06,84.18,79.33"/>
      <path class="cls-2" d="M389.72,247.45h0c-11.76,2.75-23.52-4.55-26.27-16.3l-6.67-28.46c-2.75-11.76,4.55-23.52,16.3-26.27h0c3.96-.93,7.93,1.53,8.86,5.5l13.28,56.69c.93,3.96-1.53,7.93-5.5,8.86Z"/>
      <path class="cls-2" d="M513.39,247.45h0c11.76,2.75,23.52-4.55,26.27-16.3l6.67-28.46c2.75-11.76-4.55-23.52-16.3-26.27h0c-3.96-.93-7.93,1.53-8.86,5.5l-13.28,56.69c-.93,3.96,1.53,7.93,5.5,8.86Z"/>
      <circle class="cls-14" cx="416.38" cy="232.13" r="13.95"/>
      <circle class="cls-14" cx="485.44" cy="232.13" r="13.95"/>
      <path class="cls-16" d="M280.14,281.14c0-3.51-2.31-5.81-7.41-5.81-5.51,0-8.82,3.71-10.82,8.42l-13.83-7.92c4.41-10.32,14.13-16.13,25.25-16.13s22.85,7.02,22.85,20.04c0,14.93-16.03,19.54-16.03,26.46h-16.03c0-11.72,16.03-16.23,16.03-25.05ZM262.61,323.13c0-5.21,4.31-9.52,9.52-9.52s9.52,4.31,9.52,9.52-4.31,9.52-9.52,9.52-9.52-4.31-9.52-9.52Z"/>
      <path class="cls-2" d="M626.86,108.23c0-3.51-2.31-5.81-7.41-5.81-5.51,0-8.82,3.71-10.82,8.42l-13.83-7.92c4.41-10.32,14.13-16.13,25.25-16.13s22.85,7.02,22.85,20.04c0,14.93-16.03,19.54-16.03,26.46h-16.03c0-11.72,16.03-16.23,16.03-25.05ZM609.32,150.22c0-5.21,4.31-9.52,9.52-9.52s9.52,4.31,9.52,9.52-4.31,9.52-9.52,9.52-9.52-4.31-9.52-9.52Z"/>
      <path class="cls-4" d="M779.78,494.83c0-3.51-2.3-5.81-7.41-5.81-5.51,0-8.82,3.71-10.82,8.42l-13.83-7.92c4.41-10.32,14.13-16.13,25.25-16.13s22.85,7.02,22.85,20.04c0,14.93-16.03,19.54-16.03,26.46h-16.03c0-11.73,16.03-16.24,16.03-25.05ZM762.24,536.82c0-5.21,4.31-9.52,9.52-9.52s9.52,4.31,9.52,9.52-4.31,9.52-9.52,9.52-9.52-4.31-9.52-9.52Z"/>
      <rect class="cls-11" x="126.04" y="392.34" width="108.28" height="9.6"/>
      <rect class="cls-11" x="126.04" y="408.02" width="108.28" height="9.6"/>
      <rect class="cls-11" x="126.04" y="423.71" width="108.28" height="9.6"/>
      <rect class="cls-4" x="62.9" y="503.85" width="108.28" height="9.6"/>
      <rect class="cls-4" x="62.9" y="519.54" width="108.28" height="9.6"/>
      <rect class="cls-4" x="62.9" y="535.22" width="108.28" height="9.6"/>
      <rect class="cls-16" x="606.61" y="263.96" width="108.28" height="9.6"/>
      <rect class="cls-16" x="606.61" y="279.65" width="108.28" height="9.6"/>
      <rect class="cls-16" x="606.61" y="295.34" width="108.28" height="9.6"/>
      <path class="cls-17" d="M736.16,424.49c0,8.66-7.02,15.69-15.69,15.69s-15.69-7.02-15.69-15.69,7.02-15.69,15.69-15.69,15.69,7.02,15.69,15.69Z"/>
      <circle class="cls-25" cx="296.45" cy="183.95" r="9.96"/>
      <path class="cls-20" d="M730.57,139.17c0,8.66-7.02,15.69-15.69,15.69s-15.69-7.02-15.69-15.69,7.02-15.69,15.69-15.69,15.69,7.02,15.69,15.69Z"/>
      <g>
        <line class="cls-23" x1="794.85" y1="227.26" x2="794.85" y2="246.27"/>
        <line class="cls-23" x1="804.35" y1="236.77" x2="785.34" y2="236.77"/>
      </g>
      <g>
        <line class="cls-23" x1="58.34" y1="425.99" x2="58.34" y2="445"/>
        <line class="cls-23" x1="67.84" y1="435.49" x2="48.83" y2="435.49"/>
      </g>
      <g>
        <line class="cls-18" x1="835.13" y1="389.35" x2="835.13" y2="408.36"/>
        <line class="cls-18" x1="844.64" y1="398.85" x2="825.63" y2="398.85"/>
      </g>
      <g>
        <line class="cls-18" x1="550.33" y1="42.63" x2="536.89" y2="56.08"/>
        <line class="cls-18" x1="550.33" y1="56.08" x2="536.89" y2="42.63"/>
      </g>
    </g>
  </g>
</svg>