<?xml version="1.0" encoding="UTF-8"?>
<svg id="Layer_2" data-name="Layer 2" width="130" height="130" xmlns="http://www.w3.org/2000/svg" viewBox="0 0 100 100">
  <defs>
    <style>
      .cls-1 {
        stroke-width: 0px;
      }
    </style>
  </defs>
  <g id="Layer_2-2" data-name="Layer 2">
    <g id="Layer_1-2" data-name="Layer 1-2">
      <g>
        <path class="cls-1" d="M100,100H0V0h100v100ZM93.74,93.75V6.28H6.26v87.47h87.47Z"/>
        <path class="cls-1" d="M64.45,75.54h-11.88c-1.17-3.86-2.36-7.71-3.48-11.57-.22-.76-.54-1.01-1.34-1-4.04.04-8.07.04-12.11,0-.71,0-1.01.22-1.2.92-1.05,3.89-2.15,7.76-3.24,11.66h-11.46c.08-.32.13-.62.22-.91,4.82-15.75,9.64-31.5,14.45-47.26.21-.7.51-.97,1.28-.96,4.23.04,8.46.02,12.7.01.57,0,.93.05,1.14.73,4.92,15.96,9.87,31.91,14.82,47.86.05.15.07.31.11.52h0ZM41.64,34.88c-.07,0-.13.02-.2.02-1.7,6.56-3.41,13.12-5.12,19.72h10.83c-1.85-6.63-3.68-13.18-5.51-19.74h0Z"/>
        <path class="cls-1" d="M68.94,40.02h10.92v35.49h-10.92v-35.49Z"/>
        <path class="cls-1" d="M74.33,35.55c-3.35,0-5.76-2.33-5.75-5.56.01-3.3,2.39-5.57,5.83-5.58,3.43,0,5.89,2.36,5.88,5.66,0,3.17-2.52,5.48-5.96,5.47h0Z"/>
      </g>
    </g>
  </g>
</svg>