<?xml version="1.0" encoding="UTF-8"?>
<svg id="Layer_2" data-name="Layer 2" width="130" height="130" xmlns="http://www.w3.org/2000/svg" viewBox="0 0 99.98 100">
  <defs>
    <style>
      .cls-1 {
        stroke-width: 0px;
      }

      .cls-2 {
        fill: none;
        stroke: #000;
        stroke-miterlimit: 10;
        stroke-width: 6px;
      }
    </style>
  </defs>
  <g id="Layer_2-2" data-name="Layer 2">
    <g id="Layer_1-2" data-name="Layer 1-2">
      <g>
        <g>
          <ellipse class="cls-2" cx="49.99" cy="50" rx="46.99" ry="47"/>
          <ellipse class="cls-2" cx="49.99" cy="50" rx="46.99" ry="47"/>
          <ellipse class="cls-2" cx="49.99" cy="50" rx="46.99" ry="47"/>
          <ellipse class="cls-2" cx="49.99" cy="50" rx="46.99" ry="47"/>
          <ellipse class="cls-2" cx="49.99" cy="50" rx="46.99" ry="47"/>
        </g>
        <path class="cls-1" d="M85.7,54.81c-.12,0-.24.09-.29.28-.74,2.38-1.74,3.81-2.57,3.81-.48,0-.67-.6-.67-1.53,0-2.34,1.24-7.29,1.87-9.55.07-.27.12-.52.12-.73,0-.65-.32-.98-1.11-.98-.85,0-1.77.38-2.66,2.13-.31-1.55-1.24-2.23-2.54-2.23-1.5,0-2.95,1.09-4.15,2.86s-2.6,2.34-3.66,2.06c.76-2.1,1.04-3.66,1.04-4.82,0-1.82-.8-2.92-2.09-2.92-1.97,0-3.1,2.11-3.1,4.33,0,1.72.69,3.48,2.21,4.34-1.28,3.25-3.14,6.18-3.84,6.18-.91,0-1.18-5.02-1.13-8.62.03-2.06.19-2.17.19-2.79,0-.36-.21-.61-1.04-.61-1.93,0-2.53,1.84-2.62,3.96-.03.8-.14,1.6-.33,2.38-.81,3.25-2.47,5.71-3.56,5.71-.51,0-.64-.56-.64-1.31,0-2.34,1.16-5.25,1.16-7.75,0-1.83-.71-2.99-2.06-2.99-1.58,0-3.67,2.12-5.66,6.09.65-3.04.92-5.98-1.01-5.98-.42,0-.83.13-1.2.35-.25.13-.41.43-.39.74.19,3.24-2.32,11.53-4.69,11.53-.43,0-.64-.52-.64-1.38,0-2.34,1.24-7.28,1.86-9.54.08-.3.12-.55.12-.77,0-.62-.34-.94-1.11-.94-.85,0-1.77.36-2.66,2.12-.31-1.55-1.24-2.23-2.54-2.23-2.13,0-4.52,2.54-5.56,5.85-1.4,4.42-4.23,8.69-8.03,8.69-3.45,0-5.27-3.23-5.27-8.34,0-7.37,4.81-13.4,8.38-13.4,1.71,0,2.52,1.22,2.52,3.1,0,2.27-1.13,3.33-1.13,4.19,0,.26.19.52.58.52,1.55,0,3.38-2.05,3.38-4.85s-2.02-4.85-5.58-4.85c-5.9,0-11.83,6.68-11.83,15.24,0,6.81,2.98,10.91,8.14,10.91,3.52,0,6.6-3.08,8.26-6.68.19,2.98,1.39,4.54,3.22,4.54,1.63,0,2.95-1.09,3.96-3.01.39,2.01,1.42,2.99,2.75,2.99,1.53,0,2.81-1.09,4.03-3.12-.02,1.6.3,3.09,1.53,3.09.58,0,1.27-.15,1.4-.72,1.29-6.02,4.49-10.93,5.46-10.93.29,0,.37.31.37.69,0,1.64-1.02,4.98-1.02,7.13,0,2.31.87,3.84,2.68,3.84,2,0,4.03-2.76,5.39-6.79.42,3.77,1.34,6.8,2.78,6.8,1.76,0,4.88-4.17,6.78-8.59.74.11,1.86.08,2.93-.78-.46,1.3-.72,2.73-.72,4.15,0,4.1,1.74,5.25,3.24,5.25,1.63,0,2.95-1.09,3.96-3.01.33,1.73,1.18,2.99,2.75,2.99,2.45,0,4.57-2.81,4.57-5.13,0-.61-.23-.98-.51-.98h0ZM34.88,58.67c-.99,0-1.38-1.12-1.38-2.79,0-2.9,1.76-7.75,3.63-7.75.82,0,1.12,1.08,1.12,2.4,0,2.95-1.68,8.14-3.38,8.14h0ZM68.75,50.01c-.59-.79-.8-1.87-.8-2.82,0-1.18.39-2.18.85-2.18s.6.51.6,1.22c0,1.19-.38,2.92-.64,3.79h0ZM76.42,58.67c-.99,0-1.38-1.29-1.38-2.79,0-2.8,1.76-7.75,3.65-7.75.82,0,1.11,1.07,1.11,2.4,0,2.95-1.65,8.14-3.37,8.14h0Z"/>
      </g>
    </g>
  </g>
</svg>