<?xml version="1.0" encoding="UTF-8"?>
<svg id="Layer_2" data-name="Layer 2" width="130" height="130" xmlns="http://www.w3.org/2000/svg" viewBox="0 0 69.6 100">
  <defs>
    <style>
      .cls-1 {
        stroke-width: 0px;
      }
    </style>
  </defs>
  <g id="Layer_2-2" data-name="Layer 2">
    <g id="Layer_1-2" data-name="Layer 1-2">
      <path class="cls-1" d="M52.81,0c1.26.3,2.56.48,3.77.91,7.09,2.47,11.52,7.42,12.73,14.81,1.21,7.4-1.47,13.47-7.39,18.09-.2.16-.42.31-.72.53,5.4,3.91,8.36,9.11,8.38,15.81.01,4.46-1.48,8.43-4.35,11.84-3.44,4.08-7.87,6.32-13.2,6.69-5.26.36-9.92-1.21-14.12-4.79v1.26c0,5.27.03,10.54,0,15.82-.06,8.96-5.93,16.36-14.63,18.51-8.58,2.13-17.68-2.24-21.45-10.3-3.75-8.01-1.32-17.62,5.79-22.89.26-.19.52-.38.86-.63C3.11,61.79.11,56.64.1,50.02c0-6.62,2.96-11.78,8.25-15.59-1.27-1.2-2.64-2.26-3.72-3.57C0,25.28-1.26,18.93,1.31,12.15,3.91,5.3,9.07,1.34,16.33.17c.18-.03.36-.11.54-.17h35.94ZM31.7,6.2c-.27-.03-.49-.07-.71-.07-4.1,0-8.2-.01-12.31,0-.71,0-1.44.07-2.14.2-6.61,1.27-10.88,7.03-10.26,13.79.58,6.25,6.07,11.12,12.59,11.15,3.71.02,7.42,0,11.13,0h1.69V6.2h0ZM37.96,31.27h1.05c3.87,0,7.74.01,11.62,0,.84,0,1.69-.06,2.52-.2,5.99-1.01,10.54-6.61,10.32-12.63-.24-6.41-5.03-11.78-11.26-12.16-4.67-.28-9.36-.1-14.05-.11-.05,0-.11.07-.2.13,0,0,0,24.99,0,24.99ZM31.7,62.56v-25.07c-.27-.02-.49-.05-.71-.05-4.1,0-8.2-.02-12.3.02-1,.01-2.02.13-2.99.37-6.24,1.58-10.09,7.31-9.38,13.87.64,5.92,5.97,10.72,12.17,10.84,4,.08,8,.02,12.01.02h1.21ZM31.71,68.81c-.15-.04-.24-.08-.33-.08-4.55,0-9.11-.13-13.66.05-6.58.26-12.03,6.64-11.49,13.21.55,6.69,5.53,11.51,12.25,11.87,6.53.34,12.81-4.95,13.18-11.42.26-4.5.05-9.03.05-13.63h0ZM50.74,37.43c-7.17-.02-12.81,5.49-12.82,12.54-.01,7.01,5.56,12.56,12.67,12.59,7.2.04,12.92-5.54,12.89-12.59-.02-6.98-5.65-12.52-12.74-12.54h0Z"/>
    </g>
  </g>
</svg>