<?xml version="1.0" encoding="UTF-8"?>
<svg id="Layer_2" data-name="Layer 2" width="130" height="130" xmlns="http://www.w3.org/2000/svg" viewBox="0 0 100 100">
  <defs>
    <style>
      .cls-1 {
        stroke-width: 0px;
      }
    </style>
  </defs>
  <g id="Layer_2-2" data-name="Layer 2">
    <g id="Layer_1-2" data-name="Layer 1-2">
      <g>
        <path class="cls-1" d="M0,100V0h100v100H0ZM6.25,93.74h87.47V6.26H6.25v87.47Z"/>
        <path class="cls-1" d="M29.2,57.05v17.74h-11.15V25.38c2.38-.24,4.76-.62,7.15-.7,4.13-.12,8.26-.2,12.38-.03,3.47.14,6.83,1,9.8,2.92,3.79,2.45,5.93,6,6.41,10.45.55,5.14-.51,9.88-4.29,13.66-2.86,2.86-6.47,4.38-10.41,4.9-2.86.38-5.76.32-8.65.46-.35.02-.71,0-1.24,0h0ZM29.31,48.25c2.13,0,4.17.23,6.14-.05,4.52-.63,6.9-3.12,7.24-7.44.21-2.62-.64-4.92-3-6.35-3.29-2-6.83-1.54-10.38-1.05v14.88h0Z"/>
        <path class="cls-1" d="M80.38,39.8c-.06.3-.08.52-.14.74-.59,2.3-1.19,4.59-1.78,6.89-1.5-.5-2.95-1.05-4.44-1.46-1.7-.47-3.45-.7-5.2-.26-.52.13-1.06.35-1.5.66-1.34.96-1.46,2.86-.18,3.86.83.65,1.82,1.12,2.8,1.54,2.53,1.09,5.16,1.92,7.51,3.45,6.2,4.04,6.11,13.96-.74,17.92-2.63,1.52-5.49,2.2-8.47,2.37-4.13.24-8.18-.23-12.08-1.71-.54-.2-1.06-.48-1.66-.75.67-2.69,1.32-5.33,1.95-7.85,2.19.71,4.32,1.48,6.49,2.08,1.9.52,3.85.63,5.79.11,1.23-.33,2.11-1.02,2.3-2.36.18-1.36-.41-2.4-1.61-2.95-1.86-.86-3.78-1.56-5.66-2.35-2.36-.99-4.52-2.28-6.22-4.26-3.25-3.78-2.52-9.55.42-12.93,2.38-2.75,5.5-4.13,9-4.61,4.39-.61,8.69-.1,12.83,1.56.18.07.35.16.6.28h0Z"/>
      </g>
    </g>
  </g>
</svg>