<?xml version="1.0" encoding="UTF-8"?>
<svg id="Layer_2" data-name="Layer 2" width="130" height="130" xmlns="http://www.w3.org/2000/svg" viewBox="0 0 100 100">
  <defs>
    <style>
      .cls-1 {
        stroke-width: 0px;
      }
    </style>
  </defs>
  <g id="Layer_2-2" data-name="Layer 2">
    <g id="Layer_1-2" data-name="Layer 1-2">
      <g>
        <path class="cls-1" d="M0,100V0h100v100H0ZM93.1,93.12V6.91H6.88v86.22h86.22,0Z"/>
        <path class="cls-1" d="M99.48.52v98.97H.52V.52h98.97ZM93.62,93.64V6.39H6.36v87.25h87.25,0Z"/>
        <path class="cls-1" d="M63.43,70.2c-3.9,0-7.58-1.81-9.83-4.85-4.53-6.11-3.61-15.49,1.97-20.07,2.12-1.74,4.6-2.66,7.18-2.66s5.02.94,7.02,2.65v-11.7h8.66v8.18c0,6.18,0,12.57-.02,18.86,0,.92.24,1.28.62,1.58.46.36.78.98.79,1.55.02,1.21.02,2.43.02,3.61v1.97l-.82.28c-1.12.38-2.1.56-2.99.56-2.14,0-3.68-1.03-4.67-3.13-2.04,2.05-4.84,3.19-7.92,3.19h0ZM64.61,50.3c-.89,0-1.78.32-2.62.96-1.48,1.12-2.38,3-2.41,5.04-.03,2.06.8,3.9,2.26,5.07,1.02.81,2.07,1.22,3.14,1.22h0c.72,0,1.44-.18,2.18-.55,2.07-1.03,2.89-2.33,2.67-4.21-.04-.3-.03-.59-.02-.84,0-.09,0-.18,0-.27v-1.11h.05c-.01-.64-.03-1.23-.2-1.66-.53-1.3-1.52-2.36-2.86-3.06-.75-.39-1.48-.58-2.18-.58h0Z"/>
        <path class="cls-1" d="M78.63,68.44c-3.78,1.28-5.83.14-6.82-3.74-.11.08-.21.14-.27.22-4.06,5.78-12.92,5.18-16.98-.29-4.1-5.52-3.31-14.26,1.77-18.43,4.52-3.71,10.58-3.04,14.17,1.56.1.12.19.25.46.6v-13.61h6.26v1.19c0,8.21.01,16.42-.02,24.64,0,1.04.24,1.88,1.09,2.54.17.13.32.41.32.62.03,1.57.02,3.15.02,4.69h0ZM71.01,56.72s.06,0,.09,0c-.09-1.08.06-2.26-.34-3.22-.65-1.6-1.86-2.86-3.42-3.68-2.11-1.1-4.18-.94-6.08.48-3.78,2.84-3.87,9.06-.18,12,2,1.6,4.29,1.96,6.6.8,2.17-1.08,3.64-2.74,3.32-5.42-.04-.32,0-.64,0-.96h0Z"/>
        <path class="cls-1" d="M28.4,69.77c-.78-.02-1.59-.02-2.65-.02h-5.65l1.19-1.85.23-.36c.15-.24.28-.44.42-.64l1.99-2.84c2.67-3.82,5.42-7.76,8.16-11.63.03-.04.06-.08.07-.11-.01-.02-.03-.05-.05-.08-2.76-3.87-5.53-7.82-8.22-11.65l-2.25-3.2c-.14-.19-.27-.39-.43-.64l-.3-.45-1.25-1.87h5.13c.34,0,.7-.02,1.09-.05.41-.03.84-.06,1.27-.06.56,0,1.41.05,2.18.45,1.06.56,1.67,1.66,2.21,2.63.2.36.38.7.58.99,1.38,2.05,2.75,4.1,4.16,6.19l.76,1.13c.44-.66.88-1.32,1.33-1.98,1.71-2.56,3.48-5.2,5.18-7.82.66-1.01,1.51-1.48,2.68-1.48h.16c.66.02,1.39.03,2.28.03.53,0,1.06,0,1.61,0,.58,0,1.16,0,1.77,0h2.22l-1.22,1.86-.25.38c-.16.24-.28.44-.42.63l-2.15,3.06c-2.73,3.9-5.56,7.92-8.36,11.87-.02.04-.04.06-.06.09.02.03.04.07.08.11,2.67,3.77,5.36,7.62,7.96,11.34l2.14,3.05c.14.19.27.39.43.64l1.54,2.29h-2.25c-.56,0-2.67,0-3.18,0-.9,0-2.1,0-3.3-.04-1-.02-1.68-.96-1.81-1.15-1.68-2.52-3.38-5.08-5.02-7.56l-1.37-2.06-.91,1.37c-1.8,2.7-3.65,5.48-5.46,8.24-.55.83-1.24,1.22-2.19,1.22h-.07v.02Z"/>
        <path class="cls-1" d="M51.71,68.56c-2.28,0-4.36.02-6.45-.03-.29,0-.65-.34-.84-.62-2.26-3.37-4.49-6.76-6.73-10.14-.19-.29-.4-.56-.65-.93-.26.36-.46.64-.66.92-2.25,3.38-4.5,6.75-6.73,10.14-.32.48-.64.69-1.24.68-1.99-.04-3.98-.02-6.12-.02.26-.4.43-.69.62-.97,3.38-4.83,6.74-9.66,10.15-14.47.42-.59.45-.96.02-1.58-3.51-4.93-6.98-9.89-10.46-14.84-.2-.28-.39-.58-.72-1.07,1.04,0,1.91,0,2.78,0,1.38.02,2.98-.37,4.08.2,1.06.55,1.6,2.1,2.35,3.22,1.94,2.88,3.87,5.77,5.89,8.78.25-.36.46-.62.64-.9,2.3-3.45,4.64-6.89,6.89-10.38.47-.72.97-.96,1.8-.94,1.83.06,3.66.02,5.7.02-.28.42-.45.7-.64.98-3.5,4.98-6.98,9.97-10.51,14.93-.43.61-.4,1,.02,1.59,3.38,4.78,6.74,9.59,10.1,14.39.2.28.39.58.7,1.04h0Z"/>
      </g>
    </g>
  </g>
</svg>